<?xml version="1.0" encoding="UTF-8" standalone="no"?>
<!DOCTYPE svg PUBLIC "-//W3C//DTD SVG 1.1//EN"
 "http://www.w3.org/Graphics/SVG/1.1/DTD/svg11.dtd">
<!-- Generated by graphviz version 2.38.0 (20140413.2041)
 -->
<!-- Title: eagle_impl::TwoWire::begin Pages: 1 -->
<svg width="260pt" height="78pt"
 viewBox="0.00 0.00 260.00 77.50" xmlns="http://www.w3.org/2000/svg" xmlns:xlink="http://www.w3.org/1999/xlink">
<g id="graph0" class="graph" transform="scale(1 1) rotate(0) translate(4 73.5)">
<title>eagle_impl::TwoWire::begin</title>
<polygon fill="white" stroke="none" points="-4,4 -4,-73.5 256,-73.5 256,4 -4,4"/>
<!-- Node11 -->
<g id="node1" class="node"><title>Node11</title>
<polygon fill="#bfbfbf" stroke="black" points="0,-17 0,-47 108,-47 108,-17 0,-17"/>
<text text-anchor="start" x="8" y="-35" font-family="Helvetica,sans-Serif" font-size="10.00">eagle_impl::TwoWire</text>
<text text-anchor="middle" x="54" y="-24" font-family="Helvetica,sans-Serif" font-size="10.00">::begin</text>
</g>
<!-- Node12 -->
<g id="node2" class="node"><title>Node12</title>
<g id="a_node2"><a xlink:href="classeagle__impl_1_1TwoWire.html#a96f2477bba1630c25b9e318ced8585ab" target="_top" xlink:title="eagle_impl::TwoWire\l::begin">
<polygon fill="white" stroke="black" points="144,-39 144,-69 252,-69 252,-39 144,-39"/>
<text text-anchor="start" x="152" y="-57" font-family="Helvetica,sans-Serif" font-size="10.00">eagle_impl::TwoWire</text>
<text text-anchor="middle" x="198" y="-46" font-family="Helvetica,sans-Serif" font-size="10.00">::begin</text>
</a>
</g>
</g>
<!-- Node11&#45;&gt;Node12 -->
<g id="edge1" class="edge"><title>Node11&#45;&gt;Node12</title>
<path fill="none" stroke="midnightblue" d="M118.238,-41.7974C126.806,-43.1249 135.528,-44.4761 143.894,-45.7723"/>
<polygon fill="midnightblue" stroke="midnightblue" points="118.698,-38.327 108.28,-40.2546 117.626,-45.2444 118.698,-38.327"/>
</g>
<!-- Node13 -->
<g id="node3" class="node"><title>Node13</title>
<g id="a_node3"><a xlink:href="eBoard__comment_8h.html#a7dfd9b79bc5a37d7df40207afbc5431f" target="_top" xlink:title="this is a guard ">
<polygon fill="white" stroke="black" points="177.5,-0.5 177.5,-19.5 218.5,-19.5 218.5,-0.5 177.5,-0.5"/>
<text text-anchor="middle" x="198" y="-7.5" font-family="Helvetica,sans-Serif" font-size="10.00">setup</text>
</a>
</g>
</g>
<!-- Node11&#45;&gt;Node13 -->
<g id="edge2" class="edge"><title>Node11&#45;&gt;Node13</title>
<path fill="none" stroke="midnightblue" d="M118.289,-22.1947C139.569,-18.8978 161.784,-15.456 177.166,-13.0729"/>
<polygon fill="midnightblue" stroke="midnightblue" points="117.626,-18.7556 108.28,-23.7454 118.698,-25.673 117.626,-18.7556"/>
</g>
</g>
</svg>
