<?xml version="1.0" encoding="UTF-8" standalone="no"?>
<!DOCTYPE svg PUBLIC "-//W3C//DTD SVG 1.1//EN"
 "http://www.w3.org/Graphics/SVG/1.1/DTD/svg11.dtd">
<!-- Generated by graphviz version 2.38.0 (20140413.2041)
 -->
<!-- Title: eagle_impl::SoftwareSerial Pages: 1 -->
<svg width="223pt" height="568pt"
 viewBox="0.00 0.00 223.00 568.00" xmlns="http://www.w3.org/2000/svg" xmlns:xlink="http://www.w3.org/1999/xlink">
<g id="graph0" class="graph" transform="scale(1 1) rotate(0) translate(4 564)">
<title>eagle_impl::SoftwareSerial</title>
<polygon fill="white" stroke="none" points="-4,4 -4,-564 219,-564 219,4 -4,4"/>
<!-- Node2 -->
<g id="node1" class="node"><title>Node2</title>
<polygon fill="#bfbfbf" stroke="black" points="0,-0.5 0,-464.5 133,-464.5 133,-0.5 0,-0.5"/>
<text text-anchor="middle" x="66.5" y="-452.5" font-family="Helvetica,sans-Serif" font-size="10.00">eagle_impl::SoftwareSerial</text>
<polyline fill="none" stroke="black" points="0,-445.5 133,-445.5 "/>
<text text-anchor="start" x="8" y="-433.5" font-family="Helvetica,sans-Serif" font-size="10.00">&#45; _receivePin</text>
<text text-anchor="start" x="8" y="-422.5" font-family="Helvetica,sans-Serif" font-size="10.00">&#45; _receiveBitMask</text>
<text text-anchor="start" x="8" y="-411.5" font-family="Helvetica,sans-Serif" font-size="10.00">&#45; _receivePortRegister</text>
<text text-anchor="start" x="8" y="-400.5" font-family="Helvetica,sans-Serif" font-size="10.00">&#45; _transmitBitMask</text>
<text text-anchor="start" x="8" y="-389.5" font-family="Helvetica,sans-Serif" font-size="10.00">&#45; _transmitPortRegister</text>
<text text-anchor="start" x="8" y="-378.5" font-family="Helvetica,sans-Serif" font-size="10.00">&#45; _rx_delay_centering</text>
<text text-anchor="start" x="8" y="-367.5" font-family="Helvetica,sans-Serif" font-size="10.00">&#45; _rx_delay_intrabit</text>
<text text-anchor="start" x="8" y="-356.5" font-family="Helvetica,sans-Serif" font-size="10.00">&#45; _rx_delay_stopbit</text>
<text text-anchor="start" x="8" y="-345.5" font-family="Helvetica,sans-Serif" font-size="10.00">&#45; _tx_delay</text>
<text text-anchor="start" x="8" y="-334.5" font-family="Helvetica,sans-Serif" font-size="10.00">&#45; _buffer_overflow</text>
<text text-anchor="start" x="8" y="-323.5" font-family="Helvetica,sans-Serif" font-size="10.00">&#45; _inverse_logic</text>
<text text-anchor="start" x="8" y="-312.5" font-family="Helvetica,sans-Serif" font-size="10.00">&#45; _receive_buffer</text>
<text text-anchor="start" x="8" y="-301.5" font-family="Helvetica,sans-Serif" font-size="10.00">&#45; _receive_buffer_tail</text>
<text text-anchor="start" x="8" y="-290.5" font-family="Helvetica,sans-Serif" font-size="10.00">&#45; _receive_buffer_head</text>
<polyline fill="none" stroke="black" points="0,-283.5 133,-283.5 "/>
<text text-anchor="start" x="8" y="-271.5" font-family="Helvetica,sans-Serif" font-size="10.00">+ SoftwareSerial()</text>
<text text-anchor="start" x="8" y="-260.5" font-family="Helvetica,sans-Serif" font-size="10.00">+ ~SoftwareSerial()</text>
<text text-anchor="start" x="8" y="-249.5" font-family="Helvetica,sans-Serif" font-size="10.00">+ begin()</text>
<text text-anchor="start" x="8" y="-238.5" font-family="Helvetica,sans-Serif" font-size="10.00">+ listen()</text>
<text text-anchor="start" x="8" y="-227.5" font-family="Helvetica,sans-Serif" font-size="10.00">+ end()</text>
<text text-anchor="start" x="8" y="-216.5" font-family="Helvetica,sans-Serif" font-size="10.00">+ isListening()</text>
<text text-anchor="start" x="8" y="-205.5" font-family="Helvetica,sans-Serif" font-size="10.00">+ overflow()</text>
<text text-anchor="start" x="8" y="-194.5" font-family="Helvetica,sans-Serif" font-size="10.00">+ peek()</text>
<text text-anchor="start" x="8" y="-183.5" font-family="Helvetica,sans-Serif" font-size="10.00">+ write()</text>
<text text-anchor="start" x="8" y="-172.5" font-family="Helvetica,sans-Serif" font-size="10.00">+ read()</text>
<text text-anchor="start" x="8" y="-161.5" font-family="Helvetica,sans-Serif" font-size="10.00">and 14 more...</text>
<text text-anchor="start" x="8" y="-150.5" font-family="Helvetica,sans-Serif" font-size="10.00">+ handle_interrupt()</text>
<text text-anchor="start" x="8" y="-139.5" font-family="Helvetica,sans-Serif" font-size="10.00">+ handle_interrupt()</text>
<text text-anchor="start" x="8" y="-128.5" font-family="Helvetica,sans-Serif" font-size="10.00">&#45; recv()</text>
<text text-anchor="start" x="8" y="-117.5" font-family="Helvetica,sans-Serif" font-size="10.00">&#45; rx_pin_read()</text>
<text text-anchor="start" x="8" y="-106.5" font-family="Helvetica,sans-Serif" font-size="10.00">&#45; tx_pin_write()</text>
<text text-anchor="start" x="8" y="-95.5" font-family="Helvetica,sans-Serif" font-size="10.00">&#45; setTX()</text>
<text text-anchor="start" x="8" y="-84.5" font-family="Helvetica,sans-Serif" font-size="10.00">&#45; setRX()</text>
<text text-anchor="start" x="8" y="-73.5" font-family="Helvetica,sans-Serif" font-size="10.00">&#45; recv()</text>
<text text-anchor="start" x="8" y="-62.5" font-family="Helvetica,sans-Serif" font-size="10.00">&#45; rx_pin_read()</text>
<text text-anchor="start" x="8" y="-51.5" font-family="Helvetica,sans-Serif" font-size="10.00">&#45; tx_pin_write()</text>
<text text-anchor="start" x="8" y="-40.5" font-family="Helvetica,sans-Serif" font-size="10.00">&#45; setTX()</text>
<text text-anchor="start" x="8" y="-29.5" font-family="Helvetica,sans-Serif" font-size="10.00">&#45; setRX()</text>
<text text-anchor="start" x="8" y="-18.5" font-family="Helvetica,sans-Serif" font-size="10.00">&#45; tunedDelay()</text>
<text text-anchor="start" x="8" y="-7.5" font-family="Helvetica,sans-Serif" font-size="10.00">&#45; tunedDelay()</text>
</g>
<!-- Node2&#45;&gt;Node2 -->
<g id="edge3" class="edge"><title>Node2&#45;&gt;Node2</title>
<path fill="none" stroke="#404040" d="M133.096,-275.667C143.725,-269.35 151,-254.961 151,-232.5 151,-217.058 147.561,-205.431 141.958,-197.62"/>
<polygon fill="none" stroke="#404040" points="141.861,-197.529 134.746,-196.353 133.096,-189.333 140.21,-190.509 141.861,-197.529"/>
<text text-anchor="middle" x="183" y="-230" font-family="Helvetica,sans-Serif" font-size="10.00"> &#45;active_object</text>
</g>
<!-- Node3 -->
<g id="node2" class="node"><title>Node3</title>
<polygon fill="white" stroke="#bfbfbf" points="42.5,-502.5 42.5,-559.5 90.5,-559.5 90.5,-502.5 42.5,-502.5"/>
<text text-anchor="middle" x="66.5" y="-547.5" font-family="Helvetica,sans-Serif" font-size="10.00">Stream</text>
<polyline fill="none" stroke="#bfbfbf" points="42.5,-540.5 90.5,-540.5 "/>
<text text-anchor="middle" x="66.5" y="-528.5" font-family="Helvetica,sans-Serif" font-size="10.00"> </text>
<polyline fill="none" stroke="#bfbfbf" points="42.5,-521.5 90.5,-521.5 "/>
<text text-anchor="middle" x="66.5" y="-509.5" font-family="Helvetica,sans-Serif" font-size="10.00"> </text>
</g>
<!-- Node3&#45;&gt;Node2 -->
<g id="edge1" class="edge"><title>Node3&#45;&gt;Node2</title>
<path fill="none" stroke="midnightblue" d="M61.8144,-492.191C61.4167,-483.969 61.0765,-474.699 60.7937,-464.686"/>
<polygon fill="none" stroke="midnightblue" points="58.3302,-492.578 62.3703,-502.372 65.3198,-492.196 58.3302,-492.578"/>
</g>
<!-- Node3&#45;&gt;Node2 -->
<g id="edge2" class="edge"><title>Node3&#45;&gt;Node2</title>
<path fill="none" stroke="midnightblue" d="M71.1856,-492.191C71.5833,-483.969 71.9235,-474.699 72.2063,-464.686"/>
<polygon fill="none" stroke="midnightblue" points="67.6802,-492.196 70.6297,-502.372 74.6698,-492.578 67.6802,-492.196"/>
</g>
</g>
</svg>
