<?xml version="1.0" encoding="UTF-8" standalone="no"?>
<!DOCTYPE svg PUBLIC "-//W3C//DTD SVG 1.1//EN"
 "http://www.w3.org/Graphics/SVG/1.1/DTD/svg11.dtd">
<!-- Generated by graphviz version 2.38.0 (20140413.2041)
 -->
<!-- Title: eagle_impl::TwoWire::write Pages: 1 -->
<svg width="366pt" height="61pt"
 viewBox="0.00 0.00 366.00 61.00" xmlns="http://www.w3.org/2000/svg" xmlns:xlink="http://www.w3.org/1999/xlink">
<g id="graph0" class="graph" transform="scale(1 1) rotate(0) translate(4 57)">
<title>eagle_impl::TwoWire::write</title>
<polygon fill="white" stroke="none" points="-4,4 -4,-57 362,-57 362,4 -4,4"/>
<!-- Node161 -->
<g id="node1" class="node"><title>Node161</title>
<polygon fill="#bfbfbf" stroke="black" points="0,-22.5 0,-52.5 108,-52.5 108,-22.5 0,-22.5"/>
<text text-anchor="start" x="8" y="-40.5" font-family="Helvetica,sans-Serif" font-size="10.00">eagle_impl::TwoWire</text>
<text text-anchor="middle" x="54" y="-29.5" font-family="Helvetica,sans-Serif" font-size="10.00">::write</text>
</g>
<!-- Node162 -->
<g id="node2" class="node"><title>Node162</title>
<g id="a_node2"><a xlink:href="eBoard_8h.html#abb66f08d8061c1064047324c1bacc2a9" target="_top" xlink:title="twi_transmit">
<polygon fill="white" stroke="black" points="288,-28 288,-47 358,-47 358,-28 288,-28"/>
<text text-anchor="middle" x="323" y="-35" font-family="Helvetica,sans-Serif" font-size="10.00">twi_transmit</text>
</a>
</g>
</g>
<!-- Node161&#45;&gt;Node162 -->
<g id="edge1" class="edge"><title>Node161&#45;&gt;Node162</title>
<path fill="none" stroke="midnightblue" d="M108.173,-39.5855C119.967,-39.9663 132.407,-40.3047 144,-40.5 191.993,-41.3086 204.011,-41.5279 252,-40.5 260.3,-40.3222 269.15,-40.026 277.666,-39.6871"/>
<polygon fill="midnightblue" stroke="midnightblue" points="277.986,-43.1768 287.83,-39.2577 277.691,-36.1831 277.986,-43.1768"/>
</g>
<!-- Node163 -->
<g id="node3" class="node"><title>Node163</title>
<g id="a_node3"><a xlink:href="classeagle__impl_1_1TwoWire.html#a2b5f9f156b6d281746a2a6ca5707dad3" target="_top" xlink:title="eagle_impl::TwoWire\l::write">
<polygon fill="white" stroke="black" points="144,-0.5 144,-30.5 252,-30.5 252,-0.5 144,-0.5"/>
<text text-anchor="start" x="152" y="-18.5" font-family="Helvetica,sans-Serif" font-size="10.00">eagle_impl::TwoWire</text>
<text text-anchor="middle" x="198" y="-7.5" font-family="Helvetica,sans-Serif" font-size="10.00">::write</text>
</a>
</g>
</g>
<!-- Node161&#45;&gt;Node163 -->
<g id="edge2" class="edge"><title>Node161&#45;&gt;Node163</title>
<path fill="none" stroke="midnightblue" d="M108.28,-29.2454C116.651,-27.9484 125.374,-26.5971 133.94,-25.2699"/>
<polygon fill="midnightblue" stroke="midnightblue" points="134.548,-28.7175 143.894,-23.7277 133.476,-21.8001 134.548,-28.7175"/>
</g>
<!-- Node163&#45;&gt;Node162 -->
<g id="edge3" class="edge"><title>Node163&#45;&gt;Node162</title>
<path fill="none" stroke="midnightblue" d="M252.234,-25.0216C260.82,-26.5572 269.624,-28.1319 277.962,-29.6232"/>
<polygon fill="midnightblue" stroke="midnightblue" points="277.394,-33.0771 287.854,-31.3925 278.626,-26.1865 277.394,-33.0771"/>
</g>
</g>
</svg>
