<?xml version="1.0" encoding="UTF-8" standalone="no"?>
<!DOCTYPE svg PUBLIC "-//W3C//DTD SVG 1.1//EN"
 "http://www.w3.org/Graphics/SVG/1.1/DTD/svg11.dtd">
<!-- Generated by graphviz version 2.38.0 (20140413.2041)
 -->
<!-- Title: Servo::writeMicroseconds Pages: 1 -->
<svg width="371pt" height="104pt"
 viewBox="0.00 0.00 371.00 104.00" xmlns="http://www.w3.org/2000/svg" xmlns:xlink="http://www.w3.org/1999/xlink">
<g id="graph0" class="graph" transform="scale(1 1) rotate(0) translate(4 100)">
<title>Servo::writeMicroseconds</title>
<polygon fill="white" stroke="none" points="-4,4 -4,-100 367,-100 367,4 -4,4"/>
<!-- Node28 -->
<g id="node1" class="node"><title>Node28</title>
<polygon fill="#bfbfbf" stroke="black" points="0,-38.5 0,-57.5 130,-57.5 130,-38.5 0,-38.5"/>
<text text-anchor="middle" x="65" y="-45.5" font-family="Helvetica,sans-Serif" font-size="10.00">Servo::writeMicroseconds</text>
</g>
<!-- Node29 -->
<g id="node2" class="node"><title>Node29</title>
<g id="a_node2"><a xlink:href="classServo.html#a72b4b546912eada96a6ef705168ceb8a" target="_top" xlink:title="Servo::write">
<polygon fill="white" stroke="black" points="166,-38.5 166,-57.5 235,-57.5 235,-38.5 166,-38.5"/>
<text text-anchor="middle" x="200.5" y="-45.5" font-family="Helvetica,sans-Serif" font-size="10.00">Servo::write</text>
</a>
</g>
</g>
<!-- Node28&#45;&gt;Node29 -->
<g id="edge1" class="edge"><title>Node28&#45;&gt;Node29</title>
<path fill="none" stroke="midnightblue" d="M140.216,-48C149.216,-48 158.032,-48 165.999,-48"/>
<polygon fill="midnightblue" stroke="midnightblue" points="140.013,-44.5001 130.013,-48 140.013,-51.5001 140.013,-44.5001"/>
</g>
<!-- Node30 -->
<g id="node3" class="node"><title>Node30</title>
<g id="a_node3"><a xlink:href="eBoard_8h.html#af76fc7dcd925860b0b8c36f0ce835995" target="_top" xlink:title="set_motor_speed">
<polygon fill="white" stroke="black" points="271,-76.5 271,-95.5 363,-95.5 363,-76.5 271,-76.5"/>
<text text-anchor="middle" x="317" y="-83.5" font-family="Helvetica,sans-Serif" font-size="10.00">set_motor_speed</text>
</a>
</g>
</g>
<!-- Node29&#45;&gt;Node30 -->
<g id="edge2" class="edge"><title>Node29&#45;&gt;Node30</title>
<path fill="none" stroke="midnightblue" d="M240.147,-60.8259C255.51,-65.9247 272.879,-71.6891 287.116,-76.4141"/>
<polygon fill="midnightblue" stroke="midnightblue" points="240.987,-57.4171 230.393,-57.589 238.782,-64.0608 240.987,-57.4171"/>
</g>
<!-- Node31 -->
<g id="node4" class="node"><title>Node31</title>
<g id="a_node4"><a xlink:href="eBoard_8h.html#a4146de617b5c6f9e17b72097e9374ed4" target="_top" xlink:title="set_steer_angle">
<polygon fill="white" stroke="black" points="274,-38.5 274,-57.5 360,-57.5 360,-38.5 274,-38.5"/>
<text text-anchor="middle" x="317" y="-45.5" font-family="Helvetica,sans-Serif" font-size="10.00">set_steer_angle</text>
</a>
</g>
</g>
<!-- Node29&#45;&gt;Node31 -->
<g id="edge3" class="edge"><title>Node29&#45;&gt;Node31</title>
<path fill="none" stroke="midnightblue" d="M245.517,-48C254.862,-48 264.705,-48 273.974,-48"/>
<polygon fill="midnightblue" stroke="midnightblue" points="245.235,-44.5001 235.234,-48 245.234,-51.5001 245.235,-44.5001"/>
</g>
<!-- Node32 -->
<g id="node5" class="node"><title>Node32</title>
<g id="a_node5"><a xlink:href="eBoard__comment_8h.html#a7dfd9b79bc5a37d7df40207afbc5431f" target="_top" xlink:title="this is a guard ">
<polygon fill="white" stroke="black" points="296.5,-0.5 296.5,-19.5 337.5,-19.5 337.5,-0.5 296.5,-0.5"/>
<text text-anchor="middle" x="317" y="-7.5" font-family="Helvetica,sans-Serif" font-size="10.00">setup</text>
</a>
</g>
</g>
<!-- Node29&#45;&gt;Node32 -->
<g id="edge4" class="edge"><title>Node29&#45;&gt;Node32</title>
<path fill="none" stroke="midnightblue" d="M239.982,-35.2285C258.957,-28.9313 281.024,-21.6076 296.479,-16.4785"/>
<polygon fill="midnightblue" stroke="midnightblue" points="238.782,-31.9392 230.393,-38.411 240.987,-38.5829 238.782,-31.9392"/>
</g>
</g>
</svg>
