<?xml version="1.0" encoding="UTF-8" standalone="no"?>
<!DOCTYPE svg PUBLIC "-//W3C//DTD SVG 1.1//EN"
 "http://www.w3.org/Graphics/SVG/1.1/DTD/svg11.dtd">
<!-- Generated by graphviz version 2.38.0 (20140413.2041)
 -->
<!-- Title: eagle_impl::SoftwareSerial::write Pages: 1 -->
<svg width="356pt" height="39pt"
 viewBox="0.00 0.00 356.00 39.00" xmlns="http://www.w3.org/2000/svg" xmlns:xlink="http://www.w3.org/1999/xlink">
<g id="graph0" class="graph" transform="scale(1 1) rotate(0) translate(4 35)">
<title>eagle_impl::SoftwareSerial::write</title>
<polygon fill="white" stroke="none" points="-4,4 -4,-35 352,-35 352,4 -4,4"/>
<!-- Node121 -->
<g id="node1" class="node"><title>Node121</title>
<polygon fill="#bfbfbf" stroke="black" points="0,-0.5 0,-30.5 133,-30.5 133,-0.5 0,-0.5"/>
<text text-anchor="start" x="8" y="-18.5" font-family="Helvetica,sans-Serif" font-size="10.00">eagle_impl::SoftwareSerial</text>
<text text-anchor="middle" x="66.5" y="-7.5" font-family="Helvetica,sans-Serif" font-size="10.00">::write</text>
</g>
<!-- Node122 -->
<g id="node2" class="node"><title>Node122</title>
<g id="a_node2"><a xlink:href="eBoard__comment_8h.html#abf785ff4ead72e3118dfaa8270c04f0c" target="_top" xlink:title="[BLUETOOTH] writes Data to bluetooth ">
<polygon fill="white" stroke="black" points="169,-6 169,-25 221,-25 221,-6 169,-6"/>
<text text-anchor="middle" x="195" y="-13" font-family="Helvetica,sans-Serif" font-size="10.00">writeVal</text>
</a>
</g>
</g>
<!-- Node121&#45;&gt;Node122 -->
<g id="edge1" class="edge"><title>Node121&#45;&gt;Node122</title>
<path fill="none" stroke="midnightblue" d="M143.613,-15.5C152.609,-15.5 161.243,-15.5 168.744,-15.5"/>
<polygon fill="midnightblue" stroke="midnightblue" points="143.344,-12.0001 133.344,-15.5 143.344,-19.0001 143.344,-12.0001"/>
</g>
<!-- Node123 -->
<g id="node3" class="node"><title>Node123</title>
<g id="a_node3"><a xlink:href="structRB14Scan.html#a2c3e020ffb6d8f23f6394e33c93964fc" target="_top" xlink:title="RB14Scan::write">
<polygon fill="white" stroke="black" points="257,-6 257,-25 348,-25 348,-6 257,-6"/>
<text text-anchor="middle" x="302.5" y="-13" font-family="Helvetica,sans-Serif" font-size="10.00">RB14Scan::write</text>
</a>
</g>
</g>
<!-- Node122&#45;&gt;Node123 -->
<g id="edge2" class="edge"><title>Node122&#45;&gt;Node123</title>
<path fill="none" stroke="midnightblue" d="M231.047,-15.5C239.311,-15.5 248.231,-15.5 256.854,-15.5"/>
<polygon fill="midnightblue" stroke="midnightblue" points="231.002,-12.0001 221.002,-15.5 231.002,-19.0001 231.002,-12.0001"/>
</g>
</g>
</svg>
