<?xml version="1.0" encoding="UTF-8" standalone="no"?>
<!DOCTYPE svg PUBLIC "-//W3C//DTD SVG 1.1//EN"
 "http://www.w3.org/Graphics/SVG/1.1/DTD/svg11.dtd">
<!-- Generated by graphviz version 2.38.0 (20140413.2041)
 -->
<!-- Title: eagle_impl::SoftwareSerial::recv Pages: 1 -->
<svg width="310pt" height="127pt"
 viewBox="0.00 0.00 310.00 126.50" xmlns="http://www.w3.org/2000/svg" xmlns:xlink="http://www.w3.org/1999/xlink">
<g id="graph0" class="graph" transform="scale(1 1) rotate(0) translate(4 122.5)">
<title>eagle_impl::SoftwareSerial::recv</title>
<polygon fill="white" stroke="none" points="-4,4 -4,-122.5 306,-122.5 306,4 -4,4"/>
<!-- Node76 -->
<g id="node1" class="node"><title>Node76</title>
<polygon fill="#bfbfbf" stroke="black" points="0,-49.5 0,-79.5 133,-79.5 133,-49.5 0,-49.5"/>
<text text-anchor="start" x="8" y="-67.5" font-family="Helvetica,sans-Serif" font-size="10.00">eagle_impl::SoftwareSerial</text>
<text text-anchor="middle" x="66.5" y="-56.5" font-family="Helvetica,sans-Serif" font-size="10.00">::recv</text>
</g>
<!-- Node77 -->
<g id="node2" class="node"><title>Node77</title>
<g id="a_node2"><a xlink:href="eBoard_8h.html#a7ba959374e79d3320d69af12f7307f44" target="_top" xlink:title="DebugPulse">
<polygon fill="white" stroke="black" points="200.5,-99 200.5,-118 270.5,-118 270.5,-99 200.5,-99"/>
<text text-anchor="middle" x="235.5" y="-106" font-family="Helvetica,sans-Serif" font-size="10.00">DebugPulse</text>
</a>
</g>
</g>
<!-- Node76&#45;&gt;Node77 -->
<g id="edge1" class="edge"><title>Node76&#45;&gt;Node77</title>
<path fill="none" stroke="midnightblue" d="M124.505,-79.5192C146.006,-85.1843 170.123,-91.5383 190.283,-96.8499"/>
<polygon fill="midnightblue" stroke="midnightblue" points="189.568,-100.281 200.13,-99.4444 191.352,-93.5121 189.568,-100.281"/>
</g>
<!-- Node78 -->
<g id="node3" class="node"><title>Node78</title>
<g id="a_node3"><a xlink:href="classeagle__impl_1_1SoftwareSerial.html#a445b8f3448a04126cb2183b4ae415dbe" target="_top" xlink:title="eagle_impl::SoftwareSerial\l::rx_pin_read">
<polygon fill="white" stroke="black" points="169,-49.5 169,-79.5 302,-79.5 302,-49.5 169,-49.5"/>
<text text-anchor="start" x="177" y="-67.5" font-family="Helvetica,sans-Serif" font-size="10.00">eagle_impl::SoftwareSerial</text>
<text text-anchor="middle" x="235.5" y="-56.5" font-family="Helvetica,sans-Serif" font-size="10.00">::rx_pin_read</text>
</a>
</g>
</g>
<!-- Node76&#45;&gt;Node78 -->
<g id="edge2" class="edge"><title>Node76&#45;&gt;Node78</title>
<path fill="none" stroke="midnightblue" d="M133.024,-64.5C141.496,-64.5 150.228,-64.5 158.847,-64.5"/>
<polygon fill="midnightblue" stroke="midnightblue" points="158.891,-68.0001 168.891,-64.5 158.891,-61.0001 158.891,-68.0001"/>
</g>
<!-- Node79 -->
<g id="node4" class="node"><title>Node79</title>
<g id="a_node4"><a xlink:href="classeagle__impl_1_1SoftwareSerial.html#a1dc4448e5fdf2516f47439fb4f62f4be" target="_top" xlink:title="eagle_impl::SoftwareSerial\l::tunedDelay">
<polygon fill="white" stroke="black" points="169,-0.5 169,-30.5 302,-30.5 302,-0.5 169,-0.5"/>
<text text-anchor="start" x="177" y="-18.5" font-family="Helvetica,sans-Serif" font-size="10.00">eagle_impl::SoftwareSerial</text>
<text text-anchor="middle" x="235.5" y="-7.5" font-family="Helvetica,sans-Serif" font-size="10.00">::tunedDelay</text>
</a>
</g>
</g>
<!-- Node76&#45;&gt;Node79 -->
<g id="edge3" class="edge"><title>Node76&#45;&gt;Node79</title>
<path fill="none" stroke="midnightblue" d="M118.968,-49.3986C136.192,-44.3449 155.559,-38.6624 173.442,-33.4152"/>
<polygon fill="midnightblue" stroke="midnightblue" points="174.592,-36.7255 183.202,-30.5516 172.621,-30.0087 174.592,-36.7255"/>
</g>
</g>
</svg>
