<?xml version="1.0" encoding="UTF-8" standalone="no"?>
<!DOCTYPE svg PUBLIC "-//W3C//DTD SVG 1.1//EN"
 "http://www.w3.org/Graphics/SVG/1.1/DTD/svg11.dtd">
<!-- Generated by graphviz version 2.38.0 (20140413.2041)
 -->
<!-- Title: Servo::write Pages: 1 -->
<svg width="205pt" height="104pt"
 viewBox="0.00 0.00 205.00 104.00" xmlns="http://www.w3.org/2000/svg" xmlns:xlink="http://www.w3.org/1999/xlink">
<g id="graph0" class="graph" transform="scale(1 1) rotate(0) translate(4 100)">
<title>Servo::write</title>
<polygon fill="white" stroke="none" points="-4,4 -4,-100 201,-100 201,4 -4,4"/>
<!-- Node23 -->
<g id="node1" class="node"><title>Node23</title>
<polygon fill="#bfbfbf" stroke="black" points="0,-38.5 0,-57.5 69,-57.5 69,-38.5 0,-38.5"/>
<text text-anchor="middle" x="34.5" y="-45.5" font-family="Helvetica,sans-Serif" font-size="10.00">Servo::write</text>
</g>
<!-- Node24 -->
<g id="node2" class="node"><title>Node24</title>
<g id="a_node2"><a xlink:href="eBoard_8h.html#af76fc7dcd925860b0b8c36f0ce835995" target="_top" xlink:title="set_motor_speed">
<polygon fill="white" stroke="black" points="105,-76.5 105,-95.5 197,-95.5 197,-76.5 105,-76.5"/>
<text text-anchor="middle" x="151" y="-83.5" font-family="Helvetica,sans-Serif" font-size="10.00">set_motor_speed</text>
</a>
</g>
</g>
<!-- Node23&#45;&gt;Node24 -->
<g id="edge1" class="edge"><title>Node23&#45;&gt;Node24</title>
<path fill="none" stroke="midnightblue" d="M74.1465,-60.8259C89.51,-65.9247 106.879,-71.6891 121.116,-76.4141"/>
<polygon fill="midnightblue" stroke="midnightblue" points="74.9866,-57.4171 64.3932,-57.589 72.7817,-64.0608 74.9866,-57.4171"/>
</g>
<!-- Node25 -->
<g id="node3" class="node"><title>Node25</title>
<g id="a_node3"><a xlink:href="eBoard_8h.html#a4146de617b5c6f9e17b72097e9374ed4" target="_top" xlink:title="set_steer_angle">
<polygon fill="white" stroke="black" points="108,-38.5 108,-57.5 194,-57.5 194,-38.5 108,-38.5"/>
<text text-anchor="middle" x="151" y="-45.5" font-family="Helvetica,sans-Serif" font-size="10.00">set_steer_angle</text>
</a>
</g>
</g>
<!-- Node23&#45;&gt;Node25 -->
<g id="edge2" class="edge"><title>Node23&#45;&gt;Node25</title>
<path fill="none" stroke="midnightblue" d="M79.517,-48C88.8622,-48 98.7052,-48 107.974,-48"/>
<polygon fill="midnightblue" stroke="midnightblue" points="79.2345,-44.5001 69.2345,-48 79.2345,-51.5001 79.2345,-44.5001"/>
</g>
<!-- Node26 -->
<g id="node4" class="node"><title>Node26</title>
<g id="a_node4"><a xlink:href="eBoard__comment_8h.html#a7dfd9b79bc5a37d7df40207afbc5431f" target="_top" xlink:title="this is a guard ">
<polygon fill="white" stroke="black" points="130.5,-0.5 130.5,-19.5 171.5,-19.5 171.5,-0.5 130.5,-0.5"/>
<text text-anchor="middle" x="151" y="-7.5" font-family="Helvetica,sans-Serif" font-size="10.00">setup</text>
</a>
</g>
</g>
<!-- Node23&#45;&gt;Node26 -->
<g id="edge3" class="edge"><title>Node23&#45;&gt;Node26</title>
<path fill="none" stroke="midnightblue" d="M73.9824,-35.2285C92.9571,-28.9313 115.024,-21.6076 130.479,-16.4785"/>
<polygon fill="midnightblue" stroke="midnightblue" points="72.7817,-31.9392 64.3932,-38.411 74.9866,-38.5829 72.7817,-31.9392"/>
</g>
</g>
</svg>
