<?xml version="1.0" encoding="UTF-8" standalone="no"?>
<!DOCTYPE svg PUBLIC "-//W3C//DTD SVG 1.1//EN"
 "http://www.w3.org/Graphics/SVG/1.1/DTD/svg11.dtd">
<!-- Generated by graphviz version 2.38.0 (20140413.2041)
 -->
<!-- Title: SoftwareSerial Pages: 1 -->
<svg width="167pt" height="85pt"
 viewBox="0.00 0.00 167.00 85.00" xmlns="http://www.w3.org/2000/svg" xmlns:xlink="http://www.w3.org/1999/xlink">
<g id="graph0" class="graph" transform="scale(1 1) rotate(0) translate(4 81)">
<title>SoftwareSerial</title>
<polygon fill="white" stroke="none" points="-4,4 -4,-81 163,-81 163,4 -4,4"/>
<!-- Node2 -->
<g id="node1" class="node"><title>Node2</title>
<polygon fill="#bfbfbf" stroke="black" points="0,-0.5 0,-19.5 80,-19.5 80,-0.5 0,-0.5"/>
<text text-anchor="middle" x="40" y="-7.5" font-family="Helvetica,sans-Serif" font-size="10.00">SoftwareSerial</text>
</g>
<!-- Node2&#45;&gt;Node2 -->
<g id="edge2" class="edge"><title>Node2&#45;&gt;Node2</title>
<path fill="none" stroke="#9a32cd" stroke-dasharray="5,2" d="M90.2648,-14.218C95.0048,-13.3542 98,-11.9482 98,-10 98,-6.88281 90.3323,-5.15375 80.1186,-4.81281"/>
<polygon fill="#9a32cd" stroke="#9a32cd" points="89.7405,-10.7521 80.1186,-15.1872 90.4062,-17.7204 89.7405,-10.7521"/>
<text text-anchor="middle" x="128.5" y="-7.5" font-family="Helvetica,sans-Serif" font-size="10.00"> active_object</text>
</g>
<!-- Node3 -->
<g id="node2" class="node"><title>Node3</title>
<polygon fill="white" stroke="#bfbfbf" points="16,-57.5 16,-76.5 64,-76.5 64,-57.5 16,-57.5"/>
<text text-anchor="middle" x="40" y="-64.5" font-family="Helvetica,sans-Serif" font-size="10.00">Stream</text>
</g>
<!-- Node3&#45;&gt;Node2 -->
<g id="edge1" class="edge"><title>Node3&#45;&gt;Node2</title>
<path fill="none" stroke="midnightblue" d="M40,-47.1166C40,-37.8173 40,-27.0557 40,-19.7149"/>
<polygon fill="midnightblue" stroke="midnightblue" points="36.5001,-47.4062 40,-57.4062 43.5001,-47.4063 36.5001,-47.4062"/>
</g>
</g>
</svg>
