<?xml version="1.0" encoding="UTF-8" standalone="no"?>
<!DOCTYPE svg PUBLIC "-//W3C//DTD SVG 1.1//EN"
 "http://www.w3.org/Graphics/SVG/1.1/DTD/svg11.dtd">
<!-- Generated by graphviz version 2.38.0 (20140413.2041)
 -->
<!-- Title: eagle_impl::SoftwareSerial::read Pages: 1 -->
<svg width="313pt" height="52pt"
 viewBox="0.00 0.00 313.00 51.50" xmlns="http://www.w3.org/2000/svg" xmlns:xlink="http://www.w3.org/1999/xlink">
<g id="graph0" class="graph" transform="scale(1 1) rotate(0) translate(4 47.5)">
<title>eagle_impl::SoftwareSerial::read</title>
<polygon fill="white" stroke="none" points="-4,4 -4,-47.5 309,-47.5 309,4 -4,4"/>
<!-- Node53 -->
<g id="node1" class="node"><title>Node53</title>
<polygon fill="#bfbfbf" stroke="black" points="0,-0.5 0,-30.5 133,-30.5 133,-0.5 0,-0.5"/>
<text text-anchor="start" x="8" y="-18.5" font-family="Helvetica,sans-Serif" font-size="10.00">eagle_impl::SoftwareSerial</text>
<text text-anchor="middle" x="66.5" y="-7.5" font-family="Helvetica,sans-Serif" font-size="10.00">::read</text>
</g>
<!-- Node54 -->
<g id="node2" class="node"><title>Node54</title>
<g id="a_node2"><a xlink:href="eBoard__comment_8h.html#a013ff57a97587f0064777a3a28f9a2dd" target="_top" xlink:title="[BLUETOOTH] reads a single value from bluetooth if available! ">
<polygon fill="white" stroke="black" points="169,-6 169,-25 219,-25 219,-6 169,-6"/>
<text text-anchor="middle" x="194" y="-13" font-family="Helvetica,sans-Serif" font-size="10.00">readVal</text>
</a>
</g>
</g>
<!-- Node53&#45;&gt;Node54 -->
<g id="edge1" class="edge"><title>Node53&#45;&gt;Node54</title>
<path fill="none" stroke="midnightblue" d="M143.324,-15.5C152.556,-15.5 161.394,-15.5 168.988,-15.5"/>
<polygon fill="midnightblue" stroke="midnightblue" points="143.19,-12.0001 133.19,-15.5 143.19,-19.0001 143.19,-12.0001"/>
</g>
<!-- Node55 -->
<g id="node3" class="node"><title>Node55</title>
<g id="a_node3"><a xlink:href="eBoard__comment_8h.html#aca4f96af7c6736bf2b61c88d731af741" target="_top" xlink:title="read a digital state from an INPUTpin ">
<polygon fill="white" stroke="black" points="255,-6 255,-25 305,-25 305,-6 255,-6"/>
<text text-anchor="middle" x="280" y="-13" font-family="Helvetica,sans-Serif" font-size="10.00">readPin</text>
</a>
</g>
</g>
<!-- Node54&#45;&gt;Node55 -->
<g id="edge2" class="edge"><title>Node54&#45;&gt;Node55</title>
<path fill="none" stroke="midnightblue" d="M229.372,-15.5C237.89,-15.5 246.84,-15.5 254.758,-15.5"/>
<polygon fill="midnightblue" stroke="midnightblue" points="229.296,-12.0001 219.296,-15.5 229.296,-19.0001 229.296,-12.0001"/>
</g>
<!-- Node55&#45;&gt;Node55 -->
<g id="edge3" class="edge"><title>Node55&#45;&gt;Node55</title>
<path fill="none" stroke="midnightblue" d="M264.075,-34.9C265.138,-39.8146 270.447,-43.5 280,-43.5 295.285,-43.5 299.704,-34.0653 293.255,-25.2571"/>
<polygon fill="midnightblue" stroke="midnightblue" points="267.449,-35.8284 266.745,-25.2571 260.703,-33.9604 267.449,-35.8284"/>
</g>
</g>
</svg>
