<?xml version="1.0" encoding="UTF-8" standalone="no"?>
<!DOCTYPE svg PUBLIC "-//W3C//DTD SVG 1.1//EN"
 "http://www.w3.org/Graphics/SVG/1.1/DTD/svg11.dtd">
<!-- Generated by graphviz version 2.38.0 (20140413.2041)
 -->
<!-- Title: eagle_impl::TwoWire::begin Pages: 1 -->
<svg width="343pt" height="39pt"
 viewBox="0.00 0.00 343.00 39.00" xmlns="http://www.w3.org/2000/svg" xmlns:xlink="http://www.w3.org/1999/xlink">
<g id="graph0" class="graph" transform="scale(1 1) rotate(0) translate(4 35)">
<title>eagle_impl::TwoWire::begin</title>
<polygon fill="white" stroke="none" points="-4,4 -4,-35 339,-35 339,4 -4,4"/>
<!-- Node23 -->
<g id="node1" class="node"><title>Node23</title>
<polygon fill="#bfbfbf" stroke="black" points="0,-0.5 0,-30.5 108,-30.5 108,-0.5 0,-0.5"/>
<text text-anchor="start" x="8" y="-18.5" font-family="Helvetica,sans-Serif" font-size="10.00">eagle_impl::TwoWire</text>
<text text-anchor="middle" x="54" y="-7.5" font-family="Helvetica,sans-Serif" font-size="10.00">::begin</text>
</g>
<!-- Node24 -->
<g id="node2" class="node"><title>Node24</title>
<g id="a_node2"><a xlink:href="classeagle__impl_1_1TwoWire.html#ada85a7a8663ec8af0a1248b659be2f18" target="_top" xlink:title="eagle_impl::TwoWire\l::begin">
<polygon fill="white" stroke="black" points="144,-0.5 144,-30.5 252,-30.5 252,-0.5 144,-0.5"/>
<text text-anchor="start" x="152" y="-18.5" font-family="Helvetica,sans-Serif" font-size="10.00">eagle_impl::TwoWire</text>
<text text-anchor="middle" x="198" y="-7.5" font-family="Helvetica,sans-Serif" font-size="10.00">::begin</text>
</a>
</g>
</g>
<!-- Node23&#45;&gt;Node24 -->
<g id="edge1" class="edge"><title>Node23&#45;&gt;Node24</title>
<path fill="none" stroke="midnightblue" d="M108.28,-15.5C116.56,-15.5 125.184,-15.5 133.661,-15.5"/>
<polygon fill="midnightblue" stroke="midnightblue" points="133.894,-19.0001 143.894,-15.5 133.894,-12.0001 133.894,-19.0001"/>
</g>
<!-- Node25 -->
<g id="node3" class="node"><title>Node25</title>
<g id="a_node3"><a xlink:href="eBoard_8h.html#a16f0e6b2fa5a26eadbf4086ab6d54467" target="_top" xlink:title="twi_init">
<polygon fill="white" stroke="black" points="288,-6 288,-25 335,-25 335,-6 288,-6"/>
<text text-anchor="middle" x="311.5" y="-13" font-family="Helvetica,sans-Serif" font-size="10.00">twi_init</text>
</a>
</g>
</g>
<!-- Node24&#45;&gt;Node25 -->
<g id="edge2" class="edge"><title>Node24&#45;&gt;Node25</title>
<path fill="none" stroke="midnightblue" d="M252.138,-15.5C260.874,-15.5 269.695,-15.5 277.742,-15.5"/>
<polygon fill="midnightblue" stroke="midnightblue" points="277.802,-19.0001 287.802,-15.5 277.802,-12.0001 277.802,-19.0001"/>
</g>
</g>
</svg>
