<?xml version="1.0" encoding="UTF-8" standalone="no"?>
<!DOCTYPE svg PUBLIC "-//W3C//DTD SVG 1.1//EN"
 "http://www.w3.org/Graphics/SVG/1.1/DTD/svg11.dtd">
<!-- Generated by graphviz version 2.38.0 (20140413.2041)
 -->
<!-- Title: eagle_impl::TwoWire::begin Pages: 1 -->
<svg width="260pt" height="96pt"
 viewBox="0.00 0.00 260.00 95.50" xmlns="http://www.w3.org/2000/svg" xmlns:xlink="http://www.w3.org/1999/xlink">
<g id="graph0" class="graph" transform="scale(1 1) rotate(0) translate(4 91.5)">
<title>eagle_impl::TwoWire::begin</title>
<polygon fill="white" stroke="none" points="-4,4 -4,-91.5 256,-91.5 256,4 -4,4"/>
<!-- Node6 -->
<g id="node1" class="node"><title>Node6</title>
<polygon fill="#bfbfbf" stroke="black" points="0,-26 0,-56 108,-56 108,-26 0,-26"/>
<text text-anchor="start" x="8" y="-44" font-family="Helvetica,sans-Serif" font-size="10.00">eagle_impl::TwoWire</text>
<text text-anchor="middle" x="54" y="-33" font-family="Helvetica,sans-Serif" font-size="10.00">::begin</text>
</g>
<!-- Node7 -->
<g id="node2" class="node"><title>Node7</title>
<g id="a_node2"><a xlink:href="classeagle__impl_1_1TwoWire.html#a96f2477bba1630c25b9e318ced8585ab" target="_top" xlink:title="eagle_impl::TwoWire\l::begin">
<polygon fill="white" stroke="black" points="144,-57 144,-87 252,-87 252,-57 144,-57"/>
<text text-anchor="start" x="152" y="-75" font-family="Helvetica,sans-Serif" font-size="10.00">eagle_impl::TwoWire</text>
<text text-anchor="middle" x="198" y="-64" font-family="Helvetica,sans-Serif" font-size="10.00">::begin</text>
</a>
</g>
</g>
<!-- Node6&#45;&gt;Node7 -->
<g id="edge1" class="edge"><title>Node6&#45;&gt;Node7</title>
<path fill="none" stroke="midnightblue" d="M118.238,-54.8054C126.806,-56.676 135.528,-58.58 143.894,-60.4065"/>
<polygon fill="midnightblue" stroke="midnightblue" points="118.796,-51.3449 108.28,-52.6315 117.303,-58.1839 118.796,-51.3449"/>
</g>
<!-- Node8 -->
<g id="node3" class="node"><title>Node8</title>
<g id="a_node3"><a xlink:href="eBoard__comment_8h.html#aca4f96af7c6736bf2b61c88d731af741" target="_top" xlink:title="read a digital state from an INPUTpin ">
<polygon fill="white" stroke="black" points="173,-0.5 173,-19.5 223,-19.5 223,-0.5 173,-0.5"/>
<text text-anchor="middle" x="198" y="-7.5" font-family="Helvetica,sans-Serif" font-size="10.00">readPin</text>
</a>
</g>
</g>
<!-- Node6&#45;&gt;Node8 -->
<g id="edge2" class="edge"><title>Node6&#45;&gt;Node8</title>
<path fill="none" stroke="midnightblue" d="M118.294,-27.1822C137.639,-22.959 157.756,-18.5672 172.81,-15.281"/>
<polygon fill="midnightblue" stroke="midnightblue" points="117.303,-23.8161 108.28,-29.3685 118.796,-30.6551 117.303,-23.8161"/>
</g>
<!-- Node8&#45;&gt;Node8 -->
<g id="edge3" class="edge"><title>Node8&#45;&gt;Node8</title>
<path fill="none" stroke="midnightblue" d="M171.121,-28.6539C172.244,-33.9368 181.204,-38 198,-38 223.594,-38 230.992,-28.5653 220.195,-19.7571"/>
<polygon fill="midnightblue" stroke="midnightblue" points="174.243,-30.2361 175.805,-19.7571 168.049,-26.9747 174.243,-30.2361"/>
</g>
</g>
</svg>
