<?xml version="1.0" encoding="UTF-8" standalone="no"?>
<!DOCTYPE svg PUBLIC "-//W3C//DTD SVG 1.1//EN"
 "http://www.w3.org/Graphics/SVG/1.1/DTD/svg11.dtd">
<!-- Generated by graphviz version 2.38.0 (20140413.2041)
 -->
<!-- Title: eagle_impl::SoftwareSerial::isListening Pages: 1 -->
<!--zoomable 212 -->
<svg id="main" version="1.1" xmlns="http://www.w3.org/2000/svg" xmlns:xlink="http://www.w3.org/1999/xlink" xml:space="preserve" onload="init(evt)">
<style type="text/css"><![CDATA[
.edge:hover path { stroke: red; }
.edge:hover polygon { stroke: red; fill: red; }
]]></style>
<script type="text/javascript"><![CDATA[
var edges = document.getElementsByTagName('g');
if (edges && edges.length) {
  for (var i=0;i<edges.length;i++) {
    if (edges[i].id.substr(0,4)=='edge') {
      edges[i].setAttribute('class','edge');
    }
  }
}
]]></script>
        <defs>
                <circle id="rim" cx="0" cy="0" r="7"/>
                <circle id="rim2" cx="0" cy="0" r="3.5"/>
                <g id="zoomPlus">
                        <use xlink:href="#rim" fill="#404040">
                                <set attributeName="fill" to="#808080" begin="zoomplus.mouseover" end="zoomplus.mouseout"/>
                        </use>
                        <path d="M-4,0h8M0,-4v8" fill="none" stroke="white" stroke-width="1.5" pointer-events="none"/>
                </g>
                <g id="zoomMin">
                        <use xlink:href="#rim" fill="#404040">
                                <set attributeName="fill" to="#808080" begin="zoomminus.mouseover" end="zoomminus.mouseout"/>
                        </use>
                        <path d="M-4,0h8" fill="none" stroke="white" stroke-width="1.5" pointer-events="none"/>
                </g>
                <g id="dirArrow">
                        <path fill="none" stroke="white" stroke-width="1.5" d="M0,-3.0v7 M-2.5,-0.5L0,-3.0L2.5,-0.5"/>
                </g>
               <g id="resetDef">
                       <use xlink:href="#rim2" fill="#404040">
                               <set attributeName="fill" to="#808080" begin="reset.mouseover" end="reset.mouseout"/>
                       </use>
               </g>
        </defs>

<script type="text/javascript">
var viewWidth = 542;
var viewHeight = 212;
var sectionId = 'dynsection-15';
</script>
<script xlink:href="svgpan.js"/>
<svg id="graph" class="graph">
<g id="viewport">
<title>eagle_impl::SoftwareSerial::isListening</title>
<polygon fill="white" stroke="none" points="-4,4 -4,-208.068 538,-208.068 538,4 -4,4"/>
<!-- Node37 -->
<g id="node1" class="node"><title>Node37</title>
<polygon fill="#bfbfbf" stroke="black" points="0,-98.5 0,-128.5 133,-128.5 133,-98.5 0,-98.5"/>
<text text-anchor="start" x="8" y="-116.5" font-family="Helvetica,sans-Serif" font-size="10.00">eagle_impl::SoftwareSerial</text>
<text text-anchor="middle" x="66.5" y="-105.5" font-family="Helvetica,sans-Serif" font-size="10.00">::isListening</text>
</g>
<!-- Node38 -->
<g id="node2" class="node"><title>Node38</title>
<g id="a_node2"><a xlink:href="eBoard_8h.html#af64dd115a90406cbd4df7eb6455c91c6" target="_top" xlink:title="_Pragma">
<polygon fill="white" stroke="black" points="338,-104 338,-123 394,-123 394,-104 338,-104"/>
<text text-anchor="middle" x="366" y="-111" font-family="Helvetica,sans-Serif" font-size="10.00">_Pragma</text>
</a>
</g>
</g>
<!-- Node37&#45;&gt;Node38 -->
<g id="edge1" class="edge"><title>Node37&#45;&gt;Node38</title>
<path fill="none" stroke="midnightblue" d="M89.186,-135.738C108.281,-153.609 137.837,-177.346 169,-187.5 225.203,-205.813 248.338,-212.29 302,-187.5 331.102,-174.056 351.709,-139.805 360.4,-123.039"/>
<polygon fill="midnightblue" stroke="midnightblue" points="91.5439,-133.15 81.9122,-128.736 86.6893,-138.193 91.5439,-133.15"/>
</g>
<!-- Node39 -->
<g id="node3" class="node"><title>Node39</title>
<g id="a_node3"><a xlink:href="classeagle__impl_1_1SoftwareSerial.html#a6a0c4bbe1cf6866ec54b98c6efdc4deb" target="_top" xlink:title="checks if there is data to read available ">
<polygon fill="white" stroke="black" points="169,-0.5 169,-30.5 302,-30.5 302,-0.5 169,-0.5"/>
<text text-anchor="start" x="177" y="-18.5" font-family="Helvetica,sans-Serif" font-size="10.00">eagle_impl::SoftwareSerial</text>
<text text-anchor="middle" x="235.5" y="-7.5" font-family="Helvetica,sans-Serif" font-size="10.00">::available</text>
</a>
</g>
</g>
<!-- Node37&#45;&gt;Node39 -->
<g id="edge2" class="edge"><title>Node37&#45;&gt;Node39</title>
<path fill="none" stroke="midnightblue" d="M93.0849,-91.7299C112.847,-75.7104 141.397,-54.2441 169,-39.5 175.089,-36.2476 181.714,-33.2537 188.334,-30.5644"/>
<polygon fill="midnightblue" stroke="midnightblue" points="90.6843,-89.1726 85.1818,-98.2265 95.1294,-94.5801 90.6843,-89.1726"/>
</g>
<!-- Node42 -->
<g id="node6" class="node"><title>Node42</title>
<g id="a_node6"><a xlink:href="classeagle__impl_1_1SoftwareSerial.html#a95364d98124ae983de49dbccb9d5e920" target="_top" xlink:title="resets the position in buffer and the buffer itself if the object is listening ">
<polygon fill="white" stroke="black" points="169,-147.5 169,-177.5 302,-177.5 302,-147.5 169,-147.5"/>
<text text-anchor="start" x="177" y="-165.5" font-family="Helvetica,sans-Serif" font-size="10.00">eagle_impl::SoftwareSerial</text>
<text text-anchor="middle" x="235.5" y="-154.5" font-family="Helvetica,sans-Serif" font-size="10.00">::flush</text>
</a>
</g>
</g>
<!-- Node37&#45;&gt;Node42 -->
<g id="edge6" class="edge"><title>Node37&#45;&gt;Node42</title>
<path fill="none" stroke="midnightblue" d="M128.734,-131.467C146.627,-136.717 165.992,-142.399 183.202,-147.448"/>
<polygon fill="midnightblue" stroke="midnightblue" points="129.549,-128.059 118.968,-128.601 127.578,-134.775 129.549,-128.059"/>
</g>
<!-- Node43 -->
<g id="node7" class="node"><title>Node43</title>
<g id="a_node7"><a xlink:href="classeagle__impl_1_1SoftwareSerial.html#a330f9da007584d91908da3b4f394f50e" target="_top" xlink:title="reads the actual pointed rxBuffer element without dropping it ">
<polygon fill="white" stroke="black" points="169,-98.5 169,-128.5 302,-128.5 302,-98.5 169,-98.5"/>
<text text-anchor="start" x="177" y="-116.5" font-family="Helvetica,sans-Serif" font-size="10.00">eagle_impl::SoftwareSerial</text>
<text text-anchor="middle" x="235.5" y="-105.5" font-family="Helvetica,sans-Serif" font-size="10.00">::peek</text>
</a>
</g>
</g>
<!-- Node37&#45;&gt;Node43 -->
<g id="edge8" class="edge"><title>Node37&#45;&gt;Node43</title>
<path fill="none" stroke="midnightblue" d="M143.066,-113.5C151.685,-113.5 160.417,-113.5 168.891,-113.5"/>
<polygon fill="midnightblue" stroke="midnightblue" points="143.024,-110 133.024,-113.5 143.023,-117 143.024,-110"/>
</g>
<!-- Node44 -->
<g id="node8" class="node"><title>Node44</title>
<g id="a_node8"><a xlink:href="classeagle__impl_1_1SoftwareSerial.html#ac80b242424a292382f2ac3ea9d84ba43" target="_top" xlink:title="reads the actual pointed rxBuffer top element ">
<polygon fill="white" stroke="black" points="169,-49.5 169,-79.5 302,-79.5 302,-49.5 169,-49.5"/>
<text text-anchor="start" x="177" y="-67.5" font-family="Helvetica,sans-Serif" font-size="10.00">eagle_impl::SoftwareSerial</text>
<text text-anchor="middle" x="235.5" y="-56.5" font-family="Helvetica,sans-Serif" font-size="10.00">::read</text>
</a>
</g>
</g>
<!-- Node37&#45;&gt;Node44 -->
<g id="edge10" class="edge"><title>Node37&#45;&gt;Node44</title>
<path fill="none" stroke="midnightblue" d="M128.734,-95.533C146.627,-90.283 165.992,-84.6011 183.202,-79.5516"/>
<polygon fill="midnightblue" stroke="midnightblue" points="127.578,-92.2246 118.968,-98.3986 129.549,-98.9415 127.578,-92.2246"/>
</g>
<!-- Node39&#45;&gt;Node38 -->
<g id="edge3" class="edge"><title>Node39&#45;&gt;Node38</title>
<path fill="none" stroke="midnightblue" d="M295.333,-35.2861C297.637,-36.6125 299.87,-38.0162 302,-39.5 327.752,-57.4362 349.34,-88.3729 359.221,-103.95"/>
<polygon fill="midnightblue" stroke="midnightblue" points="296.658,-32.031 286.168,-30.5462 293.443,-38.2488 296.658,-32.031"/>
</g>
<!-- Node40 -->
<g id="node4" class="node"><title>Node40</title>
<g id="a_node4"><a xlink:href="eBoard__comment_8h.html#a013ff57a97587f0064777a3a28f9a2dd" target="_top" xlink:title="[BLUETOOTH] reads a single value from bluetooth if available! ">
<polygon fill="white" stroke="black" points="341,-30 341,-49 391,-49 391,-30 341,-30"/>
<text text-anchor="middle" x="366" y="-37" font-family="Helvetica,sans-Serif" font-size="10.00">readVal</text>
</a>
</g>
</g>
<!-- Node39&#45;&gt;Node40 -->
<g id="edge4" class="edge"><title>Node39&#45;&gt;Node40</title>
<path fill="none" stroke="midnightblue" d="M312.253,-29.6483C322.586,-31.5783 332.509,-33.4317 340.906,-34.9999"/>
<polygon fill="midnightblue" stroke="midnightblue" points="312.728,-26.1768 302.256,-27.7812 311.443,-33.0578 312.728,-26.1768"/>
</g>
<!-- Node41 -->
<g id="node5" class="node"><title>Node41</title>
<g id="a_node5"><a xlink:href="structRB14Scan.html#a35ff55470a07767513fb0c619ed78258" target="_top" xlink:title="RB14Scan::channel">
<polygon fill="white" stroke="black" points="430,-30 430,-49 534,-49 534,-30 430,-30"/>
<text text-anchor="middle" x="482" y="-37" font-family="Helvetica,sans-Serif" font-size="10.00">RB14Scan::channel</text>
</a>
</g>
</g>
<!-- Node40&#45;&gt;Node41 -->
<g id="edge5" class="edge"><title>Node40&#45;&gt;Node41</title>
<path fill="none" stroke="midnightblue" d="M401.208,-39.5C410.162,-39.5 420.014,-39.5 429.649,-39.5"/>
<polygon fill="midnightblue" stroke="midnightblue" points="401.177,-36.0001 391.176,-39.5 401.176,-43.0001 401.177,-36.0001"/>
</g>
<!-- Node42&#45;&gt;Node38 -->
<g id="edge7" class="edge"><title>Node42&#45;&gt;Node38</title>
<path fill="none" stroke="midnightblue" d="M287.526,-143.953C292.424,-142.128 297.311,-140.289 302,-138.5 315.083,-133.508 329.616,-127.755 341.424,-123.027"/>
<polygon fill="midnightblue" stroke="midnightblue" points="286.303,-140.674 278.142,-147.43 288.735,-147.237 286.303,-140.674"/>
</g>
<!-- Node43&#45;&gt;Node38 -->
<g id="edge9" class="edge"><title>Node43&#45;&gt;Node38</title>
<path fill="none" stroke="midnightblue" d="M312.532,-113.5C321.548,-113.5 330.244,-113.5 337.876,-113.5"/>
<polygon fill="midnightblue" stroke="midnightblue" points="312.256,-110 302.256,-113.5 312.256,-117 312.256,-110"/>
</g>
<!-- Node44&#45;&gt;Node38 -->
<g id="edge11" class="edge"><title>Node44&#45;&gt;Node38</title>
<path fill="none" stroke="midnightblue" d="M287.526,-83.0471C292.424,-84.8724 297.311,-86.711 302,-88.5 315.083,-93.4917 329.616,-99.2447 341.424,-103.973"/>
<polygon fill="midnightblue" stroke="midnightblue" points="288.735,-79.7625 278.142,-79.5698 286.303,-86.3264 288.735,-79.7625"/>
</g>
<!-- Node44&#45;&gt;Node40 -->
<g id="edge12" class="edge"><title>Node44&#45;&gt;Node40</title>
<path fill="none" stroke="midnightblue" d="M312.253,-49.7622C322.586,-47.7517 332.509,-45.8211 340.906,-44.1876"/>
<polygon fill="midnightblue" stroke="midnightblue" points="311.403,-46.3617 302.256,-51.7071 312.74,-53.2328 311.403,-46.3617"/>
</g>
</g>
</svg>
        <g id="navigator" transform="translate(0 0)" fill="#404254">
                <rect fill="#f2f5e9" fill-opacity="0.5" stroke="#606060" stroke-width=".5" x="0" y="0" width="60" height="60"/>
                <use id="zoomplus" xlink:href="#zoomPlus" x="17" y="9" onmousedown="handleZoom(evt,'in')"/>
                <use id="zoomminus" xlink:href="#zoomMin" x="42" y="9" onmousedown="handleZoom(evt,'out')"/>
                <use id="reset" xlink:href="#resetDef" x="30" y="36" onmousedown="handleReset()"/>
                <g id="arrowUp" xlink:href="#dirArrow" transform="translate(30 24)" onmousedown="handlePan(0,-1)">
                  <use xlink:href="#rim" fill="#404040">
                        <set attributeName="fill" to="#808080" begin="arrowUp.mouseover" end="arrowUp.mouseout"/>
                  </use>
                  <path fill="none" stroke="white" stroke-width="1.5" d="M0,-3.0v7 M-2.5,-0.5L0,-3.0L2.5,-0.5"/>
                </g>
                <g id="arrowRight" xlink:href="#dirArrow" transform="rotate(90) translate(36 -43)" onmousedown="handlePan(1,0)">
                  <use xlink:href="#rim" fill="#404040">
                        <set attributeName="fill" to="#808080" begin="arrowRight.mouseover" end="arrowRight.mouseout"/>
                  </use>
                  <path fill="none" stroke="white" stroke-width="1.5" d="M0,-3.0v7 M-2.5,-0.5L0,-3.0L2.5,-0.5"/>
                </g>
                <g id="arrowDown" xlink:href="#dirArrow" transform="rotate(180) translate(-30 -48)" onmousedown="handlePan(0,1)">
                  <use xlink:href="#rim" fill="#404040">
                        <set attributeName="fill" to="#808080" begin="arrowDown.mouseover" end="arrowDown.mouseout"/>
                  </use>
                  <path fill="none" stroke="white" stroke-width="1.5" d="M0,-3.0v7 M-2.5,-0.5L0,-3.0L2.5,-0.5"/>
                </g>
                <g id="arrowLeft" xlink:href="#dirArrow" transform="rotate(270) translate(-36 17)" onmousedown="handlePan(-1,0)">
                  <use xlink:href="#rim" fill="#404040">
                        <set attributeName="fill" to="#808080" begin="arrowLeft.mouseover" end="arrowLeft.mouseout"/>
                  </use>
                  <path fill="none" stroke="white" stroke-width="1.5" d="M0,-3.0v7 M-2.5,-0.5L0,-3.0L2.5,-0.5"/>
                </g>
        </g>
        <svg viewBox="0 0 15 15" width="100%" height="30px" preserveAspectRatio="xMaxYMin meet">
         <g id="arrow_out" transform="scale(0.3 0.3)">
          <a xlink:href="classeagle__impl_1_1SoftwareSerial_a8e970602476b0dae3ca4f23112c2ca46_icgraph_org.svg" target="_base">
           <rect id="button" ry="5" rx="5" y="6" x="6" height="38" width="38"
                fill="#f2f5e9" fill-opacity="0.5" stroke="#606060" stroke-width="1.0"/>
           <path id="arrow"
             d="M 11.500037,31.436501 C 11.940474,20.09759 22.043105,11.32322 32.158766,21.979434 L 37.068811,17.246167 C 37.068811,17.246167 37.088388,32 37.088388,32 L 22.160133,31.978069 C 22.160133,31.978069 26.997745,27.140456 26.997745,27.140456 C 18.528582,18.264221 13.291696,25.230495 11.500037,31.436501 z"
             style="fill:#404040;"/>
          </a>
         </g>
        </svg>
</svg>
