<?xml version="1.0" encoding="UTF-8" standalone="no"?>
<!DOCTYPE svg PUBLIC "-//W3C//DTD SVG 1.1//EN"
 "http://www.w3.org/Graphics/SVG/1.1/DTD/svg11.dtd">
<!-- Generated by graphviz version 2.38.0 (20140413.2041)
 -->
<!-- Title: eagle_impl::TwoWire::write Pages: 1 -->
<!--zoomable 472 -->
<svg id="main" version="1.1" xmlns="http://www.w3.org/2000/svg" xmlns:xlink="http://www.w3.org/1999/xlink" xml:space="preserve" onload="init(evt)">
<style type="text/css"><![CDATA[
.edge:hover path { stroke: red; }
.edge:hover polygon { stroke: red; fill: red; }
]]></style>
<script type="text/javascript"><![CDATA[
var edges = document.getElementsByTagName('g');
if (edges && edges.length) {
  for (var i=0;i<edges.length;i++) {
    if (edges[i].id.substr(0,4)=='edge') {
      edges[i].setAttribute('class','edge');
    }
  }
}
]]></script>
        <defs>
                <circle id="rim" cx="0" cy="0" r="7"/>
                <circle id="rim2" cx="0" cy="0" r="3.5"/>
                <g id="zoomPlus">
                        <use xlink:href="#rim" fill="#404040">
                                <set attributeName="fill" to="#808080" begin="zoomplus.mouseover" end="zoomplus.mouseout"/>
                        </use>
                        <path d="M-4,0h8M0,-4v8" fill="none" stroke="white" stroke-width="1.5" pointer-events="none"/>
                </g>
                <g id="zoomMin">
                        <use xlink:href="#rim" fill="#404040">
                                <set attributeName="fill" to="#808080" begin="zoomminus.mouseover" end="zoomminus.mouseout"/>
                        </use>
                        <path d="M-4,0h8" fill="none" stroke="white" stroke-width="1.5" pointer-events="none"/>
                </g>
                <g id="dirArrow">
                        <path fill="none" stroke="white" stroke-width="1.5" d="M0,-3.0v7 M-2.5,-0.5L0,-3.0L2.5,-0.5"/>
                </g>
               <g id="resetDef">
                       <use xlink:href="#rim2" fill="#404040">
                               <set attributeName="fill" to="#808080" begin="reset.mouseover" end="reset.mouseout"/>
                       </use>
               </g>
        </defs>

<script type="text/javascript">
var viewWidth = 1037;
var viewHeight = 472;
var sectionId = 'dynsection-17';
</script>
<script xlink:href="svgpan.js"/>
<svg id="graph" class="graph">
<g id="viewport">
<title>eagle_impl::TwoWire::write</title>
<polygon fill="white" stroke="none" points="-4,4 -4,-468.045 1033,-468.045 1033,4 -4,4"/>
<!-- Node141 -->
<g id="node1" class="node"><title>Node141</title>
<polygon fill="#bfbfbf" stroke="black" points="0,-199.266 0,-229.266 108,-229.266 108,-199.266 0,-199.266"/>
<text text-anchor="start" x="8" y="-217.266" font-family="Helvetica,sans-Serif" font-size="10.00">eagle_impl::TwoWire</text>
<text text-anchor="middle" x="54" y="-206.266" font-family="Helvetica,sans-Serif" font-size="10.00">::write</text>
</g>
<!-- Node142 -->
<g id="node2" class="node"><title>Node142</title>
<g id="a_node2"><a xlink:href="structLCD.html#a739998fad0591a092255676c8c8d532f" target="_top" xlink:title="LCD::s1Cmd">
<polygon fill="white" stroke="black" points="161,-223.766 161,-242.766 235,-242.766 235,-223.766 161,-223.766"/>
<text text-anchor="middle" x="198" y="-230.766" font-family="Helvetica,sans-Serif" font-size="10.00">LCD::s1Cmd</text>
</a>
</g>
</g>
<!-- Node141&#45;&gt;Node142 -->
<g id="edge1" class="edge"><title>Node141&#45;&gt;Node142</title>
<path fill="none" stroke="midnightblue" d="M118.238,-222.727C132.767,-224.671 147.735,-226.674 160.669,-228.404"/>
<polygon fill="midnightblue" stroke="midnightblue" points="118.655,-219.252 108.28,-221.395 117.727,-226.19 118.655,-219.252"/>
</g>
<!-- Node156 -->
<g id="node16" class="node"><title>Node156</title>
<g id="a_node16"><a xlink:href="structLCD.html#ae5873763db265cd00da32664cce88873" target="_top" xlink:title="LCD::s1Dat">
<polygon fill="white" stroke="black" points="702,-318.766 702,-337.766 771,-337.766 771,-318.766 702,-318.766"/>
<text text-anchor="middle" x="736.5" y="-325.766" font-family="Helvetica,sans-Serif" font-size="10.00">LCD::s1Dat</text>
</a>
</g>
</g>
<!-- Node141&#45;&gt;Node156 -->
<g id="edge36" class="edge"><title>Node141&#45;&gt;Node156</title>
<path fill="none" stroke="midnightblue" d="M68.177,-237.96C104.404,-299.612 212.04,-460.266 350,-460.266 350,-460.266 350,-460.266 479,-460.266 551.052,-460.266 576.538,-475.385 640,-441.266 685.699,-416.696 718.74,-360.544 730.645,-337.948"/>
<polygon fill="midnightblue" stroke="midnightblue" points="71.1989,-236.194 63.1681,-229.284 65.1366,-239.694 71.1989,-236.194"/>
</g>
<!-- Node159 -->
<g id="node19" class="node"><title>Node159</title>
<g id="a_node19"><a xlink:href="eBoard__comment_8h.html#aa63f515ecc1c17545b9692c7d5f2fac6" target="_top" xlink:title="Sends a buffer of bytes to a certain I²C&#45;Device. ">
<polygon fill="white" stroke="black" points="171.5,-185.766 171.5,-204.766 224.5,-204.766 224.5,-185.766 171.5,-185.766"/>
<text text-anchor="middle" x="198" y="-192.766" font-family="Helvetica,sans-Serif" font-size="10.00">sendI2C</text>
</a>
</g>
</g>
<!-- Node141&#45;&gt;Node159 -->
<g id="edge37" class="edge"><title>Node141&#45;&gt;Node159</title>
<path fill="none" stroke="midnightblue" d="M118.266,-205.8C136.975,-203.297 156.409,-200.697 171.289,-198.706"/>
<polygon fill="midnightblue" stroke="midnightblue" points="117.727,-202.341 108.28,-207.137 118.655,-209.279 117.727,-202.341"/>
</g>
<!-- Node160 -->
<g id="node20" class="node"><title>Node160</title>
<g id="a_node20"><a xlink:href="classeagle__impl_1_1TwoWire.html#a362e77085e50bed9c881861469378aa2" target="_top" xlink:title="eagle_impl::TwoWire\l::write">
<polygon fill="white" stroke="black" points="144,-136.266 144,-166.266 252,-166.266 252,-136.266 144,-136.266"/>
<text text-anchor="start" x="152" y="-154.266" font-family="Helvetica,sans-Serif" font-size="10.00">eagle_impl::TwoWire</text>
<text text-anchor="middle" x="198" y="-143.266" font-family="Helvetica,sans-Serif" font-size="10.00">::write</text>
</a>
</g>
</g>
<!-- Node141&#45;&gt;Node160 -->
<g id="edge38" class="edge"><title>Node141&#45;&gt;Node160</title>
<path fill="none" stroke="midnightblue" d="M98.231,-195.086C118.936,-185.899 143.382,-175.054 162.773,-166.451"/>
<polygon fill="midnightblue" stroke="midnightblue" points="96.7339,-191.921 89.0125,-199.176 99.5727,-198.319 96.7339,-191.921"/>
</g>
<!-- Node143 -->
<g id="node3" class="node"><title>Node143</title>
<g id="a_node3"><a xlink:href="structLCD.html#aa01b7522d1e210f9cd071e3a5d4ae9e6" target="_top" xlink:title="LCD::changeBackground">
<polygon fill="white" stroke="black" points="288,-204.766 288,-223.766 414,-223.766 414,-204.766 288,-204.766"/>
<text text-anchor="middle" x="351" y="-211.766" font-family="Helvetica,sans-Serif" font-size="10.00">LCD::changeBackground</text>
</a>
</g>
</g>
<!-- Node142&#45;&gt;Node143 -->
<g id="edge2" class="edge"><title>Node142&#45;&gt;Node143</title>
<path fill="none" stroke="midnightblue" d="M245.151,-227.459C258.627,-225.763 273.582,-223.881 287.875,-222.083"/>
<polygon fill="midnightblue" stroke="midnightblue" points="244.653,-223.993 235.168,-228.715 245.527,-230.939 244.653,-223.993"/>
</g>
<!-- Node149 -->
<g id="node9" class="node"><title>Node149</title>
<g id="a_node9"><a xlink:href="structLCD.html#ad31ee94d401b7c28d6cc2f472e2eb8fd" target="_top" xlink:title="LCD::changeMode">
<polygon fill="white" stroke="black" points="542,-412.766 542,-431.766 640,-431.766 640,-412.766 542,-412.766"/>
<text text-anchor="middle" x="591" y="-419.766" font-family="Helvetica,sans-Serif" font-size="10.00">LCD::changeMode</text>
</a>
</g>
</g>
<!-- Node142&#45;&gt;Node149 -->
<g id="edge33" class="edge"><title>Node142&#45;&gt;Node149</title>
<path fill="none" stroke="midnightblue" d="M228.073,-247.319C303.817,-283.932 505.803,-381.567 570.07,-412.632"/>
<polygon fill="midnightblue" stroke="midnightblue" points="229.184,-243.969 218.658,-242.768 226.138,-250.271 229.184,-243.969"/>
</g>
<!-- Node157 -->
<g id="node17" class="node"><title>Node157</title>
<g id="a_node17"><a xlink:href="structLCD.html#ae7a8d9bc1581cfeeb0f098c8bb6d1229" target="_top" xlink:title="LCD::s2Cmd">
<polygon fill="white" stroke="black" points="554,-128.766 554,-147.766 628,-147.766 628,-128.766 554,-128.766"/>
<text text-anchor="middle" x="591" y="-135.766" font-family="Helvetica,sans-Serif" font-size="10.00">LCD::s2Cmd</text>
</a>
</g>
</g>
<!-- Node142&#45;&gt;Node157 -->
<g id="edge34" class="edge"><title>Node142&#45;&gt;Node157</title>
<path fill="none" stroke="midnightblue" d="M237.351,-220.247C242.322,-218.346 247.312,-216.331 252,-214.266 268.557,-206.973 270.92,-201.232 288,-195.266 380.683,-162.888 496.148,-147.607 553.765,-141.572"/>
<polygon fill="midnightblue" stroke="midnightblue" points="236.064,-216.991 227.897,-223.741 238.491,-223.557 236.064,-216.991"/>
</g>
<!-- Node158 -->
<g id="node18" class="node"><title>Node158</title>
<g id="a_node18"><a xlink:href="structLCD.html#ad1a67d455563026a5064ef9cab86ae4d" target="_top" xlink:title="LCD::setCursor">
<polygon fill="white" stroke="black" points="693.5,-166.766 693.5,-185.766 779.5,-185.766 779.5,-166.766 693.5,-166.766"/>
<text text-anchor="middle" x="736.5" y="-173.766" font-family="Helvetica,sans-Serif" font-size="10.00">LCD::setCursor</text>
</a>
</g>
</g>
<!-- Node142&#45;&gt;Node158 -->
<g id="edge35" class="edge"><title>Node142&#45;&gt;Node158</title>
<path fill="none" stroke="midnightblue" d="M244.216,-219.454C246.96,-217.895 249.583,-216.171 252,-214.266 274.941,-196.175 263.462,-175.122 288,-159.266 383.983,-97.2394 428.068,-128.182 542,-119.266 585.423,-115.867 598.011,-107.688 640,-119.266 673.505,-128.504 707.107,-152.931 724.106,-166.62"/>
<polygon fill="midnightblue" stroke="midnightblue" points="242.598,-216.35 235.153,-223.888 245.674,-222.637 242.598,-216.35"/>
</g>
<!-- Node144 -->
<g id="node4" class="node"><title>Node144</title>
<g id="a_node4"><a xlink:href="structLCD.html#a632d9c641930fe16c0b623b82136196e" target="_top" xlink:title="LCD::init">
<polygon fill="white" stroke="black" points="450,-223.766 450,-242.766 506,-242.766 506,-223.766 450,-223.766"/>
<text text-anchor="middle" x="478" y="-230.766" font-family="Helvetica,sans-Serif" font-size="10.00">LCD::init</text>
</a>
</g>
</g>
<!-- Node143&#45;&gt;Node144 -->
<g id="edge3" class="edge"><title>Node143&#45;&gt;Node144</title>
<path fill="none" stroke="midnightblue" d="M424.24,-218.569C433.866,-220.179 443.176,-221.958 451.227,-223.764"/>
<polygon fill="midnightblue" stroke="midnightblue" points="424.56,-215.076 414.134,-216.96 423.459,-221.989 424.56,-215.076"/>
</g>
<!-- Node154 -->
<g id="node14" class="node"><title>Node154</title>
<g id="a_node14"><a xlink:href="dancing__dragon_8cpp.html#a840291bc02cba5474a4cb46a9b9566fe" target="_top" xlink:title="main">
<polygon fill="white" stroke="black" points="977.5,-138.766 977.5,-157.766 1015.5,-157.766 1015.5,-138.766 977.5,-138.766"/>
<text text-anchor="middle" x="996.5" y="-145.766" font-family="Helvetica,sans-Serif" font-size="10.00">main</text>
</a>
</g>
</g>
<!-- Node143&#45;&gt;Node154 -->
<g id="edge32" class="edge"><title>Node143&#45;&gt;Node154</title>
<path fill="none" stroke="midnightblue" d="M361.686,-195.509C389.591,-144.363 475.533,-6.2656 590,-6.2656 590,-6.2656 590,-6.2656 737.5,-6.2656 822.782,-6.2656 857.017,18.0036 928,-29.2656 968.132,-55.9906 987.061,-115.159 993.179,-138.512"/>
<polygon fill="midnightblue" stroke="midnightblue" points="358.502,-194.041 356.888,-204.512 364.68,-197.334 358.502,-194.041"/>
</g>
<!-- Node144&#45;&gt;Node142 -->
<g id="edge19" class="edge"><title>Node144&#45;&gt;Node142</title>
<path fill="none" stroke="midnightblue" d="M439.675,-233.266C386.074,-233.266 287.948,-233.266 235.059,-233.266"/>
<polygon fill="midnightblue" stroke="midnightblue" points="439.775,-236.766 449.774,-233.266 439.774,-229.766 439.775,-236.766"/>
</g>
<!-- Node144&#45;&gt;Node143 -->
<g id="edge4" class="edge"><title>Node144&#45;&gt;Node143</title>
<path fill="none" stroke="midnightblue" d="M439.838,-233.848C419.893,-231.679 395.803,-227.805 377.9,-223.795"/>
<polygon fill="midnightblue" stroke="midnightblue" points="439.545,-237.336 449.836,-234.818 440.221,-230.368 439.545,-237.336"/>
</g>
<!-- Node145 -->
<g id="node5" class="node"><title>Node145</title>
<g id="a_node5"><a xlink:href="structLCD.html#a75cacb94de3b3ff71e9a4497b5cc4a81" target="_top" xlink:title="LCD::changeBrightness">
<polygon fill="white" stroke="black" points="676,-43.7656 676,-62.7656 797,-62.7656 797,-43.7656 676,-43.7656"/>
<text text-anchor="middle" x="736.5" y="-50.7656" font-family="Helvetica,sans-Serif" font-size="10.00">LCD::changeBrightness</text>
</a>
</g>
</g>
<!-- Node144&#45;&gt;Node145 -->
<g id="edge5" class="edge"><title>Node144&#45;&gt;Node145</title>
<path fill="none" stroke="midnightblue" d="M483.071,-213.769C490.703,-186.27 509.405,-137.571 542,-110.266 580.092,-78.3551 634.391,-61.608 675.779,-54.4548"/>
<polygon fill="midnightblue" stroke="midnightblue" points="479.669,-212.946 480.61,-223.499 486.455,-214.662 479.669,-212.946"/>
</g>
<!-- Node148 -->
<g id="node8" class="node"><title>Node148</title>
<g id="a_node8"><a xlink:href="structLCD.html#aa5e25fef7649532af402df06f05b6d4c" target="_top" xlink:title="LCD::changeID">
<polygon fill="white" stroke="black" points="548.5,-280.766 548.5,-299.766 633.5,-299.766 633.5,-280.766 548.5,-280.766"/>
<text text-anchor="middle" x="591" y="-287.766" font-family="Helvetica,sans-Serif" font-size="10.00">LCD::changeID</text>
</a>
</g>
</g>
<!-- Node144&#45;&gt;Node148 -->
<g id="edge9" class="edge"><title>Node144&#45;&gt;Node148</title>
<path fill="none" stroke="midnightblue" d="M506.313,-247.716C517.368,-253.527 530.269,-260.261 542,-266.266 551.289,-271.02 561.638,-276.208 570.341,-280.54"/>
<polygon fill="midnightblue" stroke="midnightblue" points="507.627,-244.452 497.148,-242.888 504.364,-250.645 507.627,-244.452"/>
</g>
<!-- Node144&#45;&gt;Node149 -->
<g id="edge10" class="edge"><title>Node144&#45;&gt;Node149</title>
<path fill="none" stroke="midnightblue" d="M482.874,-253.125C489.376,-285.477 505.543,-349.012 542,-389.266 552.132,-400.453 568.662,-407.092 579.436,-412.74"/>
<polygon fill="midnightblue" stroke="midnightblue" points="486.269,-252.24 480.96,-243.071 479.392,-253.549 486.269,-252.24"/>
</g>
<!-- Node150 -->
<g id="node10" class="node"><title>Node150</title>
<g id="a_node10"><a xlink:href="structLCD.html#ad3120f397273bac2ad60e0291554b9e6" target="_top" xlink:title="LCD::clear">
<polygon fill="white" stroke="black" points="848.5,-318.766 848.5,-337.766 912.5,-337.766 912.5,-318.766 848.5,-318.766"/>
<text text-anchor="middle" x="880.5" y="-325.766" font-family="Helvetica,sans-Serif" font-size="10.00">LCD::clear</text>
</a>
</g>
</g>
<!-- Node144&#45;&gt;Node150 -->
<g id="edge12" class="edge"><title>Node144&#45;&gt;Node150</title>
<path fill="none" stroke="midnightblue" d="M487.584,-252.255C496.949,-274.006 514.402,-308.158 542,-325.266 639.378,-385.627 784.855,-350.297 848.176,-334.235"/>
<polygon fill="midnightblue" stroke="midnightblue" points="490.798,-250.868 483.735,-242.971 484.332,-253.549 490.798,-250.868"/>
</g>
<!-- Node153 -->
<g id="node13" class="node"><title>Node153</title>
<g id="a_node13"><a xlink:href="structLCD.html#a0fd055c88888db0e52fea11f1df24d4a" target="_top" xlink:title="LCD::drawBitmap">
<polygon fill="white" stroke="black" points="833,-242.766 833,-261.766 928,-261.766 928,-242.766 833,-242.766"/>
<text text-anchor="middle" x="880.5" y="-249.766" font-family="Helvetica,sans-Serif" font-size="10.00">LCD::drawBitmap</text>
</a>
</g>
</g>
<!-- Node144&#45;&gt;Node153 -->
<g id="edge16" class="edge"><title>Node144&#45;&gt;Node153</title>
<path fill="none" stroke="midnightblue" d="M516.373,-235.039C589.768,-238.521 752.565,-246.244 832.863,-250.053"/>
<polygon fill="midnightblue" stroke="midnightblue" points="516.368,-231.535 506.213,-234.557 516.036,-238.527 516.368,-231.535"/>
</g>
<!-- Node155 -->
<g id="node15" class="node"><title>Node155</title>
<g id="a_node15"><a xlink:href="structLCD.html#ab1b68d883d80dc7b8810e602b7032767" target="_top" xlink:title="LCD::print">
<polygon fill="white" stroke="black" points="849.5,-204.766 849.5,-223.766 911.5,-223.766 911.5,-204.766 849.5,-204.766"/>
<text text-anchor="middle" x="880.5" y="-211.766" font-family="Helvetica,sans-Serif" font-size="10.00">LCD::print</text>
</a>
</g>
</g>
<!-- Node144&#45;&gt;Node155 -->
<g id="edge18" class="edge"><title>Node144&#45;&gt;Node155</title>
<path fill="none" stroke="midnightblue" d="M516.655,-231.479C595.636,-227.732 777.254,-219.116 849.277,-215.699"/>
<polygon fill="midnightblue" stroke="midnightblue" points="516.036,-228.005 506.213,-231.975 516.368,-234.997 516.036,-228.005"/>
</g>
<!-- Node144&#45;&gt;Node156 -->
<g id="edge20" class="edge"><title>Node144&#45;&gt;Node156</title>
<path fill="none" stroke="midnightblue" d="M488.656,-251.78C499.155,-269.827 517.736,-296.377 542,-309.266 592.679,-336.184 661.379,-335.73 701.818,-332.387"/>
<polygon fill="midnightblue" stroke="midnightblue" points="491.573,-249.824 483.669,-242.77 485.449,-253.214 491.573,-249.824"/>
</g>
<!-- Node144&#45;&gt;Node157 -->
<g id="edge24" class="edge"><title>Node144&#45;&gt;Node157</title>
<path fill="none" stroke="midnightblue" d="M487.609,-214.69C498.772,-196.675 519.494,-170.53 542,-153.266 545.696,-150.43 549.78,-147.787 553.958,-145.436"/>
<polygon fill="midnightblue" stroke="midnightblue" points="484.354,-213.334 482.44,-223.754 490.435,-216.801 484.354,-213.334"/>
</g>
<!-- Node144&#45;&gt;Node158 -->
<g id="edge31" class="edge"><title>Node144&#45;&gt;Node158</title>
<path fill="none" stroke="midnightblue" d="M502.763,-218.222C514.205,-211.669 528.374,-204.525 542,-200.266 592.564,-184.46 653.621,-179.01 693.445,-177.161"/>
<polygon fill="midnightblue" stroke="midnightblue" points="500.672,-215.393 493.865,-223.512 504.249,-221.41 500.672,-215.393"/>
</g>
<!-- Node145&#45;&gt;Node144 -->
<g id="edge6" class="edge"><title>Node145&#45;&gt;Node144</title>
<path fill="none" stroke="midnightblue" d="M695.046,-65.0253C652.715,-74.5033 586.365,-91.1 542,-128.266 509.932,-155.13 491.312,-202.701 483.45,-223.626"/>
<polygon fill="midnightblue" stroke="midnightblue" points="695.996,-68.3998 705.001,-62.8185 694.481,-61.5657 695.996,-68.3998"/>
</g>
<!-- Node146 -->
<g id="node6" class="node"><title>Node146</title>
<g id="a_node6"><a xlink:href="structLCD.html#a3f437907a543226be7c527a2d304ad95" target="_top" xlink:title="LCD::lightOff">
<polygon fill="white" stroke="black" points="843.5,-38.7656 843.5,-57.7656 917.5,-57.7656 917.5,-38.7656 843.5,-38.7656"/>
<text text-anchor="middle" x="880.5" y="-45.7656" font-family="Helvetica,sans-Serif" font-size="10.00">LCD::lightOff</text>
</a>
</g>
</g>
<!-- Node145&#45;&gt;Node146 -->
<g id="edge7" class="edge"><title>Node145&#45;&gt;Node146</title>
<path fill="none" stroke="midnightblue" d="M807.63,-50.7963C819.964,-50.3619 832.334,-49.9264 843.25,-49.542"/>
<polygon fill="midnightblue" stroke="midnightblue" points="807.18,-47.3098 797.309,-51.1596 807.426,-54.3055 807.18,-47.3098"/>
</g>
<!-- Node147 -->
<g id="node7" class="node"><title>Node147</title>
<g id="a_node7"><a xlink:href="structLCD.html#aa4c1e7d41ca93af28769aaba704d5c1f" target="_top" xlink:title="LCD::lightOn">
<polygon fill="white" stroke="black" points="843.5,-76.7656 843.5,-95.7656 917.5,-95.7656 917.5,-76.7656 843.5,-76.7656"/>
<text text-anchor="middle" x="880.5" y="-83.7656" font-family="Helvetica,sans-Serif" font-size="10.00">LCD::lightOn</text>
</a>
</g>
</g>
<!-- Node145&#45;&gt;Node147 -->
<g id="edge8" class="edge"><title>Node145&#45;&gt;Node147</title>
<path fill="none" stroke="midnightblue" d="M788.435,-65.1026C806.603,-69.3247 826.68,-73.9905 843.349,-77.8643"/>
<polygon fill="midnightblue" stroke="midnightblue" points="789.105,-61.6651 778.572,-62.8106 787.52,-68.4834 789.105,-61.6651"/>
</g>
<!-- Node149&#45;&gt;Node144 -->
<g id="edge11" class="edge"><title>Node149&#45;&gt;Node144</title>
<path fill="none" stroke="midnightblue" d="M541.133,-405.045C495.681,-349.936 482.724,-270.812 479.743,-242.856"/>
<polygon fill="midnightblue" stroke="midnightblue" points="538.555,-407.415 547.764,-412.654 543.833,-402.815 538.555,-407.415"/>
</g>
<!-- Node150&#45;&gt;Node144 -->
<g id="edge13" class="edge"><title>Node150&#45;&gt;Node144</title>
<path fill="none" stroke="midnightblue" d="M854.477,-341.752C795.028,-365.724 642.764,-405.726 542,-343.266 504.761,-320.183 485.994,-266.066 480.643,-243.034"/>
<polygon fill="midnightblue" stroke="midnightblue" points="856.001,-344.908 863.835,-337.775 853.263,-338.465 856.001,-344.908"/>
</g>
<!-- Node151 -->
<g id="node11" class="node"><title>Node151</title>
<g id="a_node11"><a xlink:href="lcd__debug_8cpp.html#ae66f6b31b5ad750f1fe042a706a4e3d4" target="_top" xlink:title="main">
<polygon fill="white" stroke="black" points="977.5,-337.766 977.5,-356.766 1015.5,-356.766 1015.5,-337.766 977.5,-337.766"/>
<text text-anchor="middle" x="996.5" y="-344.766" font-family="Helvetica,sans-Serif" font-size="10.00">main</text>
</a>
</g>
</g>
<!-- Node150&#45;&gt;Node151 -->
<g id="edge14" class="edge"><title>Node150&#45;&gt;Node151</title>
<path fill="none" stroke="midnightblue" d="M922.72,-335.136C941.401,-338.249 962.537,-341.772 977.2,-344.216"/>
<polygon fill="midnightblue" stroke="midnightblue" points="923.09,-331.649 912.651,-333.457 921.94,-338.554 923.09,-331.649"/>
</g>
<!-- Node152 -->
<g id="node12" class="node"><title>Node152</title>
<g id="a_node12"><a xlink:href="structLCD.html#a7912ad9a12d649cdec2dd53ae893a8ce" target="_top" xlink:title="LCD::reset">
<polygon fill="white" stroke="black" points="964,-299.766 964,-318.766 1029,-318.766 1029,-299.766 964,-299.766"/>
<text text-anchor="middle" x="996.5" y="-306.766" font-family="Helvetica,sans-Serif" font-size="10.00">LCD::reset</text>
</a>
</g>
</g>
<!-- Node150&#45;&gt;Node152 -->
<g id="edge15" class="edge"><title>Node150&#45;&gt;Node152</title>
<path fill="none" stroke="midnightblue" d="M922.74,-321.392C936.339,-319.126 951.237,-316.643 963.991,-314.517"/>
<polygon fill="midnightblue" stroke="midnightblue" points="921.94,-317.977 912.651,-323.074 923.09,-324.882 921.94,-317.977"/>
</g>
<!-- Node153&#45;&gt;Node154 -->
<g id="edge17" class="edge"><title>Node153&#45;&gt;Node154</title>
<path fill="none" stroke="midnightblue" d="M920.685,-238.038C923.245,-236.573 925.711,-234.983 928,-233.266 956.637,-211.776 979.948,-175.363 990.064,-158.016"/>
<polygon fill="midnightblue" stroke="midnightblue" points="919.089,-234.923 911.739,-242.553 922.243,-241.173 919.089,-234.923"/>
</g>
<!-- Node156&#45;&gt;Node150 -->
<g id="edge21" class="edge"><title>Node156&#45;&gt;Node150</title>
<path fill="none" stroke="midnightblue" d="M781.38,-328.266C802.945,-328.266 828.439,-328.266 848.035,-328.266"/>
<polygon fill="midnightblue" stroke="midnightblue" points="781.152,-324.766 771.152,-328.266 781.152,-331.766 781.152,-324.766"/>
</g>
<!-- Node156&#45;&gt;Node153 -->
<g id="edge22" class="edge"><title>Node156&#45;&gt;Node153</title>
<path fill="none" stroke="midnightblue" d="M764.508,-313.81C793.035,-298.542 837.2,-274.905 861.662,-261.813"/>
<polygon fill="midnightblue" stroke="midnightblue" points="762.649,-310.836 755.484,-318.64 765.953,-317.007 762.649,-310.836"/>
</g>
<!-- Node156&#45;&gt;Node155 -->
<g id="edge23" class="edge"><title>Node156&#45;&gt;Node155</title>
<path fill="none" stroke="midnightblue" d="M751.448,-310.65C768.714,-289.814 799.911,-255.198 833,-233.266 838.524,-229.604 844.867,-226.442 851.055,-223.805"/>
<polygon fill="midnightblue" stroke="midnightblue" points="748.53,-308.692 744.937,-318.659 753.961,-313.107 748.53,-308.692"/>
</g>
<!-- Node157&#45;&gt;Node144 -->
<g id="edge26" class="edge"><title>Node157&#45;&gt;Node144</title>
<path fill="none" stroke="midnightblue" d="M572.644,-152.946C563.088,-158.195 551.315,-164.121 542,-171.266 521.471,-187.013 502.427,-210.149 490.768,-223.613"/>
<polygon fill="midnightblue" stroke="midnightblue" points="574.413,-155.966 581.286,-147.903 570.885,-149.92 574.413,-155.966"/>
</g>
<!-- Node157&#45;&gt;Node145 -->
<g id="edge25" class="edge"><title>Node157&#45;&gt;Node145</title>
<path fill="none" stroke="midnightblue" d="M617.011,-123.451C646.362,-106.065 694.189,-77.7355 719.157,-62.9463"/>
<polygon fill="midnightblue" stroke="midnightblue" points="615.002,-120.572 608.182,-128.68 618.57,-126.595 615.002,-120.572"/>
</g>
<!-- Node157&#45;&gt;Node158 -->
<g id="edge27" class="edge"><title>Node157&#45;&gt;Node158</title>
<path fill="none" stroke="midnightblue" d="M637.973,-150.44C657.816,-155.694 680.693,-161.752 699.3,-166.68"/>
<polygon fill="midnightblue" stroke="midnightblue" points="638.774,-147.031 628.211,-147.855 636.982,-153.798 638.774,-147.031"/>
</g>
<!-- Node158&#45;&gt;Node150 -->
<g id="edge28" class="edge"><title>Node158&#45;&gt;Node150</title>
<path fill="none" stroke="midnightblue" d="M753.569,-193.467C783.579,-225.589 847.215,-293.707 870.621,-318.761"/>
<polygon fill="midnightblue" stroke="midnightblue" points="755.767,-190.692 746.383,-185.774 750.652,-195.471 755.767,-190.692"/>
</g>
<!-- Node158&#45;&gt;Node153 -->
<g id="edge29" class="edge"><title>Node158&#45;&gt;Node153</title>
<path fill="none" stroke="midnightblue" d="M760.57,-191.372C779.579,-203.489 807.464,-220.518 833,-233.266 839.71,-236.615 847.16,-239.859 854.095,-242.689"/>
<polygon fill="midnightblue" stroke="midnightblue" points="762.305,-188.326 752.001,-185.858 758.517,-194.212 762.305,-188.326"/>
</g>
<!-- Node158&#45;&gt;Node155 -->
<g id="edge30" class="edge"><title>Node158&#45;&gt;Node155</title>
<path fill="none" stroke="midnightblue" d="M783.024,-188.448C804.755,-194.263 830.157,-201.061 849.44,-206.221"/>
<polygon fill="midnightblue" stroke="midnightblue" points="783.897,-185.059 773.333,-185.855 782.088,-191.821 783.897,-185.059"/>
</g>
</g>
</svg>
        <g id="navigator" transform="translate(0 0)" fill="#404254">
                <rect fill="#f2f5e9" fill-opacity="0.5" stroke="#606060" stroke-width=".5" x="0" y="0" width="60" height="60"/>
                <use id="zoomplus" xlink:href="#zoomPlus" x="17" y="9" onmousedown="handleZoom(evt,'in')"/>
                <use id="zoomminus" xlink:href="#zoomMin" x="42" y="9" onmousedown="handleZoom(evt,'out')"/>
                <use id="reset" xlink:href="#resetDef" x="30" y="36" onmousedown="handleReset()"/>
                <g id="arrowUp" xlink:href="#dirArrow" transform="translate(30 24)" onmousedown="handlePan(0,-1)">
                  <use xlink:href="#rim" fill="#404040">
                        <set attributeName="fill" to="#808080" begin="arrowUp.mouseover" end="arrowUp.mouseout"/>
                  </use>
                  <path fill="none" stroke="white" stroke-width="1.5" d="M0,-3.0v7 M-2.5,-0.5L0,-3.0L2.5,-0.5"/>
                </g>
                <g id="arrowRight" xlink:href="#dirArrow" transform="rotate(90) translate(36 -43)" onmousedown="handlePan(1,0)">
                  <use xlink:href="#rim" fill="#404040">
                        <set attributeName="fill" to="#808080" begin="arrowRight.mouseover" end="arrowRight.mouseout"/>
                  </use>
                  <path fill="none" stroke="white" stroke-width="1.5" d="M0,-3.0v7 M-2.5,-0.5L0,-3.0L2.5,-0.5"/>
                </g>
                <g id="arrowDown" xlink:href="#dirArrow" transform="rotate(180) translate(-30 -48)" onmousedown="handlePan(0,1)">
                  <use xlink:href="#rim" fill="#404040">
                        <set attributeName="fill" to="#808080" begin="arrowDown.mouseover" end="arrowDown.mouseout"/>
                  </use>
                  <path fill="none" stroke="white" stroke-width="1.5" d="M0,-3.0v7 M-2.5,-0.5L0,-3.0L2.5,-0.5"/>
                </g>
                <g id="arrowLeft" xlink:href="#dirArrow" transform="rotate(270) translate(-36 17)" onmousedown="handlePan(-1,0)">
                  <use xlink:href="#rim" fill="#404040">
                        <set attributeName="fill" to="#808080" begin="arrowLeft.mouseover" end="arrowLeft.mouseout"/>
                  </use>
                  <path fill="none" stroke="white" stroke-width="1.5" d="M0,-3.0v7 M-2.5,-0.5L0,-3.0L2.5,-0.5"/>
                </g>
        </g>
        <svg viewBox="0 0 15 15" width="100%" height="30px" preserveAspectRatio="xMaxYMin meet">
         <g id="arrow_out" transform="scale(0.3 0.3)">
          <a xlink:href="classeagle__impl_1_1TwoWire_a2b5f9f156b6d281746a2a6ca5707dad3_icgraph_org.svg" target="_base">
           <rect id="button" ry="5" rx="5" y="6" x="6" height="38" width="38"
                fill="#f2f5e9" fill-opacity="0.5" stroke="#606060" stroke-width="1.0"/>
           <path id="arrow"
             d="M 11.500037,31.436501 C 11.940474,20.09759 22.043105,11.32322 32.158766,21.979434 L 37.068811,17.246167 C 37.068811,17.246167 37.088388,32 37.088388,32 L 22.160133,31.978069 C 22.160133,31.978069 26.997745,27.140456 26.997745,27.140456 C 18.528582,18.264221 13.291696,25.230495 11.500037,31.436501 z"
             style="fill:#404040;"/>
          </a>
         </g>
        </svg>
</svg>
