<?xml version="1.0" encoding="UTF-8" standalone="no"?>
<!DOCTYPE svg PUBLIC "-//W3C//DTD SVG 1.1//EN"
 "http://www.w3.org/Graphics/SVG/1.1/DTD/svg11.dtd">
<!-- Generated by graphviz version 2.38.0 (20140413.2041)
 -->
<!-- Title: eagle_impl::SoftwareSerial::isListening Pages: 1 -->
<svg width="536pt" height="186pt"
 viewBox="0.00 0.00 536.00 186.00" xmlns="http://www.w3.org/2000/svg" xmlns:xlink="http://www.w3.org/1999/xlink">
<g id="graph0" class="graph" transform="scale(1 1) rotate(0) translate(4 182)">
<title>eagle_impl::SoftwareSerial::isListening</title>
<polygon fill="white" stroke="none" points="-4,4 -4,-182 532,-182 532,4 -4,4"/>
<!-- Node44 -->
<g id="node1" class="node"><title>Node44</title>
<polygon fill="#bfbfbf" stroke="black" points="0,-73.5 0,-103.5 133,-103.5 133,-73.5 0,-73.5"/>
<text text-anchor="start" x="8" y="-91.5" font-family="Helvetica,sans-Serif" font-size="10.00">eagle_impl::SoftwareSerial</text>
<text text-anchor="middle" x="66.5" y="-80.5" font-family="Helvetica,sans-Serif" font-size="10.00">::isListening</text>
</g>
<!-- Node45 -->
<g id="node2" class="node"><title>Node45</title>
<g id="a_node2"><a xlink:href="classeagle__impl_1_1SoftwareSerial.html#a6a0c4bbe1cf6866ec54b98c6efdc4deb" target="_top" xlink:title="eagle_impl::SoftwareSerial\l::available">
<polygon fill="white" stroke="black" points="169,-147.5 169,-177.5 302,-177.5 302,-147.5 169,-147.5"/>
<text text-anchor="start" x="177" y="-165.5" font-family="Helvetica,sans-Serif" font-size="10.00">eagle_impl::SoftwareSerial</text>
<text text-anchor="middle" x="235.5" y="-154.5" font-family="Helvetica,sans-Serif" font-size="10.00">::available</text>
</a>
</g>
</g>
<!-- Node44&#45;&gt;Node45 -->
<g id="edge1" class="edge"><title>Node44&#45;&gt;Node45</title>
<path fill="none" stroke="midnightblue" d="M104.914,-108.119C123.889,-117.763 147.428,-129.266 169,-138.5 176.126,-141.55 183.782,-144.575 191.259,-147.397"/>
<polygon fill="midnightblue" stroke="midnightblue" points="106.491,-104.994 95.9948,-103.552 103.301,-111.225 106.491,-104.994"/>
</g>
<!-- Node48 -->
<g id="node5" class="node"><title>Node48</title>
<g id="a_node5"><a xlink:href="classeagle__impl_1_1SoftwareSerial.html#a95364d98124ae983de49dbccb9d5e920" target="_top" xlink:title="eagle_impl::SoftwareSerial\l::flush">
<polygon fill="white" stroke="black" points="169,-98.5 169,-128.5 302,-128.5 302,-98.5 169,-98.5"/>
<text text-anchor="start" x="177" y="-116.5" font-family="Helvetica,sans-Serif" font-size="10.00">eagle_impl::SoftwareSerial</text>
<text text-anchor="middle" x="235.5" y="-105.5" font-family="Helvetica,sans-Serif" font-size="10.00">::flush</text>
</a>
</g>
</g>
<!-- Node44&#45;&gt;Node48 -->
<g id="edge4" class="edge"><title>Node44&#45;&gt;Node48</title>
<path fill="none" stroke="midnightblue" d="M143.066,-99.8123C151.685,-101.103 160.417,-102.41 168.891,-103.678"/>
<polygon fill="midnightblue" stroke="midnightblue" points="143.432,-96.3281 133.024,-98.3089 142.395,-103.251 143.432,-96.3281"/>
</g>
<!-- Node49 -->
<g id="node6" class="node"><title>Node49</title>
<g id="a_node6"><a xlink:href="classeagle__impl_1_1SoftwareSerial.html#a330f9da007584d91908da3b4f394f50e" target="_top" xlink:title="eagle_impl::SoftwareSerial\l::peek">
<polygon fill="white" stroke="black" points="169,-49.5 169,-79.5 302,-79.5 302,-49.5 169,-49.5"/>
<text text-anchor="start" x="177" y="-67.5" font-family="Helvetica,sans-Serif" font-size="10.00">eagle_impl::SoftwareSerial</text>
<text text-anchor="middle" x="235.5" y="-56.5" font-family="Helvetica,sans-Serif" font-size="10.00">::peek</text>
</a>
</g>
</g>
<!-- Node44&#45;&gt;Node49 -->
<g id="edge5" class="edge"><title>Node44&#45;&gt;Node49</title>
<path fill="none" stroke="midnightblue" d="M143.066,-77.6402C151.685,-76.4016 160.417,-75.1466 168.891,-73.9288"/>
<polygon fill="midnightblue" stroke="midnightblue" points="142.424,-74.1964 133.024,-79.0834 143.42,-81.1253 142.424,-74.1964"/>
</g>
<!-- Node50 -->
<g id="node7" class="node"><title>Node50</title>
<g id="a_node7"><a xlink:href="classeagle__impl_1_1SoftwareSerial.html#ac80b242424a292382f2ac3ea9d84ba43" target="_top" xlink:title="eagle_impl::SoftwareSerial\l::read">
<polygon fill="white" stroke="black" points="169,-0.5 169,-30.5 302,-30.5 302,-0.5 169,-0.5"/>
<text text-anchor="start" x="177" y="-18.5" font-family="Helvetica,sans-Serif" font-size="10.00">eagle_impl::SoftwareSerial</text>
<text text-anchor="middle" x="235.5" y="-7.5" font-family="Helvetica,sans-Serif" font-size="10.00">::read</text>
</a>
</g>
</g>
<!-- Node44&#45;&gt;Node50 -->
<g id="edge6" class="edge"><title>Node44&#45;&gt;Node50</title>
<path fill="none" stroke="midnightblue" d="M106.953,-68.9748C125.613,-59.9643 148.293,-49.3323 169,-40.5 176.837,-37.1572 185.285,-33.7733 193.425,-30.6207"/>
<polygon fill="midnightblue" stroke="midnightblue" points="105.335,-65.8696 97.8685,-73.3864 108.393,-72.1663 105.335,-65.8696"/>
</g>
<!-- Node46 -->
<g id="node3" class="node"><title>Node46</title>
<g id="a_node3"><a xlink:href="eBoard__comment_8h.html#a013ff57a97587f0064777a3a28f9a2dd" target="_top" xlink:title="[BLUETOOTH] reads a single value from bluetooth if available! ">
<polygon fill="white" stroke="black" points="338,-79 338,-98 388,-98 388,-79 338,-79"/>
<text text-anchor="middle" x="363" y="-86" font-family="Helvetica,sans-Serif" font-size="10.00">readVal</text>
</a>
</g>
</g>
<!-- Node45&#45;&gt;Node46 -->
<g id="edge2" class="edge"><title>Node45&#45;&gt;Node46</title>
<path fill="none" stroke="midnightblue" d="M293.167,-143.165C296.203,-141.689 299.167,-140.133 302,-138.5 321.735,-127.122 341.408,-109.145 352.601,-98.1294"/>
<polygon fill="midnightblue" stroke="midnightblue" points="291.573,-140.045 283.904,-147.354 294.457,-146.423 291.573,-140.045"/>
</g>
<!-- Node47 -->
<g id="node4" class="node"><title>Node47</title>
<g id="a_node4"><a xlink:href="structRB14Scan.html#a35ff55470a07767513fb0c619ed78258" target="_top" xlink:title="RB14Scan::channel">
<polygon fill="white" stroke="black" points="424,-79 424,-98 528,-98 528,-79 424,-79"/>
<text text-anchor="middle" x="476" y="-86" font-family="Helvetica,sans-Serif" font-size="10.00">RB14Scan::channel</text>
</a>
</g>
</g>
<!-- Node46&#45;&gt;Node47 -->
<g id="edge3" class="edge"><title>Node46&#45;&gt;Node47</title>
<path fill="none" stroke="midnightblue" d="M398.191,-88.5C406.241,-88.5 414.996,-88.5 423.617,-88.5"/>
<polygon fill="midnightblue" stroke="midnightblue" points="398.085,-85.0001 388.085,-88.5 398.085,-92.0001 398.085,-85.0001"/>
</g>
<!-- Node50&#45;&gt;Node46 -->
<g id="edge7" class="edge"><title>Node50&#45;&gt;Node46</title>
<path fill="none" stroke="midnightblue" d="M290.63,-34.6072C294.545,-36.4588 298.375,-38.426 302,-40.5 321.221,-51.4968 340.743,-68.4147 352.094,-78.951"/>
<polygon fill="midnightblue" stroke="midnightblue" points="291.957,-31.3669 281.398,-30.5001 289.112,-37.7626 291.957,-31.3669"/>
</g>
</g>
</svg>
