<?xml version="1.0" encoding="UTF-8" standalone="no"?>
<!DOCTYPE svg PUBLIC "-//W3C//DTD SVG 1.1//EN"
 "http://www.w3.org/Graphics/SVG/1.1/DTD/svg11.dtd">
<!-- Generated by graphviz version 2.38.0 (20140413.2041)
 -->
<!-- Title: eagle_impl::TwoWire::requestFrom Pages: 1 -->
<svg width="260pt" height="78pt"
 viewBox="0.00 0.00 260.00 77.50" xmlns="http://www.w3.org/2000/svg" xmlns:xlink="http://www.w3.org/1999/xlink">
<g id="graph0" class="graph" transform="scale(1 1) rotate(0) translate(4 73.5)">
<title>eagle_impl::TwoWire::requestFrom</title>
<polygon fill="white" stroke="none" points="-4,4 -4,-73.5 256,-73.5 256,4 -4,4"/>
<!-- Node121 -->
<g id="node1" class="node"><title>Node121</title>
<polygon fill="#bfbfbf" stroke="black" points="0,-17 0,-47 108,-47 108,-17 0,-17"/>
<text text-anchor="start" x="8" y="-35" font-family="Helvetica,sans-Serif" font-size="10.00">eagle_impl::TwoWire</text>
<text text-anchor="middle" x="54" y="-24" font-family="Helvetica,sans-Serif" font-size="10.00">::requestFrom</text>
</g>
<!-- Node122 -->
<g id="node2" class="node"><title>Node122</title>
<g id="a_node2"><a xlink:href="classeagle__impl_1_1TwoWire.html#aa361b83500d00dfb93bb25b6473b33e9" target="_top" xlink:title="eagle_impl::TwoWire\l::read">
<polygon fill="white" stroke="black" points="144,-39 144,-69 252,-69 252,-39 144,-39"/>
<text text-anchor="start" x="152" y="-57" font-family="Helvetica,sans-Serif" font-size="10.00">eagle_impl::TwoWire</text>
<text text-anchor="middle" x="198" y="-46" font-family="Helvetica,sans-Serif" font-size="10.00">::read</text>
</a>
</g>
</g>
<!-- Node121&#45;&gt;Node122 -->
<g id="edge1" class="edge"><title>Node121&#45;&gt;Node122</title>
<path fill="none" stroke="midnightblue" d="M108.28,-40.2546C116.651,-41.5516 125.374,-42.9029 133.94,-44.2301"/>
<polygon fill="midnightblue" stroke="midnightblue" points="133.476,-47.6999 143.894,-45.7723 134.548,-40.7825 133.476,-47.6999"/>
</g>
<!-- Node123 -->
<g id="node3" class="node"><title>Node123</title>
<g id="a_node3"><a xlink:href="eBoard_8h.html#a96bfb24c154b0e332343359eb14e36fe" target="_top" xlink:title="twi_readFrom">
<polygon fill="white" stroke="black" points="160,-0.5 160,-19.5 236,-19.5 236,-0.5 160,-0.5"/>
<text text-anchor="middle" x="198" y="-7.5" font-family="Helvetica,sans-Serif" font-size="10.00">twi_readFrom</text>
</a>
</g>
</g>
<!-- Node121&#45;&gt;Node123 -->
<g id="edge2" class="edge"><title>Node121&#45;&gt;Node123</title>
<path fill="none" stroke="midnightblue" d="M108.28,-23.7454C121.951,-21.6273 136.558,-19.3642 149.893,-17.2982"/>
<polygon fill="midnightblue" stroke="midnightblue" points="150.459,-20.7524 159.806,-15.7625 149.388,-13.8349 150.459,-20.7524"/>
</g>
</g>
</svg>
