<?xml version="1.0" encoding="UTF-8" standalone="no"?>
<!DOCTYPE svg PUBLIC "-//W3C//DTD SVG 1.1//EN"
 "http://www.w3.org/Graphics/SVG/1.1/DTD/svg11.dtd">
<!-- Generated by graphviz version 2.38.0 (20140413.2041)
 -->
<!-- Title: eagle_impl::SoftwareSerial::handle_interrupt Pages: 1 -->
<svg width="479pt" height="127pt"
 viewBox="0.00 0.00 479.00 126.50" xmlns="http://www.w3.org/2000/svg" xmlns:xlink="http://www.w3.org/1999/xlink">
<g id="graph0" class="graph" transform="scale(1 1) rotate(0) translate(4 122.5)">
<title>eagle_impl::SoftwareSerial::handle_interrupt</title>
<polygon fill="white" stroke="none" points="-4,4 -4,-122.5 475,-122.5 475,4 -4,4"/>
<!-- Node35 -->
<g id="node1" class="node"><title>Node35</title>
<polygon fill="#bfbfbf" stroke="black" points="0,-39 0,-69 133,-69 133,-39 0,-39"/>
<text text-anchor="start" x="8" y="-57" font-family="Helvetica,sans-Serif" font-size="10.00">eagle_impl::SoftwareSerial</text>
<text text-anchor="middle" x="66.5" y="-46" font-family="Helvetica,sans-Serif" font-size="10.00">::handle_interrupt</text>
</g>
<!-- Node36 -->
<g id="node2" class="node"><title>Node36</title>
<g id="a_node2"><a xlink:href="classeagle__impl_1_1SoftwareSerial.html#a14ff531f8f4a57b2311e452f902c7a31" target="_top" xlink:title="eagle_impl::SoftwareSerial\l::recv">
<polygon fill="white" stroke="black" points="169,-39 169,-69 302,-69 302,-39 169,-39"/>
<text text-anchor="start" x="177" y="-57" font-family="Helvetica,sans-Serif" font-size="10.00">eagle_impl::SoftwareSerial</text>
<text text-anchor="middle" x="235.5" y="-46" font-family="Helvetica,sans-Serif" font-size="10.00">::recv</text>
</a>
</g>
</g>
<!-- Node35&#45;&gt;Node36 -->
<g id="edge1" class="edge"><title>Node35&#45;&gt;Node36</title>
<path fill="none" stroke="midnightblue" d="M133.024,-54C141.496,-54 150.228,-54 158.847,-54"/>
<polygon fill="midnightblue" stroke="midnightblue" points="158.891,-57.5001 168.891,-54 158.891,-50.5001 158.891,-57.5001"/>
</g>
<!-- Node37 -->
<g id="node3" class="node"><title>Node37</title>
<g id="a_node3"><a xlink:href="classeagle__impl_1_1SoftwareSerial.html#a445b8f3448a04126cb2183b4ae415dbe" target="_top" xlink:title="eagle_impl::SoftwareSerial\l::rx_pin_read">
<polygon fill="white" stroke="black" points="338,-88 338,-118 471,-118 471,-88 338,-88"/>
<text text-anchor="start" x="346" y="-106" font-family="Helvetica,sans-Serif" font-size="10.00">eagle_impl::SoftwareSerial</text>
<text text-anchor="middle" x="404.5" y="-95" font-family="Helvetica,sans-Serif" font-size="10.00">::rx_pin_read</text>
</a>
</g>
</g>
<!-- Node36&#45;&gt;Node37 -->
<g id="edge2" class="edge"><title>Node36&#45;&gt;Node37</title>
<path fill="none" stroke="midnightblue" d="M287.968,-69.1014C305.192,-74.1551 324.559,-79.8376 342.442,-85.0848"/>
<polygon fill="midnightblue" stroke="midnightblue" points="341.621,-88.4913 352.202,-87.9484 343.592,-81.7745 341.621,-88.4913"/>
</g>
<!-- Node38 -->
<g id="node4" class="node"><title>Node38</title>
<g id="a_node4"><a xlink:href="classeagle__impl_1_1SoftwareSerial.html#a1dc4448e5fdf2516f47439fb4f62f4be" target="_top" xlink:title="eagle_impl::SoftwareSerial\l::tunedDelay">
<polygon fill="white" stroke="black" points="338,-39 338,-69 471,-69 471,-39 338,-39"/>
<text text-anchor="start" x="346" y="-57" font-family="Helvetica,sans-Serif" font-size="10.00">eagle_impl::SoftwareSerial</text>
<text text-anchor="middle" x="404.5" y="-46" font-family="Helvetica,sans-Serif" font-size="10.00">::tunedDelay</text>
</a>
</g>
</g>
<!-- Node36&#45;&gt;Node38 -->
<g id="edge3" class="edge"><title>Node36&#45;&gt;Node38</title>
<path fill="none" stroke="midnightblue" d="M302.024,-54C310.496,-54 319.228,-54 327.847,-54"/>
<polygon fill="midnightblue" stroke="midnightblue" points="327.891,-57.5001 337.891,-54 327.891,-50.5001 327.891,-57.5001"/>
</g>
<!-- Node39 -->
<g id="node5" class="node"><title>Node39</title>
<g id="a_node5"><a xlink:href="eBoard_8h.html#a7ba959374e79d3320d69af12f7307f44" target="_top" xlink:title="DebugPulse">
<polygon fill="white" stroke="black" points="369.5,-0.5 369.5,-19.5 439.5,-19.5 439.5,-0.5 369.5,-0.5"/>
<text text-anchor="middle" x="404.5" y="-7.5" font-family="Helvetica,sans-Serif" font-size="10.00">DebugPulse</text>
</a>
</g>
</g>
<!-- Node36&#45;&gt;Node39 -->
<g id="edge4" class="edge"><title>Node36&#45;&gt;Node39</title>
<path fill="none" stroke="midnightblue" d="M293.505,-38.9808C315.006,-33.3157 339.123,-26.9617 359.283,-21.6501"/>
<polygon fill="midnightblue" stroke="midnightblue" points="360.352,-24.9879 369.13,-19.0556 358.568,-18.2189 360.352,-24.9879"/>
</g>
</g>
</svg>
