<?xml version="1.0" encoding="UTF-8" standalone="no"?>
<!DOCTYPE svg PUBLIC "-//W3C//DTD SVG 1.1//EN"
 "http://www.w3.org/Graphics/SVG/1.1/DTD/svg11.dtd">
<!-- Generated by graphviz version 2.38.0 (20140413.2041)
 -->
<!-- Title: eagle_impl::SoftwareSerial::write Pages: 1 -->
<svg width="315pt" height="52pt"
 viewBox="0.00 0.00 315.00 51.50" xmlns="http://www.w3.org/2000/svg" xmlns:xlink="http://www.w3.org/1999/xlink">
<g id="graph0" class="graph" transform="scale(1 1) rotate(0) translate(4 47.5)">
<title>eagle_impl::SoftwareSerial::write</title>
<polygon fill="white" stroke="none" points="-4,4 -4,-47.5 311,-47.5 311,4 -4,4"/>
<!-- Node84 -->
<g id="node1" class="node"><title>Node84</title>
<polygon fill="#bfbfbf" stroke="black" points="0,-0.5 0,-30.5 133,-30.5 133,-0.5 0,-0.5"/>
<text text-anchor="start" x="8" y="-18.5" font-family="Helvetica,sans-Serif" font-size="10.00">eagle_impl::SoftwareSerial</text>
<text text-anchor="middle" x="66.5" y="-7.5" font-family="Helvetica,sans-Serif" font-size="10.00">::write</text>
</g>
<!-- Node85 -->
<g id="node2" class="node"><title>Node85</title>
<g id="a_node2"><a xlink:href="eBoard__comment_8h.html#abf785ff4ead72e3118dfaa8270c04f0c" target="_top" xlink:title="[BLUETOOTH] writes Data to bluetooth ">
<polygon fill="white" stroke="black" points="169,-6 169,-25 221,-25 221,-6 169,-6"/>
<text text-anchor="middle" x="195" y="-13" font-family="Helvetica,sans-Serif" font-size="10.00">writeVal</text>
</a>
</g>
</g>
<!-- Node84&#45;&gt;Node85 -->
<g id="edge1" class="edge"><title>Node84&#45;&gt;Node85</title>
<path fill="none" stroke="midnightblue" d="M143.613,-15.5C152.609,-15.5 161.243,-15.5 168.744,-15.5"/>
<polygon fill="midnightblue" stroke="midnightblue" points="143.344,-12.0001 133.344,-15.5 143.344,-19.0001 143.344,-12.0001"/>
</g>
<!-- Node86 -->
<g id="node3" class="node"><title>Node86</title>
<g id="a_node3"><a xlink:href="eBoard__comment_8h.html#aca4f96af7c6736bf2b61c88d731af741" target="_top" xlink:title="read a digital state from an INPUTpin ">
<polygon fill="white" stroke="black" points="257,-6 257,-25 307,-25 307,-6 257,-6"/>
<text text-anchor="middle" x="282" y="-13" font-family="Helvetica,sans-Serif" font-size="10.00">readPin</text>
</a>
</g>
</g>
<!-- Node85&#45;&gt;Node86 -->
<g id="edge2" class="edge"><title>Node85&#45;&gt;Node86</title>
<path fill="none" stroke="midnightblue" d="M231.209,-15.5C239.789,-15.5 248.779,-15.5 256.721,-15.5"/>
<polygon fill="midnightblue" stroke="midnightblue" points="231.043,-12.0001 221.043,-15.5 231.043,-19.0001 231.043,-12.0001"/>
</g>
<!-- Node86&#45;&gt;Node86 -->
<g id="edge3" class="edge"><title>Node86&#45;&gt;Node86</title>
<path fill="none" stroke="midnightblue" d="M266.075,-34.9C267.138,-39.8146 272.447,-43.5 282,-43.5 297.285,-43.5 301.704,-34.0653 295.255,-25.2571"/>
<polygon fill="midnightblue" stroke="midnightblue" points="269.449,-35.8284 268.745,-25.2571 262.703,-33.9604 269.449,-35.8284"/>
</g>
</g>
</svg>
