<?xml version="1.0" encoding="UTF-8" standalone="no"?>
<!DOCTYPE svg PUBLIC "-//W3C//DTD SVG 1.1//EN"
 "http://www.w3.org/Graphics/SVG/1.1/DTD/svg11.dtd">
<!-- Generated by graphviz version 2.38.0 (20140413.2041)
 -->
<!-- Title: eagle_impl::SoftwareSerial::begin Pages: 1 -->
<svg width="227pt" height="52pt"
 viewBox="0.00 0.00 227.00 51.50" xmlns="http://www.w3.org/2000/svg" xmlns:xlink="http://www.w3.org/1999/xlink">
<g id="graph0" class="graph" transform="scale(1 1) rotate(0) translate(4 47.5)">
<title>eagle_impl::SoftwareSerial::begin</title>
<polygon fill="white" stroke="none" points="-4,4 -4,-47.5 223,-47.5 223,4 -4,4"/>
<!-- Node15 -->
<g id="node1" class="node"><title>Node15</title>
<polygon fill="#bfbfbf" stroke="black" points="0,-0.5 0,-30.5 133,-30.5 133,-0.5 0,-0.5"/>
<text text-anchor="start" x="8" y="-18.5" font-family="Helvetica,sans-Serif" font-size="10.00">eagle_impl::SoftwareSerial</text>
<text text-anchor="middle" x="66.5" y="-7.5" font-family="Helvetica,sans-Serif" font-size="10.00">::begin</text>
</g>
<!-- Node16 -->
<g id="node2" class="node"><title>Node16</title>
<g id="a_node2"><a xlink:href="eBoard__comment_8h.html#aca4f96af7c6736bf2b61c88d731af741" target="_top" xlink:title="read a digital state from an INPUTpin ">
<polygon fill="white" stroke="black" points="169,-6 169,-25 219,-25 219,-6 169,-6"/>
<text text-anchor="middle" x="194" y="-13" font-family="Helvetica,sans-Serif" font-size="10.00">readPin</text>
</a>
</g>
</g>
<!-- Node15&#45;&gt;Node16 -->
<g id="edge1" class="edge"><title>Node15&#45;&gt;Node16</title>
<path fill="none" stroke="midnightblue" d="M143.324,-15.5C152.556,-15.5 161.394,-15.5 168.988,-15.5"/>
<polygon fill="midnightblue" stroke="midnightblue" points="143.19,-12.0001 133.19,-15.5 143.19,-19.0001 143.19,-12.0001"/>
</g>
<!-- Node16&#45;&gt;Node16 -->
<g id="edge2" class="edge"><title>Node16&#45;&gt;Node16</title>
<path fill="none" stroke="midnightblue" d="M170.563,-34.5292C171.841,-39.628 179.654,-43.5 194,-43.5 216.395,-43.5 222.868,-34.0653 213.42,-25.2571"/>
<polygon fill="midnightblue" stroke="midnightblue" points="173.816,-35.8243 174.58,-25.2571 167.393,-33.0415 173.816,-35.8243"/>
</g>
</g>
</svg>
