<?xml version="1.0" encoding="UTF-8" standalone="no"?>
<!DOCTYPE svg PUBLIC "-//W3C//DTD SVG 1.1//EN"
 "http://www.w3.org/Graphics/SVG/1.1/DTD/svg11.dtd">
<!-- Generated by graphviz version 2.38.0 (20140413.2041)
 -->
<!-- Title: eagle_impl::SoftwareSerial::listen Pages: 1 -->
<svg width="387pt" height="39pt"
 viewBox="0.00 0.00 387.00 39.00" xmlns="http://www.w3.org/2000/svg" xmlns:xlink="http://www.w3.org/1999/xlink">
<g id="graph0" class="graph" transform="scale(1 1) rotate(0) translate(4 35)">
<title>eagle_impl::SoftwareSerial::listen</title>
<polygon fill="white" stroke="none" points="-4,4 -4,-35 383,-35 383,4 -4,4"/>
<!-- Node54 -->
<g id="node1" class="node"><title>Node54</title>
<polygon fill="#bfbfbf" stroke="black" points="0,-0.5 0,-30.5 133,-30.5 133,-0.5 0,-0.5"/>
<text text-anchor="start" x="8" y="-18.5" font-family="Helvetica,sans-Serif" font-size="10.00">eagle_impl::SoftwareSerial</text>
<text text-anchor="middle" x="66.5" y="-7.5" font-family="Helvetica,sans-Serif" font-size="10.00">::listen</text>
</g>
<!-- Node55 -->
<g id="node2" class="node"><title>Node55</title>
<g id="a_node2"><a xlink:href="classeagle__impl_1_1SoftwareSerial.html#af1b194359d70894b3a2f38236a68480e" target="_top" xlink:title="eagle_impl::SoftwareSerial\l::begin">
<polygon fill="white" stroke="black" points="169,-0.5 169,-30.5 302,-30.5 302,-0.5 169,-0.5"/>
<text text-anchor="start" x="177" y="-18.5" font-family="Helvetica,sans-Serif" font-size="10.00">eagle_impl::SoftwareSerial</text>
<text text-anchor="middle" x="235.5" y="-7.5" font-family="Helvetica,sans-Serif" font-size="10.00">::begin</text>
</a>
</g>
</g>
<!-- Node54&#45;&gt;Node55 -->
<g id="edge1" class="edge"><title>Node54&#45;&gt;Node55</title>
<path fill="none" stroke="midnightblue" d="M143.066,-15.5C151.685,-15.5 160.417,-15.5 168.891,-15.5"/>
<polygon fill="midnightblue" stroke="midnightblue" points="143.024,-12.0001 133.024,-15.5 143.023,-19.0001 143.024,-12.0001"/>
</g>
<!-- Node56 -->
<g id="node3" class="node"><title>Node56</title>
<g id="a_node3"><a xlink:href="eBoard__comment_8h.html#a7dfd9b79bc5a37d7df40207afbc5431f" target="_top" xlink:title="this is a guard ">
<polygon fill="white" stroke="black" points="338,-6 338,-25 379,-25 379,-6 338,-6"/>
<text text-anchor="middle" x="358.5" y="-13" font-family="Helvetica,sans-Serif" font-size="10.00">setup</text>
</a>
</g>
</g>
<!-- Node55&#45;&gt;Node56 -->
<g id="edge2" class="edge"><title>Node55&#45;&gt;Node56</title>
<path fill="none" stroke="midnightblue" d="M312.533,-15.5C321.805,-15.5 330.555,-15.5 337.829,-15.5"/>
<polygon fill="midnightblue" stroke="midnightblue" points="312.311,-12.0001 302.311,-15.5 312.311,-19.0001 312.311,-12.0001"/>
</g>
</g>
</svg>
