<?xml version="1.0" encoding="UTF-8" standalone="no"?>
<!DOCTYPE svg PUBLIC "-//W3C//DTD SVG 1.1//EN"
 "http://www.w3.org/Graphics/SVG/1.1/DTD/svg11.dtd">
<!-- Generated by graphviz version 2.38.0 (20140413.2041)
 -->
<!-- Title: Servo::detach Pages: 1 -->
<svg width="198pt" height="66pt"
 viewBox="0.00 0.00 198.00 66.00" xmlns="http://www.w3.org/2000/svg" xmlns:xlink="http://www.w3.org/1999/xlink">
<g id="graph0" class="graph" transform="scale(1 1) rotate(0) translate(4 62)">
<title>Servo::detach</title>
<polygon fill="white" stroke="none" points="-4,4 -4,-62 194,-62 194,4 -4,4"/>
<!-- Node11 -->
<g id="node1" class="node"><title>Node11</title>
<polygon fill="#bfbfbf" stroke="black" points="0,-19.5 0,-38.5 77,-38.5 77,-19.5 0,-19.5"/>
<text text-anchor="middle" x="38.5" y="-26.5" font-family="Helvetica,sans-Serif" font-size="10.00">Servo::detach</text>
</g>
<!-- Node12 -->
<g id="node2" class="node"><title>Node12</title>
<g id="a_node2"><a xlink:href="eBoard_8h.html#a8330e55eb97587e73745b6c31e6ab792" target="_top" xlink:title="finISR">
<polygon fill="white" stroke="black" points="129.5,-38.5 129.5,-57.5 173.5,-57.5 173.5,-38.5 129.5,-38.5"/>
<text text-anchor="middle" x="151.5" y="-45.5" font-family="Helvetica,sans-Serif" font-size="10.00">finISR</text>
</a>
</g>
</g>
<!-- Node11&#45;&gt;Node12 -->
<g id="edge1" class="edge"><title>Node11&#45;&gt;Node12</title>
<path fill="none" stroke="midnightblue" d="M77.0795,-35.4325C90.876,-37.7941 106.328,-40.439 119.484,-42.6909"/>
<polygon fill="midnightblue" stroke="midnightblue" points="119.02,-46.1623 129.467,-44.3997 120.201,-39.2626 119.02,-46.1623"/>
</g>
<!-- Node13 -->
<g id="node3" class="node"><title>Node13</title>
<g id="a_node3"><a xlink:href="eBoard_8h.html#a9f4c515f70ed80cf205584acdd289535" target="_top" xlink:title="isTimerActive">
<polygon fill="white" stroke="black" points="113,-0.5 113,-19.5 190,-19.5 190,-0.5 113,-0.5"/>
<text text-anchor="middle" x="151.5" y="-7.5" font-family="Helvetica,sans-Serif" font-size="10.00">isTimerActive</text>
</a>
</g>
</g>
<!-- Node11&#45;&gt;Node13 -->
<g id="edge2" class="edge"><title>Node11&#45;&gt;Node13</title>
<path fill="none" stroke="midnightblue" d="M77.0795,-22.5675C85.3973,-21.1437 94.3167,-19.617 102.972,-18.1354"/>
<polygon fill="midnightblue" stroke="midnightblue" points="103.693,-21.563 112.959,-16.4259 102.512,-14.6633 103.693,-21.563"/>
</g>
</g>
</svg>
