<?xml version="1.0" encoding="UTF-8" standalone="no"?>
<!DOCTYPE svg PUBLIC "-//W3C//DTD SVG 1.1//EN"
 "http://www.w3.org/Graphics/SVG/1.1/DTD/svg11.dtd">
<!-- Generated by graphviz version 2.38.0 (20140413.2041)
 -->
<!-- Title: eagle_impl::TwoWire::read Pages: 1 -->
<svg width="260pt" height="78pt"
 viewBox="0.00 0.00 260.00 77.50" xmlns="http://www.w3.org/2000/svg" xmlns:xlink="http://www.w3.org/1999/xlink">
<g id="graph0" class="graph" transform="scale(1 1) rotate(0) translate(4 73.5)">
<title>eagle_impl::TwoWire::read</title>
<polygon fill="white" stroke="none" points="-4,4 -4,-73.5 256,-73.5 256,4 -4,4"/>
<!-- Node112 -->
<g id="node1" class="node"><title>Node112</title>
<polygon fill="#bfbfbf" stroke="black" points="0,-22.5 0,-52.5 108,-52.5 108,-22.5 0,-22.5"/>
<text text-anchor="start" x="8" y="-40.5" font-family="Helvetica,sans-Serif" font-size="10.00">eagle_impl::TwoWire</text>
<text text-anchor="middle" x="54" y="-29.5" font-family="Helvetica,sans-Serif" font-size="10.00">::read</text>
</g>
<!-- Node113 -->
<g id="node2" class="node"><title>Node113</title>
<g id="a_node2"><a xlink:href="eBoard__comment_8h.html#a9410e48b56af483fa869e4b9375f094c" target="_top" xlink:title="Reads a special amount of bits from a certain I²C&#45;Device. ">
<polygon fill="white" stroke="black" points="172.5,-50 172.5,-69 223.5,-69 223.5,-50 172.5,-50"/>
<text text-anchor="middle" x="198" y="-57" font-family="Helvetica,sans-Serif" font-size="10.00">readI2C</text>
</a>
</g>
</g>
<!-- Node112&#45;&gt;Node113 -->
<g id="edge1" class="edge"><title>Node112&#45;&gt;Node113</title>
<path fill="none" stroke="midnightblue" d="M118.223,-47.2951C137.429,-50.2706 157.403,-53.3652 172.433,-55.6938"/>
<polygon fill="midnightblue" stroke="midnightblue" points="118.698,-43.827 108.28,-45.7546 117.626,-50.7444 118.698,-43.827"/>
</g>
<!-- Node114 -->
<g id="node3" class="node"><title>Node114</title>
<g id="a_node3"><a xlink:href="classeagle__impl_1_1TwoWire.html#a034ada986ff24585bf741d31d320470c" target="_top" xlink:title="this will read a specific &#160;quantity &#160;of bytes from a specific &#160;address &#160;">
<polygon fill="white" stroke="black" points="144,-0.5 144,-30.5 252,-30.5 252,-0.5 144,-0.5"/>
<text text-anchor="start" x="152" y="-18.5" font-family="Helvetica,sans-Serif" font-size="10.00">eagle_impl::TwoWire</text>
<text text-anchor="middle" x="198" y="-7.5" font-family="Helvetica,sans-Serif" font-size="10.00">::requestFrom</text>
</a>
</g>
</g>
<!-- Node112&#45;&gt;Node114 -->
<g id="edge2" class="edge"><title>Node112&#45;&gt;Node114</title>
<path fill="none" stroke="midnightblue" d="M118.238,-27.7026C126.806,-26.3751 135.528,-25.0239 143.894,-23.7277"/>
<polygon fill="midnightblue" stroke="midnightblue" points="117.626,-24.2556 108.28,-29.2454 118.698,-31.173 117.626,-24.2556"/>
</g>
</g>
</svg>
