<?xml version="1.0" encoding="UTF-8" standalone="no"?>
<!DOCTYPE svg PUBLIC "-//W3C//DTD SVG 1.1//EN"
 "http://www.w3.org/Graphics/SVG/1.1/DTD/svg11.dtd">
<!-- Generated by graphviz version 2.38.0 (20140413.2041)
 -->
<!-- Title: eagle_impl::SoftwareSerial::isListening Pages: 1 -->
<!--zoomable 186 -->
<svg id="main" version="1.1" xmlns="http://www.w3.org/2000/svg" xmlns:xlink="http://www.w3.org/1999/xlink" xml:space="preserve" onload="init(evt)">
<style type="text/css"><![CDATA[
.edge:hover path { stroke: red; }
.edge:hover polygon { stroke: red; fill: red; }
]]></style>
<script type="text/javascript"><![CDATA[
var edges = document.getElementsByTagName('g');
if (edges && edges.length) {
  for (var i=0;i<edges.length;i++) {
    if (edges[i].id.substr(0,4)=='edge') {
      edges[i].setAttribute('class','edge');
    }
  }
}
]]></script>
        <defs>
                <circle id="rim" cx="0" cy="0" r="7"/>
                <circle id="rim2" cx="0" cy="0" r="3.5"/>
                <g id="zoomPlus">
                        <use xlink:href="#rim" fill="#404040">
                                <set attributeName="fill" to="#808080" begin="zoomplus.mouseover" end="zoomplus.mouseout"/>
                        </use>
                        <path d="M-4,0h8M0,-4v8" fill="none" stroke="white" stroke-width="1.5" pointer-events="none"/>
                </g>
                <g id="zoomMin">
                        <use xlink:href="#rim" fill="#404040">
                                <set attributeName="fill" to="#808080" begin="zoomminus.mouseover" end="zoomminus.mouseout"/>
                        </use>
                        <path d="M-4,0h8" fill="none" stroke="white" stroke-width="1.5" pointer-events="none"/>
                </g>
                <g id="dirArrow">
                        <path fill="none" stroke="white" stroke-width="1.5" d="M0,-3.0v7 M-2.5,-0.5L0,-3.0L2.5,-0.5"/>
                </g>
               <g id="resetDef">
                       <use xlink:href="#rim2" fill="#404040">
                               <set attributeName="fill" to="#808080" begin="reset.mouseover" end="reset.mouseout"/>
                       </use>
               </g>
        </defs>

<script type="text/javascript">
var viewWidth = 536;
var viewHeight = 186;
var sectionId = 'dynsection-10';
</script>
<script xlink:href="svgpan.js"/>
<svg id="graph" class="graph">
<g id="viewport">
<title>eagle_impl::SoftwareSerial::isListening</title>
<polygon fill="white" stroke="none" points="-4,4 -4,-182 532,-182 532,4 -4,4"/>
<!-- Node44 -->
<g id="node1" class="node"><title>Node44</title>
<polygon fill="#bfbfbf" stroke="black" points="0,-73.5 0,-103.5 133,-103.5 133,-73.5 0,-73.5"/>
<text text-anchor="start" x="8" y="-91.5" font-family="Helvetica,sans-Serif" font-size="10.00">eagle_impl::SoftwareSerial</text>
<text text-anchor="middle" x="66.5" y="-80.5" font-family="Helvetica,sans-Serif" font-size="10.00">::isListening</text>
</g>
<!-- Node45 -->
<g id="node2" class="node"><title>Node45</title>
<g id="a_node2"><a xlink:href="classeagle__impl_1_1SoftwareSerial.html#a6a0c4bbe1cf6866ec54b98c6efdc4deb" target="_top" xlink:title="eagle_impl::SoftwareSerial\l::available">
<polygon fill="white" stroke="black" points="169,-147.5 169,-177.5 302,-177.5 302,-147.5 169,-147.5"/>
<text text-anchor="start" x="177" y="-165.5" font-family="Helvetica,sans-Serif" font-size="10.00">eagle_impl::SoftwareSerial</text>
<text text-anchor="middle" x="235.5" y="-154.5" font-family="Helvetica,sans-Serif" font-size="10.00">::available</text>
</a>
</g>
</g>
<!-- Node44&#45;&gt;Node45 -->
<g id="edge1" class="edge"><title>Node44&#45;&gt;Node45</title>
<path fill="none" stroke="midnightblue" d="M104.914,-108.119C123.889,-117.763 147.428,-129.266 169,-138.5 176.126,-141.55 183.782,-144.575 191.259,-147.397"/>
<polygon fill="midnightblue" stroke="midnightblue" points="106.491,-104.994 95.9948,-103.552 103.301,-111.225 106.491,-104.994"/>
</g>
<!-- Node48 -->
<g id="node5" class="node"><title>Node48</title>
<g id="a_node5"><a xlink:href="classeagle__impl_1_1SoftwareSerial.html#a95364d98124ae983de49dbccb9d5e920" target="_top" xlink:title="eagle_impl::SoftwareSerial\l::flush">
<polygon fill="white" stroke="black" points="169,-98.5 169,-128.5 302,-128.5 302,-98.5 169,-98.5"/>
<text text-anchor="start" x="177" y="-116.5" font-family="Helvetica,sans-Serif" font-size="10.00">eagle_impl::SoftwareSerial</text>
<text text-anchor="middle" x="235.5" y="-105.5" font-family="Helvetica,sans-Serif" font-size="10.00">::flush</text>
</a>
</g>
</g>
<!-- Node44&#45;&gt;Node48 -->
<g id="edge4" class="edge"><title>Node44&#45;&gt;Node48</title>
<path fill="none" stroke="midnightblue" d="M143.066,-99.8123C151.685,-101.103 160.417,-102.41 168.891,-103.678"/>
<polygon fill="midnightblue" stroke="midnightblue" points="143.432,-96.3281 133.024,-98.3089 142.395,-103.251 143.432,-96.3281"/>
</g>
<!-- Node49 -->
<g id="node6" class="node"><title>Node49</title>
<g id="a_node6"><a xlink:href="classeagle__impl_1_1SoftwareSerial.html#a330f9da007584d91908da3b4f394f50e" target="_top" xlink:title="eagle_impl::SoftwareSerial\l::peek">
<polygon fill="white" stroke="black" points="169,-49.5 169,-79.5 302,-79.5 302,-49.5 169,-49.5"/>
<text text-anchor="start" x="177" y="-67.5" font-family="Helvetica,sans-Serif" font-size="10.00">eagle_impl::SoftwareSerial</text>
<text text-anchor="middle" x="235.5" y="-56.5" font-family="Helvetica,sans-Serif" font-size="10.00">::peek</text>
</a>
</g>
</g>
<!-- Node44&#45;&gt;Node49 -->
<g id="edge5" class="edge"><title>Node44&#45;&gt;Node49</title>
<path fill="none" stroke="midnightblue" d="M143.066,-77.6402C151.685,-76.4016 160.417,-75.1466 168.891,-73.9288"/>
<polygon fill="midnightblue" stroke="midnightblue" points="142.424,-74.1964 133.024,-79.0834 143.42,-81.1253 142.424,-74.1964"/>
</g>
<!-- Node50 -->
<g id="node7" class="node"><title>Node50</title>
<g id="a_node7"><a xlink:href="classeagle__impl_1_1SoftwareSerial.html#ac80b242424a292382f2ac3ea9d84ba43" target="_top" xlink:title="eagle_impl::SoftwareSerial\l::read">
<polygon fill="white" stroke="black" points="169,-0.5 169,-30.5 302,-30.5 302,-0.5 169,-0.5"/>
<text text-anchor="start" x="177" y="-18.5" font-family="Helvetica,sans-Serif" font-size="10.00">eagle_impl::SoftwareSerial</text>
<text text-anchor="middle" x="235.5" y="-7.5" font-family="Helvetica,sans-Serif" font-size="10.00">::read</text>
</a>
</g>
</g>
<!-- Node44&#45;&gt;Node50 -->
<g id="edge6" class="edge"><title>Node44&#45;&gt;Node50</title>
<path fill="none" stroke="midnightblue" d="M106.953,-68.9748C125.613,-59.9643 148.293,-49.3323 169,-40.5 176.837,-37.1572 185.285,-33.7733 193.425,-30.6207"/>
<polygon fill="midnightblue" stroke="midnightblue" points="105.335,-65.8696 97.8685,-73.3864 108.393,-72.1663 105.335,-65.8696"/>
</g>
<!-- Node46 -->
<g id="node3" class="node"><title>Node46</title>
<g id="a_node3"><a xlink:href="eBoard__comment_8h.html#a013ff57a97587f0064777a3a28f9a2dd" target="_top" xlink:title="[BLUETOOTH] reads a single value from bluetooth if available! ">
<polygon fill="white" stroke="black" points="338,-79 338,-98 388,-98 388,-79 338,-79"/>
<text text-anchor="middle" x="363" y="-86" font-family="Helvetica,sans-Serif" font-size="10.00">readVal</text>
</a>
</g>
</g>
<!-- Node45&#45;&gt;Node46 -->
<g id="edge2" class="edge"><title>Node45&#45;&gt;Node46</title>
<path fill="none" stroke="midnightblue" d="M293.167,-143.165C296.203,-141.689 299.167,-140.133 302,-138.5 321.735,-127.122 341.408,-109.145 352.601,-98.1294"/>
<polygon fill="midnightblue" stroke="midnightblue" points="291.573,-140.045 283.904,-147.354 294.457,-146.423 291.573,-140.045"/>
</g>
<!-- Node47 -->
<g id="node4" class="node"><title>Node47</title>
<g id="a_node4"><a xlink:href="structRB14Scan.html#a35ff55470a07767513fb0c619ed78258" target="_top" xlink:title="RB14Scan::channel">
<polygon fill="white" stroke="black" points="424,-79 424,-98 528,-98 528,-79 424,-79"/>
<text text-anchor="middle" x="476" y="-86" font-family="Helvetica,sans-Serif" font-size="10.00">RB14Scan::channel</text>
</a>
</g>
</g>
<!-- Node46&#45;&gt;Node47 -->
<g id="edge3" class="edge"><title>Node46&#45;&gt;Node47</title>
<path fill="none" stroke="midnightblue" d="M398.191,-88.5C406.241,-88.5 414.996,-88.5 423.617,-88.5"/>
<polygon fill="midnightblue" stroke="midnightblue" points="398.085,-85.0001 388.085,-88.5 398.085,-92.0001 398.085,-85.0001"/>
</g>
<!-- Node50&#45;&gt;Node46 -->
<g id="edge7" class="edge"><title>Node50&#45;&gt;Node46</title>
<path fill="none" stroke="midnightblue" d="M290.63,-34.6072C294.545,-36.4588 298.375,-38.426 302,-40.5 321.221,-51.4968 340.743,-68.4147 352.094,-78.951"/>
<polygon fill="midnightblue" stroke="midnightblue" points="291.957,-31.3669 281.398,-30.5001 289.112,-37.7626 291.957,-31.3669"/>
</g>
</g>
</svg>
        <g id="navigator" transform="translate(0 0)" fill="#404254">
                <rect fill="#f2f5e9" fill-opacity="0.5" stroke="#606060" stroke-width=".5" x="0" y="0" width="60" height="60"/>
                <use id="zoomplus" xlink:href="#zoomPlus" x="17" y="9" onmousedown="handleZoom(evt,'in')"/>
                <use id="zoomminus" xlink:href="#zoomMin" x="42" y="9" onmousedown="handleZoom(evt,'out')"/>
                <use id="reset" xlink:href="#resetDef" x="30" y="36" onmousedown="handleReset()"/>
                <g id="arrowUp" xlink:href="#dirArrow" transform="translate(30 24)" onmousedown="handlePan(0,-1)">
                  <use xlink:href="#rim" fill="#404040">
                        <set attributeName="fill" to="#808080" begin="arrowUp.mouseover" end="arrowUp.mouseout"/>
                  </use>
                  <path fill="none" stroke="white" stroke-width="1.5" d="M0,-3.0v7 M-2.5,-0.5L0,-3.0L2.5,-0.5"/>
                </g>
                <g id="arrowRight" xlink:href="#dirArrow" transform="rotate(90) translate(36 -43)" onmousedown="handlePan(1,0)">
                  <use xlink:href="#rim" fill="#404040">
                        <set attributeName="fill" to="#808080" begin="arrowRight.mouseover" end="arrowRight.mouseout"/>
                  </use>
                  <path fill="none" stroke="white" stroke-width="1.5" d="M0,-3.0v7 M-2.5,-0.5L0,-3.0L2.5,-0.5"/>
                </g>
                <g id="arrowDown" xlink:href="#dirArrow" transform="rotate(180) translate(-30 -48)" onmousedown="handlePan(0,1)">
                  <use xlink:href="#rim" fill="#404040">
                        <set attributeName="fill" to="#808080" begin="arrowDown.mouseover" end="arrowDown.mouseout"/>
                  </use>
                  <path fill="none" stroke="white" stroke-width="1.5" d="M0,-3.0v7 M-2.5,-0.5L0,-3.0L2.5,-0.5"/>
                </g>
                <g id="arrowLeft" xlink:href="#dirArrow" transform="rotate(270) translate(-36 17)" onmousedown="handlePan(-1,0)">
                  <use xlink:href="#rim" fill="#404040">
                        <set attributeName="fill" to="#808080" begin="arrowLeft.mouseover" end="arrowLeft.mouseout"/>
                  </use>
                  <path fill="none" stroke="white" stroke-width="1.5" d="M0,-3.0v7 M-2.5,-0.5L0,-3.0L2.5,-0.5"/>
                </g>
        </g>
        <svg viewBox="0 0 15 15" width="100%" height="30px" preserveAspectRatio="xMaxYMin meet">
         <g id="arrow_out" transform="scale(0.3 0.3)">
          <a xlink:href="classeagle__impl_1_1SoftwareSerial_a024231154a7cdf059ae7adae882297c5_icgraph_org.svg" target="_base">
           <rect id="button" ry="5" rx="5" y="6" x="6" height="38" width="38"
                fill="#f2f5e9" fill-opacity="0.5" stroke="#606060" stroke-width="1.0"/>
           <path id="arrow"
             d="M 11.500037,31.436501 C 11.940474,20.09759 22.043105,11.32322 32.158766,21.979434 L 37.068811,17.246167 C 37.068811,17.246167 37.088388,32 37.088388,32 L 22.160133,31.978069 C 22.160133,31.978069 26.997745,27.140456 26.997745,27.140456 C 18.528582,18.264221 13.291696,25.230495 11.500037,31.436501 z"
             style="fill:#404040;"/>
          </a>
         </g>
        </svg>
</svg>
