<?xml version="1.0" encoding="UTF-8" standalone="no"?>
<!DOCTYPE svg PUBLIC "-//W3C//DTD SVG 1.1//EN"
 "http://www.w3.org/Graphics/SVG/1.1/DTD/svg11.dtd">
<!-- Generated by graphviz version 2.38.0 (20140413.2041)
 -->
<!-- Title: eagle_impl::TwoWire::beginTransmission Pages: 1 -->
<svg width="1020pt" height="558pt"
 viewBox="0.00 0.00 1020.00 558.21" xmlns="http://www.w3.org/2000/svg" xmlns:xlink="http://www.w3.org/1999/xlink">
<g id="graph0" class="graph" transform="scale(1 1) rotate(0) translate(4 554.212)">
<title>eagle_impl::TwoWire::beginTransmission</title>
<polygon fill="white" stroke="none" points="-4,4 -4,-554.212 1016,-554.212 1016,4 -4,4"/>
<!-- Node31 -->
<g id="node1" class="node"><title>Node31</title>
<polygon fill="#bfbfbf" stroke="black" points="0,-220.712 0,-250.712 108,-250.712 108,-220.712 0,-220.712"/>
<text text-anchor="start" x="8" y="-238.712" font-family="Helvetica,sans-Serif" font-size="10.00">eagle_impl::TwoWire</text>
<text text-anchor="middle" x="54" y="-227.712" font-family="Helvetica,sans-Serif" font-size="10.00">::beginTransmission</text>
</g>
<!-- Node32 -->
<g id="node2" class="node"><title>Node32</title>
<g id="a_node2"><a xlink:href="classeagle__impl_1_1TwoWire.html#a4435b647886cbd3edb91a5353809c339" target="_top" xlink:title="this will start a new transmission to a specific address =&gt; master mode ">
<polygon fill="white" stroke="black" points="150.5,-519.712 150.5,-549.712 258.5,-549.712 258.5,-519.712 150.5,-519.712"/>
<text text-anchor="start" x="158.5" y="-537.712" font-family="Helvetica,sans-Serif" font-size="10.00">eagle_impl::TwoWire</text>
<text text-anchor="middle" x="204.5" y="-526.712" font-family="Helvetica,sans-Serif" font-size="10.00">::beginTransmission</text>
</a>
</g>
</g>
<!-- Node31&#45;&gt;Node32 -->
<g id="edge1" class="edge"><title>Node31&#45;&gt;Node32</title>
<path fill="none" stroke="midnightblue" d="M56.9894,-260.996C62.2929,-312.67 80.9973,-431.658 144,-504.712 149.138,-510.669 155.744,-515.578 162.676,-519.576"/>
<polygon fill="midnightblue" stroke="midnightblue" points="60.4472,-260.381 56.0262,-250.753 53.4779,-261.037 60.4472,-260.381"/>
</g>
<!-- Node33 -->
<g id="node3" class="node"><title>Node33</title>
<g id="a_node3"><a xlink:href="structLCD.html#a75cacb94de3b3ff71e9a4497b5cc4a81" target="_top" xlink:title="LCD::changeBrightness">
<polygon fill="white" stroke="black" points="144,-245.212 144,-264.212 265,-264.212 265,-245.212 144,-245.212"/>
<text text-anchor="middle" x="204.5" y="-252.212" font-family="Helvetica,sans-Serif" font-size="10.00">LCD::changeBrightness</text>
</a>
</g>
</g>
<!-- Node31&#45;&gt;Node33 -->
<g id="edge2" class="edge"><title>Node31&#45;&gt;Node33</title>
<path fill="none" stroke="midnightblue" d="M118.38,-243.821C126.835,-244.903 135.483,-246.009 143.871,-247.083"/>
<polygon fill="midnightblue" stroke="midnightblue" points="118.556,-240.315 108.192,-242.518 117.667,-247.259 118.556,-240.315"/>
</g>
<!-- Node44 -->
<g id="node14" class="node"><title>Node44</title>
<g id="a_node14"><a xlink:href="structLCD.html#a739998fad0591a092255676c8c8d532f" target="_top" xlink:title="LCD::s1Cmd">
<polygon fill="white" stroke="black" points="416.5,-85.212 416.5,-104.212 490.5,-104.212 490.5,-85.212 416.5,-85.212"/>
<text text-anchor="middle" x="453.5" y="-92.212" font-family="Helvetica,sans-Serif" font-size="10.00">LCD::s1Cmd</text>
</a>
</g>
</g>
<!-- Node31&#45;&gt;Node44 -->
<g id="edge38" class="edge"><title>Node31&#45;&gt;Node44</title>
<path fill="none" stroke="midnightblue" d="M118.193,-221.294C160.299,-211.023 216.585,-196.008 265,-178.712 281.753,-172.727 386.264,-125.057 431.58,-104.306"/>
<polygon fill="midnightblue" stroke="midnightblue" points="117.249,-217.922 108.351,-223.672 118.893,-224.726 117.249,-217.922"/>
</g>
<!-- Node47 -->
<g id="node17" class="node"><title>Node47</title>
<g id="a_node17"><a xlink:href="structLCD.html#ae5873763db265cd00da32664cce88873" target="_top" xlink:title="LCD::s1Dat">
<polygon fill="white" stroke="black" points="702.5,-349.212 702.5,-368.212 771.5,-368.212 771.5,-349.212 702.5,-349.212"/>
<text text-anchor="middle" x="737" y="-356.212" font-family="Helvetica,sans-Serif" font-size="10.00">LCD::s1Dat</text>
</a>
</g>
</g>
<!-- Node31&#45;&gt;Node47 -->
<g id="edge39" class="edge"><title>Node31&#45;&gt;Node47</title>
<path fill="none" stroke="midnightblue" d="M66.8512,-259.835C99.9734,-323.414 200.132,-490.712 337,-490.712 337,-490.712 337,-490.712 454.5,-490.712 569.743,-490.712 688.556,-398.902 724.829,-368.418"/>
<polygon fill="midnightblue" stroke="midnightblue" points="69.9522,-258.211 62.2843,-250.9 63.7192,-261.397 69.9522,-258.211"/>
</g>
<!-- Node50 -->
<g id="node20" class="node"><title>Node50</title>
<g id="a_node20"><a xlink:href="eBoard__comment_8h.html#a1441d9460afebb6bfe9b7b21fcc08641" target="_top" xlink:title="Sends a byte to a certain I²C&#45;Device. ">
<polygon fill="white" stroke="black" points="179.5,-150.212 179.5,-169.212 229.5,-169.212 229.5,-150.212 179.5,-150.212"/>
<text text-anchor="middle" x="204.5" y="-157.212" font-family="Helvetica,sans-Serif" font-size="10.00">pingI2C</text>
</a>
</g>
</g>
<!-- Node31&#45;&gt;Node50 -->
<g id="edge37" class="edge"><title>Node31&#45;&gt;Node50</title>
<path fill="none" stroke="midnightblue" d="M87.4208,-215.238C104.025,-205.15 124.751,-193.155 144,-183.712 155.4,-178.119 168.446,-172.748 179.411,-168.511"/>
<polygon fill="midnightblue" stroke="midnightblue" points="85.3472,-212.404 78.6561,-220.619 89.0095,-218.37 85.3472,-212.404"/>
</g>
<!-- Node51 -->
<g id="node21" class="node"><title>Node51</title>
<g id="a_node21"><a xlink:href="eBoard__comment_8h.html#aa63f515ecc1c17545b9692c7d5f2fac6" target="_top" xlink:title="Sends a buffer of bytes to a certain I²C&#45;Device. ">
<polygon fill="white" stroke="black" points="178,-112.212 178,-131.212 231,-131.212 231,-112.212 178,-112.212"/>
<text text-anchor="middle" x="204.5" y="-119.212" font-family="Helvetica,sans-Serif" font-size="10.00">sendI2C</text>
</a>
</g>
</g>
<!-- Node31&#45;&gt;Node51 -->
<g id="edge40" class="edge"><title>Node31&#45;&gt;Node51</title>
<path fill="none" stroke="midnightblue" d="M71.3497,-212.354C87.5148,-190.881 114.11,-159.599 144,-140.712 154.267,-134.224 166.939,-129.777 177.947,-126.826"/>
<polygon fill="midnightblue" stroke="midnightblue" points="68.3817,-210.482 65.2807,-220.613 74.0226,-214.627 68.3817,-210.482"/>
</g>
<!-- Node34 -->
<g id="node4" class="node"><title>Node34</title>
<g id="a_node4"><a xlink:href="structLCD.html#a632d9c641930fe16c0b623b82136196e" target="_top" xlink:title="LCD::init">
<polygon fill="white" stroke="black" points="310,-226.212 310,-245.212 366,-245.212 366,-226.212 310,-226.212"/>
<text text-anchor="middle" x="338" y="-233.212" font-family="Helvetica,sans-Serif" font-size="10.00">LCD::init</text>
</a>
</g>
</g>
<!-- Node33&#45;&gt;Node34 -->
<g id="edge3" class="edge"><title>Node33&#45;&gt;Node34</title>
<path fill="none" stroke="midnightblue" d="M242.77,-243.175C264.106,-239.138 290.401,-235.526 309.788,-234.053"/>
<polygon fill="midnightblue" stroke="midnightblue" points="241.865,-239.786 232.747,-245.182 243.24,-246.65 241.865,-239.786"/>
</g>
<!-- Node48 -->
<g id="node18" class="node"><title>Node48</title>
<g id="a_node18"><a xlink:href="structLCD.html#a3f437907a543226be7c527a2d304ad95" target="_top" xlink:title="LCD::lightOff">
<polygon fill="white" stroke="black" points="301,-264.212 301,-283.212 375,-283.212 375,-264.212 301,-264.212"/>
<text text-anchor="middle" x="338" y="-271.212" font-family="Helvetica,sans-Serif" font-size="10.00">LCD::lightOff</text>
</a>
</g>
</g>
<!-- Node33&#45;&gt;Node48 -->
<g id="edge35" class="edge"><title>Node33&#45;&gt;Node48</title>
<path fill="none" stroke="midnightblue" d="M275.157,-264.777C284.065,-266.064 292.878,-267.337 300.937,-268.501"/>
<polygon fill="midnightblue" stroke="midnightblue" points="275.492,-261.289 265.094,-263.323 274.491,-268.217 275.492,-261.289"/>
</g>
<!-- Node49 -->
<g id="node19" class="node"><title>Node49</title>
<g id="a_node19"><a xlink:href="structLCD.html#aa4c1e7d41ca93af28769aaba704d5c1f" target="_top" xlink:title="LCD::lightOn">
<polygon fill="white" stroke="black" points="301,-425.212 301,-444.212 375,-444.212 375,-425.212 301,-425.212"/>
<text text-anchor="middle" x="338" y="-432.212" font-family="Helvetica,sans-Serif" font-size="10.00">LCD::lightOn</text>
</a>
</g>
</g>
<!-- Node33&#45;&gt;Node49 -->
<g id="edge36" class="edge"><title>Node33&#45;&gt;Node49</title>
<path fill="none" stroke="midnightblue" d="M213.836,-273.789C228.2,-305.099 260.055,-368.152 301,-410.712 306.312,-416.233 313.106,-421.165 319.358,-425.1"/>
<polygon fill="midnightblue" stroke="midnightblue" points="216.938,-272.152 209.648,-264.464 210.552,-275.02 216.938,-272.152"/>
</g>
<!-- Node34&#45;&gt;Node33 -->
<g id="edge7" class="edge"><title>Node34&#45;&gt;Node33</title>
<path fill="none" stroke="midnightblue" d="M299.878,-247.221C289.052,-249.273 276.938,-251.216 265.094,-252.825"/>
<polygon fill="midnightblue" stroke="midnightblue" points="300.696,-250.627 309.813,-245.229 299.32,-243.764 300.696,-250.627"/>
</g>
<!-- Node35 -->
<g id="node5" class="node"><title>Node35</title>
<g id="a_node5"><a xlink:href="structLCD.html#aa01b7522d1e210f9cd071e3a5d4ae9e6" target="_top" xlink:title="LCD::changeBackground">
<polygon fill="white" stroke="black" points="532,-3.21204 532,-22.212 658,-22.212 658,-3.21204 532,-3.21204"/>
<text text-anchor="middle" x="595" y="-10.212" font-family="Helvetica,sans-Serif" font-size="10.00">LCD::changeBackground</text>
</a>
</g>
</g>
<!-- Node34&#45;&gt;Node35 -->
<g id="edge4" class="edge"><title>Node34&#45;&gt;Node35</title>
<path fill="none" stroke="midnightblue" d="M339.755,-215.954C342.463,-174.491 354.824,-79.8983 411,-33.712 455.142,2.58012 526.048,2.96768 565.383,-3.20711"/>
<polygon fill="midnightblue" stroke="midnightblue" points="336.26,-215.77 339.227,-225.941 343.25,-216.139 336.26,-215.77"/>
</g>
<!-- Node37 -->
<g id="node7" class="node"><title>Node37</title>
<g id="a_node7"><a xlink:href="structLCD.html#aa5e25fef7649532af402df06f05b6d4c" target="_top" xlink:title="LCD::changeID">
<polygon fill="white" stroke="black" points="411,-123.212 411,-142.212 496,-142.212 496,-123.212 411,-123.212"/>
<text text-anchor="middle" x="453.5" y="-130.212" font-family="Helvetica,sans-Serif" font-size="10.00">LCD::changeID</text>
</a>
</g>
</g>
<!-- Node34&#45;&gt;Node37 -->
<g id="edge8" class="edge"><title>Node34&#45;&gt;Node37</title>
<path fill="none" stroke="midnightblue" d="M364.905,-220.315C368.483,-217.666 371.965,-214.772 375,-211.712 395.571,-190.967 389.779,-176.792 411,-156.712 417.045,-150.992 424.7,-146.078 431.785,-142.214"/>
<polygon fill="midnightblue" stroke="midnightblue" points="362.841,-217.486 356.552,-226.012 366.786,-223.269 362.841,-217.486"/>
</g>
<!-- Node38 -->
<g id="node8" class="node"><title>Node38</title>
<g id="a_node8"><a xlink:href="structLCD.html#ad31ee94d401b7c28d6cc2f472e2eb8fd" target="_top" xlink:title="LCD::changeMode">
<polygon fill="white" stroke="black" points="546,-170.212 546,-189.212 644,-189.212 644,-170.212 546,-170.212"/>
<text text-anchor="middle" x="595" y="-177.212" font-family="Helvetica,sans-Serif" font-size="10.00">LCD::changeMode</text>
</a>
</g>
</g>
<!-- Node34&#45;&gt;Node38 -->
<g id="edge9" class="edge"><title>Node34&#45;&gt;Node38</title>
<path fill="none" stroke="midnightblue" d="M373.196,-223.424C417.627,-211.272 495.461,-193.966 545.849,-184.868"/>
<polygon fill="midnightblue" stroke="midnightblue" points="372.13,-220.088 363.45,-226.164 374.025,-226.827 372.13,-220.088"/>
</g>
<!-- Node39 -->
<g id="node9" class="node"><title>Node39</title>
<g id="a_node9"><a xlink:href="structLCD.html#ad3120f397273bac2ad60e0291554b9e6" target="_top" xlink:title="LCD::clear">
<polygon fill="white" stroke="black" points="831.5,-391.212 831.5,-410.212 895.5,-410.212 895.5,-391.212 831.5,-391.212"/>
<text text-anchor="middle" x="863.5" y="-398.212" font-family="Helvetica,sans-Serif" font-size="10.00">LCD::clear</text>
</a>
</g>
</g>
<!-- Node34&#45;&gt;Node39 -->
<g id="edge11" class="edge"><title>Node34&#45;&gt;Node39</title>
<path fill="none" stroke="midnightblue" d="M374.053,-244.635C374.377,-244.988 374.693,-245.347 375,-245.712 408.387,-285.399 372.232,-322.262 411,-356.712 532.066,-464.293 750.647,-421.399 831.413,-405.229"/>
<polygon fill="midnightblue" stroke="midnightblue" points="376.205,-241.873 366.282,-238.162 371.725,-247.252 376.205,-241.873"/>
</g>
<!-- Node42 -->
<g id="node12" class="node"><title>Node42</title>
<g id="a_node12"><a xlink:href="structLCD.html#a0fd055c88888db0e52fea11f1df24d4a" target="_top" xlink:title="LCD::drawBitmap">
<polygon fill="white" stroke="black" points="816,-194.212 816,-213.212 911,-213.212 911,-194.212 816,-194.212"/>
<text text-anchor="middle" x="863.5" y="-201.212" font-family="Helvetica,sans-Serif" font-size="10.00">LCD::drawBitmap</text>
</a>
</g>
</g>
<!-- Node34&#45;&gt;Node42 -->
<g id="edge15" class="edge"><title>Node34&#45;&gt;Node42</title>
<path fill="none" stroke="midnightblue" d="M341.167,-215.778C346.213,-180.353 362.298,-107.202 411,-75.712 564.941,23.8242 797.056,-150.483 851.014,-194.157"/>
<polygon fill="midnightblue" stroke="midnightblue" points="337.675,-215.493 339.889,-225.854 344.619,-216.373 337.675,-215.493"/>
</g>
<!-- Node43 -->
<g id="node13" class="node"><title>Node43</title>
<g id="a_node13"><a xlink:href="structLCD.html#ab1b68d883d80dc7b8810e602b7032767" target="_top" xlink:title="LCD::print">
<polygon fill="white" stroke="black" points="832.5,-311.212 832.5,-330.212 894.5,-330.212 894.5,-311.212 832.5,-311.212"/>
<text text-anchor="middle" x="863.5" y="-318.212" font-family="Helvetica,sans-Serif" font-size="10.00">LCD::print</text>
</a>
</g>
</g>
<!-- Node34&#45;&gt;Node43 -->
<g id="edge17" class="edge"><title>Node34&#45;&gt;Node43</title>
<path fill="none" stroke="midnightblue" d="M366.693,-250.101C369.512,-251.634 372.322,-253.189 375,-254.712 391.3,-263.982 393.218,-270.763 411,-276.712 562.99,-327.561 758.643,-325.372 832.499,-322.335"/>
<polygon fill="midnightblue" stroke="midnightblue" points="368.275,-246.979 357.806,-245.352 364.976,-253.152 368.275,-246.979"/>
</g>
<!-- Node34&#45;&gt;Node44 -->
<g id="edge18" class="edge"><title>Node34&#45;&gt;Node44</title>
<path fill="none" stroke="midnightblue" d="M366.254,-220.357C369.482,-217.764 372.508,-214.874 375,-211.712 403.721,-175.267 379.482,-147.766 411,-113.712 414.552,-109.874 419.032,-106.752 423.723,-104.232"/>
<polygon fill="midnightblue" stroke="midnightblue" points="364.158,-217.552 358.005,-226.178 368.194,-223.272 364.158,-217.552"/>
</g>
<!-- Node45 -->
<g id="node15" class="node"><title>Node45</title>
<g id="a_node15"><a xlink:href="structLCD.html#ae7a8d9bc1581cfeeb0f098c8bb6d1229" target="_top" xlink:title="LCD::s2Cmd">
<polygon fill="white" stroke="black" points="558,-226.212 558,-245.212 632,-245.212 632,-226.212 558,-226.212"/>
<text text-anchor="middle" x="595" y="-233.212" font-family="Helvetica,sans-Serif" font-size="10.00">LCD::s2Cmd</text>
</a>
</g>
</g>
<!-- Node34&#45;&gt;Node45 -->
<g id="edge33" class="edge"><title>Node34&#45;&gt;Node45</title>
<path fill="none" stroke="midnightblue" d="M376.413,-230.767C425.168,-228.338 509.857,-228.361 557.938,-230.836"/>
<polygon fill="midnightblue" stroke="midnightblue" points="376.075,-227.281 366.289,-231.342 376.472,-234.269 376.075,-227.281"/>
</g>
<!-- Node46 -->
<g id="node16" class="node"><title>Node46</title>
<g id="a_node16"><a xlink:href="structLCD.html#ad1a67d455563026a5064ef9cab86ae4d" target="_top" xlink:title="LCD::setCursor">
<polygon fill="white" stroke="black" points="694,-249.212 694,-268.212 780,-268.212 780,-249.212 694,-249.212"/>
<text text-anchor="middle" x="737" y="-256.212" font-family="Helvetica,sans-Serif" font-size="10.00">LCD::setCursor</text>
</a>
</g>
</g>
<!-- Node34&#45;&gt;Node46 -->
<g id="edge34" class="edge"><title>Node34&#45;&gt;Node46</title>
<path fill="none" stroke="midnightblue" d="M372.18,-248.674C384.212,-252.74 398.034,-256.691 411,-258.712 511.491,-274.373 631.592,-267.98 693.869,-262.826"/>
<polygon fill="midnightblue" stroke="midnightblue" points="373.148,-245.304 362.553,-245.272 370.815,-251.904 373.148,-245.304"/>
</g>
<!-- Node34&#45;&gt;Node47 -->
<g id="edge29" class="edge"><title>Node34&#45;&gt;Node47</title>
<path fill="none" stroke="midnightblue" d="M371.124,-251.092C372.5,-252.231 373.803,-253.437 375,-254.712 401.691,-283.133 379.061,-312.35 411,-334.712 500.217,-397.178 639.026,-379.271 702.399,-366.545"/>
<polygon fill="midnightblue" stroke="midnightblue" points="372.89,-248.059 362.66,-245.3 368.936,-253.836 372.89,-248.059"/>
</g>
<!-- Node35&#45;&gt;Node34 -->
<g id="edge5" class="edge"><title>Node35&#45;&gt;Node34</title>
<path fill="none" stroke="midnightblue" d="M521.446,-16.259C484.665,-18.7218 441.461,-26.6685 411,-51.712 354.093,-98.4989 342.149,-194.96 339.654,-226.166"/>
<polygon fill="midnightblue" stroke="midnightblue" points="521.841,-19.7427 531.634,-15.7001 521.457,-12.7532 521.841,-19.7427"/>
</g>
<!-- Node36 -->
<g id="node6" class="node"><title>Node36</title>
<g id="a_node6"><a xlink:href="dancing__dragon_8cpp.html#a840291bc02cba5474a4cb46a9b9566fe" target="_top" xlink:title="main">
<polygon fill="white" stroke="black" points="960.5,-84.212 960.5,-103.212 998.5,-103.212 998.5,-84.212 960.5,-84.212"/>
<text text-anchor="middle" x="979.5" y="-91.212" font-family="Helvetica,sans-Serif" font-size="10.00">main</text>
</a>
</g>
</g>
<!-- Node35&#45;&gt;Node36 -->
<g id="edge6" class="edge"><title>Node35&#45;&gt;Node36</title>
<path fill="none" stroke="midnightblue" d="M668.33,-22.9679C702.351,-28.1842 743.397,-35.0421 780,-42.712 847.038,-56.7593 925.495,-78.5179 960.293,-88.4479"/>
<polygon fill="midnightblue" stroke="midnightblue" points="668.421,-19.4419 658.01,-21.4027 667.372,-26.3627 668.421,-19.4419"/>
</g>
<!-- Node38&#45;&gt;Node34 -->
<g id="edge10" class="edge"><title>Node38&#45;&gt;Node34</title>
<path fill="none" stroke="midnightblue" d="M559.612,-192.052C508.381,-206.051 413.048,-226.848 366.289,-234.089"/>
<polygon fill="midnightblue" stroke="midnightblue" points="560.862,-195.337 569.542,-189.262 558.968,-188.598 560.862,-195.337"/>
</g>
<!-- Node39&#45;&gt;Node34 -->
<g id="edge12" class="edge"><title>Node39&#45;&gt;Node34</title>
<path fill="none" stroke="midnightblue" d="M832.253,-413.584C752.174,-439.098 532.488,-482.668 411,-374.712 372.232,-340.262 408.387,-303.399 375,-263.712 367.903,-255.276 356.087,-250.066 347.939,-245.246"/>
<polygon fill="midnightblue" stroke="midnightblue" points="833.796,-416.758 842.173,-410.271 831.58,-410.119 833.796,-416.758"/>
</g>
<!-- Node40 -->
<g id="node10" class="node"><title>Node40</title>
<g id="a_node10"><a xlink:href="lcd__debug_8cpp.html#ae66f6b31b5ad750f1fe042a706a4e3d4" target="_top" xlink:title="main">
<polygon fill="white" stroke="black" points="960.5,-410.212 960.5,-429.212 998.5,-429.212 998.5,-410.212 960.5,-410.212"/>
<text text-anchor="middle" x="979.5" y="-417.212" font-family="Helvetica,sans-Serif" font-size="10.00">main</text>
</a>
</g>
</g>
<!-- Node39&#45;&gt;Node40 -->
<g id="edge13" class="edge"><title>Node39&#45;&gt;Node40</title>
<path fill="none" stroke="midnightblue" d="M905.72,-407.582C924.401,-410.696 945.537,-414.218 960.2,-416.662"/>
<polygon fill="midnightblue" stroke="midnightblue" points="906.09,-404.096 895.651,-405.904 904.94,-411 906.09,-404.096"/>
</g>
<!-- Node41 -->
<g id="node11" class="node"><title>Node41</title>
<g id="a_node11"><a xlink:href="structLCD.html#a7912ad9a12d649cdec2dd53ae893a8ce" target="_top" xlink:title="LCD::reset">
<polygon fill="white" stroke="black" points="947,-372.212 947,-391.212 1012,-391.212 1012,-372.212 947,-372.212"/>
<text text-anchor="middle" x="979.5" y="-379.212" font-family="Helvetica,sans-Serif" font-size="10.00">LCD::reset</text>
</a>
</g>
</g>
<!-- Node39&#45;&gt;Node41 -->
<g id="edge14" class="edge"><title>Node39&#45;&gt;Node41</title>
<path fill="none" stroke="midnightblue" d="M905.74,-393.839C919.339,-391.572 934.237,-389.089 946.991,-386.964"/>
<polygon fill="midnightblue" stroke="midnightblue" points="904.94,-390.424 895.651,-395.52 906.09,-397.329 904.94,-390.424"/>
</g>
<!-- Node42&#45;&gt;Node36 -->
<g id="edge16" class="edge"><title>Node42&#45;&gt;Node36</title>
<path fill="none" stroke="midnightblue" d="M882.063,-186.765C906.31,-163.369 949.233,-121.952 968.569,-103.295"/>
<polygon fill="midnightblue" stroke="midnightblue" points="879.383,-184.488 874.617,-193.95 884.243,-189.525 879.383,-184.488"/>
</g>
<!-- Node44&#45;&gt;Node35 -->
<g id="edge19" class="edge"><title>Node44&#45;&gt;Node35</title>
<path fill="none" stroke="midnightblue" d="M479.729,-79.8819C508.221,-63.1343 553.739,-36.3778 577.828,-22.218"/>
<polygon fill="midnightblue" stroke="midnightblue" points="477.623,-77.0602 470.775,-85.1451 481.17,-83.0949 477.623,-77.0602"/>
</g>
<!-- Node44&#45;&gt;Node38 -->
<g id="edge20" class="edge"><title>Node44&#45;&gt;Node38</title>
<path fill="none" stroke="midnightblue" d="M486.411,-108.675C489.687,-110.3 492.935,-111.994 496,-113.712 527.848,-131.569 562.786,-156.502 581.12,-170.038"/>
<polygon fill="midnightblue" stroke="midnightblue" points="487.767,-105.444 477.233,-104.311 484.761,-111.766 487.767,-105.444"/>
</g>
<!-- Node44&#45;&gt;Node45 -->
<g id="edge21" class="edge"><title>Node44&#45;&gt;Node45</title>
<path fill="none" stroke="midnightblue" d="M491.566,-109.77C493.143,-110.993 494.633,-112.305 496,-113.712 524.59,-143.136 505.05,-167.779 532,-198.712 542.457,-210.715 557.798,-219.915 570.603,-226.139"/>
<polygon fill="midnightblue" stroke="midnightblue" points="493.435,-106.812 483.124,-104.376 489.666,-112.71 493.435,-106.812"/>
</g>
<!-- Node44&#45;&gt;Node46 -->
<g id="edge28" class="edge"><title>Node44&#45;&gt;Node46</title>
<path fill="none" stroke="midnightblue" d="M500.827,-101.799C544.46,-110.214 610.099,-127.511 658,-160.712 693.029,-184.991 720.142,-229.539 730.927,-249.087"/>
<polygon fill="midnightblue" stroke="midnightblue" points="501.247,-98.3171 490.778,-99.9423 499.976,-105.201 501.247,-98.3171"/>
</g>
<!-- Node45&#45;&gt;Node33 -->
<g id="edge22" class="edge"><title>Node45&#45;&gt;Node33</title>
<path fill="none" stroke="midnightblue" d="M563.523,-249.395C510.283,-271.562 396.867,-311.085 301,-292.712 272.784,-287.305 242.286,-273.669 223.537,-264.293"/>
<polygon fill="midnightblue" stroke="midnightblue" points="565.213,-252.479 573.046,-245.345 562.474,-246.038 565.213,-252.479"/>
</g>
<!-- Node45&#45;&gt;Node34 -->
<g id="edge23" class="edge"><title>Node45&#45;&gt;Node34</title>
<path fill="none" stroke="midnightblue" d="M547.789,-241.053C494.792,-243.213 409.652,-242.889 366.289,-240.082"/>
<polygon fill="midnightblue" stroke="midnightblue" points="548.109,-244.543 557.938,-240.588 547.788,-237.55 548.109,-244.543"/>
</g>
<!-- Node45&#45;&gt;Node46 -->
<g id="edge24" class="edge"><title>Node45&#45;&gt;Node46</title>
<path fill="none" stroke="midnightblue" d="M642.132,-243.291C658.809,-246.031 677.54,-249.108 693.857,-251.789"/>
<polygon fill="midnightblue" stroke="midnightblue" points="642.489,-239.803 632.053,-241.635 641.354,-246.71 642.489,-239.803"/>
</g>
<!-- Node46&#45;&gt;Node39 -->
<g id="edge25" class="edge"><title>Node46&#45;&gt;Node39</title>
<path fill="none" stroke="midnightblue" d="M753.236,-276.09C779.63,-306.194 833.031,-367.1 853.883,-390.884"/>
<polygon fill="midnightblue" stroke="midnightblue" points="755.782,-273.684 746.557,-268.472 750.518,-278.299 755.782,-273.684"/>
</g>
<!-- Node46&#45;&gt;Node42 -->
<g id="edge26" class="edge"><title>Node46&#45;&gt;Node42</title>
<path fill="none" stroke="midnightblue" d="M769.051,-244.995C791.332,-235.152 820.805,-222.131 840.645,-213.367"/>
<polygon fill="midnightblue" stroke="midnightblue" points="767.419,-241.889 759.686,-249.132 770.248,-248.292 767.419,-241.889"/>
</g>
<!-- Node46&#45;&gt;Node43 -->
<g id="edge27" class="edge"><title>Node46&#45;&gt;Node43</title>
<path fill="none" stroke="midnightblue" d="M766.295,-272.803C789.76,-284.488 822.5,-300.792 843.093,-311.047"/>
<polygon fill="midnightblue" stroke="midnightblue" points="767.692,-269.588 757.18,-268.264 764.572,-275.854 767.692,-269.588"/>
</g>
<!-- Node47&#45;&gt;Node39 -->
<g id="edge30" class="edge"><title>Node47&#45;&gt;Node39</title>
<path fill="none" stroke="midnightblue" d="M775.93,-371.508C794.594,-377.804 816.719,-385.268 833.93,-391.074"/>
<polygon fill="midnightblue" stroke="midnightblue" points="776.845,-368.123 766.251,-368.242 774.608,-374.755 776.845,-368.123"/>
</g>
<!-- Node47&#45;&gt;Node42 -->
<g id="edge31" class="edge"><title>Node47&#45;&gt;Node42</title>
<path fill="none" stroke="midnightblue" d="M752.089,-341.171C778.4,-308.415 834.194,-238.953 854.715,-213.404"/>
<polygon fill="midnightblue" stroke="midnightblue" points="749.322,-339.028 745.788,-349.016 754.779,-343.411 749.322,-339.028"/>
</g>
<!-- Node47&#45;&gt;Node43 -->
<g id="edge32" class="edge"><title>Node47&#45;&gt;Node43</title>
<path fill="none" stroke="midnightblue" d="M779.298,-346.107C796.644,-340.813 816.448,-334.768 832.382,-329.905"/>
<polygon fill="midnightblue" stroke="midnightblue" points="777.959,-342.856 769.417,-349.123 780.003,-349.551 777.959,-342.856"/>
</g>
</g>
</svg>
