<?xml version="1.0" encoding="UTF-8" standalone="no"?>
<!DOCTYPE svg PUBLIC "-//W3C//DTD SVG 1.1//EN"
 "http://www.w3.org/Graphics/SVG/1.1/DTD/svg11.dtd">
<!-- Generated by graphviz version 2.38.0 (20140413.2041)
 -->
<!-- Title: eagle_impl::SoftwareSerial::tx_pin_write Pages: 1 -->
<svg width="525pt" height="39pt"
 viewBox="0.00 0.00 525.00 39.00" xmlns="http://www.w3.org/2000/svg" xmlns:xlink="http://www.w3.org/1999/xlink">
<g id="graph0" class="graph" transform="scale(1 1) rotate(0) translate(4 35)">
<title>eagle_impl::SoftwareSerial::tx_pin_write</title>
<polygon fill="white" stroke="none" points="-4,4 -4,-35 521,-35 521,4 -4,4"/>
<!-- Node112 -->
<g id="node1" class="node"><title>Node112</title>
<polygon fill="#bfbfbf" stroke="black" points="0,-0.5 0,-30.5 133,-30.5 133,-0.5 0,-0.5"/>
<text text-anchor="start" x="8" y="-18.5" font-family="Helvetica,sans-Serif" font-size="10.00">eagle_impl::SoftwareSerial</text>
<text text-anchor="middle" x="66.5" y="-7.5" font-family="Helvetica,sans-Serif" font-size="10.00">::tx_pin_write</text>
</g>
<!-- Node113 -->
<g id="node2" class="node"><title>Node113</title>
<g id="a_node2"><a xlink:href="classeagle__impl_1_1SoftwareSerial.html#ac24e5c6af203ec636c0a200b0cb3caf0" target="_top" xlink:title="eagle_impl::SoftwareSerial\l::write">
<polygon fill="white" stroke="black" points="169,-0.5 169,-30.5 302,-30.5 302,-0.5 169,-0.5"/>
<text text-anchor="start" x="177" y="-18.5" font-family="Helvetica,sans-Serif" font-size="10.00">eagle_impl::SoftwareSerial</text>
<text text-anchor="middle" x="235.5" y="-7.5" font-family="Helvetica,sans-Serif" font-size="10.00">::write</text>
</a>
</g>
</g>
<!-- Node112&#45;&gt;Node113 -->
<g id="edge1" class="edge"><title>Node112&#45;&gt;Node113</title>
<path fill="none" stroke="midnightblue" d="M143.066,-15.5C151.685,-15.5 160.417,-15.5 168.891,-15.5"/>
<polygon fill="midnightblue" stroke="midnightblue" points="143.024,-12.0001 133.024,-15.5 143.023,-19.0001 143.024,-12.0001"/>
</g>
<!-- Node114 -->
<g id="node3" class="node"><title>Node114</title>
<g id="a_node3"><a xlink:href="eBoard__comment_8h.html#abf785ff4ead72e3118dfaa8270c04f0c" target="_top" xlink:title="[BLUETOOTH] writes Data to bluetooth ">
<polygon fill="white" stroke="black" points="338,-6 338,-25 390,-25 390,-6 338,-6"/>
<text text-anchor="middle" x="364" y="-13" font-family="Helvetica,sans-Serif" font-size="10.00">writeVal</text>
</a>
</g>
</g>
<!-- Node113&#45;&gt;Node114 -->
<g id="edge2" class="edge"><title>Node113&#45;&gt;Node114</title>
<path fill="none" stroke="midnightblue" d="M312.613,-15.5C321.609,-15.5 330.243,-15.5 337.744,-15.5"/>
<polygon fill="midnightblue" stroke="midnightblue" points="312.344,-12.0001 302.344,-15.5 312.344,-19.0001 312.344,-12.0001"/>
</g>
<!-- Node115 -->
<g id="node4" class="node"><title>Node115</title>
<g id="a_node4"><a xlink:href="structRB14Scan.html#a2c3e020ffb6d8f23f6394e33c93964fc" target="_top" xlink:title="RB14Scan::write">
<polygon fill="white" stroke="black" points="426,-6 426,-25 517,-25 517,-6 426,-6"/>
<text text-anchor="middle" x="471.5" y="-13" font-family="Helvetica,sans-Serif" font-size="10.00">RB14Scan::write</text>
</a>
</g>
</g>
<!-- Node114&#45;&gt;Node115 -->
<g id="edge3" class="edge"><title>Node114&#45;&gt;Node115</title>
<path fill="none" stroke="midnightblue" d="M400.047,-15.5C408.311,-15.5 417.231,-15.5 425.854,-15.5"/>
<polygon fill="midnightblue" stroke="midnightblue" points="400.002,-12.0001 390.002,-15.5 400.002,-19.0001 400.002,-12.0001"/>
</g>
</g>
</svg>
