<?xml version="1.0" encoding="UTF-8" standalone="no"?>
<!DOCTYPE svg PUBLIC "-//W3C//DTD SVG 1.1//EN"
 "http://www.w3.org/Graphics/SVG/1.1/DTD/svg11.dtd">
<!-- Generated by graphviz version 2.38.0 (20140413.2041)
 -->
<!-- Title: eagle_impl::SoftwareSerial Pages: 1 -->
<svg width="220pt" height="85pt"
 viewBox="0.00 0.00 220.00 85.00" xmlns="http://www.w3.org/2000/svg" xmlns:xlink="http://www.w3.org/1999/xlink">
<g id="graph0" class="graph" transform="scale(1 1) rotate(0) translate(4 81)">
<title>eagle_impl::SoftwareSerial</title>
<polygon fill="white" stroke="none" points="-4,4 -4,-81 216,-81 216,4 -4,4"/>
<!-- Node2 -->
<g id="node1" class="node"><title>Node2</title>
<polygon fill="#bfbfbf" stroke="black" points="0,-0.5 0,-19.5 133,-19.5 133,-0.5 0,-0.5"/>
<text text-anchor="middle" x="66.5" y="-7.5" font-family="Helvetica,sans-Serif" font-size="10.00">eagle_impl::SoftwareSerial</text>
</g>
<!-- Node2&#45;&gt;Node2 -->
<g id="edge2" class="edge"><title>Node2&#45;&gt;Node2</title>
<path fill="none" stroke="#9a32cd" stroke-dasharray="5,2" d="M143.074,-13.7216C148.014,-12.8521 151,-11.6116 151,-10 151,-7.48438 143.725,-5.8728 133.096,-5.16528"/>
<polygon fill="#9a32cd" stroke="#9a32cd" points="142.646,-10.2476 133.096,-14.8347 143.422,-17.2044 142.646,-10.2476"/>
<text text-anchor="middle" x="181.5" y="-7.5" font-family="Helvetica,sans-Serif" font-size="10.00"> active_object</text>
</g>
<!-- Node3 -->
<g id="node2" class="node"><title>Node3</title>
<polygon fill="white" stroke="#bfbfbf" points="42.5,-57.5 42.5,-76.5 90.5,-76.5 90.5,-57.5 42.5,-57.5"/>
<text text-anchor="middle" x="66.5" y="-64.5" font-family="Helvetica,sans-Serif" font-size="10.00">Stream</text>
</g>
<!-- Node3&#45;&gt;Node2 -->
<g id="edge1" class="edge"><title>Node3&#45;&gt;Node2</title>
<path fill="none" stroke="midnightblue" d="M66.5,-47.1166C66.5,-37.8173 66.5,-27.0557 66.5,-19.7149"/>
<polygon fill="midnightblue" stroke="midnightblue" points="63.0001,-47.4062 66.5,-57.4062 70.0001,-47.4063 63.0001,-47.4062"/>
</g>
</g>
</svg>
