<?xml version="1.0" encoding="UTF-8" standalone="no"?>
<!DOCTYPE svg PUBLIC "-//W3C//DTD SVG 1.1//EN"
 "http://www.w3.org/Graphics/SVG/1.1/DTD/svg11.dtd">
<!-- Generated by graphviz version 2.38.0 (20140413.2041)
 -->
<!-- Title: Servo::attach Pages: 1 -->
<svg width="196pt" height="66pt"
 viewBox="0.00 0.00 196.00 66.00" xmlns="http://www.w3.org/2000/svg" xmlns:xlink="http://www.w3.org/1999/xlink">
<g id="graph0" class="graph" transform="scale(1 1) rotate(0) translate(4 62)">
<title>Servo::attach</title>
<polygon fill="white" stroke="none" points="-4,4 -4,-62 192,-62 192,4 -4,4"/>
<!-- Node5 -->
<g id="node1" class="node"><title>Node5</title>
<polygon fill="#bfbfbf" stroke="black" points="0,-19.5 0,-38.5 75,-38.5 75,-19.5 0,-19.5"/>
<text text-anchor="middle" x="37.5" y="-26.5" font-family="Helvetica,sans-Serif" font-size="10.00">Servo::attach</text>
</g>
<!-- Node6 -->
<g id="node2" class="node"><title>Node6</title>
<g id="a_node2"><a xlink:href="eBoard_8h.html#ac602938217371d7fc43bbdd89482c716" target="_top" xlink:title="initISR">
<polygon fill="white" stroke="black" points="126,-38.5 126,-57.5 173,-57.5 173,-38.5 126,-38.5"/>
<text text-anchor="middle" x="149.5" y="-45.5" font-family="Helvetica,sans-Serif" font-size="10.00">initISR</text>
</a>
</g>
</g>
<!-- Node5&#45;&gt;Node6 -->
<g id="edge1" class="edge"><title>Node5&#45;&gt;Node6</title>
<path fill="none" stroke="midnightblue" d="M75.1284,-35.3267C88.214,-37.587 102.867,-40.1179 115.617,-42.3203"/>
<polygon fill="midnightblue" stroke="midnightblue" points="115.354,-45.8265 125.804,-44.0798 116.545,-38.9287 115.354,-45.8265"/>
</g>
<!-- Node7 -->
<g id="node3" class="node"><title>Node7</title>
<g id="a_node3"><a xlink:href="eBoard_8h.html#a9f4c515f70ed80cf205584acdd289535" target="_top" xlink:title="isTimerActive">
<polygon fill="white" stroke="black" points="111,-0.5 111,-19.5 188,-19.5 188,-0.5 111,-0.5"/>
<text text-anchor="middle" x="149.5" y="-7.5" font-family="Helvetica,sans-Serif" font-size="10.00">isTimerActive</text>
</a>
</g>
</g>
<!-- Node5&#45;&gt;Node7 -->
<g id="edge2" class="edge"><title>Node5&#45;&gt;Node7</title>
<path fill="none" stroke="midnightblue" d="M75.1284,-22.6733C83.3938,-21.2456 92.2846,-19.7099 100.926,-18.2173"/>
<polygon fill="midnightblue" stroke="midnightblue" points="101.646,-21.645 110.904,-16.4939 100.454,-14.7471 101.646,-21.645"/>
</g>
</g>
</svg>
