<?xml version="1.0" encoding="UTF-8" standalone="no"?>
<!DOCTYPE svg PUBLIC "-//W3C//DTD SVG 1.1//EN"
 "http://www.w3.org/Graphics/SVG/1.1/DTD/svg11.dtd">
<!-- Generated by graphviz version 2.38.0 (20140413.2041)
 -->
<!-- Title: eagle_impl::SoftwareSerial::rx_pin_read Pages: 1 -->
<svg width="549pt" height="39pt"
 viewBox="0.00 0.00 549.00 39.00" xmlns="http://www.w3.org/2000/svg" xmlns:xlink="http://www.w3.org/1999/xlink">
<g id="graph0" class="graph" transform="scale(1 1) rotate(0) translate(4 35)">
<title>eagle_impl::SoftwareSerial::rx_pin_read</title>
<polygon fill="white" stroke="none" points="-4,4 -4,-35 545,-35 545,4 -4,4"/>
<!-- Node87 -->
<g id="node1" class="node"><title>Node87</title>
<polygon fill="#bfbfbf" stroke="black" points="0,-0.5 0,-30.5 133,-30.5 133,-0.5 0,-0.5"/>
<text text-anchor="start" x="8" y="-18.5" font-family="Helvetica,sans-Serif" font-size="10.00">eagle_impl::SoftwareSerial</text>
<text text-anchor="middle" x="66.5" y="-7.5" font-family="Helvetica,sans-Serif" font-size="10.00">::rx_pin_read</text>
</g>
<!-- Node88 -->
<g id="node2" class="node"><title>Node88</title>
<g id="a_node2"><a xlink:href="classeagle__impl_1_1SoftwareSerial.html#a14ff531f8f4a57b2311e452f902c7a31" target="_top" xlink:title="eagle_impl::SoftwareSerial\l::recv">
<polygon fill="white" stroke="black" points="169,-0.5 169,-30.5 302,-30.5 302,-0.5 169,-0.5"/>
<text text-anchor="start" x="177" y="-18.5" font-family="Helvetica,sans-Serif" font-size="10.00">eagle_impl::SoftwareSerial</text>
<text text-anchor="middle" x="235.5" y="-7.5" font-family="Helvetica,sans-Serif" font-size="10.00">::recv</text>
</a>
</g>
</g>
<!-- Node87&#45;&gt;Node88 -->
<g id="edge1" class="edge"><title>Node87&#45;&gt;Node88</title>
<path fill="none" stroke="midnightblue" d="M143.066,-15.5C151.685,-15.5 160.417,-15.5 168.891,-15.5"/>
<polygon fill="midnightblue" stroke="midnightblue" points="143.024,-12.0001 133.024,-15.5 143.023,-19.0001 143.024,-12.0001"/>
</g>
<!-- Node89 -->
<g id="node3" class="node"><title>Node89</title>
<g id="a_node3"><a xlink:href="classeagle__impl_1_1SoftwareSerial.html#a009772cfdde9ef026c6660f7c578eda8" target="_top" xlink:title="eagle_impl::SoftwareSerial\l::handle_interrupt">
<polygon fill="white" stroke="black" points="338,-0.5 338,-30.5 471,-30.5 471,-0.5 338,-0.5"/>
<text text-anchor="start" x="346" y="-18.5" font-family="Helvetica,sans-Serif" font-size="10.00">eagle_impl::SoftwareSerial</text>
<text text-anchor="middle" x="404.5" y="-7.5" font-family="Helvetica,sans-Serif" font-size="10.00">::handle_interrupt</text>
</a>
</g>
</g>
<!-- Node88&#45;&gt;Node89 -->
<g id="edge2" class="edge"><title>Node88&#45;&gt;Node89</title>
<path fill="none" stroke="midnightblue" d="M312.066,-15.5C320.685,-15.5 329.417,-15.5 337.891,-15.5"/>
<polygon fill="midnightblue" stroke="midnightblue" points="312.024,-12.0001 302.024,-15.5 312.023,-19.0001 312.024,-12.0001"/>
</g>
<!-- Node90 -->
<g id="node4" class="node"><title>Node90</title>
<g id="a_node4"><a xlink:href="eBoard_8h.html#aa64c6dce15e9de9105b4ae9533c9a267" target="_top" xlink:title="ISR">
<polygon fill="white" stroke="black" points="507,-6 507,-25 541,-25 541,-6 507,-6"/>
<text text-anchor="middle" x="524" y="-13" font-family="Helvetica,sans-Serif" font-size="10.00">ISR</text>
</a>
</g>
</g>
<!-- Node89&#45;&gt;Node90 -->
<g id="edge3" class="edge"><title>Node89&#45;&gt;Node90</title>
<path fill="none" stroke="midnightblue" d="M481.225,-15.5C490.741,-15.5 499.607,-15.5 506.701,-15.5"/>
<polygon fill="midnightblue" stroke="midnightblue" points="481.121,-12.0001 471.121,-15.5 481.121,-19.0001 481.121,-12.0001"/>
</g>
</g>
</svg>
