<?xml version="1.0" encoding="UTF-8" standalone="no"?>
<!DOCTYPE svg PUBLIC "-//W3C//DTD SVG 1.1//EN"
 "http://www.w3.org/Graphics/SVG/1.1/DTD/svg11.dtd">
<!-- Generated by graphviz version 2.38.0 (20140413.2041)
 -->
<!-- Title: eagle_impl::TwoWire::begin Pages: 1 -->
<svg width="360pt" height="252pt"
 viewBox="0.00 0.00 360.00 251.50" xmlns="http://www.w3.org/2000/svg" xmlns:xlink="http://www.w3.org/1999/xlink">
<g id="graph0" class="graph" transform="scale(1 1) rotate(0) translate(4 247.5)">
<title>eagle_impl::TwoWire::begin</title>
<polygon fill="white" stroke="none" points="-4,4 -4,-247.5 356,-247.5 356,4 -4,4"/>
<!-- Node14 -->
<g id="node1" class="node"><title>Node14</title>
<polygon fill="#bfbfbf" stroke="black" points="0,-93 0,-123 108,-123 108,-93 0,-93"/>
<text text-anchor="start" x="8" y="-111" font-family="Helvetica,sans-Serif" font-size="10.00">eagle_impl::TwoWire</text>
<text text-anchor="middle" x="54" y="-100" font-family="Helvetica,sans-Serif" font-size="10.00">::begin</text>
</g>
<!-- Node15 -->
<g id="node2" class="node"><title>Node15</title>
<g id="a_node2"><a xlink:href="classeagle__impl_1_1TwoWire.html#ada85a7a8663ec8af0a1248b659be2f18" target="_top" xlink:title="eagle_impl::TwoWire\l::begin">
<polygon fill="white" stroke="black" points="152.5,-213 152.5,-243 260.5,-243 260.5,-213 152.5,-213"/>
<text text-anchor="start" x="160.5" y="-231" font-family="Helvetica,sans-Serif" font-size="10.00">eagle_impl::TwoWire</text>
<text text-anchor="middle" x="206.5" y="-220" font-family="Helvetica,sans-Serif" font-size="10.00">::begin</text>
</a>
</g>
</g>
<!-- Node14&#45;&gt;Node15 -->
<g id="edge1" class="edge"><title>Node14&#45;&gt;Node15</title>
<path fill="none" stroke="midnightblue" d="M65.6951,-123.317C80.9301,-144.138 110.746,-181.364 144,-204 146.155,-205.467 148.414,-206.863 150.739,-208.189"/>
<polygon fill="midnightblue" stroke="midnightblue" points="149.476,-211.476 159.967,-212.957 152.69,-205.257 149.476,-211.476"/>
</g>
<!-- Node17 -->
<g id="node4" class="node"><title>Node17</title>
<g id="a_node4"><a xlink:href="classeagle__impl_1_1TwoWire.html#ae5113ecfdedecbf54ac93b0f17f5011e" target="_top" xlink:title="eagle_impl::TwoWire\l::onReceiveService">
<polygon fill="white" stroke="black" points="152.5,-164 152.5,-194 260.5,-194 260.5,-164 152.5,-164"/>
<text text-anchor="start" x="160.5" y="-182" font-family="Helvetica,sans-Serif" font-size="10.00">eagle_impl::TwoWire</text>
<text text-anchor="middle" x="206.5" y="-171" font-family="Helvetica,sans-Serif" font-size="10.00">::onReceiveService</text>
</a>
</g>
</g>
<!-- Node14&#45;&gt;Node17 -->
<g id="edge3" class="edge"><title>Node14&#45;&gt;Node17</title>
<path fill="none" stroke="midnightblue" d="M81.8656,-123.213C99.3201,-132.84 122.707,-145.261 144,-155 147.648,-156.668 151.448,-158.329 155.29,-159.954"/>
<polygon fill="midnightblue" stroke="midnightblue" points="154.287,-163.325 164.866,-163.898 156.953,-156.853 154.287,-163.325"/>
</g>
<!-- Node18 -->
<g id="node5" class="node"><title>Node18</title>
<g id="a_node5"><a xlink:href="classeagle__impl_1_1TwoWire.html#a56e5b17e8a2c0e9d4017febe083da391" target="_top" xlink:title="eagle_impl::TwoWire\l::onRequestService">
<polygon fill="white" stroke="black" points="152.5,-115 152.5,-145 260.5,-145 260.5,-115 152.5,-115"/>
<text text-anchor="start" x="160.5" y="-133" font-family="Helvetica,sans-Serif" font-size="10.00">eagle_impl::TwoWire</text>
<text text-anchor="middle" x="206.5" y="-122" font-family="Helvetica,sans-Serif" font-size="10.00">::onRequestService</text>
</a>
</g>
</g>
<!-- Node14&#45;&gt;Node18 -->
<g id="edge4" class="edge"><title>Node14&#45;&gt;Node18</title>
<path fill="none" stroke="midnightblue" d="M108.061,-115.756C119.188,-117.383 131.026,-119.113 142.476,-120.787"/>
<polygon fill="midnightblue" stroke="midnightblue" points="142.01,-124.256 152.411,-122.24 143.023,-117.33 142.01,-124.256"/>
</g>
<!-- Node19 -->
<g id="node6" class="node"><title>Node19</title>
<g id="a_node6"><a xlink:href="eBoard_8h.html#a4dc5c27bf3b71b127e8579c8272c761b" target="_top" xlink:title="twi_attachSlaveRxEvent">
<polygon fill="white" stroke="black" points="144,-76.5 144,-95.5 269,-95.5 269,-76.5 144,-76.5"/>
<text text-anchor="middle" x="206.5" y="-83.5" font-family="Helvetica,sans-Serif" font-size="10.00">twi_attachSlaveRxEvent</text>
</a>
</g>
</g>
<!-- Node14&#45;&gt;Node19 -->
<g id="edge5" class="edge"><title>Node14&#45;&gt;Node19</title>
<path fill="none" stroke="midnightblue" d="M108.061,-100.244C116.394,-99.0255 125.126,-97.749 133.795,-96.4818"/>
<polygon fill="midnightblue" stroke="midnightblue" points="134.527,-99.9121 143.915,-95.0024 133.514,-92.9857 134.527,-99.9121"/>
</g>
<!-- Node20 -->
<g id="node7" class="node"><title>Node20</title>
<g id="a_node7"><a xlink:href="eBoard_8h.html#a6c7a32f215bc048da3c94c8841d8ae3b" target="_top" xlink:title="twi_attachSlaveTxEvent">
<polygon fill="white" stroke="black" points="145,-38.5 145,-57.5 268,-57.5 268,-38.5 145,-38.5"/>
<text text-anchor="middle" x="206.5" y="-45.5" font-family="Helvetica,sans-Serif" font-size="10.00">twi_attachSlaveTxEvent</text>
</a>
</g>
</g>
<!-- Node14&#45;&gt;Node20 -->
<g id="edge6" class="edge"><title>Node14&#45;&gt;Node20</title>
<path fill="none" stroke="midnightblue" d="M85.0565,-92.9491C102.109,-84.7166 123.982,-74.6647 144,-67 149.821,-64.771 156.026,-62.6114 162.17,-60.5966"/>
<polygon fill="midnightblue" stroke="midnightblue" points="163.244,-63.9279 171.712,-57.5606 161.121,-57.2574 163.244,-63.9279"/>
</g>
<!-- Node21 -->
<g id="node8" class="node"><title>Node21</title>
<g id="a_node8"><a xlink:href="eBoard_8h.html#aaa9f356c6666f1f28db92703c4499d97" target="_top" xlink:title="twi_setAddress">
<polygon fill="white" stroke="black" points="164.5,-0.5 164.5,-19.5 248.5,-19.5 248.5,-0.5 164.5,-0.5"/>
<text text-anchor="middle" x="206.5" y="-7.5" font-family="Helvetica,sans-Serif" font-size="10.00">twi_setAddress</text>
</a>
</g>
</g>
<!-- Node14&#45;&gt;Node21 -->
<g id="edge7" class="edge"><title>Node14&#45;&gt;Node21</title>
<path fill="none" stroke="midnightblue" d="M68.3086,-92.7648C84.5336,-75.072 113.575,-46.1303 144,-29 147.884,-26.813 152.052,-24.8462 156.319,-23.0841"/>
<polygon fill="midnightblue" stroke="midnightblue" points="157.616,-26.3358 165.75,-19.5475 155.158,-19.7814 157.616,-26.3358"/>
</g>
<!-- Node16 -->
<g id="node3" class="node"><title>Node16</title>
<g id="a_node3"><a xlink:href="eBoard_8h.html#a16f0e6b2fa5a26eadbf4086ab6d54467" target="_top" xlink:title="twi_init">
<polygon fill="white" stroke="black" points="305,-218.5 305,-237.5 352,-237.5 352,-218.5 305,-218.5"/>
<text text-anchor="middle" x="328.5" y="-225.5" font-family="Helvetica,sans-Serif" font-size="10.00">twi_init</text>
</a>
</g>
</g>
<!-- Node15&#45;&gt;Node16 -->
<g id="edge2" class="edge"><title>Node15&#45;&gt;Node16</title>
<path fill="none" stroke="midnightblue" d="M260.833,-228C272.354,-228 284.208,-228 294.666,-228"/>
<polygon fill="midnightblue" stroke="midnightblue" points="294.986,-231.5 304.986,-228 294.986,-224.5 294.986,-231.5"/>
</g>
</g>
</svg>
