<?xml version="1.0" encoding="UTF-8" standalone="no"?>
<!DOCTYPE svg PUBLIC "-//W3C//DTD SVG 1.1//EN"
 "http://www.w3.org/Graphics/SVG/1.1/DTD/svg11.dtd">
<!-- Generated by graphviz version 2.38.0 (20140413.2041)
 -->
<!-- Title: src/examples/dancing_dragon.cpp Pages: 1 -->
<svg width="1343pt" height="184pt"
 viewBox="0.00 0.00 1342.50 184.00" xmlns="http://www.w3.org/2000/svg" xmlns:xlink="http://www.w3.org/1999/xlink">
<g id="graph0" class="graph" transform="scale(1 1) rotate(0) translate(4 180)">
<title>src/examples/dancing_dragon.cpp</title>
<polygon fill="white" stroke="none" points="-4,4 -4,-180 1338.5,-180 1338.5,4 -4,4"/>
<!-- Node0 -->
<g id="node1" class="node"><title>Node0</title>
<polygon fill="#bfbfbf" stroke="black" points="622.5,-145.5 622.5,-175.5 734.5,-175.5 734.5,-145.5 622.5,-145.5"/>
<text text-anchor="start" x="630.5" y="-163.5" font-family="Helvetica,sans-Serif" font-size="10.00">src/examples/dancing</text>
<text text-anchor="middle" x="678.5" y="-152.5" font-family="Helvetica,sans-Serif" font-size="10.00">_dragon.cpp</text>
</g>
<!-- Node1 -->
<g id="node2" class="node"><title>Node1</title>
<polygon fill="white" stroke="#bfbfbf" points="595,-84 595,-103 640,-103 640,-84 595,-84"/>
<text text-anchor="middle" x="617.5" y="-91" font-family="Helvetica,sans-Serif" font-size="10.00">Wire.h</text>
</g>
<!-- Node0&#45;&gt;Node1 -->
<g id="edge1" class="edge"><title>Node0&#45;&gt;Node1</title>
<path fill="none" stroke="midnightblue" d="M665.264,-145.396C655.659,-135.161 642.647,-121.296 632.63,-110.622"/>
<polygon fill="midnightblue" stroke="midnightblue" points="635.055,-108.091 625.659,-103.195 629.95,-112.882 635.055,-108.091"/>
</g>
<!-- Node2 -->
<g id="node3" class="node"><title>Node2</title>
<polygon fill="white" stroke="#bfbfbf" points="658,-84 658,-103 699,-103 699,-84 658,-84"/>
<text text-anchor="middle" x="678.5" y="-91" font-family="Helvetica,sans-Serif" font-size="10.00">SPI.h</text>
</g>
<!-- Node0&#45;&gt;Node2 -->
<g id="edge2" class="edge"><title>Node0&#45;&gt;Node2</title>
<path fill="none" stroke="midnightblue" d="M678.5,-145.396C678.5,-136.064 678.5,-123.714 678.5,-113.517"/>
<polygon fill="midnightblue" stroke="midnightblue" points="682,-113.195 678.5,-103.195 675,-113.195 682,-113.195"/>
</g>
<!-- Node3 -->
<g id="node4" class="node"><title>Node3</title>
<g id="a_node4"><a xlink:href="eBoard_8h.html" target="_top" xlink:title="/home/eagleoutice/Dokumente\l/proj/_sia/src/eBoard.h">
<polygon fill="white" stroke="black" points="717,-78.5 717,-108.5 866,-108.5 866,-78.5 717,-78.5"/>
<text text-anchor="start" x="725" y="-96.5" font-family="Helvetica,sans-Serif" font-size="10.00">/home/eagleoutice/Dokumente</text>
<text text-anchor="middle" x="791.5" y="-85.5" font-family="Helvetica,sans-Serif" font-size="10.00">/proj/_sia/src/eBoard.h</text>
</a>
</g>
</g>
<!-- Node0&#45;&gt;Node3 -->
<g id="edge3" class="edge"><title>Node0&#45;&gt;Node3</title>
<path fill="none" stroke="midnightblue" d="M703.019,-145.396C719.16,-136.112 740.492,-123.841 758.166,-113.674"/>
<polygon fill="midnightblue" stroke="midnightblue" points="760.105,-116.597 767.029,-108.577 756.615,-110.529 760.105,-116.597"/>
</g>
<!-- Node4 -->
<g id="node5" class="node"><title>Node4</title>
<polygon fill="white" stroke="#bfbfbf" points="0,-6 0,-36 137,-36 137,-6 0,-6"/>
<text text-anchor="start" x="8" y="-24" font-family="Helvetica,sans-Serif" font-size="10.00">C:\Program Files (x86)</text>
<text text-anchor="middle" x="68.5" y="-13" font-family="Helvetica,sans-Serif" font-size="10.00">\Arduino\libraries\SPI\SPI.h</text>
</g>
<!-- Node3&#45;&gt;Node4 -->
<g id="edge4" class="edge"><title>Node3&#45;&gt;Node4</title>
<path fill="none" stroke="midnightblue" d="M716.9,-79.0723C714.067,-78.6881 711.26,-78.3285 708.5,-78 459.964,-48.4196 393.692,-81.2544 146.5,-42 140.248,-41.0072 133.768,-39.7399 127.335,-38.3262"/>
<polygon fill="midnightblue" stroke="midnightblue" points="127.837,-34.85 117.305,-36.0027 126.257,-41.6694 127.837,-34.85"/>
</g>
<!-- Node5 -->
<g id="node6" class="node"><title>Node5</title>
<polygon fill="white" stroke="#bfbfbf" points="155.5,-0.5 155.5,-41.5 271.5,-41.5 271.5,-0.5 155.5,-0.5"/>
<text text-anchor="start" x="163.5" y="-29.5" font-family="Helvetica,sans-Serif" font-size="10.00">C:\Program Files (x86)</text>
<text text-anchor="start" x="163.5" y="-18.5" font-family="Helvetica,sans-Serif" font-size="10.00">\Arduino\libraries\SPI</text>
<text text-anchor="middle" x="213.5" y="-7.5" font-family="Helvetica,sans-Serif" font-size="10.00">\SPI.cpp</text>
</g>
<!-- Node3&#45;&gt;Node5 -->
<g id="edge5" class="edge"><title>Node3&#45;&gt;Node5</title>
<path fill="none" stroke="midnightblue" d="M716.891,-79.1431C714.061,-78.739 711.256,-78.356 708.5,-78 522.414,-53.9679 469.853,-76.6855 281.728,-42.0313"/>
<polygon fill="midnightblue" stroke="midnightblue" points="282.264,-38.5709 271.791,-40.1711 280.976,-45.4514 282.264,-38.5709"/>
</g>
<!-- Node6 -->
<g id="node7" class="node"><title>Node6</title>
<polygon fill="white" stroke="#bfbfbf" points="289.5,-11.5 289.5,-30.5 347.5,-30.5 347.5,-11.5 289.5,-11.5"/>
<text text-anchor="middle" x="318.5" y="-18.5" font-family="Helvetica,sans-Serif" font-size="10.00">Arduino.h</text>
</g>
<!-- Node3&#45;&gt;Node6 -->
<g id="edge6" class="edge"><title>Node3&#45;&gt;Node6</title>
<path fill="none" stroke="midnightblue" d="M716.883,-79.2068C714.055,-78.7849 711.253,-78.3808 708.5,-78 552.722,-56.4547 507.049,-87.4507 356.5,-42 351.194,-40.3981 345.765,-38.04 340.732,-35.4998"/>
<polygon fill="midnightblue" stroke="midnightblue" points="342.13,-32.275 331.678,-30.5419 338.768,-38.4148 342.13,-32.275"/>
</g>
<!-- Node7 -->
<g id="node8" class="node"><title>Node7</title>
<polygon fill="white" stroke="#bfbfbf" points="366,-11.5 366,-30.5 415,-30.5 415,-11.5 366,-11.5"/>
<text text-anchor="middle" x="390.5" y="-18.5" font-family="Helvetica,sans-Serif" font-size="10.00">avr/io.h</text>
</g>
<!-- Node3&#45;&gt;Node7 -->
<g id="edge7" class="edge"><title>Node3&#45;&gt;Node7</title>
<path fill="none" stroke="midnightblue" d="M716.87,-79.2907C714.046,-78.8453 711.248,-78.4134 708.5,-78 582.247,-59.0089 544.065,-84.006 423.5,-42 419.23,-40.5122 414.917,-38.4185 410.881,-36.1419"/>
<polygon fill="midnightblue" stroke="midnightblue" points="412.458,-33.0013 402.117,-30.6969 408.764,-38.9472 412.458,-33.0013"/>
</g>
<!-- Node8 -->
<g id="node9" class="node"><title>Node8</title>
<polygon fill="white" stroke="#bfbfbf" points="433,-11.5 433,-30.5 510,-30.5 510,-11.5 433,-11.5"/>
<text text-anchor="middle" x="471.5" y="-18.5" font-family="Helvetica,sans-Serif" font-size="10.00">avr/interrupt.h</text>
</g>
<!-- Node3&#45;&gt;Node8 -->
<g id="edge8" class="edge"><title>Node3&#45;&gt;Node8</title>
<path fill="none" stroke="midnightblue" d="M716.978,-79.4981C643.079,-66.4703 538.23,-47.5727 519.5,-42 512.64,-39.959 505.425,-37.2639 498.733,-34.5157"/>
<polygon fill="midnightblue" stroke="midnightblue" points="499.976,-31.2405 489.406,-30.5212 497.22,-37.6753 499.976,-31.2405"/>
</g>
<!-- Node9 -->
<g id="node10" class="node"><title>Node9</title>
<polygon fill="white" stroke="#bfbfbf" points="528.5,-6 528.5,-36 654.5,-36 654.5,-6 528.5,-6"/>
<text text-anchor="start" x="536.5" y="-24" font-family="Helvetica,sans-Serif" font-size="10.00">C:\Program Files (x86)</text>
<text text-anchor="middle" x="591.5" y="-13" font-family="Helvetica,sans-Serif" font-size="10.00">\Arduino\Wire\utility\twi.h</text>
</g>
<!-- Node3&#45;&gt;Node9 -->
<g id="edge9" class="edge"><title>Node3&#45;&gt;Node9</title>
<path fill="none" stroke="midnightblue" d="M751.508,-78.4027C719.759,-67.2114 675.206,-51.5062 641.172,-39.5093"/>
<polygon fill="midnightblue" stroke="midnightblue" points="642.018,-36.0965 631.423,-36.0729 639.691,-42.6983 642.018,-36.0965"/>
</g>
<!-- Node10 -->
<g id="node11" class="node"><title>Node10</title>
<polygon fill="white" stroke="#bfbfbf" points="672.5,-6 672.5,-36 798.5,-36 798.5,-6 672.5,-6"/>
<text text-anchor="start" x="680.5" y="-24" font-family="Helvetica,sans-Serif" font-size="10.00">C:\Program Files (x86)</text>
<text text-anchor="middle" x="735.5" y="-13" font-family="Helvetica,sans-Serif" font-size="10.00">\Arduino\Wire\utility\twi.c</text>
</g>
<!-- Node3&#45;&gt;Node10 -->
<g id="edge10" class="edge"><title>Node3&#45;&gt;Node10</title>
<path fill="none" stroke="midnightblue" d="M780.168,-78.2333C772.425,-68.4863 762.01,-55.3741 753.184,-44.2632"/>
<polygon fill="midnightblue" stroke="midnightblue" points="755.776,-41.8989 746.816,-36.2455 750.295,-46.2528 755.776,-41.8989"/>
</g>
<!-- Node11 -->
<g id="node12" class="node"><title>Node11</title>
<polygon fill="white" stroke="#bfbfbf" points="817,-11.5 817,-30.5 876,-30.5 876,-11.5 817,-11.5"/>
<text text-anchor="middle" x="846.5" y="-18.5" font-family="Helvetica,sans-Serif" font-size="10.00">inttypes.h</text>
</g>
<!-- Node3&#45;&gt;Node11 -->
<g id="edge11" class="edge"><title>Node3&#45;&gt;Node11</title>
<path fill="none" stroke="midnightblue" d="M802.63,-78.2333C811.521,-66.8367 824.001,-50.8393 833.378,-38.8197"/>
<polygon fill="midnightblue" stroke="midnightblue" points="836.171,-40.9305 839.562,-30.8932 830.651,-36.6248 836.171,-40.9305"/>
</g>
<!-- Node12 -->
<g id="node13" class="node"><title>Node12</title>
<polygon fill="white" stroke="#bfbfbf" points="894.5,-11.5 894.5,-30.5 950.5,-30.5 950.5,-11.5 894.5,-11.5"/>
<text text-anchor="middle" x="922.5" y="-18.5" font-family="Helvetica,sans-Serif" font-size="10.00">Stream.h</text>
</g>
<!-- Node3&#45;&gt;Node12 -->
<g id="edge12" class="edge"><title>Node3&#45;&gt;Node12</title>
<path fill="none" stroke="midnightblue" d="M817.847,-78.369C836.696,-68.2533 862.669,-54.3036 885.5,-42 889.405,-39.8956 893.54,-37.6637 897.577,-35.4834"/>
<polygon fill="midnightblue" stroke="midnightblue" points="899.527,-38.4076 906.66,-30.5735 896.199,-32.2495 899.527,-38.4076"/>
</g>
<!-- Node13 -->
<g id="node14" class="node"><title>Node13</title>
<polygon fill="white" stroke="#bfbfbf" points="968.5,-11.5 968.5,-30.5 1016.5,-30.5 1016.5,-11.5 968.5,-11.5"/>
<text text-anchor="middle" x="992.5" y="-18.5" font-family="Helvetica,sans-Serif" font-size="10.00">stdlib.h</text>
</g>
<!-- Node3&#45;&gt;Node13 -->
<g id="edge13" class="edge"><title>Node3&#45;&gt;Node13</title>
<path fill="none" stroke="midnightblue" d="M851.519,-78.4105C884.172,-69.7723 924.854,-57.407 959.5,-42 963.494,-40.2238 967.596,-38.0538 971.491,-35.806"/>
<polygon fill="midnightblue" stroke="midnightblue" points="973.351,-38.7713 980.057,-30.5691 969.7,-32.799 973.351,-38.7713"/>
</g>
<!-- Node14 -->
<g id="node15" class="node"><title>Node14</title>
<polygon fill="white" stroke="#bfbfbf" points="1035,-11.5 1035,-30.5 1084,-30.5 1084,-11.5 1035,-11.5"/>
<text text-anchor="middle" x="1059.5" y="-18.5" font-family="Helvetica,sans-Serif" font-size="10.00">string.h</text>
</g>
<!-- Node3&#45;&gt;Node14 -->
<g id="edge14" class="edge"><title>Node3&#45;&gt;Node14</title>
<path fill="none" stroke="midnightblue" d="M866.252,-82.6045C913.09,-74.8957 974.105,-62.0607 1025.5,-42 1029.85,-40.3013 1034.3,-38.0877 1038.48,-35.7543"/>
<polygon fill="midnightblue" stroke="midnightblue" points="1040.29,-38.7486 1047.07,-30.608 1036.7,-32.7432 1040.29,-38.7486"/>
</g>
<!-- Node15 -->
<g id="node16" class="node"><title>Node15</title>
<polygon fill="white" stroke="#bfbfbf" points="1102.5,-11.5 1102.5,-30.5 1188.5,-30.5 1188.5,-11.5 1102.5,-11.5"/>
<text text-anchor="middle" x="1145.5" y="-18.5" font-family="Helvetica,sans-Serif" font-size="10.00">avr/pgmspace.h</text>
</g>
<!-- Node3&#45;&gt;Node15 -->
<g id="edge15" class="edge"><title>Node3&#45;&gt;Node15</title>
<path fill="none" stroke="midnightblue" d="M866.248,-84.2589C927.921,-76.4482 1017.34,-62.7841 1093.5,-42 1101.16,-39.9105 1109.25,-37.1061 1116.71,-34.2595"/>
<polygon fill="midnightblue" stroke="midnightblue" points="1118.05,-37.4902 1126.06,-30.5498 1115.47,-30.9833 1118.05,-37.4902"/>
</g>
<!-- Node16 -->
<g id="node17" class="node"><title>Node16</title>
<polygon fill="white" stroke="#bfbfbf" points="1207,-11.5 1207,-30.5 1264,-30.5 1264,-11.5 1207,-11.5"/>
<text text-anchor="middle" x="1235.5" y="-18.5" font-family="Helvetica,sans-Serif" font-size="10.00">avr/wdt.h</text>
</g>
<!-- Node3&#45;&gt;Node16 -->
<g id="edge16" class="edge"><title>Node3&#45;&gt;Node16</title>
<path fill="none" stroke="midnightblue" d="M866.168,-91.2116C948.929,-87.9617 1085.51,-77.1479 1197.5,-42 1202.7,-40.3675 1208.03,-38.0358 1212.99,-35.5375"/>
<polygon fill="midnightblue" stroke="midnightblue" points="1214.83,-38.5201 1221.95,-30.6681 1211.49,-32.3705 1214.83,-38.5201"/>
</g>
<!-- Node17 -->
<g id="node18" class="node"><title>Node17</title>
<polygon fill="white" stroke="#bfbfbf" points="1282.5,-11.5 1282.5,-30.5 1334.5,-30.5 1334.5,-11.5 1282.5,-11.5"/>
<text text-anchor="middle" x="1308.5" y="-18.5" font-family="Helvetica,sans-Serif" font-size="10.00">assert.h</text>
</g>
<!-- Node3&#45;&gt;Node17 -->
<g id="edge17" class="edge"><title>Node3&#45;&gt;Node17</title>
<path fill="none" stroke="midnightblue" d="M866.007,-88.4542C981.876,-81.5297 1199.62,-65.8087 1273.5,-42 1278.33,-40.445 1283.22,-38.1686 1287.76,-35.7037"/>
<polygon fill="midnightblue" stroke="midnightblue" points="1289.64,-38.6626 1296.45,-30.5499 1286.06,-32.6424 1289.64,-38.6626"/>
</g>
</g>
</svg>
