<?xml version="1.0" encoding="UTF-8" standalone="no"?>
<!DOCTYPE svg PUBLIC "-//W3C//DTD SVG 1.1//EN"
 "http://www.w3.org/Graphics/SVG/1.1/DTD/svg11.dtd">
<!-- Generated by graphviz version 2.38.0 (20140413.2041)
 -->
<!-- Title: /eagleoutice/projects/github/eBoard/examples/dancing_dragon/dancing_dragon.cpp Pages: 1 -->
<svg width="1018pt" height="173pt"
 viewBox="0.00 0.00 1018.00 173.00" xmlns="http://www.w3.org/2000/svg" xmlns:xlink="http://www.w3.org/1999/xlink">
<g id="graph0" class="graph" transform="scale(1 1) rotate(0) translate(4 169)">
<title>/eagleoutice/projects/github/eBoard/examples/dancing_dragon/dancing_dragon.cpp</title>
<polygon fill="white" stroke="none" points="-4,4 -4,-169 1014,-169 1014,4 -4,4"/>
<!-- Node0 -->
<g id="node1" class="node"><title>Node0</title>
<polygon fill="#bfbfbf" stroke="black" points="499.5,-112.5 499.5,-164.5 624.5,-164.5 624.5,-112.5 499.5,-112.5"/>
<text text-anchor="start" x="507.5" y="-152.5" font-family="Helvetica,sans-Serif" font-size="10.00">/eagleoutice/projects</text>
<text text-anchor="start" x="507.5" y="-141.5" font-family="Helvetica,sans-Serif" font-size="10.00">/github/eBoard/examples</text>
<text text-anchor="start" x="507.5" y="-130.5" font-family="Helvetica,sans-Serif" font-size="10.00">/dancing_dragon/dancing</text>
<text text-anchor="middle" x="562" y="-119.5" font-family="Helvetica,sans-Serif" font-size="10.00">_dragon.cpp</text>
</g>
<!-- Node1 -->
<g id="node2" class="node"><title>Node1</title>
<g id="a_node2"><a xlink:href="eBoard_8h.html" target="_top" xlink:title="eBoard.h">
<polygon fill="white" stroke="black" points="534,-56.5 534,-75.5 590,-75.5 590,-56.5 534,-56.5"/>
<text text-anchor="middle" x="562" y="-63.5" font-family="Helvetica,sans-Serif" font-size="10.00">eBoard.h</text>
</a>
</g>
</g>
<!-- Node0&#45;&gt;Node1 -->
<g id="edge1" class="edge"><title>Node0&#45;&gt;Node1</title>
<path fill="none" stroke="midnightblue" d="M562,-112.446C562,-103.73 562,-94.1045 562,-85.9641"/>
<polygon fill="midnightblue" stroke="midnightblue" points="565.5,-85.6954 562,-75.6955 558.5,-85.6955 565.5,-85.6954"/>
</g>
<!-- Node2 -->
<g id="node3" class="node"><title>Node2</title>
<polygon fill="white" stroke="#bfbfbf" points="0,-0.5 0,-19.5 86,-19.5 86,-0.5 0,-0.5"/>
<text text-anchor="middle" x="43" y="-7.5" font-family="Helvetica,sans-Serif" font-size="10.00">avr/pgmspace.h</text>
</g>
<!-- Node1&#45;&gt;Node2 -->
<g id="edge2" class="edge"><title>Node1&#45;&gt;Node2</title>
<path fill="none" stroke="midnightblue" d="M533.752,-63.0236C462.275,-57.8641 268.266,-42.8746 96.0929,-20.0534"/>
<polygon fill="midnightblue" stroke="midnightblue" points="96.4675,-16.5724 86.0917,-18.7155 95.5393,-23.5106 96.4675,-16.5724"/>
</g>
<!-- Node3 -->
<g id="node4" class="node"><title>Node3</title>
<polygon fill="white" stroke="#bfbfbf" points="104,-0.5 104,-19.5 162,-19.5 162,-0.5 104,-0.5"/>
<text text-anchor="middle" x="133" y="-7.5" font-family="Helvetica,sans-Serif" font-size="10.00">Arduino.h</text>
</g>
<!-- Node1&#45;&gt;Node3 -->
<g id="edge3" class="edge"><title>Node1&#45;&gt;Node3</title>
<path fill="none" stroke="midnightblue" d="M533.864,-62.9081C470.865,-57.9806 313.549,-44.321 172.512,-20.0851"/>
<polygon fill="midnightblue" stroke="midnightblue" points="172.84,-16.5895 162.387,-18.3218 171.639,-23.4857 172.84,-16.5895"/>
</g>
<!-- Node4 -->
<g id="node5" class="node"><title>Node4</title>
<polygon fill="white" stroke="#bfbfbf" points="180.5,-0.5 180.5,-19.5 229.5,-19.5 229.5,-0.5 180.5,-0.5"/>
<text text-anchor="middle" x="205" y="-7.5" font-family="Helvetica,sans-Serif" font-size="10.00">avr/io.h</text>
</g>
<!-- Node1&#45;&gt;Node4 -->
<g id="edge4" class="edge"><title>Node1&#45;&gt;Node4</title>
<path fill="none" stroke="midnightblue" d="M533.622,-62.2959C478.62,-56.7907 353.557,-42.9865 239.708,-20.1458"/>
<polygon fill="midnightblue" stroke="midnightblue" points="240.281,-16.6907 229.784,-18.1256 238.885,-23.5501 240.281,-16.6907"/>
</g>
<!-- Node5 -->
<g id="node6" class="node"><title>Node5</title>
<polygon fill="white" stroke="#bfbfbf" points="247.5,-0.5 247.5,-19.5 324.5,-19.5 324.5,-0.5 247.5,-0.5"/>
<text text-anchor="middle" x="286" y="-7.5" font-family="Helvetica,sans-Serif" font-size="10.00">avr/interrupt.h</text>
</g>
<!-- Node1&#45;&gt;Node5 -->
<g id="edge5" class="edge"><title>Node1&#45;&gt;Node5</title>
<path fill="none" stroke="midnightblue" d="M533.76,-59.4748C486.842,-50.2953 392.291,-31.796 334.52,-20.493"/>
<polygon fill="midnightblue" stroke="midnightblue" points="335.016,-17.0238 324.53,-18.5384 333.672,-23.8935 335.016,-17.0238"/>
</g>
<!-- Node6 -->
<g id="node7" class="node"><title>Node6</title>
<polygon fill="white" stroke="#bfbfbf" points="342.5,-0.5 342.5,-19.5 415.5,-19.5 415.5,-0.5 342.5,-0.5"/>
<text text-anchor="middle" x="379" y="-7.5" font-family="Helvetica,sans-Serif" font-size="10.00">compat/twi.h</text>
</g>
<!-- Node1&#45;&gt;Node6 -->
<g id="edge6" class="edge"><title>Node1&#45;&gt;Node6</title>
<path fill="none" stroke="midnightblue" d="M533.807,-56.6808C502.69,-47.4988 452.414,-32.6631 417.64,-22.402"/>
<polygon fill="midnightblue" stroke="midnightblue" points="418.411,-18.9802 407.829,-19.5069 416.429,-25.694 418.411,-18.9802"/>
</g>
<!-- Node7 -->
<g id="node8" class="node"><title>Node7</title>
<polygon fill="white" stroke="#bfbfbf" points="434,-0.5 434,-19.5 514,-19.5 514,-0.5 434,-0.5"/>
<text text-anchor="middle" x="474" y="-7.5" font-family="Helvetica,sans-Serif" font-size="10.00">pins_arduino.h</text>
</g>
<!-- Node1&#45;&gt;Node7 -->
<g id="edge7" class="edge"><title>Node1&#45;&gt;Node7</title>
<path fill="none" stroke="midnightblue" d="M547.861,-56.324C534.134,-47.9002 513.064,-34.9709 496.936,-25.0741"/>
<polygon fill="midnightblue" stroke="midnightblue" points="498.457,-21.9016 488.104,-19.6545 494.796,-27.8678 498.457,-21.9016"/>
</g>
<!-- Node8 -->
<g id="node9" class="node"><title>Node8</title>
<polygon fill="white" stroke="#bfbfbf" points="532.5,-0.5 532.5,-19.5 591.5,-19.5 591.5,-0.5 532.5,-0.5"/>
<text text-anchor="middle" x="562" y="-7.5" font-family="Helvetica,sans-Serif" font-size="10.00">inttypes.h</text>
</g>
<!-- Node1&#45;&gt;Node8 -->
<g id="edge8" class="edge"><title>Node1&#45;&gt;Node8</title>
<path fill="none" stroke="midnightblue" d="M562,-56.083C562,-49.0059 562,-38.8611 562,-29.9865"/>
<polygon fill="midnightblue" stroke="midnightblue" points="565.5,-29.751 562,-19.7511 558.5,-29.7511 565.5,-29.751"/>
</g>
<!-- Node9 -->
<g id="node10" class="node"><title>Node9</title>
<polygon fill="white" stroke="#bfbfbf" points="610,-0.5 610,-19.5 666,-19.5 666,-0.5 610,-0.5"/>
<text text-anchor="middle" x="638" y="-7.5" font-family="Helvetica,sans-Serif" font-size="10.00">Stream.h</text>
</g>
<!-- Node1&#45;&gt;Node9 -->
<g id="edge9" class="edge"><title>Node1&#45;&gt;Node9</title>
<path fill="none" stroke="midnightblue" d="M574.211,-56.324C585.776,-48.1066 603.375,-35.6017 617.161,-25.8069"/>
<polygon fill="midnightblue" stroke="midnightblue" points="619.443,-28.4791 625.567,-19.8339 615.388,-22.7729 619.443,-28.4791"/>
</g>
<!-- Node10 -->
<g id="node11" class="node"><title>Node10</title>
<polygon fill="white" stroke="#bfbfbf" points="684,-0.5 684,-19.5 732,-19.5 732,-0.5 684,-0.5"/>
<text text-anchor="middle" x="708" y="-7.5" font-family="Helvetica,sans-Serif" font-size="10.00">stdlib.h</text>
</g>
<!-- Node1&#45;&gt;Node10 -->
<g id="edge10" class="edge"><title>Node1&#45;&gt;Node10</title>
<path fill="none" stroke="midnightblue" d="M585.134,-56.4435C609.482,-47.4381 648.007,-33.1891 675.423,-23.049"/>
<polygon fill="midnightblue" stroke="midnightblue" points="676.809,-26.2681 684.974,-19.5164 674.381,-19.7028 676.809,-26.2681"/>
</g>
<!-- Node11 -->
<g id="node12" class="node"><title>Node11</title>
<polygon fill="white" stroke="#bfbfbf" points="750.5,-0.5 750.5,-19.5 799.5,-19.5 799.5,-0.5 750.5,-0.5"/>
<text text-anchor="middle" x="775" y="-7.5" font-family="Helvetica,sans-Serif" font-size="10.00">string.h</text>
</g>
<!-- Node1&#45;&gt;Node11 -->
<g id="edge11" class="edge"><title>Node1&#45;&gt;Node11</title>
<path fill="none" stroke="midnightblue" d="M590.24,-58.0161C623.676,-49.7219 681.298,-35.3497 740.583,-20.0827"/>
<polygon fill="midnightblue" stroke="midnightblue" points="741.687,-23.4126 750.496,-17.5255 739.938,-16.6345 741.687,-23.4126"/>
</g>
<!-- Node12 -->
<g id="node13" class="node"><title>Node12</title>
<polygon fill="white" stroke="#bfbfbf" points="818,-0.5 818,-19.5 864,-19.5 864,-0.5 818,-0.5"/>
<text text-anchor="middle" x="841" y="-7.5" font-family="Helvetica,sans-Serif" font-size="10.00">stdio.h</text>
</g>
<!-- Node1&#45;&gt;Node12 -->
<g id="edge12" class="edge"><title>Node1&#45;&gt;Node12</title>
<path fill="none" stroke="midnightblue" d="M590.329,-60.727C634.719,-53.8405 723.524,-39.2952 808.223,-20.0009"/>
<polygon fill="midnightblue" stroke="midnightblue" points="809.036,-23.4054 817.995,-17.7492 807.464,-16.5841 809.036,-23.4054"/>
</g>
<!-- Node13 -->
<g id="node14" class="node"><title>Node13</title>
<polygon fill="white" stroke="#bfbfbf" points="882.5,-0.5 882.5,-19.5 939.5,-19.5 939.5,-0.5 882.5,-0.5"/>
<text text-anchor="middle" x="911" y="-7.5" font-family="Helvetica,sans-Serif" font-size="10.00">avr/wdt.h</text>
</g>
<!-- Node1&#45;&gt;Node13 -->
<g id="edge13" class="edge"><title>Node1&#45;&gt;Node13</title>
<path fill="none" stroke="midnightblue" d="M590.016,-61.7933C643.081,-55.5383 762.056,-40.6492 872.454,-19.9456"/>
<polygon fill="midnightblue" stroke="midnightblue" points="873.252,-23.3569 882.425,-18.0552 871.948,-16.4794 873.252,-23.3569"/>
</g>
<!-- Node14 -->
<g id="node15" class="node"><title>Node14</title>
<polygon fill="white" stroke="#bfbfbf" points="958,-0.5 958,-19.5 1010,-19.5 1010,-0.5 958,-0.5"/>
<text text-anchor="middle" x="984" y="-7.5" font-family="Helvetica,sans-Serif" font-size="10.00">assert.h</text>
</g>
<!-- Node1&#45;&gt;Node14 -->
<g id="edge14" class="edge"><title>Node1&#45;&gt;Node14</title>
<path fill="none" stroke="midnightblue" d="M590.361,-63.03C653.099,-58.3899 808.485,-45.3457 947.717,-20.0135"/>
<polygon fill="midnightblue" stroke="midnightblue" points="948.514,-23.4256 957.712,-18.1683 947.243,-16.5419 948.514,-23.4256"/>
</g>
</g>
</svg>
