<?xml version="1.0" encoding="UTF-8" standalone="no"?>
<!DOCTYPE svg PUBLIC "-//W3C//DTD SVG 1.1//EN"
 "http://www.w3.org/Graphics/SVG/1.1/DTD/svg11.dtd">
<!-- Generated by graphviz version 2.38.0 (20140413.2041)
 -->
<!-- Title: main Pages: 1 -->
<svg width="1061pt" height="349pt"
 viewBox="0.00 0.00 1061.00 349.14" xmlns="http://www.w3.org/2000/svg" xmlns:xlink="http://www.w3.org/1999/xlink">
<g id="graph0" class="graph" transform="scale(1 1) rotate(0) translate(4 345.143)">
<title>main</title>
<polygon fill="white" stroke="none" points="-4,4 -4,-345.143 1057,-345.143 1057,4 -4,4"/>
<!-- Node0 -->
<g id="node1" class="node"><title>Node0</title>
<polygon fill="#bfbfbf" stroke="black" points="0,-65.6435 0,-84.6435 38,-84.6435 38,-65.6435 0,-65.6435"/>
<text text-anchor="middle" x="19" y="-72.6435" font-family="Helvetica,sans-Serif" font-size="10.00">main</text>
</g>
<!-- Node1 -->
<g id="node2" class="node"><title>Node1</title>
<g id="a_node2"><a xlink:href="structLCD.html#aa01b7522d1e210f9cd071e3a5d4ae9e6" target="_top" xlink:title="LCD::changeBackground">
<polygon fill="white" stroke="black" points="74,-141.643 74,-160.643 200,-160.643 200,-141.643 74,-141.643"/>
<text text-anchor="middle" x="137" y="-148.643" font-family="Helvetica,sans-Serif" font-size="10.00">LCD::changeBackground</text>
</a>
</g>
</g>
<!-- Node0&#45;&gt;Node1 -->
<g id="edge1" class="edge"><title>Node0&#45;&gt;Node1</title>
<path fill="none" stroke="midnightblue" d="M34.6915,-84.7689C54.3898,-97.6747 89.5724,-120.725 112.851,-135.977"/>
<polygon fill="midnightblue" stroke="midnightblue" points="111.145,-139.043 121.428,-141.596 114.981,-133.188 111.145,-139.043"/>
</g>
<!-- Node14 -->
<g id="node15" class="node"><title>Node14</title>
<g id="a_node15"><a xlink:href="structLCD.html#a0fd055c88888db0e52fea11f1df24d4a" target="_top" xlink:title="LCD::drawBitmap">
<polygon fill="white" stroke="black" points="89.5,-65.6435 89.5,-84.6435 184.5,-84.6435 184.5,-65.6435 89.5,-65.6435"/>
<text text-anchor="middle" x="137" y="-72.6435" font-family="Helvetica,sans-Serif" font-size="10.00">LCD::drawBitmap</text>
</a>
</g>
</g>
<!-- Node0&#45;&gt;Node14 -->
<g id="edge32" class="edge"><title>Node0&#45;&gt;Node14</title>
<path fill="none" stroke="midnightblue" d="M38.125,-75.1435C49.308,-75.1435 64.3242,-75.1435 79.2319,-75.1435"/>
<polygon fill="midnightblue" stroke="midnightblue" points="79.4868,-78.6436 89.4867,-75.1435 79.4867,-71.6436 79.4868,-78.6436"/>
</g>
<!-- Node15 -->
<g id="node16" class="node"><title>Node15</title>
<g id="a_node16"><a xlink:href="structSoccerBoard.html#a52bcbb2cc7e2d56ee0b0deff26a45b49" target="_top" xlink:title="SoccerBoard::msleep">
<polygon fill="white" stroke="black" points="82,-27.6435 82,-46.6435 192,-46.6435 192,-27.6435 82,-27.6435"/>
<text text-anchor="middle" x="137" y="-34.6435" font-family="Helvetica,sans-Serif" font-size="10.00">SoccerBoard::msleep</text>
</a>
</g>
</g>
<!-- Node0&#45;&gt;Node15 -->
<g id="edge36" class="edge"><title>Node0&#45;&gt;Node15</title>
<path fill="none" stroke="midnightblue" d="M38.4304,-68.4484C48.8376,-64.7208 62.1049,-60.057 74,-56.1435 80.5384,-53.9923 87.4902,-51.785 94.2849,-49.6709"/>
<polygon fill="midnightblue" stroke="midnightblue" points="95.5356,-52.9479 104.061,-46.6577 93.4738,-46.2585 95.5356,-52.9479"/>
</g>
<!-- Node2 -->
<g id="node3" class="node"><title>Node2</title>
<g id="a_node3"><a xlink:href="structLCD.html#a632d9c641930fe16c0b623b82136196e" target="_top" xlink:title="LCD::init">
<polygon fill="white" stroke="black" points="236,-141.643 236,-160.643 292,-160.643 292,-141.643 236,-141.643"/>
<text text-anchor="middle" x="264" y="-148.643" font-family="Helvetica,sans-Serif" font-size="10.00">LCD::init</text>
</a>
</g>
</g>
<!-- Node1&#45;&gt;Node2 -->
<g id="edge2" class="edge"><title>Node1&#45;&gt;Node2</title>
<path fill="none" stroke="midnightblue" d="M200.134,-144.394C208.825,-144.389 217.526,-144.558 225.563,-144.901"/>
<polygon fill="midnightblue" stroke="midnightblue" points="225.516,-148.404 235.691,-145.452 225.896,-141.414 225.516,-148.404"/>
</g>
<!-- Node4 -->
<g id="node5" class="node"><title>Node4</title>
<g id="a_node5"><a xlink:href="structLCD.html#a739998fad0591a092255676c8c8d532f" target="_top" xlink:title="LCD::s1Cmd">
<polygon fill="white" stroke="black" points="729,-179.643 729,-198.643 803,-198.643 803,-179.643 729,-179.643"/>
<text text-anchor="middle" x="766" y="-186.643" font-family="Helvetica,sans-Serif" font-size="10.00">LCD::s1Cmd</text>
</a>
</g>
</g>
<!-- Node1&#45;&gt;Node4 -->
<g id="edge31" class="edge"><title>Node1&#45;&gt;Node4</title>
<path fill="none" stroke="midnightblue" d="M143.577,-160.827C166.679,-199.545 259.154,-341.143 376,-341.143 376,-341.143 376,-341.143 523.5,-341.143 623.654,-341.143 716.232,-246.35 750.74,-206.481"/>
<polygon fill="midnightblue" stroke="midnightblue" points="753.581,-208.543 757.378,-198.652 748.242,-204.016 753.581,-208.543"/>
</g>
<!-- Node2&#45;&gt;Node1 -->
<g id="edge14" class="edge"><title>Node2&#45;&gt;Node1</title>
<path fill="none" stroke="midnightblue" d="M235.691,-156.834C228.034,-157.352 219.332,-157.68 210.351,-157.818"/>
<polygon fill="midnightblue" stroke="midnightblue" points="210.108,-154.32 200.134,-157.893 210.159,-161.32 210.108,-154.32"/>
</g>
<!-- Node3 -->
<g id="node4" class="node"><title>Node3</title>
<g id="a_node4"><a xlink:href="structLCD.html#ae7a8d9bc1581cfeeb0f098c8bb6d1229" target="_top" xlink:title="LCD::s2Cmd">
<polygon fill="white" stroke="black" points="619,-217.643 619,-236.643 693,-236.643 693,-217.643 619,-217.643"/>
<text text-anchor="middle" x="656" y="-224.643" font-family="Helvetica,sans-Serif" font-size="10.00">LCD::s2Cmd</text>
</a>
</g>
</g>
<!-- Node2&#45;&gt;Node3 -->
<g id="edge3" class="edge"><title>Node2&#45;&gt;Node3</title>
<path fill="none" stroke="midnightblue" d="M280.234,-160.969C291.971,-171.464 309.31,-186.643 328,-194.143 421.829,-231.8 542.865,-228.757 608.19,-226.368"/>
<polygon fill="midnightblue" stroke="midnightblue" points="608.704,-229.852 618.568,-225.983 608.444,-222.857 608.704,-229.852"/>
</g>
<!-- Node9 -->
<g id="node10" class="node"><title>Node9</title>
<g id="a_node10"><a xlink:href="structLCD.html#ad31ee94d401b7c28d6cc2f472e2eb8fd" target="_top" xlink:title="LCD::changeMode">
<polygon fill="white" stroke="black" points="328,-141.643 328,-160.643 426,-160.643 426,-141.643 328,-141.643"/>
<text text-anchor="middle" x="377" y="-148.643" font-family="Helvetica,sans-Serif" font-size="10.00">LCD::changeMode</text>
</a>
</g>
</g>
<!-- Node2&#45;&gt;Node9 -->
<g id="edge11" class="edge"><title>Node2&#45;&gt;Node9</title>
<path fill="none" stroke="midnightblue" d="M292.154,-145.246C299.988,-144.729 308.852,-144.448 317.81,-144.401"/>
<polygon fill="midnightblue" stroke="midnightblue" points="317.898,-147.901 327.914,-144.447 317.93,-140.901 317.898,-147.901"/>
</g>
<!-- Node10 -->
<g id="node11" class="node"><title>Node10</title>
<g id="a_node11"><a xlink:href="structLCD.html#a75cacb94de3b3ff71e9a4497b5cc4a81" target="_top" xlink:title="LCD::changeBrightness">
<polygon fill="white" stroke="black" points="462,-282.643 462,-301.643 583,-301.643 583,-282.643 462,-282.643"/>
<text text-anchor="middle" x="522.5" y="-289.643" font-family="Helvetica,sans-Serif" font-size="10.00">LCD::changeBrightness</text>
</a>
</g>
</g>
<!-- Node2&#45;&gt;Node10 -->
<g id="edge15" class="edge"><title>Node2&#45;&gt;Node10</title>
<path fill="none" stroke="midnightblue" d="M269.356,-160.912C276.986,-181.557 295.167,-227.4 328,-250.143 363.821,-274.957 412.134,-283.216 451.523,-286.388"/>
<polygon fill="midnightblue" stroke="midnightblue" points="451.367,-289.886 461.592,-287.109 451.867,-282.904 451.367,-289.886"/>
</g>
<!-- Node11 -->
<g id="node12" class="node"><title>Node11</title>
<g id="a_node12"><a xlink:href="structLCD.html#ad3120f397273bac2ad60e0291554b9e6" target="_top" xlink:title="LCD::clear">
<polygon fill="white" stroke="black" points="345,-65.6435 345,-84.6435 409,-84.6435 409,-65.6435 345,-65.6435"/>
<text text-anchor="middle" x="377" y="-72.6435" font-family="Helvetica,sans-Serif" font-size="10.00">LCD::clear</text>
</a>
</g>
</g>
<!-- Node2&#45;&gt;Node11 -->
<g id="edge20" class="edge"><title>Node2&#45;&gt;Node11</title>
<path fill="none" stroke="midnightblue" d="M269.92,-141.451C280.149,-127.731 304.701,-105.303 328,-90.1435 330.572,-88.4698 333.277,-86.8296 336.038,-85.2609"/>
<polygon fill="midnightblue" stroke="midnightblue" points="337.752,-88.3136 344.953,-80.5413 334.477,-82.1271 337.752,-88.3136"/>
</g>
<!-- Node3&#45;&gt;Node2 -->
<g id="edge4" class="edge"><title>Node3&#45;&gt;Node2</title>
<path fill="none" stroke="midnightblue" d="M620.046,-236.685C558.497,-246.199 427.845,-252.214 328,-212.143 306.201,-203.395 286.239,-184.201 274.861,-169.302"/>
<polygon fill="midnightblue" stroke="midnightblue" points="277.5,-166.963 268.946,-160.712 271.735,-170.933 277.5,-166.963"/>
</g>
<!-- Node3&#45;&gt;Node4 -->
<g id="edge5" class="edge"><title>Node3&#45;&gt;Node4</title>
<path fill="none" stroke="midnightblue" d="M684.253,-217.554C697.555,-212.874 713.754,-207.174 728.142,-202.112"/>
<polygon fill="midnightblue" stroke="midnightblue" points="729.484,-205.35 737.756,-198.729 727.161,-198.747 729.484,-205.35"/>
</g>
<!-- Node4&#45;&gt;Node2 -->
<g id="edge6" class="edge"><title>Node4&#45;&gt;Node2</title>
<path fill="none" stroke="midnightblue" d="M728.995,-190.589C653.856,-192.949 475.116,-195.122 328,-170.143 319.08,-168.629 309.65,-166.233 300.879,-163.646"/>
<polygon fill="midnightblue" stroke="midnightblue" points="301.906,-160.301 291.318,-160.681 299.833,-166.986 301.906,-160.301"/>
</g>
<!-- Node5 -->
<g id="node6" class="node"><title>Node5</title>
<g id="a_node6"><a xlink:href="classeagle__impl_1_1TwoWire.html#a1876ffdb16fb185c14a75e1251cef5e4" target="_top" xlink:title="eagle_impl::TwoWire\l::beginTransmission">
<polygon fill="white" stroke="black" points="839,-198.143 839,-228.143 947,-228.143 947,-198.143 839,-198.143"/>
<text text-anchor="start" x="847" y="-216.143" font-family="Helvetica,sans-Serif" font-size="10.00">eagle_impl::TwoWire</text>
<text text-anchor="middle" x="893" y="-205.143" font-family="Helvetica,sans-Serif" font-size="10.00">::beginTransmission</text>
</a>
</g>
</g>
<!-- Node4&#45;&gt;Node5 -->
<g id="edge7" class="edge"><title>Node4&#45;&gt;Node5</title>
<path fill="none" stroke="midnightblue" d="M803.155,-196.085C811.223,-197.634 820.008,-199.321 828.81,-201.011"/>
<polygon fill="midnightblue" stroke="midnightblue" points="828.239,-204.465 838.72,-202.914 829.559,-197.591 828.239,-204.465"/>
</g>
<!-- Node6 -->
<g id="node7" class="node"><title>Node6</title>
<g id="a_node7"><a xlink:href="classeagle__impl_1_1TwoWire.html#a2b5f9f156b6d281746a2a6ca5707dad3" target="_top" xlink:title="eagle_impl::TwoWire\l::write">
<polygon fill="white" stroke="black" points="839,-92.1435 839,-122.143 947,-122.143 947,-92.1435 839,-92.1435"/>
<text text-anchor="start" x="847" y="-110.143" font-family="Helvetica,sans-Serif" font-size="10.00">eagle_impl::TwoWire</text>
<text text-anchor="middle" x="893" y="-99.1435" font-family="Helvetica,sans-Serif" font-size="10.00">::write</text>
</a>
</g>
</g>
<!-- Node4&#45;&gt;Node6 -->
<g id="edge8" class="edge"><title>Node4&#45;&gt;Node6</title>
<path fill="none" stroke="midnightblue" d="M780.691,-179.582C795.094,-169.582 818.474,-153.51 839,-140.143 845.307,-136.036 852.092,-131.729 858.631,-127.633"/>
<polygon fill="midnightblue" stroke="midnightblue" points="860.691,-130.474 867.329,-122.216 856.99,-124.532 860.691,-130.474"/>
</g>
<!-- Node8 -->
<g id="node9" class="node"><title>Node8</title>
<g id="a_node9"><a xlink:href="classeagle__impl_1_1TwoWire.html#af80f9a7b85a3a81a035ca94c95bcdc1d" target="_top" xlink:title="eagle_impl::TwoWire\l::endTransmission">
<polygon fill="white" stroke="black" points="839,-149.143 839,-179.143 947,-179.143 947,-149.143 839,-149.143"/>
<text text-anchor="start" x="847" y="-167.143" font-family="Helvetica,sans-Serif" font-size="10.00">eagle_impl::TwoWire</text>
<text text-anchor="middle" x="893" y="-156.143" font-family="Helvetica,sans-Serif" font-size="10.00">::endTransmission</text>
</a>
</g>
</g>
<!-- Node4&#45;&gt;Node8 -->
<g id="edge10" class="edge"><title>Node4&#45;&gt;Node8</title>
<path fill="none" stroke="midnightblue" d="M803.155,-181.912C811.223,-180.299 820.008,-178.542 828.81,-176.781"/>
<polygon fill="midnightblue" stroke="midnightblue" points="829.6,-180.193 838.72,-174.8 828.227,-173.329 829.6,-180.193"/>
</g>
<!-- Node7 -->
<g id="node8" class="node"><title>Node7</title>
<g id="a_node8"><a xlink:href="eBoard_8h.html#abb66f08d8061c1064047324c1bacc2a9" target="_top" xlink:title="twi_transmit">
<polygon fill="white" stroke="black" points="983,-97.6435 983,-116.643 1053,-116.643 1053,-97.6435 983,-97.6435"/>
<text text-anchor="middle" x="1018" y="-104.643" font-family="Helvetica,sans-Serif" font-size="10.00">twi_transmit</text>
</a>
</g>
</g>
<!-- Node6&#45;&gt;Node7 -->
<g id="edge9" class="edge"><title>Node6&#45;&gt;Node7</title>
<path fill="none" stroke="midnightblue" d="M947.234,-107.143C955.725,-107.143 964.431,-107.143 972.686,-107.143"/>
<polygon fill="midnightblue" stroke="midnightblue" points="972.854,-110.644 982.854,-107.143 972.854,-103.644 972.854,-110.644"/>
</g>
<!-- Node9&#45;&gt;Node2 -->
<g id="edge12" class="edge"><title>Node9&#45;&gt;Node2</title>
<path fill="none" stroke="midnightblue" d="M327.914,-157.84C319.305,-157.965 310.454,-157.871 302.209,-157.557"/>
<polygon fill="midnightblue" stroke="midnightblue" points="302.32,-154.058 292.154,-157.041 301.961,-161.048 302.32,-154.058"/>
</g>
<!-- Node9&#45;&gt;Node4 -->
<g id="edge13" class="edge"><title>Node9&#45;&gt;Node4</title>
<path fill="none" stroke="midnightblue" d="M426.212,-153.077C488.172,-155.961 598.968,-162.463 693,-175.143 701.436,-176.281 710.375,-177.779 718.979,-179.372"/>
<polygon fill="midnightblue" stroke="midnightblue" points="718.397,-182.824 728.877,-181.269 719.714,-175.949 718.397,-182.824"/>
</g>
<!-- Node10&#45;&gt;Node2 -->
<g id="edge16" class="edge"><title>Node10&#45;&gt;Node2</title>
<path fill="none" stroke="midnightblue" d="M478.395,-301.654C436.399,-304.256 372.542,-298.999 328,-268.143 294.595,-245.003 276.356,-197.952 268.966,-170.816"/>
<polygon fill="midnightblue" stroke="midnightblue" points="272.302,-169.725 266.518,-160.849 265.504,-171.395 272.302,-169.725"/>
</g>
<!-- Node10&#45;&gt;Node3 -->
<g id="edge17" class="edge"><title>Node10&#45;&gt;Node3</title>
<path fill="none" stroke="midnightblue" d="M542.903,-282.552C564.949,-271.655 601.139,-253.767 626.416,-241.272"/>
<polygon fill="midnightblue" stroke="midnightblue" points="628.103,-244.343 635.517,-236.774 625.002,-238.067 628.103,-244.343"/>
</g>
<!-- Node10&#45;&gt;Node5 -->
<g id="edge18" class="edge"><title>Node10&#45;&gt;Node5</title>
<path fill="none" stroke="midnightblue" d="M583.233,-299.212C641.179,-303.818 730.701,-304.904 803,-279.143 828.694,-269.988 853.23,-250.727 870.007,-235.363"/>
<polygon fill="midnightblue" stroke="midnightblue" points="872.728,-237.608 877.591,-228.195 867.92,-232.52 872.728,-237.608"/>
</g>
<!-- Node10&#45;&gt;Node8 -->
<g id="edge19" class="edge"><title>Node10&#45;&gt;Node8</title>
<path fill="none" stroke="midnightblue" d="M566.262,-282.604C622.06,-269.417 722.113,-243.215 803,-208.143 819.599,-200.947 822.815,-197.227 839,-189.143 842.584,-187.354 846.319,-185.523 850.074,-183.706"/>
<polygon fill="midnightblue" stroke="midnightblue" points="851.869,-186.728 859.375,-179.251 848.844,-180.415 851.869,-186.728"/>
</g>
<!-- Node11&#45;&gt;Node2 -->
<g id="edge21" class="edge"><title>Node11&#45;&gt;Node2</title>
<path fill="none" stroke="midnightblue" d="M368.226,-84.6471C358.483,-91.574 341.432,-99.4037 328,-108.143 315.401,-116.341 302.436,-126.664 291.568,-135.308"/>
<polygon fill="midnightblue" stroke="midnightblue" points="289.377,-132.579 283.706,-141.528 293.72,-138.068 289.377,-132.579"/>
</g>
<!-- Node12 -->
<g id="node13" class="node"><title>Node12</title>
<g id="a_node13"><a xlink:href="structLCD.html#ad1a67d455563026a5064ef9cab86ae4d" target="_top" xlink:title="LCD::setCursor">
<polygon fill="white" stroke="black" points="479.5,-103.643 479.5,-122.643 565.5,-122.643 565.5,-103.643 479.5,-103.643"/>
<text text-anchor="middle" x="522.5" y="-110.643" font-family="Helvetica,sans-Serif" font-size="10.00">LCD::setCursor</text>
</a>
</g>
</g>
<!-- Node11&#45;&gt;Node12 -->
<g id="edge22" class="edge"><title>Node11&#45;&gt;Node12</title>
<path fill="none" stroke="midnightblue" d="M409.137,-83.3889C428.652,-88.5566 454.144,-95.3069 475.912,-101.071"/>
<polygon fill="midnightblue" stroke="midnightblue" points="475.054,-104.465 485.617,-103.641 476.846,-97.6981 475.054,-104.465"/>
</g>
<!-- Node13 -->
<g id="node14" class="node"><title>Node13</title>
<g id="a_node14"><a xlink:href="structLCD.html#ae5873763db265cd00da32664cce88873" target="_top" xlink:title="LCD::s1Dat">
<polygon fill="white" stroke="black" points="621.5,-65.6435 621.5,-84.6435 690.5,-84.6435 690.5,-65.6435 621.5,-65.6435"/>
<text text-anchor="middle" x="656" y="-72.6435" font-family="Helvetica,sans-Serif" font-size="10.00">LCD::s1Dat</text>
</a>
</g>
</g>
<!-- Node11&#45;&gt;Node13 -->
<g id="edge26" class="edge"><title>Node11&#45;&gt;Node13</title>
<path fill="none" stroke="midnightblue" d="M409.237,-75.1435C458.654,-75.1435 555.012,-75.1435 611.275,-75.1435"/>
<polygon fill="midnightblue" stroke="midnightblue" points="611.293,-78.6436 621.293,-75.1435 611.293,-71.6436 611.293,-78.6436"/>
</g>
<!-- Node12&#45;&gt;Node2 -->
<g id="edge23" class="edge"><title>Node12&#45;&gt;Node2</title>
<path fill="none" stroke="midnightblue" d="M479.256,-114.917C439.822,-117.132 379.491,-121.952 328,-132.143 319.462,-133.833 310.426,-136.2 301.945,-138.691"/>
<polygon fill="midnightblue" stroke="midnightblue" points="300.845,-135.368 292.306,-141.64 302.892,-142.061 300.845,-135.368"/>
</g>
<!-- Node12&#45;&gt;Node3 -->
<g id="edge24" class="edge"><title>Node12&#45;&gt;Node3</title>
<path fill="none" stroke="midnightblue" d="M534.712,-122.863C557.227,-142.382 608.158,-186.535 635.981,-210.655"/>
<polygon fill="midnightblue" stroke="midnightblue" points="633.968,-213.543 643.817,-217.448 638.553,-208.253 633.968,-213.543"/>
</g>
<!-- Node12&#45;&gt;Node4 -->
<g id="edge25" class="edge"><title>Node12&#45;&gt;Node4</title>
<path fill="none" stroke="midnightblue" d="M565.503,-113.133C600.815,-114.498 651.953,-119.748 693,-137.143 711.663,-145.053 712.556,-153.292 729,-165.143 733.052,-168.064 737.429,-171.087 741.687,-173.962"/>
<polygon fill="midnightblue" stroke="midnightblue" points="739.857,-176.948 750.121,-179.575 743.735,-171.12 739.857,-176.948"/>
</g>
<!-- Node13&#45;&gt;Node2 -->
<g id="edge27" class="edge"><title>Node13&#45;&gt;Node2</title>
<path fill="none" stroke="midnightblue" d="M630.576,-65.5585C573.578,-44.8411 428.962,-1.95222 328,-56.1435 298.195,-72.1414 280.105,-109.128 271.373,-131.944"/>
<polygon fill="midnightblue" stroke="midnightblue" points="268,-130.983 267.92,-141.578 274.589,-133.345 268,-130.983"/>
</g>
<!-- Node13&#45;&gt;Node5 -->
<g id="edge28" class="edge"><title>Node13&#45;&gt;Node5</title>
<path fill="none" stroke="midnightblue" d="M668.306,-84.6909C682.146,-96.1593 706.521,-115.661 729,-130.143 734.83,-133.899 832.782,-186.073 839,-189.143 842.129,-190.689 845.378,-192.254 848.659,-193.806"/>
<polygon fill="midnightblue" stroke="midnightblue" points="847.37,-197.066 857.913,-198.115 850.325,-190.721 847.37,-197.066"/>
</g>
<!-- Node13&#45;&gt;Node6 -->
<g id="edge29" class="edge"><title>Node13&#45;&gt;Node6</title>
<path fill="none" stroke="midnightblue" d="M690.67,-79.7283C726.581,-84.6183 784.291,-92.4767 828.737,-98.5289"/>
<polygon fill="midnightblue" stroke="midnightblue" points="828.484,-102.027 838.865,-99.9081 829.429,-95.0908 828.484,-102.027"/>
</g>
<!-- Node13&#45;&gt;Node8 -->
<g id="edge30" class="edge"><title>Node13&#45;&gt;Node8</title>
<path fill="none" stroke="midnightblue" d="M682.149,-84.668C720.335,-99.1299 793.674,-126.905 842.732,-145.484"/>
<polygon fill="midnightblue" stroke="midnightblue" points="841.611,-148.802 852.202,-149.071 844.09,-142.256 841.611,-148.802"/>
</g>
<!-- Node14&#45;&gt;Node2 -->
<g id="edge33" class="edge"><title>Node14&#45;&gt;Node2</title>
<path fill="none" stroke="midnightblue" d="M153.831,-84.7689C175.246,-97.7889 213.643,-121.134 238.718,-136.38"/>
<polygon fill="midnightblue" stroke="midnightblue" points="236.934,-139.392 247.297,-141.596 240.571,-133.41 236.934,-139.392"/>
</g>
<!-- Node14&#45;&gt;Node12 -->
<g id="edge34" class="edge"><title>Node14&#45;&gt;Node12</title>
<path fill="none" stroke="midnightblue" d="M172.885,-65.554C227.819,-52.0616 337.359,-31.7016 426,-56.1435 454.793,-64.0829 483.659,-83.2392 501.996,-97.1579"/>
<polygon fill="midnightblue" stroke="midnightblue" points="500.072,-100.096 510.106,-103.498 504.383,-94.5815 500.072,-100.096"/>
</g>
<!-- Node14&#45;&gt;Node13 -->
<g id="edge35" class="edge"><title>Node14&#45;&gt;Node13</title>
<path fill="none" stroke="midnightblue" d="M170.645,-65.631C180.157,-62.727 190.535,-59.4294 200,-56.1435 216.218,-50.5135 219.462,-46.748 236,-42.1435 384.729,-0.734602 435.454,19.3005 583,-26.1435 603.583,-32.4829 623.551,-46.9371 637.216,-58.5135"/>
<polygon fill="midnightblue" stroke="midnightblue" points="635.043,-61.2641 644.859,-65.2513 639.672,-56.013 635.043,-61.2641"/>
</g>
</g>
</svg>
