<?xml version="1.0" encoding="UTF-8" standalone="no"?>
<!DOCTYPE svg PUBLIC "-//W3C//DTD SVG 1.1//EN"
 "http://www.w3.org/Graphics/SVG/1.1/DTD/svg11.dtd">
<!-- Generated by graphviz version 2.40.1 (20161225.0304)
 -->
<!-- Title: main Pages: 1 -->
<svg width="228pt" height="104pt"
 viewBox="0.00 0.00 228.00 104.00" xmlns="http://www.w3.org/2000/svg" xmlns:xlink="http://www.w3.org/1999/xlink">
<g id="graph0" class="graph" transform="scale(1 1) rotate(0) translate(4 100)">
<title>main</title>
<polygon fill="#ffffff" stroke="transparent" points="-4,4 -4,-100 224,-100 224,4 -4,4"/>
<!-- Node0 -->
<g id="node1" class="node">
<title>Node0</title>
<polygon fill="#bfbfbf" stroke="#000000" points="0,-38.5 0,-57.5 41,-57.5 41,-38.5 0,-38.5"/>
<text text-anchor="middle" x="20.5" y="-45.5" font-family="Hack" font-size="10.00" fill="#000000">main</text>
</g>
<!-- Node1 -->
<g id="node2" class="node">
<title>Node1</title>
<g id="a_node2"><a xlink:href="structLCD.html#aa01b7522d1e210f9cd071e3a5d4ae9e6" target="_top" xlink:title="changes the background of the display ">
<polygon fill="#ffffff" stroke="#000000" points="77,-76.5 77,-95.5 220,-95.5 220,-76.5 77,-76.5"/>
<text text-anchor="middle" x="148.5" y="-83.5" font-family="Hack" font-size="10.00" fill="#000000">LCD::changeBackground</text>
</a>
</g>
</g>
<!-- Node0&#45;&gt;Node1 -->
<g id="edge1" class="edge">
<title>Node0&#45;&gt;Node1</title>
<path fill="none" stroke="#191970" d="M41.0607,-55.2705C51.7301,-58.9526 65.0082,-63.3945 77,-67 84.7827,-69.34 93.086,-71.6839 101.1773,-73.887"/>
<polygon fill="#191970" stroke="#191970" points="100.3269,-77.2825 110.8924,-76.4946 102.1415,-70.5218 100.3269,-77.2825"/>
</g>
<!-- Node2 -->
<g id="node3" class="node">
<title>Node2</title>
<g id="a_node3"><a xlink:href="structLCD.html#a0fd055c88888db0e52fea11f1df24d4a" target="_top" xlink:title="draws a bitmap representet as an array of bytes ">
<polygon fill="#ffffff" stroke="#000000" points="95,-38.5 95,-57.5 202,-57.5 202,-38.5 95,-38.5"/>
<text text-anchor="middle" x="148.5" y="-45.5" font-family="Hack" font-size="10.00" fill="#000000">LCD::drawBitmap</text>
</a>
</g>
</g>
<!-- Node0&#45;&gt;Node2 -->
<g id="edge2" class="edge">
<title>Node0&#45;&gt;Node2</title>
<path fill="none" stroke="#191970" d="M41.0654,-48C53.0074,-48 68.7695,-48 84.5293,-48"/>
<polygon fill="#191970" stroke="#191970" points="84.8453,-51.5001 94.8452,-48 84.8452,-44.5001 84.8453,-51.5001"/>
</g>
<!-- Node3 -->
<g id="node4" class="node">
<title>Node3</title>
<g id="a_node4"><a xlink:href="structSoccerBoard.html#a52bcbb2cc7e2d56ee0b0deff26a45b49" target="_top" xlink:title="Say goodnight! ">
<polygon fill="#ffffff" stroke="#000000" points="83,-.5 83,-19.5 214,-19.5 214,-.5 83,-.5"/>
<text text-anchor="middle" x="148.5" y="-7.5" font-family="Hack" font-size="10.00" fill="#000000">SoccerBoard::msleep</text>
</a>
</g>
</g>
<!-- Node0&#45;&gt;Node3 -->
<g id="edge3" class="edge">
<title>Node0&#45;&gt;Node3</title>
<path fill="none" stroke="#191970" d="M41.0607,-40.7295C51.7301,-37.0474 65.0082,-32.6055 77,-29 84.7827,-26.66 93.086,-24.3161 101.1773,-22.113"/>
<polygon fill="#191970" stroke="#191970" points="102.1415,-25.4782 110.8924,-19.5054 100.3269,-18.7175 102.1415,-25.4782"/>
</g>
</g>
</svg>
