<?xml version="1.0" encoding="UTF-8" standalone="no"?>
<!DOCTYPE svg PUBLIC "-//W3C//DTD SVG 1.1//EN"
 "http://www.w3.org/Graphics/SVG/1.1/DTD/svg11.dtd">
<!-- Generated by graphviz version 2.38.0 (20140413.2041)
 -->
<!-- Title: /eagleoutice/projects/github/eBoard/examples/dancing_dragon.cpp Pages: 1 -->
<svg width="279pt" height="117pt"
 viewBox="0.00 0.00 279.00 117.00" xmlns="http://www.w3.org/2000/svg" xmlns:xlink="http://www.w3.org/1999/xlink">
<g id="graph0" class="graph" transform="scale(1 1) rotate(0) translate(4 113)">
<title>/eagleoutice/projects/github/eBoard/examples/dancing_dragon.cpp</title>
<polygon fill="white" stroke="none" points="-4,4 -4,-113 275,-113 275,4 -4,4"/>
<!-- Node0 -->
<g id="node1" class="node"><title>Node0</title>
<polygon fill="#bfbfbf" stroke="black" points="21,-67.5 21,-108.5 146,-108.5 146,-67.5 21,-67.5"/>
<text text-anchor="start" x="29" y="-96.5" font-family="Helvetica,sans-Serif" font-size="10.00">/eagleoutice/projects</text>
<text text-anchor="start" x="29" y="-85.5" font-family="Helvetica,sans-Serif" font-size="10.00">/github/eBoard/examples</text>
<text text-anchor="middle" x="83.5" y="-74.5" font-family="Helvetica,sans-Serif" font-size="10.00">/dancing_dragon.cpp</text>
</g>
<!-- Node1 -->
<g id="node2" class="node"><title>Node1</title>
<polygon fill="white" stroke="#bfbfbf" points="0,-6 0,-25 45,-25 45,-6 0,-6"/>
<text text-anchor="middle" x="22.5" y="-13" font-family="Helvetica,sans-Serif" font-size="10.00">Wire.h</text>
</g>
<!-- Node0&#45;&gt;Node1 -->
<g id="edge1" class="edge"><title>Node0&#45;&gt;Node1</title>
<path fill="none" stroke="midnightblue" d="M66.5081,-67.3618C57.1441,-56.5395 45.6513,-43.2568 36.7588,-32.9795"/>
<polygon fill="midnightblue" stroke="midnightblue" points="39.1946,-30.4455 30.0046,-25.1734 33.9011,-35.0257 39.1946,-30.4455"/>
</g>
<!-- Node2 -->
<g id="node3" class="node"><title>Node2</title>
<polygon fill="white" stroke="#bfbfbf" points="63,-6 63,-25 104,-25 104,-6 63,-6"/>
<text text-anchor="middle" x="83.5" y="-13" font-family="Helvetica,sans-Serif" font-size="10.00">SPI.h</text>
</g>
<!-- Node0&#45;&gt;Node2 -->
<g id="edge2" class="edge"><title>Node0&#45;&gt;Node2</title>
<path fill="none" stroke="midnightblue" d="M83.5,-67.3618C83.5,-57.297 83.5,-45.1043 83.5,-35.18"/>
<polygon fill="midnightblue" stroke="midnightblue" points="87.0001,-35.1733 83.5,-25.1734 80.0001,-35.1734 87.0001,-35.1733"/>
</g>
<!-- Node3 -->
<g id="node4" class="node"><title>Node3</title>
<polygon fill="white" stroke="#bfbfbf" points="122,-0.5 122,-30.5 271,-30.5 271,-0.5 122,-0.5"/>
<text text-anchor="start" x="130" y="-18.5" font-family="Helvetica,sans-Serif" font-size="10.00">/home/eagleoutice/Dokumente</text>
<text text-anchor="middle" x="196.5" y="-7.5" font-family="Helvetica,sans-Serif" font-size="10.00">/proj/_sia/src/eBoard.h</text>
</g>
<!-- Node0&#45;&gt;Node3 -->
<g id="edge3" class="edge"><title>Node0&#45;&gt;Node3</title>
<path fill="none" stroke="midnightblue" d="M114.977,-67.3618C130.59,-57.6211 149.397,-45.8872 165.012,-36.1455"/>
<polygon fill="midnightblue" stroke="midnightblue" points="167.156,-38.9328 173.788,-30.67 163.451,-32.9938 167.156,-38.9328"/>
</g>
</g>
</svg>
