<?xml version="1.0" encoding="UTF-8" standalone="no"?>
<!DOCTYPE svg PUBLIC "-//W3C//DTD SVG 1.1//EN"
 "http://www.w3.org/Graphics/SVG/1.1/DTD/svg11.dtd">
<!-- Generated by graphviz version 2.38.0 (20140413.2041)
 -->
<!-- Title: /eagleoutice/projects/github/eBoard/examples/dancing_dragon/dancing_dragon.cpp Pages: 1 -->
<svg width="828pt" height="184pt"
 viewBox="0.00 0.00 828.00 184.00" xmlns="http://www.w3.org/2000/svg" xmlns:xlink="http://www.w3.org/1999/xlink">
<g id="graph0" class="graph" transform="scale(1 1) rotate(0) translate(4 180)">
<title>/eagleoutice/projects/github/eBoard/examples/dancing_dragon/dancing_dragon.cpp</title>
<polygon fill="white" stroke="none" points="-4,4 -4,-180 824,-180 824,4 -4,4"/>
<!-- Node0 -->
<g id="node1" class="node"><title>Node0</title>
<polygon fill="#bfbfbf" stroke="black" points="385.5,-123.5 385.5,-175.5 510.5,-175.5 510.5,-123.5 385.5,-123.5"/>
<text text-anchor="start" x="393.5" y="-163.5" font-family="Helvetica,sans-Serif" font-size="10.00">/eagleoutice/projects</text>
<text text-anchor="start" x="393.5" y="-152.5" font-family="Helvetica,sans-Serif" font-size="10.00">/github/eBoard/examples</text>
<text text-anchor="start" x="393.5" y="-141.5" font-family="Helvetica,sans-Serif" font-size="10.00">/dancing_dragon/dancing</text>
<text text-anchor="middle" x="448" y="-130.5" font-family="Helvetica,sans-Serif" font-size="10.00">_dragon.cpp</text>
</g>
<!-- Node1 -->
<g id="node2" class="node"><title>Node1</title>
<g id="a_node2"><a xlink:href="eBoard_8h.html" target="_top" xlink:title="/eagleoutice/projects\l/github/eBoard/eBoard.h">
<polygon fill="white" stroke="black" points="387,-56.5 387,-86.5 509,-86.5 509,-56.5 387,-56.5"/>
<text text-anchor="start" x="395" y="-74.5" font-family="Helvetica,sans-Serif" font-size="10.00">/eagleoutice/projects</text>
<text text-anchor="middle" x="448" y="-63.5" font-family="Helvetica,sans-Serif" font-size="10.00">/github/eBoard/eBoard.h</text>
</a>
</g>
</g>
<!-- Node0&#45;&gt;Node1 -->
<g id="edge1" class="edge"><title>Node0&#45;&gt;Node1</title>
<path fill="none" stroke="midnightblue" d="M448,-123.193C448,-114.786 448,-105.443 448,-97.0914"/>
<polygon fill="midnightblue" stroke="midnightblue" points="451.5,-96.8452 448,-86.8453 444.5,-96.8453 451.5,-96.8452"/>
</g>
<!-- Node2 -->
<g id="node3" class="node"><title>Node2</title>
<polygon fill="white" stroke="#bfbfbf" points="0,-0.5 0,-19.5 86,-19.5 86,-0.5 0,-0.5"/>
<text text-anchor="middle" x="43" y="-7.5" font-family="Helvetica,sans-Serif" font-size="10.00">avr/pgmspace.h</text>
</g>
<!-- Node1&#45;&gt;Node2 -->
<g id="edge2" class="edge"><title>Node1&#45;&gt;Node2</title>
<path fill="none" stroke="midnightblue" d="M386.698,-62.2846C318.359,-53.0014 204.287,-37.1354 96.2164,-20.1555"/>
<polygon fill="midnightblue" stroke="midnightblue" points="96.5373,-16.6629 86.1141,-18.5621 95.4467,-23.5774 96.5373,-16.6629"/>
</g>
<!-- Node3 -->
<g id="node4" class="node"><title>Node3</title>
<polygon fill="white" stroke="#bfbfbf" points="104,-0.5 104,-19.5 162,-19.5 162,-0.5 104,-0.5"/>
<text text-anchor="middle" x="133" y="-7.5" font-family="Helvetica,sans-Serif" font-size="10.00">Arduino.h</text>
</g>
<!-- Node1&#45;&gt;Node3 -->
<g id="edge3" class="edge"><title>Node1&#45;&gt;Node3</title>
<path fill="none" stroke="midnightblue" d="M386.757,-60.2801C332.816,-51.0638 251.892,-36.7175 172.224,-20.1707"/>
<polygon fill="midnightblue" stroke="midnightblue" points="172.516,-16.6561 162.011,-18.0358 171.083,-23.508 172.516,-16.6561"/>
</g>
<!-- Node4 -->
<g id="node5" class="node"><title>Node4</title>
<polygon fill="white" stroke="#bfbfbf" points="180.5,-0.5 180.5,-19.5 229.5,-19.5 229.5,-0.5 180.5,-0.5"/>
<text text-anchor="middle" x="205" y="-7.5" font-family="Helvetica,sans-Serif" font-size="10.00">avr/io.h</text>
</g>
<!-- Node1&#45;&gt;Node4 -->
<g id="edge4" class="edge"><title>Node1&#45;&gt;Node4</title>
<path fill="none" stroke="midnightblue" d="M387.228,-56.399C347.61,-47.0879 294.544,-34.3951 239.734,-20.3973"/>
<polygon fill="midnightblue" stroke="midnightblue" points="240.401,-16.9552 229.845,-17.8623 238.663,-23.7359 240.401,-16.9552"/>
</g>
<!-- Node5 -->
<g id="node6" class="node"><title>Node5</title>
<polygon fill="white" stroke="#bfbfbf" points="247.5,-0.5 247.5,-19.5 324.5,-19.5 324.5,-0.5 247.5,-0.5"/>
<text text-anchor="middle" x="286" y="-7.5" font-family="Helvetica,sans-Serif" font-size="10.00">avr/interrupt.h</text>
</g>
<!-- Node1&#45;&gt;Node5 -->
<g id="edge5" class="edge"><title>Node1&#45;&gt;Node5</title>
<path fill="none" stroke="midnightblue" d="M409.608,-56.3993C382.063,-46.2826 345.329,-32.7905 319.079,-23.1493"/>
<polygon fill="midnightblue" stroke="midnightblue" points="320.166,-19.8201 309.572,-19.6578 317.753,-26.3909 320.166,-19.8201"/>
</g>
<!-- Node6 -->
<g id="node7" class="node"><title>Node6</title>
<polygon fill="white" stroke="#bfbfbf" points="342.5,-0.5 342.5,-19.5 401.5,-19.5 401.5,-0.5 342.5,-0.5"/>
<text text-anchor="middle" x="372" y="-7.5" font-family="Helvetica,sans-Serif" font-size="10.00">inttypes.h</text>
</g>
<!-- Node1&#45;&gt;Node6 -->
<g id="edge6" class="edge"><title>Node1&#45;&gt;Node6</title>
<path fill="none" stroke="midnightblue" d="M429.989,-56.3993C418.262,-47.2185 402.985,-35.2579 391.055,-25.9182"/>
<polygon fill="midnightblue" stroke="midnightblue" points="393.09,-23.0664 383.059,-19.6578 388.775,-28.5782 393.09,-23.0664"/>
</g>
<!-- Node7 -->
<g id="node8" class="node"><title>Node7</title>
<polygon fill="white" stroke="#bfbfbf" points="420,-0.5 420,-19.5 476,-19.5 476,-0.5 420,-0.5"/>
<text text-anchor="middle" x="448" y="-7.5" font-family="Helvetica,sans-Serif" font-size="10.00">Stream.h</text>
</g>
<!-- Node1&#45;&gt;Node7 -->
<g id="edge7" class="edge"><title>Node1&#45;&gt;Node7</title>
<path fill="none" stroke="midnightblue" d="M448,-56.3993C448,-48.4664 448,-38.458 448,-29.8583"/>
<polygon fill="midnightblue" stroke="midnightblue" points="451.5,-29.6577 448,-19.6578 444.5,-29.6578 451.5,-29.6577"/>
</g>
<!-- Node8 -->
<g id="node9" class="node"><title>Node8</title>
<polygon fill="white" stroke="#bfbfbf" points="494,-0.5 494,-19.5 542,-19.5 542,-0.5 494,-0.5"/>
<text text-anchor="middle" x="518" y="-7.5" font-family="Helvetica,sans-Serif" font-size="10.00">stdlib.h</text>
</g>
<!-- Node1&#45;&gt;Node8 -->
<g id="edge8" class="edge"><title>Node1&#45;&gt;Node8</title>
<path fill="none" stroke="midnightblue" d="M464.589,-56.3993C475.285,-47.3076 489.188,-35.4899 500.128,-26.1909"/>
<polygon fill="midnightblue" stroke="midnightblue" points="502.462,-28.8011 507.814,-19.6578 497.928,-23.4675 502.462,-28.8011"/>
</g>
<!-- Node9 -->
<g id="node10" class="node"><title>Node9</title>
<polygon fill="white" stroke="#bfbfbf" points="560.5,-0.5 560.5,-19.5 609.5,-19.5 609.5,-0.5 560.5,-0.5"/>
<text text-anchor="middle" x="585" y="-7.5" font-family="Helvetica,sans-Serif" font-size="10.00">string.h</text>
</g>
<!-- Node1&#45;&gt;Node9 -->
<g id="edge9" class="edge"><title>Node1&#45;&gt;Node9</title>
<path fill="none" stroke="midnightblue" d="M480.467,-56.3993C503.351,-46.4608 533.734,-33.2649 555.844,-23.6625"/>
<polygon fill="midnightblue" stroke="midnightblue" points="557.287,-26.8517 565.065,-19.6578 554.499,-20.4311 557.287,-26.8517"/>
</g>
<!-- Node10 -->
<g id="node11" class="node"><title>Node10</title>
<polygon fill="white" stroke="#bfbfbf" points="628,-0.5 628,-19.5 674,-19.5 674,-0.5 628,-0.5"/>
<text text-anchor="middle" x="651" y="-7.5" font-family="Helvetica,sans-Serif" font-size="10.00">stdio.h</text>
</g>
<!-- Node1&#45;&gt;Node10 -->
<g id="edge10" class="edge"><title>Node1&#45;&gt;Node10</title>
<path fill="none" stroke="midnightblue" d="M495.851,-56.4747C533.562,-45.4214 585.139,-30.304 618.267,-20.5942"/>
<polygon fill="midnightblue" stroke="midnightblue" points="619.308,-23.9364 627.92,-17.7649 617.339,-17.219 619.308,-23.9364"/>
</g>
<!-- Node11 -->
<g id="node12" class="node"><title>Node11</title>
<polygon fill="white" stroke="#bfbfbf" points="692.5,-0.5 692.5,-19.5 749.5,-19.5 749.5,-0.5 692.5,-0.5"/>
<text text-anchor="middle" x="721" y="-7.5" font-family="Helvetica,sans-Serif" font-size="10.00">avr/wdt.h</text>
</g>
<!-- Node1&#45;&gt;Node11 -->
<g id="edge11" class="edge"><title>Node1&#45;&gt;Node11</title>
<path fill="none" stroke="midnightblue" d="M509.432,-57.6651C554.574,-48.1495 617.657,-34.6773 682.4,-20.0992"/>
<polygon fill="midnightblue" stroke="midnightblue" points="683.397,-23.4621 692.381,-17.8457 681.856,-16.6339 683.397,-23.4621"/>
</g>
<!-- Node12 -->
<g id="node13" class="node"><title>Node12</title>
<polygon fill="white" stroke="#bfbfbf" points="768,-0.5 768,-19.5 820,-19.5 820,-0.5 768,-0.5"/>
<text text-anchor="middle" x="794" y="-7.5" font-family="Helvetica,sans-Serif" font-size="10.00">assert.h</text>
</g>
<!-- Node1&#45;&gt;Node12 -->
<g id="edge12" class="edge"><title>Node1&#45;&gt;Node12</title>
<path fill="none" stroke="midnightblue" d="M509.086,-62.2522C569.804,-53.6773 665.761,-39.1119 757.659,-20.1313"/>
<polygon fill="midnightblue" stroke="midnightblue" points="758.612,-23.5079 767.687,-18.039 757.183,-16.6555 758.612,-23.5079"/>
</g>
</g>
</svg>
