<?xml version="1.0" encoding="UTF-8" standalone="no"?>
<!DOCTYPE svg PUBLIC "-//W3C//DTD SVG 1.1//EN"
 "http://www.w3.org/Graphics/SVG/1.1/DTD/svg11.dtd">
<!-- Generated by graphviz version 2.38.0 (20140413.2041)
 -->
<!-- Title: main Pages: 1 -->
<svg width="208pt" height="104pt"
 viewBox="0.00 0.00 208.00 104.00" xmlns="http://www.w3.org/2000/svg" xmlns:xlink="http://www.w3.org/1999/xlink">
<g id="graph0" class="graph" transform="scale(1 1) rotate(0) translate(4 100)">
<title>main</title>
<polygon fill="white" stroke="none" points="-4,4 -4,-100 204,-100 204,4 -4,4"/>
<!-- Node0 -->
<g id="node1" class="node"><title>Node0</title>
<polygon fill="#bfbfbf" stroke="black" points="0,-38.5 0,-57.5 38,-57.5 38,-38.5 0,-38.5"/>
<text text-anchor="middle" x="19" y="-45.5" font-family="Helvetica,sans-Serif" font-size="10.00">main</text>
</g>
<!-- Node1 -->
<g id="node2" class="node"><title>Node1</title>
<g id="a_node2"><a xlink:href="structLCD.html#aa01b7522d1e210f9cd071e3a5d4ae9e6" target="_top" xlink:title="changes the background of the display ">
<polygon fill="white" stroke="black" points="74,-76.5 74,-95.5 200,-95.5 200,-76.5 74,-76.5"/>
<text text-anchor="middle" x="137" y="-83.5" font-family="Helvetica,sans-Serif" font-size="10.00">LCD::changeBackground</text>
</a>
</g>
</g>
<!-- Node0&#45;&gt;Node1 -->
<g id="edge1" class="edge"><title>Node0&#45;&gt;Node1</title>
<path fill="none" stroke="midnightblue" d="M38.4304,-54.6951C48.8376,-58.4226 62.1049,-63.0865 74,-67 80.5384,-69.1511 87.4902,-71.3585 94.2849,-73.4726"/>
<polygon fill="midnightblue" stroke="midnightblue" points="93.4738,-76.885 104.061,-76.4857 95.5356,-70.1955 93.4738,-76.885"/>
</g>
<!-- Node2 -->
<g id="node3" class="node"><title>Node2</title>
<g id="a_node3"><a xlink:href="structLCD.html#a0fd055c88888db0e52fea11f1df24d4a" target="_top" xlink:title="draws a bitmap representet as an array of bytes ">
<polygon fill="white" stroke="black" points="89.5,-38.5 89.5,-57.5 184.5,-57.5 184.5,-38.5 89.5,-38.5"/>
<text text-anchor="middle" x="137" y="-45.5" font-family="Helvetica,sans-Serif" font-size="10.00">LCD::drawBitmap</text>
</a>
</g>
</g>
<!-- Node0&#45;&gt;Node2 -->
<g id="edge2" class="edge"><title>Node0&#45;&gt;Node2</title>
<path fill="none" stroke="midnightblue" d="M38.125,-48C49.308,-48 64.3242,-48 79.2319,-48"/>
<polygon fill="midnightblue" stroke="midnightblue" points="79.4868,-51.5001 89.4867,-48 79.4867,-44.5001 79.4868,-51.5001"/>
</g>
<!-- Node3 -->
<g id="node4" class="node"><title>Node3</title>
<g id="a_node4"><a xlink:href="structSoccerBoard.html#a52bcbb2cc7e2d56ee0b0deff26a45b49" target="_top" xlink:title="Say goodnight! ">
<polygon fill="white" stroke="black" points="82,-0.5 82,-19.5 192,-19.5 192,-0.5 82,-0.5"/>
<text text-anchor="middle" x="137" y="-7.5" font-family="Helvetica,sans-Serif" font-size="10.00">SoccerBoard::msleep</text>
</a>
</g>
</g>
<!-- Node0&#45;&gt;Node3 -->
<g id="edge3" class="edge"><title>Node0&#45;&gt;Node3</title>
<path fill="none" stroke="midnightblue" d="M38.4304,-41.3049C48.8376,-37.5774 62.1049,-32.9135 74,-29 80.5384,-26.8489 87.4902,-24.6415 94.2849,-22.5274"/>
<polygon fill="midnightblue" stroke="midnightblue" points="95.5356,-25.8045 104.061,-19.5143 93.4738,-19.115 95.5356,-25.8045"/>
</g>
</g>
</svg>
