<?xml version="1.0" encoding="UTF-8" standalone="no"?>
<!DOCTYPE svg PUBLIC "-//W3C//DTD SVG 1.1//EN"
 "http://www.w3.org/Graphics/SVG/1.1/DTD/svg11.dtd">
<!-- Generated by graphviz version 2.40.1 (20161225.0304)
 -->
<!-- Title: main Pages: 1 -->
<svg width="220pt" height="104pt"
 viewBox="0.00 0.00 220.00 104.00" xmlns="http://www.w3.org/2000/svg" xmlns:xlink="http://www.w3.org/1999/xlink">
<g id="graph0" class="graph" transform="scale(1 1) rotate(0) translate(4 100)">
<title>main</title>
<polygon fill="#ffffff" stroke="transparent" points="-4,4 -4,-100 216,-100 216,4 -4,4"/>
<!-- Node0 -->
<g id="node1" class="node">
<title>Node0</title>
<polygon fill="#bfbfbf" stroke="#000000" points="0,-38.5 0,-57.5 41,-57.5 41,-38.5 0,-38.5"/>
<text text-anchor="middle" x="20.5" y="-45.5" font-family="RobotoMono" font-size="10.00" fill="#000000">main</text>
</g>
<!-- Node1 -->
<g id="node2" class="node">
<title>Node1</title>
<g id="a_node2"><a xlink:href="structLCD.html#aa01b7522d1e210f9cd071e3a5d4ae9e6" target="_top" xlink:title="changes the background of the display ">
<polygon fill="#ffffff" stroke="#000000" points="77,-76.5 77,-95.5 212,-95.5 212,-76.5 77,-76.5"/>
<text text-anchor="middle" x="144.5" y="-83.5" font-family="RobotoMono" font-size="10.00" fill="#000000">LCD::changeBackground</text>
</a>
</g>
</g>
<!-- Node0&#45;&gt;Node1 -->
<g id="edge1" class="edge">
<title>Node0&#45;&gt;Node1</title>
<path fill="none" stroke="#191970" d="M41.083,-55.1973C51.7583,-58.8601 65.035,-63.3067 77,-67 84.2795,-69.247 92.0334,-71.5307 99.595,-73.699"/>
<polygon fill="#191970" stroke="#191970" points="98.7929,-77.1095 109.3684,-76.4702 100.7024,-70.375 98.7929,-77.1095"/>
</g>
<!-- Node2 -->
<g id="node3" class="node">
<title>Node2</title>
<g id="a_node3"><a xlink:href="structLCD.html#a0fd055c88888db0e52fea11f1df24d4a" target="_top" xlink:title="draws a bitmap representet as an array of bytes ">
<polygon fill="#ffffff" stroke="#000000" points="94,-38.5 94,-57.5 195,-57.5 195,-38.5 94,-38.5"/>
<text text-anchor="middle" x="144.5" y="-45.5" font-family="RobotoMono" font-size="10.00" fill="#000000">LCD::drawBitmap</text>
</a>
</g>
</g>
<!-- Node0&#45;&gt;Node2 -->
<g id="edge2" class="edge">
<title>Node0&#45;&gt;Node2</title>
<path fill="none" stroke="#191970" d="M41.2548,-48C53.0751,-48 68.5558,-48 83.9202,-48"/>
<polygon fill="#191970" stroke="#191970" points="83.9604,-51.5001 93.9604,-48 83.9603,-44.5001 83.9604,-51.5001"/>
</g>
<!-- Node3 -->
<g id="node4" class="node">
<title>Node3</title>
<g id="a_node4"><a xlink:href="structSoccerBoard.html#a52bcbb2cc7e2d56ee0b0deff26a45b49" target="_top" xlink:title="Say goodnight! ">
<polygon fill="#ffffff" stroke="#000000" points="85,-.5 85,-19.5 204,-19.5 204,-.5 85,-.5"/>
<text text-anchor="middle" x="144.5" y="-7.5" font-family="RobotoMono" font-size="10.00" fill="#000000">SoccerBoard::msleep</text>
</a>
</g>
</g>
<!-- Node0&#45;&gt;Node3 -->
<g id="edge3" class="edge">
<title>Node0&#45;&gt;Node3</title>
<path fill="none" stroke="#191970" d="M41.083,-40.8027C51.7583,-37.1399 65.035,-32.6933 77,-29 84.2795,-26.753 92.0334,-24.4693 99.595,-22.301"/>
<polygon fill="#191970" stroke="#191970" points="100.7024,-25.625 109.3684,-19.5298 98.7929,-18.8905 100.7024,-25.625"/>
</g>
</g>
</svg>
