<?xml version="1.0" encoding="UTF-8" standalone="no"?>
<!DOCTYPE svg PUBLIC "-//W3C//DTD SVG 1.1//EN"
 "http://www.w3.org/Graphics/SVG/1.1/DTD/svg11.dtd">
<!-- Generated by graphviz version 2.38.0 (20140413.2041)
 -->
<!-- Title: eBoard_tsS/eBoard_tSS Pages: 1 -->
<svg width="126pt" height="183pt"
 viewBox="0.00 0.00 126.00 183.00" xmlns="http://www.w3.org/2000/svg" xmlns:xlink="http://www.w3.org/1999/xlink">
<g id="graph0" class="graph" transform="scale(1 1) rotate(0) translate(4 179)">
<title>eBoard_tsS/eBoard_tSS</title>
<polygon fill="white" stroke="none" points="-4,4 -4,-179 122,-179 122,4 -4,4"/>
<g id="clust1" class="cluster"><title>clusterdir_fab1bbe97361828545192784f3b9057a</title>
<g id="a_clust1"><a xlink:href="dir_fab1bbe97361828545192784f3b9057a.html" target="_top" xlink:title="eBoard_tsS">
<polygon fill="#ddddee" stroke="black" points="8,-8 8,-167 110,-167 110,-8 8,-8"/>
<text text-anchor="middle" x="59" y="-155" font-family="Helvetica,sans-Serif" font-size="10.00">eBoard_tsS</text>
</a>
</g>
</g>
<g id="clust2" class="cluster"><title>clusterdir_ba1c85793588f837f62ff87b1e22b62d</title>
<g id="a_clust2"><a xlink:href="dir_ba1c85793588f837f62ff87b1e22b62d.html" target="_top">
<polygon fill="#eeeeff" stroke="black" points="16,-16 16,-140 102,-140 102,-16 16,-16"/>
</a>
</g>
</g>
<!-- dir_ba1c85793588f837f62ff87b1e22b62d -->
<g id="node1" class="node"><title>dir_ba1c85793588f837f62ff87b1e22b62d</title>
<text text-anchor="middle" x="59" y="-111.5" font-family="Helvetica,sans-Serif" font-size="10.00">eBoard_tSS</text>
</g>
<!-- dir_5c616f7d89ebac100af9670fe3f39345 -->
<g id="node2" class="node"><title>dir_5c616f7d89ebac100af9670fe3f39345</title>
<g id="a_node2"><a xlink:href="dir_5c616f7d89ebac100af9670fe3f39345.html" target="_top" xlink:title="source">
<polygon fill="white" stroke="black" points="86,-60 32,-60 32,-24 86,-24 86,-60"/>
<text text-anchor="middle" x="59" y="-39.5" font-family="Helvetica,sans-Serif" font-size="10.00">source</text>
</a>
</g>
</g>
<!-- dir_ba1c85793588f837f62ff87b1e22b62d&#45;&gt;dir_5c616f7d89ebac100af9670fe3f39345 -->
<g id="edge1" class="edge"><title>dir_ba1c85793588f837f62ff87b1e22b62d&#45;&gt;dir_5c616f7d89ebac100af9670fe3f39345</title>
<path fill="none" stroke="black" d="M59,-95.6966C59,-87.9827 59,-78.7125 59,-70.1124"/>
<polygon fill="black" stroke="black" points="62.5001,-70.1043 59,-60.1043 55.5001,-70.1044 62.5001,-70.1043"/>
<g id="a_edge1&#45;headlabel"><a xlink:href="dir_000007_000008.html" target="_top" xlink:title="6">
<text text-anchor="middle" x="65.3393" y="-71.199" font-family="Helvetica,sans-Serif" font-size="10.00">6</text>
</a>
</g>
</g>
</g>
</svg>
