<?xml version="1.0" encoding="UTF-8" standalone="no"?>
<!DOCTYPE svg PUBLIC "-//W3C//DTD SVG 1.1//EN"
 "http://www.w3.org/Graphics/SVG/1.1/DTD/svg11.dtd">
<!-- Generated by graphviz version 2.40.1 (20161225.0304)
 -->
<!-- Title: eBoard Pages: 1 -->
<svg width="178pt" height="148pt"
 viewBox="0.00 0.00 178.00 148.00" xmlns="http://www.w3.org/2000/svg" xmlns:xlink="http://www.w3.org/1999/xlink">
<g id="graph0" class="graph" transform="scale(1 1) rotate(0) translate(4 144)">
<title>eBoard</title>
<polygon fill="#ffffff" stroke="transparent" points="-4,4 -4,-144 174,-144 174,4 -4,4"/>
<g id="clust1" class="cluster">
<title>clusterdir_60e1801270816c7ef7035c95934d2318</title>
<g id="a_clust1"><a xlink:href="dir_60e1801270816c7ef7035c95934d2318.html" target="_top">
<polygon fill="#eeeeff" stroke="#000000" points="8,-8 8,-132 162,-132 162,-8 8,-8"/>
</a>
</g>
</g>
<!-- dir_60e1801270816c7ef7035c95934d2318 -->
<g id="node1" class="node">
<title>dir_60e1801270816c7ef7035c95934d2318</title>
<text text-anchor="middle" x="127" y="-103.5" font-family="Hack" font-size="10.00" fill="#000000">eBoard</text>
</g>
<!-- dir_e56f45881bcd25f31aa861db7bdf513c -->
<g id="node3" class="node">
<title>dir_e56f45881bcd25f31aa861db7bdf513c</title>
<g id="a_node3"><a xlink:href="dir_e56f45881bcd25f31aa861db7bdf513c.html" target="_top" xlink:title="source">
<polygon fill="#ffffff" stroke="#000000" points="154,-52 100,-52 100,-16 154,-16 154,-52"/>
<text text-anchor="middle" x="127" y="-31.5" font-family="Hack" font-size="10.00" fill="#000000">source</text>
</a>
</g>
</g>
<!-- dir_60e1801270816c7ef7035c95934d2318&#45;&gt;dir_e56f45881bcd25f31aa861db7bdf513c -->
<g id="edge1" class="edge">
<title>dir_60e1801270816c7ef7035c95934d2318&#45;&gt;dir_e56f45881bcd25f31aa861db7bdf513c</title>
<path fill="none" stroke="#000000" d="M127,-87.8314C127,-80.131 127,-70.9743 127,-62.4166"/>
<polygon fill="#000000" stroke="#000000" points="130.5001,-62.4132 127,-52.4133 123.5001,-62.4133 130.5001,-62.4132"/>
<g id="a_edge1&#45;headlabel"><a xlink:href="dir_000000_000005.html" target="_top" xlink:title="24">
<text text-anchor="middle" x="133.3393" y="-63.5079" font-family="Hack" font-size="10.00" fill="#000000">24</text>
</a>
</g>
</g>
<!-- dir_68fee1c18f4a0b32540943541604b39d -->
<g id="node2" class="node">
<title>dir_68fee1c18f4a0b32540943541604b39d</title>
<g id="a_node2"><a xlink:href="dir_68fee1c18f4a0b32540943541604b39d.html" target="_top" xlink:title="examples">
<polygon fill="#ffffff" stroke="#ff0000" points="81.5,-124 16.5,-124 16.5,-88 81.5,-88 81.5,-124"/>
<text text-anchor="middle" x="49" y="-103.5" font-family="Hack" font-size="10.00" fill="#000000">examples</text>
</a>
</g>
</g>
</g>
</svg>
