<?xml version="1.0" encoding="UTF-8" standalone="no"?>
<!DOCTYPE svg PUBLIC "-//W3C//DTD SVG 1.1//EN"
 "http://www.w3.org/Graphics/SVG/1.1/DTD/svg11.dtd">
<!-- Generated by graphviz version 2.38.0 (20140413.2041)
 -->
<!-- Title: /eagleoutice/projects/github/eBoard/examples Pages: 1 -->
<svg width="298pt" height="111pt"
 viewBox="0.00 0.00 298.00 111.00" xmlns="http://www.w3.org/2000/svg" xmlns:xlink="http://www.w3.org/1999/xlink">
<g id="graph0" class="graph" transform="scale(1 1) rotate(0) translate(4 107)">
<title>/eagleoutice/projects/github/eBoard/examples</title>
<polygon fill="white" stroke="none" points="-4,4 -4,-107 294,-107 294,4 -4,4"/>
<g id="clust1" class="cluster"><title>clusterdir_ee0e02ad50c7537d5bec8310bce2da6d</title>
<g id="a_clust1"><a xlink:href="dir_ee0e02ad50c7537d5bec8310bce2da6d.html" target="_top" xlink:title="eBoard">
<polygon fill="#ddddee" stroke="black" points="8,-8 8,-95 282,-95 282,-8 8,-8"/>
<text text-anchor="middle" x="145" y="-83" font-family="Helvetica,sans-Serif" font-size="10.00">eBoard</text>
</a>
</g>
</g>
<g id="clust2" class="cluster"><title>clusterdir_a649ef2b32734643e9d4dccdf0fdf041</title>
<g id="a_clust2"><a xlink:href="dir_a649ef2b32734643e9d4dccdf0fdf041.html" target="_top">
<polygon fill="#eeeeff" stroke="black" points="16,-16 16,-68 274,-68 274,-16 16,-16"/>
</a>
</g>
</g>
<!-- dir_a649ef2b32734643e9d4dccdf0fdf041 -->
<g id="node1" class="node"><title>dir_a649ef2b32734643e9d4dccdf0fdf041</title>
<text text-anchor="middle" x="236" y="-39.5" font-family="Helvetica,sans-Serif" font-size="10.00">examples</text>
</g>
<!-- dir_8e67eaddbec8fa48f81d34d7e8ed675f -->
<g id="node2" class="node"><title>dir_8e67eaddbec8fa48f81d34d7e8ed675f</title>
<g id="a_node2"><a xlink:href="dir_8e67eaddbec8fa48f81d34d7e8ed675f.html" target="_top" xlink:title="dancing_dragon">
<polygon fill="white" stroke="black" points="188.5,-60 103.5,-60 103.5,-24 188.5,-24 188.5,-60"/>
<text text-anchor="middle" x="146" y="-39.5" font-family="Helvetica,sans-Serif" font-size="10.00">dancing_dragon</text>
</a>
</g>
</g>
<!-- dir_5fd891c3f4e34672b6f46d7a0bc734af -->
<g id="node3" class="node"><title>dir_5fd891c3f4e34672b6f46d7a0bc734af</title>
<g id="a_node3"><a xlink:href="dir_5fd891c3f4e34672b6f46d7a0bc734af.html" target="_top" xlink:title="lcd_debug">
<polygon fill="white" stroke="black" points="85.5,-60 24.5,-60 24.5,-24 85.5,-24 85.5,-60"/>
<text text-anchor="middle" x="55" y="-39.5" font-family="Helvetica,sans-Serif" font-size="10.00">lcd_debug</text>
</a>
</g>
</g>
</g>
</svg>
