<?xml version="1.0" encoding="UTF-8" standalone="no"?>
<!DOCTYPE svg PUBLIC "-//W3C//DTD SVG 1.1//EN"
 "http://www.w3.org/Graphics/SVG/1.1/DTD/svg11.dtd">
<!-- Generated by graphviz version 2.38.0 (20140413.2041)
 -->
<!-- Title: eBoard Pages: 1 -->
<svg width="172pt" height="148pt"
 viewBox="0.00 0.00 172.00 148.00" xmlns="http://www.w3.org/2000/svg" xmlns:xlink="http://www.w3.org/1999/xlink">
<g id="graph0" class="graph" transform="scale(1 1) rotate(0) translate(4 144)">
<title>eBoard</title>
<polygon fill="white" stroke="none" points="-4,4 -4,-144 168,-144 168,4 -4,4"/>
<g id="clust1" class="cluster"><title>clusterdir_60e1801270816c7ef7035c95934d2318</title>
<g id="a_clust1"><a xlink:href="dir_60e1801270816c7ef7035c95934d2318.html" target="_top">
<polygon fill="#eeeeff" stroke="black" points="8,-8 8,-132 156,-132 156,-8 8,-8"/>
</a>
</g>
</g>
<!-- dir_60e1801270816c7ef7035c95934d2318 -->
<g id="node1" class="node"><title>dir_60e1801270816c7ef7035c95934d2318</title>
<text text-anchor="middle" x="121" y="-103.5" font-family="Helvetica,sans-Serif" font-size="10.00">eBoard</text>
</g>
<!-- dir_e56f45881bcd25f31aa861db7bdf513c -->
<g id="node3" class="node"><title>dir_e56f45881bcd25f31aa861db7bdf513c</title>
<g id="a_node3"><a xlink:href="dir_e56f45881bcd25f31aa861db7bdf513c.html" target="_top" xlink:title="source">
<polygon fill="white" stroke="black" points="148,-52 94,-52 94,-16 148,-16 148,-52"/>
<text text-anchor="middle" x="121" y="-31.5" font-family="Helvetica,sans-Serif" font-size="10.00">source</text>
</a>
</g>
</g>
<!-- dir_60e1801270816c7ef7035c95934d2318&#45;&gt;dir_e56f45881bcd25f31aa861db7bdf513c -->
<g id="edge1" class="edge"><title>dir_60e1801270816c7ef7035c95934d2318&#45;&gt;dir_e56f45881bcd25f31aa861db7bdf513c</title>
<path fill="none" stroke="black" d="M121,-87.6966C121,-79.9827 121,-70.7125 121,-62.1124"/>
<polygon fill="black" stroke="black" points="124.5,-62.1043 121,-52.1043 117.5,-62.1044 124.5,-62.1043"/>
<g id="a_edge1&#45;headlabel"><a xlink:href="dir_000000_000005.html" target="_top" xlink:title="9">
<text text-anchor="middle" x="127.339" y="-63.199" font-family="Helvetica,sans-Serif" font-size="10.00">9</text>
</a>
</g>
</g>
<!-- dir_68fee1c18f4a0b32540943541604b39d -->
<g id="node2" class="node"><title>dir_68fee1c18f4a0b32540943541604b39d</title>
<g id="a_node2"><a xlink:href="dir_68fee1c18f4a0b32540943541604b39d.html" target="_top" xlink:title="examples">
<polygon fill="white" stroke="red" points="75.5,-124 16.5,-124 16.5,-88 75.5,-88 75.5,-124"/>
<text text-anchor="middle" x="46" y="-103.5" font-family="Helvetica,sans-Serif" font-size="10.00">examples</text>
</a>
</g>
</g>
</g>
</svg>
