<?xml version="1.0" encoding="UTF-8" standalone="no"?>
<!DOCTYPE svg PUBLIC "-//W3C//DTD SVG 1.1//EN"
 "http://www.w3.org/Graphics/SVG/1.1/DTD/svg11.dtd">
<!-- Generated by graphviz version 2.40.1 (20161225.0304)
 -->
<!-- Title: writePin Pages: 1 -->
<svg width="356pt" height="66pt"
 viewBox="0.00 0.00 356.00 66.00" xmlns="http://www.w3.org/2000/svg" xmlns:xlink="http://www.w3.org/1999/xlink">
<g id="graph0" class="graph" transform="scale(1 1) rotate(0) translate(4 62)">
<title>writePin</title>
<polygon fill="#ffffff" stroke="transparent" points="-4,4 -4,-62 352,-62 352,4 -4,4"/>
<!-- Node5 -->
<g id="node1" class="node">
<title>Node5</title>
<polygon fill="#bfbfbf" stroke="#000000" points="0,-19.5 0,-38.5 52,-38.5 52,-19.5 0,-19.5"/>
<text text-anchor="middle" x="26" y="-26.5" font-family="Helvetica,sans-Serif" font-size="10.00" fill="#000000">writePin</text>
</g>
<!-- Node6 -->
<g id="node2" class="node">
<title>Node6</title>
<g id="a_node2"><a xlink:href="structSoccerBoard.html#a04c6b8fd4b6d1cd24be9c1b3291dbf06" target="_top" xlink:title="Set the state of a certain D&#45;pin. ">
<polygon fill="#ffffff" stroke="#000000" points="88,-19.5 88,-38.5 193,-38.5 193,-19.5 88,-19.5"/>
<text text-anchor="middle" x="140.5" y="-26.5" font-family="Helvetica,sans-Serif" font-size="10.00" fill="#000000">SoccerBoard::power</text>
</a>
</g>
</g>
<!-- Node5&#45;&gt;Node6 -->
<g id="edge1" class="edge">
<title>Node5&#45;&gt;Node6</title>
<path fill="none" stroke="#191970" d="M62.4207,-29C70.4714,-29 79.1583,-29 87.7116,-29"/>
<polygon fill="#191970" stroke="#191970" points="62.2686,-25.5001 52.2686,-29 62.2686,-32.5001 62.2686,-25.5001"/>
</g>
<!-- Node7 -->
<g id="node3" class="node">
<title>Node7</title>
<g id="a_node3"><a xlink:href="structSoccerBoard.html#aa46822d5b727bf3e427c5ceba995f42f" target="_top" xlink:title="Set the state of a certain D&#45;pin to HIGH. ">
<polygon fill="#ffffff" stroke="#000000" points="229.5,-38.5 229.5,-57.5 347.5,-57.5 347.5,-38.5 229.5,-38.5"/>
<text text-anchor="middle" x="288.5" y="-45.5" font-family="Helvetica,sans-Serif" font-size="10.00" fill="#000000">SoccerBoard::powerOn</text>
</a>
</g>
</g>
<!-- Node6&#45;&gt;Node7 -->
<g id="edge2" class="edge">
<title>Node6&#45;&gt;Node7</title>
<path fill="none" stroke="#191970" d="M203.1369,-37.0412C211.7986,-38.1532 220.6731,-39.2925 229.2703,-40.3962"/>
<polygon fill="#191970" stroke="#191970" points="203.4603,-33.5541 193.096,-35.7522 202.5689,-40.4971 203.4603,-33.5541"/>
</g>
<!-- Node8 -->
<g id="node4" class="node">
<title>Node8</title>
<g id="a_node4"><a xlink:href="structSoccerBoard.html#a5442e3a7ca58ed90d9e4af0cac83ebdd" target="_top" xlink:title="Set the state of a certain D&#45;pin to LOW. ">
<polygon fill="#ffffff" stroke="#000000" points="229,-.5 229,-19.5 348,-19.5 348,-.5 229,-.5"/>
<text text-anchor="middle" x="288.5" y="-7.5" font-family="Helvetica,sans-Serif" font-size="10.00" fill="#000000">SoccerBoard::powerOff</text>
</a>
</g>
</g>
<!-- Node6&#45;&gt;Node8 -->
<g id="edge3" class="edge">
<title>Node6&#45;&gt;Node8</title>
<path fill="none" stroke="#191970" d="M203.2712,-20.9415C211.7193,-19.857 220.3674,-18.7468 228.761,-17.6692"/>
<polygon fill="#191970" stroke="#191970" points="202.5689,-17.5029 193.096,-22.2478 203.4603,-24.4459 202.5689,-17.5029"/>
</g>
</g>
</svg>
