<?xml version="1.0" encoding="UTF-8" standalone="no"?>
<!DOCTYPE svg PUBLIC "-//W3C//DTD SVG 1.1//EN"
 "http://www.w3.org/Graphics/SVG/1.1/DTD/svg11.dtd">
<!-- Generated by graphviz version 2.40.1 (20161225.0304)
 -->
<!-- Title: eBoard/source/eagle_Twi.h Pages: 1 -->
<svg width="436pt" height="95pt"
 viewBox="0.00 0.00 436.00 95.00" xmlns="http://www.w3.org/2000/svg" xmlns:xlink="http://www.w3.org/1999/xlink">
<g id="graph0" class="graph" transform="scale(1 1) rotate(0) translate(4 91)">
<title>eBoard/source/eagle_Twi.h</title>
<polygon fill="#ffffff" stroke="transparent" points="-4,4 -4,-91 432,-91 432,4 -4,4"/>
<!-- Node0 -->
<g id="node1" class="node">
<title>Node0</title>
<polygon fill="#bfbfbf" stroke="#000000" points="141,-56.5 141,-86.5 272,-86.5 272,-56.5 141,-56.5"/>
<text text-anchor="start" x="149" y="-74.5" font-family="Hack" font-size="10.00" fill="#000000">eBoard/source/eagle</text>
<text text-anchor="middle" x="206.5" y="-63.5" font-family="Hack" font-size="10.00" fill="#000000">_Twi.h</text>
</g>
<!-- Node1 -->
<g id="node2" class="node">
<title>Node1</title>
<polygon fill="#ffffff" stroke="#bfbfbf" points="0,-.5 0,-19.5 77,-19.5 77,-.5 0,-.5"/>
<text text-anchor="middle" x="38.5" y="-7.5" font-family="Hack" font-size="10.00" fill="#000000">inttypes.h</text>
</g>
<!-- Node0&#45;&gt;Node1 -->
<g id="edge1" class="edge">
<title>Node0&#45;&gt;Node1</title>
<path fill="none" stroke="#191970" d="M165.4026,-56.4554C137.4943,-46.239 100.9492,-32.8609 74.2473,-23.0861"/>
<polygon fill="#191970" stroke="#191970" points="75.1278,-19.6813 64.534,-19.5303 72.7214,-26.2547 75.1278,-19.6813"/>
</g>
<!-- Node2 -->
<g id="node3" class="node">
<title>Node2</title>
<polygon fill="#ffffff" stroke="#bfbfbf" points="95,-.5 95,-19.5 202,-19.5 202,-.5 95,-.5"/>
<text text-anchor="middle" x="148.5" y="-7.5" font-family="Hack" font-size="10.00" fill="#000000">avr/interrupt.h</text>
</g>
<!-- Node0&#45;&gt;Node2 -->
<g id="edge2" class="edge">
<title>Node0&#45;&gt;Node2</title>
<path fill="none" stroke="#191970" d="M192.1629,-56.2977C183.8603,-47.4941 173.3818,-36.3833 164.7711,-27.2529"/>
<polygon fill="#191970" stroke="#191970" points="167.1939,-24.7206 157.7865,-19.8469 162.1013,-29.5234 167.1939,-24.7206"/>
</g>
<!-- Node3 -->
<g id="node4" class="node">
<title>Node3</title>
<polygon fill="#ffffff" stroke="#bfbfbf" points="220,-.5 220,-19.5 309,-19.5 309,-.5 220,-.5"/>
<text text-anchor="middle" x="264.5" y="-7.5" font-family="Hack" font-size="10.00" fill="#000000">compat/twi.h</text>
</g>
<!-- Node0&#45;&gt;Node3 -->
<g id="edge3" class="edge">
<title>Node0&#45;&gt;Node3</title>
<path fill="none" stroke="#191970" d="M220.8371,-56.2977C229.1397,-47.4941 239.6182,-36.3833 248.2289,-27.2529"/>
<polygon fill="#191970" stroke="#191970" points="250.8987,-29.5234 255.2135,-19.8469 245.8061,-24.7206 250.8987,-29.5234"/>
</g>
<!-- Node4 -->
<g id="node5" class="node">
<title>Node4</title>
<polygon fill="#ffffff" stroke="#bfbfbf" points="327,-.5 327,-19.5 428,-19.5 428,-.5 327,-.5"/>
<text text-anchor="middle" x="377.5" y="-7.5" font-family="Hack" font-size="10.00" fill="#000000">pins_arduino.h</text>
</g>
<!-- Node0&#45;&gt;Node4 -->
<g id="edge4" class="edge">
<title>Node0&#45;&gt;Node4</title>
<path fill="none" stroke="#191970" d="M248.3313,-56.4554C276.8631,-46.194 314.2635,-32.7429 341.4729,-22.9571"/>
<polygon fill="#191970" stroke="#191970" points="342.7757,-26.2081 351.0011,-19.5303 340.4066,-19.6212 342.7757,-26.2081"/>
</g>
</g>
</svg>
