<?xml version="1.0" encoding="UTF-8" standalone="no"?>
<!DOCTYPE svg PUBLIC "-//W3C//DTD SVG 1.1//EN"
 "http://www.w3.org/Graphics/SVG/1.1/DTD/svg11.dtd">
<!-- Generated by graphviz version 2.40.1 (20161225.0304)
 -->
<!-- Title: eBoard/source/eagle_Twi.h Pages: 1 -->
<svg width="382pt" height="95pt"
 viewBox="0.00 0.00 381.50 95.00" xmlns="http://www.w3.org/2000/svg" xmlns:xlink="http://www.w3.org/1999/xlink">
<g id="graph0" class="graph" transform="scale(1 1) rotate(0) translate(4 91)">
<title>eBoard/source/eagle_Twi.h</title>
<polygon fill="#ffffff" stroke="transparent" points="-4,4 -4,-91 377.5,-91 377.5,4 -4,4"/>
<!-- Node0 -->
<g id="node1" class="node">
<title>Node0</title>
<polygon fill="#bfbfbf" stroke="#000000" points="118.5,-56.5 118.5,-86.5 234.5,-86.5 234.5,-56.5 118.5,-56.5"/>
<text text-anchor="start" x="126.5" y="-74.5" font-family="RobotoMono" font-size="10.00" fill="#000000">eBoard/source/eagle</text>
<text text-anchor="middle" x="176.5" y="-63.5" font-family="RobotoMono" font-size="10.00" fill="#000000">_Twi.h</text>
</g>
<!-- Node1 -->
<g id="node2" class="node">
<title>Node1</title>
<polygon fill="#ffffff" stroke="#bfbfbf" points="0,-.5 0,-19.5 65,-19.5 65,-.5 0,-.5"/>
<text text-anchor="middle" x="32.5" y="-7.5" font-family="RobotoMono" font-size="10.00" fill="#000000">inttypes.h</text>
</g>
<!-- Node0&#45;&gt;Node1 -->
<g id="edge1" class="edge">
<title>Node0&#45;&gt;Node1</title>
<path fill="none" stroke="#191970" d="M141.2736,-56.4554C117.6684,-46.374 86.8546,-33.2139 64.0524,-23.4755"/>
<polygon fill="#191970" stroke="#191970" points="65.386,-20.2393 54.8149,-19.5303 62.6366,-26.6767 65.386,-20.2393"/>
</g>
<!-- Node2 -->
<g id="node3" class="node">
<title>Node2</title>
<polygon fill="#ffffff" stroke="#bfbfbf" points="83.5,-.5 83.5,-19.5 169.5,-19.5 169.5,-.5 83.5,-.5"/>
<text text-anchor="middle" x="126.5" y="-7.5" font-family="RobotoMono" font-size="10.00" fill="#000000">avr/interrupt.h</text>
</g>
<!-- Node0&#45;&gt;Node2 -->
<g id="edge2" class="edge">
<title>Node0&#45;&gt;Node2</title>
<path fill="none" stroke="#191970" d="M164.1404,-56.2977C157.1276,-47.672 148.314,-36.8312 140.9786,-27.8087"/>
<polygon fill="#191970" stroke="#191970" points="143.5297,-25.3982 134.5056,-19.8469 138.0982,-29.8141 143.5297,-25.3982"/>
</g>
<!-- Node3 -->
<g id="node4" class="node">
<title>Node3</title>
<polygon fill="#ffffff" stroke="#bfbfbf" points="187.5,-.5 187.5,-19.5 267.5,-19.5 267.5,-.5 187.5,-.5"/>
<text text-anchor="middle" x="227.5" y="-7.5" font-family="RobotoMono" font-size="10.00" fill="#000000">compat/twi.h</text>
</g>
<!-- Node0&#45;&gt;Node3 -->
<g id="edge3" class="edge">
<title>Node0&#45;&gt;Node3</title>
<path fill="none" stroke="#191970" d="M189.1067,-56.2977C196.2598,-47.672 205.2497,-36.8312 212.7318,-27.8087"/>
<polygon fill="#191970" stroke="#191970" points="215.645,-29.7787 219.3343,-19.8469 210.2567,-25.3103 215.645,-29.7787"/>
</g>
<!-- Node4 -->
<g id="node5" class="node">
<title>Node4</title>
<polygon fill="#ffffff" stroke="#bfbfbf" points="285.5,-.5 285.5,-19.5 373.5,-19.5 373.5,-.5 285.5,-.5"/>
<text text-anchor="middle" x="329.5" y="-7.5" font-family="RobotoMono" font-size="10.00" fill="#000000">pins_arduino.h</text>
</g>
<!-- Node0&#45;&gt;Node4 -->
<g id="edge4" class="edge">
<title>Node0&#45;&gt;Node4</title>
<path fill="none" stroke="#191970" d="M213.928,-56.4554C239.1206,-46.329 272.0407,-33.0964 296.2996,-23.3453"/>
<polygon fill="#191970" stroke="#191970" points="297.8173,-26.5074 305.7904,-19.5303 295.2066,-20.0125 297.8173,-26.5074"/>
</g>
</g>
</svg>
