<?xml version="1.0" encoding="UTF-8" standalone="no"?>
<!DOCTYPE svg PUBLIC "-//W3C//DTD SVG 1.1//EN"
 "http://www.w3.org/Graphics/SVG/1.1/DTD/svg11.dtd">
<!-- Generated by graphviz version 2.40.1 (20161225.0304)
 -->
<!-- Title: eBoard/source/eagle_TwoWire.h Pages: 1 -->
<svg width="334pt" height="95pt"
 viewBox="0.00 0.00 334.00 95.00" xmlns="http://www.w3.org/2000/svg" xmlns:xlink="http://www.w3.org/1999/xlink">
<g id="graph0" class="graph" transform="scale(1 1) rotate(0) translate(4 91)">
<title>eBoard/source/eagle_TwoWire.h</title>
<polygon fill="#ffffff" stroke="transparent" points="-4,4 -4,-91 330,-91 330,4 -4,4"/>
<!-- Node0 -->
<g id="node1" class="node">
<title>Node0</title>
<polygon fill="#bfbfbf" stroke="#000000" points="103,-56.5 103,-86.5 234,-86.5 234,-56.5 103,-56.5"/>
<text text-anchor="start" x="111" y="-74.5" font-family="Hack" font-size="10.00" fill="#000000">eBoard/source/eagle</text>
<text text-anchor="middle" x="168.5" y="-63.5" font-family="Hack" font-size="10.00" fill="#000000">_TwoWire.h</text>
</g>
<!-- Node1 -->
<g id="node2" class="node">
<title>Node1</title>
<polygon fill="#ffffff" stroke="#bfbfbf" points="0,-.5 0,-19.5 77,-19.5 77,-.5 0,-.5"/>
<text text-anchor="middle" x="38.5" y="-7.5" font-family="Hack" font-size="10.00" fill="#000000">inttypes.h</text>
</g>
<!-- Node0&#45;&gt;Node1 -->
<g id="edge1" class="edge">
<title>Node0&#45;&gt;Node1</title>
<path fill="none" stroke="#191970" d="M136.6984,-56.4554C115.6735,-46.509 88.3141,-33.5659 67.8157,-23.8686"/>
<polygon fill="#191970" stroke="#191970" points="69.1816,-20.6429 58.6454,-19.5303 66.1881,-26.9706 69.1816,-20.6429"/>
</g>
<!-- Node2 -->
<g id="node3" class="node">
<title>Node2</title>
<polygon fill="#ffffff" stroke="#bfbfbf" points="95,-.5 95,-19.5 160,-19.5 160,-.5 95,-.5"/>
<text text-anchor="middle" x="127.5" y="-7.5" font-family="Hack" font-size="10.00" fill="#000000">Stream.h</text>
</g>
<!-- Node0&#45;&gt;Node2 -->
<g id="edge2" class="edge">
<title>Node0&#45;&gt;Node2</title>
<path fill="none" stroke="#191970" d="M158.3652,-56.2977C152.7332,-47.8498 145.6849,-37.2773 139.746,-28.369"/>
<polygon fill="#191970" stroke="#191970" points="142.5238,-26.226 134.0646,-19.8469 136.6995,-30.1089 142.5238,-26.226"/>
</g>
<!-- Node3 -->
<g id="node4" class="node">
<title>Node3</title>
<polygon fill="#ffffff" stroke="#bfbfbf" points="178,-.5 178,-19.5 243,-19.5 243,-.5 178,-.5"/>
<text text-anchor="middle" x="210.5" y="-7.5" font-family="Hack" font-size="10.00" fill="#000000">stdlib.h</text>
</g>
<!-- Node0&#45;&gt;Node3 -->
<g id="edge3" class="edge">
<title>Node0&#45;&gt;Node3</title>
<path fill="none" stroke="#191970" d="M178.882,-56.2977C184.6513,-47.8498 191.8716,-37.2773 197.9553,-28.369"/>
<polygon fill="#191970" stroke="#191970" points="201.0259,-30.0788 203.7753,-19.8469 195.2453,-26.1311 201.0259,-30.0788"/>
</g>
<!-- Node4 -->
<g id="node5" class="node">
<title>Node4</title>
<polygon fill="#ffffff" stroke="#bfbfbf" points="261,-.5 261,-19.5 326,-19.5 326,-.5 261,-.5"/>
<text text-anchor="middle" x="293.5" y="-7.5" font-family="Hack" font-size="10.00" fill="#000000">string.h</text>
</g>
<!-- Node0&#45;&gt;Node4 -->
<g id="edge4" class="edge">
<title>Node0&#45;&gt;Node4</title>
<path fill="none" stroke="#191970" d="M199.0784,-56.4554C219.2032,-46.554 245.3639,-33.683 265.0438,-24.0004"/>
<polygon fill="#191970" stroke="#191970" points="266.7018,-27.0855 274.1294,-19.5303 263.6115,-20.8045 266.7018,-27.0855"/>
</g>
</g>
</svg>
