<?xml version="1.0" encoding="UTF-8" standalone="no"?>
<!DOCTYPE svg PUBLIC "-//W3C//DTD SVG 1.1//EN"
 "http://www.w3.org/Graphics/SVG/1.1/DTD/svg11.dtd">
<!-- Generated by graphviz version 2.38.0 (20140413.2041)
 -->
<!-- Title: eBoard_tsS/eBoard_tSS/source/eagle_TwoWire.h Pages: 1 -->
<svg width="275pt" height="95pt"
 viewBox="0.00 0.00 275.00 95.00" xmlns="http://www.w3.org/2000/svg" xmlns:xlink="http://www.w3.org/1999/xlink">
<g id="graph0" class="graph" transform="scale(1 1) rotate(0) translate(4 91)">
<title>eBoard_tsS/eBoard_tSS/source/eagle_TwoWire.h</title>
<polygon fill="white" stroke="none" points="-4,4 -4,-91 271,-91 271,4 -4,4"/>
<!-- Node0 -->
<g id="node1" class="node"><title>Node0</title>
<polygon fill="#bfbfbf" stroke="black" points="76.5,-56.5 76.5,-86.5 204.5,-86.5 204.5,-56.5 76.5,-56.5"/>
<text text-anchor="start" x="84.5" y="-74.5" font-family="Helvetica,sans-Serif" font-size="10.00">eBoard_tsS/eBoard_tSS</text>
<text text-anchor="middle" x="140.5" y="-63.5" font-family="Helvetica,sans-Serif" font-size="10.00">/source/eagle_TwoWire.h</text>
</g>
<!-- Node1 -->
<g id="node2" class="node"><title>Node1</title>
<polygon fill="white" stroke="#bfbfbf" points="0,-0.5 0,-19.5 59,-19.5 59,-0.5 0,-0.5"/>
<text text-anchor="middle" x="29.5" y="-7.5" font-family="Helvetica,sans-Serif" font-size="10.00">inttypes.h</text>
</g>
<!-- Node0&#45;&gt;Node1 -->
<g id="edge1" class="edge"><title>Node0&#45;&gt;Node1</title>
<path fill="none" stroke="midnightblue" d="M114.195,-56.3993C96.2358,-46.7728 72.5758,-34.0902 54.8288,-24.5772"/>
<polygon fill="midnightblue" stroke="midnightblue" points="56.1187,-21.2975 45.6515,-19.6578 52.8116,-27.467 56.1187,-21.2975"/>
</g>
<!-- Node2 -->
<g id="node3" class="node"><title>Node2</title>
<polygon fill="white" stroke="#bfbfbf" points="77.5,-0.5 77.5,-19.5 133.5,-19.5 133.5,-0.5 77.5,-0.5"/>
<text text-anchor="middle" x="105.5" y="-7.5" font-family="Helvetica,sans-Serif" font-size="10.00">Stream.h</text>
</g>
<!-- Node0&#45;&gt;Node2 -->
<g id="edge2" class="edge"><title>Node0&#45;&gt;Node2</title>
<path fill="none" stroke="midnightblue" d="M132.205,-56.3993C127.277,-48.0207 120.986,-37.3269 115.749,-28.4229"/>
<polygon fill="midnightblue" stroke="midnightblue" points="118.68,-26.5025 110.593,-19.6578 112.646,-30.0517 118.68,-26.5025"/>
</g>
<!-- Node3 -->
<g id="node4" class="node"><title>Node3</title>
<polygon fill="white" stroke="#bfbfbf" points="151.5,-0.5 151.5,-19.5 199.5,-19.5 199.5,-0.5 151.5,-0.5"/>
<text text-anchor="middle" x="175.5" y="-7.5" font-family="Helvetica,sans-Serif" font-size="10.00">stdlib.h</text>
</g>
<!-- Node0&#45;&gt;Node3 -->
<g id="edge3" class="edge"><title>Node0&#45;&gt;Node3</title>
<path fill="none" stroke="midnightblue" d="M148.795,-56.3993C153.723,-48.0207 160.014,-37.3269 165.251,-28.4229"/>
<polygon fill="midnightblue" stroke="midnightblue" points="168.354,-30.0517 170.407,-19.6578 162.32,-26.5025 168.354,-30.0517"/>
</g>
<!-- Node4 -->
<g id="node5" class="node"><title>Node4</title>
<polygon fill="white" stroke="#bfbfbf" points="218,-0.5 218,-19.5 267,-19.5 267,-0.5 218,-0.5"/>
<text text-anchor="middle" x="242.5" y="-7.5" font-family="Helvetica,sans-Serif" font-size="10.00">string.h</text>
</g>
<!-- Node0&#45;&gt;Node4 -->
<g id="edge4" class="edge"><title>Node0&#45;&gt;Node4</title>
<path fill="none" stroke="midnightblue" d="M164.673,-56.3993C181.022,-46.8619 202.515,-34.3248 218.77,-24.8422"/>
<polygon fill="midnightblue" stroke="midnightblue" points="220.784,-27.7198 227.658,-19.6578 217.257,-21.6733 220.784,-27.7198"/>
</g>
</g>
</svg>
