<?xml version="1.0" encoding="UTF-8" standalone="no"?>
<!DOCTYPE svg PUBLIC "-//W3C//DTD SVG 1.1//EN"
 "http://www.w3.org/Graphics/SVG/1.1/DTD/svg11.dtd">
<!-- Generated by graphviz version 2.40.1 (20161225.0304)
 -->
<!-- Title: eBoard/source/eagle_TwoWire.h Pages: 1 -->
<svg width="294pt" height="95pt"
 viewBox="0.00 0.00 294.00 95.00" xmlns="http://www.w3.org/2000/svg" xmlns:xlink="http://www.w3.org/1999/xlink">
<g id="graph0" class="graph" transform="scale(1 1) rotate(0) translate(4 91)">
<title>eBoard/source/eagle_TwoWire.h</title>
<polygon fill="#ffffff" stroke="transparent" points="-4,4 -4,-91 290,-91 290,4 -4,4"/>
<!-- Node0 -->
<g id="node1" class="node">
<title>Node0</title>
<polygon fill="#bfbfbf" stroke="#000000" points="92.5,-56.5 92.5,-86.5 208.5,-86.5 208.5,-56.5 92.5,-56.5"/>
<text text-anchor="start" x="100.5" y="-74.5" font-family="RobotoMono" font-size="10.00" fill="#000000">eBoard/source/eagle</text>
<text text-anchor="middle" x="150.5" y="-63.5" font-family="RobotoMono" font-size="10.00" fill="#000000">_TwoWire.h</text>
</g>
<!-- Node1 -->
<g id="node2" class="node">
<title>Node1</title>
<polygon fill="#ffffff" stroke="#bfbfbf" points="0,-.5 0,-19.5 65,-19.5 65,-.5 0,-.5"/>
<text text-anchor="middle" x="32.5" y="-7.5" font-family="RobotoMono" font-size="10.00" fill="#000000">inttypes.h</text>
</g>
<!-- Node0&#45;&gt;Node1 -->
<g id="edge1" class="edge">
<title>Node0&#45;&gt;Node1</title>
<path fill="none" stroke="#191970" d="M121.634,-56.4554C102.8089,-46.644 78.389,-33.9167 59.8708,-24.2653"/>
<polygon fill="#191970" stroke="#191970" points="61.2713,-21.0484 50.7858,-19.5303 58.036,-27.2559 61.2713,-21.0484"/>
</g>
<!-- Node2 -->
<g id="node3" class="node">
<title>Node2</title>
<polygon fill="#ffffff" stroke="#bfbfbf" points="83,-.5 83,-19.5 144,-19.5 144,-.5 83,-.5"/>
<text text-anchor="middle" x="113.5" y="-7.5" font-family="RobotoMono" font-size="10.00" fill="#000000">Stream.h</text>
</g>
<!-- Node0&#45;&gt;Node2 -->
<g id="edge2" class="edge">
<title>Node0&#45;&gt;Node2</title>
<path fill="none" stroke="#191970" d="M141.3539,-56.2977C136.3249,-47.9388 130.0445,-37.4997 124.7209,-28.6509"/>
<polygon fill="#191970" stroke="#191970" points="127.5785,-26.6114 119.4242,-19.8469 121.5803,-30.2201 127.5785,-26.6114"/>
</g>
<!-- Node3 -->
<g id="node4" class="node">
<title>Node3</title>
<polygon fill="#ffffff" stroke="#bfbfbf" points="162,-.5 162,-19.5 215,-19.5 215,-.5 162,-.5"/>
<text text-anchor="middle" x="188.5" y="-7.5" font-family="RobotoMono" font-size="10.00" fill="#000000">stdlib.h</text>
</g>
<!-- Node0&#45;&gt;Node3 -->
<g id="edge3" class="edge">
<title>Node0&#45;&gt;Node3</title>
<path fill="none" stroke="#191970" d="M159.8933,-56.2977C165.1131,-47.8498 171.6457,-37.2773 177.15,-28.369"/>
<polygon fill="#191970" stroke="#191970" points="180.1368,-30.1938 182.4157,-19.8469 174.1818,-26.5143 180.1368,-30.1938"/>
</g>
<!-- Node4 -->
<g id="node5" class="node">
<title>Node4</title>
<polygon fill="#ffffff" stroke="#bfbfbf" points="233,-.5 233,-19.5 286,-19.5 286,-.5 233,-.5"/>
<text text-anchor="middle" x="259.5" y="-7.5" font-family="RobotoMono" font-size="10.00" fill="#000000">string.h</text>
</g>
<!-- Node0&#45;&gt;Node4 -->
<g id="edge4" class="edge">
<title>Node0&#45;&gt;Node4</title>
<path fill="none" stroke="#191970" d="M177.1644,-56.4554C194.3941,-46.734 216.6975,-34.15 233.7446,-24.5317"/>
<polygon fill="#191970" stroke="#191970" points="235.6194,-27.4926 242.6089,-19.5303 232.1796,-21.3961 235.6194,-27.4926"/>
</g>
</g>
</svg>
