<?xml version="1.0" encoding="UTF-8" standalone="no"?>
<!DOCTYPE svg PUBLIC "-//W3C//DTD SVG 1.1//EN"
 "http://www.w3.org/Graphics/SVG/1.1/DTD/svg11.dtd">
<!-- Generated by graphviz version 2.40.1 (20161225.0304)
 -->
<!-- Title: readPin Pages: 1 -->
<svg width="201pt" height="66pt"
 viewBox="0.00 0.00 201.00 66.00" xmlns="http://www.w3.org/2000/svg" xmlns:xlink="http://www.w3.org/1999/xlink">
<g id="graph0" class="graph" transform="scale(1 1) rotate(0) translate(4 62)">
<title>readPin</title>
<polygon fill="#ffffff" stroke="transparent" points="-4,4 -4,-62 197,-62 197,4 -4,4"/>
<!-- Node1 -->
<g id="node1" class="node">
<title>Node1</title>
<polygon fill="#bfbfbf" stroke="#000000" points="0,-19.5 0,-38.5 50,-38.5 50,-19.5 0,-19.5"/>
<text text-anchor="middle" x="25" y="-26.5" font-family="Helvetica,sans-Serif" font-size="10.00" fill="#000000">readPin</text>
</g>
<!-- Node2 -->
<g id="node2" class="node">
<title>Node2</title>
<g id="a_node2"><a xlink:href="structSoccerBoard.html#a8a72ca75182aa71d297d3cee80b1054a" target="_top" xlink:title="Reads an analog value from a pin. ">
<polygon fill="#ffffff" stroke="#000000" points="86,-38.5 86,-57.5 193,-57.5 193,-38.5 86,-38.5"/>
<text text-anchor="middle" x="139.5" y="-45.5" font-family="Helvetica,sans-Serif" font-size="10.00" fill="#000000">SoccerBoard::analog</text>
</a>
</g>
</g>
<!-- Node1&#45;&gt;Node2 -->
<g id="edge1" class="edge">
<title>Node1&#45;&gt;Node2</title>
<path fill="none" stroke="#191970" d="M60.0134,-34.8101C68.1679,-36.1632 77.035,-37.6346 85.7912,-39.0876"/>
<polygon fill="#191970" stroke="#191970" points="60.5656,-31.3539 50.1275,-33.1696 59.4196,-38.2595 60.5656,-31.3539"/>
</g>
<!-- Node3 -->
<g id="node3" class="node">
<title>Node3</title>
<g id="a_node3"><a xlink:href="structSoccerBoard.html#ac415567d530e78c9f46b00db4e64d9d5" target="_top" xlink:title="Reads a digital value from a pin. ">
<polygon fill="#ffffff" stroke="#000000" points="87.5,-.5 87.5,-19.5 191.5,-19.5 191.5,-.5 87.5,-.5"/>
<text text-anchor="middle" x="139.5" y="-7.5" font-family="Helvetica,sans-Serif" font-size="10.00" fill="#000000">SoccerBoard::digital</text>
</a>
</g>
</g>
<!-- Node1&#45;&gt;Node3 -->
<g id="edge2" class="edge">
<title>Node1&#45;&gt;Node3</title>
<path fill="none" stroke="#191970" d="M60.1188,-23.1724C68.6794,-21.7519 78.0204,-20.2018 87.1911,-18.6801"/>
<polygon fill="#191970" stroke="#191970" points="59.4196,-19.7405 50.1275,-24.8304 60.5656,-26.6461 59.4196,-19.7405"/>
</g>
</g>
</svg>
