<?xml version="1.0" encoding="UTF-8" standalone="no"?>
<!DOCTYPE svg PUBLIC "-//W3C//DTD SVG 1.1//EN"
 "http://www.w3.org/Graphics/SVG/1.1/DTD/svg11.dtd">
<!-- Generated by graphviz version 2.40.1 (20161225.0304)
 -->
<!-- Title: eBoard/source/eagle_TwoWire.h Pages: 1 -->
<svg width="275pt" height="95pt"
 viewBox="0.00 0.00 275.00 95.00" xmlns="http://www.w3.org/2000/svg" xmlns:xlink="http://www.w3.org/1999/xlink">
<g id="graph0" class="graph" transform="scale(1 1) rotate(0) translate(4 91)">
<title>eBoard/source/eagle_TwoWire.h</title>
<polygon fill="#ffffff" stroke="transparent" points="-4,4 -4,-91 271,-91 271,4 -4,4"/>
<!-- Node0 -->
<g id="node1" class="node">
<title>Node0</title>
<polygon fill="#bfbfbf" stroke="#000000" points="87.5,-56.5 87.5,-86.5 193.5,-86.5 193.5,-56.5 87.5,-56.5"/>
<text text-anchor="start" x="95.5" y="-74.5" font-family="Helvetica,sans-Serif" font-size="10.00" fill="#000000">eBoard/source/eagle</text>
<text text-anchor="middle" x="140.5" y="-63.5" font-family="Helvetica,sans-Serif" font-size="10.00" fill="#000000">_TwoWire.h</text>
</g>
<!-- Node1 -->
<g id="node2" class="node">
<title>Node1</title>
<polygon fill="#ffffff" stroke="#bfbfbf" points="0,-.5 0,-19.5 59,-19.5 59,-.5 0,-.5"/>
<text text-anchor="middle" x="29.5" y="-7.5" font-family="Helvetica,sans-Serif" font-size="10.00" fill="#000000">inttypes.h</text>
</g>
<!-- Node0&#45;&gt;Node1 -->
<g id="edge1" class="edge">
<title>Node0&#45;&gt;Node1</title>
<path fill="none" stroke="#191970" d="M113.3463,-56.4554C95.8005,-46.734 73.0878,-34.15 55.7279,-24.5317"/>
<polygon fill="#191970" stroke="#191970" points="57.1445,-21.3153 46.7011,-19.5303 53.752,-27.4383 57.1445,-21.3153"/>
</g>
<!-- Node2 -->
<g id="node3" class="node">
<title>Node2</title>
<polygon fill="#ffffff" stroke="#bfbfbf" points="77.5,-.5 77.5,-19.5 133.5,-19.5 133.5,-.5 77.5,-.5"/>
<text text-anchor="middle" x="105.5" y="-7.5" font-family="Helvetica,sans-Serif" font-size="10.00" fill="#000000">Stream.h</text>
</g>
<!-- Node0&#45;&gt;Node2 -->
<g id="edge2" class="edge">
<title>Node0&#45;&gt;Node2</title>
<path fill="none" stroke="#191970" d="M131.8483,-56.2977C127.0912,-47.9388 121.1502,-37.4997 116.1143,-28.6509"/>
<polygon fill="#191970" stroke="#191970" points="119.0921,-26.8069 111.1039,-19.8469 113.0083,-30.2692 119.0921,-26.8069"/>
</g>
<!-- Node3 -->
<g id="node4" class="node">
<title>Node3</title>
<polygon fill="#ffffff" stroke="#bfbfbf" points="151.5,-.5 151.5,-19.5 199.5,-19.5 199.5,-.5 151.5,-.5"/>
<text text-anchor="middle" x="175.5" y="-7.5" font-family="Helvetica,sans-Serif" font-size="10.00" fill="#000000">stdlib.h</text>
</g>
<!-- Node0&#45;&gt;Node3 -->
<g id="edge3" class="edge">
<title>Node0&#45;&gt;Node3</title>
<path fill="none" stroke="#191970" d="M149.1517,-56.2977C153.9088,-47.9388 159.8498,-37.4997 164.8857,-28.6509"/>
<polygon fill="#191970" stroke="#191970" points="167.9917,-30.2692 169.8961,-19.8469 161.9079,-26.8069 167.9917,-30.2692"/>
</g>
<!-- Node4 -->
<g id="node5" class="node">
<title>Node4</title>
<polygon fill="#ffffff" stroke="#bfbfbf" points="218,-.5 218,-19.5 267,-19.5 267,-.5 218,-.5"/>
<text text-anchor="middle" x="242.5" y="-7.5" font-family="Helvetica,sans-Serif" font-size="10.00" fill="#000000">string.h</text>
</g>
<!-- Node0&#45;&gt;Node4 -->
<g id="edge4" class="edge">
<title>Node0&#45;&gt;Node4</title>
<path fill="none" stroke="#191970" d="M165.452,-56.4554C181.4259,-46.8241 202.0602,-34.3828 217.9543,-24.7996"/>
<polygon fill="#191970" stroke="#191970" points="219.937,-27.6912 226.6936,-19.5303 216.3226,-21.6965 219.937,-27.6912"/>
</g>
</g>
</svg>
