<?xml version="1.0" encoding="UTF-8" standalone="no"?>
<!DOCTYPE svg PUBLIC "-//W3C//DTD SVG 1.1//EN"
 "http://www.w3.org/Graphics/SVG/1.1/DTD/svg11.dtd">
<!-- Generated by graphviz version 2.38.0 (20140413.2041)
 -->
<!-- Title: eBoard/eBoard.h Pages: 1 -->
<svg width="1662pt" height="151pt"
 viewBox="0.00 0.00 1662.00 151.00" xmlns="http://www.w3.org/2000/svg" xmlns:xlink="http://www.w3.org/1999/xlink">
<g id="graph0" class="graph" transform="scale(1 1) rotate(0) translate(4 147)">
<title>eBoard/eBoard.h</title>
<polygon fill="white" stroke="none" points="-4,4 -4,-147 1658,-147 1658,4 -4,4"/>
<!-- Node0 -->
<g id="node1" class="node"><title>Node0</title>
<polygon fill="#bfbfbf" stroke="black" points="682,-123.5 682,-142.5 817,-142.5 817,-123.5 682,-123.5"/>
<text text-anchor="middle" x="749.5" y="-130.5" font-family="Helvetica,sans-Serif" font-size="10.00">eBoard/eBoard.h</text>
</g>
<!-- Node1 -->
<g id="node2" class="node"><title>Node1</title>
<g id="a_node2"><a xlink:href="eagle__PreprocessorControl_8h.html" target="_top" xlink:title="source/eagle_Preprocessor\lControl.h">
<polygon fill="white" stroke="black" points="0,-56.5 0,-86.5 135,-86.5 135,-56.5 0,-56.5"/>
<text text-anchor="start" x="8" y="-74.5" font-family="Helvetica,sans-Serif" font-size="10.00">source/eagle_Preprocessor</text>
<text text-anchor="middle" x="67.5" y="-63.5" font-family="Helvetica,sans-Serif" font-size="10.00">Control.h</text>
</a>
</g>
</g>
<!-- Node0&#45;&gt;Node1 -->
<g id="edge1" class="edge"><title>Node0&#45;&gt;Node1</title>
<path fill="none" stroke="midnightblue" d="M681.652,-129.432C571.344,-124.71 346.122,-112.802 145.192,-86.9802"/>
<polygon fill="midnightblue" stroke="midnightblue" points="145.405,-83.4785 135.038,-85.6605 144.503,-90.4202 145.405,-83.4785"/>
</g>
<!-- Node2 -->
<g id="node3" class="node"><title>Node2</title>
<polygon fill="white" stroke="#bfbfbf" points="153.5,-62 153.5,-81 239.5,-81 239.5,-62 153.5,-62"/>
<text text-anchor="middle" x="196.5" y="-69" font-family="Helvetica,sans-Serif" font-size="10.00">avr/pgmspace.h</text>
</g>
<!-- Node0&#45;&gt;Node2 -->
<g id="edge2" class="edge"><title>Node0&#45;&gt;Node2</title>
<path fill="none" stroke="midnightblue" d="M681.714,-129.83C584.92,-125.846 401.843,-115.024 248.5,-87 243.628,-86.1096 238.552,-84.969 233.563,-83.7194"/>
<polygon fill="midnightblue" stroke="midnightblue" points="234.104,-80.2414 223.54,-81.0465 232.3,-87.005 234.104,-80.2414"/>
</g>
<!-- Node3 -->
<g id="node4" class="node"><title>Node3</title>
<polygon fill="white" stroke="#bfbfbf" points="257.5,-62 257.5,-81 315.5,-81 315.5,-62 257.5,-62"/>
<text text-anchor="middle" x="286.5" y="-69" font-family="Helvetica,sans-Serif" font-size="10.00">Arduino.h</text>
</g>
<!-- Node0&#45;&gt;Node3 -->
<g id="edge3" class="edge"><title>Node0&#45;&gt;Node3</title>
<path fill="none" stroke="midnightblue" d="M681.771,-130.426C596.92,-127.188 447.588,-117.284 323.5,-87 320.672,-86.3099 317.772,-85.4535 314.899,-84.5043"/>
<polygon fill="midnightblue" stroke="midnightblue" points="315.981,-81.1732 305.387,-81.0266 313.577,-87.7476 315.981,-81.1732"/>
</g>
<!-- Node4 -->
<g id="node5" class="node"><title>Node4</title>
<g id="a_node5"><a xlink:href="eagle__Comfort_8h.html" target="_top" xlink:title="source/eagle_Comfort.h">
<polygon fill="white" stroke="black" points="333,-62 333,-81 454,-81 454,-62 333,-62"/>
<text text-anchor="middle" x="393.5" y="-69" font-family="Helvetica,sans-Serif" font-size="10.00">source/eagle_Comfort.h</text>
</a>
</g>
</g>
<!-- Node0&#45;&gt;Node4 -->
<g id="edge4" class="edge"><title>Node0&#45;&gt;Node4</title>
<path fill="none" stroke="midnightblue" d="M689.927,-123.481C631.976,-114.993 541.508,-101.208 463.5,-87 456.855,-85.7897 449.872,-84.4388 442.995,-83.0616"/>
<polygon fill="midnightblue" stroke="midnightblue" points="443.543,-79.6015 433.046,-81.0385 442.148,-86.4611 443.543,-79.6015"/>
</g>
<!-- Node5 -->
<g id="node6" class="node"><title>Node5</title>
<polygon fill="white" stroke="#bfbfbf" points="472,-62 472,-81 521,-81 521,-62 472,-62"/>
<text text-anchor="middle" x="496.5" y="-69" font-family="Helvetica,sans-Serif" font-size="10.00">avr/io.h</text>
</g>
<!-- Node0&#45;&gt;Node5 -->
<g id="edge5" class="edge"><title>Node0&#45;&gt;Node5</title>
<path fill="none" stroke="midnightblue" d="M691.985,-123.424C647.344,-115.995 584.22,-103.788 530.5,-87 528.36,-86.3313 526.171,-85.575 523.986,-84.7675"/>
<polygon fill="midnightblue" stroke="midnightblue" points="525.183,-81.4768 514.598,-81.0126 522.583,-87.9761 525.183,-81.4768"/>
</g>
<!-- Node6 -->
<g id="node7" class="node"><title>Node6</title>
<polygon fill="white" stroke="#bfbfbf" points="539,-62 539,-81 616,-81 616,-62 539,-62"/>
<text text-anchor="middle" x="577.5" y="-69" font-family="Helvetica,sans-Serif" font-size="10.00">avr/interrupt.h</text>
</g>
<!-- Node0&#45;&gt;Node6 -->
<g id="edge6" class="edge"><title>Node0&#45;&gt;Node6</title>
<path fill="none" stroke="midnightblue" d="M724.857,-123.475C695.225,-113.225 645.315,-95.9593 611.898,-84.3994"/>
<polygon fill="midnightblue" stroke="midnightblue" points="612.692,-80.9707 602.098,-81.0091 610.404,-87.5861 612.692,-80.9707"/>
</g>
<!-- Node7 -->
<g id="node8" class="node"><title>Node7</title>
<g id="a_node8"><a xlink:href="eagle__Twi_8h.html" target="_top" xlink:title="source/eagle_Twi.h">
<polygon fill="white" stroke="black" points="634,-62 634,-81 735,-81 735,-62 634,-62"/>
<text text-anchor="middle" x="684.5" y="-69" font-family="Helvetica,sans-Serif" font-size="10.00">source/eagle_Twi.h</text>
</a>
</g>
</g>
<!-- Node0&#45;&gt;Node7 -->
<g id="edge7" class="edge"><title>Node0&#45;&gt;Node7</title>
<path fill="none" stroke="midnightblue" d="M740.187,-123.475C730.051,-114.197 713.636,-99.1706 701.248,-87.831"/>
<polygon fill="midnightblue" stroke="midnightblue" points="703.535,-85.1795 693.796,-81.0091 698.809,-90.3429 703.535,-85.1795"/>
</g>
<!-- Node9 -->
<g id="node10" class="node"><title>Node9</title>
<g id="a_node10"><a xlink:href="eagle__TwoWire_8h.html" target="_top" xlink:title="source/eagle_TwoWire.h">
<polygon fill="white" stroke="black" points="753,-62 753,-81 878,-81 878,-62 753,-62"/>
<text text-anchor="middle" x="815.5" y="-69" font-family="Helvetica,sans-Serif" font-size="10.00">source/eagle_TwoWire.h</text>
</a>
</g>
</g>
<!-- Node0&#45;&gt;Node9 -->
<g id="edge9" class="edge"><title>Node0&#45;&gt;Node9</title>
<path fill="none" stroke="midnightblue" d="M758.956,-123.475C769.248,-114.197 785.916,-99.1706 798.494,-87.831"/>
<polygon fill="midnightblue" stroke="midnightblue" points="800.978,-90.3046 806.061,-81.0091 796.29,-85.1054 800.978,-90.3046"/>
</g>
<!-- Node13 -->
<g id="node14" class="node"><title>Node13</title>
<g id="a_node14"><a xlink:href="eagle__SPI_8h.html" target="_top" xlink:title="source/eagle_SPI.h">
<polygon fill="white" stroke="black" points="896.5,-62 896.5,-81 998.5,-81 998.5,-62 896.5,-62"/>
<text text-anchor="middle" x="947.5" y="-69" font-family="Helvetica,sans-Serif" font-size="10.00">source/eagle_SPI.h</text>
</a>
</g>
</g>
<!-- Node0&#45;&gt;Node13 -->
<g id="edge14" class="edge"><title>Node0&#45;&gt;Node13</title>
<path fill="none" stroke="midnightblue" d="M777.869,-123.475C812.421,-113.092 870.924,-95.5116 909.385,-83.9538"/>
<polygon fill="midnightblue" stroke="midnightblue" points="910.614,-87.239 919.184,-81.0091 908.6,-80.5351 910.614,-87.239"/>
</g>
<!-- Node15 -->
<g id="node16" class="node"><title>Node15</title>
<polygon fill="white" stroke="#bfbfbf" points="1017,-62 1017,-81 1074,-81 1074,-62 1017,-62"/>
<text text-anchor="middle" x="1045.5" y="-69" font-family="Helvetica,sans-Serif" font-size="10.00">avr/wdt.h</text>
</g>
<!-- Node0&#45;&gt;Node15 -->
<g id="edge16" class="edge"><title>Node0&#45;&gt;Node15</title>
<path fill="none" stroke="midnightblue" d="M817.101,-123.824C869.607,-116.609 943.936,-104.496 1007.5,-87 1010.15,-86.2697 1012.88,-85.4258 1015.59,-84.5198"/>
<polygon fill="midnightblue" stroke="midnightblue" points="1017,-87.733 1025.23,-81.0583 1014.64,-81.1452 1017,-87.733"/>
</g>
<!-- Node16 -->
<g id="node17" class="node"><title>Node16</title>
<g id="a_node17"><a xlink:href="eagle__SoftwareSerial_8h.html" target="_top" xlink:title="source/eagle_SoftwareSerial.h">
<polygon fill="white" stroke="black" points="1092,-62 1092,-81 1241,-81 1241,-62 1092,-62"/>
<text text-anchor="middle" x="1166.5" y="-69" font-family="Helvetica,sans-Serif" font-size="10.00">source/eagle_SoftwareSerial.h</text>
</a>
</g>
</g>
<!-- Node0&#45;&gt;Node16 -->
<g id="edge17" class="edge"><title>Node0&#45;&gt;Node16</title>
<path fill="none" stroke="midnightblue" d="M817.101,-123.678C884.65,-115.178 991.417,-101.241 1083.5,-87 1091.92,-85.6984 1100.8,-84.2389 1109.5,-82.7606"/>
<polygon fill="midnightblue" stroke="midnightblue" points="1110.32,-86.1698 1119.59,-81.025 1109.14,-79.2711 1110.32,-86.1698"/>
</g>
<!-- Node17 -->
<g id="node18" class="node"><title>Node17</title>
<g id="a_node18"><a xlink:href="eagle__Assert_8h.html" target="_top" xlink:title="source/eagle_Assert.h">
<polygon fill="white" stroke="black" points="1259.5,-62 1259.5,-81 1373.5,-81 1373.5,-62 1259.5,-62"/>
<text text-anchor="middle" x="1316.5" y="-69" font-family="Helvetica,sans-Serif" font-size="10.00">source/eagle_Assert.h</text>
</a>
</g>
</g>
<!-- Node0&#45;&gt;Node17 -->
<g id="edge18" class="edge"><title>Node0&#45;&gt;Node17</title>
<path fill="none" stroke="midnightblue" d="M817.088,-128.653C913.643,-123.255 1096.44,-110.745 1250.5,-87 1257.36,-85.9434 1264.56,-84.6014 1271.6,-83.1623"/>
<polygon fill="midnightblue" stroke="midnightblue" points="1272.67,-86.5134 1281.72,-81.0061 1271.21,-79.6671 1272.67,-86.5134"/>
</g>
<!-- Node19 -->
<g id="node20" class="node"><title>Node19</title>
<g id="a_node20"><a xlink:href="eagle__Checks_8h.html" target="_top" xlink:title="source/eagle_Checks.h">
<polygon fill="white" stroke="black" points="1392,-62 1392,-81 1511,-81 1511,-62 1392,-62"/>
<text text-anchor="middle" x="1451.5" y="-69" font-family="Helvetica,sans-Serif" font-size="10.00">source/eagle_Checks.h</text>
</a>
</g>
</g>
<!-- Node0&#45;&gt;Node19 -->
<g id="edge20" class="edge"><title>Node0&#45;&gt;Node19</title>
<path fill="none" stroke="midnightblue" d="M817.268,-130.208C933.45,-126.462 1177.92,-115.632 1382.5,-87 1390,-85.9501 1397.91,-84.5605 1405.59,-83.0568"/>
<polygon fill="midnightblue" stroke="midnightblue" points="1406.4,-86.4636 1415.49,-81.0332 1405,-79.6051 1406.4,-86.4636"/>
</g>
<!-- Node20 -->
<g id="node21" class="node"><title>Node20</title>
<g id="a_node21"><a xlink:href="eagle__NanoMot_8h.html" target="_top" xlink:title="source/eagle_NanoMot.h">
<polygon fill="white" stroke="black" points="1529,-62 1529,-81 1654,-81 1654,-62 1529,-62"/>
<text text-anchor="middle" x="1591.5" y="-69" font-family="Helvetica,sans-Serif" font-size="10.00">source/eagle_NanoMot.h</text>
</a>
</g>
</g>
<!-- Node0&#45;&gt;Node20 -->
<g id="edge21" class="edge"><title>Node0&#45;&gt;Node20</title>
<path fill="none" stroke="midnightblue" d="M817.097,-131.3C951.599,-129.193 1262.07,-120.754 1520.5,-87 1528.39,-85.9689 1536.72,-84.5616 1544.79,-83.027"/>
<polygon fill="midnightblue" stroke="midnightblue" points="1545.69,-86.4165 1554.82,-81.0339 1544.33,-79.5508 1545.69,-86.4165"/>
</g>
<!-- Node8 -->
<g id="node9" class="node"><title>Node8</title>
<polygon fill="white" stroke="#bfbfbf" points="647,-0.5 647,-19.5 706,-19.5 706,-0.5 647,-0.5"/>
<text text-anchor="middle" x="676.5" y="-7.5" font-family="Helvetica,sans-Serif" font-size="10.00">inttypes.h</text>
</g>
<!-- Node7&#45;&gt;Node8 -->
<g id="edge8" class="edge"><title>Node7&#45;&gt;Node8</title>
<path fill="none" stroke="midnightblue" d="M683.354,-61.9751C682.225,-53.5803 680.464,-40.4806 679.009,-29.6631"/>
<polygon fill="midnightblue" stroke="midnightblue" points="682.445,-28.9535 677.644,-19.5091 675.508,-29.8863 682.445,-28.9535"/>
</g>
<!-- Node9&#45;&gt;Node8 -->
<g id="edge10" class="edge"><title>Node9&#45;&gt;Node8</title>
<path fill="none" stroke="midnightblue" d="M795.585,-61.9751C772.051,-51.9013 732.69,-35.0525 705.707,-23.5023"/>
<polygon fill="midnightblue" stroke="midnightblue" points="706.949,-20.2267 696.378,-19.5091 704.194,-26.662 706.949,-20.2267"/>
</g>
<!-- Node10 -->
<g id="node11" class="node"><title>Node10</title>
<polygon fill="white" stroke="#bfbfbf" points="724.5,-0.5 724.5,-19.5 780.5,-19.5 780.5,-0.5 724.5,-0.5"/>
<text text-anchor="middle" x="752.5" y="-7.5" font-family="Helvetica,sans-Serif" font-size="10.00">Stream.h</text>
</g>
<!-- Node9&#45;&gt;Node10 -->
<g id="edge11" class="edge"><title>Node9&#45;&gt;Node10</title>
<path fill="none" stroke="midnightblue" d="M806.474,-61.9751C796.743,-52.785 781.042,-37.9563 769.077,-26.656"/>
<polygon fill="midnightblue" stroke="midnightblue" points="771.183,-23.8308 761.51,-19.5091 766.377,-28.9199 771.183,-23.8308"/>
</g>
<!-- Node11 -->
<g id="node12" class="node"><title>Node11</title>
<polygon fill="white" stroke="#bfbfbf" points="798.5,-0.5 798.5,-19.5 846.5,-19.5 846.5,-0.5 798.5,-0.5"/>
<text text-anchor="middle" x="822.5" y="-7.5" font-family="Helvetica,sans-Serif" font-size="10.00">stdlib.h</text>
</g>
<!-- Node9&#45;&gt;Node11 -->
<g id="edge12" class="edge"><title>Node9&#45;&gt;Node11</title>
<path fill="none" stroke="midnightblue" d="M816.503,-61.9751C817.491,-53.5803 819.032,-40.4806 820.304,-29.6631"/>
<polygon fill="midnightblue" stroke="midnightblue" points="823.806,-29.8496 821.499,-19.5091 816.854,-29.0316 823.806,-29.8496"/>
</g>
<!-- Node12 -->
<g id="node13" class="node"><title>Node12</title>
<polygon fill="white" stroke="#bfbfbf" points="865,-0.5 865,-19.5 914,-19.5 914,-0.5 865,-0.5"/>
<text text-anchor="middle" x="889.5" y="-7.5" font-family="Helvetica,sans-Serif" font-size="10.00">string.h</text>
</g>
<!-- Node9&#45;&gt;Node12 -->
<g id="edge13" class="edge"><title>Node9&#45;&gt;Node12</title>
<path fill="none" stroke="midnightblue" d="M826.102,-61.9751C837.752,-52.6082 856.686,-37.3839 870.835,-26.0081"/>
<polygon fill="midnightblue" stroke="midnightblue" points="873.317,-28.503 878.917,-19.5091 868.931,-23.0477 873.317,-28.503"/>
</g>
<!-- Node14 -->
<g id="node15" class="node"><title>Node14</title>
<polygon fill="white" stroke="#bfbfbf" points="932.5,-0.5 932.5,-19.5 978.5,-19.5 978.5,-0.5 932.5,-0.5"/>
<text text-anchor="middle" x="955.5" y="-7.5" font-family="Helvetica,sans-Serif" font-size="10.00">stdio.h</text>
</g>
<!-- Node13&#45;&gt;Node14 -->
<g id="edge15" class="edge"><title>Node13&#45;&gt;Node14</title>
<path fill="none" stroke="midnightblue" d="M948.646,-61.9751C949.775,-53.5803 951.536,-40.4806 952.991,-29.6631"/>
<polygon fill="midnightblue" stroke="midnightblue" points="956.492,-29.8863 954.356,-19.5091 949.555,-28.9535 956.492,-29.8863"/>
</g>
<!-- Node18 -->
<g id="node19" class="node"><title>Node18</title>
<polygon fill="white" stroke="#bfbfbf" points="1290.5,-0.5 1290.5,-19.5 1342.5,-19.5 1342.5,-0.5 1290.5,-0.5"/>
<text text-anchor="middle" x="1316.5" y="-7.5" font-family="Helvetica,sans-Serif" font-size="10.00">assert.h</text>
</g>
<!-- Node17&#45;&gt;Node18 -->
<g id="edge19" class="edge"><title>Node17&#45;&gt;Node18</title>
<path fill="none" stroke="midnightblue" d="M1316.5,-61.9751C1316.5,-53.5803 1316.5,-40.4806 1316.5,-29.6631"/>
<polygon fill="midnightblue" stroke="midnightblue" points="1320,-29.5091 1316.5,-19.5091 1313,-29.5091 1320,-29.5091"/>
</g>
</g>
</svg>
