<?xml version="1.0" encoding="UTF-8" standalone="no"?>
<!DOCTYPE svg PUBLIC "-//W3C//DTD SVG 1.1//EN"
 "http://www.w3.org/Graphics/SVG/1.1/DTD/svg11.dtd">
<!-- Generated by graphviz version 2.38.0 (20140413.2041)
 -->
<!-- Title: checkPin Pages: 1 -->
<svg width="460pt" height="313pt"
 viewBox="0.00 0.00 460.00 313.00" xmlns="http://www.w3.org/2000/svg" xmlns:xlink="http://www.w3.org/1999/xlink">
<g id="graph0" class="graph" transform="scale(1 1) rotate(0) translate(4 309)">
<title>checkPin</title>
<polygon fill="white" stroke="none" points="-4,4 -4,-309 456,-309 456,4 -4,4"/>
<!-- Node29 -->
<g id="node1" class="node"><title>Node29</title>
<polygon fill="#bfbfbf" stroke="black" points="0,-190.5 0,-209.5 57,-209.5 57,-190.5 0,-190.5"/>
<text text-anchor="middle" x="28.5" y="-197.5" font-family="Helvetica,sans-Serif" font-size="10.00">checkPin</text>
</g>
<!-- Node30 -->
<g id="node2" class="node"><title>Node30</title>
<g id="a_node2"><a xlink:href="eBoard__comment_8h.html#aca4f96af7c6736bf2b61c88d731af741" target="_top" xlink:title="read a digital state from an INPUTpin ">
<polygon fill="white" stroke="black" points="94,-247.5 94,-266.5 144,-266.5 144,-247.5 94,-247.5"/>
<text text-anchor="middle" x="119" y="-254.5" font-family="Helvetica,sans-Serif" font-size="10.00">readPin</text>
</a>
</g>
</g>
<!-- Node29&#45;&gt;Node30 -->
<g id="edge1" class="edge"><title>Node29&#45;&gt;Node30</title>
<path fill="none" stroke="midnightblue" d="M53.266,-215.307C69.1669,-225.548 89.5958,-238.706 103.209,-247.474"/>
<polygon fill="midnightblue" stroke="midnightblue" points="54.8152,-212.142 44.5128,-209.669 51.0248,-218.027 54.8152,-212.142"/>
</g>
<!-- Node33 -->
<g id="node5" class="node"><title>Node33</title>
<g id="a_node5"><a xlink:href="eBoard__comment_8h.html#ad6d4c1b1e3b495ed81fb28fac04d2bd6" target="_top" xlink:title="write a boolean state to an output pin ">
<polygon fill="white" stroke="black" points="93,-133.5 93,-152.5 145,-152.5 145,-133.5 93,-133.5"/>
<text text-anchor="middle" x="119" y="-140.5" font-family="Helvetica,sans-Serif" font-size="10.00">writePin</text>
</a>
</g>
</g>
<!-- Node29&#45;&gt;Node33 -->
<g id="edge4" class="edge"><title>Node29&#45;&gt;Node33</title>
<path fill="none" stroke="midnightblue" d="M53.266,-184.693C69.1669,-174.452 89.5958,-161.294 103.209,-152.526"/>
<polygon fill="midnightblue" stroke="midnightblue" points="51.0248,-181.973 44.5128,-190.331 54.8152,-187.858 51.0248,-181.973"/>
</g>
<!-- Node31 -->
<g id="node3" class="node"><title>Node31</title>
<g id="a_node3"><a xlink:href="structSoccerBoard.html#ac415567d530e78c9f46b00db4e64d9d5" target="_top" xlink:title="SoccerBoard::digital">
<polygon fill="white" stroke="black" points="187,-285.5 187,-304.5 291,-304.5 291,-285.5 187,-285.5"/>
<text text-anchor="middle" x="239" y="-292.5" font-family="Helvetica,sans-Serif" font-size="10.00">SoccerBoard::digital</text>
</a>
</g>
</g>
<!-- Node30&#45;&gt;Node31 -->
<g id="edge2" class="edge"><title>Node30&#45;&gt;Node31</title>
<path fill="none" stroke="midnightblue" d="M153.847,-267.9C171.083,-273.45 191.843,-280.136 208.431,-285.478"/>
<polygon fill="midnightblue" stroke="midnightblue" points="154.755,-264.515 144.164,-264.782 152.61,-271.178 154.755,-264.515"/>
</g>
<!-- Node32 -->
<g id="node4" class="node"><title>Node32</title>
<g id="a_node4"><a xlink:href="structSoccerBoard.html#a8a72ca75182aa71d297d3cee80b1054a" target="_top" xlink:title="SoccerBoard::analog">
<polygon fill="white" stroke="black" points="185.5,-247.5 185.5,-266.5 292.5,-266.5 292.5,-247.5 185.5,-247.5"/>
<text text-anchor="middle" x="239" y="-254.5" font-family="Helvetica,sans-Serif" font-size="10.00">SoccerBoard::analog</text>
</a>
</g>
</g>
<!-- Node30&#45;&gt;Node32 -->
<g id="edge3" class="edge"><title>Node30&#45;&gt;Node32</title>
<path fill="none" stroke="midnightblue" d="M154.176,-257C163.857,-257 174.628,-257 185.137,-257"/>
<polygon fill="midnightblue" stroke="midnightblue" points="154.164,-253.5 144.164,-257 154.164,-260.5 154.164,-253.5"/>
</g>
<!-- Node34 -->
<g id="node6" class="node"><title>Node34</title>
<g id="a_node6"><a xlink:href="structSoccerBoard.html#a01ff8231432776da9e5e5e1c05257606" target="_top" xlink:title="SoccerBoard::led">
<polygon fill="white" stroke="black" points="193,-209.5 193,-228.5 285,-228.5 285,-209.5 193,-209.5"/>
<text text-anchor="middle" x="239" y="-216.5" font-family="Helvetica,sans-Serif" font-size="10.00">SoccerBoard::led</text>
</a>
</g>
</g>
<!-- Node33&#45;&gt;Node34 -->
<g id="edge5" class="edge"><title>Node33&#45;&gt;Node34</title>
<path fill="none" stroke="midnightblue" d="M134.815,-160.389C146.304,-172.921 163.22,-189.423 181,-200 187.275,-203.733 194.381,-206.845 201.393,-209.397"/>
<polygon fill="midnightblue" stroke="midnightblue" points="137.355,-157.978 128.095,-152.829 132.123,-162.629 137.355,-157.978"/>
</g>
<!-- Node35 -->
<g id="node7" class="node"><title>Node35</title>
<g id="a_node7"><a xlink:href="structSoccerBoard.html#abaefeaaf5c0ea659dce35903284ee577" target="_top" xlink:title="SoccerBoard::ledOn">
<polygon fill="white" stroke="black" points="187,-171.5 187,-190.5 291,-190.5 291,-171.5 187,-171.5"/>
<text text-anchor="middle" x="239" y="-178.5" font-family="Helvetica,sans-Serif" font-size="10.00">SoccerBoard::ledOn</text>
</a>
</g>
</g>
<!-- Node33&#45;&gt;Node35 -->
<g id="edge6" class="edge"><title>Node33&#45;&gt;Node35</title>
<path fill="none" stroke="midnightblue" d="M154.641,-154.156C171.715,-159.654 192.091,-166.216 208.423,-171.475"/>
<polygon fill="midnightblue" stroke="midnightblue" points="155.616,-150.793 145.025,-151.059 153.47,-157.456 155.616,-150.793"/>
</g>
<!-- Node36 -->
<g id="node8" class="node"><title>Node36</title>
<g id="a_node8"><a xlink:href="structSoccerBoard.html#af358ec89f0eab4a87b00959dc54f3e16" target="_top" xlink:title="SoccerBoard::ledOff">
<polygon fill="white" stroke="black" points="186.5,-133.5 186.5,-152.5 291.5,-152.5 291.5,-133.5 186.5,-133.5"/>
<text text-anchor="middle" x="239" y="-140.5" font-family="Helvetica,sans-Serif" font-size="10.00">SoccerBoard::ledOff</text>
</a>
</g>
</g>
<!-- Node33&#45;&gt;Node36 -->
<g id="edge7" class="edge"><title>Node33&#45;&gt;Node36</title>
<path fill="none" stroke="midnightblue" d="M155.162,-143C164.945,-143 175.778,-143 186.297,-143"/>
<polygon fill="midnightblue" stroke="midnightblue" points="155.025,-139.5 145.025,-143 155.025,-146.5 155.025,-139.5"/>
</g>
<!-- Node37 -->
<g id="node9" class="node"><title>Node37</title>
<g id="a_node9"><a xlink:href="structSoccerBoard.html#a80d7f7690654433e3253f6924eb1164d" target="_top" xlink:title="SoccerBoard::ledsOff">
<polygon fill="white" stroke="black" points="184,-95.5 184,-114.5 294,-114.5 294,-95.5 184,-95.5"/>
<text text-anchor="middle" x="239" y="-102.5" font-family="Helvetica,sans-Serif" font-size="10.00">SoccerBoard::ledsOff</text>
</a>
</g>
</g>
<!-- Node33&#45;&gt;Node37 -->
<g id="edge8" class="edge"><title>Node33&#45;&gt;Node37</title>
<path fill="none" stroke="midnightblue" d="M154.641,-131.844C171.715,-126.346 192.091,-119.784 208.423,-114.525"/>
<polygon fill="midnightblue" stroke="midnightblue" points="153.47,-128.544 145.025,-134.941 155.616,-135.207 153.47,-128.544"/>
</g>
<!-- Node38 -->
<g id="node10" class="node"><title>Node38</title>
<g id="a_node10"><a xlink:href="structSoccerBoard.html#a978649a6b3089e6215da01b0f87ee3f1" target="_top" xlink:title="SoccerBoard::ledMeter">
<polygon fill="white" stroke="black" points="181,-57.5 181,-76.5 297,-76.5 297,-57.5 181,-57.5"/>
<text text-anchor="middle" x="239" y="-64.5" font-family="Helvetica,sans-Serif" font-size="10.00">SoccerBoard::ledMeter</text>
</a>
</g>
</g>
<!-- Node33&#45;&gt;Node38 -->
<g id="edge9" class="edge"><title>Node33&#45;&gt;Node38</title>
<path fill="none" stroke="midnightblue" d="M134.815,-125.611C146.304,-113.079 163.22,-96.5767 181,-86 187.275,-82.267 194.381,-79.1549 201.393,-76.6032"/>
<polygon fill="midnightblue" stroke="midnightblue" points="132.123,-123.371 128.095,-133.171 137.355,-128.022 132.123,-123.371"/>
</g>
<!-- Node39 -->
<g id="node11" class="node"><title>Node39</title>
<g id="a_node11"><a xlink:href="structSoccerBoard.html#a04c6b8fd4b6d1cd24be9c1b3291dbf06" target="_top" xlink:title="SoccerBoard::power">
<polygon fill="white" stroke="black" points="186.5,-19.5 186.5,-38.5 291.5,-38.5 291.5,-19.5 186.5,-19.5"/>
<text text-anchor="middle" x="239" y="-26.5" font-family="Helvetica,sans-Serif" font-size="10.00">SoccerBoard::power</text>
</a>
</g>
</g>
<!-- Node33&#45;&gt;Node39 -->
<g id="edge10" class="edge"><title>Node33&#45;&gt;Node39</title>
<path fill="none" stroke="midnightblue" d="M127.524,-124.044C136.949,-102.635 155.07,-68.161 181,-48 185.941,-44.1584 191.697,-41.0738 197.615,-38.6025"/>
<polygon fill="midnightblue" stroke="midnightblue" points="124.247,-122.81 123.6,-133.385 130.7,-125.521 124.247,-122.81"/>
</g>
<!-- Node40 -->
<g id="node12" class="node"><title>Node40</title>
<g id="a_node12"><a xlink:href="structSoccerBoard.html#aa46822d5b727bf3e427c5ceba995f42f" target="_top" xlink:title="SoccerBoard::powerOn">
<polygon fill="white" stroke="black" points="333.5,-38.5 333.5,-57.5 451.5,-57.5 451.5,-38.5 333.5,-38.5"/>
<text text-anchor="middle" x="392.5" y="-45.5" font-family="Helvetica,sans-Serif" font-size="10.00">SoccerBoard::powerOn</text>
</a>
</g>
</g>
<!-- Node39&#45;&gt;Node40 -->
<g id="edge11" class="edge"><title>Node39&#45;&gt;Node40</title>
<path fill="none" stroke="midnightblue" d="M301.922,-36.7658C312.279,-38.0647 322.994,-39.4084 333.255,-40.6953"/>
<polygon fill="midnightblue" stroke="midnightblue" points="302.072,-33.2572 291.714,-35.4856 301.201,-40.2028 302.072,-33.2572"/>
</g>
<!-- Node41 -->
<g id="node13" class="node"><title>Node41</title>
<g id="a_node13"><a xlink:href="structSoccerBoard.html#a5442e3a7ca58ed90d9e4af0cac83ebdd" target="_top" xlink:title="SoccerBoard::powerOff">
<polygon fill="white" stroke="black" points="333,-0.5 333,-19.5 452,-19.5 452,-0.5 333,-0.5"/>
<text text-anchor="middle" x="392.5" y="-7.5" font-family="Helvetica,sans-Serif" font-size="10.00">SoccerBoard::powerOff</text>
</a>
</g>
</g>
<!-- Node39&#45;&gt;Node41 -->
<g id="edge12" class="edge"><title>Node39&#45;&gt;Node41</title>
<path fill="none" stroke="midnightblue" d="M301.856,-21.2425C312.145,-19.9521 322.789,-18.6173 332.991,-17.3377"/>
<polygon fill="midnightblue" stroke="midnightblue" points="301.201,-17.7972 291.714,-22.5144 302.072,-24.7428 301.201,-17.7972"/>
</g>
</g>
</svg>
