<?xml version="1.0" encoding="UTF-8" standalone="no"?>
<!DOCTYPE svg PUBLIC "-//W3C//DTD SVG 1.1//EN"
 "http://www.w3.org/Graphics/SVG/1.1/DTD/svg11.dtd">
<!-- Generated by graphviz version 2.38.0 (20140413.2041)
 -->
<!-- Title: setup Pages: 1 -->
<svg width="387pt" height="393pt"
 viewBox="0.00 0.00 387.00 393.00" xmlns="http://www.w3.org/2000/svg" xmlns:xlink="http://www.w3.org/1999/xlink">
<g id="graph0" class="graph" transform="scale(1 1) rotate(0) translate(4 389)">
<title>setup</title>
<polygon fill="white" stroke="none" points="-4,4 -4,-389 383,-389 383,4 -4,4"/>
<!-- Node190 -->
<g id="node1" class="node"><title>Node190</title>
<polygon fill="#bfbfbf" stroke="black" points="0,-171.5 0,-190.5 41,-190.5 41,-171.5 0,-171.5"/>
<text text-anchor="middle" x="20.5" y="-178.5" font-family="Helvetica,sans-Serif" font-size="10.00">setup</text>
</g>
<!-- Node191 -->
<g id="node2" class="node"><title>Node191</title>
<g id="a_node2"><a xlink:href="eBoard_8h.html#acb51742a61b072bb500b6e0713d7dc2c" target="_top" xlink:title="_serial">
<polygon fill="white" stroke="black" points="121,-365.5 121,-384.5 166,-384.5 166,-365.5 121,-365.5"/>
<text text-anchor="middle" x="143.5" y="-372.5" font-family="Helvetica,sans-Serif" font-size="10.00">_serial</text>
</a>
</g>
</g>
<!-- Node190&#45;&gt;Node191 -->
<g id="edge1" class="edge"><title>Node190&#45;&gt;Node191</title>
<path fill="none" stroke="midnightblue" d="M21.5684,-190.55C22.3119,-219.767 28.6315,-308.816 77,-356 85.9807,-364.761 98.7485,-369.524 110.63,-372.099"/>
<polygon fill="midnightblue" stroke="midnightblue" points="110.275,-375.589 120.725,-373.843 111.467,-368.691 110.275,-375.589"/>
</g>
<!-- Node192 -->
<g id="node3" class="node"><title>Node192</title>
<g id="a_node3"><a xlink:href="classServo.html#aeccd2077f07ebc45250da14e72a0c461" target="_top" xlink:title="Servo::attach">
<polygon fill="white" stroke="black" points="106,-327.5 106,-346.5 181,-346.5 181,-327.5 106,-327.5"/>
<text text-anchor="middle" x="143.5" y="-334.5" font-family="Helvetica,sans-Serif" font-size="10.00">Servo::attach</text>
</a>
</g>
</g>
<!-- Node190&#45;&gt;Node192 -->
<g id="edge2" class="edge"><title>Node190&#45;&gt;Node192</title>
<path fill="none" stroke="midnightblue" d="M22.5329,-190.584C25.7313,-215.455 37.7521,-282.585 77,-318 82.4996,-322.963 89.2231,-326.634 96.2438,-329.35"/>
<polygon fill="midnightblue" stroke="midnightblue" points="95.3225,-332.73 105.915,-332.491 97.4853,-326.073 95.3225,-332.73"/>
</g>
<!-- Node193 -->
<g id="node4" class="node"><title>Node193</title>
<g id="a_node4"><a xlink:href="classeagle__impl_1_1TwoWire.html#ada85a7a8663ec8af0a1248b659be2f18" target="_top" xlink:title="eagle_impl::TwoWire\l::begin">
<polygon fill="white" stroke="black" points="89.5,-278 89.5,-308 197.5,-308 197.5,-278 89.5,-278"/>
<text text-anchor="start" x="97.5" y="-296" font-family="Helvetica,sans-Serif" font-size="10.00">eagle_impl::TwoWire</text>
<text text-anchor="middle" x="143.5" y="-285" font-family="Helvetica,sans-Serif" font-size="10.00">::begin</text>
</a>
</g>
</g>
<!-- Node190&#45;&gt;Node193 -->
<g id="edge3" class="edge"><title>Node190&#45;&gt;Node193</title>
<path fill="none" stroke="midnightblue" d="M25.1721,-190.519C32.4486,-208.197 50.3348,-246.269 77,-268 79.064,-269.682 81.2535,-271.259 83.532,-272.737"/>
<polygon fill="midnightblue" stroke="midnightblue" points="82.2637,-276.043 92.6842,-277.957 85.7318,-269.962 82.2637,-276.043"/>
</g>
<!-- Node195 -->
<g id="node6" class="node"><title>Node195</title>
<g id="a_node6"><a xlink:href="classeagle__impl_1_1SoftwareSerial.html#af1b194359d70894b3a2f38236a68480e" target="_top" xlink:title="eagle_impl::SoftwareSerial\l::begin">
<polygon fill="white" stroke="black" points="77,-229 77,-259 210,-259 210,-229 77,-229"/>
<text text-anchor="start" x="85" y="-247" font-family="Helvetica,sans-Serif" font-size="10.00">eagle_impl::SoftwareSerial</text>
<text text-anchor="middle" x="143.5" y="-236" font-family="Helvetica,sans-Serif" font-size="10.00">::begin</text>
</a>
</g>
</g>
<!-- Node190&#45;&gt;Node195 -->
<g id="edge5" class="edge"><title>Node190&#45;&gt;Node195</title>
<path fill="none" stroke="midnightblue" d="M33.7518,-190.641C44.6587,-198.912 61.2765,-210.764 77,-219 80.9271,-221.057 85.0625,-223.035 89.2676,-224.914"/>
<polygon fill="midnightblue" stroke="midnightblue" points="87.959,-228.161 98.5305,-228.864 90.7047,-221.722 87.959,-228.161"/>
</g>
<!-- Node198 -->
<g id="node9" class="node"><title>Node198</title>
<g id="a_node9"><a xlink:href="structServoCds55.html#a3858bceac16a453ec83f99c646090406" target="_top" xlink:title="ServoCds55::begin">
<polygon fill="white" stroke="black" points="93.5,-190.5 93.5,-209.5 193.5,-209.5 193.5,-190.5 93.5,-190.5"/>
<text text-anchor="middle" x="143.5" y="-197.5" font-family="Helvetica,sans-Serif" font-size="10.00">ServoCds55::begin</text>
</a>
</g>
</g>
<!-- Node190&#45;&gt;Node198 -->
<g id="edge8" class="edge"><title>Node190&#45;&gt;Node198</title>
<path fill="none" stroke="midnightblue" d="M41.21,-184.095C52.801,-185.915 68.1309,-188.322 83.3471,-190.712"/>
<polygon fill="midnightblue" stroke="midnightblue" points="82.8675,-194.179 93.2894,-192.273 83.9535,-187.264 82.8675,-194.179"/>
</g>
<!-- Node201 -->
<g id="node12" class="node"><title>Node201</title>
<g id="a_node12"><a xlink:href="eBoard_8h.html#a3161479854ea3c6efccc25dfb4f83a99" target="_top" xlink:title="eVirtual_main">
<polygon fill="white" stroke="black" points="105.5,-152.5 105.5,-171.5 181.5,-171.5 181.5,-152.5 105.5,-152.5"/>
<text text-anchor="middle" x="143.5" y="-159.5" font-family="Helvetica,sans-Serif" font-size="10.00">eVirtual_main</text>
</a>
</g>
</g>
<!-- Node190&#45;&gt;Node201 -->
<g id="edge11" class="edge"><title>Node190&#45;&gt;Node201</title>
<path fill="none" stroke="midnightblue" d="M41.21,-177.905C55.8553,-175.605 76.4695,-172.368 95.2816,-169.414"/>
<polygon fill="midnightblue" stroke="midnightblue" points="95.8688,-172.865 105.205,-167.856 94.7829,-165.95 95.8688,-172.865"/>
</g>
<!-- Node202 -->
<g id="node13" class="node"><title>Node202</title>
<g id="a_node13"><a xlink:href="eBoard_8h.html#a78b0e873cb50c282c6243d4913406be4" target="_top" xlink:title="[COPY&amp;PASTE] set a pin to a certain mode =&gt; checkPin() will return true then ">
<polygon fill="white" stroke="black" points="121.5,-114.5 121.5,-133.5 165.5,-133.5 165.5,-114.5 121.5,-114.5"/>
<text text-anchor="middle" x="143.5" y="-121.5" font-family="Helvetica,sans-Serif" font-size="10.00">setPin</text>
</a>
</g>
</g>
<!-- Node190&#45;&gt;Node202 -->
<g id="edge12" class="edge"><title>Node190&#45;&gt;Node202</title>
<path fill="none" stroke="midnightblue" d="M33.1672,-171.368C43.9585,-162.873 60.7399,-150.682 77,-143 87.8195,-137.889 100.304,-133.852 111.454,-130.838"/>
<polygon fill="midnightblue" stroke="midnightblue" points="112.4,-134.209 121.231,-128.356 110.677,-127.424 112.4,-134.209"/>
</g>
<!-- Node204 -->
<g id="node15" class="node"><title>Node204</title>
<g id="a_node15"><a xlink:href="eBoard_8h.html#aa0a7f697a49b0d038631c64e945f5c1a" target="_top" xlink:title="[SHIFT] Changes bits according to store_bits ">
<polygon fill="white" stroke="black" points="120,-76.5 120,-95.5 167,-95.5 167,-76.5 120,-76.5"/>
<text text-anchor="middle" x="143.5" y="-83.5" font-family="Helvetica,sans-Serif" font-size="10.00">shiftAll</text>
</a>
</g>
</g>
<!-- Node190&#45;&gt;Node204 -->
<g id="edge14" class="edge"><title>Node190&#45;&gt;Node204</title>
<path fill="none" stroke="midnightblue" d="M25.8428,-171.493C33.7048,-155.351 51.8449,-122.626 77,-105 86.7256,-98.1854 98.8845,-93.7941 110.077,-90.9733"/>
<polygon fill="midnightblue" stroke="midnightblue" points="110.969,-94.361 119.987,-88.7998 109.469,-87.5235 110.969,-94.361"/>
</g>
<!-- Node205 -->
<g id="node16" class="node"><title>Node205</title>
<g id="a_node16"><a xlink:href="classServo.html#a72b4b546912eada96a6ef705168ceb8a" target="_top" xlink:title="Servo::write">
<polygon fill="white" stroke="black" points="109,-38.5 109,-57.5 178,-57.5 178,-38.5 109,-38.5"/>
<text text-anchor="middle" x="143.5" y="-45.5" font-family="Helvetica,sans-Serif" font-size="10.00">Servo::write</text>
</a>
</g>
</g>
<!-- Node190&#45;&gt;Node205 -->
<g id="edge15" class="edge"><title>Node190&#45;&gt;Node205</title>
<path fill="none" stroke="midnightblue" d="M23.3986,-171.422C28.2454,-149.526 43.1603,-95.5045 77,-67 83.3737,-61.6312 91.1937,-57.7784 99.183,-55.0137"/>
<polygon fill="midnightblue" stroke="midnightblue" points="100.318,-58.3283 108.926,-52.1524 98.3453,-51.612 100.318,-58.3283"/>
</g>
<!-- Node207 -->
<g id="node18" class="node"><title>Node207</title>
<g id="a_node18"><a xlink:href="eBoard_8h.html#ad3f999233c04890710241b8b898d09cb" target="_top" xlink:title="write a clamped pwm value to an output pin ">
<polygon fill="white" stroke="black" points="112.5,-0.5 112.5,-19.5 174.5,-19.5 174.5,-0.5 112.5,-0.5"/>
<text text-anchor="middle" x="143.5" y="-7.5" font-family="Helvetica,sans-Serif" font-size="10.00">writePWM</text>
</a>
</g>
</g>
<!-- Node190&#45;&gt;Node207 -->
<g id="edge17" class="edge"><title>Node190&#45;&gt;Node207</title>
<path fill="none" stroke="midnightblue" d="M22.1189,-171.18C24.3509,-144.304 34.3054,-68.8952 77,-29 83.9885,-22.4697 93.0886,-18.1688 102.272,-15.3406"/>
<polygon fill="midnightblue" stroke="midnightblue" points="103.349,-18.6779 112.173,-12.8138 101.618,-11.8953 103.349,-18.6779"/>
</g>
<!-- Node194 -->
<g id="node5" class="node"><title>Node194</title>
<g id="a_node5"><a xlink:href="eBoard_8h.html#a16f0e6b2fa5a26eadbf4086ab6d54467" target="_top" xlink:title="twi_init">
<polygon fill="white" stroke="black" points="289,-329.5 289,-348.5 336,-348.5 336,-329.5 289,-329.5"/>
<text text-anchor="middle" x="312.5" y="-336.5" font-family="Helvetica,sans-Serif" font-size="10.00">twi_init</text>
</a>
</g>
</g>
<!-- Node193&#45;&gt;Node194 -->
<g id="edge4" class="edge"><title>Node193&#45;&gt;Node194</title>
<path fill="none" stroke="midnightblue" d="M197.799,-307.681C224.454,-315.023 255.854,-323.672 278.895,-330.019"/>
<polygon fill="midnightblue" stroke="midnightblue" points="278.276,-333.479 288.846,-332.76 280.135,-326.73 278.276,-333.479"/>
</g>
<!-- Node196 -->
<g id="node7" class="node"><title>Node196</title>
<g id="a_node7"><a xlink:href="classeagle__impl_1_1SoftwareSerial.html#a1dc4448e5fdf2516f47439fb4f62f4be" target="_top" xlink:title="eagle_impl::SoftwareSerial\l::tunedDelay">
<polygon fill="white" stroke="black" points="246,-280 246,-310 379,-310 379,-280 246,-280"/>
<text text-anchor="start" x="254" y="-298" font-family="Helvetica,sans-Serif" font-size="10.00">eagle_impl::SoftwareSerial</text>
<text text-anchor="middle" x="312.5" y="-287" font-family="Helvetica,sans-Serif" font-size="10.00">::tunedDelay</text>
</a>
</g>
</g>
<!-- Node195&#45;&gt;Node196 -->
<g id="edge6" class="edge"><title>Node195&#45;&gt;Node196</title>
<path fill="none" stroke="midnightblue" d="M193.702,-259.026C212.221,-264.681 233.465,-271.169 252.767,-277.063"/>
<polygon fill="midnightblue" stroke="midnightblue" points="251.775,-280.42 262.361,-279.994 253.819,-273.725 251.775,-280.42"/>
</g>
<!-- Node197 -->
<g id="node8" class="node"><title>Node197</title>
<g id="a_node8"><a xlink:href="classeagle__impl_1_1SoftwareSerial.html#ab0492d8af7df292d369dab4e721dd5db" target="_top" xlink:title="eagle_impl::SoftwareSerial\l::listen">
<polygon fill="white" stroke="black" points="246,-231 246,-261 379,-261 379,-231 246,-231"/>
<text text-anchor="start" x="254" y="-249" font-family="Helvetica,sans-Serif" font-size="10.00">eagle_impl::SoftwareSerial</text>
<text text-anchor="middle" x="312.5" y="-238" font-family="Helvetica,sans-Serif" font-size="10.00">::listen</text>
</a>
</g>
</g>
<!-- Node195&#45;&gt;Node197 -->
<g id="edge7" class="edge"><title>Node195&#45;&gt;Node197</title>
<path fill="none" stroke="midnightblue" d="M210.024,-244.785C218.496,-244.886 227.228,-244.991 235.847,-245.094"/>
<polygon fill="midnightblue" stroke="midnightblue" points="235.85,-248.594 245.891,-245.214 235.934,-241.595 235.85,-248.594"/>
</g>
<!-- Node199 -->
<g id="node10" class="node"><title>Node199</title>
<g id="a_node10"><a xlink:href="structeagle__impl_1_1SPIClass.html#a95193d135059e061214bb5348cda14fa" target="_top" xlink:title="eagle_impl::SPIClass\l::begin">
<polygon fill="white" stroke="black" points="257,-182 257,-212 368,-212 368,-182 257,-182"/>
<text text-anchor="start" x="265" y="-200" font-family="Helvetica,sans-Serif" font-size="10.00">eagle_impl::SPIClass</text>
<text text-anchor="middle" x="312.5" y="-189" font-family="Helvetica,sans-Serif" font-size="10.00">::begin</text>
</a>
</g>
</g>
<!-- Node198&#45;&gt;Node199 -->
<g id="edge9" class="edge"><title>Node198&#45;&gt;Node199</title>
<path fill="none" stroke="midnightblue" d="M193.702,-199.116C210.27,-198.818 229.019,-198.482 246.607,-198.166"/>
<polygon fill="midnightblue" stroke="midnightblue" points="246.868,-201.662 256.804,-197.983 246.742,-194.663 246.868,-201.662"/>
</g>
<!-- Node200 -->
<g id="node11" class="node"><title>Node200</title>
<g id="a_node11"><a xlink:href="structeagle__impl_1_1SPIClass.html#a0a57f81d62a46c6419c14006cbb2cc5a" target="_top" xlink:title="eagle_impl::SPIClass\l::setClockDivider">
<polygon fill="white" stroke="black" points="257,-133 257,-163 368,-163 368,-133 257,-133"/>
<text text-anchor="start" x="265" y="-151" font-family="Helvetica,sans-Serif" font-size="10.00">eagle_impl::SPIClass</text>
<text text-anchor="middle" x="312.5" y="-140" font-family="Helvetica,sans-Serif" font-size="10.00">::setClockDivider</text>
</a>
</g>
</g>
<!-- Node198&#45;&gt;Node200 -->
<g id="edge10" class="edge"><title>Node198&#45;&gt;Node200</title>
<path fill="none" stroke="midnightblue" d="M178.22,-190.442C188.448,-187.483 199.701,-184.167 210,-181 225.182,-176.331 241.578,-171.089 256.672,-166.181"/>
<polygon fill="midnightblue" stroke="midnightblue" points="257.956,-169.443 266.377,-163.013 255.784,-162.789 257.956,-169.443"/>
</g>
<!-- Node203 -->
<g id="node14" class="node"><title>Node203</title>
<g id="a_node14"><a xlink:href="eBoard_8h.html#a757015d50a6c57414603841f728b670b" target="_top" xlink:title="[DEBUG_MODE] used to check if a pin index is in bounds ">
<polygon fill="white" stroke="black" points="284.5,-94.5 284.5,-113.5 340.5,-113.5 340.5,-94.5 284.5,-94.5"/>
<text text-anchor="middle" x="312.5" y="-101.5" font-family="Helvetica,sans-Serif" font-size="10.00">checkIdx</text>
</a>
</g>
</g>
<!-- Node202&#45;&gt;Node203 -->
<g id="edge13" class="edge"><title>Node202&#45;&gt;Node203</title>
<path fill="none" stroke="midnightblue" d="M165.651,-121.467C192.894,-118.204 240.712,-112.478 274.144,-108.474"/>
<polygon fill="midnightblue" stroke="midnightblue" points="274.935,-111.904 284.448,-107.24 274.103,-104.954 274.935,-111.904"/>
</g>
<!-- Node206 -->
<g id="node17" class="node"><title>Node206</title>
<g id="a_node17"><a xlink:href="classServo.html#ac7fe3d6d2ea285ead98814bcfc417029" target="_top" xlink:title="Servo::writeMicroseconds">
<polygon fill="white" stroke="black" points="247.5,-38.5 247.5,-57.5 377.5,-57.5 377.5,-38.5 247.5,-38.5"/>
<text text-anchor="middle" x="312.5" y="-45.5" font-family="Helvetica,sans-Serif" font-size="10.00">Servo::writeMicroseconds</text>
</a>
</g>
</g>
<!-- Node205&#45;&gt;Node206 -->
<g id="edge16" class="edge"><title>Node205&#45;&gt;Node206</title>
<path fill="none" stroke="midnightblue" d="M178.295,-48C195.331,-48 216.708,-48 237.318,-48"/>
<polygon fill="midnightblue" stroke="midnightblue" points="237.351,-51.5001 247.351,-48 237.351,-44.5001 237.351,-51.5001"/>
</g>
</g>
</svg>
