<?xml version="1.0" encoding="UTF-8" standalone="no"?>
<!DOCTYPE svg PUBLIC "-//W3C//DTD SVG 1.1//EN"
 "http://www.w3.org/Graphics/SVG/1.1/DTD/svg11.dtd">
<!-- Generated by graphviz version 2.38.0 (20140413.2041)
 -->
<!-- Title: src/eBoard.h Pages: 1 -->
<svg width="374pt" height="84pt"
 viewBox="0.00 0.00 374.00 84.00" xmlns="http://www.w3.org/2000/svg" xmlns:xlink="http://www.w3.org/1999/xlink">
<g id="graph0" class="graph" transform="scale(1 1) rotate(0) translate(4 80)">
<title>src/eBoard.h</title>
<polygon fill="white" stroke="none" points="-4,4 -4,-80 370,-80 370,4 -4,4"/>
<!-- Node0 -->
<g id="node1" class="node"><title>Node0</title>
<polygon fill="#bfbfbf" stroke="black" points="146,-56.5 146,-75.5 218,-75.5 218,-56.5 146,-56.5"/>
<text text-anchor="middle" x="182" y="-63.5" font-family="Helvetica,sans-Serif" font-size="10.00">src/eBoard.h</text>
</g>
<!-- Node1 -->
<g id="node2" class="node"><title>Node1</title>
<polygon fill="white" stroke="#bfbfbf" points="0,-0.5 0,-19.5 58,-19.5 58,-0.5 0,-0.5"/>
<text text-anchor="middle" x="29" y="-7.5" font-family="Helvetica,sans-Serif" font-size="10.00">Arduino.h</text>
</g>
<!-- Node0&#45;&gt;Node1 -->
<g id="edge1" class="edge"><title>Node0&#45;&gt;Node1</title>
<path fill="none" stroke="midnightblue" d="M157.757,-56.4435C132.129,-47.3986 91.5148,-33.064 62.7616,-22.9158"/>
<polygon fill="midnightblue" stroke="midnightblue" points="63.7247,-19.5442 53.1299,-19.5164 61.3949,-26.1452 63.7247,-19.5442"/>
</g>
<!-- Node2 -->
<g id="node3" class="node"><title>Node2</title>
<polygon fill="white" stroke="#bfbfbf" points="76.5,-0.5 76.5,-19.5 125.5,-19.5 125.5,-0.5 76.5,-0.5"/>
<text text-anchor="middle" x="101" y="-7.5" font-family="Helvetica,sans-Serif" font-size="10.00">avr/io.h</text>
</g>
<!-- Node0&#45;&gt;Node2 -->
<g id="edge2" class="edge"><title>Node0&#45;&gt;Node2</title>
<path fill="none" stroke="midnightblue" d="M168.986,-56.324C156.468,-47.979 137.318,-35.2122 122.529,-25.3524"/>
<polygon fill="midnightblue" stroke="midnightblue" points="124.244,-22.2894 113.982,-19.6545 120.361,-28.1137 124.244,-22.2894"/>
</g>
<!-- Node3 -->
<g id="node4" class="node"><title>Node3</title>
<polygon fill="white" stroke="#bfbfbf" points="143.5,-0.5 143.5,-19.5 220.5,-19.5 220.5,-0.5 143.5,-0.5"/>
<text text-anchor="middle" x="182" y="-7.5" font-family="Helvetica,sans-Serif" font-size="10.00">avr/interrupt.h</text>
</g>
<!-- Node0&#45;&gt;Node3 -->
<g id="edge3" class="edge"><title>Node0&#45;&gt;Node3</title>
<path fill="none" stroke="midnightblue" d="M182,-56.083C182,-49.0059 182,-38.8611 182,-29.9865"/>
<polygon fill="midnightblue" stroke="midnightblue" points="185.5,-29.751 182,-19.7511 178.5,-29.7511 185.5,-29.751"/>
</g>
<!-- Node4 -->
<g id="node5" class="node"><title>Node4</title>
<polygon fill="white" stroke="#bfbfbf" points="238.5,-0.5 238.5,-19.5 295.5,-19.5 295.5,-0.5 238.5,-0.5"/>
<text text-anchor="middle" x="267" y="-7.5" font-family="Helvetica,sans-Serif" font-size="10.00">avr/wdt.h</text>
</g>
<!-- Node0&#45;&gt;Node4 -->
<g id="edge4" class="edge"><title>Node0&#45;&gt;Node4</title>
<path fill="none" stroke="midnightblue" d="M195.657,-56.324C208.916,-47.9002 229.268,-34.9709 244.846,-25.0741"/>
<polygon fill="midnightblue" stroke="midnightblue" points="246.813,-27.9711 253.377,-19.6545 243.06,-22.0626 246.813,-27.9711"/>
</g>
<!-- Node5 -->
<g id="node6" class="node"><title>Node5</title>
<polygon fill="white" stroke="#bfbfbf" points="314,-0.5 314,-19.5 366,-19.5 366,-0.5 314,-0.5"/>
<text text-anchor="middle" x="340" y="-7.5" font-family="Helvetica,sans-Serif" font-size="10.00">assert.h</text>
</g>
<!-- Node0&#45;&gt;Node5 -->
<g id="edge5" class="edge"><title>Node0&#45;&gt;Node5</title>
<path fill="none" stroke="midnightblue" d="M207.036,-56.4435C233.616,-47.3591 275.809,-32.9388 305.523,-22.7831"/>
<polygon fill="midnightblue" stroke="midnightblue" points="306.751,-26.0625 315.082,-19.5164 304.487,-19.4386 306.751,-26.0625"/>
</g>
</g>
</svg>
