<?xml version="1.0" encoding="UTF-8" standalone="no"?>
<!DOCTYPE svg PUBLIC "-//W3C//DTD SVG 1.1//EN"
 "http://www.w3.org/Graphics/SVG/1.1/DTD/svg11.dtd">
<!-- Generated by graphviz version 2.38.0 (20140413.2041)
 -->
<!-- Title: eBoard_tsS/eBoard_tSS/eBoard.h Pages: 1 -->
<svg width="1275pt" height="151pt"
 viewBox="0.00 0.00 1274.50 151.00" xmlns="http://www.w3.org/2000/svg" xmlns:xlink="http://www.w3.org/1999/xlink">
<g id="graph0" class="graph" transform="scale(1 1) rotate(0) translate(4 147)">
<title>eBoard_tsS/eBoard_tSS/eBoard.h</title>
<polygon fill="white" stroke="none" points="-4,4 -4,-147 1270.5,-147 1270.5,4 -4,4"/>
<!-- Node0 -->
<g id="node1" class="node"><title>Node0</title>
<polygon fill="#bfbfbf" stroke="black" points="512.5,-112.5 512.5,-142.5 635.5,-142.5 635.5,-112.5 512.5,-112.5"/>
<text text-anchor="start" x="520.5" y="-130.5" font-family="Helvetica,sans-Serif" font-size="10.00">eBoard_tsS/eBoard_tSS</text>
<text text-anchor="middle" x="574" y="-119.5" font-family="Helvetica,sans-Serif" font-size="10.00">/eBoard.h</text>
</g>
<!-- Node1 -->
<g id="node2" class="node"><title>Node1</title>
<polygon fill="white" stroke="#bfbfbf" points="0,-56.5 0,-75.5 86,-75.5 86,-56.5 0,-56.5"/>
<text text-anchor="middle" x="43" y="-63.5" font-family="Helvetica,sans-Serif" font-size="10.00">avr/pgmspace.h</text>
</g>
<!-- Node0&#45;&gt;Node1 -->
<g id="edge1" class="edge"><title>Node0&#45;&gt;Node1</title>
<path fill="none" stroke="midnightblue" d="M512.215,-121.306C422.781,-113.496 251.835,-97.4731 96.3162,-76.101"/>
<polygon fill="midnightblue" stroke="midnightblue" points="96.4814,-72.5905 86.0958,-74.6855 95.5211,-79.5244 96.4814,-72.5905"/>
</g>
<!-- Node2 -->
<g id="node3" class="node"><title>Node2</title>
<polygon fill="white" stroke="#bfbfbf" points="104,-56.5 104,-75.5 162,-75.5 162,-56.5 104,-56.5"/>
<text text-anchor="middle" x="133" y="-63.5" font-family="Helvetica,sans-Serif" font-size="10.00">Arduino.h</text>
</g>
<!-- Node0&#45;&gt;Node2 -->
<g id="edge2" class="edge"><title>Node0&#45;&gt;Node2</title>
<path fill="none" stroke="midnightblue" d="M512.239,-120.851C434.977,-113.319 298.482,-98.4812 172.595,-76.1251"/>
<polygon fill="midnightblue" stroke="midnightblue" points="172.854,-72.6155 162.393,-74.2922 171.616,-79.5053 172.854,-72.6155"/>
</g>
<!-- Node3 -->
<g id="node4" class="node"><title>Node3</title>
<polygon fill="white" stroke="#bfbfbf" points="180.5,-56.5 180.5,-75.5 229.5,-75.5 229.5,-56.5 180.5,-56.5"/>
<text text-anchor="middle" x="205" y="-63.5" font-family="Helvetica,sans-Serif" font-size="10.00">avr/io.h</text>
</g>
<!-- Node0&#45;&gt;Node3 -->
<g id="edge3" class="edge"><title>Node0&#45;&gt;Node3</title>
<path fill="none" stroke="midnightblue" d="M512.301,-119.427C446.793,-111.423 340.101,-96.9804 239.789,-76.1932"/>
<polygon fill="midnightblue" stroke="midnightblue" points="240.296,-72.7235 229.79,-74.0954 238.859,-79.5743 240.296,-72.7235"/>
</g>
<!-- Node4 -->
<g id="node5" class="node"><title>Node4</title>
<polygon fill="white" stroke="#bfbfbf" points="247.5,-56.5 247.5,-75.5 324.5,-75.5 324.5,-56.5 247.5,-56.5"/>
<text text-anchor="middle" x="286" y="-63.5" font-family="Helvetica,sans-Serif" font-size="10.00">avr/interrupt.h</text>
</g>
<!-- Node0&#45;&gt;Node4 -->
<g id="edge4" class="edge"><title>Node0&#45;&gt;Node4</title>
<path fill="none" stroke="midnightblue" d="M512.217,-113.736C459.136,-102.769 383.64,-87.1722 334.734,-77.0684"/>
<polygon fill="midnightblue" stroke="midnightblue" points="335.221,-73.595 324.719,-74.9993 333.804,-80.4503 335.221,-73.595"/>
</g>
<!-- Node5 -->
<g id="node6" class="node"><title>Node5</title>
<g id="a_node6"><a xlink:href="eagle__twi_8h.html" target="_top" xlink:title="source/eagle_twi.h">
<polygon fill="white" stroke="black" points="343,-56.5 343,-75.5 441,-75.5 441,-56.5 343,-56.5"/>
<text text-anchor="middle" x="392" y="-63.5" font-family="Helvetica,sans-Serif" font-size="10.00">source/eagle_twi.h</text>
</a>
</g>
</g>
<!-- Node0&#45;&gt;Node5 -->
<g id="edge5" class="edge"><title>Node0&#45;&gt;Node5</title>
<path fill="none" stroke="midnightblue" d="M530.869,-112.399C499.42,-102.118 457.308,-88.3506 427.733,-78.6818"/>
<polygon fill="midnightblue" stroke="midnightblue" points="428.81,-75.3516 418.217,-75.5709 426.634,-82.0051 428.81,-75.3516"/>
</g>
<!-- Node7 -->
<g id="node8" class="node"><title>Node7</title>
<g id="a_node8"><a xlink:href="eagle__TwoWire_8h.html" target="_top" xlink:title="source/eagle_TwoWire.h">
<polygon fill="white" stroke="black" points="459.5,-56.5 459.5,-75.5 584.5,-75.5 584.5,-56.5 459.5,-56.5"/>
<text text-anchor="middle" x="522" y="-63.5" font-family="Helvetica,sans-Serif" font-size="10.00">source/eagle_TwoWire.h</text>
</a>
</g>
</g>
<!-- Node0&#45;&gt;Node7 -->
<g id="edge7" class="edge"><title>Node0&#45;&gt;Node7</title>
<path fill="none" stroke="midnightblue" d="M561.677,-112.399C554.043,-103.664 544.209,-92.4126 536.242,-83.2962"/>
<polygon fill="midnightblue" stroke="midnightblue" points="538.782,-80.8843 529.566,-75.6578 533.512,-85.4907 538.782,-80.8843"/>
</g>
<!-- Node11 -->
<g id="node12" class="node"><title>Node11</title>
<polygon fill="white" stroke="#bfbfbf" points="603,-56.5 603,-75.5 649,-75.5 649,-56.5 603,-56.5"/>
<text text-anchor="middle" x="626" y="-63.5" font-family="Helvetica,sans-Serif" font-size="10.00">stdio.h</text>
</g>
<!-- Node0&#45;&gt;Node11 -->
<g id="edge12" class="edge"><title>Node0&#45;&gt;Node11</title>
<path fill="none" stroke="midnightblue" d="M586.323,-112.399C593.957,-103.664 603.791,-92.4126 611.758,-83.2962"/>
<polygon fill="midnightblue" stroke="midnightblue" points="614.488,-85.4907 618.434,-75.6578 609.218,-80.8843 614.488,-85.4907"/>
</g>
<!-- Node12 -->
<g id="node13" class="node"><title>Node12</title>
<polygon fill="white" stroke="#bfbfbf" points="667.5,-56.5 667.5,-75.5 724.5,-75.5 724.5,-56.5 667.5,-56.5"/>
<text text-anchor="middle" x="696" y="-63.5" font-family="Helvetica,sans-Serif" font-size="10.00">avr/wdt.h</text>
</g>
<!-- Node0&#45;&gt;Node12 -->
<g id="edge13" class="edge"><title>Node0&#45;&gt;Node12</title>
<path fill="none" stroke="midnightblue" d="M602.912,-112.399C623.016,-102.595 649.621,-89.6194 669.238,-80.052"/>
<polygon fill="midnightblue" stroke="midnightblue" points="670.794,-83.1872 678.248,-75.6578 667.726,-76.8955 670.794,-83.1872"/>
</g>
<!-- Node13 -->
<g id="node14" class="node"><title>Node13</title>
<g id="a_node14"><a xlink:href="eagle__SoftwareSerial_8h.html" target="_top" xlink:title="source/eagle_SoftwareSerial.h">
<polygon fill="white" stroke="black" points="742.5,-56.5 742.5,-75.5 891.5,-75.5 891.5,-56.5 742.5,-56.5"/>
<text text-anchor="middle" x="817" y="-63.5" font-family="Helvetica,sans-Serif" font-size="10.00">source/eagle_SoftwareSerial.h</text>
</a>
</g>
</g>
<!-- Node0&#45;&gt;Node13 -->
<g id="edge14" class="edge"><title>Node0&#45;&gt;Node13</title>
<path fill="none" stroke="midnightblue" d="M631.28,-112.475C674.392,-101.918 732.643,-87.6552 772.338,-77.9358"/>
<polygon fill="midnightblue" stroke="midnightblue" points="773.379,-81.2843 782.26,-75.5064 771.714,-74.4852 773.379,-81.2843"/>
</g>
<!-- Node14 -->
<g id="node15" class="node"><title>Node14</title>
<g id="a_node15"><a xlink:href="eagle__assert_8h.html" target="_top" xlink:title="source/eagle_assert.h">
<polygon fill="white" stroke="black" points="909.5,-56.5 909.5,-75.5 1022.5,-75.5 1022.5,-56.5 909.5,-56.5"/>
<text text-anchor="middle" x="966" y="-63.5" font-family="Helvetica,sans-Serif" font-size="10.00">source/eagle_assert.h</text>
</a>
</g>
</g>
<!-- Node0&#45;&gt;Node14 -->
<g id="edge15" class="edge"><title>Node0&#45;&gt;Node14</title>
<path fill="none" stroke="midnightblue" d="M635.681,-117.138C707.549,-106.229 825.84,-88.2743 899.65,-77.071"/>
<polygon fill="midnightblue" stroke="midnightblue" points="900.399,-80.4975 909.76,-75.5364 899.348,-73.5768 900.399,-80.4975"/>
</g>
<!-- Node16 -->
<g id="node17" class="node"><title>Node16</title>
<g id="a_node17"><a xlink:href="eagle__checks_8h.html" target="_top" xlink:title="source/eagle_checks.h">
<polygon fill="white" stroke="black" points="1040.5,-56.5 1040.5,-75.5 1157.5,-75.5 1157.5,-56.5 1040.5,-56.5"/>
<text text-anchor="middle" x="1099" y="-63.5" font-family="Helvetica,sans-Serif" font-size="10.00">source/eagle_checks.h</text>
</a>
</g>
</g>
<!-- Node0&#45;&gt;Node16 -->
<g id="edge17" class="edge"><title>Node0&#45;&gt;Node16</title>
<path fill="none" stroke="midnightblue" d="M635.54,-120.183C721.537,-111.251 882.812,-94.1227 1030.06,-76.2163"/>
<polygon fill="midnightblue" stroke="midnightblue" points="1030.68,-79.6663 1040.18,-74.9809 1029.83,-72.7178 1030.68,-79.6663"/>
</g>
<!-- Node17 -->
<g id="node18" class="node"><title>Node17</title>
<g id="a_node18"><a xlink:href="eagle__nanoMot_8h.html" target="_top" xlink:title="eagle_nanoMot.h">
<polygon fill="white" stroke="black" points="1175.5,-56.5 1175.5,-75.5 1266.5,-75.5 1266.5,-56.5 1175.5,-56.5"/>
<text text-anchor="middle" x="1221" y="-63.5" font-family="Helvetica,sans-Serif" font-size="10.00">eagle_nanoMot.h</text>
</a>
</g>
</g>
<!-- Node0&#45;&gt;Node17 -->
<g id="edge18" class="edge"><title>Node0&#45;&gt;Node17</title>
<path fill="none" stroke="midnightblue" d="M635.636,-122.885C741.789,-116.302 966.146,-100.818 1165.31,-76.1271"/>
<polygon fill="midnightblue" stroke="midnightblue" points="1165.88,-79.5825 1175.37,-74.8688 1165.02,-72.6365 1165.88,-79.5825"/>
</g>
<!-- Node6 -->
<g id="node7" class="node"><title>Node6</title>
<polygon fill="white" stroke="#bfbfbf" points="362.5,-0.5 362.5,-19.5 421.5,-19.5 421.5,-0.5 362.5,-0.5"/>
<text text-anchor="middle" x="392" y="-7.5" font-family="Helvetica,sans-Serif" font-size="10.00">inttypes.h</text>
</g>
<!-- Node5&#45;&gt;Node6 -->
<g id="edge6" class="edge"><title>Node5&#45;&gt;Node6</title>
<path fill="none" stroke="midnightblue" d="M392,-56.083C392,-49.0059 392,-38.8611 392,-29.9865"/>
<polygon fill="midnightblue" stroke="midnightblue" points="395.5,-29.751 392,-19.7511 388.5,-29.7511 395.5,-29.751"/>
</g>
<!-- Node7&#45;&gt;Node6 -->
<g id="edge8" class="edge"><title>Node7&#45;&gt;Node6</title>
<path fill="none" stroke="midnightblue" d="M501.401,-56.4435C480.007,-47.5566 446.319,-33.5632 421.976,-23.4514"/>
<polygon fill="midnightblue" stroke="midnightblue" points="423.08,-20.1203 412.503,-19.5164 420.395,-26.5848 423.08,-20.1203"/>
</g>
<!-- Node8 -->
<g id="node9" class="node"><title>Node8</title>
<polygon fill="white" stroke="#bfbfbf" points="440,-0.5 440,-19.5 496,-19.5 496,-0.5 440,-0.5"/>
<text text-anchor="middle" x="468" y="-7.5" font-family="Helvetica,sans-Serif" font-size="10.00">Stream.h</text>
</g>
<!-- Node7&#45;&gt;Node8 -->
<g id="edge9" class="edge"><title>Node7&#45;&gt;Node8</title>
<path fill="none" stroke="midnightblue" d="M513.083,-56.083C505.22,-48.2195 493.569,-36.5688 484.081,-27.0813"/>
<polygon fill="midnightblue" stroke="midnightblue" points="486.297,-24.3473 476.751,-19.7511 481.347,-29.2971 486.297,-24.3473"/>
</g>
<!-- Node9 -->
<g id="node10" class="node"><title>Node9</title>
<polygon fill="white" stroke="#bfbfbf" points="514,-0.5 514,-19.5 562,-19.5 562,-0.5 514,-0.5"/>
<text text-anchor="middle" x="538" y="-7.5" font-family="Helvetica,sans-Serif" font-size="10.00">stdlib.h</text>
</g>
<!-- Node7&#45;&gt;Node9 -->
<g id="edge10" class="edge"><title>Node7&#45;&gt;Node9</title>
<path fill="none" stroke="midnightblue" d="M524.642,-56.083C526.786,-48.8486 529.879,-38.4087 532.549,-29.3968"/>
<polygon fill="midnightblue" stroke="midnightblue" points="535.922,-30.3334 535.407,-19.7511 529.21,-28.3447 535.922,-30.3334"/>
</g>
<!-- Node10 -->
<g id="node11" class="node"><title>Node10</title>
<polygon fill="white" stroke="#bfbfbf" points="580.5,-0.5 580.5,-19.5 629.5,-19.5 629.5,-0.5 580.5,-0.5"/>
<text text-anchor="middle" x="605" y="-7.5" font-family="Helvetica,sans-Serif" font-size="10.00">string.h</text>
</g>
<!-- Node7&#45;&gt;Node10 -->
<g id="edge11" class="edge"><title>Node7&#45;&gt;Node10</title>
<path fill="none" stroke="midnightblue" d="M535.335,-56.324C548.162,-47.979 567.785,-35.2122 582.94,-25.3524"/>
<polygon fill="midnightblue" stroke="midnightblue" points="585.224,-28.0417 591.698,-19.6545 581.407,-22.1742 585.224,-28.0417"/>
</g>
<!-- Node15 -->
<g id="node16" class="node"><title>Node15</title>
<polygon fill="white" stroke="#bfbfbf" points="940,-0.5 940,-19.5 992,-19.5 992,-0.5 940,-0.5"/>
<text text-anchor="middle" x="966" y="-7.5" font-family="Helvetica,sans-Serif" font-size="10.00">assert.h</text>
</g>
<!-- Node14&#45;&gt;Node15 -->
<g id="edge16" class="edge"><title>Node14&#45;&gt;Node15</title>
<path fill="none" stroke="midnightblue" d="M966,-56.083C966,-49.0059 966,-38.8611 966,-29.9865"/>
<polygon fill="midnightblue" stroke="midnightblue" points="969.5,-29.751 966,-19.7511 962.5,-29.7511 969.5,-29.751"/>
</g>
</g>
</svg>
