<?xml version="1.0" encoding="UTF-8" standalone="no"?>
<!DOCTYPE svg PUBLIC "-//W3C//DTD SVG 1.1//EN"
 "http://www.w3.org/Graphics/SVG/1.1/DTD/svg11.dtd">
<!-- Generated by graphviz version 2.40.1 (20161225.0304)
 -->
<!-- Title: eBoard/<td id="eagle_eBoard">eBoard</td>.h Pages: 1 -->
<!--zoomable 151 -->
<svg id="main" version="1.1" xmlns="http://www.w3.org/2000/svg" xmlns:xlink="http://www.w3.org/1999/xlink" xml:space="preserve" onload="init(evt)">
<style type="text/css"><![CDATA[
.edge:hover path { stroke: red; }
.edge:hover polygon { stroke: red; fill: red; }
]]></style>
<script type="text/javascript"><![CDATA[
var edges = document.getElementsByTagName('g');
if (edges && edges.length) {
  for (var i=0;i<edges.length;i++) {
    if (edges[i].id.substr(0,4)=='edge') {
      edges[i].setAttribute('class','edge');
    }
  }
}
]]></script>
        <defs>
                <circle id="rim" cx="0" cy="0" r="7"/>
                <circle id="rim2" cx="0" cy="0" r="3.5"/>
                <g id="zoomPlus">
                        <use xlink:href="#rim" fill="#404040">
                                <set attributeName="fill" to="#808080" begin="zoomplus.mouseover" end="zoomplus.mouseout"/>
                        </use>
                        <path d="M-4,0h8M0,-4v8" fill="none" stroke="white" stroke-width="1.5" pointer-events="none"/>
                </g>
                <g id="zoomMin">
                        <use xlink:href="#rim" fill="#404040">
                                <set attributeName="fill" to="#808080" begin="zoomminus.mouseover" end="zoomminus.mouseout"/>
                        </use>
                        <path d="M-4,0h8" fill="none" stroke="white" stroke-width="1.5" pointer-events="none"/>
                </g>
                <g id="dirArrow">
                        <path fill="none" stroke="white" stroke-width="1.5" d="M0,-3.0v7 M-2.5,-0.5L0,-3.0L2.5,-0.5"/>
                </g>
               <g id="resetDef">
                       <use xlink:href="#rim2" fill="#404040">
                               <set attributeName="fill" to="#808080" begin="reset.mouseover" end="reset.mouseout"/>
                       </use>
               </g>
        </defs>

<script type="text/javascript">
var viewWidth = 4029;
var viewHeight = 151;
var sectionId = 'dynsection-0';
</script>
<script xlink:href="svgpan.js"/>
<svg id="graph" class="graph">
<g id="viewport">
<title>eBoard/<td id="eagle_eBoard">eBoard</td>.h</title>
<polygon fill="#ffffff" stroke="transparent" points="-4,4 -4,-147 4024.5,-147 4024.5,4 -4,4"/>
<!-- Node0 -->
<g id="node1" class="node">
<title>Node0</title>
<polygon fill="#bfbfbf" stroke="#000000" points="1733,-123.5 1733,-142.5 1882,-142.5 1882,-123.5 1733,-123.5"/>
<text text-anchor="middle" x="1807.5" y="-130.5" font-family="RobotoMono" font-size="10.00" fill="#000000">eBoard/<td id="eagle_eBoard">eBoard</td>.h</text>
</g>
<!-- Node1 -->
<g id="node2" class="node">
<title>Node1</title>
<g id="a_node2"><a xlink:href="eagle__PreprocessorControl_8h.html" target="_top" xlink:title="this file contains cool stuff never seen by the Arduino :/ ">
<polygon fill="#ffffff" stroke="#000000" points="0,-56.5 0,-86.5 147,-86.5 147,-56.5 0,-56.5"/>
<text text-anchor="start" x="8" y="-74.5" font-family="RobotoMono" font-size="10.00" fill="#000000">source/eagle_Preprocessor</text>
<text text-anchor="middle" x="73.5" y="-63.5" font-family="RobotoMono" font-size="10.00" fill="#000000">Control.h</text>
</a>
</g>
</g>
<!-- Node0&#45;&gt;Node1 -->
<g id="edge1" class="edge">
<title>Node0&#45;&gt;Node1</title>
<path fill="none" stroke="#191970" d="M1732.5659,-132.4969C1455.3904,-130.392 487.6357,-120.8161 157.237,-87.0554"/>
<polygon fill="#191970" stroke="#191970" points="157.4858,-83.5624 147.1748,-85.9983 156.7543,-90.5241 157.4858,-83.5624"/>
</g>
<!-- Node2 -->
<g id="node3" class="node">
<title>Node2</title>
<polygon fill="#ffffff" stroke="#bfbfbf" points="165,-62 165,-81 260,-81 260,-62 165,-62"/>
<text text-anchor="middle" x="212.5" y="-69" font-family="RobotoMono" font-size="10.00" fill="#000000">avr/pgmspace.h</text>
</g>
<!-- Node0&#45;&gt;Node2 -->
<g id="edge2" class="edge">
<title>Node0&#45;&gt;Node2</title>
<path fill="none" stroke="#191970" d="M1732.8902,-131.8219C1444.803,-127.1287 413.7863,-108.9509 268.5,-87 263.014,-86.1711 257.3004,-84.983 251.7103,-83.6282"/>
<polygon fill="#191970" stroke="#191970" points="252.4174,-80.1954 241.8571,-81.0511 250.6461,-86.9676 252.4174,-80.1954"/>
</g>
<!-- Node3 -->
<g id="node4" class="node">
<title>Node3</title>
<polygon fill="#ffffff" stroke="#bfbfbf" points="278,-62 278,-81 341,-81 341,-62 278,-62"/>
<text text-anchor="middle" x="309.5" y="-69" font-family="RobotoMono" font-size="10.00" fill="#000000">Arduino.h</text>
</g>
<!-- Node0&#45;&gt;Node3 -->
<g id="edge3" class="edge">
<title>Node0&#45;&gt;Node3</title>
<path fill="none" stroke="#191970" d="M1732.9729,-132.1206C1454.6721,-128.6347 485.2966,-114.6139 349.5,-87 346.2888,-86.347 342.9998,-85.4606 339.7546,-84.4403"/>
<polygon fill="#191970" stroke="#191970" points="340.8668,-81.1212 330.2721,-81.0772 338.527,-87.7186 340.8668,-81.1212"/>
</g>
<!-- Node4 -->
<g id="node5" class="node">
<title>Node4</title>
<polygon fill="#ffffff" stroke="#bfbfbf" points="359,-62 359,-81 412,-81 412,-62 359,-62"/>
<text text-anchor="middle" x="385.5" y="-69" font-family="RobotoMono" font-size="10.00" fill="#000000">avr/io.h</text>
</g>
<!-- Node0&#45;&gt;Node4 -->
<g id="edge4" class="edge">
<title>Node0&#45;&gt;Node4</title>
<path fill="none" stroke="#191970" d="M1732.7986,-131.9411C1463.915,-127.933 554.5548,-112.6074 426.5,-87 423.2167,-86.3434 419.8509,-85.4547 416.5279,-84.4329"/>
<polygon fill="#191970" stroke="#191970" points="417.4074,-81.0336 406.8126,-81.068 415.1164,-87.6481 417.4074,-81.0336"/>
</g>
<!-- Node5 -->
<g id="node6" class="node">
<title>Node5</title>
<polygon fill="#ffffff" stroke="#bfbfbf" points="259.5,-.5 259.5,-19.5 345.5,-19.5 345.5,-.5 259.5,-.5"/>
<text text-anchor="middle" x="302.5" y="-7.5" font-family="RobotoMono" font-size="10.00" fill="#000000">avr/interrupt.h</text>
</g>
<!-- Node0&#45;&gt;Node5 -->
<g id="edge5" class="edge">
<title>Node0&#45;&gt;Node5</title>
<path fill="none" stroke="#191970" d="M1732.5918,-131.7426C1458.011,-126.9652 519.4813,-109.0894 459.5,-87 438.7221,-79.3481 439.6971,-67.0338 420.5,-56 396.397,-42.1464 367.3185,-30.7564 344.059,-22.7757"/>
<polygon fill="#191970" stroke="#191970" points="345.0722,-19.424 334.4783,-19.5669 342.849,-26.0617 345.0722,-19.424"/>
</g>
<!-- Node6 -->
<g id="node7" class="node">
<title>Node6</title>
<g id="a_node7"><a xlink:href="eagle__Twi_8h.html" target="_top" xlink:title="this file contains the Twi class ">
<polygon fill="#ffffff" stroke="#000000" points="469,-62 469,-81 578,-81 578,-62 469,-62"/>
<text text-anchor="middle" x="523.5" y="-69" font-family="RobotoMono" font-size="10.00" fill="#000000">source/eagle_Twi.h</text>
</a>
</g>
</g>
<!-- Node0&#45;&gt;Node6 -->
<g id="edge6" class="edge">
<title>Node0&#45;&gt;Node6</title>
<path fill="none" stroke="#191970" d="M1732.7121,-132.1383C1503.1107,-129.1837 810.4419,-117.8832 587.5,-87 581.0346,-86.1044 574.2698,-84.8373 567.6606,-83.409"/>
<polygon fill="#191970" stroke="#191970" points="567.9988,-79.8953 557.4684,-81.062 566.428,-86.7168 567.9988,-79.8953"/>
</g>
<!-- Node10 -->
<g id="node11" class="node">
<title>Node10</title>
<g id="a_node11"><a xlink:href="eagle__TwoWire_8h.html" target="_top" xlink:title="this file contains the TwoWire class ">
<polygon fill="#ffffff" stroke="#000000" points="596.5,-62 596.5,-81 730.5,-81 730.5,-62 596.5,-62"/>
<text text-anchor="middle" x="663.5" y="-69" font-family="RobotoMono" font-size="10.00" fill="#000000">source/eagle_TwoWire.h</text>
</a>
</g>
</g>
<!-- Node0&#45;&gt;Node10 -->
<g id="edge11" class="edge">
<title>Node0&#45;&gt;Node10</title>
<path fill="none" stroke="#191970" d="M1732.9398,-131.3245C1523.4366,-126.3721 932.2261,-110.6527 739.5,-87 731.3281,-85.9971 722.7245,-84.5891 714.3616,-83.0267"/>
<polygon fill="#191970" stroke="#191970" points="714.8116,-79.5484 704.3253,-81.0613 713.4662,-86.418 714.8116,-79.5484"/>
</g>
<!-- Node14 -->
<g id="node15" class="node">
<title>Node14</title>
<g id="a_node15"><a xlink:href="eagle__SPI_8h.html" target="_top" xlink:title="this file contains the SPI class ">
<polygon fill="#ffffff" stroke="#000000" points="748.5,-62 748.5,-81 856.5,-81 856.5,-62 748.5,-62"/>
<text text-anchor="middle" x="802.5" y="-69" font-family="RobotoMono" font-size="10.00" fill="#000000">source/eagle_SPI.h</text>
</a>
</g>
</g>
<!-- Node0&#45;&gt;Node14 -->
<g id="edge16" class="edge">
<title>Node0&#45;&gt;Node14</title>
<path fill="none" stroke="#191970" d="M1732.8313,-131.2102C1540.6526,-126.306 1032.3784,-111.3713 865.5,-87 859.2098,-86.0814 852.6311,-84.8144 846.1969,-83.3974"/>
<polygon fill="#191970" stroke="#191970" points="846.8013,-79.9444 836.267,-81.0757 845.2075,-86.7606 846.8013,-79.9444"/>
</g>
<!-- Node16 -->
<g id="node17" class="node">
<title>Node16</title>
<polygon fill="#ffffff" stroke="#bfbfbf" points="874.5,-62 874.5,-81 936.5,-81 936.5,-62 874.5,-62"/>
<text text-anchor="middle" x="905.5" y="-69" font-family="RobotoMono" font-size="10.00" fill="#000000">avr/wdt.h</text>
</g>
<!-- Node0&#45;&gt;Node16 -->
<g id="edge18" class="edge">
<title>Node0&#45;&gt;Node16</title>
<path fill="none" stroke="#191970" d="M1732.7542,-132.0337C1551.9101,-129.2095 1094.6821,-119.0309 945.5,-87 942.4667,-86.3487 939.3615,-85.499 936.2881,-84.5327"/>
<polygon fill="#191970" stroke="#191970" points="937.3008,-81.1785 926.706,-81.1488 934.9698,-87.779 937.3008,-81.1785"/>
</g>
<!-- Node17 -->
<g id="node18" class="node">
<title>Node17</title>
<g id="a_node18"><a xlink:href="eagle__SoftwareSerial_8h.html" target="_top" xlink:title="this file contains the SoftwareSerial class ">
<polygon fill="#ffffff" stroke="#000000" points="954.5,-62 954.5,-81 1118.5,-81 1118.5,-62 954.5,-62"/>
<text text-anchor="middle" x="1036.5" y="-69" font-family="RobotoMono" font-size="10.00" fill="#000000">source/eagle_SoftwareSerial.h</text>
</a>
</g>
</g>
<!-- Node0&#45;&gt;Node17 -->
<g id="edge19" class="edge">
<title>Node0&#45;&gt;Node17</title>
<path fill="none" stroke="#191970" d="M1732.8112,-130.4203C1607.3854,-125.535 1346.6389,-113.0074 1127.5,-87 1117.5932,-85.8243 1107.1237,-84.3038 1096.9509,-82.6758"/>
<polygon fill="#191970" stroke="#191970" points="1097.3448,-79.1936 1086.9087,-81.0208 1096.2064,-86.1005 1097.3448,-79.1936"/>
</g>
<!-- Node18 -->
<g id="node19" class="node">
<title>Node18</title>
<g id="a_node19"><a xlink:href="eagle__Bluetooth_8h.html" target="_top" xlink:title="this file contains cool stuff to access the bluetooth interface ">
<polygon fill="#ffffff" stroke="#000000" points="1136.5,-62 1136.5,-81 1276.5,-81 1276.5,-62 1136.5,-62"/>
<text text-anchor="middle" x="1206.5" y="-69" font-family="RobotoMono" font-size="10.00" fill="#000000">source/eagle_Bluetooth.h</text>
</a>
</g>
</g>
<!-- Node0&#45;&gt;Node18 -->
<g id="edge20" class="edge">
<title>Node0&#45;&gt;Node18</title>
<path fill="none" stroke="#191970" d="M1732.8759,-128.915C1631.3098,-122.7879 1444.0332,-109.4732 1285.5,-87 1277.4326,-85.8564 1268.9428,-84.4299 1260.6412,-82.9085"/>
<polygon fill="#191970" stroke="#191970" points="1261.1258,-79.4382 1250.6495,-81.0185 1259.8247,-86.3162 1261.1258,-79.4382"/>
</g>
<!-- Node19 -->
<g id="node20" class="node">
<title>Node19</title>
<g id="a_node20"><a xlink:href="eagle__RB14Scan_8h.html" target="_top" xlink:title="this file contains the RB14Scan class ">
<polygon fill="#ffffff" stroke="#000000" points="1294.5,-62 1294.5,-81 1436.5,-81 1436.5,-62 1294.5,-62"/>
<text text-anchor="middle" x="1365.5" y="-69" font-family="RobotoMono" font-size="10.00" fill="#000000">source/eagle_RB14Scan.h</text>
</a>
</g>
</g>
<!-- Node0&#45;&gt;Node19 -->
<g id="edge21" class="edge">
<title>Node0&#45;&gt;Node19</title>
<path fill="none" stroke="#191970" d="M1732.7676,-124.9396C1659.4278,-116.6914 1544.4927,-102.8623 1445.5,-87 1437.8389,-85.7724 1429.7886,-84.3594 1421.8676,-82.8968"/>
<polygon fill="#191970" stroke="#191970" points="1422.4174,-79.4389 1411.9424,-81.0278 1421.1219,-86.318 1422.4174,-79.4389"/>
</g>
<!-- Node20 -->
<g id="node21" class="node">
<title>Node20</title>
<g id="a_node21"><a xlink:href="eagle__Comfort_8h.html" target="_top" xlink:title="this file contains sine8 and gamma8 ">
<polygon fill="#ffffff" stroke="#000000" points="1455,-62 1455,-81 1588,-81 1588,-62 1455,-62"/>
<text text-anchor="middle" x="1521.5" y="-69" font-family="RobotoMono" font-size="10.00" fill="#000000">source/eagle_Comfort.h</text>
</a>
</g>
</g>
<!-- Node0&#45;&gt;Node20 -->
<g id="edge22" class="edge">
<title>Node0&#45;&gt;Node20</title>
<path fill="none" stroke="#191970" d="M1763.1263,-123.4581C1712.6111,-112.5956 1630.0812,-94.8488 1575.7754,-83.1711"/>
<polygon fill="#191970" stroke="#191970" points="1576.4902,-79.7449 1565.9778,-81.0643 1575.0185,-86.5884 1576.4902,-79.7449"/>
</g>
<!-- Node21 -->
<g id="node22" class="node">
<title>Node21</title>
<g id="a_node22"><a xlink:href="eagle__Servo_8h.html" target="_top" xlink:title="this file contains the Servo class ">
<polygon fill="#ffffff" stroke="#000000" points="1606,-62 1606,-81 1727,-81 1727,-62 1606,-62"/>
<text text-anchor="middle" x="1666.5" y="-69" font-family="RobotoMono" font-size="10.00" fill="#000000">source/eagle_Servo.h</text>
</a>
</g>
</g>
<!-- Node0&#45;&gt;Node21 -->
<g id="edge23" class="edge">
<title>Node0&#45;&gt;Node21</title>
<path fill="none" stroke="#191970" d="M1785.4688,-123.3906C1761.8769,-113.1005 1724.2499,-96.6888 1697.6367,-85.0809"/>
<polygon fill="#191970" stroke="#191970" points="1698.9419,-81.8318 1688.3765,-81.0419 1696.1433,-88.248 1698.9419,-81.8318"/>
</g>
<!-- Node22 -->
<g id="node23" class="node">
<title>Node22</title>
<g id="a_node23"><a xlink:href="eagle__Assert_8h.html" target="_top" xlink:title="this file contains the assert wrapper for EBOARD_DEBUG_MODE ">
<polygon fill="#ffffff" stroke="#000000" points="1745.5,-62 1745.5,-81 1869.5,-81 1869.5,-62 1745.5,-62"/>
<text text-anchor="middle" x="1807.5" y="-69" font-family="RobotoMono" font-size="10.00" fill="#000000">source/eagle_Assert.h</text>
</a>
</g>
</g>
<!-- Node0&#45;&gt;Node22 -->
<g id="edge24" class="edge">
<title>Node0&#45;&gt;Node22</title>
<path fill="none" stroke="#191970" d="M1807.5,-123.3906C1807.5,-114.8657 1807.5,-102.1392 1807.5,-91.4235"/>
<polygon fill="#191970" stroke="#191970" points="1811.0001,-91.2448 1807.5,-81.2449 1804.0001,-91.2449 1811.0001,-91.2448"/>
</g>
<!-- Node24 -->
<g id="node25" class="node">
<title>Node24</title>
<g id="a_node25"><a xlink:href="eagle__Checks_8h.html" target="_top" xlink:title="this file contains various checkers like checkIdx ">
<polygon fill="#ffffff" stroke="#000000" points="1887.5,-62 1887.5,-81 2015.5,-81 2015.5,-62 1887.5,-62"/>
<text text-anchor="middle" x="1951.5" y="-69" font-family="RobotoMono" font-size="10.00" fill="#000000">source/eagle_Checks.h</text>
</a>
</g>
</g>
<!-- Node0&#45;&gt;Node24 -->
<g id="edge26" class="edge">
<title>Node0&#45;&gt;Node24</title>
<path fill="none" stroke="#191970" d="M1830,-123.3906C1854.0938,-113.1005 1892.5213,-96.6888 1919.7008,-85.0809"/>
<polygon fill="#191970" stroke="#191970" points="1921.3363,-88.1883 1929.158,-81.0419 1918.5869,-81.7508 1921.3363,-88.1883"/>
</g>
<!-- Node25 -->
<g id="node26" class="node">
<title>Node25</title>
<g id="a_node26"><a xlink:href="eagle__ShiftExt_8h.html" target="_top" xlink:title="this file contains the cool shift&#45;EXTension ">
<polygon fill="#ffffff" stroke="#000000" points="2034,-62 2034,-81 2165,-81 2165,-62 2034,-62"/>
<text text-anchor="middle" x="2099.5" y="-69" font-family="RobotoMono" font-size="10.00" fill="#000000">source/eagle_ShiftExt.h</text>
</a>
</g>
</g>
<!-- Node0&#45;&gt;Node25 -->
<g id="edge27" class="edge">
<title>Node0&#45;&gt;Node25</title>
<path fill="none" stroke="#191970" d="M1852.8046,-123.4581C1904.3796,-112.5956 1988.6408,-94.8488 2044.086,-83.1711"/>
<polygon fill="#191970" stroke="#191970" points="2045.0251,-86.5502 2054.0891,-81.0643 2043.5824,-79.7004 2045.0251,-86.5502"/>
</g>
<!-- Node26 -->
<g id="node27" class="node">
<title>Node26</title>
<g id="a_node27"><a xlink:href="eagle__PinCtrl_8h.html" target="_top" xlink:title="this file contains cool stuff... it controls pins ">
<polygon fill="#ffffff" stroke="#000000" points="2183,-62 2183,-81 2308,-81 2308,-62 2183,-62"/>
<text text-anchor="middle" x="2245.5" y="-69" font-family="RobotoMono" font-size="10.00" fill="#000000">source/eagle_PinCtrl.h</text>
</a>
</g>
</g>
<!-- Node0&#45;&gt;Node26 -->
<g id="edge28" class="edge">
<title>Node0&#45;&gt;Node26</title>
<path fill="none" stroke="#191970" d="M1882.2983,-125.6239C1956.6673,-117.8207 2073.8686,-104.2548 2174.5,-87 2181.1004,-85.8683 2188.0159,-84.5395 2194.8322,-83.1441"/>
<polygon fill="#191970" stroke="#191970" points="2195.635,-86.5519 2204.6996,-81.0671 2194.1931,-79.702 2195.635,-86.5519"/>
</g>
<!-- Node27 -->
<g id="node28" class="node">
<title>Node27</title>
<g id="a_node28"><a xlink:href="eagle__ServoCds55_8h.html" target="_top" xlink:title="this file contains the ServoCds55 class ">
<polygon fill="#ffffff" stroke="#000000" points="2326,-62 2326,-81 2477,-81 2477,-62 2326,-62"/>
<text text-anchor="middle" x="2401.5" y="-69" font-family="RobotoMono" font-size="10.00" fill="#000000">source/eagle_ServoCds55.h</text>
</a>
</g>
</g>
<!-- Node0&#45;&gt;Node27 -->
<g id="edge29" class="edge">
<title>Node0&#45;&gt;Node27</title>
<path fill="none" stroke="#191970" d="M1882.0699,-128.4436C1981.6377,-121.8646 2163.3641,-108.126 2317.5,-87 2326.1466,-85.8149 2335.257,-84.3555 2344.1609,-82.8106"/>
<polygon fill="#191970" stroke="#191970" points="2344.8601,-86.2412 2354.0904,-81.0401 2343.6312,-79.3499 2344.8601,-86.2412"/>
</g>
<!-- Node28 -->
<g id="node29" class="node">
<title>Node28</title>
<g id="a_node29"><a xlink:href="eagle__SoccerBoard_8h.html" target="_top" xlink:title="this file contains the SoccerBoard class ">
<polygon fill="#ffffff" stroke="#000000" points="2495.5,-62 2495.5,-81 2649.5,-81 2649.5,-62 2495.5,-62"/>
<text text-anchor="middle" x="2572.5" y="-69" font-family="RobotoMono" font-size="10.00" fill="#000000">source/eagle_SoccerBoard.h</text>
</a>
</g>
</g>
<!-- Node0&#45;&gt;Node28 -->
<g id="edge30" class="edge">
<title>Node0&#45;&gt;Node28</title>
<path fill="none" stroke="#191970" d="M1882.1071,-130.6466C2007.3894,-126.0908 2267.8105,-114.031 2486.5,-87 2495.6774,-85.8656 2505.36,-84.3927 2514.7869,-82.8068"/>
<polygon fill="#191970" stroke="#191970" points="2515.627,-86.2134 2524.8797,-81.0523 2514.428,-79.3168 2515.627,-86.2134"/>
</g>
<!-- Node29 -->
<g id="node30" class="node">
<title>Node29</title>
<g id="a_node30"><a xlink:href="eagle__I2CInOut_8h.html" target="_top" xlink:title="this file contains the I2CInOut class ">
<polygon fill="#ffffff" stroke="#000000" points="2668,-62 2668,-81 2803,-81 2803,-62 2668,-62"/>
<text text-anchor="middle" x="2735.5" y="-69" font-family="RobotoMono" font-size="10.00" fill="#000000">source/eagle_I2CInOut.h</text>
</a>
</g>
</g>
<!-- Node0&#45;&gt;Node29 -->
<g id="edge31" class="edge">
<title>Node0&#45;&gt;Node29</title>
<path fill="none" stroke="#191970" d="M1882.0062,-130.3586C2060.6006,-123.803 2509.335,-105.9438 2658.5,-87 2666.6747,-85.9618 2675.2805,-84.5501 2683.6586,-82.999"/>
<polygon fill="#191970" stroke="#191970" points="2684.5668,-86.3883 2693.7206,-81.0537 2683.238,-79.5156 2684.5668,-86.3883"/>
</g>
<!-- Node30 -->
<g id="node31" class="node">
<title>Node30</title>
<g id="a_node31"><a xlink:href="eagle__AX12Servo_8h.html" target="_top" xlink:title="this file contains the AX12Servo class ">
<polygon fill="#ffffff" stroke="#000000" points="2821.5,-62 2821.5,-81 2967.5,-81 2967.5,-62 2821.5,-62"/>
<text text-anchor="middle" x="2894.5" y="-69" font-family="RobotoMono" font-size="10.00" fill="#000000">source/eagle_AX12Servo.h</text>
</a>
</g>
</g>
<!-- Node0&#45;&gt;Node30 -->
<g id="edge32" class="edge">
<title>Node0&#45;&gt;Node30</title>
<path fill="none" stroke="#191970" d="M1882.3038,-130.9466C2083.3693,-125.2081 2632.4036,-108.0364 2812.5,-87 2821.5884,-85.9384 2831.1833,-84.4572 2840.4816,-82.8281"/>
<polygon fill="#191970" stroke="#191970" points="2841.2076,-86.2535 2850.4168,-81.0152 2839.9509,-79.3672 2841.2076,-86.2535"/>
</g>
<!-- Node31 -->
<g id="node32" class="node">
<title>Node31</title>
<g id="a_node32"><a xlink:href="eagle__DynamixelBoard_8h.html" target="_top" xlink:title="this file contains the DynamixelBoard class ">
<polygon fill="#ffffff" stroke="#000000" points="2986,-62 2986,-81 3161,-81 3161,-62 2986,-62"/>
<text text-anchor="middle" x="3073.5" y="-69" font-family="RobotoMono" font-size="10.00" fill="#000000">source/eagle_DynamixelBoard.h</text>
</a>
</g>
</g>
<!-- Node0&#45;&gt;Node31 -->
<g id="edge33" class="edge">
<title>Node0&#45;&gt;Node31</title>
<path fill="none" stroke="#191970" d="M1882.208,-131.226C2105.0583,-125.7494 2762.8885,-108.1936 2976.5,-87 2987.7881,-85.88 2999.7588,-84.2957 3011.2952,-82.5638"/>
<polygon fill="#191970" stroke="#191970" points="3011.9487,-86.0044 3021.2935,-81.0119 3010.875,-79.0872 3011.9487,-86.0044"/>
</g>
<!-- Node32 -->
<g id="node33" class="node">
<title>Node32</title>
<g id="a_node33"><a xlink:href="eagle__I2C_8h.html" target="_top" xlink:title="this file contains cool stuff to access the I²C interface ">
<polygon fill="#ffffff" stroke="#000000" points="3179,-62 3179,-81 3288,-81 3288,-62 3179,-62"/>
<text text-anchor="middle" x="3233.5" y="-69" font-family="RobotoMono" font-size="10.00" fill="#000000">source/eagle_I2C.h</text>
</a>
</g>
</g>
<!-- Node0&#45;&gt;Node32 -->
<g id="edge34" class="edge">
<title>Node0&#45;&gt;Node32</title>
<path fill="none" stroke="#191970" d="M1882.2143,-132.5192C2129.2855,-130.6091 2918.5243,-121.8637 3170.5,-87 3176.9434,-86.1085 3183.6857,-84.8304 3190.2642,-83.3856"/>
<polygon fill="#191970" stroke="#191970" points="3191.4632,-86.6994 3200.4004,-81.0094 3189.8655,-79.8842 3191.4632,-86.6994"/>
</g>
<!-- Node33 -->
<g id="node34" class="node">
<title>Node33</title>
<g id="a_node34"><a xlink:href="eagle__LCD_8h.html" target="_top" xlink:title="this file contains the LCD class ">
<polygon fill="#ffffff" stroke="#000000" points="3306,-62 3306,-81 3419,-81 3419,-62 3306,-62"/>
<text text-anchor="middle" x="3362.5" y="-69" font-family="RobotoMono" font-size="10.00" fill="#000000">source/eagle_LCD.h</text>
</a>
</g>
</g>
<!-- Node0&#45;&gt;Node33 -->
<g id="edge35" class="edge">
<title>Node0&#45;&gt;Node33</title>
<path fill="none" stroke="#191970" d="M1882.2301,-132.7003C2144.1164,-131.3363 3019.479,-124.0482 3297.5,-87 3304.2991,-86.094 3311.4247,-84.7797 3318.3634,-83.294"/>
<polygon fill="#191970" stroke="#191970" points="3319.3631,-86.656 3328.3359,-81.0223 3317.8083,-79.8309 3319.3631,-86.656"/>
</g>
<!-- Node34 -->
<g id="node35" class="node">
<title>Node34</title>
<g id="a_node35"><a xlink:href="eagle__NeoPixel_8h.html" target="_top" xlink:title="this file contains the NeoPixel class ">
<polygon fill="#ffffff" stroke="#000000" points="3437,-62 3437,-81 3574,-81 3574,-62 3437,-62"/>
<text text-anchor="middle" x="3505.5" y="-69" font-family="RobotoMono" font-size="10.00" fill="#000000">source/eagle_NeoPixel.h</text>
</a>
</g>
</g>
<!-- Node0&#45;&gt;Node34 -->
<g id="edge36" class="edge">
<title>Node0&#45;&gt;Node34</title>
<path fill="none" stroke="#191970" d="M1882.4605,-132.5674C2159.192,-130.7066 3123.075,-121.8175 3428.5,-87 3437.0694,-86.0231 3446.1047,-84.5828 3454.8525,-82.9676"/>
<polygon fill="#191970" stroke="#191970" points="3455.7948,-86.3501 3464.9446,-81.0086 3454.4608,-79.4784 3455.7948,-86.3501"/>
</g>
<!-- Node35 -->
<g id="node36" class="node">
<title>Node35</title>
<g id="a_node36"><a xlink:href="eagle__ReptTask_8h.html" target="_top" xlink:title="this file contains cool stuff... this file contains cool stuff... this file contains cool stuff...">
<polygon fill="#ffffff" stroke="#000000" points="3592,-62 3592,-81 3729,-81 3729,-62 3592,-62"/>
<text text-anchor="middle" x="3660.5" y="-69" font-family="RobotoMono" font-size="10.00" fill="#000000">source/eagle_ReptTask.h</text>
</a>
</g>
</g>
<!-- Node0&#45;&gt;Node35 -->
<g id="edge37" class="edge">
<title>Node0&#45;&gt;Node35</title>
<path fill="none" stroke="#191970" d="M1882.4835,-132.7838C2175.8417,-131.6703 3246.164,-125.0325 3583.5,-87 3592.0706,-86.0337 3601.1065,-84.5987 3609.8546,-82.9856"/>
<polygon fill="#191970" stroke="#191970" points="3610.7964,-86.3683 3619.9467,-81.0276 3609.4631,-79.4964 3610.7964,-86.3683"/>
</g>
<!-- Node36 -->
<g id="node37" class="node">
<title>Node36</title>
<g id="a_node37"><a xlink:href="eagle__Setup_8h.html" target="_top" xlink:title="this file contains the setup method ">
<polygon fill="#ffffff" stroke="#000000" points="3747,-62 3747,-81 3868,-81 3868,-62 3747,-62"/>
<text text-anchor="middle" x="3807.5" y="-69" font-family="RobotoMono" font-size="10.00" fill="#000000">source/eagle_Setup.h</text>
</a>
</g>
</g>
<!-- Node0&#45;&gt;Node36 -->
<g id="edge38" class="edge">
<title>Node0&#45;&gt;Node36</title>
<path fill="none" stroke="#191970" d="M1882.0138,-132.0947C2214.2289,-127.9404 3552.1674,-109.9205 3738.5,-87 3745.9562,-86.0828 3753.79,-84.7186 3761.3948,-83.1734"/>
<polygon fill="#191970" stroke="#191970" points="3762.17,-86.5868 3771.2093,-81.0603 3760.6966,-79.7436 3762.17,-86.5868"/>
</g>
<!-- Node37 -->
<g id="node38" class="node">
<title>Node37</title>
<g id="a_node38"><a xlink:href="eagle__HelpMot_8h.html" target="_top" xlink:title="this file contains the helper to acces the motor on the main car ">
<polygon fill="#ffffff" stroke="#000000" points="3886.5,-62 3886.5,-81 4020.5,-81 4020.5,-62 3886.5,-62"/>
<text text-anchor="middle" x="3953.5" y="-69" font-family="RobotoMono" font-size="10.00" fill="#000000">source/eagle_HelpMot.h</text>
</a>
</g>
</g>
<!-- Node0&#45;&gt;Node37 -->
<g id="edge39" class="edge">
<title>Node0&#45;&gt;Node37</title>
<path fill="none" stroke="#191970" d="M1882.0815,-132.1347C2229.0057,-128.0029 3676.506,-109.5456 3877.5,-87 3885.9642,-86.0506 3894.8852,-84.6241 3903.5206,-83.0143"/>
<polygon fill="#191970" stroke="#191970" points="3904.3442,-86.4195 3913.4822,-81.0579 3902.9951,-79.5507 3904.3442,-86.4195"/>
</g>
<!-- Node6&#45;&gt;Node5 -->
<g id="edge8" class="edge">
<title>Node6&#45;&gt;Node5</title>
<path fill="none" stroke="#191970" d="M488.9688,-61.8906C450.5318,-51.1944 388.3256,-33.8836 346.4464,-22.2294"/>
<polygon fill="#191970" stroke="#191970" points="347.3611,-18.851 336.7888,-19.5419 345.4843,-25.5948 347.3611,-18.851"/>
</g>
<!-- Node7 -->
<g id="node8" class="node">
<title>Node7</title>
<polygon fill="#ffffff" stroke="#bfbfbf" points="568,-.5 568,-19.5 633,-19.5 633,-.5 568,-.5"/>
<text text-anchor="middle" x="600.5" y="-7.5" font-family="RobotoMono" font-size="10.00" fill="#000000">inttypes.h</text>
</g>
<!-- Node6&#45;&gt;Node7 -->
<g id="edge7" class="edge">
<title>Node6&#45;&gt;Node7</title>
<path fill="none" stroke="#191970" d="M535.5313,-61.8906C547.5107,-52.3227 566.1166,-37.4621 580.3525,-26.0919"/>
<polygon fill="#191970" stroke="#191970" points="582.9239,-28.5175 588.5532,-19.5419 578.5553,-23.0479 582.9239,-28.5175"/>
</g>
<!-- Node8 -->
<g id="node9" class="node">
<title>Node8</title>
<polygon fill="#ffffff" stroke="#bfbfbf" points="363.5,-.5 363.5,-19.5 443.5,-19.5 443.5,-.5 363.5,-.5"/>
<text text-anchor="middle" x="403.5" y="-7.5" font-family="RobotoMono" font-size="10.00" fill="#000000">compat/twi.h</text>
</g>
<!-- Node6&#45;&gt;Node8 -->
<g id="edge9" class="edge">
<title>Node6&#45;&gt;Node8</title>
<path fill="none" stroke="#191970" d="M504.75,-61.8906C485.024,-51.7811 453.7688,-35.7628 431.2,-24.1962"/>
<polygon fill="#191970" stroke="#191970" points="432.614,-20.9881 422.1183,-19.5419 429.4213,-27.2176 432.614,-20.9881"/>
</g>
<!-- Node9 -->
<g id="node10" class="node">
<title>Node9</title>
<polygon fill="#ffffff" stroke="#bfbfbf" points="461.5,-.5 461.5,-19.5 549.5,-19.5 549.5,-.5 461.5,-.5"/>
<text text-anchor="middle" x="505.5" y="-7.5" font-family="RobotoMono" font-size="10.00" fill="#000000">pins_arduino.h</text>
</g>
<!-- Node6&#45;&gt;Node9 -->
<g id="edge10" class="edge">
<title>Node6&#45;&gt;Node9</title>
<path fill="none" stroke="#191970" d="M520.6875,-61.8906C518.1661,-53.276 514.389,-40.3708 511.2324,-29.5858"/>
<polygon fill="#191970" stroke="#191970" points="514.5203,-28.3591 508.3522,-19.7449 507.8021,-30.3254 514.5203,-28.3591"/>
</g>
<!-- Node10&#45;&gt;Node7 -->
<g id="edge12" class="edge">
<title>Node10&#45;&gt;Node7</title>
<path fill="none" stroke="#191970" d="M653.6563,-61.8906C644.0961,-52.5581 629.3777,-38.1902 617.8505,-26.9374"/>
<polygon fill="#191970" stroke="#191970" points="620.0832,-24.2257 610.4825,-19.7449 615.1934,-29.2348 620.0832,-24.2257"/>
</g>
<!-- Node11 -->
<g id="node12" class="node">
<title>Node11</title>
<polygon fill="#ffffff" stroke="#bfbfbf" points="651,-.5 651,-19.5 712,-19.5 712,-.5 651,-.5"/>
<text text-anchor="middle" x="681.5" y="-7.5" font-family="RobotoMono" font-size="10.00" fill="#000000">Stream.h</text>
</g>
<!-- Node10&#45;&gt;Node11 -->
<g id="edge13" class="edge">
<title>Node10&#45;&gt;Node11</title>
<path fill="none" stroke="#191970" d="M666.3125,-61.8906C668.8339,-53.276 672.611,-40.3708 675.7676,-29.5858"/>
<polygon fill="#191970" stroke="#191970" points="679.1979,-30.3254 678.6478,-19.7449 672.4797,-28.3591 679.1979,-30.3254"/>
</g>
<!-- Node12 -->
<g id="node13" class="node">
<title>Node12</title>
<polygon fill="#ffffff" stroke="#bfbfbf" points="730,-.5 730,-19.5 783,-19.5 783,-.5 730,-.5"/>
<text text-anchor="middle" x="756.5" y="-7.5" font-family="RobotoMono" font-size="10.00" fill="#000000">stdlib.h</text>
</g>
<!-- Node10&#45;&gt;Node12 -->
<g id="edge14" class="edge">
<title>Node10&#45;&gt;Node12</title>
<path fill="none" stroke="#191970" d="M678.0313,-61.8906C692.9094,-52.0519 716.2504,-36.6167 733.6128,-25.1351"/>
<polygon fill="#191970" stroke="#191970" points="735.6602,-27.9773 742.0708,-19.5419 731.799,-22.1385 735.6602,-27.9773"/>
</g>
<!-- Node13 -->
<g id="node14" class="node">
<title>Node13</title>
<polygon fill="#ffffff" stroke="#bfbfbf" points="801,-.5 801,-19.5 854,-19.5 854,-.5 801,-.5"/>
<text text-anchor="middle" x="827.5" y="-7.5" font-family="RobotoMono" font-size="10.00" fill="#000000">string.h</text>
</g>
<!-- Node10&#45;&gt;Node13 -->
<g id="edge15" class="edge">
<title>Node10&#45;&gt;Node13</title>
<path fill="none" stroke="#191970" d="M689.125,-61.8906C716.9263,-51.4652 761.4844,-34.7559 792.4994,-23.1252"/>
<polygon fill="#191970" stroke="#191970" points="793.9206,-26.3303 802.0549,-19.5419 791.4627,-19.776 793.9206,-26.3303"/>
</g>
<!-- Node15 -->
<g id="node16" class="node">
<title>Node15</title>
<polygon fill="#ffffff" stroke="#bfbfbf" points="872.5,-.5 872.5,-19.5 922.5,-19.5 922.5,-.5 872.5,-.5"/>
<text text-anchor="middle" x="897.5" y="-7.5" font-family="RobotoMono" font-size="10.00" fill="#000000">stdio.h</text>
</g>
<!-- Node14&#45;&gt;Node15 -->
<g id="edge17" class="edge">
<title>Node14&#45;&gt;Node15</title>
<path fill="none" stroke="#191970" d="M817.3438,-61.8906C832.5418,-52.0519 856.3848,-36.6167 874.1206,-25.1351"/>
<polygon fill="#191970" stroke="#191970" points="876.268,-27.9144 882.7605,-19.5419 872.4639,-22.0382 876.268,-27.9144"/>
</g>
<!-- Node23 -->
<g id="node24" class="node">
<title>Node23</title>
<polygon fill="#ffffff" stroke="#bfbfbf" points="1779.5,-.5 1779.5,-19.5 1835.5,-19.5 1835.5,-.5 1779.5,-.5"/>
<text text-anchor="middle" x="1807.5" y="-7.5" font-family="RobotoMono" font-size="10.00" fill="#000000">assert.h</text>
</g>
<!-- Node22&#45;&gt;Node23 -->
<g id="edge25" class="edge">
<title>Node22&#45;&gt;Node23</title>
<path fill="none" stroke="#191970" d="M1807.5,-61.8906C1807.5,-53.3657 1807.5,-40.6392 1807.5,-29.9235"/>
<polygon fill="#191970" stroke="#191970" points="1811.0001,-29.7448 1807.5,-19.7449 1804.0001,-29.7449 1811.0001,-29.7448"/>
</g>
</g>
</svg>
        <g id="navigator" transform="translate(0 0)" fill="#404254">
                <rect fill="#f2f5e9" fill-opacity="0.5" stroke="#606060" stroke-width=".5" x="0" y="0" width="60" height="60"/>
                <use id="zoomplus" xlink:href="#zoomPlus" x="17" y="9" onmousedown="handleZoom(evt,'in')"/>
                <use id="zoomminus" xlink:href="#zoomMin" x="42" y="9" onmousedown="handleZoom(evt,'out')"/>
                <use id="reset" xlink:href="#resetDef" x="30" y="36" onmousedown="handleReset()"/>
                <g id="arrowUp" xlink:href="#dirArrow" transform="translate(30 24)" onmousedown="handlePan(0,-1)">
                  <use xlink:href="#rim" fill="#404040">
                        <set attributeName="fill" to="#808080" begin="arrowUp.mouseover" end="arrowUp.mouseout"/>
                  </use>
                  <path fill="none" stroke="white" stroke-width="1.5" d="M0,-3.0v7 M-2.5,-0.5L0,-3.0L2.5,-0.5"/>
                </g>
                <g id="arrowRight" xlink:href="#dirArrow" transform="rotate(90) translate(36 -43)" onmousedown="handlePan(1,0)">
                  <use xlink:href="#rim" fill="#404040">
                        <set attributeName="fill" to="#808080" begin="arrowRight.mouseover" end="arrowRight.mouseout"/>
                  </use>
                  <path fill="none" stroke="white" stroke-width="1.5" d="M0,-3.0v7 M-2.5,-0.5L0,-3.0L2.5,-0.5"/>
                </g>
                <g id="arrowDown" xlink:href="#dirArrow" transform="rotate(180) translate(-30 -48)" onmousedown="handlePan(0,1)">
                  <use xlink:href="#rim" fill="#404040">
                        <set attributeName="fill" to="#808080" begin="arrowDown.mouseover" end="arrowDown.mouseout"/>
                  </use>
                  <path fill="none" stroke="white" stroke-width="1.5" d="M0,-3.0v7 M-2.5,-0.5L0,-3.0L2.5,-0.5"/>
                </g>
                <g id="arrowLeft" xlink:href="#dirArrow" transform="rotate(270) translate(-36 17)" onmousedown="handlePan(-1,0)">
                  <use xlink:href="#rim" fill="#404040">
                        <set attributeName="fill" to="#808080" begin="arrowLeft.mouseover" end="arrowLeft.mouseout"/>
                  </use>
                  <path fill="none" stroke="white" stroke-width="1.5" d="M0,-3.0v7 M-2.5,-0.5L0,-3.0L2.5,-0.5"/>
                </g>
        </g>
        <svg viewBox="0 0 15 15" width="100%" height="30px" preserveAspectRatio="xMaxYMin meet">
         <g id="arrow_out" transform="scale(0.3 0.3)">
          <a xlink:href="eBoard__comment_8h__incl_org.svg" target="_base">
           <rect id="button" ry="5" rx="5" y="6" x="6" height="38" width="38"
                fill="#f2f5e9" fill-opacity="0.5" stroke="#606060" stroke-width="1.0"/>
           <path id="arrow"
             d="M 11.500037,31.436501 C 11.940474,20.09759 22.043105,11.32322 32.158766,21.979434 L 37.068811,17.246167 C 37.068811,17.246167 37.088388,32 37.088388,32 L 22.160133,31.978069 C 22.160133,31.978069 26.997745,27.140456 26.997745,27.140456 C 18.528582,18.264221 13.291696,25.230495 11.500037,31.436501 z"
             style="fill:#404040;"/>
          </a>
         </g>
        </svg>
</svg>
