<?xml version="1.0" encoding="UTF-8" standalone="no"?>
<!DOCTYPE svg PUBLIC "-//W3C//DTD SVG 1.1//EN"
 "http://www.w3.org/Graphics/SVG/1.1/DTD/svg11.dtd">
<!-- Generated by graphviz version 2.38.0 (20140413.2041)
 -->
<!-- Title: pingI2C Pages: 1 -->
<svg width="144pt" height="46pt"
 viewBox="0.00 0.00 144.00 46.00" xmlns="http://www.w3.org/2000/svg" xmlns:xlink="http://www.w3.org/1999/xlink">
<g id="graph0" class="graph" transform="scale(1 1) rotate(0) translate(4 42)">
<title>pingI2C</title>
<polygon fill="white" stroke="none" points="-4,4 -4,-42 140,-42 140,4 -4,4"/>
<!-- Node91 -->
<g id="node1" class="node"><title>Node91</title>
<polygon fill="#bfbfbf" stroke="black" points="0,-0.5 0,-19.5 50,-19.5 50,-0.5 0,-0.5"/>
<text text-anchor="middle" x="25" y="-7.5" font-family="Helvetica,sans-Serif" font-size="10.00">pingI2C</text>
</g>
<!-- Node92 -->
<g id="node2" class="node"><title>Node92</title>
<g id="a_node2"><a xlink:href="eBoard__comment_8h.html#aca4f96af7c6736bf2b61c88d731af741" target="_top" xlink:title="read a digital state from an INPUTpin ">
<polygon fill="white" stroke="black" points="86,-0.5 86,-19.5 136,-19.5 136,-0.5 86,-0.5"/>
<text text-anchor="middle" x="111" y="-7.5" font-family="Helvetica,sans-Serif" font-size="10.00">readPin</text>
</a>
</g>
</g>
<!-- Node91&#45;&gt;Node92 -->
<g id="edge1" class="edge"><title>Node91&#45;&gt;Node92</title>
<path fill="none" stroke="midnightblue" d="M60.3723,-10C68.8897,-10 77.8401,-10 85.7583,-10"/>
<polygon fill="midnightblue" stroke="midnightblue" points="60.2963,-6.5001 50.2963,-10 60.2962,-13.5001 60.2963,-6.5001"/>
</g>
<!-- Node92&#45;&gt;Node92 -->
<g id="edge2" class="edge"><title>Node92&#45;&gt;Node92</title>
<path fill="none" stroke="midnightblue" d="M95.0749,-29.4C96.1384,-34.3146 101.447,-38 111,-38 126.285,-38 130.704,-28.5653 124.255,-19.7571"/>
<polygon fill="midnightblue" stroke="midnightblue" points="98.4494,-30.3284 97.7449,-19.7571 91.7032,-28.4604 98.4494,-30.3284"/>
</g>
</g>
</svg>
