<?xml version="1.0" encoding="UTF-8" standalone="no"?>
<!DOCTYPE svg PUBLIC "-//W3C//DTD SVG 1.1//EN"
 "http://www.w3.org/Graphics/SVG/1.1/DTD/svg11.dtd">
<!-- Generated by graphviz version 2.38.0 (20140413.2041)
 -->
<!-- Title: writePin Pages: 1 -->
<svg width="250pt" height="117pt"
 viewBox="0.00 0.00 250.00 117.23" xmlns="http://www.w3.org/2000/svg" xmlns:xlink="http://www.w3.org/1999/xlink">
<g id="graph0" class="graph" transform="scale(1 1) rotate(0) translate(4 113.226)">
<title>writePin</title>
<polygon fill="white" stroke="none" points="-4,4 -4,-113.226 246,-113.226 246,4 -4,4"/>
<!-- Node205 -->
<g id="node1" class="node"><title>Node205</title>
<polygon fill="#bfbfbf" stroke="black" points="0,-57.5 0,-76.5 52,-76.5 52,-57.5 0,-57.5"/>
<text text-anchor="middle" x="26" y="-64.5" font-family="Helvetica,sans-Serif" font-size="10.00">writePin</text>
</g>
<!-- Node206 -->
<g id="node2" class="node"><title>Node206</title>
<g id="a_node2"><a xlink:href="eBoard_8h.html#a757015d50a6c57414603841f728b670b" target="_top" xlink:title="[DEBUG_MODE] used to check if a pin index is in bounds ">
<polygon fill="white" stroke="black" points="186,-76.5 186,-95.5 242,-95.5 242,-76.5 186,-76.5"/>
<text text-anchor="middle" x="214" y="-83.5" font-family="Helvetica,sans-Serif" font-size="10.00">checkIdx</text>
</a>
</g>
</g>
<!-- Node205&#45;&gt;Node206 -->
<g id="edge1" class="edge"><title>Node205&#45;&gt;Node206</title>
<path fill="none" stroke="midnightblue" d="M38.2034,-76.7076C49.7766,-86.0392 68.8062,-99.5106 88,-105 118.369,-113.685 154.092,-106.603 179.555,-98.7356"/>
<polygon fill="midnightblue" stroke="midnightblue" points="180.707,-102.041 189.116,-95.5959 178.523,-95.3906 180.707,-102.041"/>
</g>
<!-- Node207 -->
<g id="node3" class="node"><title>Node207</title>
<g id="a_node3"><a xlink:href="eBoard_8h.html#a06400a6dce24e4eda610644893c1bbd7" target="_top" xlink:title="[COPY&amp;PASTE] [CHECK_PINS] Check if a pin is set to a specific mode ">
<polygon fill="white" stroke="black" points="90.5,-76.5 90.5,-95.5 147.5,-95.5 147.5,-76.5 90.5,-76.5"/>
<text text-anchor="middle" x="119" y="-83.5" font-family="Helvetica,sans-Serif" font-size="10.00">checkPin</text>
</a>
</g>
</g>
<!-- Node205&#45;&gt;Node207 -->
<g id="edge2" class="edge"><title>Node205&#45;&gt;Node207</title>
<path fill="none" stroke="midnightblue" d="M52.3486,-72.2926C60.9997,-74.0988 70.8687,-76.1594 80.2801,-78.1244"/>
<polygon fill="midnightblue" stroke="midnightblue" points="79.7292,-81.5848 90.2335,-80.2026 81.16,-74.7326 79.7292,-81.5848"/>
</g>
<!-- Node208 -->
<g id="node4" class="node"><title>Node208</title>
<g id="a_node4"><a xlink:href="eBoard_8h.html#a78b0e873cb50c282c6243d4913406be4" target="_top" xlink:title="[COPY&amp;PASTE] set a pin to a certain mode =&gt; checkPin() will return true then ">
<polygon fill="white" stroke="black" points="97,-38.5 97,-57.5 141,-57.5 141,-38.5 97,-38.5"/>
<text text-anchor="middle" x="119" y="-45.5" font-family="Helvetica,sans-Serif" font-size="10.00">setPin</text>
</a>
</g>
</g>
<!-- Node205&#45;&gt;Node208 -->
<g id="edge4" class="edge"><title>Node205&#45;&gt;Node208</title>
<path fill="none" stroke="midnightblue" d="M52.3486,-61.7074C63.0589,-59.4712 75.636,-56.8452 86.9003,-54.4933"/>
<polygon fill="midnightblue" stroke="midnightblue" points="87.7112,-57.8996 96.7848,-52.4296 86.2805,-51.0474 87.7112,-57.8996"/>
</g>
<!-- Node209 -->
<g id="node5" class="node"><title>Node209</title>
<g id="a_node5"><a xlink:href="eBoard_8h.html#ad6372ab439a73887b0800cc695599436" target="_top" xlink:title="[SHIFT] Changes a single output Pin ">
<polygon fill="white" stroke="black" points="88,-0.5 88,-19.5 150,-19.5 150,-0.5 88,-0.5"/>
<text text-anchor="middle" x="119" y="-7.5" font-family="Helvetica,sans-Serif" font-size="10.00">shiftSingle</text>
</a>
</g>
</g>
<!-- Node205&#45;&gt;Node209 -->
<g id="edge6" class="edge"><title>Node205&#45;&gt;Node209</title>
<path fill="none" stroke="midnightblue" d="M42.4369,-57.3307C56.6416,-48.4333 77.922,-35.1038 94.2835,-24.8554"/>
<polygon fill="midnightblue" stroke="midnightblue" points="96.1742,-27.801 102.791,-19.5265 92.4584,-21.8687 96.1742,-27.801"/>
</g>
<!-- Node207&#45;&gt;Node206 -->
<g id="edge3" class="edge"><title>Node207&#45;&gt;Node206</title>
<path fill="none" stroke="midnightblue" d="M147.651,-86C156.443,-86 166.317,-86 175.675,-86"/>
<polygon fill="midnightblue" stroke="midnightblue" points="175.936,-89.5001 185.936,-86 175.936,-82.5001 175.936,-89.5001"/>
</g>
<!-- Node208&#45;&gt;Node206 -->
<g id="edge5" class="edge"><title>Node208&#45;&gt;Node206</title>
<path fill="none" stroke="midnightblue" d="M141.103,-56.6228C152.634,-61.3342 167.17,-67.2736 180.149,-72.577"/>
<polygon fill="midnightblue" stroke="midnightblue" points="179.114,-75.9351 189.695,-76.4777 181.762,-69.4552 179.114,-75.9351"/>
</g>
<!-- Node210 -->
<g id="node6" class="node"><title>Node210</title>
<g id="a_node6"><a xlink:href="eBoard_8h.html#aa0a7f697a49b0d038631c64e945f5c1a" target="_top" xlink:title="[SHIFT] Changes bits according to store_bits ">
<polygon fill="white" stroke="black" points="190.5,-0.5 190.5,-19.5 237.5,-19.5 237.5,-0.5 190.5,-0.5"/>
<text text-anchor="middle" x="214" y="-7.5" font-family="Helvetica,sans-Serif" font-size="10.00">shiftAll</text>
</a>
</g>
</g>
<!-- Node209&#45;&gt;Node210 -->
<g id="edge7" class="edge"><title>Node209&#45;&gt;Node210</title>
<path fill="none" stroke="midnightblue" d="M150.194,-10C159.776,-10 170.415,-10 180.173,-10"/>
<polygon fill="midnightblue" stroke="midnightblue" points="180.323,-13.5001 190.323,-10 180.323,-6.5001 180.323,-13.5001"/>
</g>
</g>
</svg>
