<?xml version="1.0" encoding="UTF-8" standalone="no"?>
<!DOCTYPE svg PUBLIC "-//W3C//DTD SVG 1.1//EN"
 "http://www.w3.org/Graphics/SVG/1.1/DTD/svg11.dtd">
<!-- Generated by graphviz version 2.38.0 (20140413.2041)
 -->
<!-- Title: readPin Pages: 1 -->
<svg width="243pt" height="78pt"
 viewBox="0.00 0.00 243.00 77.86" xmlns="http://www.w3.org/2000/svg" xmlns:xlink="http://www.w3.org/1999/xlink">
<g id="graph0" class="graph" transform="scale(1 1) rotate(0) translate(4 73.8589)">
<title>readPin</title>
<polygon fill="white" stroke="none" points="-4,4 -4,-73.8589 239,-73.8589 239,4 -4,4"/>
<!-- Node134 -->
<g id="node1" class="node"><title>Node134</title>
<polygon fill="#bfbfbf" stroke="black" points="0,-38.5 0,-57.5 50,-57.5 50,-38.5 0,-38.5"/>
<text text-anchor="middle" x="25" y="-45.5" font-family="Helvetica,sans-Serif" font-size="10.00">readPin</text>
</g>
<!-- Node135 -->
<g id="node2" class="node"><title>Node135</title>
<g id="a_node2"><a xlink:href="eBoard_8h.html#a757015d50a6c57414603841f728b670b" target="_top" xlink:title="[DEBUG_MODE] used to check if a pin index is in bounds ">
<polygon fill="white" stroke="black" points="179,-38.5 179,-57.5 235,-57.5 235,-38.5 179,-38.5"/>
<text text-anchor="middle" x="207" y="-45.5" font-family="Helvetica,sans-Serif" font-size="10.00">checkIdx</text>
</a>
</g>
</g>
<!-- Node134&#45;&gt;Node135 -->
<g id="edge1" class="edge"><title>Node134&#45;&gt;Node135</title>
<path fill="none" stroke="midnightblue" d="M50.1158,-57.4977C60.9098,-61.2605 73.9059,-65.1308 86,-67 111.036,-70.8694 117.938,-70.697 143,-67 152.115,-65.6555 161.739,-63.2724 170.647,-60.6386"/>
<polygon fill="midnightblue" stroke="midnightblue" points="171.841,-63.9324 180.335,-57.6004 169.746,-57.2532 171.841,-63.9324"/>
</g>
<!-- Node136 -->
<g id="node3" class="node"><title>Node136</title>
<g id="a_node3"><a xlink:href="eBoard_8h.html#a06400a6dce24e4eda610644893c1bbd7" target="_top" xlink:title="[COPY&amp;PASTE] [CHECK_PINS] Check if a pin is set to a specific mode ">
<polygon fill="white" stroke="black" points="86,-38.5 86,-57.5 143,-57.5 143,-38.5 86,-38.5"/>
<text text-anchor="middle" x="114.5" y="-45.5" font-family="Helvetica,sans-Serif" font-size="10.00">checkPin</text>
</a>
</g>
</g>
<!-- Node134&#45;&gt;Node136 -->
<g id="edge2" class="edge"><title>Node134&#45;&gt;Node136</title>
<path fill="none" stroke="midnightblue" d="M50.3736,-48C58.2108,-48 67.0875,-48 75.6563,-48"/>
<polygon fill="midnightblue" stroke="midnightblue" points="75.8652,-51.5001 85.8651,-48 75.8651,-44.5001 75.8652,-51.5001"/>
</g>
<!-- Node137 -->
<g id="node4" class="node"><title>Node137</title>
<g id="a_node4"><a xlink:href="eBoard_8h.html#a78b0e873cb50c282c6243d4913406be4" target="_top" xlink:title="[COPY&amp;PASTE] set a pin to a certain mode =&gt; checkPin() will return true then ">
<polygon fill="white" stroke="black" points="92.5,-0.5 92.5,-19.5 136.5,-19.5 136.5,-0.5 92.5,-0.5"/>
<text text-anchor="middle" x="114.5" y="-7.5" font-family="Helvetica,sans-Serif" font-size="10.00">setPin</text>
</a>
</g>
</g>
<!-- Node134&#45;&gt;Node137 -->
<g id="edge4" class="edge"><title>Node134&#45;&gt;Node137</title>
<path fill="none" stroke="midnightblue" d="M48.0799,-38.411C58.68,-33.8075 71.5507,-28.218 83.0623,-23.2187"/>
<polygon fill="midnightblue" stroke="midnightblue" points="84.5545,-26.3865 92.3326,-19.1927 81.766,-19.9658 84.5545,-26.3865"/>
</g>
<!-- Node136&#45;&gt;Node135 -->
<g id="edge3" class="edge"><title>Node136&#45;&gt;Node135</title>
<path fill="none" stroke="midnightblue" d="M143.145,-48C151.201,-48 160.139,-48 168.688,-48"/>
<polygon fill="midnightblue" stroke="midnightblue" points="168.836,-51.5001 178.836,-48 168.835,-44.5001 168.836,-51.5001"/>
</g>
<!-- Node137&#45;&gt;Node135 -->
<g id="edge5" class="edge"><title>Node137&#45;&gt;Node135</title>
<path fill="none" stroke="midnightblue" d="M136.947,-19.0055C147.918,-23.612 161.499,-29.3144 173.706,-34.4399"/>
<polygon fill="midnightblue" stroke="midnightblue" points="172.549,-37.7504 183.125,-38.3949 175.259,-31.2963 172.549,-37.7504"/>
</g>
</g>
</svg>
