<?xml version="1.0" encoding="UTF-8" standalone="no"?>
<!DOCTYPE svg PUBLIC "-//W3C//DTD SVG 1.1//EN"
 "http://www.w3.org/Graphics/SVG/1.1/DTD/svg11.dtd">
<!-- Generated by graphviz version 2.38.0 (20140413.2041)
 -->
<!-- Title: rept_task Pages: 1 -->
<svg width="247pt" height="28pt"
 viewBox="0.00 0.00 247.00 28.00" xmlns="http://www.w3.org/2000/svg" xmlns:xlink="http://www.w3.org/1999/xlink">
<g id="graph0" class="graph" transform="scale(1 1) rotate(0) translate(4 24)">
<title>rept_task</title>
<polygon fill="white" stroke="none" points="-4,4 -4,-24 243,-24 243,4 -4,4"/>
<!-- Node149 -->
<g id="node1" class="node"><title>Node149</title>
<polygon fill="#bfbfbf" stroke="black" points="0,-0.5 0,-19.5 57,-19.5 57,-0.5 0,-0.5"/>
<text text-anchor="middle" x="28.5" y="-7.5" font-family="Helvetica,sans-Serif" font-size="10.00">rept_task</text>
</g>
<!-- Node150 -->
<g id="node2" class="node"><title>Node150</title>
<g id="a_node2"><a xlink:href="eBoard_8h.html#aa1a0a3a5e9131c8e40900d020e9dcc74" target="_top" xlink:title="trig_rept_task">
<polygon fill="white" stroke="black" points="93,-0.5 93,-19.5 169,-19.5 169,-0.5 93,-0.5"/>
<text text-anchor="middle" x="131" y="-7.5" font-family="Helvetica,sans-Serif" font-size="10.00">trig_rept_task</text>
</a>
</g>
</g>
<!-- Node149&#45;&gt;Node150 -->
<g id="edge1" class="edge"><title>Node149&#45;&gt;Node150</title>
<path fill="none" stroke="midnightblue" d="M67.4679,-10C75.8148,-10 84.6433,-10 92.9533,-10"/>
<polygon fill="midnightblue" stroke="midnightblue" points="67.2281,-6.5001 57.2281,-10 67.2281,-13.5001 67.2281,-6.5001"/>
</g>
<!-- Node151 -->
<g id="node3" class="node"><title>Node151</title>
<g id="a_node3"><a xlink:href="eBoard_8h.html#a7cfcbe42bd266750aeb6e5d71e5ea479" target="_top" xlink:title="ISR">
<polygon fill="white" stroke="black" points="205,-0.5 205,-19.5 239,-19.5 239,-0.5 205,-0.5"/>
<text text-anchor="middle" x="222" y="-7.5" font-family="Helvetica,sans-Serif" font-size="10.00">ISR</text>
</a>
</g>
</g>
<!-- Node150&#45;&gt;Node151 -->
<g id="edge2" class="edge"><title>Node150&#45;&gt;Node151</title>
<path fill="none" stroke="midnightblue" d="M179.48,-10C188.569,-10 197.491,-10 204.721,-10"/>
<polygon fill="midnightblue" stroke="midnightblue" points="179.228,-6.5001 169.228,-10 179.228,-13.5001 179.228,-6.5001"/>
</g>
</g>
</svg>
