<?xml version="1.0" encoding="UTF-8" standalone="no"?>
<!DOCTYPE svg PUBLIC "-//W3C//DTD SVG 1.1//EN"
 "http://www.w3.org/Graphics/SVG/1.1/DTD/svg11.dtd">
<!-- Generated by graphviz version 2.38.0 (20140413.2041)
 -->
<!-- Title: setPin Pages: 1 -->
<svg width="499pt" height="313pt"
 viewBox="0.00 0.00 499.00 313.00" xmlns="http://www.w3.org/2000/svg" xmlns:xlink="http://www.w3.org/1999/xlink">
<g id="graph0" class="graph" transform="scale(1 1) rotate(0) translate(4 309)">
<title>setPin</title>
<polygon fill="white" stroke="none" points="-4,4 -4,-309 495,-309 495,4 -4,4"/>
<!-- Node174 -->
<g id="node1" class="node"><title>Node174</title>
<polygon fill="#bfbfbf" stroke="black" points="0,-209.5 0,-228.5 44,-228.5 44,-209.5 0,-209.5"/>
<text text-anchor="middle" x="22" y="-216.5" font-family="Helvetica,sans-Serif" font-size="10.00">setPin</text>
</g>
<!-- Node175 -->
<g id="node2" class="node"><title>Node175</title>
<g id="a_node2"><a xlink:href="structSoccerBoard.html#a5039fee586408ce515f300d8db073818" target="_top" xlink:title="SoccerBoard::motor">
<polygon fill="white" stroke="black" points="80,-285.5 80,-304.5 184,-304.5 184,-285.5 80,-285.5"/>
<text text-anchor="middle" x="132" y="-292.5" font-family="Helvetica,sans-Serif" font-size="10.00">SoccerBoard::motor</text>
</a>
</g>
</g>
<!-- Node174&#45;&gt;Node175 -->
<g id="edge1" class="edge"><title>Node174&#45;&gt;Node175</title>
<path fill="none" stroke="midnightblue" d="M37.0372,-236.618C47.7094,-249.04 63.3536,-265.306 80,-276 85.8033,-279.728 92.4439,-282.875 98.9724,-285.469"/>
<polygon fill="midnightblue" stroke="midnightblue" points="39.5771,-234.198 30.4919,-228.747 34.195,-238.674 39.5771,-234.198"/>
</g>
<!-- Node176 -->
<g id="node3" class="node"><title>Node176</title>
<g id="a_node3"><a xlink:href="eBoard__comment_8h.html#aca4f96af7c6736bf2b61c88d731af741" target="_top" xlink:title="read a digital state from an INPUTpin ">
<polygon fill="white" stroke="black" points="107,-247.5 107,-266.5 157,-266.5 157,-247.5 107,-247.5"/>
<text text-anchor="middle" x="132" y="-254.5" font-family="Helvetica,sans-Serif" font-size="10.00">readPin</text>
</a>
</g>
</g>
<!-- Node174&#45;&gt;Node176 -->
<g id="edge2" class="edge"><title>Node174&#45;&gt;Node176</title>
<path fill="none" stroke="midnightblue" d="M53.5368,-229.744C70.4607,-235.699 91.2015,-242.997 106.961,-248.542"/>
<polygon fill="midnightblue" stroke="midnightblue" points="54.6747,-226.435 44.0799,-226.417 52.3513,-233.038 54.6747,-226.435"/>
</g>
<!-- Node179 -->
<g id="node6" class="node"><title>Node179</title>
<g id="a_node6"><a xlink:href="eBoard__comment_8h.html#a7dfd9b79bc5a37d7df40207afbc5431f" target="_top" xlink:title="this is a guard ">
<polygon fill="white" stroke="black" points="111.5,-209.5 111.5,-228.5 152.5,-228.5 152.5,-209.5 111.5,-209.5"/>
<text text-anchor="middle" x="132" y="-216.5" font-family="Helvetica,sans-Serif" font-size="10.00">setup</text>
</a>
</g>
</g>
<!-- Node174&#45;&gt;Node179 -->
<g id="edge5" class="edge"><title>Node174&#45;&gt;Node179</title>
<path fill="none" stroke="midnightblue" d="M54.095,-219C72.5758,-219 95.45,-219 111.427,-219"/>
<polygon fill="midnightblue" stroke="midnightblue" points="54.0799,-215.5 44.0799,-219 54.0798,-222.5 54.0799,-215.5"/>
</g>
<!-- Node180 -->
<g id="node7" class="node"><title>Node180</title>
<g id="a_node7"><a xlink:href="structI2CInOut.html#ac475882f9f5cf8634f74084b416e9b39" target="_top" xlink:title="I2CInOut::write">
<polygon fill="white" stroke="black" points="90.5,-171.5 90.5,-190.5 173.5,-190.5 173.5,-171.5 90.5,-171.5"/>
<text text-anchor="middle" x="132" y="-178.5" font-family="Helvetica,sans-Serif" font-size="10.00">I2CInOut::write</text>
</a>
</g>
</g>
<!-- Node174&#45;&gt;Node180 -->
<g id="edge6" class="edge"><title>Node174&#45;&gt;Node180</title>
<path fill="none" stroke="midnightblue" d="M53.8924,-208.13C69.6453,-202.588 88.6316,-195.907 103.822,-190.563"/>
<polygon fill="midnightblue" stroke="midnightblue" points="52.3513,-204.962 44.0799,-211.583 54.6747,-211.565 52.3513,-204.962"/>
</g>
<!-- Node181 -->
<g id="node8" class="node"><title>Node181</title>
<g id="a_node8"><a xlink:href="eBoard__comment_8h.html#ad6d4c1b1e3b495ed81fb28fac04d2bd6" target="_top" xlink:title="write a boolean state to an output pin ">
<polygon fill="white" stroke="black" points="106,-133.5 106,-152.5 158,-152.5 158,-133.5 106,-133.5"/>
<text text-anchor="middle" x="132" y="-140.5" font-family="Helvetica,sans-Serif" font-size="10.00">writePin</text>
</a>
</g>
</g>
<!-- Node174&#45;&gt;Node181 -->
<g id="edge7" class="edge"><title>Node174&#45;&gt;Node181</title>
<path fill="none" stroke="midnightblue" d="M37.0372,-201.382C47.7094,-188.96 63.3536,-172.694 80,-162 87.8702,-156.944 97.2804,-152.957 105.863,-149.969"/>
<polygon fill="midnightblue" stroke="midnightblue" points="34.195,-199.326 30.4919,-209.253 39.5771,-203.802 34.195,-199.326"/>
</g>
<!-- Node177 -->
<g id="node4" class="node"><title>Node177</title>
<g id="a_node4"><a xlink:href="structSoccerBoard.html#ac415567d530e78c9f46b00db4e64d9d5" target="_top" xlink:title="SoccerBoard::digital">
<polygon fill="white" stroke="black" points="226,-285.5 226,-304.5 330,-304.5 330,-285.5 226,-285.5"/>
<text text-anchor="middle" x="278" y="-292.5" font-family="Helvetica,sans-Serif" font-size="10.00">SoccerBoard::digital</text>
</a>
</g>
</g>
<!-- Node176&#45;&gt;Node177 -->
<g id="edge3" class="edge"><title>Node176&#45;&gt;Node177</title>
<path fill="none" stroke="midnightblue" d="M166.804,-265.921C189.075,-271.798 218.208,-279.485 240.925,-285.48"/>
<polygon fill="midnightblue" stroke="midnightblue" points="167.664,-262.528 157.102,-263.36 165.878,-269.296 167.664,-262.528"/>
</g>
<!-- Node178 -->
<g id="node5" class="node"><title>Node178</title>
<g id="a_node5"><a xlink:href="structSoccerBoard.html#a8a72ca75182aa71d297d3cee80b1054a" target="_top" xlink:title="SoccerBoard::analog">
<polygon fill="white" stroke="black" points="224.5,-247.5 224.5,-266.5 331.5,-266.5 331.5,-247.5 224.5,-247.5"/>
<text text-anchor="middle" x="278" y="-254.5" font-family="Helvetica,sans-Serif" font-size="10.00">SoccerBoard::analog</text>
</a>
</g>
</g>
<!-- Node176&#45;&gt;Node178 -->
<g id="edge4" class="edge"><title>Node176&#45;&gt;Node178</title>
<path fill="none" stroke="midnightblue" d="M167.175,-257C184.262,-257 205.318,-257 224.407,-257"/>
<polygon fill="midnightblue" stroke="midnightblue" points="167.102,-253.5 157.102,-257 167.102,-260.5 167.102,-253.5"/>
</g>
<!-- Node182 -->
<g id="node9" class="node"><title>Node182</title>
<g id="a_node9"><a xlink:href="structSoccerBoard.html#a01ff8231432776da9e5e5e1c05257606" target="_top" xlink:title="SoccerBoard::led">
<polygon fill="white" stroke="black" points="232,-209.5 232,-228.5 324,-228.5 324,-209.5 232,-209.5"/>
<text text-anchor="middle" x="278" y="-216.5" font-family="Helvetica,sans-Serif" font-size="10.00">SoccerBoard::led</text>
</a>
</g>
</g>
<!-- Node181&#45;&gt;Node182 -->
<g id="edge8" class="edge"><title>Node181&#45;&gt;Node182</title>
<path fill="none" stroke="midnightblue" d="M167.676,-153.466C173.351,-155.859 179.002,-158.693 184,-162 203.402,-174.837 200.377,-187.503 220,-200 225.983,-203.81 232.809,-206.937 239.608,-209.474"/>
<polygon fill="midnightblue" stroke="midnightblue" points="168.806,-150.151 158.215,-149.849 166.306,-156.689 168.806,-150.151"/>
</g>
<!-- Node183 -->
<g id="node10" class="node"><title>Node183</title>
<g id="a_node10"><a xlink:href="structSoccerBoard.html#abaefeaaf5c0ea659dce35903284ee577" target="_top" xlink:title="SoccerBoard::ledOn">
<polygon fill="white" stroke="black" points="226,-171.5 226,-190.5 330,-190.5 330,-171.5 226,-171.5"/>
<text text-anchor="middle" x="278" y="-178.5" font-family="Helvetica,sans-Serif" font-size="10.00">SoccerBoard::ledOn</text>
</a>
</g>
</g>
<!-- Node181&#45;&gt;Node183 -->
<g id="edge9" class="edge"><title>Node181&#45;&gt;Node183</title>
<path fill="none" stroke="midnightblue" d="M168.048,-152.249C190.133,-158.077 218.583,-165.584 240.872,-171.466"/>
<polygon fill="midnightblue" stroke="midnightblue" points="168.645,-148.787 158.083,-149.619 166.859,-155.555 168.645,-148.787"/>
</g>
<!-- Node184 -->
<g id="node11" class="node"><title>Node184</title>
<g id="a_node11"><a xlink:href="structSoccerBoard.html#af358ec89f0eab4a87b00959dc54f3e16" target="_top" xlink:title="SoccerBoard::ledOff">
<polygon fill="white" stroke="black" points="225.5,-133.5 225.5,-152.5 330.5,-152.5 330.5,-133.5 225.5,-133.5"/>
<text text-anchor="middle" x="278" y="-140.5" font-family="Helvetica,sans-Serif" font-size="10.00">SoccerBoard::ledOff</text>
</a>
</g>
</g>
<!-- Node181&#45;&gt;Node184 -->
<g id="edge10" class="edge"><title>Node181&#45;&gt;Node184</title>
<path fill="none" stroke="midnightblue" d="M168.238,-143C185.424,-143 206.429,-143 225.381,-143"/>
<polygon fill="midnightblue" stroke="midnightblue" points="168.083,-139.5 158.083,-143 168.083,-146.5 168.083,-139.5"/>
</g>
<!-- Node185 -->
<g id="node12" class="node"><title>Node185</title>
<g id="a_node12"><a xlink:href="structSoccerBoard.html#a80d7f7690654433e3253f6924eb1164d" target="_top" xlink:title="SoccerBoard::ledsOff">
<polygon fill="white" stroke="black" points="223,-95.5 223,-114.5 333,-114.5 333,-95.5 223,-95.5"/>
<text text-anchor="middle" x="278" y="-102.5" font-family="Helvetica,sans-Serif" font-size="10.00">SoccerBoard::ledsOff</text>
</a>
</g>
</g>
<!-- Node181&#45;&gt;Node185 -->
<g id="edge11" class="edge"><title>Node181&#45;&gt;Node185</title>
<path fill="none" stroke="midnightblue" d="M168.048,-133.751C190.133,-127.923 218.583,-120.416 240.872,-114.534"/>
<polygon fill="midnightblue" stroke="midnightblue" points="166.859,-130.445 158.083,-136.381 168.645,-137.213 166.859,-130.445"/>
</g>
<!-- Node186 -->
<g id="node13" class="node"><title>Node186</title>
<g id="a_node13"><a xlink:href="structSoccerBoard.html#a978649a6b3089e6215da01b0f87ee3f1" target="_top" xlink:title="SoccerBoard::ledMeter">
<polygon fill="white" stroke="black" points="220,-57.5 220,-76.5 336,-76.5 336,-57.5 220,-57.5"/>
<text text-anchor="middle" x="278" y="-64.5" font-family="Helvetica,sans-Serif" font-size="10.00">SoccerBoard::ledMeter</text>
</a>
</g>
</g>
<!-- Node181&#45;&gt;Node186 -->
<g id="edge12" class="edge"><title>Node181&#45;&gt;Node186</title>
<path fill="none" stroke="midnightblue" d="M153.485,-127.387C170.568,-114.917 195.918,-97.6589 220,-86 227.417,-82.4091 235.685,-79.2251 243.571,-76.5388"/>
<polygon fill="midnightblue" stroke="midnightblue" points="151.303,-124.648 145.356,-133.416 155.473,-130.27 151.303,-124.648"/>
</g>
<!-- Node187 -->
<g id="node14" class="node"><title>Node187</title>
<g id="a_node14"><a xlink:href="structSoccerBoard.html#a04c6b8fd4b6d1cd24be9c1b3291dbf06" target="_top" xlink:title="SoccerBoard::power">
<polygon fill="white" stroke="black" points="225.5,-19.5 225.5,-38.5 330.5,-38.5 330.5,-19.5 225.5,-19.5"/>
<text text-anchor="middle" x="278" y="-26.5" font-family="Helvetica,sans-Serif" font-size="10.00">SoccerBoard::power</text>
</a>
</g>
</g>
<!-- Node181&#45;&gt;Node187 -->
<g id="edge13" class="edge"><title>Node181&#45;&gt;Node187</title>
<path fill="none" stroke="midnightblue" d="M145.097,-124.995C160.251,-103.74 188.131,-68.6766 220,-48 225.863,-44.1961 232.561,-41.0818 239.256,-38.5568"/>
<polygon fill="midnightblue" stroke="midnightblue" points="142.066,-123.223 139.233,-133.432 147.814,-127.217 142.066,-123.223"/>
</g>
<!-- Node188 -->
<g id="node15" class="node"><title>Node188</title>
<g id="a_node15"><a xlink:href="structSoccerBoard.html#aa46822d5b727bf3e427c5ceba995f42f" target="_top" xlink:title="SoccerBoard::powerOn">
<polygon fill="white" stroke="black" points="372.5,-38.5 372.5,-57.5 490.5,-57.5 490.5,-38.5 372.5,-38.5"/>
<text text-anchor="middle" x="431.5" y="-45.5" font-family="Helvetica,sans-Serif" font-size="10.00">SoccerBoard::powerOn</text>
</a>
</g>
</g>
<!-- Node187&#45;&gt;Node188 -->
<g id="edge14" class="edge"><title>Node187&#45;&gt;Node188</title>
<path fill="none" stroke="midnightblue" d="M340.922,-36.7658C351.279,-38.0647 361.994,-39.4084 372.255,-40.6953"/>
<polygon fill="midnightblue" stroke="midnightblue" points="341.072,-33.2572 330.714,-35.4856 340.201,-40.2028 341.072,-33.2572"/>
</g>
<!-- Node189 -->
<g id="node16" class="node"><title>Node189</title>
<g id="a_node16"><a xlink:href="structSoccerBoard.html#a5442e3a7ca58ed90d9e4af0cac83ebdd" target="_top" xlink:title="SoccerBoard::powerOff">
<polygon fill="white" stroke="black" points="372,-0.5 372,-19.5 491,-19.5 491,-0.5 372,-0.5"/>
<text text-anchor="middle" x="431.5" y="-7.5" font-family="Helvetica,sans-Serif" font-size="10.00">SoccerBoard::powerOff</text>
</a>
</g>
</g>
<!-- Node187&#45;&gt;Node189 -->
<g id="edge15" class="edge"><title>Node187&#45;&gt;Node189</title>
<path fill="none" stroke="midnightblue" d="M340.856,-21.2425C351.145,-19.9521 361.789,-18.6173 371.991,-17.3377"/>
<polygon fill="midnightblue" stroke="midnightblue" points="340.201,-17.7972 330.714,-22.5144 341.072,-24.7428 340.201,-17.7972"/>
</g>
</g>
</svg>
