<?xml version="1.0" encoding="UTF-8" standalone="no"?>
<!DOCTYPE svg PUBLIC "-//W3C//DTD SVG 1.1//EN"
 "http://www.w3.org/Graphics/SVG/1.1/DTD/svg11.dtd">
<!-- Generated by graphviz version 2.38.0 (20140413.2041)
 -->
<!-- Title: /eagleoutice/projects/github/eBoard/eBoard.h Pages: 1 -->
<svg width="467pt" height="128pt"
 viewBox="0.00 0.00 467.00 128.00" xmlns="http://www.w3.org/2000/svg" xmlns:xlink="http://www.w3.org/1999/xlink">
<g id="graph0" class="graph" transform="scale(1 1) rotate(0) translate(4 124)">
<title>/eagleoutice/projects/github/eBoard/eBoard.h</title>
<polygon fill="white" stroke="none" points="-4,4 -4,-124 463,-124 463,4 -4,4"/>
<!-- Node12 -->
<g id="node1" class="node"><title>Node12</title>
<polygon fill="#bfbfbf" stroke="black" points="147.5,-89.5 147.5,-119.5 269.5,-119.5 269.5,-89.5 147.5,-89.5"/>
<text text-anchor="start" x="155.5" y="-107.5" font-family="Helvetica,sans-Serif" font-size="10.00">/eagleoutice/projects</text>
<text text-anchor="middle" x="208.5" y="-96.5" font-family="Helvetica,sans-Serif" font-size="10.00">/github/eBoard/eBoard.h</text>
</g>
<!-- Node13 -->
<g id="node2" class="node"><title>Node13</title>
<g id="a_node2"><a xlink:href="dancing__dragon_8cpp.html" target="_top" xlink:title="a dancing dragon :D ">
<polygon fill="white" stroke="black" points="0,-0.5 0,-52.5 125,-52.5 125,-0.5 0,-0.5"/>
<text text-anchor="start" x="8" y="-40.5" font-family="Helvetica,sans-Serif" font-size="10.00">/eagleoutice/projects</text>
<text text-anchor="start" x="8" y="-29.5" font-family="Helvetica,sans-Serif" font-size="10.00">/github/eBoard/examples</text>
<text text-anchor="start" x="8" y="-18.5" font-family="Helvetica,sans-Serif" font-size="10.00">/dancing_dragon/dancing</text>
<text text-anchor="middle" x="62.5" y="-7.5" font-family="Helvetica,sans-Serif" font-size="10.00">_dragon.cpp</text>
</a>
</g>
</g>
<!-- Node12&#45;&gt;Node13 -->
<g id="edge1" class="edge"><title>Node12&#45;&gt;Node13</title>
<path fill="none" stroke="midnightblue" d="M172.36,-84.6872C153.762,-75.0061 130.837,-63.0726 110.748,-52.6156"/>
<polygon fill="midnightblue" stroke="midnightblue" points="170.894,-87.8703 181.381,-89.3831 174.127,-81.6611 170.894,-87.8703"/>
</g>
<!-- Node14 -->
<g id="node3" class="node"><title>Node14</title>
<g id="a_node3"><a xlink:href="lcd__debug_8cpp.html" target="_top" xlink:title="a lcd debug example ">
<polygon fill="white" stroke="black" points="143.5,-6 143.5,-47 273.5,-47 273.5,-6 143.5,-6"/>
<text text-anchor="start" x="151.5" y="-35" font-family="Helvetica,sans-Serif" font-size="10.00">/eagleoutice/projects</text>
<text text-anchor="start" x="151.5" y="-24" font-family="Helvetica,sans-Serif" font-size="10.00">/github/eBoard/examples</text>
<text text-anchor="middle" x="208.5" y="-13" font-family="Helvetica,sans-Serif" font-size="10.00">/lcd_debug/lcd_debug.cpp</text>
</a>
</g>
</g>
<!-- Node12&#45;&gt;Node14 -->
<g id="edge2" class="edge"><title>Node12&#45;&gt;Node14</title>
<path fill="none" stroke="midnightblue" d="M208.5,-79.156C208.5,-68.8257 208.5,-56.9425 208.5,-47.18"/>
<polygon fill="midnightblue" stroke="midnightblue" points="205,-79.2049 208.5,-89.205 212,-79.205 205,-79.2049"/>
</g>
<!-- Node15 -->
<g id="node4" class="node"><title>Node15</title>
<g id="a_node4"><a xlink:href="neo__animation_8cpp.html" target="_top" xlink:title="a simple neo&#45;animation example ">
<polygon fill="white" stroke="black" points="292,-6 292,-47 459,-47 459,-6 292,-6"/>
<text text-anchor="start" x="300" y="-35" font-family="Helvetica,sans-Serif" font-size="10.00">/eagleoutice/projects</text>
<text text-anchor="start" x="300" y="-24" font-family="Helvetica,sans-Serif" font-size="10.00">/github/eBoard/examples</text>
<text text-anchor="middle" x="375.5" y="-13" font-family="Helvetica,sans-Serif" font-size="10.00">/neo_animation/neo_animation.cpp</text>
</a>
</g>
</g>
<!-- Node12&#45;&gt;Node15 -->
<g id="edge3" class="edge"><title>Node12&#45;&gt;Node15</title>
<path fill="none" stroke="midnightblue" d="M248.814,-85.1534C274.07,-73.6598 306.599,-58.8563 332.37,-47.1279"/>
<polygon fill="midnightblue" stroke="midnightblue" points="247.172,-82.0553 239.52,-89.3831 250.072,-88.4265 247.172,-82.0553"/>
</g>
</g>
</svg>
