<?xml version="1.0" encoding="UTF-8" standalone="no"?>
<!DOCTYPE svg PUBLIC "-//W3C//DTD SVG 1.1//EN"
 "http://www.w3.org/Graphics/SVG/1.1/DTD/svg11.dtd">
<!-- Generated by graphviz version 2.38.0 (20140413.2041)
 -->
<!-- Title: pingI2C Pages: 1 -->
<svg width="202pt" height="88pt"
 viewBox="0.00 0.00 202.00 88.00" xmlns="http://www.w3.org/2000/svg" xmlns:xlink="http://www.w3.org/1999/xlink">
<g id="graph0" class="graph" transform="scale(1 1) rotate(0) translate(4 84)">
<title>pingI2C</title>
<polygon fill="white" stroke="none" points="-4,4 -4,-84 198,-84 198,4 -4,4"/>
<!-- Node97 -->
<g id="node1" class="node"><title>Node97</title>
<polygon fill="#bfbfbf" stroke="black" points="0,-30 0,-49 50,-49 50,-30 0,-30"/>
<text text-anchor="middle" x="25" y="-37" font-family="Helvetica,sans-Serif" font-size="10.00">pingI2C</text>
</g>
<!-- Node98 -->
<g id="node2" class="node"><title>Node98</title>
<g id="a_node2"><a xlink:href="classeagle__impl_1_1TwoWire.html#a1876ffdb16fb185c14a75e1251cef5e4" target="_top" xlink:title="eagle_impl::TwoWire\l::beginTransmission">
<polygon fill="white" stroke="black" points="86,-49.5 86,-79.5 194,-79.5 194,-49.5 86,-49.5"/>
<text text-anchor="start" x="94" y="-67.5" font-family="Helvetica,sans-Serif" font-size="10.00">eagle_impl::TwoWire</text>
<text text-anchor="middle" x="140" y="-56.5" font-family="Helvetica,sans-Serif" font-size="10.00">::beginTransmission</text>
</a>
</g>
</g>
<!-- Node97&#45;&gt;Node98 -->
<g id="edge1" class="edge"><title>Node97&#45;&gt;Node98</title>
<path fill="none" stroke="midnightblue" d="M50.2413,-44.8631C57.8612,-46.5489 66.6583,-48.4952 75.6909,-50.4936"/>
<polygon fill="midnightblue" stroke="midnightblue" points="75.0203,-53.9298 85.5403,-52.6726 76.5324,-47.095 75.0203,-53.9298"/>
</g>
<!-- Node99 -->
<g id="node3" class="node"><title>Node99</title>
<g id="a_node3"><a xlink:href="classeagle__impl_1_1TwoWire.html#af80f9a7b85a3a81a035ca94c95bcdc1d" target="_top" xlink:title="eagle_impl::TwoWire\l::endTransmission">
<polygon fill="white" stroke="black" points="86,-0.5 86,-30.5 194,-30.5 194,-0.5 86,-0.5"/>
<text text-anchor="start" x="94" y="-18.5" font-family="Helvetica,sans-Serif" font-size="10.00">eagle_impl::TwoWire</text>
<text text-anchor="middle" x="140" y="-7.5" font-family="Helvetica,sans-Serif" font-size="10.00">::endTransmission</text>
</a>
</g>
</g>
<!-- Node97&#45;&gt;Node99 -->
<g id="edge2" class="edge"><title>Node97&#45;&gt;Node99</title>
<path fill="none" stroke="midnightblue" d="M50.2413,-34.3514C57.8612,-32.733 66.6583,-30.8646 75.6909,-28.9462"/>
<polygon fill="midnightblue" stroke="midnightblue" points="76.4856,-32.3555 85.5403,-26.8543 75.0313,-25.5083 76.4856,-32.3555"/>
</g>
</g>
</svg>
