<?xml version="1.0" encoding="UTF-8" standalone="no"?>
<!DOCTYPE svg PUBLIC "-//W3C//DTD SVG 1.1//EN"
 "http://www.w3.org/Graphics/SVG/1.1/DTD/svg11.dtd">
<!-- Generated by graphviz version 2.38.0 (20140413.2041)
 -->
<!-- Title: readPin Pages: 1 -->
<svg width="201pt" height="66pt"
 viewBox="0.00 0.00 201.00 66.00" xmlns="http://www.w3.org/2000/svg" xmlns:xlink="http://www.w3.org/1999/xlink">
<g id="graph0" class="graph" transform="scale(1 1) rotate(0) translate(4 62)">
<title>readPin</title>
<polygon fill="white" stroke="none" points="-4,4 -4,-62 197,-62 197,4 -4,4"/>
<!-- Node109 -->
<g id="node1" class="node"><title>Node109</title>
<polygon fill="#bfbfbf" stroke="black" points="0,-19.5 0,-38.5 50,-38.5 50,-19.5 0,-19.5"/>
<text text-anchor="middle" x="25" y="-26.5" font-family="Helvetica,sans-Serif" font-size="10.00">readPin</text>
</g>
<!-- Node110 -->
<g id="node2" class="node"><title>Node110</title>
<g id="a_node2"><a xlink:href="structSoccerBoard.html#a8a72ca75182aa71d297d3cee80b1054a" target="_top" xlink:title="SoccerBoard::analog">
<polygon fill="white" stroke="black" points="86,-38.5 86,-57.5 193,-57.5 193,-38.5 86,-38.5"/>
<text text-anchor="middle" x="139.5" y="-45.5" font-family="Helvetica,sans-Serif" font-size="10.00">SoccerBoard::analog</text>
</a>
</g>
</g>
<!-- Node109&#45;&gt;Node110 -->
<g id="edge1" class="edge"><title>Node109&#45;&gt;Node110</title>
<path fill="none" stroke="midnightblue" d="M60.2454,-34.7837C68.3032,-36.1445 77.0761,-37.6262 85.7383,-39.0891"/>
<polygon fill="midnightblue" stroke="midnightblue" points="60.5773,-31.2902 50.1341,-33.076 59.4116,-38.1925 60.5773,-31.2902"/>
</g>
<!-- Node111 -->
<g id="node3" class="node"><title>Node111</title>
<g id="a_node3"><a xlink:href="structSoccerBoard.html#ac415567d530e78c9f46b00db4e64d9d5" target="_top" xlink:title="SoccerBoard::digital">
<polygon fill="white" stroke="black" points="87.5,-0.5 87.5,-19.5 191.5,-19.5 191.5,-0.5 87.5,-0.5"/>
<text text-anchor="middle" x="139.5" y="-7.5" font-family="Helvetica,sans-Serif" font-size="10.00">SoccerBoard::digital</text>
</a>
</g>
</g>
<!-- Node109&#45;&gt;Node111 -->
<g id="edge2" class="edge"><title>Node109&#45;&gt;Node111</title>
<path fill="none" stroke="midnightblue" d="M60.0745,-23.2452C68.6077,-21.804 77.9516,-20.226 87.1215,-18.6773"/>
<polygon fill="midnightblue" stroke="midnightblue" points="59.4116,-19.8075 50.1341,-24.924 60.5773,-26.7098 59.4116,-19.8075"/>
</g>
</g>
</svg>
