<?xml version="1.0" encoding="UTF-8" standalone="no"?>
<!DOCTYPE svg PUBLIC "-//W3C//DTD SVG 1.1//EN"
 "http://www.w3.org/Graphics/SVG/1.1/DTD/svg11.dtd">
<!-- Generated by graphviz version 2.38.0 (20140413.2041)
 -->
<!-- Title: shiftAll Pages: 1 -->
<!--zoomable 237 -->
<svg id="main" version="1.1" xmlns="http://www.w3.org/2000/svg" xmlns:xlink="http://www.w3.org/1999/xlink" xml:space="preserve" onload="init(evt)">
<style type="text/css"><![CDATA[
.edge:hover path { stroke: red; }
.edge:hover polygon { stroke: red; fill: red; }
]]></style>
<script type="text/javascript"><![CDATA[
var edges = document.getElementsByTagName('g');
if (edges && edges.length) {
  for (var i=0;i<edges.length;i++) {
    if (edges[i].id.substr(0,4)=='edge') {
      edges[i].setAttribute('class','edge');
    }
  }
}
]]></script>
        <defs>
                <circle id="rim" cx="0" cy="0" r="7"/>
                <circle id="rim2" cx="0" cy="0" r="3.5"/>
                <g id="zoomPlus">
                        <use xlink:href="#rim" fill="#404040">
                                <set attributeName="fill" to="#808080" begin="zoomplus.mouseover" end="zoomplus.mouseout"/>
                        </use>
                        <path d="M-4,0h8M0,-4v8" fill="none" stroke="white" stroke-width="1.5" pointer-events="none"/>
                </g>
                <g id="zoomMin">
                        <use xlink:href="#rim" fill="#404040">
                                <set attributeName="fill" to="#808080" begin="zoomminus.mouseover" end="zoomminus.mouseout"/>
                        </use>
                        <path d="M-4,0h8" fill="none" stroke="white" stroke-width="1.5" pointer-events="none"/>
                </g>
                <g id="dirArrow">
                        <path fill="none" stroke="white" stroke-width="1.5" d="M0,-3.0v7 M-2.5,-0.5L0,-3.0L2.5,-0.5"/>
                </g>
               <g id="resetDef">
                       <use xlink:href="#rim2" fill="#404040">
                               <set attributeName="fill" to="#808080" begin="reset.mouseover" end="reset.mouseout"/>
                       </use>
               </g>
        </defs>

<script type="text/javascript">
var viewWidth = 548;
var viewHeight = 237;
var sectionId = 'dynsection-21';
</script>
<script xlink:href="svgpan.js"/>
<svg id="graph" class="graph">
<g id="viewport">
<title>shiftAll</title>
<polygon fill="white" stroke="none" points="-4,4 -4,-233 544,-233 544,4 -4,4"/>
<!-- Node177 -->
<g id="node1" class="node"><title>Node177</title>
<polygon fill="#bfbfbf" stroke="black" points="0,-133.5 0,-152.5 47,-152.5 47,-133.5 0,-133.5"/>
<text text-anchor="middle" x="23.5" y="-140.5" font-family="Helvetica,sans-Serif" font-size="10.00">shiftAll</text>
</g>
<!-- Node178 -->
<g id="node2" class="node"><title>Node178</title>
<g id="a_node2"><a xlink:href="eBoard__comment_8h.html#a7dfd9b79bc5a37d7df40207afbc5431f" target="_top" xlink:title="this is a guard ">
<polygon fill="white" stroke="black" points="93.5,-152.5 93.5,-171.5 134.5,-171.5 134.5,-152.5 93.5,-152.5"/>
<text text-anchor="middle" x="114" y="-159.5" font-family="Helvetica,sans-Serif" font-size="10.00">setup</text>
</a>
</g>
</g>
<!-- Node177&#45;&gt;Node178 -->
<g id="edge1" class="edge"><title>Node177&#45;&gt;Node178</title>
<path fill="none" stroke="midnightblue" d="M57.1074,-150C69.2516,-152.608 82.6554,-155.485 93.292,-157.769"/>
<polygon fill="midnightblue" stroke="midnightblue" points="57.8029,-146.57 47.2909,-147.893 56.3335,-153.414 57.8029,-146.57"/>
</g>
<!-- Node179 -->
<g id="node3" class="node"><title>Node179</title>
<g id="a_node3"><a xlink:href="eBoard__comment_8h.html#ad6372ab439a73887b0800cc695599436" target="_top" xlink:title="[SHIFT] Changes a single output Pin ">
<polygon fill="white" stroke="black" points="83,-114.5 83,-133.5 145,-133.5 145,-114.5 83,-114.5"/>
<text text-anchor="middle" x="114" y="-121.5" font-family="Helvetica,sans-Serif" font-size="10.00">shiftSingle</text>
</a>
</g>
</g>
<!-- Node177&#45;&gt;Node179 -->
<g id="edge2" class="edge"><title>Node177&#45;&gt;Node179</title>
<path fill="none" stroke="midnightblue" d="M57.1861,-135.983C65.6174,-134.173 74.6511,-132.233 82.9415,-130.453"/>
<polygon fill="midnightblue" stroke="midnightblue" points="56.3335,-132.586 47.2909,-138.107 57.8029,-139.43 56.3335,-132.586"/>
</g>
<!-- Node180 -->
<g id="node4" class="node"><title>Node180</title>
<g id="a_node4"><a xlink:href="eBoard__comment_8h.html#ad6d4c1b1e3b495ed81fb28fac04d2bd6" target="_top" xlink:title="write a boolean state to an output pin ">
<polygon fill="white" stroke="black" points="181,-114.5 181,-133.5 233,-133.5 233,-114.5 181,-114.5"/>
<text text-anchor="middle" x="207" y="-121.5" font-family="Helvetica,sans-Serif" font-size="10.00">writePin</text>
</a>
</g>
</g>
<!-- Node179&#45;&gt;Node180 -->
<g id="edge3" class="edge"><title>Node179&#45;&gt;Node180</title>
<path fill="none" stroke="midnightblue" d="M155.115,-124C163.863,-124 172.879,-124 180.848,-124"/>
<polygon fill="midnightblue" stroke="midnightblue" points="155.049,-120.5 145.049,-124 155.049,-127.5 155.049,-120.5"/>
</g>
<!-- Node181 -->
<g id="node5" class="node"><title>Node181</title>
<g id="a_node5"><a xlink:href="structSoccerBoard.html#a01ff8231432776da9e5e5e1c05257606" target="_top" xlink:title="SoccerBoard::led">
<polygon fill="white" stroke="black" points="281,-209.5 281,-228.5 373,-228.5 373,-209.5 281,-209.5"/>
<text text-anchor="middle" x="327" y="-216.5" font-family="Helvetica,sans-Serif" font-size="10.00">SoccerBoard::led</text>
</a>
</g>
</g>
<!-- Node180&#45;&gt;Node181 -->
<g id="edge4" class="edge"><title>Node180&#45;&gt;Node181</title>
<path fill="none" stroke="midnightblue" d="M218.372,-142.242C229.016,-159.428 247.091,-184.749 269,-200 274.479,-203.814 280.781,-206.909 287.152,-209.405"/>
<polygon fill="midnightblue" stroke="midnightblue" points="221.375,-140.444 213.246,-133.648 215.363,-144.029 221.375,-140.444"/>
</g>
<!-- Node182 -->
<g id="node6" class="node"><title>Node182</title>
<g id="a_node6"><a xlink:href="structSoccerBoard.html#abaefeaaf5c0ea659dce35903284ee577" target="_top" xlink:title="SoccerBoard::ledOn">
<polygon fill="white" stroke="black" points="275,-171.5 275,-190.5 379,-190.5 379,-171.5 275,-171.5"/>
<text text-anchor="middle" x="327" y="-178.5" font-family="Helvetica,sans-Serif" font-size="10.00">SoccerBoard::ledOn</text>
</a>
</g>
</g>
<!-- Node180&#45;&gt;Node182 -->
<g id="edge5" class="edge"><title>Node180&#45;&gt;Node182</title>
<path fill="none" stroke="midnightblue" d="M229.901,-139.398C241.215,-146.892 255.457,-155.634 269,-162 276.552,-165.55 284.95,-168.737 292.929,-171.441"/>
<polygon fill="midnightblue" stroke="midnightblue" points="231.767,-136.434 221.525,-133.724 227.841,-142.23 231.767,-136.434"/>
</g>
<!-- Node183 -->
<g id="node7" class="node"><title>Node183</title>
<g id="a_node7"><a xlink:href="structSoccerBoard.html#af358ec89f0eab4a87b00959dc54f3e16" target="_top" xlink:title="SoccerBoard::ledOff">
<polygon fill="white" stroke="black" points="274.5,-133.5 274.5,-152.5 379.5,-152.5 379.5,-133.5 274.5,-133.5"/>
<text text-anchor="middle" x="327" y="-140.5" font-family="Helvetica,sans-Serif" font-size="10.00">SoccerBoard::ledOff</text>
</a>
</g>
</g>
<!-- Node180&#45;&gt;Node183 -->
<g id="edge6" class="edge"><title>Node180&#45;&gt;Node183</title>
<path fill="none" stroke="midnightblue" d="M243.162,-129.662C252.945,-131.237 263.778,-132.981 274.297,-134.675"/>
<polygon fill="midnightblue" stroke="midnightblue" points="243.454,-126.164 233.025,-128.029 242.341,-133.075 243.454,-126.164"/>
</g>
<!-- Node184 -->
<g id="node8" class="node"><title>Node184</title>
<g id="a_node8"><a xlink:href="structSoccerBoard.html#a80d7f7690654433e3253f6924eb1164d" target="_top" xlink:title="SoccerBoard::ledsOff">
<polygon fill="white" stroke="black" points="272,-95.5 272,-114.5 382,-114.5 382,-95.5 272,-95.5"/>
<text text-anchor="middle" x="327" y="-102.5" font-family="Helvetica,sans-Serif" font-size="10.00">SoccerBoard::ledsOff</text>
</a>
</g>
</g>
<!-- Node180&#45;&gt;Node184 -->
<g id="edge7" class="edge"><title>Node180&#45;&gt;Node184</title>
<path fill="none" stroke="midnightblue" d="M243.155,-118.339C252.191,-116.884 262.124,-115.285 271.878,-113.715"/>
<polygon fill="midnightblue" stroke="midnightblue" points="242.341,-114.925 233.025,-119.971 243.454,-121.836 242.341,-114.925"/>
</g>
<!-- Node185 -->
<g id="node9" class="node"><title>Node185</title>
<g id="a_node9"><a xlink:href="structSoccerBoard.html#a978649a6b3089e6215da01b0f87ee3f1" target="_top" xlink:title="SoccerBoard::ledMeter">
<polygon fill="white" stroke="black" points="269,-57.5 269,-76.5 385,-76.5 385,-57.5 269,-57.5"/>
<text text-anchor="middle" x="327" y="-64.5" font-family="Helvetica,sans-Serif" font-size="10.00">SoccerBoard::ledMeter</text>
</a>
</g>
</g>
<!-- Node180&#45;&gt;Node185 -->
<g id="edge8" class="edge"><title>Node180&#45;&gt;Node185</title>
<path fill="none" stroke="midnightblue" d="M229.901,-108.602C241.215,-101.108 255.457,-92.3664 269,-86 276.552,-82.4498 284.95,-79.263 292.929,-76.5592"/>
<polygon fill="midnightblue" stroke="midnightblue" points="227.841,-105.77 221.525,-114.276 231.767,-111.566 227.841,-105.77"/>
</g>
<!-- Node186 -->
<g id="node10" class="node"><title>Node186</title>
<g id="a_node10"><a xlink:href="structSoccerBoard.html#a04c6b8fd4b6d1cd24be9c1b3291dbf06" target="_top" xlink:title="SoccerBoard::power">
<polygon fill="white" stroke="black" points="274.5,-19.5 274.5,-38.5 379.5,-38.5 379.5,-19.5 274.5,-19.5"/>
<text text-anchor="middle" x="327" y="-26.5" font-family="Helvetica,sans-Serif" font-size="10.00">SoccerBoard::power</text>
</a>
</g>
</g>
<!-- Node180&#45;&gt;Node186 -->
<g id="edge9" class="edge"><title>Node180&#45;&gt;Node186</title>
<path fill="none" stroke="midnightblue" d="M218.372,-105.758C229.016,-88.5725 247.091,-63.251 269,-48 274.479,-44.186 280.781,-41.0915 287.152,-38.5951"/>
<polygon fill="midnightblue" stroke="midnightblue" points="215.363,-103.971 213.246,-114.352 221.375,-107.556 215.363,-103.971"/>
</g>
<!-- Node187 -->
<g id="node11" class="node"><title>Node187</title>
<g id="a_node11"><a xlink:href="structSoccerBoard.html#aa46822d5b727bf3e427c5ceba995f42f" target="_top" xlink:title="SoccerBoard::powerOn">
<polygon fill="white" stroke="black" points="421.5,-38.5 421.5,-57.5 539.5,-57.5 539.5,-38.5 421.5,-38.5"/>
<text text-anchor="middle" x="480.5" y="-45.5" font-family="Helvetica,sans-Serif" font-size="10.00">SoccerBoard::powerOn</text>
</a>
</g>
</g>
<!-- Node186&#45;&gt;Node187 -->
<g id="edge10" class="edge"><title>Node186&#45;&gt;Node187</title>
<path fill="none" stroke="midnightblue" d="M389.922,-36.7658C400.279,-38.0647 410.994,-39.4084 421.255,-40.6953"/>
<polygon fill="midnightblue" stroke="midnightblue" points="390.072,-33.2572 379.714,-35.4856 389.201,-40.2028 390.072,-33.2572"/>
</g>
<!-- Node188 -->
<g id="node12" class="node"><title>Node188</title>
<g id="a_node12"><a xlink:href="structSoccerBoard.html#a5442e3a7ca58ed90d9e4af0cac83ebdd" target="_top" xlink:title="SoccerBoard::powerOff">
<polygon fill="white" stroke="black" points="421,-0.5 421,-19.5 540,-19.5 540,-0.5 421,-0.5"/>
<text text-anchor="middle" x="480.5" y="-7.5" font-family="Helvetica,sans-Serif" font-size="10.00">SoccerBoard::powerOff</text>
</a>
</g>
</g>
<!-- Node186&#45;&gt;Node188 -->
<g id="edge11" class="edge"><title>Node186&#45;&gt;Node188</title>
<path fill="none" stroke="midnightblue" d="M389.856,-21.2425C400.145,-19.9521 410.789,-18.6173 420.991,-17.3377"/>
<polygon fill="midnightblue" stroke="midnightblue" points="389.201,-17.7972 379.714,-22.5144 390.072,-24.7428 389.201,-17.7972"/>
</g>
</g>
</svg>
        <g id="navigator" transform="translate(0 0)" fill="#404254">
                <rect fill="#f2f5e9" fill-opacity="0.5" stroke="#606060" stroke-width=".5" x="0" y="0" width="60" height="60"/>
                <use id="zoomplus" xlink:href="#zoomPlus" x="17" y="9" onmousedown="handleZoom(evt,'in')"/>
                <use id="zoomminus" xlink:href="#zoomMin" x="42" y="9" onmousedown="handleZoom(evt,'out')"/>
                <use id="reset" xlink:href="#resetDef" x="30" y="36" onmousedown="handleReset()"/>
                <g id="arrowUp" xlink:href="#dirArrow" transform="translate(30 24)" onmousedown="handlePan(0,-1)">
                  <use xlink:href="#rim" fill="#404040">
                        <set attributeName="fill" to="#808080" begin="arrowUp.mouseover" end="arrowUp.mouseout"/>
                  </use>
                  <path fill="none" stroke="white" stroke-width="1.5" d="M0,-3.0v7 M-2.5,-0.5L0,-3.0L2.5,-0.5"/>
                </g>
                <g id="arrowRight" xlink:href="#dirArrow" transform="rotate(90) translate(36 -43)" onmousedown="handlePan(1,0)">
                  <use xlink:href="#rim" fill="#404040">
                        <set attributeName="fill" to="#808080" begin="arrowRight.mouseover" end="arrowRight.mouseout"/>
                  </use>
                  <path fill="none" stroke="white" stroke-width="1.5" d="M0,-3.0v7 M-2.5,-0.5L0,-3.0L2.5,-0.5"/>
                </g>
                <g id="arrowDown" xlink:href="#dirArrow" transform="rotate(180) translate(-30 -48)" onmousedown="handlePan(0,1)">
                  <use xlink:href="#rim" fill="#404040">
                        <set attributeName="fill" to="#808080" begin="arrowDown.mouseover" end="arrowDown.mouseout"/>
                  </use>
                  <path fill="none" stroke="white" stroke-width="1.5" d="M0,-3.0v7 M-2.5,-0.5L0,-3.0L2.5,-0.5"/>
                </g>
                <g id="arrowLeft" xlink:href="#dirArrow" transform="rotate(270) translate(-36 17)" onmousedown="handlePan(-1,0)">
                  <use xlink:href="#rim" fill="#404040">
                        <set attributeName="fill" to="#808080" begin="arrowLeft.mouseover" end="arrowLeft.mouseout"/>
                  </use>
                  <path fill="none" stroke="white" stroke-width="1.5" d="M0,-3.0v7 M-2.5,-0.5L0,-3.0L2.5,-0.5"/>
                </g>
        </g>
        <svg viewBox="0 0 15 15" width="100%" height="30px" preserveAspectRatio="xMaxYMin meet">
         <g id="arrow_out" transform="scale(0.3 0.3)">
          <a xlink:href="eBoard__comment_8h_aa0a7f697a49b0d038631c64e945f5c1a_icgraph_org.svg" target="_base">
           <rect id="button" ry="5" rx="5" y="6" x="6" height="38" width="38"
                fill="#f2f5e9" fill-opacity="0.5" stroke="#606060" stroke-width="1.0"/>
           <path id="arrow"
             d="M 11.500037,31.436501 C 11.940474,20.09759 22.043105,11.32322 32.158766,21.979434 L 37.068811,17.246167 C 37.068811,17.246167 37.088388,32 37.088388,32 L 22.160133,31.978069 C 22.160133,31.978069 26.997745,27.140456 26.997745,27.140456 C 18.528582,18.264221 13.291696,25.230495 11.500037,31.436501 z"
             style="fill:#404040;"/>
          </a>
         </g>
        </svg>
</svg>
