<?xml version="1.0" encoding="UTF-8" standalone="no"?>
<!DOCTYPE svg PUBLIC "-//W3C//DTD SVG 1.1//EN"
 "http://www.w3.org/Graphics/SVG/1.1/DTD/svg11.dtd">
<!-- Generated by graphviz version 2.38.0 (20140413.2041)
 -->
<!-- Title: ISR Pages: 1 -->
<svg width="549pt" height="127pt"
 viewBox="0.00 0.00 549.00 126.50" xmlns="http://www.w3.org/2000/svg" xmlns:xlink="http://www.w3.org/1999/xlink">
<g id="graph0" class="graph" transform="scale(1 1) rotate(0) translate(4 122.5)">
<title>ISR</title>
<polygon fill="white" stroke="none" points="-4,4 -4,-122.5 545,-122.5 545,4 -4,4"/>
<!-- Node72 -->
<g id="node1" class="node"><title>Node72</title>
<polygon fill="#bfbfbf" stroke="black" points="0,-44.5 0,-63.5 34,-63.5 34,-44.5 0,-44.5"/>
<text text-anchor="middle" x="17" y="-51.5" font-family="Helvetica,sans-Serif" font-size="10.00">ISR</text>
</g>
<!-- Node73 -->
<g id="node2" class="node"><title>Node73</title>
<g id="a_node2"><a xlink:href="classeagle__impl_1_1SoftwareSerial.html#a009772cfdde9ef026c6660f7c578eda8" target="_top" xlink:title="eagle_impl::SoftwareSerial\l::handle_interrupt">
<polygon fill="white" stroke="black" points="70,-39 70,-69 203,-69 203,-39 70,-39"/>
<text text-anchor="start" x="78" y="-57" font-family="Helvetica,sans-Serif" font-size="10.00">eagle_impl::SoftwareSerial</text>
<text text-anchor="middle" x="136.5" y="-46" font-family="Helvetica,sans-Serif" font-size="10.00">::handle_interrupt</text>
</a>
</g>
</g>
<!-- Node72&#45;&gt;Node73 -->
<g id="edge1" class="edge"><title>Node72&#45;&gt;Node73</title>
<path fill="none" stroke="midnightblue" d="M34.3379,-54C41.4048,-54 50.2249,-54 59.692,-54"/>
<polygon fill="midnightblue" stroke="midnightblue" points="59.7456,-57.5001 69.7456,-54 59.7456,-50.5001 59.7456,-57.5001"/>
</g>
<!-- Node74 -->
<g id="node3" class="node"><title>Node74</title>
<g id="a_node3"><a xlink:href="classeagle__impl_1_1SoftwareSerial.html#a14ff531f8f4a57b2311e452f902c7a31" target="_top" xlink:title="eagle_impl::SoftwareSerial\l::recv">
<polygon fill="white" stroke="black" points="239,-39 239,-69 372,-69 372,-39 239,-39"/>
<text text-anchor="start" x="247" y="-57" font-family="Helvetica,sans-Serif" font-size="10.00">eagle_impl::SoftwareSerial</text>
<text text-anchor="middle" x="305.5" y="-46" font-family="Helvetica,sans-Serif" font-size="10.00">::recv</text>
</a>
</g>
</g>
<!-- Node73&#45;&gt;Node74 -->
<g id="edge2" class="edge"><title>Node73&#45;&gt;Node74</title>
<path fill="none" stroke="midnightblue" d="M203.024,-54C211.496,-54 220.228,-54 228.847,-54"/>
<polygon fill="midnightblue" stroke="midnightblue" points="228.891,-57.5001 238.891,-54 228.891,-50.5001 228.891,-57.5001"/>
</g>
<!-- Node75 -->
<g id="node4" class="node"><title>Node75</title>
<g id="a_node4"><a xlink:href="classeagle__impl_1_1SoftwareSerial.html#a445b8f3448a04126cb2183b4ae415dbe" target="_top" xlink:title="eagle_impl::SoftwareSerial\l::rx_pin_read">
<polygon fill="white" stroke="black" points="408,-88 408,-118 541,-118 541,-88 408,-88"/>
<text text-anchor="start" x="416" y="-106" font-family="Helvetica,sans-Serif" font-size="10.00">eagle_impl::SoftwareSerial</text>
<text text-anchor="middle" x="474.5" y="-95" font-family="Helvetica,sans-Serif" font-size="10.00">::rx_pin_read</text>
</a>
</g>
</g>
<!-- Node74&#45;&gt;Node75 -->
<g id="edge3" class="edge"><title>Node74&#45;&gt;Node75</title>
<path fill="none" stroke="midnightblue" d="M357.968,-69.1014C375.192,-74.1551 394.559,-79.8376 412.442,-85.0848"/>
<polygon fill="midnightblue" stroke="midnightblue" points="411.621,-88.4913 422.202,-87.9484 413.592,-81.7745 411.621,-88.4913"/>
</g>
<!-- Node76 -->
<g id="node5" class="node"><title>Node76</title>
<g id="a_node5"><a xlink:href="classeagle__impl_1_1SoftwareSerial.html#a1dc4448e5fdf2516f47439fb4f62f4be" target="_top" xlink:title="eagle_impl::SoftwareSerial\l::tunedDelay">
<polygon fill="white" stroke="black" points="408,-39 408,-69 541,-69 541,-39 408,-39"/>
<text text-anchor="start" x="416" y="-57" font-family="Helvetica,sans-Serif" font-size="10.00">eagle_impl::SoftwareSerial</text>
<text text-anchor="middle" x="474.5" y="-46" font-family="Helvetica,sans-Serif" font-size="10.00">::tunedDelay</text>
</a>
</g>
</g>
<!-- Node74&#45;&gt;Node76 -->
<g id="edge4" class="edge"><title>Node74&#45;&gt;Node76</title>
<path fill="none" stroke="midnightblue" d="M372.024,-54C380.496,-54 389.228,-54 397.847,-54"/>
<polygon fill="midnightblue" stroke="midnightblue" points="397.891,-57.5001 407.891,-54 397.891,-50.5001 397.891,-57.5001"/>
</g>
<!-- Node77 -->
<g id="node6" class="node"><title>Node77</title>
<g id="a_node6"><a xlink:href="eBoard_8h.html#a7ba959374e79d3320d69af12f7307f44" target="_top" xlink:title="DebugPulse">
<polygon fill="white" stroke="black" points="439.5,-0.5 439.5,-19.5 509.5,-19.5 509.5,-0.5 439.5,-0.5"/>
<text text-anchor="middle" x="474.5" y="-7.5" font-family="Helvetica,sans-Serif" font-size="10.00">DebugPulse</text>
</a>
</g>
</g>
<!-- Node74&#45;&gt;Node77 -->
<g id="edge5" class="edge"><title>Node74&#45;&gt;Node77</title>
<path fill="none" stroke="midnightblue" d="M363.505,-38.9808C385.006,-33.3157 409.123,-26.9617 429.283,-21.6501"/>
<polygon fill="midnightblue" stroke="midnightblue" points="430.352,-24.9879 439.13,-19.0556 428.568,-18.2189 430.352,-24.9879"/>
</g>
</g>
</svg>
