<?xml version="1.0" encoding="UTF-8" standalone="no"?>
<!DOCTYPE svg PUBLIC "-//W3C//DTD SVG 1.1//EN"
 "http://www.w3.org/Graphics/SVG/1.1/DTD/svg11.dtd">
<!-- Generated by graphviz version 2.38.0 (20140413.2041)
 -->
<!-- Title: sendI2C Pages: 1 -->
<svg width="147pt" height="46pt"
 viewBox="0.00 0.00 147.00 46.00" xmlns="http://www.w3.org/2000/svg" xmlns:xlink="http://www.w3.org/1999/xlink">
<g id="graph0" class="graph" transform="scale(1 1) rotate(0) translate(4 42)">
<title>sendI2C</title>
<polygon fill="white" stroke="none" points="-4,4 -4,-42 143,-42 143,4 -4,4"/>
<!-- Node231 -->
<g id="node1" class="node"><title>Node231</title>
<polygon fill="#bfbfbf" stroke="black" points="0,-0.5 0,-19.5 53,-19.5 53,-0.5 0,-0.5"/>
<text text-anchor="middle" x="26.5" y="-7.5" font-family="Helvetica,sans-Serif" font-size="10.00">sendI2C</text>
</g>
<!-- Node232 -->
<g id="node2" class="node"><title>Node232</title>
<g id="a_node2"><a xlink:href="eBoard__comment_8h.html#aca4f96af7c6736bf2b61c88d731af741" target="_top" xlink:title="read a digital state from an INPUTpin ">
<polygon fill="white" stroke="black" points="89,-0.5 89,-19.5 139,-19.5 139,-0.5 89,-0.5"/>
<text text-anchor="middle" x="114" y="-7.5" font-family="Helvetica,sans-Serif" font-size="10.00">readPin</text>
</a>
</g>
</g>
<!-- Node231&#45;&gt;Node232 -->
<g id="edge1" class="edge"><title>Node231&#45;&gt;Node232</title>
<path fill="none" stroke="midnightblue" d="M63.3464,-10C71.938,-10 80.9116,-10 88.8295,-10"/>
<polygon fill="midnightblue" stroke="midnightblue" points="63.1529,-6.5001 53.1528,-10 63.1528,-13.5001 63.1529,-6.5001"/>
</g>
<!-- Node232&#45;&gt;Node232 -->
<g id="edge2" class="edge"><title>Node232&#45;&gt;Node232</title>
<path fill="none" stroke="midnightblue" d="M98.0749,-29.4C99.1384,-34.3146 104.447,-38 114,-38 129.285,-38 133.704,-28.5653 127.255,-19.7571"/>
<polygon fill="midnightblue" stroke="midnightblue" points="101.449,-30.3284 100.745,-19.7571 94.7032,-28.4604 101.449,-30.3284"/>
</g>
</g>
</svg>
