<?xml version="1.0" encoding="UTF-8" standalone="no"?>
<!DOCTYPE svg PUBLIC "-//W3C//DTD SVG 1.1//EN"
 "http://www.w3.org/Graphics/SVG/1.1/DTD/svg11.dtd">
<!-- Generated by graphviz version 2.38.0 (20140413.2041)
 -->
<!-- Title: eBoard/eBoard.h Pages: 1 -->
<!--zoomable 140 -->
<svg id="main" version="1.1" xmlns="http://www.w3.org/2000/svg" xmlns:xlink="http://www.w3.org/1999/xlink" xml:space="preserve" onload="init(evt)">
<style type="text/css"><![CDATA[
.edge:hover path { stroke: red; }
.edge:hover polygon { stroke: red; fill: red; }
]]></style>
<script type="text/javascript"><![CDATA[
var edges = document.getElementsByTagName('g');
if (edges && edges.length) {
  for (var i=0;i<edges.length;i++) {
    if (edges[i].id.substr(0,4)=='edge') {
      edges[i].setAttribute('class','edge');
    }
  }
}
]]></script>
        <defs>
                <circle id="rim" cx="0" cy="0" r="7"/>
                <circle id="rim2" cx="0" cy="0" r="3.5"/>
                <g id="zoomPlus">
                        <use xlink:href="#rim" fill="#404040">
                                <set attributeName="fill" to="#808080" begin="zoomplus.mouseover" end="zoomplus.mouseout"/>
                        </use>
                        <path d="M-4,0h8M0,-4v8" fill="none" stroke="white" stroke-width="1.5" pointer-events="none"/>
                </g>
                <g id="zoomMin">
                        <use xlink:href="#rim" fill="#404040">
                                <set attributeName="fill" to="#808080" begin="zoomminus.mouseover" end="zoomminus.mouseout"/>
                        </use>
                        <path d="M-4,0h8" fill="none" stroke="white" stroke-width="1.5" pointer-events="none"/>
                </g>
                <g id="dirArrow">
                        <path fill="none" stroke="white" stroke-width="1.5" d="M0,-3.0v7 M-2.5,-0.5L0,-3.0L2.5,-0.5"/>
                </g>
               <g id="resetDef">
                       <use xlink:href="#rim2" fill="#404040">
                               <set attributeName="fill" to="#808080" begin="reset.mouseover" end="reset.mouseout"/>
                       </use>
               </g>
        </defs>

<script type="text/javascript">
var viewWidth = 1509;
var viewHeight = 140;
var sectionId = 'dynsection-0';
</script>
<script xlink:href="svgpan.js"/>
<svg id="graph" class="graph">
<g id="viewport">
<title>eBoard/eBoard.h</title>
<polygon fill="white" stroke="none" points="-4,4 -4,-136 1504.5,-136 1504.5,4 -4,4"/>
<!-- Node0 -->
<g id="node1" class="node"><title>Node0</title>
<polygon fill="#bfbfbf" stroke="black" points="594.5,-112.5 594.5,-131.5 729.5,-131.5 729.5,-112.5 594.5,-112.5"/>
<text text-anchor="middle" x="662" y="-119.5" font-family="Helvetica,sans-Serif" font-size="10.00">eBoard/eBoard.h</text>
</g>
<!-- Node1 -->
<g id="node2" class="node"><title>Node1</title>
<polygon fill="white" stroke="#bfbfbf" points="0,-56.5 0,-75.5 86,-75.5 86,-56.5 0,-56.5"/>
<text text-anchor="middle" x="43" y="-63.5" font-family="Helvetica,sans-Serif" font-size="10.00">avr/pgmspace.h</text>
</g>
<!-- Node0&#45;&gt;Node1 -->
<g id="edge1" class="edge"><title>Node0&#45;&gt;Node1</title>
<path fill="none" stroke="midnightblue" d="M594.152,-117.642C489.444,-112.011 281.992,-99.0774 96.0443,-76.0192"/>
<polygon fill="midnightblue" stroke="midnightblue" points="96.4418,-72.5418 86.0843,-74.7718 95.5718,-79.4875 96.4418,-72.5418"/>
</g>
<!-- Node2 -->
<g id="node3" class="node"><title>Node2</title>
<polygon fill="white" stroke="#bfbfbf" points="104,-56.5 104,-75.5 162,-75.5 162,-56.5 104,-56.5"/>
<text text-anchor="middle" x="133" y="-63.5" font-family="Helvetica,sans-Serif" font-size="10.00">Arduino.h</text>
</g>
<!-- Node0&#45;&gt;Node2 -->
<g id="edge2" class="edge"><title>Node0&#45;&gt;Node2</title>
<path fill="none" stroke="midnightblue" d="M594.352,-117.972C501.18,-113.102 328.035,-101.54 172.237,-76.1732"/>
<polygon fill="midnightblue" stroke="midnightblue" points="172.438,-72.659 162.001,-74.4823 171.297,-79.5654 172.438,-72.659"/>
</g>
<!-- Node3 -->
<g id="node4" class="node"><title>Node3</title>
<g id="a_node4"><a xlink:href="eagle__Comfort_8h.html" target="_top" xlink:title="source/eagle_Comfort.h">
<polygon fill="white" stroke="black" points="179.5,-56.5 179.5,-75.5 300.5,-75.5 300.5,-56.5 179.5,-56.5"/>
<text text-anchor="middle" x="240" y="-63.5" font-family="Helvetica,sans-Serif" font-size="10.00">source/eagle_Comfort.h</text>
</a>
</g>
</g>
<!-- Node0&#45;&gt;Node3 -->
<g id="edge3" class="edge"><title>Node0&#45;&gt;Node3</title>
<path fill="none" stroke="midnightblue" d="M594.649,-112.473C525.83,-103.747 415.572,-89.7302 310.71,-76.2178"/>
<polygon fill="midnightblue" stroke="midnightblue" points="310.946,-72.7194 300.581,-74.912 310.051,-79.6619 310.946,-72.7194"/>
</g>
<!-- Node4 -->
<g id="node5" class="node"><title>Node4</title>
<polygon fill="white" stroke="#bfbfbf" points="318.5,-56.5 318.5,-75.5 367.5,-75.5 367.5,-56.5 318.5,-56.5"/>
<text text-anchor="middle" x="343" y="-63.5" font-family="Helvetica,sans-Serif" font-size="10.00">avr/io.h</text>
</g>
<!-- Node0&#45;&gt;Node4 -->
<g id="edge4" class="edge"><title>Node0&#45;&gt;Node4</title>
<path fill="none" stroke="midnightblue" d="M594.293,-112.489C538.483,-104.984 457.098,-92.9215 377.937,-76.2423"/>
<polygon fill="midnightblue" stroke="midnightblue" points="378.305,-72.742 367.794,-74.0769 376.843,-79.5877 378.305,-72.742"/>
</g>
<!-- Node5 -->
<g id="node6" class="node"><title>Node5</title>
<polygon fill="white" stroke="#bfbfbf" points="385.5,-56.5 385.5,-75.5 462.5,-75.5 462.5,-56.5 385.5,-56.5"/>
<text text-anchor="middle" x="424" y="-63.5" font-family="Helvetica,sans-Serif" font-size="10.00">avr/interrupt.h</text>
</g>
<!-- Node0&#45;&gt;Node5 -->
<g id="edge5" class="edge"><title>Node0&#45;&gt;Node5</title>
<path fill="none" stroke="midnightblue" d="M624.288,-112.444C582.857,-103.043 516.243,-87.9291 471.333,-77.7393"/>
<polygon fill="midnightblue" stroke="midnightblue" points="472.062,-74.3159 461.535,-75.5164 470.513,-81.1424 472.062,-74.3159"/>
</g>
<!-- Node6 -->
<g id="node7" class="node"><title>Node6</title>
<g id="a_node7"><a xlink:href="eagle__Twi_8h.html" target="_top" xlink:title="source/eagle_Twi.h">
<polygon fill="white" stroke="black" points="480.5,-56.5 480.5,-75.5 581.5,-75.5 581.5,-56.5 480.5,-56.5"/>
<text text-anchor="middle" x="531" y="-63.5" font-family="Helvetica,sans-Serif" font-size="10.00">source/eagle_Twi.h</text>
</a>
</g>
</g>
<!-- Node0&#45;&gt;Node6 -->
<g id="edge6" class="edge"><title>Node0&#45;&gt;Node6</title>
<path fill="none" stroke="midnightblue" d="M641.243,-112.444C619.684,-103.557 585.737,-89.5632 561.206,-79.4514"/>
<polygon fill="midnightblue" stroke="midnightblue" points="562.239,-76.0917 551.66,-75.5164 559.572,-82.5634 562.239,-76.0917"/>
</g>
<!-- Node8 -->
<g id="node9" class="node"><title>Node8</title>
<g id="a_node9"><a xlink:href="eagle__TwoWire_8h.html" target="_top" xlink:title="source/eagle_TwoWire.h">
<polygon fill="white" stroke="black" points="599.5,-56.5 599.5,-75.5 724.5,-75.5 724.5,-56.5 599.5,-56.5"/>
<text text-anchor="middle" x="662" y="-63.5" font-family="Helvetica,sans-Serif" font-size="10.00">source/eagle_TwoWire.h</text>
</a>
</g>
</g>
<!-- Node0&#45;&gt;Node8 -->
<g id="edge8" class="edge"><title>Node0&#45;&gt;Node8</title>
<path fill="none" stroke="midnightblue" d="M662,-112.083C662,-105.006 662,-94.8611 662,-85.9865"/>
<polygon fill="midnightblue" stroke="midnightblue" points="665.5,-85.751 662,-75.7511 658.5,-85.7511 665.5,-85.751"/>
</g>
<!-- Node12 -->
<g id="node13" class="node"><title>Node12</title>
<g id="a_node13"><a xlink:href="eagle__SPI_8h.html" target="_top" xlink:title="source/eagle_SPI.h">
<polygon fill="white" stroke="black" points="743,-56.5 743,-75.5 845,-75.5 845,-56.5 743,-56.5"/>
<text text-anchor="middle" x="794" y="-63.5" font-family="Helvetica,sans-Serif" font-size="10.00">source/eagle_SPI.h</text>
</a>
</g>
</g>
<!-- Node0&#45;&gt;Node12 -->
<g id="edge13" class="edge"><title>Node0&#45;&gt;Node12</title>
<path fill="none" stroke="midnightblue" d="M682.916,-112.444C704.736,-103.517 739.15,-89.4387 763.892,-79.3168"/>
<polygon fill="midnightblue" stroke="midnightblue" points="765.252,-82.5422 773.182,-75.5164 762.601,-76.0634 765.252,-82.5422"/>
</g>
<!-- Node14 -->
<g id="node15" class="node"><title>Node14</title>
<polygon fill="white" stroke="#bfbfbf" points="863.5,-56.5 863.5,-75.5 920.5,-75.5 920.5,-56.5 863.5,-56.5"/>
<text text-anchor="middle" x="892" y="-63.5" font-family="Helvetica,sans-Serif" font-size="10.00">avr/wdt.h</text>
</g>
<!-- Node0&#45;&gt;Node14 -->
<g id="edge15" class="edge"><title>Node0&#45;&gt;Node14</title>
<path fill="none" stroke="midnightblue" d="M698.456,-112.482C735.045,-103.928 793.295,-90.2925 853.329,-76.154"/>
<polygon fill="midnightblue" stroke="midnightblue" points="854.437,-79.4888 863.368,-73.7889 852.832,-72.6753 854.437,-79.4888"/>
</g>
<!-- Node15 -->
<g id="node16" class="node"><title>Node15</title>
<g id="a_node16"><a xlink:href="eagle__SoftwareSerial_8h.html" target="_top" xlink:title="source/eagle_SoftwareSerial.h">
<polygon fill="white" stroke="black" points="938.5,-56.5 938.5,-75.5 1087.5,-75.5 1087.5,-56.5 938.5,-56.5"/>
<text text-anchor="middle" x="1013" y="-63.5" font-family="Helvetica,sans-Serif" font-size="10.00">source/eagle_SoftwareSerial.h</text>
</a>
</g>
</g>
<!-- Node0&#45;&gt;Node15 -->
<g id="edge16" class="edge"><title>Node0&#45;&gt;Node15</title>
<path fill="none" stroke="midnightblue" d="M717.617,-112.444C780.132,-102.826 881.521,-87.2275 947.734,-77.0409"/>
<polygon fill="midnightblue" stroke="midnightblue" points="948.292,-80.4964 957.643,-75.5164 947.227,-73.5778 948.292,-80.4964"/>
</g>
<!-- Node16 -->
<g id="node17" class="node"><title>Node16</title>
<g id="a_node17"><a xlink:href="eagle__Assert_8h.html" target="_top" xlink:title="source/eagle_Assert.h">
<polygon fill="white" stroke="black" points="1106,-56.5 1106,-75.5 1220,-75.5 1220,-56.5 1106,-56.5"/>
<text text-anchor="middle" x="1163" y="-63.5" font-family="Helvetica,sans-Serif" font-size="10.00">source/eagle_Assert.h</text>
</a>
</g>
</g>
<!-- Node0&#45;&gt;Node16 -->
<g id="edge17" class="edge"><title>Node0&#45;&gt;Node16</title>
<path fill="none" stroke="midnightblue" d="M729.516,-114.7C813.013,-106.756 959.766,-92.2935 1095.6,-76.135"/>
<polygon fill="midnightblue" stroke="midnightblue" points="1096.26,-79.5808 1105.78,-74.9187 1095.43,-72.6303 1096.26,-79.5808"/>
</g>
<!-- Node18 -->
<g id="node19" class="node"><title>Node18</title>
<g id="a_node19"><a xlink:href="eagle__Checks_8h.html" target="_top" xlink:title="source/eagle_Checks.h">
<polygon fill="white" stroke="black" points="1238.5,-56.5 1238.5,-75.5 1357.5,-75.5 1357.5,-56.5 1238.5,-56.5"/>
<text text-anchor="middle" x="1298" y="-63.5" font-family="Helvetica,sans-Serif" font-size="10.00">source/eagle_Checks.h</text>
</a>
</g>
</g>
<!-- Node0&#45;&gt;Node18 -->
<g id="edge19" class="edge"><title>Node0&#45;&gt;Node18</title>
<path fill="none" stroke="midnightblue" d="M729.743,-116.734C834.313,-109.903 1041.58,-95.3883 1228.19,-76.0337"/>
<polygon fill="midnightblue" stroke="midnightblue" points="1228.6,-79.5096 1238.18,-74.9901 1227.87,-72.5474 1228.6,-79.5096"/>
</g>
<!-- Node19 -->
<g id="node20" class="node"><title>Node19</title>
<g id="a_node20"><a xlink:href="eagle__NanoMot_8h.html" target="_top" xlink:title="source/eagle_NanoMot.h">
<polygon fill="white" stroke="black" points="1375.5,-56.5 1375.5,-75.5 1500.5,-75.5 1500.5,-56.5 1375.5,-56.5"/>
<text text-anchor="middle" x="1438" y="-63.5" font-family="Helvetica,sans-Serif" font-size="10.00">source/eagle_NanoMot.h</text>
</a>
</g>
</g>
<!-- Node0&#45;&gt;Node19 -->
<g id="edge20" class="edge"><title>Node0&#45;&gt;Node19</title>
<path fill="none" stroke="midnightblue" d="M729.675,-118.086C853.63,-112.441 1125.65,-98.6284 1365.01,-76.1372"/>
<polygon fill="midnightblue" stroke="midnightblue" points="1365.68,-79.5897 1375.3,-75.1627 1365.02,-72.6209 1365.68,-79.5897"/>
</g>
<!-- Node7 -->
<g id="node8" class="node"><title>Node7</title>
<polygon fill="white" stroke="#bfbfbf" points="493.5,-0.5 493.5,-19.5 552.5,-19.5 552.5,-0.5 493.5,-0.5"/>
<text text-anchor="middle" x="523" y="-7.5" font-family="Helvetica,sans-Serif" font-size="10.00">inttypes.h</text>
</g>
<!-- Node6&#45;&gt;Node7 -->
<g id="edge7" class="edge"><title>Node6&#45;&gt;Node7</title>
<path fill="none" stroke="midnightblue" d="M529.679,-56.083C528.619,-48.9272 527.094,-38.6353 525.769,-29.6911"/>
<polygon fill="midnightblue" stroke="midnightblue" points="529.224,-29.1302 524.296,-19.7511 522.3,-30.1561 529.224,-29.1302"/>
</g>
<!-- Node8&#45;&gt;Node7 -->
<g id="edge9" class="edge"><title>Node8&#45;&gt;Node7</title>
<path fill="none" stroke="midnightblue" d="M639.975,-56.4435C616.896,-47.4776 580.438,-33.314 554.359,-23.1827"/>
<polygon fill="midnightblue" stroke="midnightblue" points="555.511,-19.8753 544.922,-19.5164 552.976,-26.4002 555.511,-19.8753"/>
</g>
<!-- Node9 -->
<g id="node10" class="node"><title>Node9</title>
<polygon fill="white" stroke="#bfbfbf" points="571,-0.5 571,-19.5 627,-19.5 627,-0.5 571,-0.5"/>
<text text-anchor="middle" x="599" y="-7.5" font-family="Helvetica,sans-Serif" font-size="10.00">Stream.h</text>
</g>
<!-- Node8&#45;&gt;Node9 -->
<g id="edge10" class="edge"><title>Node8&#45;&gt;Node9</title>
<path fill="none" stroke="midnightblue" d="M651.878,-56.324C642.474,-48.2631 628.256,-36.0765 616.931,-26.3695"/>
<polygon fill="midnightblue" stroke="midnightblue" points="619.177,-23.6844 609.306,-19.8339 614.621,-28.9993 619.177,-23.6844"/>
</g>
<!-- Node10 -->
<g id="node11" class="node"><title>Node10</title>
<polygon fill="white" stroke="#bfbfbf" points="645,-0.5 645,-19.5 693,-19.5 693,-0.5 645,-0.5"/>
<text text-anchor="middle" x="669" y="-7.5" font-family="Helvetica,sans-Serif" font-size="10.00">stdlib.h</text>
</g>
<!-- Node8&#45;&gt;Node10 -->
<g id="edge11" class="edge"><title>Node8&#45;&gt;Node10</title>
<path fill="none" stroke="midnightblue" d="M663.156,-56.083C664.084,-48.9272 665.418,-38.6353 666.577,-29.6911"/>
<polygon fill="midnightblue" stroke="midnightblue" points="670.051,-30.1181 667.866,-19.7511 663.109,-29.2181 670.051,-30.1181"/>
</g>
<!-- Node11 -->
<g id="node12" class="node"><title>Node11</title>
<polygon fill="white" stroke="#bfbfbf" points="711.5,-0.5 711.5,-19.5 760.5,-19.5 760.5,-0.5 711.5,-0.5"/>
<text text-anchor="middle" x="736" y="-7.5" font-family="Helvetica,sans-Serif" font-size="10.00">string.h</text>
</g>
<!-- Node8&#45;&gt;Node11 -->
<g id="edge12" class="edge"><title>Node8&#45;&gt;Node11</title>
<path fill="none" stroke="midnightblue" d="M673.889,-56.324C685.15,-48.1066 702.287,-35.6017 715.709,-25.8069"/>
<polygon fill="midnightblue" stroke="midnightblue" points="717.88,-28.5559 723.894,-19.8339 713.753,-22.9014 717.88,-28.5559"/>
</g>
<!-- Node13 -->
<g id="node14" class="node"><title>Node13</title>
<polygon fill="white" stroke="#bfbfbf" points="779,-0.5 779,-19.5 825,-19.5 825,-0.5 779,-0.5"/>
<text text-anchor="middle" x="802" y="-7.5" font-family="Helvetica,sans-Serif" font-size="10.00">stdio.h</text>
</g>
<!-- Node12&#45;&gt;Node13 -->
<g id="edge14" class="edge"><title>Node12&#45;&gt;Node13</title>
<path fill="none" stroke="midnightblue" d="M795.321,-56.083C796.381,-48.9272 797.906,-38.6353 799.231,-29.6911"/>
<polygon fill="midnightblue" stroke="midnightblue" points="802.7,-30.1561 800.704,-19.7511 795.776,-29.1302 802.7,-30.1561"/>
</g>
<!-- Node17 -->
<g id="node18" class="node"><title>Node17</title>
<polygon fill="white" stroke="#bfbfbf" points="1137,-0.5 1137,-19.5 1189,-19.5 1189,-0.5 1137,-0.5"/>
<text text-anchor="middle" x="1163" y="-7.5" font-family="Helvetica,sans-Serif" font-size="10.00">assert.h</text>
</g>
<!-- Node16&#45;&gt;Node17 -->
<g id="edge18" class="edge"><title>Node16&#45;&gt;Node17</title>
<path fill="none" stroke="midnightblue" d="M1163,-56.083C1163,-49.0059 1163,-38.8611 1163,-29.9865"/>
<polygon fill="midnightblue" stroke="midnightblue" points="1166.5,-29.751 1163,-19.7511 1159.5,-29.7511 1166.5,-29.751"/>
</g>
</g>
</svg>
        <g id="navigator" transform="translate(0 0)" fill="#404254">
                <rect fill="#f2f5e9" fill-opacity="0.5" stroke="#606060" stroke-width=".5" x="0" y="0" width="60" height="60"/>
                <use id="zoomplus" xlink:href="#zoomPlus" x="17" y="9" onmousedown="handleZoom(evt,'in')"/>
                <use id="zoomminus" xlink:href="#zoomMin" x="42" y="9" onmousedown="handleZoom(evt,'out')"/>
                <use id="reset" xlink:href="#resetDef" x="30" y="36" onmousedown="handleReset()"/>
                <g id="arrowUp" xlink:href="#dirArrow" transform="translate(30 24)" onmousedown="handlePan(0,-1)">
                  <use xlink:href="#rim" fill="#404040">
                        <set attributeName="fill" to="#808080" begin="arrowUp.mouseover" end="arrowUp.mouseout"/>
                  </use>
                  <path fill="none" stroke="white" stroke-width="1.5" d="M0,-3.0v7 M-2.5,-0.5L0,-3.0L2.5,-0.5"/>
                </g>
                <g id="arrowRight" xlink:href="#dirArrow" transform="rotate(90) translate(36 -43)" onmousedown="handlePan(1,0)">
                  <use xlink:href="#rim" fill="#404040">
                        <set attributeName="fill" to="#808080" begin="arrowRight.mouseover" end="arrowRight.mouseout"/>
                  </use>
                  <path fill="none" stroke="white" stroke-width="1.5" d="M0,-3.0v7 M-2.5,-0.5L0,-3.0L2.5,-0.5"/>
                </g>
                <g id="arrowDown" xlink:href="#dirArrow" transform="rotate(180) translate(-30 -48)" onmousedown="handlePan(0,1)">
                  <use xlink:href="#rim" fill="#404040">
                        <set attributeName="fill" to="#808080" begin="arrowDown.mouseover" end="arrowDown.mouseout"/>
                  </use>
                  <path fill="none" stroke="white" stroke-width="1.5" d="M0,-3.0v7 M-2.5,-0.5L0,-3.0L2.5,-0.5"/>
                </g>
                <g id="arrowLeft" xlink:href="#dirArrow" transform="rotate(270) translate(-36 17)" onmousedown="handlePan(-1,0)">
                  <use xlink:href="#rim" fill="#404040">
                        <set attributeName="fill" to="#808080" begin="arrowLeft.mouseover" end="arrowLeft.mouseout"/>
                  </use>
                  <path fill="none" stroke="white" stroke-width="1.5" d="M0,-3.0v7 M-2.5,-0.5L0,-3.0L2.5,-0.5"/>
                </g>
        </g>
        <svg viewBox="0 0 15 15" width="100%" height="30px" preserveAspectRatio="xMaxYMin meet">
         <g id="arrow_out" transform="scale(0.3 0.3)">
          <a xlink:href="eBoard__comment_8h__incl_org.svg" target="_base">
           <rect id="button" ry="5" rx="5" y="6" x="6" height="38" width="38"
                fill="#f2f5e9" fill-opacity="0.5" stroke="#606060" stroke-width="1.0"/>
           <path id="arrow"
             d="M 11.500037,31.436501 C 11.940474,20.09759 22.043105,11.32322 32.158766,21.979434 L 37.068811,17.246167 C 37.068811,17.246167 37.088388,32 37.088388,32 L 22.160133,31.978069 C 22.160133,31.978069 26.997745,27.140456 26.997745,27.140456 C 18.528582,18.264221 13.291696,25.230495 11.500037,31.436501 z"
             style="fill:#404040;"/>
          </a>
         </g>
        </svg>
</svg>
