<?xml version="1.0" encoding="UTF-8" standalone="no"?>
<!DOCTYPE svg PUBLIC "-//W3C//DTD SVG 1.1//EN"
 "http://www.w3.org/Graphics/SVG/1.1/DTD/svg11.dtd">
<!-- Generated by graphviz version 2.40.1 (20161225.0304)
 -->
<!-- Title: eBoard/eBoard.h Pages: 1 -->
<!--zoomable 151 -->
<svg id="main" version="1.1" xmlns="http://www.w3.org/2000/svg" xmlns:xlink="http://www.w3.org/1999/xlink" xml:space="preserve" onload="init(evt)">
<style type="text/css"><![CDATA[
.edge:hover path { stroke: red; }
.edge:hover polygon { stroke: red; fill: red; }
]]></style>
<script type="text/javascript"><![CDATA[
var edges = document.getElementsByTagName('g');
if (edges && edges.length) {
  for (var i=0;i<edges.length;i++) {
    if (edges[i].id.substr(0,4)=='edge') {
      edges[i].setAttribute('class','edge');
    }
  }
}
]]></script>
        <defs>
                <circle id="rim" cx="0" cy="0" r="7"/>
                <circle id="rim2" cx="0" cy="0" r="3.5"/>
                <g id="zoomPlus">
                        <use xlink:href="#rim" fill="#404040">
                                <set attributeName="fill" to="#808080" begin="zoomplus.mouseover" end="zoomplus.mouseout"/>
                        </use>
                        <path d="M-4,0h8M0,-4v8" fill="none" stroke="white" stroke-width="1.5" pointer-events="none"/>
                </g>
                <g id="zoomMin">
                        <use xlink:href="#rim" fill="#404040">
                                <set attributeName="fill" to="#808080" begin="zoomminus.mouseover" end="zoomminus.mouseout"/>
                        </use>
                        <path d="M-4,0h8" fill="none" stroke="white" stroke-width="1.5" pointer-events="none"/>
                </g>
                <g id="dirArrow">
                        <path fill="none" stroke="white" stroke-width="1.5" d="M0,-3.0v7 M-2.5,-0.5L0,-3.0L2.5,-0.5"/>
                </g>
               <g id="resetDef">
                       <use xlink:href="#rim2" fill="#404040">
                               <set attributeName="fill" to="#808080" begin="reset.mouseover" end="reset.mouseout"/>
                       </use>
               </g>
        </defs>

<script type="text/javascript">
var viewWidth = 1843;
var viewHeight = 151;
var sectionId = 'dynsection-0';
</script>
<script xlink:href="svgpan.js"/>
<svg id="graph" class="graph">
<g id="viewport">
<title>eBoard/eBoard.h</title>
<polygon fill="#ffffff" stroke="transparent" points="-4,4 -4,-147 1838.5,-147 1838.5,4 -4,4"/>
<!-- Node0 -->
<g id="node1" class="node">
<title>Node0</title>
<polygon fill="#bfbfbf" stroke="#000000" points="771,-123.5 771,-142.5 912,-142.5 912,-123.5 771,-123.5"/>
<text text-anchor="middle" x="841.5" y="-130.5" font-family="Helvetica,sans-Serif" font-size="10.00" fill="#000000">eBoard/eBoard.h</text>
</g>
<!-- Node1 -->
<g id="node2" class="node">
<title>Node1</title>
<g id="a_node2"><a xlink:href="eagle__PreprocessorControl_8h.html" target="_top" xlink:title="source/eagle_Preprocessor\lControl.h">
<polygon fill="#ffffff" stroke="#000000" points="0,-56.5 0,-86.5 143,-86.5 143,-56.5 0,-56.5"/>
<text text-anchor="start" x="8" y="-74.5" font-family="Helvetica,sans-Serif" font-size="10.00" fill="#000000">source/eagle_Preprocessor</text>
<text text-anchor="middle" x="71.5" y="-63.5" font-family="Helvetica,sans-Serif" font-size="10.00" fill="#000000">Control.h</text>
</a>
</g>
</g>
<!-- Node0&#45;&gt;Node1 -->
<g id="edge1" class="edge">
<title>Node0&#45;&gt;Node1</title>
<path fill="none" stroke="#191970" d="M770.6912,-131.1938C647.1514,-127.4032 384.1094,-116.4989 153.3141,-87.144"/>
<polygon fill="#191970" stroke="#191970" points="153.7543,-83.6719 143.3895,-85.8676 152.8613,-90.6147 153.7543,-83.6719"/>
</g>
<!-- Node2 -->
<g id="node3" class="node">
<title>Node2</title>
<polygon fill="#ffffff" stroke="#bfbfbf" points="161,-62 161,-81 250,-81 250,-62 161,-62"/>
<text text-anchor="middle" x="205.5" y="-69" font-family="Helvetica,sans-Serif" font-size="10.00" fill="#000000">avr/pgmspace.h</text>
</g>
<!-- Node0&#45;&gt;Node2 -->
<g id="edge2" class="edge">
<title>Node0&#45;&gt;Node2</title>
<path fill="none" stroke="#191970" d="M770.9798,-129.2576C638.0239,-121.9002 354.9895,-104.7206 258.5,-87 253.7412,-86.126 248.7989,-84.9943 243.9304,-83.7403"/>
<polygon fill="#191970" stroke="#191970" points="244.6936,-80.3202 234.1231,-81.0381 242.8341,-87.0687 244.6936,-80.3202"/>
</g>
<!-- Node3 -->
<g id="node4" class="node">
<title>Node3</title>
<polygon fill="#ffffff" stroke="#bfbfbf" points="268,-62 268,-81 327,-81 327,-62 268,-62"/>
<text text-anchor="middle" x="297.5" y="-69" font-family="Helvetica,sans-Serif" font-size="10.00" fill="#000000">Arduino.h</text>
</g>
<!-- Node0&#45;&gt;Node3 -->
<g id="edge3" class="edge">
<title>Node0&#45;&gt;Node3</title>
<path fill="none" stroke="#191970" d="M770.8888,-129.1694C651.8125,-122.2765 416.1676,-106.6532 335.5,-87 332.7094,-86.3201 329.8554,-85.47 327.0271,-84.5201"/>
<polygon fill="#191970" stroke="#191970" points="328.2325,-81.2342 317.6401,-81.0087 325.78,-87.7906 328.2325,-81.2342"/>
</g>
<!-- Node4 -->
<g id="node5" class="node">
<title>Node4</title>
<g id="a_node5"><a xlink:href="eagle__Comfort_8h.html" target="_top" xlink:title="source/eagle_Comfort.h">
<polygon fill="#ffffff" stroke="#000000" points="345,-62 345,-81 470,-81 470,-62 345,-62"/>
<text text-anchor="middle" x="407.5" y="-69" font-family="Helvetica,sans-Serif" font-size="10.00" fill="#000000">source/eagle_Comfort.h</text>
</a>
</g>
</g>
<!-- Node0&#45;&gt;Node4 -->
<g id="edge4" class="edge">
<title>Node0&#45;&gt;Node4</title>
<path fill="none" stroke="#191970" d="M770.8225,-125.8306C697.6637,-117.9858 580.1969,-104.2043 479.5,-87 472.8102,-85.857 465.7993,-84.5217 458.888,-83.1229"/>
<polygon fill="#191970" stroke="#191970" points="459.3856,-79.6516 448.8825,-81.0431 457.9609,-86.5051 459.3856,-79.6516"/>
</g>
<!-- Node5 -->
<g id="node6" class="node">
<title>Node5</title>
<polygon fill="#ffffff" stroke="#bfbfbf" points="488.5,-62 488.5,-81 538.5,-81 538.5,-62 488.5,-62"/>
<text text-anchor="middle" x="513.5" y="-69" font-family="Helvetica,sans-Serif" font-size="10.00" fill="#000000">avr/io.h</text>
</g>
<!-- Node0&#45;&gt;Node5 -->
<g id="edge5" class="edge">
<title>Node0&#45;&gt;Node5</title>
<path fill="none" stroke="#191970" d="M770.8047,-127.3858C710.4929,-121.3138 621.9729,-109.3429 547.5,-87 545.5893,-86.4268 543.6471,-85.7676 541.7085,-85.0514"/>
<polygon fill="#191970" stroke="#191970" points="542.7869,-81.7102 532.208,-81.1293 540.1157,-88.1805 542.7869,-81.7102"/>
</g>
<!-- Node6 -->
<g id="node7" class="node">
<title>Node6</title>
<polygon fill="#ffffff" stroke="#bfbfbf" points="556.5,-62 556.5,-81 632.5,-81 632.5,-62 556.5,-62"/>
<text text-anchor="middle" x="594.5" y="-69" font-family="Helvetica,sans-Serif" font-size="10.00" fill="#000000">avr/interrupt.h</text>
</g>
<!-- Node0&#45;&gt;Node6 -->
<g id="edge6" class="edge">
<title>Node0&#45;&gt;Node6</title>
<path fill="none" stroke="#191970" d="M794.3143,-123.4352C753.5893,-114.8739 693.3171,-101.4699 641.5,-87 638.3553,-86.1219 635.1087,-85.1629 631.8596,-84.1665"/>
<polygon fill="#191970" stroke="#191970" points="632.7946,-80.7913 622.2045,-81.108 630.6807,-87.4645 632.7946,-80.7913"/>
</g>
<!-- Node7 -->
<g id="node8" class="node">
<title>Node7</title>
<g id="a_node8"><a xlink:href="eagle__Twi_8h.html" target="_top" xlink:title="source/eagle_Twi.h">
<polygon fill="#ffffff" stroke="#000000" points="651,-62 651,-81 758,-81 758,-62 651,-62"/>
<text text-anchor="middle" x="704.5" y="-69" font-family="Helvetica,sans-Serif" font-size="10.00" fill="#000000">source/eagle_Twi.h</text>
</a>
</g>
</g>
<!-- Node0&#45;&gt;Node7 -->
<g id="edge7" class="edge">
<title>Node0&#45;&gt;Node7</title>
<path fill="none" stroke="#191970" d="M820.0938,-123.3906C797.2717,-113.1457 760.9321,-96.8326 735.0943,-85.2339"/>
<polygon fill="#191970" stroke="#191970" points="736.3123,-81.9443 725.7559,-81.0419 733.4455,-88.3303 736.3123,-81.9443"/>
</g>
<!-- Node9 -->
<g id="node10" class="node">
<title>Node9</title>
<g id="a_node10"><a xlink:href="eagle__TwoWire_8h.html" target="_top" xlink:title="source/eagle_TwoWire.h">
<polygon fill="#ffffff" stroke="#000000" points="776,-62 776,-81 907,-81 907,-62 776,-62"/>
<text text-anchor="middle" x="841.5" y="-69" font-family="Helvetica,sans-Serif" font-size="10.00" fill="#000000">source/eagle_TwoWire.h</text>
</a>
</g>
</g>
<!-- Node0&#45;&gt;Node9 -->
<g id="edge9" class="edge">
<title>Node0&#45;&gt;Node9</title>
<path fill="none" stroke="#191970" d="M841.5,-123.3906C841.5,-114.8657 841.5,-102.1392 841.5,-91.4235"/>
<polygon fill="#191970" stroke="#191970" points="845.0001,-91.2448 841.5,-81.2449 838.0001,-91.2449 845.0001,-91.2448"/>
</g>
<!-- Node13 -->
<g id="node14" class="node">
<title>Node13</title>
<g id="a_node14"><a xlink:href="eagle__SPI_8h.html" target="_top" xlink:title="source/eagle_SPI.h">
<polygon fill="#ffffff" stroke="#000000" points="925,-62 925,-81 1030,-81 1030,-62 925,-62"/>
<text text-anchor="middle" x="977.5" y="-69" font-family="Helvetica,sans-Serif" font-size="10.00" fill="#000000">source/eagle_SPI.h</text>
</a>
</g>
</g>
<!-- Node0&#45;&gt;Node13 -->
<g id="edge14" class="edge">
<title>Node0&#45;&gt;Node13</title>
<path fill="none" stroke="#191970" d="M862.75,-123.3906C885.4055,-113.1457 921.4798,-96.8326 947.1291,-85.2339"/>
<polygon fill="#191970" stroke="#191970" points="948.7297,-88.3514 956.3992,-81.0419 945.8454,-81.9732 948.7297,-88.3514"/>
</g>
<!-- Node15 -->
<g id="node16" class="node">
<title>Node15</title>
<polygon fill="#ffffff" stroke="#bfbfbf" points="1048,-62 1048,-81 1105,-81 1105,-62 1048,-62"/>
<text text-anchor="middle" x="1076.5" y="-69" font-family="Helvetica,sans-Serif" font-size="10.00" fill="#000000">avr/wdt.h</text>
</g>
<!-- Node0&#45;&gt;Node15 -->
<g id="edge16" class="edge">
<title>Node0&#45;&gt;Node15</title>
<path fill="none" stroke="#191970" d="M892.297,-123.4391C932.4364,-115.3351 989.6411,-102.5616 1038.5,-87 1040.6512,-86.3148 1042.8521,-85.5618 1045.0574,-84.7682"/>
<polygon fill="#191970" stroke="#191970" points="1046.5235,-87.9548 1054.6137,-81.1139 1044.0232,-81.4166 1046.5235,-87.9548"/>
</g>
<!-- Node16 -->
<g id="node17" class="node">
<title>Node16</title>
<g id="a_node17"><a xlink:href="eagle__SoftwareSerial_8h.html" target="_top" xlink:title="source/eagle_SoftwareSerial.h">
<polygon fill="#ffffff" stroke="#000000" points="1123,-62 1123,-81 1278,-81 1278,-62 1123,-62"/>
<text text-anchor="middle" x="1200.5" y="-69" font-family="Helvetica,sans-Serif" font-size="10.00" fill="#000000">source/eagle_SoftwareSerial.h</text>
</a>
</g>
</g>
<!-- Node0&#45;&gt;Node16 -->
<g id="edge17" class="edge">
<title>Node0&#45;&gt;Node16</title>
<path fill="none" stroke="#191970" d="M898.5715,-123.4979C953.626,-114.2962 1039.2989,-99.884 1113.5,-87 1121.3449,-85.6378 1129.5846,-84.191 1137.7366,-82.7497"/>
<polygon fill="#191970" stroke="#191970" points="1138.3689,-86.1923 1147.6044,-81.0005 1137.147,-79.2997 1138.3689,-86.1923"/>
</g>
<!-- Node17 -->
<g id="node18" class="node">
<title>Node17</title>
<g id="a_node18"><a xlink:href="eagle__Servo_8h.html" target="_top" xlink:title="source/eagle_Servo.h">
<polygon fill="#ffffff" stroke="#000000" points="1296.5,-62 1296.5,-81 1412.5,-81 1412.5,-62 1296.5,-62"/>
<text text-anchor="middle" x="1354.5" y="-69" font-family="Helvetica,sans-Serif" font-size="10.00" fill="#000000">source/eagle_Servo.h</text>
</a>
</g>
</g>
<!-- Node0&#45;&gt;Node17 -->
<g id="edge18" class="edge">
<title>Node0&#45;&gt;Node17</title>
<path fill="none" stroke="#191970" d="M912.3726,-128.3344C1000.4777,-121.9242 1155.2676,-108.6576 1286.5,-87 1293.0819,-85.9138 1299.9803,-84.5772 1306.7541,-83.1483"/>
<polygon fill="#191970" stroke="#191970" points="1307.5173,-86.5642 1316.5379,-81.0072 1306.0208,-79.726 1307.5173,-86.5642"/>
</g>
<!-- Node18 -->
<g id="node19" class="node">
<title>Node18</title>
<g id="a_node19"><a xlink:href="eagle__Assert_8h.html" target="_top" xlink:title="source/eagle_Assert.h">
<polygon fill="#ffffff" stroke="#000000" points="1430.5,-62 1430.5,-81 1548.5,-81 1548.5,-62 1430.5,-62"/>
<text text-anchor="middle" x="1489.5" y="-69" font-family="Helvetica,sans-Serif" font-size="10.00" fill="#000000">source/eagle_Assert.h</text>
</a>
</g>
</g>
<!-- Node0&#45;&gt;Node18 -->
<g id="edge19" class="edge">
<title>Node0&#45;&gt;Node18</title>
<path fill="none" stroke="#191970" d="M912.4132,-130.6877C1022.0969,-126.3668 1239.2707,-114.8449 1421.5,-87 1428.2553,-85.9678 1435.3369,-84.6374 1442.2728,-83.1904"/>
<polygon fill="#191970" stroke="#191970" points="1443.2512,-86.5593 1452.2753,-81.0081 1441.7591,-79.7202 1443.2512,-86.5593"/>
</g>
<!-- Node20 -->
<g id="node21" class="node">
<title>Node20</title>
<g id="a_node21"><a xlink:href="eagle__Checks_8h.html" target="_top" xlink:title="source/eagle_Checks.h">
<polygon fill="#ffffff" stroke="#000000" points="1566.5,-62 1566.5,-81 1690.5,-81 1690.5,-62 1566.5,-62"/>
<text text-anchor="middle" x="1628.5" y="-69" font-family="Helvetica,sans-Serif" font-size="10.00" fill="#000000">source/eagle_Checks.h</text>
</a>
</g>
</g>
<!-- Node0&#45;&gt;Node20 -->
<g id="edge21" class="edge">
<title>Node0&#45;&gt;Node20</title>
<path fill="none" stroke="#191970" d="M912.2361,-131.9838C1041.1426,-129.3497 1322.6706,-119.9843 1557.5,-87 1564.8842,-85.9628 1572.6431,-84.5784 1580.2101,-83.0624"/>
<polygon fill="#191970" stroke="#191970" points="1580.9296,-86.4877 1589.9996,-81.0117 1579.4944,-79.6364 1580.9296,-86.4877"/>
</g>
<!-- Node21 -->
<g id="node22" class="node">
<title>Node21</title>
<g id="a_node22"><a xlink:href="eagle__HelpMot_8h.html" target="_top" xlink:title="source/eagle_HelpMot.h">
<polygon fill="#ffffff" stroke="#000000" points="1708.5,-62 1708.5,-81 1834.5,-81 1834.5,-62 1708.5,-62"/>
<text text-anchor="middle" x="1771.5" y="-69" font-family="Helvetica,sans-Serif" font-size="10.00" fill="#000000">source/eagle_HelpMot.h</text>
</a>
</g>
</g>
<!-- Node0&#45;&gt;Node21 -->
<g id="edge22" class="edge">
<title>Node0&#45;&gt;Node21</title>
<path fill="none" stroke="#191970" d="M912.0446,-130.661C1088.9217,-124.5643 1547.9448,-107.246 1699.5,-87 1707.0785,-85.9876 1715.045,-84.6025 1722.8047,-83.074"/>
<polygon fill="#191970" stroke="#191970" points="1723.7515,-86.4524 1732.8364,-81.0013 1722.3351,-79.5971 1723.7515,-86.4524"/>
</g>
<!-- Node8 -->
<g id="node9" class="node">
<title>Node8</title>
<polygon fill="#ffffff" stroke="#bfbfbf" points="674.5,-.5 674.5,-19.5 732.5,-19.5 732.5,-.5 674.5,-.5"/>
<text text-anchor="middle" x="703.5" y="-7.5" font-family="Helvetica,sans-Serif" font-size="10.00" fill="#000000">inttypes.h</text>
</g>
<!-- Node7&#45;&gt;Node8 -->
<g id="edge8" class="edge">
<title>Node7&#45;&gt;Node8</title>
<path fill="none" stroke="#191970" d="M704.3438,-61.8906C704.2051,-53.3657 703.9982,-40.6392 703.824,-29.9235"/>
<polygon fill="#191970" stroke="#191970" points="707.3207,-29.6866 703.6585,-19.7449 700.3216,-29.8005 707.3207,-29.6866"/>
</g>
<!-- Node9&#45;&gt;Node8 -->
<g id="edge10" class="edge">
<title>Node9&#45;&gt;Node8</title>
<path fill="none" stroke="#191970" d="M819.9375,-61.8906C796.9488,-51.6457 760.344,-35.3326 734.3176,-23.7339"/>
<polygon fill="#191970" stroke="#191970" points="735.4698,-20.4156 724.9111,-19.5419 732.6204,-26.8095 735.4698,-20.4156"/>
</g>
<!-- Node10 -->
<g id="node11" class="node">
<title>Node10</title>
<polygon fill="#ffffff" stroke="#bfbfbf" points="750.5,-.5 750.5,-19.5 806.5,-19.5 806.5,-.5 750.5,-.5"/>
<text text-anchor="middle" x="778.5" y="-7.5" font-family="Helvetica,sans-Serif" font-size="10.00" fill="#000000">Stream.h</text>
</g>
<!-- Node9&#45;&gt;Node10 -->
<g id="edge11" class="edge">
<title>Node9&#45;&gt;Node10</title>
<path fill="none" stroke="#191970" d="M831.6563,-61.8906C822.0961,-52.5581 807.3777,-38.1902 795.8505,-26.9374"/>
<polygon fill="#191970" stroke="#191970" points="798.0832,-24.2257 788.4825,-19.7449 793.1934,-29.2348 798.0832,-24.2257"/>
</g>
<!-- Node11 -->
<g id="node12" class="node">
<title>Node11</title>
<polygon fill="#ffffff" stroke="#bfbfbf" points="825,-.5 825,-19.5 872,-19.5 872,-.5 825,-.5"/>
<text text-anchor="middle" x="848.5" y="-7.5" font-family="Helvetica,sans-Serif" font-size="10.00" fill="#000000">stdlib.h</text>
</g>
<!-- Node9&#45;&gt;Node11 -->
<g id="edge12" class="edge">
<title>Node9&#45;&gt;Node11</title>
<path fill="none" stroke="#191970" d="M842.5938,-61.8906C843.5641,-53.3657 845.0126,-40.6392 846.2323,-29.9235"/>
<polygon fill="#191970" stroke="#191970" points="849.7374,-30.0766 847.3908,-19.7449 842.7823,-29.2849 849.7374,-30.0766"/>
</g>
<!-- Node12 -->
<g id="node13" class="node">
<title>Node12</title>
<polygon fill="#ffffff" stroke="#bfbfbf" points="890.5,-.5 890.5,-19.5 938.5,-19.5 938.5,-.5 890.5,-.5"/>
<text text-anchor="middle" x="914.5" y="-7.5" font-family="Helvetica,sans-Serif" font-size="10.00" fill="#000000">string.h</text>
</g>
<!-- Node9&#45;&gt;Node12 -->
<g id="edge13" class="edge">
<title>Node9&#45;&gt;Node12</title>
<path fill="none" stroke="#191970" d="M852.9063,-61.8906C864.1969,-52.3786 881.6967,-37.6357 895.1619,-26.2917"/>
<polygon fill="#191970" stroke="#191970" points="897.5402,-28.8646 902.9329,-19.7449 893.0301,-23.5111 897.5402,-28.8646"/>
</g>
<!-- Node14 -->
<g id="node15" class="node">
<title>Node14</title>
<polygon fill="#ffffff" stroke="#bfbfbf" points="956.5,-.5 956.5,-19.5 1002.5,-19.5 1002.5,-.5 956.5,-.5"/>
<text text-anchor="middle" x="979.5" y="-7.5" font-family="Helvetica,sans-Serif" font-size="10.00" fill="#000000">stdio.h</text>
</g>
<!-- Node13&#45;&gt;Node14 -->
<g id="edge15" class="edge">
<title>Node13&#45;&gt;Node14</title>
<path fill="none" stroke="#191970" d="M977.8125,-61.8906C978.0897,-53.3657 978.5036,-40.6392 978.8521,-29.9235"/>
<polygon fill="#191970" stroke="#191970" points="982.3561,-29.8534 979.1831,-19.7449 975.3598,-29.6258 982.3561,-29.8534"/>
</g>
<!-- Node19 -->
<g id="node20" class="node">
<title>Node19</title>
<polygon fill="#ffffff" stroke="#bfbfbf" points="1463.5,-.5 1463.5,-19.5 1515.5,-19.5 1515.5,-.5 1463.5,-.5"/>
<text text-anchor="middle" x="1489.5" y="-7.5" font-family="Helvetica,sans-Serif" font-size="10.00" fill="#000000">assert.h</text>
</g>
<!-- Node18&#45;&gt;Node19 -->
<g id="edge20" class="edge">
<title>Node18&#45;&gt;Node19</title>
<path fill="none" stroke="#191970" d="M1489.5,-61.8906C1489.5,-53.3657 1489.5,-40.6392 1489.5,-29.9235"/>
<polygon fill="#191970" stroke="#191970" points="1493.0001,-29.7448 1489.5,-19.7449 1486.0001,-29.7449 1493.0001,-29.7448"/>
</g>
</g>
</svg>
        <g id="navigator" transform="translate(0 0)" fill="#404254">
                <rect fill="#f2f5e9" fill-opacity="0.5" stroke="#606060" stroke-width=".5" x="0" y="0" width="60" height="60"/>
                <use id="zoomplus" xlink:href="#zoomPlus" x="17" y="9" onmousedown="handleZoom(evt,'in')"/>
                <use id="zoomminus" xlink:href="#zoomMin" x="42" y="9" onmousedown="handleZoom(evt,'out')"/>
                <use id="reset" xlink:href="#resetDef" x="30" y="36" onmousedown="handleReset()"/>
                <g id="arrowUp" xlink:href="#dirArrow" transform="translate(30 24)" onmousedown="handlePan(0,-1)">
                  <use xlink:href="#rim" fill="#404040">
                        <set attributeName="fill" to="#808080" begin="arrowUp.mouseover" end="arrowUp.mouseout"/>
                  </use>
                  <path fill="none" stroke="white" stroke-width="1.5" d="M0,-3.0v7 M-2.5,-0.5L0,-3.0L2.5,-0.5"/>
                </g>
                <g id="arrowRight" xlink:href="#dirArrow" transform="rotate(90) translate(36 -43)" onmousedown="handlePan(1,0)">
                  <use xlink:href="#rim" fill="#404040">
                        <set attributeName="fill" to="#808080" begin="arrowRight.mouseover" end="arrowRight.mouseout"/>
                  </use>
                  <path fill="none" stroke="white" stroke-width="1.5" d="M0,-3.0v7 M-2.5,-0.5L0,-3.0L2.5,-0.5"/>
                </g>
                <g id="arrowDown" xlink:href="#dirArrow" transform="rotate(180) translate(-30 -48)" onmousedown="handlePan(0,1)">
                  <use xlink:href="#rim" fill="#404040">
                        <set attributeName="fill" to="#808080" begin="arrowDown.mouseover" end="arrowDown.mouseout"/>
                  </use>
                  <path fill="none" stroke="white" stroke-width="1.5" d="M0,-3.0v7 M-2.5,-0.5L0,-3.0L2.5,-0.5"/>
                </g>
                <g id="arrowLeft" xlink:href="#dirArrow" transform="rotate(270) translate(-36 17)" onmousedown="handlePan(-1,0)">
                  <use xlink:href="#rim" fill="#404040">
                        <set attributeName="fill" to="#808080" begin="arrowLeft.mouseover" end="arrowLeft.mouseout"/>
                  </use>
                  <path fill="none" stroke="white" stroke-width="1.5" d="M0,-3.0v7 M-2.5,-0.5L0,-3.0L2.5,-0.5"/>
                </g>
        </g>
        <svg viewBox="0 0 15 15" width="100%" height="30px" preserveAspectRatio="xMaxYMin meet">
         <g id="arrow_out" transform="scale(0.3 0.3)">
          <a xlink:href="eBoard__comment_8h__incl_org.svg" target="_base">
           <rect id="button" ry="5" rx="5" y="6" x="6" height="38" width="38"
                fill="#f2f5e9" fill-opacity="0.5" stroke="#606060" stroke-width="1.0"/>
           <path id="arrow"
             d="M 11.500037,31.436501 C 11.940474,20.09759 22.043105,11.32322 32.158766,21.979434 L 37.068811,17.246167 C 37.068811,17.246167 37.088388,32 37.088388,32 L 22.160133,31.978069 C 22.160133,31.978069 26.997745,27.140456 26.997745,27.140456 C 18.528582,18.264221 13.291696,25.230495 11.500037,31.436501 z"
             style="fill:#404040;"/>
          </a>
         </g>
        </svg>
</svg>
