<?xml version="1.0" encoding="UTF-8" standalone="no"?>
<!DOCTYPE svg PUBLIC "-//W3C//DTD SVG 1.1//EN"
 "http://www.w3.org/Graphics/SVG/1.1/DTD/svg11.dtd">
<!-- Generated by graphviz version 2.38.0 (20140413.2041)
 -->
<!-- Title: checkPin Pages: 1 -->
<svg width="239pt" height="65pt"
 viewBox="0.00 0.00 239.00 65.00" xmlns="http://www.w3.org/2000/svg" xmlns:xlink="http://www.w3.org/1999/xlink">
<g id="graph0" class="graph" transform="scale(1 1) rotate(0) translate(4 61)">
<title>checkPin</title>
<polygon fill="white" stroke="none" points="-4,4 -4,-61 235,-61 235,4 -4,4"/>
<!-- Node16 -->
<g id="node1" class="node"><title>Node16</title>
<polygon fill="#bfbfbf" stroke="black" points="0,-19.5 0,-38.5 57,-38.5 57,-19.5 0,-19.5"/>
<text text-anchor="middle" x="28.5" y="-26.5" font-family="Helvetica,sans-Serif" font-size="10.00">checkPin</text>
</g>
<!-- Node17 -->
<g id="node2" class="node"><title>Node17</title>
<g id="a_node2"><a xlink:href="eBoard__comment_8h.html#aca4f96af7c6736bf2b61c88d731af741" target="_top" xlink:title="read a digital state from an INPUTpin ">
<polygon fill="white" stroke="black" points="181,-19.5 181,-38.5 231,-38.5 231,-19.5 181,-19.5"/>
<text text-anchor="middle" x="206" y="-26.5" font-family="Helvetica,sans-Serif" font-size="10.00">readPin</text>
</a>
</g>
</g>
<!-- Node16&#45;&gt;Node17 -->
<g id="edge1" class="edge"><title>Node16&#45;&gt;Node17</title>
<path fill="none" stroke="midnightblue" d="M67.4753,-29C101.947,-29 151.73,-29 180.988,-29"/>
<polygon fill="midnightblue" stroke="midnightblue" points="67.3085,-25.5001 57.3085,-29 67.3085,-32.5001 67.3085,-25.5001"/>
</g>
<!-- Node18 -->
<g id="node3" class="node"><title>Node18</title>
<g id="a_node3"><a xlink:href="eBoard__comment_8h.html#ad6d4c1b1e3b495ed81fb28fac04d2bd6" target="_top" xlink:title="write a boolean state to an output pin ">
<polygon fill="white" stroke="black" points="93,-0.5 93,-19.5 145,-19.5 145,-0.5 93,-0.5"/>
<text text-anchor="middle" x="119" y="-7.5" font-family="Helvetica,sans-Serif" font-size="10.00">writePin</text>
</a>
</g>
</g>
<!-- Node16&#45;&gt;Node18 -->
<g id="edge3" class="edge"><title>Node16&#45;&gt;Node18</title>
<path fill="none" stroke="midnightblue" d="M67.0255,-20.9437C75.7633,-19.0678 84.8594,-17.1149 92.9076,-15.3871"/>
<polygon fill="midnightblue" stroke="midnightblue" points="66.0593,-17.5713 57.0168,-23.0924 67.5287,-24.4153 66.0593,-17.5713"/>
</g>
<!-- Node17&#45;&gt;Node17 -->
<g id="edge2" class="edge"><title>Node17&#45;&gt;Node17</title>
<path fill="none" stroke="midnightblue" d="M190.075,-48.4C191.138,-53.3146 196.447,-57 206,-57 221.285,-57 225.704,-47.5653 219.255,-38.7571"/>
<polygon fill="midnightblue" stroke="midnightblue" points="193.449,-49.3284 192.745,-38.7571 186.703,-47.4604 193.449,-49.3284"/>
</g>
<!-- Node18&#45;&gt;Node17 -->
<g id="edge4" class="edge"><title>Node18&#45;&gt;Node17</title>
<path fill="none" stroke="midnightblue" d="M154.926,-17.807C163.592,-19.744 172.691,-21.7781 180.721,-23.5728"/>
<polygon fill="midnightblue" stroke="midnightblue" points="155.566,-14.3637 145.043,-15.5979 154.039,-21.1951 155.566,-14.3637"/>
</g>
</g>
</svg>
