<?xml version="1.0" encoding="UTF-8" standalone="no"?>
<!DOCTYPE svg PUBLIC "-//W3C//DTD SVG 1.1//EN"
 "http://www.w3.org/Graphics/SVG/1.1/DTD/svg11.dtd">
<!-- Generated by graphviz version 2.38.0 (20140413.2041)
 -->
<!-- Title: _serial Pages: 1 -->
<svg width="311pt" height="142pt"
 viewBox="0.00 0.00 311.00 142.00" xmlns="http://www.w3.org/2000/svg" xmlns:xlink="http://www.w3.org/1999/xlink">
<g id="graph0" class="graph" transform="scale(1 1) rotate(0) translate(4 138)">
<title>_serial</title>
<polygon fill="white" stroke="none" points="-4,4 -4,-138 307,-138 307,4 -4,4"/>
<!-- Node41 -->
<g id="node1" class="node"><title>Node41</title>
<polygon fill="#bfbfbf" stroke="black" points="0,-57.5 0,-76.5 45,-76.5 45,-57.5 0,-57.5"/>
<text text-anchor="middle" x="22.5" y="-64.5" font-family="Helvetica,sans-Serif" font-size="10.00">_serial</text>
</g>
<!-- Node42 -->
<g id="node2" class="node"><title>Node42</title>
<g id="a_node2"><a xlink:href="eBoard__comment_8h.html#a77e51ddd601b32f343b7addc1f602d07" target="_top" xlink:title="[BLUETOOTH] checks if theres a lack of Data! ">
<polygon fill="white" stroke="black" points="81,-114.5 81,-133.5 163,-133.5 163,-114.5 81,-114.5"/>
<text text-anchor="middle" x="122" y="-121.5" font-family="Helvetica,sans-Serif" font-size="10.00">checkOverflow</text>
</a>
</g>
</g>
<!-- Node41&#45;&gt;Node42 -->
<g id="edge1" class="edge"><title>Node41&#45;&gt;Node42</title>
<path fill="none" stroke="midnightblue" d="M45.1122,-82.3237C55.7071,-89.5644 68.7877,-98.1093 81,-105 86.8922,-108.325 93.4601,-111.609 99.5429,-114.487"/>
<polygon fill="midnightblue" stroke="midnightblue" points="47.0838,-79.4318 36.8708,-76.6132 43.097,-85.1855 47.0838,-79.4318"/>
</g>
<!-- Node43 -->
<g id="node3" class="node"><title>Node43</title>
<g id="a_node3"><a xlink:href="eBoard__comment_8h.html#a013ff57a97587f0064777a3a28f9a2dd" target="_top" xlink:title="[BLUETOOTH] reads a single value from bluetooth if available! ">
<polygon fill="white" stroke="black" points="97,-76.5 97,-95.5 147,-95.5 147,-76.5 97,-76.5"/>
<text text-anchor="middle" x="122" y="-83.5" font-family="Helvetica,sans-Serif" font-size="10.00">readVal</text>
</a>
</g>
</g>
<!-- Node41&#45;&gt;Node43 -->
<g id="edge2" class="edge"><title>Node41&#45;&gt;Node43</title>
<path fill="none" stroke="midnightblue" d="M54.9982,-73.1381C68.5175,-75.7726 84.069,-78.8032 96.6795,-81.2606"/>
<polygon fill="midnightblue" stroke="midnightblue" points="55.6233,-69.6942 45.1384,-71.2167 54.2843,-76.5649 55.6233,-69.6942"/>
</g>
<!-- Node45 -->
<g id="node5" class="node"><title>Node45</title>
<g id="a_node5"><a xlink:href="eBoard__comment_8h.html#a7dfd9b79bc5a37d7df40207afbc5431f" target="_top" xlink:title="this is a guard ">
<polygon fill="white" stroke="black" points="101.5,-38.5 101.5,-57.5 142.5,-57.5 142.5,-38.5 101.5,-38.5"/>
<text text-anchor="middle" x="122" y="-45.5" font-family="Helvetica,sans-Serif" font-size="10.00">setup</text>
</a>
</g>
</g>
<!-- Node41&#45;&gt;Node45 -->
<g id="edge4" class="edge"><title>Node41&#45;&gt;Node45</title>
<path fill="none" stroke="midnightblue" d="M55.1855,-60.8254C70.4098,-57.8586 88.1752,-54.3966 101.409,-51.8178"/>
<polygon fill="midnightblue" stroke="midnightblue" points="54.2843,-57.4351 45.1384,-62.7833 55.6233,-64.3058 54.2843,-57.4351"/>
</g>
<!-- Node46 -->
<g id="node6" class="node"><title>Node46</title>
<g id="a_node6"><a xlink:href="eBoard__comment_8h.html#abf785ff4ead72e3118dfaa8270c04f0c" target="_top" xlink:title="[BLUETOOTH] writes Data to bluetooth ">
<polygon fill="white" stroke="black" points="96,-0.5 96,-19.5 148,-19.5 148,-0.5 96,-0.5"/>
<text text-anchor="middle" x="122" y="-7.5" font-family="Helvetica,sans-Serif" font-size="10.00">writeVal</text>
</a>
</g>
</g>
<!-- Node41&#45;&gt;Node46 -->
<g id="edge5" class="edge"><title>Node41&#45;&gt;Node46</title>
<path fill="none" stroke="midnightblue" d="M45.1122,-51.6763C55.7071,-44.4356 68.7877,-35.8907 81,-29 86.8922,-25.6753 93.4601,-22.3913 99.5429,-19.5127"/>
<polygon fill="midnightblue" stroke="midnightblue" points="43.097,-48.8145 36.8708,-57.3868 47.0838,-54.5682 43.097,-48.8145"/>
</g>
<!-- Node44 -->
<g id="node4" class="node"><title>Node44</title>
<g id="a_node4"><a xlink:href="structRB14Scan.html#a35ff55470a07767513fb0c619ed78258" target="_top" xlink:title="RB14Scan::channel">
<polygon fill="white" stroke="black" points="199,-76.5 199,-95.5 303,-95.5 303,-76.5 199,-76.5"/>
<text text-anchor="middle" x="251" y="-83.5" font-family="Helvetica,sans-Serif" font-size="10.00">RB14Scan::channel</text>
</a>
</g>
</g>
<!-- Node43&#45;&gt;Node44 -->
<g id="edge3" class="edge"><title>Node43&#45;&gt;Node44</title>
<path fill="none" stroke="midnightblue" d="M157.369,-86C170.126,-86 184.885,-86 198.821,-86"/>
<polygon fill="midnightblue" stroke="midnightblue" points="157.187,-82.5001 147.187,-86 157.187,-89.5001 157.187,-82.5001"/>
</g>
<!-- Node47 -->
<g id="node7" class="node"><title>Node47</title>
<g id="a_node7"><a xlink:href="structRB14Scan.html#a2c3e020ffb6d8f23f6394e33c93964fc" target="_top" xlink:title="RB14Scan::write">
<polygon fill="white" stroke="black" points="205.5,-0.5 205.5,-19.5 296.5,-19.5 296.5,-0.5 205.5,-0.5"/>
<text text-anchor="middle" x="251" y="-7.5" font-family="Helvetica,sans-Serif" font-size="10.00">RB14Scan::write</text>
</a>
</g>
</g>
<!-- Node46&#45;&gt;Node47 -->
<g id="edge6" class="edge"><title>Node46&#45;&gt;Node47</title>
<path fill="none" stroke="midnightblue" d="M158.226,-10C172.835,-10 189.953,-10 205.423,-10"/>
<polygon fill="midnightblue" stroke="midnightblue" points="158.091,-6.5001 148.091,-10 158.091,-13.5001 158.091,-6.5001"/>
</g>
</g>
</svg>
