<?xml version="1.0" encoding="UTF-8" standalone="no"?>
<!DOCTYPE svg PUBLIC "-//W3C//DTD SVG 1.1//EN"
 "http://www.w3.org/Graphics/SVG/1.1/DTD/svg11.dtd">
<!-- Generated by graphviz version 2.38.0 (20140413.2041)
 -->
<!-- Title: src/eBoard.h Pages: 1 -->
<svg width="280pt" height="95pt"
 viewBox="0.00 0.00 279.50 95.00" xmlns="http://www.w3.org/2000/svg" xmlns:xlink="http://www.w3.org/1999/xlink">
<g id="graph0" class="graph" transform="scale(1 1) rotate(0) translate(4 91)">
<title>src/eBoard.h</title>
<polygon fill="white" stroke="none" points="-4,4 -4,-91 275.5,-91 275.5,4 -4,4"/>
<!-- Node15 -->
<g id="node1" class="node"><title>Node15</title>
<polygon fill="#bfbfbf" stroke="black" points="92,-67.5 92,-86.5 164,-86.5 164,-67.5 92,-67.5"/>
<text text-anchor="middle" x="128" y="-74.5" font-family="Helvetica,sans-Serif" font-size="10.00">src/eBoard.h</text>
</g>
<!-- Node16 -->
<g id="node2" class="node"><title>Node16</title>
<g id="a_node2"><a xlink:href="dancing__dragon_8cpp.html" target="_top" xlink:title="src/examples/dancing\l_dragon.cpp">
<polygon fill="white" stroke="black" points="0,-0.5 0,-30.5 112,-30.5 112,-0.5 0,-0.5"/>
<text text-anchor="start" x="8" y="-18.5" font-family="Helvetica,sans-Serif" font-size="10.00">src/examples/dancing</text>
<text text-anchor="middle" x="56" y="-7.5" font-family="Helvetica,sans-Serif" font-size="10.00">_dragon.cpp</text>
</a>
</g>
</g>
<!-- Node15&#45;&gt;Node16 -->
<g id="edge1" class="edge"><title>Node15&#45;&gt;Node16</title>
<path fill="none" stroke="midnightblue" d="M109.754,-60.9215C98.4485,-51.579 84.0275,-39.6616 72.969,-30.523"/>
<polygon fill="midnightblue" stroke="midnightblue" points="107.746,-63.8028 117.684,-67.4751 112.205,-58.4069 107.746,-63.8028"/>
</g>
<!-- Node17 -->
<g id="node3" class="node"><title>Node17</title>
<g id="a_node3"><a xlink:href="lcd__debug_8cpp.html" target="_top" xlink:title="src/examples/lcd_debug.cpp">
<polygon fill="white" stroke="black" points="130.5,-6 130.5,-25 271.5,-25 271.5,-6 130.5,-6"/>
<text text-anchor="middle" x="201" y="-13" font-family="Helvetica,sans-Serif" font-size="10.00">src/examples/lcd_debug.cpp</text>
</a>
</g>
</g>
<!-- Node15&#45;&gt;Node17 -->
<g id="edge2" class="edge"><title>Node15&#45;&gt;Node17</title>
<path fill="none" stroke="midnightblue" d="M146.437,-60.9727C160.399,-49.5925 179.076,-34.3694 190.56,-25.0091"/>
<polygon fill="midnightblue" stroke="midnightblue" points="143.999,-58.4442 138.459,-67.4751 148.422,-63.8701 143.999,-58.4442"/>
</g>
</g>
</svg>
