<?xml version="1.0" encoding="UTF-8" standalone="no"?>
<!DOCTYPE svg PUBLIC "-//W3C//DTD SVG 1.1//EN"
 "http://www.w3.org/Graphics/SVG/1.1/DTD/svg11.dtd">
<!-- Generated by graphviz version 2.38.0 (20140413.2041)
 -->
<!-- Title: readVal Pages: 1 -->
<svg width="396pt" height="127pt"
 viewBox="0.00 0.00 396.00 126.50" xmlns="http://www.w3.org/2000/svg" xmlns:xlink="http://www.w3.org/1999/xlink">
<g id="graph0" class="graph" transform="scale(1 1) rotate(0) translate(4 122.5)">
<title>readVal</title>
<polygon fill="white" stroke="none" points="-4,4 -4,-122.5 392,-122.5 392,4 -4,4"/>
<!-- Node141 -->
<g id="node1" class="node"><title>Node141</title>
<polygon fill="#bfbfbf" stroke="black" points="0,-55 0,-74 50,-74 50,-55 0,-55"/>
<text text-anchor="middle" x="25" y="-62" font-family="Helvetica,sans-Serif" font-size="10.00">readVal</text>
</g>
<!-- Node142 -->
<g id="node2" class="node"><title>Node142</title>
<g id="a_node2"><a xlink:href="eBoard_8h.html#acb51742a61b072bb500b6e0713d7dc2c" target="_top" xlink:title="_serial">
<polygon fill="white" stroke="black" points="130,-99 130,-118 175,-118 175,-99 130,-99"/>
<text text-anchor="middle" x="152.5" y="-106" font-family="Helvetica,sans-Serif" font-size="10.00">_serial</text>
</a>
</g>
</g>
<!-- Node141&#45;&gt;Node142 -->
<g id="edge1" class="edge"><title>Node141&#45;&gt;Node142</title>
<path fill="none" stroke="midnightblue" d="M47.434,-74.1198C58.7787,-79.0353 73.0142,-84.9275 86,-89.5 96.9178,-93.3443 109.049,-97.0232 119.874,-100.102"/>
<polygon fill="midnightblue" stroke="midnightblue" points="119.199,-103.547 129.771,-102.857 121.075,-96.8037 119.199,-103.547"/>
</g>
<!-- Node143 -->
<g id="node3" class="node"><title>Node143</title>
<g id="a_node3"><a xlink:href="classeagle__impl_1_1SoftwareSerial.html#a6a0c4bbe1cf6866ec54b98c6efdc4deb" target="_top" xlink:title="eagle_impl::SoftwareSerial\l::available">
<polygon fill="white" stroke="black" points="86,-49.5 86,-79.5 219,-79.5 219,-49.5 86,-49.5"/>
<text text-anchor="start" x="94" y="-67.5" font-family="Helvetica,sans-Serif" font-size="10.00">eagle_impl::SoftwareSerial</text>
<text text-anchor="middle" x="152.5" y="-56.5" font-family="Helvetica,sans-Serif" font-size="10.00">::available</text>
</a>
</g>
</g>
<!-- Node141&#45;&gt;Node143 -->
<g id="edge2" class="edge"><title>Node141&#45;&gt;Node143</title>
<path fill="none" stroke="midnightblue" d="M50.1977,-64.5C57.7824,-64.5 66.5939,-64.5 75.794,-64.5"/>
<polygon fill="midnightblue" stroke="midnightblue" points="75.8899,-68.0001 85.8899,-64.5 75.8899,-61.0001 75.8899,-68.0001"/>
</g>
<!-- Node145 -->
<g id="node5" class="node"><title>Node145</title>
<g id="a_node5"><a xlink:href="classeagle__impl_1_1SoftwareSerial.html#ac80b242424a292382f2ac3ea9d84ba43" target="_top" xlink:title="eagle_impl::SoftwareSerial\l::read">
<polygon fill="white" stroke="black" points="86,-0.5 86,-30.5 219,-30.5 219,-0.5 86,-0.5"/>
<text text-anchor="start" x="94" y="-18.5" font-family="Helvetica,sans-Serif" font-size="10.00">eagle_impl::SoftwareSerial</text>
<text text-anchor="middle" x="152.5" y="-7.5" font-family="Helvetica,sans-Serif" font-size="10.00">::read</text>
</a>
</g>
</g>
<!-- Node141&#45;&gt;Node145 -->
<g id="edge4" class="edge"><title>Node141&#45;&gt;Node145</title>
<path fill="none" stroke="midnightblue" d="M49.6183,-54.9522C60.6548,-50.5164 73.9831,-45.1963 86,-40.5 91.1724,-38.4786 96.5816,-36.3836 101.979,-34.3055"/>
<polygon fill="midnightblue" stroke="midnightblue" points="103.545,-37.4533 111.627,-30.6027 101.037,-30.918 103.545,-37.4533"/>
</g>
<!-- Node144 -->
<g id="node4" class="node"><title>Node144</title>
<g id="a_node4"><a xlink:href="classeagle__impl_1_1SoftwareSerial.html#a024231154a7cdf059ae7adae882297c5" target="_top" xlink:title="eagle_impl::SoftwareSerial\l::isListening">
<polygon fill="white" stroke="black" points="255,-24.5 255,-54.5 388,-54.5 388,-24.5 255,-24.5"/>
<text text-anchor="start" x="263" y="-42.5" font-family="Helvetica,sans-Serif" font-size="10.00">eagle_impl::SoftwareSerial</text>
<text text-anchor="middle" x="321.5" y="-31.5" font-family="Helvetica,sans-Serif" font-size="10.00">::isListening</text>
</a>
</g>
</g>
<!-- Node143&#45;&gt;Node144 -->
<g id="edge3" class="edge"><title>Node143&#45;&gt;Node144</title>
<path fill="none" stroke="midnightblue" d="M219.024,-54.6911C227.496,-53.4227 236.228,-52.1156 244.847,-50.8253"/>
<polygon fill="midnightblue" stroke="midnightblue" points="245.52,-54.2637 254.891,-49.3217 244.483,-47.3408 245.52,-54.2637"/>
</g>
<!-- Node145&#45;&gt;Node144 -->
<g id="edge5" class="edge"><title>Node145&#45;&gt;Node144</title>
<path fill="none" stroke="midnightblue" d="M219.024,-24.9166C227.496,-26.1342 236.228,-27.389 244.847,-28.6277"/>
<polygon fill="midnightblue" stroke="midnightblue" points="244.495,-32.113 254.891,-30.0712 245.491,-25.1842 244.495,-32.113"/>
</g>
</g>
</svg>
