<?xml version="1.0" encoding="UTF-8" standalone="no"?>
<!DOCTYPE svg PUBLIC "-//W3C//DTD SVG 1.1//EN"
 "http://www.w3.org/Graphics/SVG/1.1/DTD/svg11.dtd">
<!-- Generated by graphviz version 2.38.0 (20140413.2041)
 -->
<!-- Title: loop Pages: 1 -->
<svg width="129pt" height="46pt"
 viewBox="0.00 0.00 129.00 46.00" xmlns="http://www.w3.org/2000/svg" xmlns:xlink="http://www.w3.org/1999/xlink">
<g id="graph0" class="graph" transform="scale(1 1) rotate(0) translate(4 42)">
<title>loop</title>
<polygon fill="white" stroke="none" points="-4,4 -4,-42 125,-42 125,4 -4,4"/>
<!-- Node58 -->
<g id="node1" class="node"><title>Node58</title>
<polygon fill="#bfbfbf" stroke="black" points="0,-0.5 0,-19.5 35,-19.5 35,-0.5 0,-0.5"/>
<text text-anchor="middle" x="17.5" y="-7.5" font-family="Helvetica,sans-Serif" font-size="10.00">loop</text>
</g>
<!-- Node59 -->
<g id="node2" class="node"><title>Node59</title>
<g id="a_node2"><a xlink:href="eBoard__comment_8h.html#aca4f96af7c6736bf2b61c88d731af741" target="_top" xlink:title="read a digital state from an INPUTpin ">
<polygon fill="white" stroke="black" points="71,-0.5 71,-19.5 121,-19.5 121,-0.5 71,-0.5"/>
<text text-anchor="middle" x="96" y="-7.5" font-family="Helvetica,sans-Serif" font-size="10.00">readPin</text>
</a>
</g>
</g>
<!-- Node58&#45;&gt;Node59 -->
<g id="edge1" class="edge"><title>Node58&#45;&gt;Node59</title>
<path fill="none" stroke="midnightblue" d="M45.128,-10C53.5005,-10 62.6939,-10 70.8819,-10"/>
<polygon fill="midnightblue" stroke="midnightblue" points="45.0994,-6.5001 35.0994,-10 45.0993,-13.5001 45.0994,-6.5001"/>
</g>
<!-- Node59&#45;&gt;Node59 -->
<g id="edge2" class="edge"><title>Node59&#45;&gt;Node59</title>
<path fill="none" stroke="midnightblue" d="M81.6358,-29.7663C82.764,-34.4965 87.5521,-38 96,-38 109.863,-38 113.871,-28.5653 108.022,-19.7571"/>
<polygon fill="midnightblue" stroke="midnightblue" points="85.1074,-30.2915 83.9779,-19.7571 78.2915,-28.6966 85.1074,-30.2915"/>
</g>
</g>
</svg>
