<?xml version="1.0" encoding="UTF-8" standalone="no"?>
<!DOCTYPE svg PUBLIC "-//W3C//DTD SVG 1.1//EN"
 "http://www.w3.org/Graphics/SVG/1.1/DTD/svg11.dtd">
<!-- Generated by graphviz version 2.38.0 (20140413.2041)
 -->
<!-- Title: twi_transmit Pages: 1 -->
<!--zoomable 532 -->
<svg id="main" version="1.1" xmlns="http://www.w3.org/2000/svg" xmlns:xlink="http://www.w3.org/1999/xlink" xml:space="preserve" onload="init(evt)">
<style type="text/css"><![CDATA[
.edge:hover path { stroke: red; }
.edge:hover polygon { stroke: red; fill: red; }
]]></style>
<script type="text/javascript"><![CDATA[
var edges = document.getElementsByTagName('g');
if (edges && edges.length) {
  for (var i=0;i<edges.length;i++) {
    if (edges[i].id.substr(0,4)=='edge') {
      edges[i].setAttribute('class','edge');
    }
  }
}
]]></script>
        <defs>
                <circle id="rim" cx="0" cy="0" r="7"/>
                <circle id="rim2" cx="0" cy="0" r="3.5"/>
                <g id="zoomPlus">
                        <use xlink:href="#rim" fill="#404040">
                                <set attributeName="fill" to="#808080" begin="zoomplus.mouseover" end="zoomplus.mouseout"/>
                        </use>
                        <path d="M-4,0h8M0,-4v8" fill="none" stroke="white" stroke-width="1.5" pointer-events="none"/>
                </g>
                <g id="zoomMin">
                        <use xlink:href="#rim" fill="#404040">
                                <set attributeName="fill" to="#808080" begin="zoomminus.mouseover" end="zoomminus.mouseout"/>
                        </use>
                        <path d="M-4,0h8" fill="none" stroke="white" stroke-width="1.5" pointer-events="none"/>
                </g>
                <g id="dirArrow">
                        <path fill="none" stroke="white" stroke-width="1.5" d="M0,-3.0v7 M-2.5,-0.5L0,-3.0L2.5,-0.5"/>
                </g>
               <g id="resetDef">
                       <use xlink:href="#rim2" fill="#404040">
                               <set attributeName="fill" to="#808080" begin="reset.mouseover" end="reset.mouseout"/>
                       </use>
               </g>
        </defs>

<script type="text/javascript">
var viewWidth = 1143;
var viewHeight = 532;
var sectionId = 'dynsection-45';
</script>
<script xlink:href="svgpan.js"/>
<svg id="graph" class="graph">
<g id="viewport">
<title>twi_transmit</title>
<polygon fill="white" stroke="none" points="-4,4 -4,-527.5 1139,-527.5 1139,4 -4,4"/>
<!-- Node268 -->
<g id="node1" class="node"><title>Node268</title>
<polygon fill="#bfbfbf" stroke="black" points="0,-435.5 0,-454.5 70,-454.5 70,-435.5 0,-435.5"/>
<text text-anchor="middle" x="35" y="-442.5" font-family="Helvetica,sans-Serif" font-size="10.00">twi_transmit</text>
</g>
<!-- Node269 -->
<g id="node2" class="node"><title>Node269</title>
<g id="a_node2"><a xlink:href="classeagle__impl_1_1TwoWire.html#a2b5f9f156b6d281746a2a6ca5707dad3" target="_top" xlink:title="eagle_impl::TwoWire\l::write">
<polygon fill="white" stroke="black" points="106,-430 106,-460 214,-460 214,-430 106,-430"/>
<text text-anchor="start" x="114" y="-448" font-family="Helvetica,sans-Serif" font-size="10.00">eagle_impl::TwoWire</text>
<text text-anchor="middle" x="160" y="-437" font-family="Helvetica,sans-Serif" font-size="10.00">::write</text>
</a>
</g>
</g>
<!-- Node268&#45;&gt;Node269 -->
<g id="edge1" class="edge"><title>Node268&#45;&gt;Node269</title>
<path fill="none" stroke="midnightblue" d="M80.3448,-445C88.529,-445 97.1537,-445 105.573,-445"/>
<polygon fill="midnightblue" stroke="midnightblue" points="80.2624,-441.5 70.2624,-445 80.2623,-448.5 80.2624,-441.5"/>
</g>
<!-- Node270 -->
<g id="node3" class="node"><title>Node270</title>
<g id="a_node3"><a xlink:href="classeagle__impl_1_1TwoWire.html#a362e77085e50bed9c881861469378aa2" target="_top" xlink:title="eagle_impl::TwoWire\l::write">
<polygon fill="white" stroke="black" points="250,-493 250,-523 358,-523 358,-493 250,-493"/>
<text text-anchor="start" x="258" y="-511" font-family="Helvetica,sans-Serif" font-size="10.00">eagle_impl::TwoWire</text>
<text text-anchor="middle" x="304" y="-500" font-family="Helvetica,sans-Serif" font-size="10.00">::write</text>
</a>
</g>
</g>
<!-- Node269&#45;&gt;Node270 -->
<g id="edge2" class="edge"><title>Node269&#45;&gt;Node270</title>
<path fill="none" stroke="midnightblue" d="M204.231,-464.18C224.936,-473.366 249.382,-484.212 268.773,-492.815"/>
<polygon fill="midnightblue" stroke="midnightblue" points="205.573,-460.946 195.013,-460.09 202.734,-467.345 205.573,-460.946"/>
</g>
<!-- Node271 -->
<g id="node4" class="node"><title>Node271</title>
<g id="a_node4"><a xlink:href="eBoard__comment_8h.html#aa63f515ecc1c17545b9692c7d5f2fac6" target="_top" xlink:title="Sends a buffer of bytes to a certain I²C&#45;Device. ">
<polygon fill="white" stroke="black" points="277.5,-454.5 277.5,-473.5 330.5,-473.5 330.5,-454.5 277.5,-454.5"/>
<text text-anchor="middle" x="304" y="-461.5" font-family="Helvetica,sans-Serif" font-size="10.00">sendI2C</text>
</a>
</g>
</g>
<!-- Node269&#45;&gt;Node271 -->
<g id="edge3" class="edge"><title>Node269&#45;&gt;Node271</title>
<path fill="none" stroke="midnightblue" d="M224.266,-453.465C242.975,-455.969 262.409,-458.569 277.289,-460.56"/>
<polygon fill="midnightblue" stroke="midnightblue" points="224.655,-449.986 214.28,-452.129 223.727,-456.924 224.655,-449.986"/>
</g>
<!-- Node272 -->
<g id="node5" class="node"><title>Node272</title>
<g id="a_node5"><a xlink:href="structLCD.html#a739998fad0591a092255676c8c8d532f" target="_top" xlink:title="LCD::s1Cmd">
<polygon fill="white" stroke="black" points="267,-245.5 267,-264.5 341,-264.5 341,-245.5 267,-245.5"/>
<text text-anchor="middle" x="304" y="-252.5" font-family="Helvetica,sans-Serif" font-size="10.00">LCD::s1Cmd</text>
</a>
</g>
</g>
<!-- Node269&#45;&gt;Node272 -->
<g id="edge4" class="edge"><title>Node269&#45;&gt;Node272</title>
<path fill="none" stroke="midnightblue" d="M178.549,-421.519C209.94,-379.517 274.425,-293.234 295.881,-264.526"/>
<polygon fill="midnightblue" stroke="midnightblue" points="175.563,-419.667 172.38,-429.773 181.171,-423.858 175.563,-419.667"/>
</g>
<!-- Node288 -->
<g id="node21" class="node"><title>Node288</title>
<g id="a_node21"><a xlink:href="structLCD.html#ae5873763db265cd00da32664cce88873" target="_top" xlink:title="LCD::s1Dat">
<polygon fill="white" stroke="black" points="808,-302.5 808,-321.5 877,-321.5 877,-302.5 808,-302.5"/>
<text text-anchor="middle" x="842.5" y="-309.5" font-family="Helvetica,sans-Serif" font-size="10.00">LCD::s1Dat</text>
</a>
</g>
</g>
<!-- Node269&#45;&gt;Node288 -->
<g id="edge39" class="edge"><title>Node269&#45;&gt;Node288</title>
<path fill="none" stroke="midnightblue" d="M224.292,-438.271C281.189,-432.806 367.084,-426 442,-426 442,-426 442,-426 557,-426 641.423,-426 669.671,-443.072 746,-407 787.653,-387.315 821.753,-341.669 835.258,-321.675"/>
<polygon fill="midnightblue" stroke="midnightblue" points="223.627,-434.819 214.014,-439.274 224.307,-441.786 223.627,-434.819"/>
</g>
<!-- Node273 -->
<g id="node6" class="node"><title>Node273</title>
<g id="a_node6"><a xlink:href="structLCD.html#ad31ee94d401b7c28d6cc2f472e2eb8fd" target="_top" xlink:title="LCD::changeMode">
<polygon fill="white" stroke="black" points="394,-188.5 394,-207.5 492,-207.5 492,-188.5 394,-188.5"/>
<text text-anchor="middle" x="443" y="-195.5" font-family="Helvetica,sans-Serif" font-size="10.00">LCD::changeMode</text>
</a>
</g>
</g>
<!-- Node272&#45;&gt;Node273 -->
<g id="edge5" class="edge"><title>Node272&#45;&gt;Node273</title>
<path fill="none" stroke="midnightblue" d="M337.398,-241.521C362.494,-231.079 396.642,-216.871 418.994,-207.572"/>
<polygon fill="midnightblue" stroke="midnightblue" points="335.819,-238.387 327.931,-245.459 338.508,-244.85 335.819,-238.387"/>
</g>
<!-- Node282 -->
<g id="node15" class="node"><title>Node282</title>
<g id="a_node15"><a xlink:href="structLCD.html#ad1a67d455563026a5064ef9cab86ae4d" target="_top" xlink:title="LCD::setCursor">
<polygon fill="white" stroke="black" points="799.5,-226.5 799.5,-245.5 885.5,-245.5 885.5,-226.5 799.5,-226.5"/>
<text text-anchor="middle" x="842.5" y="-233.5" font-family="Helvetica,sans-Serif" font-size="10.00">LCD::setCursor</text>
</a>
</g>
</g>
<!-- Node272&#45;&gt;Node282 -->
<g id="edge36" class="edge"><title>Node272&#45;&gt;Node282</title>
<path fill="none" stroke="midnightblue" d="M351.103,-253.367C453.888,-249.727 700.534,-240.992 799.431,-237.49"/>
<polygon fill="midnightblue" stroke="midnightblue" points="350.904,-249.872 341.034,-253.724 351.152,-256.868 350.904,-249.872"/>
</g>
<!-- Node286 -->
<g id="node19" class="node"><title>Node286</title>
<g id="a_node19"><a xlink:href="structLCD.html#aa01b7522d1e210f9cd071e3a5d4ae9e6" target="_top" xlink:title="LCD::changeBackground">
<polygon fill="white" stroke="black" points="620,-378.5 620,-397.5 746,-397.5 746,-378.5 620,-378.5"/>
<text text-anchor="middle" x="683" y="-385.5" font-family="Helvetica,sans-Serif" font-size="10.00">LCD::changeBackground</text>
</a>
</g>
</g>
<!-- Node272&#45;&gt;Node286 -->
<g id="edge37" class="edge"><title>Node272&#45;&gt;Node286</title>
<path fill="none" stroke="midnightblue" d="M339.976,-268.161C356.354,-274.274 376.146,-281.591 394,-288 488.9,-322.065 602.041,-360.806 653.724,-378.401"/>
<polygon fill="midnightblue" stroke="midnightblue" points="340.86,-264.755 330.268,-264.529 338.408,-271.311 340.86,-264.755"/>
</g>
<!-- Node287 -->
<g id="node20" class="node"><title>Node287</title>
<g id="a_node20"><a xlink:href="structLCD.html#ae7a8d9bc1581cfeeb0f098c8bb6d1229" target="_top" xlink:title="LCD::s2Cmd">
<polygon fill="white" stroke="black" points="646,-0.5 646,-19.5 720,-19.5 720,-0.5 646,-0.5"/>
<text text-anchor="middle" x="683" y="-7.5" font-family="Helvetica,sans-Serif" font-size="10.00">LCD::s2Cmd</text>
</a>
</g>
</g>
<!-- Node272&#45;&gt;Node287 -->
<g id="edge38" class="edge"><title>Node272&#45;&gt;Node287</title>
<path fill="none" stroke="midnightblue" d="M322.603,-238.339C340.032,-222.244 367.827,-197.634 394,-179 490.341,-110.408 616.021,-43.8177 663.104,-19.5956"/>
<polygon fill="midnightblue" stroke="midnightblue" points="319.859,-236.112 314.933,-245.492 324.633,-241.231 319.859,-236.112"/>
</g>
<!-- Node274 -->
<g id="node7" class="node"><title>Node274</title>
<g id="a_node7"><a xlink:href="structLCD.html#a632d9c641930fe16c0b623b82136196e" target="_top" xlink:title="LCD::init">
<polygon fill="white" stroke="black" points="528,-188.5 528,-207.5 584,-207.5 584,-188.5 528,-188.5"/>
<text text-anchor="middle" x="556" y="-195.5" font-family="Helvetica,sans-Serif" font-size="10.00">LCD::init</text>
</a>
</g>
</g>
<!-- Node273&#45;&gt;Node274 -->
<g id="edge6" class="edge"><title>Node273&#45;&gt;Node274</title>
<path fill="none" stroke="midnightblue" d="M502.195,-191.257C511.198,-191.304 520.107,-191.589 527.969,-192.111"/>
<polygon fill="midnightblue" stroke="midnightblue" points="502.024,-187.758 492.041,-191.304 502.057,-194.758 502.024,-187.758"/>
</g>
<!-- Node274&#45;&gt;Node272 -->
<g id="edge31" class="edge"><title>Node274&#45;&gt;Node272</title>
<path fill="none" stroke="midnightblue" d="M518.15,-209.736C509.606,-212.283 500.52,-214.854 492,-217 439.956,-230.106 378.896,-241.842 341.072,-248.693"/>
<polygon fill="midnightblue" stroke="midnightblue" points="519.314,-213.04 527.864,-206.783 517.279,-206.343 519.314,-213.04"/>
</g>
<!-- Node274&#45;&gt;Node273 -->
<g id="edge15" class="edge"><title>Node274&#45;&gt;Node273</title>
<path fill="none" stroke="midnightblue" d="M517.872,-204.41C509.59,-204.727 500.692,-204.823 492.041,-204.696"/>
<polygon fill="midnightblue" stroke="midnightblue" points="518.163,-207.9 527.969,-203.889 517.802,-200.909 518.163,-207.9"/>
</g>
<!-- Node275 -->
<g id="node8" class="node"><title>Node275</title>
<g id="a_node8"><a xlink:href="structLCD.html#aa5e25fef7649532af402df06f05b6d4c" target="_top" xlink:title="LCD::changeID">
<polygon fill="white" stroke="black" points="640.5,-150.5 640.5,-169.5 725.5,-169.5 725.5,-150.5 640.5,-150.5"/>
<text text-anchor="middle" x="683" y="-157.5" font-family="Helvetica,sans-Serif" font-size="10.00">LCD::changeID</text>
</a>
</g>
</g>
<!-- Node274&#45;&gt;Node275 -->
<g id="edge7" class="edge"><title>Node274&#45;&gt;Node275</title>
<path fill="none" stroke="midnightblue" d="M593.733,-186.833C611.76,-181.353 633.254,-174.819 650.518,-169.571"/>
<polygon fill="midnightblue" stroke="midnightblue" points="592.673,-183.497 584.123,-189.755 594.709,-190.195 592.673,-183.497"/>
</g>
<!-- Node276 -->
<g id="node9" class="node"><title>Node276</title>
<g id="a_node9"><a xlink:href="structLCD.html#ad3120f397273bac2ad60e0291554b9e6" target="_top" xlink:title="LCD::clear">
<polygon fill="white" stroke="black" points="954.5,-146.5 954.5,-165.5 1018.5,-165.5 1018.5,-146.5 954.5,-146.5"/>
<text text-anchor="middle" x="986.5" y="-153.5" font-family="Helvetica,sans-Serif" font-size="10.00">LCD::clear</text>
</a>
</g>
</g>
<!-- Node274&#45;&gt;Node276 -->
<g id="edge8" class="edge"><title>Node274&#45;&gt;Node276</title>
<path fill="none" stroke="midnightblue" d="M565.851,-179.378C576.767,-162.895 596.759,-140.954 620,-132 745.341,-83.7135 913.051,-125.451 967.569,-146.496"/>
<polygon fill="midnightblue" stroke="midnightblue" points="562.637,-177.932 560.516,-188.313 568.647,-181.521 562.637,-177.932"/>
</g>
<!-- Node279 -->
<g id="node12" class="node"><title>Node279</title>
<g id="a_node12"><a xlink:href="structLCD.html#ab1b68d883d80dc7b8810e602b7032767" target="_top" xlink:title="LCD::print">
<polygon fill="white" stroke="black" points="955.5,-226.5 955.5,-245.5 1017.5,-245.5 1017.5,-226.5 955.5,-226.5"/>
<text text-anchor="middle" x="986.5" y="-233.5" font-family="Helvetica,sans-Serif" font-size="10.00">LCD::print</text>
</a>
</g>
</g>
<!-- Node274&#45;&gt;Node279 -->
<g id="edge12" class="edge"><title>Node274&#45;&gt;Node279</title>
<path fill="none" stroke="midnightblue" d="M594.406,-197.96C658.089,-198.358 791.509,-201.219 903,-217 920.463,-219.472 939.682,-223.801 955.174,-227.703"/>
<polygon fill="midnightblue" stroke="midnightblue" points="594.087,-194.458 584.072,-197.913 594.056,-201.458 594.087,-194.458"/>
</g>
<!-- Node280 -->
<g id="node13" class="node"><title>Node280</title>
<g id="a_node13"><a xlink:href="structLCD.html#a0fd055c88888db0e52fea11f1df24d4a" target="_top" xlink:title="LCD::drawBitmap">
<polygon fill="white" stroke="black" points="939,-321.5 939,-340.5 1034,-340.5 1034,-321.5 939,-321.5"/>
<text text-anchor="middle" x="986.5" y="-328.5" font-family="Helvetica,sans-Serif" font-size="10.00">LCD::drawBitmap</text>
</a>
</g>
</g>
<!-- Node274&#45;&gt;Node280 -->
<g id="edge13" class="edge"><title>Node274&#45;&gt;Node280</title>
<path fill="none" stroke="midnightblue" d="M568.16,-216.152C579.371,-233.016 598.095,-257.756 620,-273 682.772,-316.683 706.652,-317.918 782,-331 835.084,-340.216 897.138,-338.452 938.637,-335.519"/>
<polygon fill="midnightblue" stroke="midnightblue" points="571.082,-214.225 562.732,-207.704 565.193,-218.009 571.082,-214.225"/>
</g>
<!-- Node274&#45;&gt;Node282 -->
<g id="edge16" class="edge"><title>Node274&#45;&gt;Node282</title>
<path fill="none" stroke="midnightblue" d="M594.154,-206.973C602.616,-208.816 611.59,-210.614 620,-212 682.019,-222.219 754.551,-229.135 799.261,-232.823"/>
<polygon fill="midnightblue" stroke="midnightblue" points="594.685,-203.505 584.161,-204.726 593.15,-210.334 594.685,-203.505"/>
</g>
<!-- Node283 -->
<g id="node16" class="node"><title>Node283</title>
<g id="a_node16"><a xlink:href="structLCD.html#a75cacb94de3b3ff71e9a4497b5cc4a81" target="_top" xlink:title="LCD::changeBrightness">
<polygon fill="white" stroke="black" points="782,-47.5 782,-66.5 903,-66.5 903,-47.5 782,-47.5"/>
<text text-anchor="middle" x="842.5" y="-54.5" font-family="Helvetica,sans-Serif" font-size="10.00">LCD::changeBrightness</text>
</a>
</g>
</g>
<!-- Node274&#45;&gt;Node283 -->
<g id="edge20" class="edge"><title>Node274&#45;&gt;Node283</title>
<path fill="none" stroke="midnightblue" d="M560.914,-178.251C568.227,-151.002 586.354,-103.788 620,-81 677.139,-42.3012 761.528,-41.4021 807.909,-47.4895"/>
<polygon fill="midnightblue" stroke="midnightblue" points="557.442,-177.719 558.495,-188.261 564.246,-179.363 557.442,-177.719"/>
</g>
<!-- Node274&#45;&gt;Node286 -->
<g id="edge24" class="edge"><title>Node274&#45;&gt;Node286</title>
<path fill="none" stroke="midnightblue" d="M560.211,-218.019C565.976,-251.017 581.328,-316.071 620,-355 632.446,-367.528 652.161,-373.654 666.011,-378.477"/>
<polygon fill="midnightblue" stroke="midnightblue" points="563.606,-217.089 558.549,-207.779 556.696,-218.211 563.606,-217.089"/>
</g>
<!-- Node274&#45;&gt;Node287 -->
<g id="edge27" class="edge"><title>Node274&#45;&gt;Node287</title>
<path fill="none" stroke="midnightblue" d="M561.118,-178.343C571.239,-137.515 598.099,-46.9573 620,-25 627.091,-17.8903 636.524,-12.8412 645.886,-9.62636"/>
<polygon fill="midnightblue" stroke="midnightblue" points="557.676,-177.69 558.773,-188.228 564.487,-179.306 557.676,-177.69"/>
</g>
<!-- Node274&#45;&gt;Node288 -->
<g id="edge32" class="edge"><title>Node274&#45;&gt;Node288</title>
<path fill="none" stroke="midnightblue" d="M580.526,-212.793C592.145,-219.746 606.531,-227.841 620,-234 684.885,-263.669 764.567,-289.224 808.495,-302.426"/>
<polygon fill="midnightblue" stroke="midnightblue" points="582.232,-209.734 571.871,-207.519 578.59,-215.711 582.232,-209.734"/>
</g>
<!-- Node276&#45;&gt;Node274 -->
<g id="edge10" class="edge"><title>Node276&#45;&gt;Node274</title>
<path fill="none" stroke="midnightblue" d="M944.203,-149.484C874.619,-134.962 730.765,-107.329 620,-150 599.354,-157.954 581.273,-176.156 569.84,-188.056"/>
<polygon fill="midnightblue" stroke="midnightblue" points="943.812,-152.978 954.317,-151.605 945.249,-146.127 943.812,-152.978"/>
</g>
<!-- Node277 -->
<g id="node10" class="node"><title>Node277</title>
<g id="a_node10"><a xlink:href="structLCD.html#a7912ad9a12d649cdec2dd53ae893a8ce" target="_top" xlink:title="LCD::reset">
<polygon fill="white" stroke="black" points="1070,-165.5 1070,-184.5 1135,-184.5 1135,-165.5 1070,-165.5"/>
<text text-anchor="middle" x="1102.5" y="-172.5" font-family="Helvetica,sans-Serif" font-size="10.00">LCD::reset</text>
</a>
</g>
</g>
<!-- Node276&#45;&gt;Node277 -->
<g id="edge9" class="edge"><title>Node276&#45;&gt;Node277</title>
<path fill="none" stroke="midnightblue" d="M1028.74,-162.873C1042.34,-165.14 1057.24,-167.623 1069.99,-169.748"/>
<polygon fill="midnightblue" stroke="midnightblue" points="1029.09,-159.384 1018.65,-161.192 1027.94,-166.288 1029.09,-159.384"/>
</g>
<!-- Node278 -->
<g id="node11" class="node"><title>Node278</title>
<g id="a_node11"><a xlink:href="lcd__debug_8cpp.html#ae66f6b31b5ad750f1fe042a706a4e3d4" target="_top" xlink:title="main">
<polygon fill="white" stroke="black" points="1083.5,-127.5 1083.5,-146.5 1121.5,-146.5 1121.5,-127.5 1083.5,-127.5"/>
<text text-anchor="middle" x="1102.5" y="-134.5" font-family="Helvetica,sans-Serif" font-size="10.00">main</text>
</a>
</g>
</g>
<!-- Node276&#45;&gt;Node278 -->
<g id="edge11" class="edge"><title>Node276&#45;&gt;Node278</title>
<path fill="none" stroke="midnightblue" d="M1028.72,-149.13C1047.4,-146.016 1068.54,-142.494 1083.2,-140.05"/>
<polygon fill="midnightblue" stroke="midnightblue" points="1027.94,-145.712 1018.65,-150.808 1029.09,-152.616 1027.94,-145.712"/>
</g>
<!-- Node281 -->
<g id="node14" class="node"><title>Node281</title>
<g id="a_node14"><a xlink:href="dancing__dragon_8cpp.html#a840291bc02cba5474a4cb46a9b9566fe" target="_top" xlink:title="main">
<polygon fill="white" stroke="black" points="1083.5,-349.5 1083.5,-368.5 1121.5,-368.5 1121.5,-349.5 1083.5,-349.5"/>
<text text-anchor="middle" x="1102.5" y="-356.5" font-family="Helvetica,sans-Serif" font-size="10.00">main</text>
</a>
</g>
</g>
<!-- Node280&#45;&gt;Node281 -->
<g id="edge14" class="edge"><title>Node280&#45;&gt;Node281</title>
<path fill="none" stroke="midnightblue" d="M1036.14,-342.947C1052.94,-347.073 1070.72,-351.441 1083.49,-354.577"/>
<polygon fill="midnightblue" stroke="midnightblue" points="1036.96,-339.544 1026.41,-340.558 1035.29,-346.342 1036.96,-339.544"/>
</g>
<!-- Node282&#45;&gt;Node276 -->
<g id="edge17" class="edge"><title>Node282&#45;&gt;Node276</title>
<path fill="none" stroke="midnightblue" d="M869.688,-221.246C898.434,-205.051 943.755,-179.518 968.311,-165.684"/>
<polygon fill="midnightblue" stroke="midnightblue" points="867.623,-218.392 860.629,-226.35 871.059,-224.491 867.623,-218.392"/>
</g>
<!-- Node282&#45;&gt;Node279 -->
<g id="edge18" class="edge"><title>Node282&#45;&gt;Node279</title>
<path fill="none" stroke="midnightblue" d="M895.962,-236C915.988,-236 938.129,-236 955.384,-236"/>
<polygon fill="midnightblue" stroke="midnightblue" points="895.72,-232.5 885.72,-236 895.72,-239.5 895.72,-232.5"/>
</g>
<!-- Node282&#45;&gt;Node280 -->
<g id="edge19" class="edge"><title>Node282&#45;&gt;Node280</title>
<path fill="none" stroke="midnightblue" d="M866.33,-251.274C895.844,-271.019 946.373,-304.824 971.065,-321.343"/>
<polygon fill="midnightblue" stroke="midnightblue" points="868.155,-248.283 857.897,-245.632 864.262,-254.101 868.155,-248.283"/>
</g>
<!-- Node283&#45;&gt;Node274 -->
<g id="edge23" class="edge"><title>Node283&#45;&gt;Node274</title>
<path fill="none" stroke="midnightblue" d="M771.898,-59.9877C725.215,-61.6865 664.386,-68.9386 620,-99 586.75,-121.519 568.656,-167.892 561.177,-188.486"/>
<polygon fill="midnightblue" stroke="midnightblue" points="772.04,-63.4852 781.934,-59.6967 771.837,-56.4881 772.04,-63.4852"/>
</g>
<!-- Node284 -->
<g id="node17" class="node"><title>Node284</title>
<g id="a_node17"><a xlink:href="structLCD.html#aa4c1e7d41ca93af28769aaba704d5c1f" target="_top" xlink:title="LCD::lightOn">
<polygon fill="white" stroke="black" points="949.5,-66.5 949.5,-85.5 1023.5,-85.5 1023.5,-66.5 949.5,-66.5"/>
<text text-anchor="middle" x="986.5" y="-73.5" font-family="Helvetica,sans-Serif" font-size="10.00">LCD::lightOn</text>
</a>
</g>
</g>
<!-- Node283&#45;&gt;Node284 -->
<g id="edge21" class="edge"><title>Node283&#45;&gt;Node284</title>
<path fill="none" stroke="midnightblue" d="M913.26,-66.334C925.717,-68.0008 938.225,-69.6745 949.25,-71.1496"/>
<polygon fill="midnightblue" stroke="midnightblue" points="913.685,-62.8599 903.309,-65.0026 912.757,-69.798 913.685,-62.8599"/>
</g>
<!-- Node285 -->
<g id="node18" class="node"><title>Node285</title>
<g id="a_node18"><a xlink:href="structLCD.html#a3f437907a543226be7c527a2d304ad95" target="_top" xlink:title="LCD::lightOff">
<polygon fill="white" stroke="black" points="949.5,-28.5 949.5,-47.5 1023.5,-47.5 1023.5,-28.5 949.5,-28.5"/>
<text text-anchor="middle" x="986.5" y="-35.5" font-family="Helvetica,sans-Serif" font-size="10.00">LCD::lightOff</text>
</a>
</g>
</g>
<!-- Node283&#45;&gt;Node285 -->
<g id="edge22" class="edge"><title>Node283&#45;&gt;Node285</title>
<path fill="none" stroke="midnightblue" d="M913.26,-47.666C925.717,-45.9992 938.225,-44.3255 949.25,-42.8504"/>
<polygon fill="midnightblue" stroke="midnightblue" points="912.757,-44.202 903.309,-48.9974 913.685,-51.1401 912.757,-44.202"/>
</g>
<!-- Node286&#45;&gt;Node274 -->
<g id="edge25" class="edge"><title>Node286&#45;&gt;Node274</title>
<path fill="none" stroke="midnightblue" d="M619.325,-371.044C571.34,-317.368 560.027,-236.329 557.586,-207.765"/>
<polygon fill="midnightblue" stroke="midnightblue" points="616.917,-373.59 626.343,-378.428 621.991,-368.768 616.917,-373.59"/>
</g>
<!-- Node286&#45;&gt;Node281 -->
<g id="edge26" class="edge"><title>Node286&#45;&gt;Node281</title>
<path fill="none" stroke="midnightblue" d="M756.29,-382.979C855.373,-376.096 1027.46,-364.143 1083.38,-360.258"/>
<polygon fill="midnightblue" stroke="midnightblue" points="755.787,-379.505 746.053,-383.69 756.272,-386.488 755.787,-379.505"/>
</g>
<!-- Node287&#45;&gt;Node274 -->
<g id="edge28" class="edge"><title>Node287&#45;&gt;Node274</title>
<path fill="none" stroke="midnightblue" d="M656.234,-22.9454C643.905,-27.3533 629.743,-33.2319 620,-43 597.922,-65.1348 570.804,-156.984 560.876,-188.081"/>
<polygon fill="midnightblue" stroke="midnightblue" points="657.731,-26.1304 666.023,-19.5357 655.428,-19.52 657.731,-26.1304"/>
</g>
<!-- Node287&#45;&gt;Node282 -->
<g id="edge29" class="edge"><title>Node287&#45;&gt;Node282</title>
<path fill="none" stroke="midnightblue" d="M696.559,-28.0206C728.242,-73.4841 810.616,-191.684 834.758,-226.325"/>
<polygon fill="midnightblue" stroke="midnightblue" points="699.357,-25.914 690.768,-19.7109 693.614,-29.9164 699.357,-25.914"/>
</g>
<!-- Node287&#45;&gt;Node283 -->
<g id="edge30" class="edge"><title>Node287&#45;&gt;Node283</title>
<path fill="none" stroke="midnightblue" d="M725.547,-22.3982C751.793,-30.2304 785.198,-40.1988 809.405,-47.4224"/>
<polygon fill="midnightblue" stroke="midnightblue" points="726.456,-19.0169 715.872,-19.5112 724.454,-25.7246 726.456,-19.0169"/>
</g>
<!-- Node288&#45;&gt;Node276 -->
<g id="edge33" class="edge"><title>Node288&#45;&gt;Node276</title>
<path fill="none" stroke="midnightblue" d="M862.015,-295.268C874.028,-284.171 889.837,-269.107 903,-255 932.306,-223.593 964.059,-183.609 978.104,-165.58"/>
<polygon fill="midnightblue" stroke="midnightblue" points="859.395,-292.921 854.384,-302.256 864.123,-298.084 859.395,-292.921"/>
</g>
<!-- Node288&#45;&gt;Node279 -->
<g id="edge34" class="edge"><title>Node288&#45;&gt;Node279</title>
<path fill="none" stroke="midnightblue" d="M870.508,-297.545C899.035,-282.277 943.2,-258.64 967.662,-245.547"/>
<polygon fill="midnightblue" stroke="midnightblue" points="868.649,-294.57 861.484,-302.375 871.953,-300.742 868.649,-294.57"/>
</g>
<!-- Node288&#45;&gt;Node280 -->
<g id="edge35" class="edge"><title>Node288&#45;&gt;Node280</title>
<path fill="none" stroke="midnightblue" d="M887.511,-317.889C903.831,-320.072 922.387,-322.555 938.929,-324.769"/>
<polygon fill="midnightblue" stroke="midnightblue" points="887.528,-314.36 877.152,-316.503 886.599,-321.298 887.528,-314.36"/>
</g>
</g>
</svg>
        <g id="navigator" transform="translate(0 0)" fill="#404254">
                <rect fill="#f2f5e9" fill-opacity="0.5" stroke="#606060" stroke-width=".5" x="0" y="0" width="60" height="60"/>
                <use id="zoomplus" xlink:href="#zoomPlus" x="17" y="9" onmousedown="handleZoom(evt,'in')"/>
                <use id="zoomminus" xlink:href="#zoomMin" x="42" y="9" onmousedown="handleZoom(evt,'out')"/>
                <use id="reset" xlink:href="#resetDef" x="30" y="36" onmousedown="handleReset()"/>
                <g id="arrowUp" xlink:href="#dirArrow" transform="translate(30 24)" onmousedown="handlePan(0,-1)">
                  <use xlink:href="#rim" fill="#404040">
                        <set attributeName="fill" to="#808080" begin="arrowUp.mouseover" end="arrowUp.mouseout"/>
                  </use>
                  <path fill="none" stroke="white" stroke-width="1.5" d="M0,-3.0v7 M-2.5,-0.5L0,-3.0L2.5,-0.5"/>
                </g>
                <g id="arrowRight" xlink:href="#dirArrow" transform="rotate(90) translate(36 -43)" onmousedown="handlePan(1,0)">
                  <use xlink:href="#rim" fill="#404040">
                        <set attributeName="fill" to="#808080" begin="arrowRight.mouseover" end="arrowRight.mouseout"/>
                  </use>
                  <path fill="none" stroke="white" stroke-width="1.5" d="M0,-3.0v7 M-2.5,-0.5L0,-3.0L2.5,-0.5"/>
                </g>
                <g id="arrowDown" xlink:href="#dirArrow" transform="rotate(180) translate(-30 -48)" onmousedown="handlePan(0,1)">
                  <use xlink:href="#rim" fill="#404040">
                        <set attributeName="fill" to="#808080" begin="arrowDown.mouseover" end="arrowDown.mouseout"/>
                  </use>
                  <path fill="none" stroke="white" stroke-width="1.5" d="M0,-3.0v7 M-2.5,-0.5L0,-3.0L2.5,-0.5"/>
                </g>
                <g id="arrowLeft" xlink:href="#dirArrow" transform="rotate(270) translate(-36 17)" onmousedown="handlePan(-1,0)">
                  <use xlink:href="#rim" fill="#404040">
                        <set attributeName="fill" to="#808080" begin="arrowLeft.mouseover" end="arrowLeft.mouseout"/>
                  </use>
                  <path fill="none" stroke="white" stroke-width="1.5" d="M0,-3.0v7 M-2.5,-0.5L0,-3.0L2.5,-0.5"/>
                </g>
        </g>
        <svg viewBox="0 0 15 15" width="100%" height="30px" preserveAspectRatio="xMaxYMin meet">
         <g id="arrow_out" transform="scale(0.3 0.3)">
          <a xlink:href="eBoard_8h_abb66f08d8061c1064047324c1bacc2a9_icgraph_org.svg" target="_base">
           <rect id="button" ry="5" rx="5" y="6" x="6" height="38" width="38"
                fill="#f2f5e9" fill-opacity="0.5" stroke="#606060" stroke-width="1.0"/>
           <path id="arrow"
             d="M 11.500037,31.436501 C 11.940474,20.09759 22.043105,11.32322 32.158766,21.979434 L 37.068811,17.246167 C 37.068811,17.246167 37.088388,32 37.088388,32 L 22.160133,31.978069 C 22.160133,31.978069 26.997745,27.140456 26.997745,27.140456 C 18.528582,18.264221 13.291696,25.230495 11.500037,31.436501 z"
             style="fill:#404040;"/>
          </a>
         </g>
        </svg>
</svg>
