<?xml version="1.0" encoding="UTF-8" standalone="no"?>
<!DOCTYPE svg PUBLIC "-//W3C//DTD SVG 1.1//EN"
 "http://www.w3.org/Graphics/SVG/1.1/DTD/svg11.dtd">
<!-- Generated by graphviz version 2.38.0 (20140413.2041)
 -->
<!-- Title: readI2C Pages: 1 -->
<svg width="145pt" height="46pt"
 viewBox="0.00 0.00 145.00 46.00" xmlns="http://www.w3.org/2000/svg" xmlns:xlink="http://www.w3.org/1999/xlink">
<g id="graph0" class="graph" transform="scale(1 1) rotate(0) translate(4 42)">
<title>readI2C</title>
<polygon fill="white" stroke="none" points="-4,4 -4,-42 141,-42 141,4 -4,4"/>
<!-- Node94 -->
<g id="node1" class="node"><title>Node94</title>
<polygon fill="#bfbfbf" stroke="black" points="0,-0.5 0,-19.5 51,-19.5 51,-0.5 0,-0.5"/>
<text text-anchor="middle" x="25.5" y="-7.5" font-family="Helvetica,sans-Serif" font-size="10.00">readI2C</text>
</g>
<!-- Node95 -->
<g id="node2" class="node"><title>Node95</title>
<g id="a_node2"><a xlink:href="eBoard__comment_8h.html#aca4f96af7c6736bf2b61c88d731af741" target="_top" xlink:title="read a digital state from an INPUTpin ">
<polygon fill="white" stroke="black" points="87,-0.5 87,-19.5 137,-19.5 137,-0.5 87,-0.5"/>
<text text-anchor="middle" x="112" y="-7.5" font-family="Helvetica,sans-Serif" font-size="10.00">readPin</text>
</a>
</g>
</g>
<!-- Node94&#45;&gt;Node95 -->
<g id="edge1" class="edge"><title>Node94&#45;&gt;Node95</title>
<path fill="none" stroke="midnightblue" d="M61.5017,-10C70.0317,-10 78.9681,-10 86.8635,-10"/>
<polygon fill="midnightblue" stroke="midnightblue" points="61.3958,-6.5001 51.3958,-10 61.3957,-13.5001 61.3958,-6.5001"/>
</g>
<!-- Node95&#45;&gt;Node95 -->
<g id="edge2" class="edge"><title>Node95&#45;&gt;Node95</title>
<path fill="none" stroke="midnightblue" d="M96.0749,-29.4C97.1384,-34.3146 102.447,-38 112,-38 127.285,-38 131.704,-28.5653 125.255,-19.7571"/>
<polygon fill="midnightblue" stroke="midnightblue" points="99.4494,-30.3284 98.7449,-19.7571 92.7032,-28.4604 99.4494,-30.3284"/>
</g>
</g>
</svg>
