<?xml version="1.0" encoding="UTF-8" standalone="no"?>
<!DOCTYPE svg PUBLIC "-//W3C//DTD SVG 1.1//EN"
 "http://www.w3.org/Graphics/SVG/1.1/DTD/svg11.dtd">
<!-- Generated by graphviz version 2.38.0 (20140413.2041)
 -->
<!-- Title: _Pragma Pages: 1 -->
<svg width="593pt" height="834pt"
 viewBox="0.00 0.00 593.00 833.52" xmlns="http://www.w3.org/2000/svg" xmlns:xlink="http://www.w3.org/1999/xlink">
<g id="graph0" class="graph" transform="scale(1 1) rotate(0) translate(4 829.516)">
<title>_Pragma</title>
<polygon fill="white" stroke="none" points="-4,4 -4,-829.516 589,-829.516 589,4 -4,4"/>
<!-- Node20 -->
<g id="node1" class="node"><title>Node20</title>
<polygon fill="#bfbfbf" stroke="black" points="0,-395.516 0,-414.516 56,-414.516 56,-395.516 0,-395.516"/>
<text text-anchor="middle" x="28" y="-402.516" font-family="Helvetica,sans-Serif" font-size="10.00">_Pragma</text>
</g>
<!-- Node21 -->
<g id="node2" class="node"><title>Node21</title>
<g id="a_node2"><a xlink:href="classeagle__impl_1_1SoftwareSerial.html#a6a0c4bbe1cf6866ec54b98c6efdc4deb" target="_top" xlink:title="checks if there is data to read available ">
<polygon fill="white" stroke="black" points="92,-609.016 92,-639.016 225,-639.016 225,-609.016 92,-609.016"/>
<text text-anchor="start" x="100" y="-627.016" font-family="Helvetica,sans-Serif" font-size="10.00">eagle_impl::SoftwareSerial</text>
<text text-anchor="middle" x="158.5" y="-616.016" font-family="Helvetica,sans-Serif" font-size="10.00">::available</text>
</a>
</g>
</g>
<!-- Node20&#45;&gt;Node21 -->
<g id="edge1" class="edge"><title>Node20&#45;&gt;Node21</title>
<path fill="none" stroke="midnightblue" d="M29.2686,-414.609C30.6567,-445.748 39.2169,-545.148 92,-600.016 92.921,-600.973 93.8833,-601.892 94.8816,-602.775"/>
<polygon fill="midnightblue" stroke="midnightblue" points="93.0247,-605.754 103.156,-608.854 97.1692,-600.113 93.0247,-605.754"/>
</g>
<!-- Node22 -->
<g id="node3" class="node"><title>Node22</title>
<g id="a_node3"><a xlink:href="classeagle__impl_1_1SoftwareSerial.html#a8e970602476b0dae3ca4f23112c2ca46" target="_top" xlink:title="checks if this object is the listening object ">
<polygon fill="white" stroke="black" points="272,-697.016 272,-727.016 405,-727.016 405,-697.016 272,-697.016"/>
<text text-anchor="start" x="280" y="-715.016" font-family="Helvetica,sans-Serif" font-size="10.00">eagle_impl::SoftwareSerial</text>
<text text-anchor="middle" x="338.5" y="-704.016" font-family="Helvetica,sans-Serif" font-size="10.00">::isListening</text>
</a>
</g>
</g>
<!-- Node20&#45;&gt;Node22 -->
<g id="edge14" class="edge"><title>Node20&#45;&gt;Node22</title>
<path fill="none" stroke="midnightblue" d="M30.1848,-414.69C35.3954,-455.696 57.5581,-614.625 92,-649.016 98.2138,-655.22 192.155,-678.188 261.989,-694.597"/>
<polygon fill="midnightblue" stroke="midnightblue" points="261.569,-698.094 272.104,-696.968 263.166,-691.278 261.569,-698.094"/>
</g>
<!-- Node23 -->
<g id="node4" class="node"><title>Node23</title>
<g id="a_node4"><a xlink:href="classeagle__impl_1_1SoftwareSerial.html#af1b194359d70894b3a2f38236a68480e" target="_top" xlink:title="the start function to setup delay_values etc. ">
<polygon fill="white" stroke="black" points="92,-560.016 92,-590.016 225,-590.016 225,-560.016 92,-560.016"/>
<text text-anchor="start" x="100" y="-578.016" font-family="Helvetica,sans-Serif" font-size="10.00">eagle_impl::SoftwareSerial</text>
<text text-anchor="middle" x="158.5" y="-567.016" font-family="Helvetica,sans-Serif" font-size="10.00">::begin</text>
</a>
</g>
</g>
<!-- Node20&#45;&gt;Node23 -->
<g id="edge3" class="edge"><title>Node20&#45;&gt;Node23</title>
<path fill="none" stroke="midnightblue" d="M30.92,-414.855C36.2586,-439.796 53.4931,-506.252 92,-545.016 95.6526,-548.693 99.8389,-551.965 104.29,-554.868"/>
<polygon fill="midnightblue" stroke="midnightblue" points="102.704,-557.995 113.107,-560.004 106.228,-551.946 102.704,-557.995"/>
</g>
<!-- Node24 -->
<g id="node5" class="node"><title>Node24</title>
<g id="a_node5"><a xlink:href="classeagle__impl_1_1SoftwareSerial.html#a1dc4448e5fdf2516f47439fb4f62f4be" target="_top" xlink:title="apply a specific delay to achieve higher precision ">
<polygon fill="white" stroke="black" points="452,-457.016 452,-487.016 585,-487.016 585,-457.016 452,-457.016"/>
<text text-anchor="start" x="460" y="-475.016" font-family="Helvetica,sans-Serif" font-size="10.00">eagle_impl::SoftwareSerial</text>
<text text-anchor="middle" x="518.5" y="-464.016" font-family="Helvetica,sans-Serif" font-size="10.00">::tunedDelay</text>
</a>
</g>
</g>
<!-- Node20&#45;&gt;Node24 -->
<g id="edge28" class="edge"><title>Node20&#45;&gt;Node24</title>
<path fill="none" stroke="midnightblue" d="M34.2144,-414.684C43.4231,-430.599 64.2461,-461.774 92,-474.016 208.17,-525.256 360.15,-506.79 447.489,-489.121"/>
<polygon fill="midnightblue" stroke="midnightblue" points="448.214,-492.545 457.294,-487.086 446.791,-485.691 448.214,-492.545"/>
</g>
<!-- Node25 -->
<g id="node6" class="node"><title>Node25</title>
<g id="a_node6"><a xlink:href="classeagle__impl_1_1SoftwareSerial.html#ab0492d8af7df292d369dab4e721dd5db" target="_top" xlink:title="sets the SoftwareSerial object to be the listening one gaining control over the buffers etc...">
<polygon fill="white" stroke="black" points="272,-522.016 272,-552.016 405,-552.016 405,-522.016 272,-522.016"/>
<text text-anchor="start" x="280" y="-540.016" font-family="Helvetica,sans-Serif" font-size="10.00">eagle_impl::SoftwareSerial</text>
<text text-anchor="middle" x="338.5" y="-529.016" font-family="Helvetica,sans-Serif" font-size="10.00">::listen</text>
</a>
</g>
</g>
<!-- Node20&#45;&gt;Node25 -->
<g id="edge15" class="edge"><title>Node20&#45;&gt;Node25</title>
<path fill="none" stroke="midnightblue" d="M31.7912,-414.612C38.3984,-435.435 57.1189,-484.68 92,-507.016 142.173,-539.143 210.076,-545.257 261.752,-544.119"/>
<polygon fill="midnightblue" stroke="midnightblue" points="261.976,-547.614 271.86,-543.8 261.755,-540.617 261.976,-547.614"/>
</g>
<!-- Node26 -->
<g id="node7" class="node"><title>Node26</title>
<g id="a_node7"><a xlink:href="classeagle__impl_1_1SoftwareSerial.html#a5bc382d616d435c01856c1253b0ee91a" target="_top" xlink:title="ends communcation on the rx pin ">
<polygon fill="white" stroke="black" points="261,-209.516 261,-228.516 416,-228.516 416,-209.516 261,-209.516"/>
<text text-anchor="middle" x="338.5" y="-216.516" font-family="Helvetica,sans-Serif" font-size="10.00">eagle_impl::SoftwareSerial::end</text>
</a>
</g>
</g>
<!-- Node20&#45;&gt;Node26 -->
<g id="edge6" class="edge"><title>Node20&#45;&gt;Node26</title>
<path fill="none" stroke="midnightblue" d="M30.2749,-395.341C34.2097,-369.61 48.6382,-299.129 92,-265.016 116.414,-245.809 190.398,-233.692 250.819,-226.746"/>
<polygon fill="midnightblue" stroke="midnightblue" points="251.223,-230.223 260.772,-225.634 250.446,-223.266 251.223,-230.223"/>
</g>
<!-- Node27 -->
<g id="node8" class="node"><title>Node27</title>
<g id="a_node8"><a xlink:href="classeagle__impl_1_1SoftwareSerial.html#a95364d98124ae983de49dbccb9d5e920" target="_top" xlink:title="resets the position in buffer and the buffer itself if the object is listening ">
<polygon fill="white" stroke="black" points="92,-795.016 92,-825.016 225,-825.016 225,-795.016 92,-795.016"/>
<text text-anchor="start" x="100" y="-813.016" font-family="Helvetica,sans-Serif" font-size="10.00">eagle_impl::SoftwareSerial</text>
<text text-anchor="middle" x="158.5" y="-802.016" font-family="Helvetica,sans-Serif" font-size="10.00">::flush</text>
</a>
</g>
</g>
<!-- Node20&#45;&gt;Node27 -->
<g id="edge7" class="edge"><title>Node20&#45;&gt;Node27</title>
<path fill="none" stroke="midnightblue" d="M29.3205,-414.863C31.2595,-468.674 43.034,-726.895 92,-786.016 92.7146,-786.878 93.463,-787.71 94.242,-788.512"/>
<polygon fill="midnightblue" stroke="midnightblue" points="92.0581,-791.248 101.985,-794.951 96.5342,-785.866 92.0581,-791.248"/>
</g>
<!-- Node28 -->
<g id="node9" class="node"><title>Node28</title>
<g id="a_node9"><a xlink:href="classeagle__impl_1_1SoftwareSerial.html#a009772cfdde9ef026c6660f7c578eda8" target="_top" xlink:title="used to handle interrupts on active listening object ">
<polygon fill="white" stroke="black" points="92,-308.016 92,-338.016 225,-338.016 225,-308.016 92,-308.016"/>
<text text-anchor="start" x="100" y="-326.016" font-family="Helvetica,sans-Serif" font-size="10.00">eagle_impl::SoftwareSerial</text>
<text text-anchor="middle" x="158.5" y="-315.016" font-family="Helvetica,sans-Serif" font-size="10.00">::handle_interrupt</text>
</a>
</g>
</g>
<!-- Node20&#45;&gt;Node28 -->
<g id="edge9" class="edge"><title>Node20&#45;&gt;Node28</title>
<path fill="none" stroke="midnightblue" d="M39.058,-395.291C50.9879,-384.108 71.8105,-365.667 92,-353.016 97.9104,-349.312 104.354,-345.798 110.818,-342.568"/>
<polygon fill="midnightblue" stroke="midnightblue" points="112.74,-345.528 120.243,-338.048 109.713,-339.216 112.74,-345.528"/>
</g>
<!-- Node29 -->
<g id="node10" class="node"><title>Node29</title>
<g id="a_node10"><a xlink:href="classeagle__impl_1_1SoftwareSerial.html#a14ff531f8f4a57b2311e452f902c7a31" target="_top" xlink:title="private receive routine called each time interrupt handler gets triggered ">
<polygon fill="white" stroke="black" points="272,-328.016 272,-358.016 405,-358.016 405,-328.016 272,-328.016"/>
<text text-anchor="start" x="280" y="-346.016" font-family="Helvetica,sans-Serif" font-size="10.00">eagle_impl::SoftwareSerial</text>
<text text-anchor="middle" x="338.5" y="-335.016" font-family="Helvetica,sans-Serif" font-size="10.00">::recv</text>
</a>
</g>
</g>
<!-- Node20&#45;&gt;Node29 -->
<g id="edge21" class="edge"><title>Node20&#45;&gt;Node29</title>
<path fill="none" stroke="midnightblue" d="M56.1069,-399.568C101.629,-390.419 194.991,-371.656 261.69,-358.251"/>
<polygon fill="midnightblue" stroke="midnightblue" points="262.627,-361.633 271.741,-356.231 261.248,-354.77 262.627,-361.633"/>
</g>
<!-- Node30 -->
<g id="node11" class="node"><title>Node30</title>
<g id="a_node11"><a xlink:href="classeagle__impl_1_1SoftwareSerial.html#a445b8f3448a04126cb2183b4ae415dbe" target="_top" xlink:title="simple routine to read the rxPin by registers ">
<polygon fill="white" stroke="black" points="452,-274.016 452,-304.016 585,-304.016 585,-274.016 452,-274.016"/>
<text text-anchor="start" x="460" y="-292.016" font-family="Helvetica,sans-Serif" font-size="10.00">eagle_impl::SoftwareSerial</text>
<text text-anchor="middle" x="518.5" y="-281.016" font-family="Helvetica,sans-Serif" font-size="10.00">::rx_pin_read</text>
</a>
</g>
</g>
<!-- Node20&#45;&gt;Node30 -->
<g id="edge22" class="edge"><title>Node20&#45;&gt;Node30</title>
<path fill="none" stroke="midnightblue" d="M31.2972,-395.354C37.0975,-373.389 54.6126,-319.917 92,-298.016 149.285,-264.459 335.813,-273.579 441.909,-281.995"/>
<polygon fill="midnightblue" stroke="midnightblue" points="441.668,-285.487 451.918,-282.806 442.233,-278.51 441.668,-285.487"/>
</g>
<!-- Node32 -->
<g id="node13" class="node"><title>Node32</title>
<g id="a_node13"><a xlink:href="classeagle__impl_1_1SoftwareSerial.html#af2a82cdd5ee22674bacc8a876be93c5c" target="_top" xlink:title="returns the current overflow flag and disables it ">
<polygon fill="white" stroke="black" points="92,-133.016 92,-163.016 225,-163.016 225,-133.016 92,-133.016"/>
<text text-anchor="start" x="100" y="-151.016" font-family="Helvetica,sans-Serif" font-size="10.00">eagle_impl::SoftwareSerial</text>
<text text-anchor="middle" x="158.5" y="-140.016" font-family="Helvetica,sans-Serif" font-size="10.00">::overflow</text>
</a>
</g>
</g>
<!-- Node20&#45;&gt;Node32 -->
<g id="edge16" class="edge"><title>Node20&#45;&gt;Node32</title>
<path fill="none" stroke="midnightblue" d="M28.6634,-395.108C28.0142,-359.857 30.5635,-239.054 92,-172.016 92.7773,-171.167 93.5872,-170.349 94.4261,-169.56"/>
<polygon fill="midnightblue" stroke="midnightblue" points="96.8844,-172.084 102.665,-163.205 92.6094,-166.541 96.8844,-172.084"/>
</g>
<!-- Node33 -->
<g id="node14" class="node"><title>Node33</title>
<g id="a_node14"><a xlink:href="classeagle__impl_1_1SoftwareSerial.html#a330f9da007584d91908da3b4f394f50e" target="_top" xlink:title="reads the actual pointed rxBuffer element without dropping it ">
<polygon fill="white" stroke="black" points="92,-746.016 92,-776.016 225,-776.016 225,-746.016 92,-746.016"/>
<text text-anchor="start" x="100" y="-764.016" font-family="Helvetica,sans-Serif" font-size="10.00">eagle_impl::SoftwareSerial</text>
<text text-anchor="middle" x="158.5" y="-753.016" font-family="Helvetica,sans-Serif" font-size="10.00">::peek</text>
</a>
</g>
</g>
<!-- Node20&#45;&gt;Node33 -->
<g id="edge17" class="edge"><title>Node20&#45;&gt;Node33</title>
<path fill="none" stroke="midnightblue" d="M29.5634,-414.552C32.6339,-463.492 48.8276,-686.128 92,-737.016 92.7247,-737.87 93.4826,-738.694 94.2703,-739.488"/>
<polygon fill="midnightblue" stroke="midnightblue" points="92.1188,-742.25 102.074,-745.877 96.5531,-736.834 92.1188,-742.25"/>
</g>
<!-- Node34 -->
<g id="node15" class="node"><title>Node34</title>
<g id="a_node15"><a xlink:href="classeagle__impl_1_1SoftwareSerial.html#ac80b242424a292382f2ac3ea9d84ba43" target="_top" xlink:title="reads the actual pointed rxBuffer top element ">
<polygon fill="white" stroke="black" points="92,-697.016 92,-727.016 225,-727.016 225,-697.016 92,-697.016"/>
<text text-anchor="start" x="100" y="-715.016" font-family="Helvetica,sans-Serif" font-size="10.00">eagle_impl::SoftwareSerial</text>
<text text-anchor="middle" x="158.5" y="-704.016" font-family="Helvetica,sans-Serif" font-size="10.00">::read</text>
</a>
</g>
</g>
<!-- Node20&#45;&gt;Node34 -->
<g id="edge19" class="edge"><title>Node20&#45;&gt;Node34</title>
<path fill="none" stroke="midnightblue" d="M30.0409,-414.614C34.9575,-458.417 57.0841,-639.055 92,-682.016 94.8732,-685.551 98.2546,-688.687 101.942,-691.467"/>
<polygon fill="midnightblue" stroke="midnightblue" points="100.134,-694.467 110.422,-696.999 103.959,-688.604 100.134,-694.467"/>
</g>
<!-- Node35 -->
<g id="node16" class="node"><title>Node35</title>
<g id="a_node16"><a xlink:href="classeagle__impl_1_1SoftwareSerial.html#a6769e1058c108c24853c66e66bba1529" target="_top" xlink:title="sets a specific pin to be &#39;the chosen one&#39; as a rxPin ">
<polygon fill="white" stroke="black" points="272,-70.0157 272,-100.016 405,-100.016 405,-70.0157 272,-70.0157"/>
<text text-anchor="start" x="280" y="-88.0157" font-family="Helvetica,sans-Serif" font-size="10.00">eagle_impl::SoftwareSerial</text>
<text text-anchor="middle" x="338.5" y="-77.0157" font-family="Helvetica,sans-Serif" font-size="10.00">::setRX</text>
</a>
</g>
</g>
<!-- Node20&#45;&gt;Node35 -->
<g id="edge23" class="edge"><title>Node20&#45;&gt;Node35</title>
<path fill="none" stroke="midnightblue" d="M29.735,-395.308C33.3545,-350.193 50.7945,-161.579 92,-123.016 116.05,-100.508 198.801,-91.3312 261.641,-87.5899"/>
<polygon fill="midnightblue" stroke="midnightblue" points="262.148,-91.0671 271.937,-87.0142 261.757,-84.078 262.148,-91.0671"/>
</g>
<!-- Node36 -->
<g id="node17" class="node"><title>Node36</title>
<g id="a_node17"><a xlink:href="classeagle__impl_1_1SoftwareSerial.html#ae49f6d145127ca3e647e7297d218553c" target="_top" xlink:title="sets a specific pin to be &#39;the chosen one&#39; as a txPin ">
<polygon fill="white" stroke="black" points="272,-11.0157 272,-41.0157 405,-41.0157 405,-11.0157 272,-11.0157"/>
<text text-anchor="start" x="280" y="-29.0157" font-family="Helvetica,sans-Serif" font-size="10.00">eagle_impl::SoftwareSerial</text>
<text text-anchor="middle" x="338.5" y="-18.0157" font-family="Helvetica,sans-Serif" font-size="10.00">::setTX</text>
</a>
</g>
</g>
<!-- Node20&#45;&gt;Node36 -->
<g id="edge24" class="edge"><title>Node20&#45;&gt;Node36</title>
<path fill="none" stroke="midnightblue" d="M29.0817,-395.177C29.7502,-341.455 35.8788,-84.1776 92,-35.0157 141.758,8.57178 221.335,2.64807 276.336,-8.79324"/>
<polygon fill="midnightblue" stroke="midnightblue" points="275.789,-12.2565 286.307,-10.9831 277.291,-5.41943 275.789,-12.2565"/>
</g>
<!-- Node37 -->
<g id="node18" class="node"><title>Node37</title>
<g id="a_node18"><a xlink:href="classeagle__impl_1_1SoftwareSerial.html#aab36336db4a1ca5073071c07d910cb87" target="_top" xlink:title="the constructor for the SoftwareSerial object ">
<polygon fill="white" stroke="black" points="92,-45.0157 92,-75.0157 225,-75.0157 225,-45.0157 92,-45.0157"/>
<text text-anchor="start" x="100" y="-63.0157" font-family="Helvetica,sans-Serif" font-size="10.00">eagle_impl::SoftwareSerial</text>
<text text-anchor="middle" x="158.5" y="-52.0157" font-family="Helvetica,sans-Serif" font-size="10.00">::SoftwareSerial</text>
</a>
</g>
</g>
<!-- Node20&#45;&gt;Node37 -->
<g id="edge25" class="edge"><title>Node20&#45;&gt;Node37</title>
<path fill="none" stroke="midnightblue" d="M29.7557,-395.404C33.6511,-348.016 52.8108,-139.548 92,-90.0157 94.7065,-86.5949 97.8912,-83.5493 101.374,-80.8403"/>
<polygon fill="midnightblue" stroke="midnightblue" points="103.581,-83.5751 109.954,-75.1118 99.694,-77.7533 103.581,-83.5751"/>
</g>
<!-- Node38 -->
<g id="node19" class="node"><title>Node38</title>
<g id="a_node19"><a xlink:href="classeagle__impl_1_1SoftwareSerial.html#a4fcb85cb384df8030835af3e8cafae71" target="_top" xlink:title="writes a bool value on the txPin by registers ">
<polygon fill="white" stroke="black" points="272,-393.016 272,-423.016 405,-423.016 405,-393.016 272,-393.016"/>
<text text-anchor="start" x="280" y="-411.016" font-family="Helvetica,sans-Serif" font-size="10.00">eagle_impl::SoftwareSerial</text>
<text text-anchor="middle" x="338.5" y="-400.016" font-family="Helvetica,sans-Serif" font-size="10.00">::tx_pin_write</text>
</a>
</g>
</g>
<!-- Node20&#45;&gt;Node38 -->
<g id="edge29" class="edge"><title>Node20&#45;&gt;Node38</title>
<path fill="none" stroke="midnightblue" d="M56.1069,-405.279C101.629,-405.722 194.991,-406.63 261.69,-407.278"/>
<polygon fill="midnightblue" stroke="midnightblue" points="261.708,-410.779 271.741,-407.376 261.776,-403.779 261.708,-410.779"/>
</g>
<!-- Node39 -->
<g id="node20" class="node"><title>Node39</title>
<g id="a_node20"><a xlink:href="classeagle__impl_1_1SoftwareSerial.html#ac24e5c6af203ec636c0a200b0cb3caf0" target="_top" xlink:title="writes a specific value to the tx register ">
<polygon fill="white" stroke="black" points="92,-434.016 92,-464.016 225,-464.016 225,-434.016 92,-434.016"/>
<text text-anchor="start" x="100" y="-452.016" font-family="Helvetica,sans-Serif" font-size="10.00">eagle_impl::SoftwareSerial</text>
<text text-anchor="middle" x="158.5" y="-441.016" font-family="Helvetica,sans-Serif" font-size="10.00">::write</text>
</a>
</g>
</g>
<!-- Node20&#45;&gt;Node39 -->
<g id="edge30" class="edge"><title>Node20&#45;&gt;Node39</title>
<path fill="none" stroke="midnightblue" d="M56.2515,-414.347C70.1698,-419.113 87.6019,-425.082 104.06,-430.717"/>
<polygon fill="midnightblue" stroke="midnightblue" points="103.009,-434.057 113.603,-433.985 105.276,-427.434 103.009,-434.057"/>
</g>
<!-- Node40 -->
<g id="node21" class="node"><title>Node40</title>
<g id="a_node21"><a xlink:href="classeagle__impl_1_1SoftwareSerial.html#a8444247cd01f6ac458e598b13c1e50b4" target="_top" xlink:title="the destructor of the SoftwareSerial object ">
<polygon fill="white" stroke="black" points="92,-182.016 92,-212.016 225,-212.016 225,-182.016 92,-182.016"/>
<text text-anchor="start" x="100" y="-200.016" font-family="Helvetica,sans-Serif" font-size="10.00">eagle_impl::SoftwareSerial</text>
<text text-anchor="middle" x="158.5" y="-189.016" font-family="Helvetica,sans-Serif" font-size="10.00">::~SoftwareSerial</text>
</a>
</g>
</g>
<!-- Node20&#45;&gt;Node40 -->
<g id="edge33" class="edge"><title>Node20&#45;&gt;Node40</title>
<path fill="none" stroke="midnightblue" d="M29.8287,-395.181C32.7919,-365.883 45.323,-278.06 92,-227.016 95.2575,-223.453 99.0215,-220.283 103.065,-217.468"/>
<polygon fill="midnightblue" stroke="midnightblue" points="104.994,-220.391 111.686,-212.176 101.332,-214.425 104.994,-220.391"/>
</g>
<!-- Node21&#45;&gt;Node22 -->
<g id="edge2" class="edge"><title>Node21&#45;&gt;Node22</title>
<path fill="none" stroke="midnightblue" d="M193.299,-639.133C203.53,-643.807 214.765,-649.037 225,-654.016 250.244,-666.296 278.308,-680.763 300.092,-692.177"/>
<polygon fill="midnightblue" stroke="midnightblue" points="298.536,-695.313 309.017,-696.866 301.792,-689.116 298.536,-695.313"/>
</g>
<!-- Node23&#45;&gt;Node24 -->
<g id="edge4" class="edge"><title>Node23&#45;&gt;Node24</title>
<path fill="none" stroke="midnightblue" d="M225.05,-583.338C278.473,-587.429 354.812,-587.026 416,-562.016 450.602,-547.872 481.315,-516.67 499.659,-494.999"/>
<polygon fill="midnightblue" stroke="midnightblue" points="502.414,-497.16 506.067,-487.215 497.009,-492.711 502.414,-497.16"/>
</g>
<!-- Node23&#45;&gt;Node25 -->
<g id="edge5" class="edge"><title>Node23&#45;&gt;Node25</title>
<path fill="none" stroke="midnightblue" d="M225.022,-561.028C236.949,-558.482 249.481,-555.806 261.675,-553.203"/>
<polygon fill="midnightblue" stroke="midnightblue" points="262.77,-556.548 271.819,-551.037 261.308,-549.702 262.77,-556.548"/>
</g>
<!-- Node27&#45;&gt;Node22 -->
<g id="edge8" class="edge"><title>Node27&#45;&gt;Node22</title>
<path fill="none" stroke="midnightblue" d="M204.829,-794.962C211.699,-792.237 218.618,-789.23 225,-786.016 255.23,-770.792 287.249,-749.119 309.366,-733.161"/>
<polygon fill="midnightblue" stroke="midnightblue" points="311.607,-735.858 317.622,-727.136 307.481,-730.204 311.607,-735.858"/>
</g>
<!-- Node28&#45;&gt;Node29 -->
<g id="edge10" class="edge"><title>Node28&#45;&gt;Node29</title>
<path fill="none" stroke="midnightblue" d="M225.022,-330.378C236.949,-331.718 249.481,-333.126 261.675,-334.496"/>
<polygon fill="midnightblue" stroke="midnightblue" points="261.491,-337.997 271.819,-335.636 262.272,-331.041 261.491,-337.997"/>
</g>
<!-- Node29&#45;&gt;Node24 -->
<g id="edge12" class="edge"><title>Node29&#45;&gt;Node24</title>
<path fill="none" stroke="midnightblue" d="M372.496,-358.113C386.365,-365 402.401,-373.696 416,-383.016 445.354,-403.134 475.595,-430.698 495.344,-449.797"/>
<polygon fill="midnightblue" stroke="midnightblue" points="493.03,-452.429 502.627,-456.918 497.924,-447.424 493.03,-452.429"/>
</g>
<!-- Node29&#45;&gt;Node30 -->
<g id="edge11" class="edge"><title>Node29&#45;&gt;Node30</title>
<path fill="none" stroke="midnightblue" d="M389.083,-327.974C410.499,-321.477 435.732,-313.822 458.136,-307.025"/>
<polygon fill="midnightblue" stroke="midnightblue" points="459.321,-310.323 467.875,-304.071 457.289,-303.624 459.321,-310.323"/>
</g>
<!-- Node31 -->
<g id="node12" class="node"><title>Node31</title>
<g id="a_node12"><a xlink:href="eBoard_8h.html#a7ba959374e79d3320d69af12f7307f44" target="_top" xlink:title="DebugPulse">
<polygon fill="white" stroke="black" points="483.5,-333.516 483.5,-352.516 553.5,-352.516 553.5,-333.516 483.5,-333.516"/>
<text text-anchor="middle" x="518.5" y="-340.516" font-family="Helvetica,sans-Serif" font-size="10.00">DebugPulse</text>
</a>
</g>
</g>
<!-- Node29&#45;&gt;Node31 -->
<g id="edge13" class="edge"><title>Node29&#45;&gt;Node31</title>
<path fill="none" stroke="midnightblue" d="M405.022,-343.016C427.749,-343.016 452.675,-343.016 473.275,-343.016"/>
<polygon fill="midnightblue" stroke="midnightblue" points="473.313,-346.516 483.313,-343.016 473.313,-339.516 473.313,-346.516"/>
</g>
<!-- Node33&#45;&gt;Node22 -->
<g id="edge18" class="edge"><title>Node33&#45;&gt;Node22</title>
<path fill="none" stroke="midnightblue" d="M214.358,-745.914C232.886,-740.814 253.742,-735.073 272.95,-729.785"/>
<polygon fill="midnightblue" stroke="midnightblue" points="274.11,-733.096 282.823,-727.067 272.253,-726.347 274.11,-733.096"/>
</g>
<!-- Node34&#45;&gt;Node22 -->
<g id="edge20" class="edge"><title>Node34&#45;&gt;Node22</title>
<path fill="none" stroke="midnightblue" d="M225.022,-712.016C236.949,-712.016 249.481,-712.016 261.675,-712.016"/>
<polygon fill="midnightblue" stroke="midnightblue" points="261.819,-715.516 271.819,-712.016 261.819,-708.516 261.819,-715.516"/>
</g>
<!-- Node37&#45;&gt;Node35 -->
<g id="edge27" class="edge"><title>Node37&#45;&gt;Node35</title>
<path fill="none" stroke="midnightblue" d="M225.022,-69.2182C236.949,-70.8933 249.481,-72.6534 261.675,-74.3662"/>
<polygon fill="midnightblue" stroke="midnightblue" points="261.429,-77.8659 271.819,-75.7908 262.403,-70.9339 261.429,-77.8659"/>
</g>
<!-- Node37&#45;&gt;Node36 -->
<g id="edge26" class="edge"><title>Node37&#45;&gt;Node36</title>
<path fill="none" stroke="midnightblue" d="M225.022,-47.5002C236.949,-45.2221 249.481,-42.8283 261.675,-40.499"/>
<polygon fill="midnightblue" stroke="midnightblue" points="262.653,-43.8756 271.819,-38.5615 261.34,-36.9999 262.653,-43.8756"/>
</g>
<!-- Node39&#45;&gt;Node24 -->
<g id="edge32" class="edge"><title>Node39&#45;&gt;Node24</title>
<path fill="none" stroke="midnightblue" d="M225.163,-453.234C286.381,-457.167 377.646,-463.031 441.882,-467.158"/>
<polygon fill="midnightblue" stroke="midnightblue" points="441.747,-470.656 451.951,-467.804 442.196,-463.67 441.747,-470.656"/>
</g>
<!-- Node39&#45;&gt;Node38 -->
<g id="edge31" class="edge"><title>Node39&#45;&gt;Node38</title>
<path fill="none" stroke="midnightblue" d="M224.77,-433.982C236.983,-431.168 249.84,-428.207 262.325,-425.331"/>
<polygon fill="midnightblue" stroke="midnightblue" points="263.279,-428.703 272.238,-423.048 261.708,-421.882 263.279,-428.703"/>
</g>
<!-- Node40&#45;&gt;Node26 -->
<g id="edge34" class="edge"><title>Node40&#45;&gt;Node26</title>
<path fill="none" stroke="midnightblue" d="M225.022,-205.114C233.43,-206.153 242.138,-207.229 250.817,-208.302"/>
<polygon fill="midnightblue" stroke="midnightblue" points="250.618,-211.804 260.972,-209.557 251.477,-204.857 250.618,-211.804"/>
</g>
</g>
</svg>
