<?xml version="1.0" encoding="UTF-8" standalone="no"?>
<!DOCTYPE svg PUBLIC "-//W3C//DTD SVG 1.1//EN"
 "http://www.w3.org/Graphics/SVG/1.1/DTD/svg11.dtd">
<!-- Generated by graphviz version 2.38.0 (20140413.2041)
 -->
<!-- Title: writePWM Pages: 1 -->
<svg width="228pt" height="142pt"
 viewBox="0.00 0.00 228.00 142.00" xmlns="http://www.w3.org/2000/svg" xmlns:xlink="http://www.w3.org/1999/xlink">
<g id="graph0" class="graph" transform="scale(1 1) rotate(0) translate(4 138)">
<title>writePWM</title>
<polygon fill="white" stroke="none" points="-4,4 -4,-138 224,-138 224,4 -4,4"/>
<!-- Node221 -->
<g id="node1" class="node"><title>Node221</title>
<polygon fill="#bfbfbf" stroke="black" points="0,-57.5 0,-76.5 62,-76.5 62,-57.5 0,-57.5"/>
<text text-anchor="middle" x="31" y="-64.5" font-family="Helvetica,sans-Serif" font-size="10.00">writePWM</text>
</g>
<!-- Node222 -->
<g id="node2" class="node"><title>Node222</title>
<g id="a_node2"><a xlink:href="structSoccerBoard.html#a5039fee586408ce515f300d8db073818" target="_top" xlink:title="SoccerBoard::motor">
<polygon fill="white" stroke="black" points="107,-114.5 107,-133.5 211,-133.5 211,-114.5 107,-114.5"/>
<text text-anchor="middle" x="159" y="-121.5" font-family="Helvetica,sans-Serif" font-size="10.00">SoccerBoard::motor</text>
</a>
</g>
</g>
<!-- Node221&#45;&gt;Node222 -->
<g id="edge1" class="edge"><title>Node221&#45;&gt;Node222</title>
<path fill="none" stroke="midnightblue" d="M55.2066,-82.0093C67.5742,-89.5797 83.2451,-98.5072 98,-105 106.001,-108.521 114.86,-111.696 123.261,-114.399"/>
<polygon fill="midnightblue" stroke="midnightblue" points="56.7984,-78.8769 46.4628,-76.5475 53.0899,-84.8138 56.7984,-78.8769"/>
</g>
<!-- Node223 -->
<g id="node3" class="node"><title>Node223</title>
<g id="a_node3"><a xlink:href="structSoccerBoard.html#a663162cfb4e213610cc7145de442662a" target="_top" xlink:title="SoccerBoard::motorsOff">
<polygon fill="white" stroke="black" points="98,-76.5 98,-95.5 220,-95.5 220,-76.5 98,-76.5"/>
<text text-anchor="middle" x="159" y="-83.5" font-family="Helvetica,sans-Serif" font-size="10.00">SoccerBoard::motorsOff</text>
</a>
</g>
</g>
<!-- Node221&#45;&gt;Node223 -->
<g id="edge2" class="edge"><title>Node221&#45;&gt;Node223</title>
<path fill="none" stroke="midnightblue" d="M72.1961,-73.0613C80.3948,-74.2976 89.1891,-75.6238 97.9089,-76.9387"/>
<polygon fill="midnightblue" stroke="midnightblue" points="72.5903,-69.5813 62.1801,-71.551 71.5464,-76.503 72.5903,-69.5813"/>
</g>
<!-- Node224 -->
<g id="node4" class="node"><title>Node224</title>
<g id="a_node4"><a xlink:href="eBoard__comment_8h.html#a7dfd9b79bc5a37d7df40207afbc5431f" target="_top" xlink:title="this is a guard ">
<polygon fill="white" stroke="black" points="138.5,-38.5 138.5,-57.5 179.5,-57.5 179.5,-38.5 138.5,-38.5"/>
<text text-anchor="middle" x="159" y="-45.5" font-family="Helvetica,sans-Serif" font-size="10.00">setup</text>
</a>
</g>
</g>
<!-- Node221&#45;&gt;Node224 -->
<g id="edge3" class="edge"><title>Node221&#45;&gt;Node224</title>
<path fill="none" stroke="midnightblue" d="M72.2811,-60.9259C94.3288,-57.6012 120.663,-53.6302 138.271,-50.9749"/>
<polygon fill="midnightblue" stroke="midnightblue" points="71.5464,-57.497 62.1801,-62.449 72.5903,-64.4187 71.5464,-57.497"/>
</g>
<!-- Node225 -->
<g id="node5" class="node"><title>Node225</title>
<g id="a_node5"><a xlink:href="structI2CInOut.html#ac475882f9f5cf8634f74084b416e9b39" target="_top" xlink:title="I2CInOut::write">
<polygon fill="white" stroke="black" points="117.5,-0.5 117.5,-19.5 200.5,-19.5 200.5,-0.5 117.5,-0.5"/>
<text text-anchor="middle" x="159" y="-7.5" font-family="Helvetica,sans-Serif" font-size="10.00">I2CInOut::write</text>
</a>
</g>
</g>
<!-- Node221&#45;&gt;Node225 -->
<g id="edge4" class="edge"><title>Node221&#45;&gt;Node225</title>
<path fill="none" stroke="midnightblue" d="M55.2066,-51.9907C67.5742,-44.4203 83.2451,-35.4928 98,-29 106.001,-25.4793 114.86,-22.3036 123.261,-19.6011"/>
<polygon fill="midnightblue" stroke="midnightblue" points="53.0899,-49.1862 46.4628,-57.4525 56.7984,-55.1231 53.0899,-49.1862"/>
</g>
</g>
</svg>
