<?xml version="1.0" encoding="UTF-8" standalone="no"?>
<!DOCTYPE svg PUBLIC "-//W3C//DTD SVG 1.1//EN"
 "http://www.w3.org/Graphics/SVG/1.1/DTD/svg11.dtd">
<!-- Generated by graphviz version 2.38.0 (20140413.2041)
 -->
<!-- Title: readI2C Pages: 1 -->
<svg width="203pt" height="88pt"
 viewBox="0.00 0.00 203.00 88.00" xmlns="http://www.w3.org/2000/svg" xmlns:xlink="http://www.w3.org/1999/xlink">
<g id="graph0" class="graph" transform="scale(1 1) rotate(0) translate(4 84)">
<title>readI2C</title>
<polygon fill="white" stroke="none" points="-4,4 -4,-84 199,-84 199,4 -4,4"/>
<!-- Node130 -->
<g id="node1" class="node"><title>Node130</title>
<polygon fill="#bfbfbf" stroke="black" points="0,-30 0,-49 51,-49 51,-30 0,-30"/>
<text text-anchor="middle" x="25.5" y="-37" font-family="Helvetica,sans-Serif" font-size="10.00">readI2C</text>
</g>
<!-- Node131 -->
<g id="node2" class="node"><title>Node131</title>
<g id="a_node2"><a xlink:href="classeagle__impl_1_1TwoWire.html#aee57bc52bee06508e231c5fc6bc35ada" target="_top" xlink:title="eagle_impl::TwoWire\l::available">
<polygon fill="white" stroke="black" points="87,-49.5 87,-79.5 195,-79.5 195,-49.5 87,-49.5"/>
<text text-anchor="start" x="95" y="-67.5" font-family="Helvetica,sans-Serif" font-size="10.00">eagle_impl::TwoWire</text>
<text text-anchor="middle" x="141" y="-56.5" font-family="Helvetica,sans-Serif" font-size="10.00">::available</text>
</a>
</g>
</g>
<!-- Node130&#45;&gt;Node131 -->
<g id="edge1" class="edge"><title>Node130&#45;&gt;Node131</title>
<path fill="none" stroke="midnightblue" d="M51.1278,-44.9246C58.8843,-46.6331 67.8345,-48.6045 77.005,-50.6244"/>
<polygon fill="midnightblue" stroke="midnightblue" points="76.4774,-54.0921 86.9962,-52.8252 77.9832,-47.2559 76.4774,-54.0921"/>
</g>
<!-- Node132 -->
<g id="node3" class="node"><title>Node132</title>
<g id="a_node3"><a xlink:href="classeagle__impl_1_1TwoWire.html#aa361b83500d00dfb93bb25b6473b33e9" target="_top" xlink:title="eagle_impl::TwoWire\l::read">
<polygon fill="white" stroke="black" points="87,-0.5 87,-30.5 195,-30.5 195,-0.5 87,-0.5"/>
<text text-anchor="start" x="95" y="-18.5" font-family="Helvetica,sans-Serif" font-size="10.00">eagle_impl::TwoWire</text>
<text text-anchor="middle" x="141" y="-7.5" font-family="Helvetica,sans-Serif" font-size="10.00">::read</text>
</a>
</g>
</g>
<!-- Node130&#45;&gt;Node132 -->
<g id="edge2" class="edge"><title>Node130&#45;&gt;Node132</title>
<path fill="none" stroke="midnightblue" d="M51.1278,-34.2924C58.8843,-32.6522 67.8345,-30.7597 77.005,-28.8205"/>
<polygon fill="midnightblue" stroke="midnightblue" points="77.9367,-32.201 86.9962,-26.7078 76.4884,-25.3524 77.9367,-32.201"/>
</g>
</g>
</svg>
