<?xml version="1.0" encoding="UTF-8" standalone="no"?>
<!DOCTYPE svg PUBLIC "-//W3C//DTD SVG 1.1//EN"
 "http://www.w3.org/Graphics/SVG/1.1/DTD/svg11.dtd">
<!-- Generated by graphviz version 2.38.0 (20140413.2041)
 -->
<!-- Title: checkOverflow Pages: 1 -->
<svg width="259pt" height="78pt"
 viewBox="0.00 0.00 259.00 77.50" xmlns="http://www.w3.org/2000/svg" xmlns:xlink="http://www.w3.org/1999/xlink">
<g id="graph0" class="graph" transform="scale(1 1) rotate(0) translate(4 73.5)">
<title>checkOverflow</title>
<polygon fill="white" stroke="none" points="-4,4 -4,-73.5 255,-73.5 255,4 -4,4"/>
<!-- Node23 -->
<g id="node1" class="node"><title>Node23</title>
<polygon fill="#bfbfbf" stroke="black" points="0,-28 0,-47 82,-47 82,-28 0,-28"/>
<text text-anchor="middle" x="41" y="-35" font-family="Helvetica,sans-Serif" font-size="10.00">checkOverflow</text>
</g>
<!-- Node24 -->
<g id="node2" class="node"><title>Node24</title>
<g id="a_node2"><a xlink:href="eBoard_8h.html#acb51742a61b072bb500b6e0713d7dc2c" target="_top" xlink:title="_serial">
<polygon fill="white" stroke="black" points="162,-50 162,-69 207,-69 207,-50 162,-50"/>
<text text-anchor="middle" x="184.5" y="-57" font-family="Helvetica,sans-Serif" font-size="10.00">_serial</text>
</a>
</g>
</g>
<!-- Node23&#45;&gt;Node24 -->
<g id="edge1" class="edge"><title>Node23&#45;&gt;Node24</title>
<path fill="none" stroke="midnightblue" d="M82.1697,-43.7455C104.156,-47.1639 131.022,-51.3409 151.565,-54.5348"/>
<polygon fill="midnightblue" stroke="midnightblue" points="151.253,-58.0283 161.672,-56.1062 152.328,-51.1114 151.253,-58.0283"/>
</g>
<!-- Node25 -->
<g id="node3" class="node"><title>Node25</title>
<g id="a_node3"><a xlink:href="classeagle__impl_1_1SoftwareSerial.html#af2a82cdd5ee22674bacc8a876be93c5c" target="_top" xlink:title="eagle_impl::SoftwareSerial\l::overflow">
<polygon fill="white" stroke="black" points="118,-0.5 118,-30.5 251,-30.5 251,-0.5 118,-0.5"/>
<text text-anchor="start" x="126" y="-18.5" font-family="Helvetica,sans-Serif" font-size="10.00">eagle_impl::SoftwareSerial</text>
<text text-anchor="middle" x="184.5" y="-7.5" font-family="Helvetica,sans-Serif" font-size="10.00">::overflow</text>
</a>
</g>
</g>
<!-- Node23&#45;&gt;Node25 -->
<g id="edge2" class="edge"><title>Node23&#45;&gt;Node25</title>
<path fill="none" stroke="midnightblue" d="M82.1697,-31.2545C90.2433,-29.9993 98.9748,-28.6417 107.81,-27.2681"/>
<polygon fill="midnightblue" stroke="midnightblue" points="108.455,-30.7099 117.799,-25.7151 107.379,-23.793 108.455,-30.7099"/>
</g>
</g>
</svg>
