<?xml version="1.0" encoding="UTF-8" standalone="no"?>
<!DOCTYPE svg PUBLIC "-//W3C//DTD SVG 1.1//EN"
 "http://www.w3.org/Graphics/SVG/1.1/DTD/svg11.dtd">
<!-- Generated by graphviz version 2.38.0 (20140413.2041)
 -->
<!-- Title: /eagleoutice/projects/github/eBoard/eBoard.h Pages: 1 -->
<svg width="282pt" height="128pt"
 viewBox="0.00 0.00 281.50 128.00" xmlns="http://www.w3.org/2000/svg" xmlns:xlink="http://www.w3.org/1999/xlink">
<g id="graph0" class="graph" transform="scale(1 1) rotate(0) translate(4 124)">
<title>/eagleoutice/projects/github/eBoard/eBoard.h</title>
<polygon fill="white" stroke="none" points="-4,4 -4,-124 277.5,-124 277.5,4 -4,4"/>
<!-- Node12 -->
<g id="node1" class="node"><title>Node12</title>
<polygon fill="#bfbfbf" stroke="black" points="74.5,-89.5 74.5,-119.5 196.5,-119.5 196.5,-89.5 74.5,-89.5"/>
<text text-anchor="start" x="82.5" y="-107.5" font-family="Helvetica,sans-Serif" font-size="10.00">/eagleoutice/projects</text>
<text text-anchor="middle" x="135.5" y="-96.5" font-family="Helvetica,sans-Serif" font-size="10.00">/github/eBoard/eBoard.h</text>
</g>
<!-- Node13 -->
<g id="node2" class="node"><title>Node13</title>
<g id="a_node2"><a xlink:href="dancing__dragon_8cpp.html" target="_top" xlink:title="a dancing dragon :D ">
<polygon fill="white" stroke="black" points="0,-0.5 0,-52.5 125,-52.5 125,-0.5 0,-0.5"/>
<text text-anchor="start" x="8" y="-40.5" font-family="Helvetica,sans-Serif" font-size="10.00">/eagleoutice/projects</text>
<text text-anchor="start" x="8" y="-29.5" font-family="Helvetica,sans-Serif" font-size="10.00">/github/eBoard/examples</text>
<text text-anchor="start" x="8" y="-18.5" font-family="Helvetica,sans-Serif" font-size="10.00">/dancing_dragon/dancing</text>
<text text-anchor="middle" x="62.5" y="-7.5" font-family="Helvetica,sans-Serif" font-size="10.00">_dragon.cpp</text>
</a>
</g>
</g>
<!-- Node12&#45;&gt;Node13 -->
<g id="edge1" class="edge"><title>Node12&#45;&gt;Node13</title>
<path fill="none" stroke="midnightblue" d="M114.788,-81.937C105.981,-72.7683 95.6555,-62.0181 86.5167,-52.5037"/>
<polygon fill="midnightblue" stroke="midnightblue" points="112.318,-84.4175 121.769,-89.205 117.366,-79.5684 112.318,-84.4175"/>
</g>
<!-- Node14 -->
<g id="node3" class="node"><title>Node14</title>
<g id="a_node3"><a xlink:href="lcd__debug_8cpp.html" target="_top" xlink:title="a lcd debug example ">
<polygon fill="white" stroke="black" points="143.5,-6 143.5,-47 273.5,-47 273.5,-6 143.5,-6"/>
<text text-anchor="start" x="151.5" y="-35" font-family="Helvetica,sans-Serif" font-size="10.00">/eagleoutice/projects</text>
<text text-anchor="start" x="151.5" y="-24" font-family="Helvetica,sans-Serif" font-size="10.00">/github/eBoard/examples</text>
<text text-anchor="middle" x="208.5" y="-13" font-family="Helvetica,sans-Serif" font-size="10.00">/lcd_debug/lcd_debug.cpp</text>
</a>
</g>
</g>
<!-- Node12&#45;&gt;Node14 -->
<g id="edge2" class="edge"><title>Node12&#45;&gt;Node14</title>
<path fill="none" stroke="midnightblue" d="M156.41,-81.7305C166.869,-70.8422 179.43,-57.7647 189.597,-47.18"/>
<polygon fill="midnightblue" stroke="midnightblue" points="153.634,-79.5684 149.231,-89.205 158.682,-84.4175 153.634,-79.5684"/>
</g>
</g>
</svg>
