<?xml version="1.0" encoding="UTF-8" standalone="no"?>
<!DOCTYPE svg PUBLIC "-//W3C//DTD SVG 1.1//EN"
 "http://www.w3.org/Graphics/SVG/1.1/DTD/svg11.dtd">
<!-- Generated by graphviz version 2.38.0 (20140413.2041)
 -->
<!-- Title: eVirtual_main Pages: 1 -->
<svg width="170pt" height="46pt"
 viewBox="0.00 0.00 170.00 46.00" xmlns="http://www.w3.org/2000/svg" xmlns:xlink="http://www.w3.org/1999/xlink">
<g id="graph0" class="graph" transform="scale(1 1) rotate(0) translate(4 42)">
<title>eVirtual_main</title>
<polygon fill="white" stroke="none" points="-4,4 -4,-42 166,-42 166,4 -4,4"/>
<!-- Node48 -->
<g id="node1" class="node"><title>Node48</title>
<polygon fill="#bfbfbf" stroke="black" points="0,-0.5 0,-19.5 76,-19.5 76,-0.5 0,-0.5"/>
<text text-anchor="middle" x="38" y="-7.5" font-family="Helvetica,sans-Serif" font-size="10.00">eVirtual_main</text>
</g>
<!-- Node49 -->
<g id="node2" class="node"><title>Node49</title>
<g id="a_node2"><a xlink:href="eBoard__comment_8h.html#aca4f96af7c6736bf2b61c88d731af741" target="_top" xlink:title="read a digital state from an INPUTpin ">
<polygon fill="white" stroke="black" points="112,-0.5 112,-19.5 162,-19.5 162,-0.5 112,-0.5"/>
<text text-anchor="middle" x="137" y="-7.5" font-family="Helvetica,sans-Serif" font-size="10.00">readPin</text>
</a>
</g>
</g>
<!-- Node48&#45;&gt;Node49 -->
<g id="edge1" class="edge"><title>Node48&#45;&gt;Node49</title>
<path fill="none" stroke="midnightblue" d="M86.4832,-10C95.2985,-10 104.159,-10 111.898,-10"/>
<polygon fill="midnightblue" stroke="midnightblue" points="86.2254,-6.5001 76.2253,-10 86.2253,-13.5001 86.2254,-6.5001"/>
</g>
<!-- Node49&#45;&gt;Node49 -->
<g id="edge2" class="edge"><title>Node49&#45;&gt;Node49</title>
<path fill="none" stroke="midnightblue" d="M118.853,-29.4C120.065,-34.3146 126.114,-38 137,-38 154.418,-38 159.453,-28.5653 152.105,-19.7571"/>
<polygon fill="midnightblue" stroke="midnightblue" points="122.224,-30.3468 121.895,-19.7571 115.548,-28.2404 122.224,-30.3468"/>
</g>
</g>
</svg>
