<?xml version="1.0" encoding="UTF-8" standalone="no"?>
<!DOCTYPE svg PUBLIC "-//W3C//DTD SVG 1.1//EN"
 "http://www.w3.org/Graphics/SVG/1.1/DTD/svg11.dtd">
<!-- Generated by graphviz version 2.38.0 (20140413.2041)
 -->
<!-- Title: eVirtual_main Pages: 1 -->
<svg width="246pt" height="104pt"
 viewBox="0.00 0.00 246.00 104.00" xmlns="http://www.w3.org/2000/svg" xmlns:xlink="http://www.w3.org/1999/xlink">
<g id="graph0" class="graph" transform="scale(1 1) rotate(0) translate(4 100)">
<title>eVirtual_main</title>
<polygon fill="white" stroke="none" points="-4,4 -4,-100 242,-100 242,4 -4,4"/>
<!-- Node12 -->
<g id="node1" class="node"><title>Node12</title>
<polygon fill="#bfbfbf" stroke="black" points="0,-38.5 0,-57.5 76,-57.5 76,-38.5 0,-38.5"/>
<text text-anchor="middle" x="38" y="-45.5" font-family="Helvetica,sans-Serif" font-size="10.00">eVirtual_main</text>
</g>
<!-- Node13 -->
<g id="node2" class="node"><title>Node13</title>
<g id="a_node2"><a xlink:href="structLCD.html#aa01b7522d1e210f9cd071e3a5d4ae9e6" target="_top" xlink:title="changes the background of the display ">
<polygon fill="white" stroke="black" points="112,-76.5 112,-95.5 238,-95.5 238,-76.5 112,-76.5"/>
<text text-anchor="middle" x="175" y="-83.5" font-family="Helvetica,sans-Serif" font-size="10.00">LCD::changeBackground</text>
</a>
</g>
</g>
<!-- Node12&#45;&gt;Node13 -->
<g id="edge1" class="edge"><title>Node12&#45;&gt;Node13</title>
<path fill="none" stroke="midnightblue" d="M73.0662,-57.589C90.4135,-62.4719 111.702,-68.4643 130.249,-73.685"/>
<polygon fill="midnightblue" stroke="midnightblue" points="129.37,-77.0735 139.945,-76.4141 131.267,-70.3354 129.37,-77.0735"/>
</g>
<!-- Node14 -->
<g id="node3" class="node"><title>Node14</title>
<g id="a_node3"><a xlink:href="structLCD.html#a0fd055c88888db0e52fea11f1df24d4a" target="_top" xlink:title="draws a bitmap representet as an array of bytes ">
<polygon fill="white" stroke="black" points="127.5,-38.5 127.5,-57.5 222.5,-57.5 222.5,-38.5 127.5,-38.5"/>
<text text-anchor="middle" x="175" y="-45.5" font-family="Helvetica,sans-Serif" font-size="10.00">LCD::drawBitmap</text>
</a>
</g>
</g>
<!-- Node12&#45;&gt;Node14 -->
<g id="edge2" class="edge"><title>Node12&#45;&gt;Node14</title>
<path fill="none" stroke="midnightblue" d="M76.2467,-48C88.8096,-48 103.135,-48 116.874,-48"/>
<polygon fill="midnightblue" stroke="midnightblue" points="117.226,-51.5001 127.226,-48 117.226,-44.5001 117.226,-51.5001"/>
</g>
<!-- Node15 -->
<g id="node4" class="node"><title>Node15</title>
<g id="a_node4"><a xlink:href="structSoccerBoard.html#a52bcbb2cc7e2d56ee0b0deff26a45b49" target="_top" xlink:title="Say goodnight! ">
<polygon fill="white" stroke="black" points="120,-0.5 120,-19.5 230,-19.5 230,-0.5 120,-0.5"/>
<text text-anchor="middle" x="175" y="-7.5" font-family="Helvetica,sans-Serif" font-size="10.00">SoccerBoard::msleep</text>
</a>
</g>
</g>
<!-- Node12&#45;&gt;Node15 -->
<g id="edge3" class="edge"><title>Node12&#45;&gt;Node15</title>
<path fill="none" stroke="midnightblue" d="M73.0662,-38.411C90.4135,-33.5281 111.702,-27.5357 130.249,-22.315"/>
<polygon fill="midnightblue" stroke="midnightblue" points="131.267,-25.6646 139.945,-19.5859 129.37,-18.9265 131.267,-25.6646"/>
</g>
</g>
</svg>
