<?xml version="1.0" encoding="UTF-8" standalone="no"?>
<!DOCTYPE svg PUBLIC "-//W3C//DTD SVG 1.1//EN"
 "http://www.w3.org/Graphics/SVG/1.1/DTD/svg11.dtd">
<!-- Generated by graphviz version 2.38.0 (20140413.2041)
 -->
<!-- Title: src/eBoard.h Pages: 1 -->
<svg width="479pt" height="84pt"
 viewBox="0.00 0.00 479.00 84.00" xmlns="http://www.w3.org/2000/svg" xmlns:xlink="http://www.w3.org/1999/xlink">
<g id="graph0" class="graph" transform="scale(1 1) rotate(0) translate(4 80)">
<title>src/eBoard.h</title>
<polygon fill="white" stroke="none" points="-4,4 -4,-80 475,-80 475,4 -4,4"/>
<!-- Node0 -->
<g id="node1" class="node"><title>Node0</title>
<polygon fill="#bfbfbf" stroke="black" points="196,-56.5 196,-75.5 268,-75.5 268,-56.5 196,-56.5"/>
<text text-anchor="middle" x="232" y="-63.5" font-family="Helvetica,sans-Serif" font-size="10.00">src/eBoard.h</text>
</g>
<!-- Node1 -->
<g id="node2" class="node"><title>Node1</title>
<polygon fill="white" stroke="#bfbfbf" points="0,-0.5 0,-19.5 58,-19.5 58,-0.5 0,-0.5"/>
<text text-anchor="middle" x="29" y="-7.5" font-family="Helvetica,sans-Serif" font-size="10.00">Arduino.h</text>
</g>
<!-- Node0&#45;&gt;Node1 -->
<g id="edge1" class="edge"><title>Node0&#45;&gt;Node1</title>
<path fill="none" stroke="midnightblue" d="M199.834,-56.4435C164.017,-46.9159 106.136,-31.5191 67.827,-21.3284"/>
<polygon fill="midnightblue" stroke="midnightblue" points="68.6191,-17.9174 58.0554,-18.729 66.8196,-24.6822 68.6191,-17.9174"/>
</g>
<!-- Node2 -->
<g id="node3" class="node"><title>Node2</title>
<polygon fill="white" stroke="#bfbfbf" points="76.5,-0.5 76.5,-19.5 125.5,-19.5 125.5,-0.5 76.5,-0.5"/>
<text text-anchor="middle" x="101" y="-7.5" font-family="Helvetica,sans-Serif" font-size="10.00">avr/io.h</text>
</g>
<!-- Node0&#45;&gt;Node2 -->
<g id="edge2" class="edge"><title>Node0&#45;&gt;Node2</title>
<path fill="none" stroke="midnightblue" d="M211.243,-56.4435C189.684,-47.5566 155.737,-33.5632 131.206,-23.4514"/>
<polygon fill="midnightblue" stroke="midnightblue" points="132.239,-20.0917 121.66,-19.5164 129.572,-26.5634 132.239,-20.0917"/>
</g>
<!-- Node3 -->
<g id="node4" class="node"><title>Node3</title>
<polygon fill="white" stroke="#bfbfbf" points="143.5,-0.5 143.5,-19.5 220.5,-19.5 220.5,-0.5 143.5,-0.5"/>
<text text-anchor="middle" x="182" y="-7.5" font-family="Helvetica,sans-Serif" font-size="10.00">avr/interrupt.h</text>
</g>
<!-- Node0&#45;&gt;Node3 -->
<g id="edge3" class="edge"><title>Node0&#45;&gt;Node3</title>
<path fill="none" stroke="midnightblue" d="M223.744,-56.083C216.535,-48.2982 205.89,-36.8015 197.154,-27.3665"/>
<polygon fill="midnightblue" stroke="midnightblue" points="199.465,-24.7108 190.103,-19.7511 194.329,-29.4666 199.465,-24.7108"/>
</g>
<!-- Node4 -->
<g id="node5" class="node"><title>Node4</title>
<polygon fill="white" stroke="#bfbfbf" points="239,-0.5 239,-19.5 325,-19.5 325,-0.5 239,-0.5"/>
<text text-anchor="middle" x="282" y="-7.5" font-family="Helvetica,sans-Serif" font-size="10.00">avr/pgmspace.h</text>
</g>
<!-- Node0&#45;&gt;Node4 -->
<g id="edge4" class="edge"><title>Node0&#45;&gt;Node4</title>
<path fill="none" stroke="midnightblue" d="M240.256,-56.083C247.465,-48.2982 258.11,-36.8015 266.846,-27.3665"/>
<polygon fill="midnightblue" stroke="midnightblue" points="269.671,-29.4666 273.897,-19.7511 264.535,-24.7108 269.671,-29.4666"/>
</g>
<!-- Node5 -->
<g id="node6" class="node"><title>Node5</title>
<polygon fill="white" stroke="#bfbfbf" points="343.5,-0.5 343.5,-19.5 400.5,-19.5 400.5,-0.5 343.5,-0.5"/>
<text text-anchor="middle" x="372" y="-7.5" font-family="Helvetica,sans-Serif" font-size="10.00">avr/wdt.h</text>
</g>
<!-- Node0&#45;&gt;Node5 -->
<g id="edge5" class="edge"><title>Node0&#45;&gt;Node5</title>
<path fill="none" stroke="midnightblue" d="M254.183,-56.4435C277.428,-47.4776 314.149,-33.314 340.415,-23.1827"/>
<polygon fill="midnightblue" stroke="midnightblue" points="341.85,-26.3807 349.92,-19.5164 339.331,-19.8497 341.85,-26.3807"/>
</g>
<!-- Node6 -->
<g id="node7" class="node"><title>Node6</title>
<polygon fill="white" stroke="#bfbfbf" points="419,-0.5 419,-19.5 471,-19.5 471,-0.5 419,-0.5"/>
<text text-anchor="middle" x="445" y="-7.5" font-family="Helvetica,sans-Serif" font-size="10.00">assert.h</text>
</g>
<!-- Node0&#45;&gt;Node6 -->
<g id="edge6" class="edge"><title>Node0&#45;&gt;Node6</title>
<path fill="none" stroke="midnightblue" d="M265.803,-56.4978C299.587,-47.9907 353.289,-34.4425 408.645,-20.3387"/>
<polygon fill="midnightblue" stroke="midnightblue" points="409.804,-23.6551 418.63,-17.7932 408.075,-16.872 409.804,-23.6551"/>
</g>
</g>
</svg>
