<?xml version="1.0" encoding="UTF-8" standalone="no"?>
<!DOCTYPE svg PUBLIC "-//W3C//DTD SVG 1.1//EN"
 "http://www.w3.org/Graphics/SVG/1.1/DTD/svg11.dtd">
<!-- Generated by graphviz version 2.38.0 (20140413.2041)
 -->
<!-- Title: /eagleoutice/projects/github/eBoard/eBoard_comment.h Pages: 1 -->
<svg width="828pt" height="106pt"
 viewBox="0.00 0.00 828.00 106.00" xmlns="http://www.w3.org/2000/svg" xmlns:xlink="http://www.w3.org/1999/xlink">
<g id="graph0" class="graph" transform="scale(1 1) rotate(0) translate(4 102)">
<title>/eagleoutice/projects/github/eBoard/eBoard_comment.h</title>
<polygon fill="white" stroke="none" points="-4,4 -4,-102 824,-102 824,4 -4,4"/>
<!-- Node0 -->
<g id="node1" class="node"><title>Node0</title>
<polygon fill="#bfbfbf" stroke="black" points="391.5,-56.5 391.5,-97.5 504.5,-97.5 504.5,-56.5 391.5,-56.5"/>
<text text-anchor="start" x="399.5" y="-85.5" font-family="Helvetica,sans-Serif" font-size="10.00">/eagleoutice/projects</text>
<text text-anchor="start" x="399.5" y="-74.5" font-family="Helvetica,sans-Serif" font-size="10.00">/github/eBoard/eBoard</text>
<text text-anchor="middle" x="448" y="-63.5" font-family="Helvetica,sans-Serif" font-size="10.00">_comment.h</text>
</g>
<!-- Node1 -->
<g id="node2" class="node"><title>Node1</title>
<polygon fill="white" stroke="#bfbfbf" points="0,-0.5 0,-19.5 86,-19.5 86,-0.5 0,-0.5"/>
<text text-anchor="middle" x="43" y="-7.5" font-family="Helvetica,sans-Serif" font-size="10.00">avr/pgmspace.h</text>
</g>
<!-- Node0&#45;&gt;Node1 -->
<g id="edge1" class="edge"><title>Node0&#45;&gt;Node1</title>
<path fill="none" stroke="midnightblue" d="M391.408,-67.273C323.701,-56.7757 206.636,-38.4488 96.1102,-20.1665"/>
<polygon fill="midnightblue" stroke="midnightblue" points="96.56,-16.6934 86.1223,-18.5115 95.4156,-23.5992 96.56,-16.6934"/>
</g>
<!-- Node2 -->
<g id="node3" class="node"><title>Node2</title>
<polygon fill="white" stroke="#bfbfbf" points="104,-0.5 104,-19.5 162,-19.5 162,-0.5 104,-0.5"/>
<text text-anchor="middle" x="133" y="-7.5" font-family="Helvetica,sans-Serif" font-size="10.00">Arduino.h</text>
</g>
<!-- Node0&#45;&gt;Node2 -->
<g id="edge2" class="edge"><title>Node0&#45;&gt;Node2</title>
<path fill="none" stroke="midnightblue" d="M391.385,-65.1234C337.51,-54.6445 253.922,-38.0535 172.003,-20.1658"/>
<polygon fill="midnightblue" stroke="midnightblue" points="172.541,-16.7007 162.024,-17.9783 171.042,-23.5383 172.541,-16.7007"/>
</g>
<!-- Node3 -->
<g id="node4" class="node"><title>Node3</title>
<polygon fill="white" stroke="#bfbfbf" points="180.5,-0.5 180.5,-19.5 229.5,-19.5 229.5,-0.5 180.5,-0.5"/>
<text text-anchor="middle" x="205" y="-7.5" font-family="Helvetica,sans-Serif" font-size="10.00">avr/io.h</text>
</g>
<!-- Node0&#45;&gt;Node3 -->
<g id="edge3" class="edge"><title>Node0&#45;&gt;Node3</title>
<path fill="none" stroke="midnightblue" d="M391.379,-60.9938C351.413,-50.3804 296.337,-35.7116 239.402,-20.3685"/>
<polygon fill="midnightblue" stroke="midnightblue" points="240.071,-16.9239 229.504,-17.6995 238.248,-23.6825 240.071,-16.9239"/>
</g>
<!-- Node4 -->
<g id="node5" class="node"><title>Node4</title>
<polygon fill="white" stroke="#bfbfbf" points="247.5,-0.5 247.5,-19.5 324.5,-19.5 324.5,-0.5 247.5,-0.5"/>
<text text-anchor="middle" x="286" y="-7.5" font-family="Helvetica,sans-Serif" font-size="10.00">avr/interrupt.h</text>
</g>
<!-- Node0&#45;&gt;Node4 -->
<g id="edge4" class="edge"><title>Node0&#45;&gt;Node4</title>
<path fill="none" stroke="midnightblue" d="M399.395,-56.4979C372.646,-45.7655 340.255,-32.7691 316.952,-23.4192"/>
<polygon fill="midnightblue" stroke="midnightblue" points="318.149,-20.128 307.565,-19.6525 315.542,-26.6246 318.149,-20.128"/>
</g>
<!-- Node5 -->
<g id="node6" class="node"><title>Node5</title>
<polygon fill="white" stroke="#bfbfbf" points="342.5,-0.5 342.5,-19.5 401.5,-19.5 401.5,-0.5 342.5,-0.5"/>
<text text-anchor="middle" x="372" y="-7.5" font-family="Helvetica,sans-Serif" font-size="10.00">inttypes.h</text>
</g>
<!-- Node0&#45;&gt;Node5 -->
<g id="edge5" class="edge"><title>Node0&#45;&gt;Node5</title>
<path fill="none" stroke="midnightblue" d="M425.197,-56.4979C413.881,-46.8196 400.413,-35.3002 389.859,-26.274"/>
<polygon fill="midnightblue" stroke="midnightblue" points="391.991,-23.4923 382.117,-19.6525 387.442,-28.8121 391.991,-23.4923"/>
</g>
<!-- Node6 -->
<g id="node7" class="node"><title>Node6</title>
<polygon fill="white" stroke="#bfbfbf" points="420,-0.5 420,-19.5 476,-19.5 476,-0.5 420,-0.5"/>
<text text-anchor="middle" x="448" y="-7.5" font-family="Helvetica,sans-Serif" font-size="10.00">Stream.h</text>
</g>
<!-- Node0&#45;&gt;Node6 -->
<g id="edge6" class="edge"><title>Node0&#45;&gt;Node6</title>
<path fill="none" stroke="midnightblue" d="M448,-56.4979C448,-48.0653 448,-38.2351 448,-29.874"/>
<polygon fill="midnightblue" stroke="midnightblue" points="451.5,-29.6525 448,-19.6525 444.5,-29.6525 451.5,-29.6525"/>
</g>
<!-- Node7 -->
<g id="node8" class="node"><title>Node7</title>
<polygon fill="white" stroke="#bfbfbf" points="494,-0.5 494,-19.5 542,-19.5 542,-0.5 494,-0.5"/>
<text text-anchor="middle" x="518" y="-7.5" font-family="Helvetica,sans-Serif" font-size="10.00">stdlib.h</text>
</g>
<!-- Node0&#45;&gt;Node7 -->
<g id="edge7" class="edge"><title>Node0&#45;&gt;Node7</title>
<path fill="none" stroke="midnightblue" d="M469.002,-56.4979C479.322,-46.9154 491.585,-35.5281 501.262,-26.5428"/>
<polygon fill="midnightblue" stroke="midnightblue" points="503.736,-29.0218 508.682,-19.6525 498.972,-23.8922 503.736,-29.0218"/>
</g>
<!-- Node8 -->
<g id="node9" class="node"><title>Node8</title>
<polygon fill="white" stroke="#bfbfbf" points="560.5,-0.5 560.5,-19.5 609.5,-19.5 609.5,-0.5 560.5,-0.5"/>
<text text-anchor="middle" x="585" y="-7.5" font-family="Helvetica,sans-Serif" font-size="10.00">string.h</text>
</g>
<!-- Node0&#45;&gt;Node8 -->
<g id="edge8" class="edge"><title>Node0&#45;&gt;Node8</title>
<path fill="none" stroke="midnightblue" d="M489.105,-56.4979C511.22,-46.0051 537.897,-33.3482 557.493,-24.0507"/>
<polygon fill="midnightblue" stroke="midnightblue" points="559.229,-27.1012 566.763,-19.6525 556.228,-20.7769 559.229,-27.1012"/>
</g>
<!-- Node9 -->
<g id="node10" class="node"><title>Node9</title>
<polygon fill="white" stroke="#bfbfbf" points="628,-0.5 628,-19.5 674,-19.5 674,-0.5 628,-0.5"/>
<text text-anchor="middle" x="651" y="-7.5" font-family="Helvetica,sans-Serif" font-size="10.00">stdio.h</text>
</g>
<!-- Node0&#45;&gt;Node9 -->
<g id="edge9" class="edge"><title>Node0&#45;&gt;Node9</title>
<path fill="none" stroke="midnightblue" d="M504.547,-57.8939C541.121,-46.1829 587.454,-31.3471 618.102,-21.534"/>
<polygon fill="midnightblue" stroke="midnightblue" points="619.401,-24.7931 627.857,-18.4103 617.266,-18.1266 619.401,-24.7931"/>
</g>
<!-- Node10 -->
<g id="node11" class="node"><title>Node10</title>
<polygon fill="white" stroke="#bfbfbf" points="692.5,-0.5 692.5,-19.5 749.5,-19.5 749.5,-0.5 692.5,-0.5"/>
<text text-anchor="middle" x="721" y="-7.5" font-family="Helvetica,sans-Serif" font-size="10.00">avr/wdt.h</text>
</g>
<!-- Node0&#45;&gt;Node10 -->
<g id="edge10" class="edge"><title>Node0&#45;&gt;Node10</title>
<path fill="none" stroke="midnightblue" d="M504.566,-62.532C557.708,-49.8791 635.808,-31.2839 682.221,-20.2331"/>
<polygon fill="midnightblue" stroke="midnightblue" points="683.266,-23.5821 692.184,-17.861 681.645,-16.7725 683.266,-23.5821"/>
</g>
<!-- Node11 -->
<g id="node12" class="node"><title>Node11</title>
<polygon fill="white" stroke="#bfbfbf" points="768,-0.5 768,-19.5 820,-19.5 820,-0.5 768,-0.5"/>
<text text-anchor="middle" x="794" y="-7.5" font-family="Helvetica,sans-Serif" font-size="10.00">assert.h</text>
</g>
<!-- Node0&#45;&gt;Node11 -->
<g id="edge11" class="edge"><title>Node0&#45;&gt;Node11</title>
<path fill="none" stroke="midnightblue" d="M504.714,-67.0746C565.107,-57.2816 663.671,-40.4747 757.711,-20.1599"/>
<polygon fill="midnightblue" stroke="midnightblue" points="758.65,-23.5376 767.676,-17.9901 757.161,-16.6979 758.65,-23.5376"/>
</g>
</g>
</svg>
