<?xml version="1.0" encoding="UTF-8" standalone="no"?>
<!DOCTYPE svg PUBLIC "-//W3C//DTD SVG 1.1//EN"
 "http://www.w3.org/Graphics/SVG/1.1/DTD/svg11.dtd">
<!-- Generated by graphviz version 2.40.1 (20161225.0304)
 -->
<!-- Title: eBoard/eBoard.h Pages: 1 -->
<!--zoomable 151 -->
<svg id="main" version="1.1" xmlns="http://www.w3.org/2000/svg" xmlns:xlink="http://www.w3.org/1999/xlink" xml:space="preserve" onload="init(evt)">
<style type="text/css"><![CDATA[
.edge:hover path { stroke: red; }
.edge:hover polygon { stroke: red; fill: red; }
]]></style>
<script type="text/javascript"><![CDATA[
var edges = document.getElementsByTagName('g');
if (edges && edges.length) {
  for (var i=0;i<edges.length;i++) {
    if (edges[i].id.substr(0,4)=='edge') {
      edges[i].setAttribute('class','edge');
    }
  }
}
]]></script>
        <defs>
                <circle id="rim" cx="0" cy="0" r="7"/>
                <circle id="rim2" cx="0" cy="0" r="3.5"/>
                <g id="zoomPlus">
                        <use xlink:href="#rim" fill="#404040">
                                <set attributeName="fill" to="#808080" begin="zoomplus.mouseover" end="zoomplus.mouseout"/>
                        </use>
                        <path d="M-4,0h8M0,-4v8" fill="none" stroke="white" stroke-width="1.5" pointer-events="none"/>
                </g>
                <g id="zoomMin">
                        <use xlink:href="#rim" fill="#404040">
                                <set attributeName="fill" to="#808080" begin="zoomminus.mouseover" end="zoomminus.mouseout"/>
                        </use>
                        <path d="M-4,0h8" fill="none" stroke="white" stroke-width="1.5" pointer-events="none"/>
                </g>
                <g id="dirArrow">
                        <path fill="none" stroke="white" stroke-width="1.5" d="M0,-3.0v7 M-2.5,-0.5L0,-3.0L2.5,-0.5"/>
                </g>
               <g id="resetDef">
                       <use xlink:href="#rim2" fill="#404040">
                               <set attributeName="fill" to="#808080" begin="reset.mouseover" end="reset.mouseout"/>
                       </use>
               </g>
        </defs>

<script type="text/javascript">
var viewWidth = 4483;
var viewHeight = 151;
var sectionId = 'dynsection-0';
</script>
<script xlink:href="svgpan.js"/>
<svg id="graph" class="graph">
<g id="viewport">
<title>eBoard/eBoard.h</title>
<polygon fill="#ffffff" stroke="transparent" points="-4,4 -4,-147 4479,-147 4479,4 -4,4"/>
<!-- Node0 -->
<g id="node1" class="node">
<title>Node0</title>
<polygon fill="#bfbfbf" stroke="#000000" points="1934,-123.5 1934,-142.5 2089,-142.5 2089,-123.5 1934,-123.5"/>
<text text-anchor="middle" x="2011.5" y="-130.5" font-family="Hack" font-size="10.00" fill="#000000">eBoard/eBoard.h</text>
</g>
<!-- Node1 -->
<g id="node2" class="node">
<title>Node1</title>
<g id="a_node2"><a xlink:href="eagle__PreprocessorControl_8h.html" target="_top" xlink:title="this file contains cool stuff never seen by the Arduino :/ ">
<polygon fill="#ffffff" stroke="#000000" points="0,-56.5 0,-86.5 167,-86.5 167,-56.5 0,-56.5"/>
<text text-anchor="start" x="8" y="-74.5" font-family="Hack" font-size="10.00" fill="#000000">source/eagle_Preprocessor</text>
<text text-anchor="middle" x="83.5" y="-63.5" font-family="Hack" font-size="10.00" fill="#000000">Control.h</text>
</a>
</g>
</g>
<!-- Node0&#45;&gt;Node1 -->
<g id="edge1" class="edge">
<title>Node0&#45;&gt;Node1</title>
<path fill="none" stroke="#191970" d="M1933.7595,-132.5227C1633.0665,-130.4505 545.1637,-120.8028 177.3132,-87.0681"/>
<polygon fill="#191970" stroke="#191970" points="177.4538,-83.5659 167.17,-86.114 176.7982,-90.5352 177.4538,-83.5659"/>
</g>
<!-- Node2 -->
<g id="node3" class="node">
<title>Node2</title>
<polygon fill="#ffffff" stroke="#bfbfbf" points="185,-62 185,-81 286,-81 286,-62 185,-62"/>
<text text-anchor="middle" x="235.5" y="-69" font-family="Hack" font-size="10.00" fill="#000000">avr/pgmspace.h</text>
</g>
<!-- Node0&#45;&gt;Node2 -->
<g id="edge2" class="edge">
<title>Node0&#45;&gt;Node2</title>
<path fill="none" stroke="#191970" d="M1933.9376,-131.9726C1620.6704,-127.6799 457.7377,-110.3111 294.5,-87 288.5895,-86.156 282.421,-84.932 276.3947,-83.5364"/>
<polygon fill="#191970" stroke="#191970" points="277.0073,-80.0821 266.4579,-81.0623 275.316,-86.8747 277.0073,-80.0821"/>
</g>
<!-- Node3 -->
<g id="node4" class="node">
<title>Node3</title>
<polygon fill="#ffffff" stroke="#bfbfbf" points="304,-62 304,-81 375,-81 375,-62 304,-62"/>
<text text-anchor="middle" x="339.5" y="-69" font-family="Hack" font-size="10.00" fill="#000000">Arduino.h</text>
</g>
<!-- Node0&#45;&gt;Node3 -->
<g id="edge3" class="edge">
<title>Node0&#45;&gt;Node3</title>
<path fill="none" stroke="#191970" d="M1933.8189,-132.2184C1630.6861,-128.9751 536.5336,-115.3969 383.5,-87 379.7773,-86.3092 375.9468,-85.3538 372.1722,-84.2535"/>
<polygon fill="#191970" stroke="#191970" points="373.0153,-80.8473 362.4232,-81.0846 370.8514,-87.5045 373.0153,-80.8473"/>
</g>
<!-- Node4 -->
<g id="node5" class="node">
<title>Node4</title>
<polygon fill="#ffffff" stroke="#bfbfbf" points="393,-62 393,-81 458,-81 458,-62 393,-62"/>
<text text-anchor="middle" x="425.5" y="-69" font-family="Hack" font-size="10.00" fill="#000000">avr/io.h</text>
</g>
<!-- Node0&#45;&gt;Node4 -->
<g id="edge4" class="edge">
<title>Node0&#45;&gt;Node4</title>
<path fill="none" stroke="#191970" d="M1933.8807,-131.9916C1641.6145,-128.0148 616.7174,-112.3826 472.5,-87 468.3113,-86.2628 463.9853,-85.2312 459.7316,-84.0465"/>
<polygon fill="#191970" stroke="#191970" points="460.623,-80.6591 450.0362,-81.0713 458.5694,-87.3511 460.623,-80.6591"/>
</g>
<!-- Node5 -->
<g id="node6" class="node">
<title>Node5</title>
<polygon fill="#ffffff" stroke="#bfbfbf" points="275,-.5 275,-19.5 382,-19.5 382,-.5 275,-.5"/>
<text text-anchor="middle" x="328.5" y="-7.5" font-family="Hack" font-size="10.00" fill="#000000">avr/interrupt.h</text>
</g>
<!-- Node0&#45;&gt;Node5 -->
<g id="edge5" class="edge">
<title>Node0&#45;&gt;Node5</title>
<path fill="none" stroke="#191970" d="M1933.7751,-131.9841C1634.9045,-127.9023 572.9894,-111.7175 505.5,-87 484.7085,-79.3853 485.9667,-66.5509 466.5,-56 439.1341,-41.1678 406.1305,-29.9548 379.2613,-22.3142"/>
<polygon fill="#191970" stroke="#191970" points="379.8591,-18.8484 369.2883,-19.5607 377.9961,-25.596 379.8591,-18.8484"/>
</g>
<!-- Node6 -->
<g id="node7" class="node">
<title>Node6</title>
<g id="a_node7"><a xlink:href="eagle__Twi_8h.html" target="_top" xlink:title="this file contains the Twi class ">
<polygon fill="#ffffff" stroke="#000000" points="515,-62 515,-81 640,-81 640,-62 515,-62"/>
<text text-anchor="middle" x="577.5" y="-69" font-family="Hack" font-size="10.00" fill="#000000">source/eagle_Twi.h</text>
</a>
</g>
</g>
<!-- Node0&#45;&gt;Node6 -->
<g id="edge6" class="edge">
<title>Node0&#45;&gt;Node6</title>
<path fill="none" stroke="#191970" d="M1933.7756,-132.2288C1683.4384,-129.4536 899.8846,-118.4185 648.5,-87 640.9268,-86.0535 632.9683,-84.6888 625.2294,-83.1565"/>
<polygon fill="#191970" stroke="#191970" points="625.7378,-79.6872 615.2332,-81.0665 624.3052,-86.539 625.7378,-79.6872"/>
</g>
<!-- Node10 -->
<g id="node11" class="node">
<title>Node10</title>
<g id="a_node11"><a xlink:href="eagle__TwoWire_8h.html" target="_top" xlink:title="this file contains the TwoWire class ">
<polygon fill="#ffffff" stroke="#000000" points="658,-62 658,-81 807,-81 807,-62 658,-62"/>
<text text-anchor="middle" x="732.5" y="-69" font-family="Hack" font-size="10.00" fill="#000000">source/eagle_TwoWire.h</text>
</a>
</g>
</g>
<!-- Node0&#45;&gt;Node10 -->
<g id="edge11" class="edge">
<title>Node0&#45;&gt;Node10</title>
<path fill="none" stroke="#191970" d="M1933.8212,-131.4974C1704.5775,-126.8274 1033.3589,-111.3994 815.5,-87 806.2996,-85.9696 796.5871,-84.5042 787.1751,-82.8812"/>
<polygon fill="#191970" stroke="#191970" points="787.5805,-79.398 777.1186,-81.0713 786.3405,-86.2873 787.5805,-79.398"/>
</g>
<!-- Node14 -->
<g id="node15" class="node">
<title>Node14</title>
<g id="a_node15"><a xlink:href="eagle__SPI_8h.html" target="_top" xlink:title="this file contains the SPI class ">
<polygon fill="#ffffff" stroke="#000000" points="825,-62 825,-81 950,-81 950,-62 825,-62"/>
<text text-anchor="middle" x="887.5" y="-69" font-family="Hack" font-size="10.00" fill="#000000">source/eagle_SPI.h</text>
</a>
</g>
</g>
<!-- Node0&#45;&gt;Node14 -->
<g id="edge16" class="edge">
<title>Node0&#45;&gt;Node14</title>
<path fill="none" stroke="#191970" d="M1933.8489,-131.3342C1723.7201,-126.5507 1147.1044,-111.5228 958.5,-87 951.0186,-86.0272 943.1584,-84.6632 935.5046,-83.1438"/>
<polygon fill="#191970" stroke="#191970" points="936.1155,-79.696 925.6111,-81.0767 934.6839,-86.548 936.1155,-79.696"/>
</g>
<!-- Node16 -->
<g id="node17" class="node">
<title>Node16</title>
<polygon fill="#ffffff" stroke="#bfbfbf" points="968,-62 968,-81 1039,-81 1039,-62 968,-62"/>
<text text-anchor="middle" x="1003.5" y="-69" font-family="Hack" font-size="10.00" fill="#000000">avr/wdt.h</text>
</g>
<!-- Node0&#45;&gt;Node16 -->
<g id="edge18" class="edge">
<title>Node0&#45;&gt;Node16</title>
<path fill="none" stroke="#191970" d="M1933.8469,-132.1993C1735.9747,-129.6937 1216.5593,-120.073 1047.5,-87 1043.8686,-86.2896 1040.132,-85.3391 1036.4433,-84.2568"/>
<polygon fill="#191970" stroke="#191970" points="1037.4886,-80.9163 1026.8965,-81.1585 1035.3277,-87.5745 1037.4886,-80.9163"/>
</g>
<!-- Node17 -->
<g id="node18" class="node">
<title>Node17</title>
<g id="a_node18"><a xlink:href="eagle__SoftwareSerial_8h.html" target="_top" xlink:title="this file contains the SoftwareSerial class ">
<polygon fill="#ffffff" stroke="#000000" points="1057,-62 1057,-81 1248,-81 1248,-62 1057,-62"/>
<text text-anchor="middle" x="1152.5" y="-69" font-family="Hack" font-size="10.00" fill="#000000">source/eagle_SoftwareSerial.h</text>
</a>
</g>
</g>
<!-- Node0&#45;&gt;Node17 -->
<g id="edge19" class="edge">
<title>Node0&#45;&gt;Node17</title>
<path fill="none" stroke="#191970" d="M1933.8763,-130.5019C1796.8375,-125.5943 1503.1791,-112.8474 1256.5,-87 1244.7272,-85.7664 1232.2459,-84.1633 1220.1704,-82.457"/>
<polygon fill="#191970" stroke="#191970" points="1220.5452,-78.9749 1210.1468,-81.0053 1219.5418,-85.9026 1220.5452,-78.9749"/>
</g>
<!-- Node18 -->
<g id="node19" class="node">
<title>Node18</title>
<g id="a_node19"><a xlink:href="eagle__Bluetooth_8h.html" target="_top" xlink:title="this file contains cool stuff to access the bluetooth interface ">
<polygon fill="#ffffff" stroke="#000000" points="1266,-62 1266,-81 1427,-81 1427,-62 1266,-62"/>
<text text-anchor="middle" x="1346.5" y="-69" font-family="Hack" font-size="10.00" fill="#000000">source/eagle_Bluetooth.h</text>
</a>
</g>
</g>
<!-- Node0&#45;&gt;Node18 -->
<g id="edge20" class="edge">
<title>Node0&#45;&gt;Node18</title>
<path fill="none" stroke="#191970" d="M1933.9375,-129.0951C1823.0993,-122.9955 1613.1474,-109.5136 1435.5,-87 1426.0306,-85.7999 1416.0336,-84.2944 1406.295,-82.6966"/>
<polygon fill="#191970" stroke="#191970" points="1406.7156,-79.2182 1396.2728,-81.0069 1405.5518,-86.1208 1406.7156,-79.2182"/>
</g>
<!-- Node19 -->
<g id="node20" class="node">
<title>Node19</title>
<g id="a_node20"><a xlink:href="eagle__RB14Scan_8h.html" target="_top" xlink:title="this file contains the RB14Scan class ">
<polygon fill="#ffffff" stroke="#000000" points="1445,-62 1445,-81 1600,-81 1600,-62 1445,-62"/>
<text text-anchor="middle" x="1522.5" y="-69" font-family="Hack" font-size="10.00" fill="#000000">source/eagle_RB14Scan.h</text>
</a>
</g>
</g>
<!-- Node0&#45;&gt;Node19 -->
<g id="edge21" class="edge">
<title>Node0&#45;&gt;Node19</title>
<path fill="none" stroke="#191970" d="M1933.8728,-125.5675C1852.7707,-117.463 1721.9303,-103.4316 1609.5,-87 1600.8968,-85.7426 1591.8391,-84.2824 1582.9497,-82.7707"/>
<polygon fill="#191970" stroke="#191970" points="1583.4687,-79.3085 1573.018,-81.0501 1582.2738,-86.2058 1583.4687,-79.3085"/>
</g>
<!-- Node20 -->
<g id="node21" class="node">
<title>Node20</title>
<g id="a_node21"><a xlink:href="eagle__Comfort_8h.html" target="_top" xlink:title="this file contains sine8 and gamma8 ">
<polygon fill="#ffffff" stroke="#000000" points="1618,-62 1618,-81 1767,-81 1767,-62 1618,-62"/>
<text text-anchor="middle" x="1692.5" y="-69" font-family="Hack" font-size="10.00" fill="#000000">source/eagle_Comfort.h</text>
</a>
</g>
</g>
<!-- Node0&#45;&gt;Node20 -->
<g id="edge22" class="edge">
<title>Node0&#45;&gt;Node20</title>
<path fill="none" stroke="#191970" d="M1962.0063,-123.4581C1905.3459,-112.5345 1812.5745,-94.6492 1752.0201,-82.9749"/>
<polygon fill="#191970" stroke="#191970" points="1752.3292,-79.4701 1741.8474,-81.0137 1751.004,-86.3435 1752.3292,-79.4701"/>
</g>
<!-- Node21 -->
<g id="node22" class="node">
<title>Node21</title>
<g id="a_node22"><a xlink:href="eagle__Servo_8h.html" target="_top" xlink:title="this file contains the Servo class ">
<polygon fill="#ffffff" stroke="#000000" points="1785,-62 1785,-81 1922,-81 1922,-62 1785,-62"/>
<text text-anchor="middle" x="1853.5" y="-69" font-family="Hack" font-size="10.00" fill="#000000">source/eagle_Servo.h</text>
</a>
</g>
</g>
<!-- Node0&#45;&gt;Node21 -->
<g id="edge23" class="edge">
<title>Node0&#45;&gt;Node21</title>
<path fill="none" stroke="#191970" d="M1986.8125,-123.3906C1960.1443,-113.0103 1917.4718,-96.4004 1887.6089,-84.7766"/>
<polygon fill="#191970" stroke="#191970" points="1888.6027,-81.4076 1878.0141,-81.0419 1886.0635,-87.9309 1888.6027,-81.4076"/>
</g>
<!-- Node22 -->
<g id="node23" class="node">
<title>Node22</title>
<g id="a_node23"><a xlink:href="eagle__Assert_8h.html" target="_top" xlink:title="this file contains the assert wrapper for EBOARD_DEBUG_MODE ">
<polygon fill="#ffffff" stroke="#000000" points="1940,-62 1940,-81 2083,-81 2083,-62 1940,-62"/>
<text text-anchor="middle" x="2011.5" y="-69" font-family="Hack" font-size="10.00" fill="#000000">source/eagle_Assert.h</text>
</a>
</g>
</g>
<!-- Node0&#45;&gt;Node22 -->
<g id="edge24" class="edge">
<title>Node0&#45;&gt;Node22</title>
<path fill="none" stroke="#191970" d="M2011.5,-123.3906C2011.5,-114.8657 2011.5,-102.1392 2011.5,-91.4235"/>
<polygon fill="#191970" stroke="#191970" points="2015.0001,-91.2448 2011.5,-81.2449 2008.0001,-91.2449 2015.0001,-91.2448"/>
</g>
<!-- Node24 -->
<g id="node25" class="node">
<title>Node24</title>
<g id="a_node25"><a xlink:href="eagle__Checks_8h.html" target="_top" xlink:title="this file contains various checkers like checkIdx ">
<polygon fill="#ffffff" stroke="#000000" points="2101,-62 2101,-81 2244,-81 2244,-62 2101,-62"/>
<text text-anchor="middle" x="2172.5" y="-69" font-family="Hack" font-size="10.00" fill="#000000">source/eagle_Checks.h</text>
</a>
</g>
</g>
<!-- Node0&#45;&gt;Node24 -->
<g id="edge26" class="edge">
<title>Node0&#45;&gt;Node24</title>
<path fill="none" stroke="#191970" d="M2036.6563,-123.3906C2063.949,-112.9652 2107.692,-96.2559 2138.1397,-84.6252"/>
<polygon fill="#191970" stroke="#191970" points="2139.4277,-87.8799 2147.5204,-81.0419 2136.9298,-81.3408 2139.4277,-87.8799"/>
</g>
<!-- Node25 -->
<g id="node26" class="node">
<title>Node25</title>
<g id="a_node26"><a xlink:href="eagle__ShiftExt_8h.html" target="_top" xlink:title="this file contains the cool shift&#45;EXTension ">
<polygon fill="#ffffff" stroke="#000000" points="2262,-62 2262,-81 2417,-81 2417,-62 2262,-62"/>
<text text-anchor="middle" x="2339.5" y="-69" font-family="Hack" font-size="10.00" fill="#000000">source/eagle_ShiftExt.h</text>
</a>
</g>
</g>
<!-- Node0&#45;&gt;Node25 -->
<g id="edge27" class="edge">
<title>Node0&#45;&gt;Node25</title>
<path fill="none" stroke="#191970" d="M2062.3901,-123.4581C2120.7695,-112.512 2216.4321,-94.5752 2278.6861,-82.9026"/>
<polygon fill="#191970" stroke="#191970" points="2279.5767,-86.2967 2288.7604,-81.0137 2278.2866,-79.4166 2279.5767,-86.2967"/>
</g>
<!-- Node26 -->
<g id="node27" class="node">
<title>Node26</title>
<g id="a_node27"><a xlink:href="eagle__PinCtrl_8h.html" target="_top" xlink:title="this file contains cool stuff... it controls pins ">
<polygon fill="#ffffff" stroke="#000000" points="2435,-62 2435,-81 2584,-81 2584,-62 2435,-62"/>
<text text-anchor="middle" x="2509.5" y="-69" font-family="Hack" font-size="10.00" fill="#000000">source/eagle_PinCtrl.h</text>
</a>
</g>
</g>
<!-- Node0&#45;&gt;Node26 -->
<g id="edge28" class="edge">
<title>Node0&#45;&gt;Node26</title>
<path fill="none" stroke="#191970" d="M2089.3561,-126.1099C2172.9192,-118.309 2309.4454,-104.3927 2426.5,-87 2434.7331,-85.7767 2443.3972,-84.3335 2451.8961,-82.8282"/>
<polygon fill="#191970" stroke="#191970" points="2452.5451,-86.2676 2461.7615,-81.0419 2451.2979,-79.3796 2452.5451,-86.2676"/>
</g>
<!-- Node27 -->
<g id="node28" class="node">
<title>Node27</title>
<g id="a_node28"><a xlink:href="eagle__ServoCds55_8h.html" target="_top" xlink:title="this file contains the ServoCds55 class ">
<polygon fill="#ffffff" stroke="#000000" points="2602,-62 2602,-81 2769,-81 2769,-62 2602,-62"/>
<text text-anchor="middle" x="2685.5" y="-69" font-family="Hack" font-size="10.00" fill="#000000">source/eagle_ServoCds55.h</text>
</a>
</g>
</g>
<!-- Node0&#45;&gt;Node27 -->
<g id="edge29" class="edge">
<title>Node0&#45;&gt;Node27</title>
<path fill="none" stroke="#191970" d="M2089.3842,-129.0289C2201.233,-122.8304 2413.6911,-109.209 2593.5,-87 2603.2657,-85.7938 2613.5773,-84.2872 2623.6258,-82.6907"/>
<polygon fill="#191970" stroke="#191970" points="2624.25,-86.1353 2633.5567,-81.0721 2623.1239,-79.2264 2624.25,-86.1353"/>
</g>
<!-- Node28 -->
<g id="node29" class="node">
<title>Node28</title>
<g id="a_node29"><a xlink:href="eagle__SoccerBoard_8h.html" target="_top" xlink:title="this file contains the SoccerBoard class ">
<polygon fill="#ffffff" stroke="#000000" points="2787,-62 2787,-81 2960,-81 2960,-62 2787,-62"/>
<text text-anchor="middle" x="2873.5" y="-69" font-family="Hack" font-size="10.00" fill="#000000">source/eagle_SoccerBoard.h</text>
</a>
</g>
</g>
<!-- Node0&#45;&gt;Node28 -->
<g id="edge30" class="edge">
<title>Node0&#45;&gt;Node28</title>
<path fill="none" stroke="#191970" d="M2089.0188,-130.96C2227.6974,-126.7298 2527.2595,-114.9564 2778.5,-87 2788.9466,-85.8376 2799.9946,-84.3107 2810.718,-82.6686"/>
<polygon fill="#191970" stroke="#191970" points="2811.537,-86.0827 2820.8694,-81.067 2810.4461,-79.1682 2811.537,-86.0827"/>
</g>
<!-- Node29 -->
<g id="node30" class="node">
<title>Node29</title>
<g id="a_node30"><a xlink:href="eagle__I2CInOut_8h.html" target="_top" xlink:title="this file contains the I2CInOut class ">
<polygon fill="#ffffff" stroke="#000000" points="2978,-62 2978,-81 3133,-81 3133,-62 2978,-62"/>
<text text-anchor="middle" x="3055.5" y="-69" font-family="Hack" font-size="10.00" fill="#000000">source/eagle_I2CInOut.h</text>
</a>
</g>
</g>
<!-- Node0&#45;&gt;Node29 -->
<g id="edge31" class="edge">
<title>Node0&#45;&gt;Node29</title>
<path fill="none" stroke="#191970" d="M2089.1433,-130.5797C2285.7385,-124.2411 2799.6073,-106.3056 2969.5,-87 2979.0096,-85.9194 2989.0549,-84.4301 2998.7944,-82.7991"/>
<polygon fill="#191970" stroke="#191970" points="2999.5455,-86.2211 3008.7979,-81.0594 2998.3461,-79.3246 2999.5455,-86.2211"/>
</g>
<!-- Node30 -->
<g id="node31" class="node">
<title>Node30</title>
<g id="a_node31"><a xlink:href="eagle__AX12Servo_8h.html" target="_top" xlink:title="this file contains the AX12Servo class ">
<polygon fill="#ffffff" stroke="#000000" points="3151,-62 3151,-81 3312,-81 3312,-62 3151,-62"/>
<text text-anchor="middle" x="3231.5" y="-69" font-family="Hack" font-size="10.00" fill="#000000">source/eagle_AX12Servo.h</text>
</a>
</g>
</g>
<!-- Node0&#45;&gt;Node30 -->
<g id="edge32" class="edge">
<title>Node0&#45;&gt;Node30</title>
<path fill="none" stroke="#191970" d="M2089.2355,-131.1746C2309.9493,-125.779 2937.694,-108.9027 3142.5,-87 3152.5588,-85.9243 3163.1987,-84.4067 3173.4882,-82.7381"/>
<polygon fill="#191970" stroke="#191970" points="3174.347,-86.1429 3183.6266,-81.0301 3173.184,-79.2401 3174.347,-86.1429"/>
</g>
<!-- Node31 -->
<g id="node32" class="node">
<title>Node31</title>
<g id="a_node32"><a xlink:href="eagle__DynamixelBoard_8h.html" target="_top" xlink:title="this file contains the DynamixelBoard class ">
<polygon fill="#ffffff" stroke="#000000" points="3330,-62 3330,-81 3521,-81 3521,-62 3330,-62"/>
<text text-anchor="middle" x="3425.5" y="-69" font-family="Hack" font-size="10.00" fill="#000000">source/eagle_DynamixelBoard.h</text>
</a>
</g>
</g>
<!-- Node0&#45;&gt;Node31 -->
<g id="edge33" class="edge">
<title>Node0&#45;&gt;Node31</title>
<path fill="none" stroke="#191970" d="M2089.106,-131.4264C2332.664,-126.3062 3080.0099,-109.1642 3321.5,-87 3333.8359,-85.8678 3346.9394,-84.2467 3359.5369,-82.4755"/>
<polygon fill="#191970" stroke="#191970" points="3360.113,-85.9287 3369.507,-81.0293 3359.1081,-79.0012 3360.113,-85.9287"/>
</g>
<!-- Node32 -->
<g id="node33" class="node">
<title>Node32</title>
<g id="a_node33"><a xlink:href="eagle__I2C_8h.html" target="_top" xlink:title="this file contains cool stuff to access the I²C interface ">
<polygon fill="#ffffff" stroke="#000000" points="3539,-62 3539,-81 3664,-81 3664,-62 3539,-62"/>
<text text-anchor="middle" x="3601.5" y="-69" font-family="Hack" font-size="10.00" fill="#000000">source/eagle_I2C.h</text>
</a>
</g>
</g>
<!-- Node0&#45;&gt;Node32 -->
<g id="edge34" class="edge">
<title>Node0&#45;&gt;Node32</title>
<path fill="none" stroke="#191970" d="M2089.0505,-132.544C2357.6447,-130.6685 3247.2049,-121.9087 3530.5,-87 3538.248,-86.0453 3546.3983,-84.6466 3554.3039,-83.0743"/>
<polygon fill="#191970" stroke="#191970" points="3555.0702,-86.4898 3564.138,-81.0102 3553.6323,-79.6391 3555.0702,-86.4898"/>
</g>
<!-- Node33 -->
<g id="node34" class="node">
<title>Node33</title>
<g id="a_node34"><a xlink:href="eagle__LCD_8h.html" target="_top" xlink:title="this file contains the LCD class ">
<polygon fill="#ffffff" stroke="#000000" points="3682,-62 3682,-81 3807,-81 3807,-62 3682,-62"/>
<text text-anchor="middle" x="3744.5" y="-69" font-family="Hack" font-size="10.00" fill="#000000">source/eagle_LCD.h</text>
</a>
</g>
</g>
<!-- Node0&#45;&gt;Node33 -->
<g id="edge35" class="edge">
<title>Node0&#45;&gt;Node33</title>
<path fill="none" stroke="#191970" d="M2089.353,-132.7788C2374.4361,-131.6676 3361.0021,-125.0943 3673.5,-87 3681.2492,-86.0554 3689.4002,-84.6619 3697.306,-83.0917"/>
<polygon fill="#191970" stroke="#191970" points="3698.0718,-86.5073 3707.1403,-81.0288 3696.6347,-79.6564 3698.0718,-86.5073"/>
</g>
<!-- Node34 -->
<g id="node35" class="node">
<title>Node34</title>
<g id="a_node35"><a xlink:href="eagle__NeoPixel_8h.html" target="_top" xlink:title="this file contains the NeoPixel class ">
<polygon fill="#ffffff" stroke="#000000" points="3825,-62 3825,-81 3980,-81 3980,-62 3825,-62"/>
<text text-anchor="middle" x="3902.5" y="-69" font-family="Hack" font-size="10.00" fill="#000000">source/eagle_NeoPixel.h</text>
</a>
</g>
</g>
<!-- Node0&#45;&gt;Node34 -->
<g id="edge36" class="edge">
<title>Node0&#45;&gt;Node34</title>
<path fill="none" stroke="#191970" d="M2089.2157,-132.6017C2389.4533,-130.8172 3473.8617,-122.0358 3816.5,-87 3826.461,-85.9815 3837.002,-84.4579 3847.162,-82.7573"/>
<polygon fill="#191970" stroke="#191970" points="3847.9112,-86.1795 3857.1593,-81.01 3846.706,-79.284 3847.9112,-86.1795"/>
</g>
<!-- Node35 -->
<g id="node36" class="node">
<title>Node35</title>
<g id="a_node36"><a xlink:href="eagle__ReptTask_8h.html" target="_top" xlink:title="this file contains cool stuff... this file contains cool stuff... this file contains cool stuff...">
<polygon fill="#ffffff" stroke="#000000" points="3998,-62 3998,-81 4153,-81 4153,-62 3998,-62"/>
<text text-anchor="middle" x="4075.5" y="-69" font-family="Hack" font-size="10.00" fill="#000000">source/eagle_ReptTask.h</text>
</a>
</g>
</g>
<!-- Node0&#45;&gt;Node35 -->
<g id="edge37" class="edge">
<title>Node0&#45;&gt;Node35</title>
<path fill="none" stroke="#191970" d="M2089.2363,-132.8034C2407.3733,-131.7499 3611.1158,-125.2651 3989.5,-87 3999.4621,-85.9926 4010.0037,-84.4743 4020.1638,-82.7757"/>
<polygon fill="#191970" stroke="#191970" points="4020.9128,-86.1979 4030.1612,-81.0291 4019.708,-79.3024 4020.9128,-86.1979"/>
</g>
<!-- Node36 -->
<g id="node37" class="node">
<title>Node36</title>
<g id="a_node37"><a xlink:href="eagle__Setup_8h.html" target="_top" xlink:title="this file contains the setup method ">
<polygon fill="#ffffff" stroke="#000000" points="4171,-62 4171,-81 4308,-81 4308,-62 4171,-62"/>
<text text-anchor="middle" x="4239.5" y="-69" font-family="Hack" font-size="10.00" fill="#000000">source/eagle_Setup.h</text>
</a>
</g>
</g>
<!-- Node0&#45;&gt;Node36 -->
<g id="edge38" class="edge">
<title>Node0&#45;&gt;Node36</title>
<path fill="none" stroke="#191970" d="M2089.2989,-132.1546C2450.3261,-128.1207 3953.6635,-110.0679 4162.5,-87 4171.0728,-86.0531 4180.1097,-84.6279 4188.8582,-83.0185"/>
<polygon fill="#191970" stroke="#191970" points="4189.7993,-86.4014 4198.9506,-81.0624 4188.4673,-79.5293 4189.7993,-86.4014"/>
</g>
<!-- Node37 -->
<g id="node38" class="node">
<title>Node37</title>
<g id="a_node38"><a xlink:href="eagle__HelpMot_8h.html" target="_top" xlink:title="this file contains the helper to acces the motor on the main car ">
<polygon fill="#ffffff" stroke="#000000" points="4326,-62 4326,-81 4475,-81 4475,-62 4326,-62"/>
<text text-anchor="middle" x="4400.5" y="-69" font-family="Hack" font-size="10.00" fill="#000000">source/eagle_HelpMot.h</text>
</a>
</g>
</g>
<!-- Node0&#45;&gt;Node37 -->
<g id="edge39" class="edge">
<title>Node0&#45;&gt;Node37</title>
<path fill="none" stroke="#191970" d="M2089.1843,-132.2111C2465.7546,-128.2847 4092.3168,-110.113 4317.5,-87 4327.024,-86.0224 4337.0908,-84.5348 4346.8035,-82.861"/>
<polygon fill="#191970" stroke="#191970" points="4347.5407,-86.2845 4356.7594,-81.0628 4346.2965,-79.396 4347.5407,-86.2845"/>
</g>
<!-- Node6&#45;&gt;Node5 -->
<g id="edge8" class="edge">
<title>Node6&#45;&gt;Node5</title>
<path fill="none" stroke="#191970" d="M538.867,-61.9581C495.2519,-51.1857 424.2247,-33.6428 376.9359,-21.9631"/>
<polygon fill="#191970" stroke="#191970" points="377.7712,-18.5643 367.2237,-19.5643 376.0927,-25.3601 377.7712,-18.5643"/>
</g>
<!-- Node7 -->
<g id="node8" class="node">
<title>Node7</title>
<polygon fill="#ffffff" stroke="#bfbfbf" points="626,-.5 626,-19.5 703,-19.5 703,-.5 626,-.5"/>
<text text-anchor="middle" x="664.5" y="-7.5" font-family="Hack" font-size="10.00" fill="#000000">inttypes.h</text>
</g>
<!-- Node6&#45;&gt;Node7 -->
<g id="edge7" class="edge">
<title>Node6&#45;&gt;Node7</title>
<path fill="none" stroke="#191970" d="M591.0938,-61.8906C604.8843,-52.1421 626.4472,-36.8994 642.641,-25.4521"/>
<polygon fill="#191970" stroke="#191970" points="644.8563,-28.1723 651.0017,-19.5419 640.8156,-22.4563 644.8563,-28.1723"/>
</g>
<!-- Node8 -->
<g id="node9" class="node">
<title>Node8</title>
<polygon fill="#ffffff" stroke="#bfbfbf" points="400,-.5 400,-19.5 489,-19.5 489,-.5 400,-.5"/>
<text text-anchor="middle" x="444.5" y="-7.5" font-family="Hack" font-size="10.00" fill="#000000">compat/twi.h</text>
</g>
<!-- Node6&#45;&gt;Node8 -->
<g id="edge9" class="edge">
<title>Node6&#45;&gt;Node8</title>
<path fill="none" stroke="#191970" d="M556.7188,-61.8906C534.6606,-51.6908 499.595,-35.4763 474.5331,-23.8875"/>
<polygon fill="#191970" stroke="#191970" points="475.6809,-20.5622 465.1353,-19.5419 472.7429,-26.9158 475.6809,-20.5622"/>
</g>
<!-- Node9 -->
<g id="node10" class="node">
<title>Node9</title>
<polygon fill="#ffffff" stroke="#bfbfbf" points="507,-.5 507,-19.5 608,-19.5 608,-.5 507,-.5"/>
<text text-anchor="middle" x="557.5" y="-7.5" font-family="Hack" font-size="10.00" fill="#000000">pins_arduino.h</text>
</g>
<!-- Node6&#45;&gt;Node9 -->
<g id="edge10" class="edge">
<title>Node6&#45;&gt;Node9</title>
<path fill="none" stroke="#191970" d="M574.375,-61.8906C571.5735,-53.276 567.3767,-40.3708 563.8694,-29.5858"/>
<polygon fill="#191970" stroke="#191970" points="567.0902,-28.1722 560.6691,-19.7449 560.4333,-30.3371 567.0902,-28.1722"/>
</g>
<!-- Node10&#45;&gt;Node7 -->
<g id="edge12" class="edge">
<title>Node10&#45;&gt;Node7</title>
<path fill="none" stroke="#191970" d="M721.875,-61.8906C711.4569,-52.4683 695.3636,-37.9134 682.8696,-26.6137"/>
<polygon fill="#191970" stroke="#191970" points="685.0392,-23.8568 675.2748,-19.7449 680.3438,-29.0484 685.0392,-23.8568"/>
</g>
<!-- Node11 -->
<g id="node12" class="node">
<title>Node11</title>
<polygon fill="#ffffff" stroke="#bfbfbf" points="721,-.5 721,-19.5 786,-19.5 786,-.5 721,-.5"/>
<text text-anchor="middle" x="753.5" y="-7.5" font-family="Hack" font-size="10.00" fill="#000000">Stream.h</text>
</g>
<!-- Node10&#45;&gt;Node11 -->
<g id="edge13" class="edge">
<title>Node10&#45;&gt;Node11</title>
<path fill="none" stroke="#191970" d="M735.7813,-61.8906C738.7535,-53.1862 743.2214,-40.1015 746.927,-29.2494"/>
<polygon fill="#191970" stroke="#191970" points="750.2532,-30.3394 750.1725,-19.7449 743.6288,-28.0773 750.2532,-30.3394"/>
</g>
<!-- Node12 -->
<g id="node13" class="node">
<title>Node12</title>
<polygon fill="#ffffff" stroke="#bfbfbf" points="804,-.5 804,-19.5 869,-19.5 869,-.5 804,-.5"/>
<text text-anchor="middle" x="836.5" y="-7.5" font-family="Hack" font-size="10.00" fill="#000000">stdlib.h</text>
</g>
<!-- Node10&#45;&gt;Node12 -->
<g id="edge14" class="edge">
<title>Node10&#45;&gt;Node12</title>
<path fill="none" stroke="#191970" d="M748.75,-61.8906C765.6169,-51.9165 792.2099,-36.1908 811.7035,-24.6633"/>
<polygon fill="#191970" stroke="#191970" points="813.538,-27.6447 820.3641,-19.5419 809.9749,-21.6194 813.538,-27.6447"/>
</g>
<!-- Node13 -->
<g id="node14" class="node">
<title>Node13</title>
<polygon fill="#ffffff" stroke="#bfbfbf" points="887,-.5 887,-19.5 952,-19.5 952,-.5 887,-.5"/>
<text text-anchor="middle" x="919.5" y="-7.5" font-family="Hack" font-size="10.00" fill="#000000">string.h</text>
</g>
<!-- Node10&#45;&gt;Node13 -->
<g id="edge15" class="edge">
<title>Node10&#45;&gt;Node13</title>
<path fill="none" stroke="#191970" d="M761.7188,-61.8906C793.8307,-51.3298 845.549,-34.3208 880.9608,-22.6747"/>
<polygon fill="#191970" stroke="#191970" points="882.0804,-25.9909 890.4864,-19.5419 879.8935,-19.3413 882.0804,-25.9909"/>
</g>
<!-- Node15 -->
<g id="node16" class="node">
<title>Node15</title>
<polygon fill="#ffffff" stroke="#bfbfbf" points="970,-.5 970,-19.5 1029,-19.5 1029,-.5 970,-.5"/>
<text text-anchor="middle" x="999.5" y="-7.5" font-family="Hack" font-size="10.00" fill="#000000">stdio.h</text>
</g>
<!-- Node14&#45;&gt;Node15 -->
<g id="edge17" class="edge">
<title>Node14&#45;&gt;Node15</title>
<path fill="none" stroke="#191970" d="M905,-61.8906C923.2465,-51.8713 952.0624,-36.0483 973.0806,-24.5071"/>
<polygon fill="#191970" stroke="#191970" points="975.042,-27.423 982.1229,-19.5419 971.6728,-21.2872 975.042,-27.423"/>
</g>
<!-- Node23 -->
<g id="node24" class="node">
<title>Node23</title>
<polygon fill="#ffffff" stroke="#bfbfbf" points="1979,-.5 1979,-19.5 2044,-19.5 2044,-.5 1979,-.5"/>
<text text-anchor="middle" x="2011.5" y="-7.5" font-family="Hack" font-size="10.00" fill="#000000">assert.h</text>
</g>
<!-- Node22&#45;&gt;Node23 -->
<g id="edge25" class="edge">
<title>Node22&#45;&gt;Node23</title>
<path fill="none" stroke="#191970" d="M2011.5,-61.8906C2011.5,-53.3657 2011.5,-40.6392 2011.5,-29.9235"/>
<polygon fill="#191970" stroke="#191970" points="2015.0001,-29.7448 2011.5,-19.7449 2008.0001,-29.7449 2015.0001,-29.7448"/>
</g>
</g>
</svg>
        <g id="navigator" transform="translate(0 0)" fill="#404254">
                <rect fill="#f2f5e9" fill-opacity="0.5" stroke="#606060" stroke-width=".5" x="0" y="0" width="60" height="60"/>
                <use id="zoomplus" xlink:href="#zoomPlus" x="17" y="9" onmousedown="handleZoom(evt,'in')"/>
                <use id="zoomminus" xlink:href="#zoomMin" x="42" y="9" onmousedown="handleZoom(evt,'out')"/>
                <use id="reset" xlink:href="#resetDef" x="30" y="36" onmousedown="handleReset()"/>
                <g id="arrowUp" xlink:href="#dirArrow" transform="translate(30 24)" onmousedown="handlePan(0,-1)">
                  <use xlink:href="#rim" fill="#404040">
                        <set attributeName="fill" to="#808080" begin="arrowUp.mouseover" end="arrowUp.mouseout"/>
                  </use>
                  <path fill="none" stroke="white" stroke-width="1.5" d="M0,-3.0v7 M-2.5,-0.5L0,-3.0L2.5,-0.5"/>
                </g>
                <g id="arrowRight" xlink:href="#dirArrow" transform="rotate(90) translate(36 -43)" onmousedown="handlePan(1,0)">
                  <use xlink:href="#rim" fill="#404040">
                        <set attributeName="fill" to="#808080" begin="arrowRight.mouseover" end="arrowRight.mouseout"/>
                  </use>
                  <path fill="none" stroke="white" stroke-width="1.5" d="M0,-3.0v7 M-2.5,-0.5L0,-3.0L2.5,-0.5"/>
                </g>
                <g id="arrowDown" xlink:href="#dirArrow" transform="rotate(180) translate(-30 -48)" onmousedown="handlePan(0,1)">
                  <use xlink:href="#rim" fill="#404040">
                        <set attributeName="fill" to="#808080" begin="arrowDown.mouseover" end="arrowDown.mouseout"/>
                  </use>
                  <path fill="none" stroke="white" stroke-width="1.5" d="M0,-3.0v7 M-2.5,-0.5L0,-3.0L2.5,-0.5"/>
                </g>
                <g id="arrowLeft" xlink:href="#dirArrow" transform="rotate(270) translate(-36 17)" onmousedown="handlePan(-1,0)">
                  <use xlink:href="#rim" fill="#404040">
                        <set attributeName="fill" to="#808080" begin="arrowLeft.mouseover" end="arrowLeft.mouseout"/>
                  </use>
                  <path fill="none" stroke="white" stroke-width="1.5" d="M0,-3.0v7 M-2.5,-0.5L0,-3.0L2.5,-0.5"/>
                </g>
        </g>
        <svg viewBox="0 0 15 15" width="100%" height="30px" preserveAspectRatio="xMaxYMin meet">
         <g id="arrow_out" transform="scale(0.3 0.3)">
          <a xlink:href="eBoard__comment_8h__incl_org.svg" target="_base">
           <rect id="button" ry="5" rx="5" y="6" x="6" height="38" width="38"
                fill="#f2f5e9" fill-opacity="0.5" stroke="#606060" stroke-width="1.0"/>
           <path id="arrow"
             d="M 11.500037,31.436501 C 11.940474,20.09759 22.043105,11.32322 32.158766,21.979434 L 37.068811,17.246167 C 37.068811,17.246167 37.088388,32 37.088388,32 L 22.160133,31.978069 C 22.160133,31.978069 26.997745,27.140456 26.997745,27.140456 C 18.528582,18.264221 13.291696,25.230495 11.500037,31.436501 z"
             style="fill:#404040;"/>
          </a>
         </g>
        </svg>
</svg>
