<?xml version="1.0" encoding="UTF-8" standalone="no"?>
<!DOCTYPE svg PUBLIC "-//W3C//DTD SVG 1.1//EN"
 "http://www.w3.org/Graphics/SVG/1.1/DTD/svg11.dtd">
<!-- Generated by graphviz version 2.38.0 (20140413.2041)
 -->
<!-- Title: setPin Pages: 1 -->
<svg width="226pt" height="65pt"
 viewBox="0.00 0.00 226.00 65.00" xmlns="http://www.w3.org/2000/svg" xmlns:xlink="http://www.w3.org/1999/xlink">
<g id="graph0" class="graph" transform="scale(1 1) rotate(0) translate(4 61)">
<title>setPin</title>
<polygon fill="white" stroke="none" points="-4,4 -4,-61 222,-61 222,4 -4,4"/>
<!-- Node243 -->
<g id="node1" class="node"><title>Node243</title>
<polygon fill="#bfbfbf" stroke="black" points="0,-19.5 0,-38.5 44,-38.5 44,-19.5 0,-19.5"/>
<text text-anchor="middle" x="22" y="-26.5" font-family="Helvetica,sans-Serif" font-size="10.00">setPin</text>
</g>
<!-- Node244 -->
<g id="node2" class="node"><title>Node244</title>
<g id="a_node2"><a xlink:href="eBoard__comment_8h.html#aca4f96af7c6736bf2b61c88d731af741" target="_top" xlink:title="read a digital state from an INPUTpin ">
<polygon fill="white" stroke="black" points="168,-19.5 168,-38.5 218,-38.5 218,-19.5 168,-19.5"/>
<text text-anchor="middle" x="193" y="-26.5" font-family="Helvetica,sans-Serif" font-size="10.00">readPin</text>
</a>
</g>
</g>
<!-- Node243&#45;&gt;Node244 -->
<g id="edge1" class="edge"><title>Node243&#45;&gt;Node244</title>
<path fill="none" stroke="midnightblue" d="M54.4613,-29C87.322,-29 138.147,-29 167.941,-29"/>
<polygon fill="midnightblue" stroke="midnightblue" points="54.0623,-25.5001 44.0623,-29 54.0622,-32.5001 54.0623,-25.5001"/>
</g>
<!-- Node245 -->
<g id="node3" class="node"><title>Node245</title>
<g id="a_node3"><a xlink:href="eBoard__comment_8h.html#ad6d4c1b1e3b495ed81fb28fac04d2bd6" target="_top" xlink:title="write a boolean state to an output pin ">
<polygon fill="white" stroke="black" points="80,-0.5 80,-19.5 132,-19.5 132,-0.5 80,-0.5"/>
<text text-anchor="middle" x="106" y="-7.5" font-family="Helvetica,sans-Serif" font-size="10.00">writePin</text>
</a>
</g>
</g>
<!-- Node243&#45;&gt;Node245 -->
<g id="edge3" class="edge"><title>Node243&#45;&gt;Node245</title>
<path fill="none" stroke="midnightblue" d="M54.0964,-21.7947C62.612,-19.8216 71.7338,-17.708 79.8697,-15.8229"/>
<polygon fill="midnightblue" stroke="midnightblue" points="53.0689,-18.44 44.117,-24.107 54.649,-25.2593 53.0689,-18.44"/>
</g>
<!-- Node244&#45;&gt;Node244 -->
<g id="edge2" class="edge"><title>Node244&#45;&gt;Node244</title>
<path fill="none" stroke="midnightblue" d="M177.075,-48.4C178.138,-53.3146 183.447,-57 193,-57 208.285,-57 212.704,-47.5653 206.255,-38.7571"/>
<polygon fill="midnightblue" stroke="midnightblue" points="180.449,-49.3284 179.745,-38.7571 173.703,-47.4604 180.449,-49.3284"/>
</g>
<!-- Node245&#45;&gt;Node244 -->
<g id="edge4" class="edge"><title>Node245&#45;&gt;Node244</title>
<path fill="none" stroke="midnightblue" d="M141.926,-17.807C150.592,-19.744 159.691,-21.7781 167.721,-23.5728"/>
<polygon fill="midnightblue" stroke="midnightblue" points="142.566,-14.3637 132.043,-15.5979 141.039,-21.1951 142.566,-14.3637"/>
</g>
</g>
</svg>
