<?xml version="1.0" encoding="UTF-8" standalone="no"?>
<!DOCTYPE svg PUBLIC "-//W3C//DTD SVG 1.1//EN"
 "http://www.w3.org/Graphics/SVG/1.1/DTD/svg11.dtd">
<!-- Generated by graphviz version 2.38.0 (20140413.2041)
 -->
<!-- Title: /eagleoutice/projects/github/eBoard/eBoard.h Pages: 1 -->
<svg width="133pt" height="117pt"
 viewBox="0.00 0.00 133.00 117.00" xmlns="http://www.w3.org/2000/svg" xmlns:xlink="http://www.w3.org/1999/xlink">
<g id="graph0" class="graph" transform="scale(1 1) rotate(0) translate(4 113)">
<title>/eagleoutice/projects/github/eBoard/eBoard.h</title>
<polygon fill="white" stroke="none" points="-4,4 -4,-113 129,-113 129,4 -4,4"/>
<!-- Node12 -->
<g id="node1" class="node"><title>Node12</title>
<polygon fill="#bfbfbf" stroke="black" points="1.5,-78.5 1.5,-108.5 123.5,-108.5 123.5,-78.5 1.5,-78.5"/>
<text text-anchor="start" x="9.5" y="-96.5" font-family="Helvetica,sans-Serif" font-size="10.00">/eagleoutice/projects</text>
<text text-anchor="middle" x="62.5" y="-85.5" font-family="Helvetica,sans-Serif" font-size="10.00">/github/eBoard/eBoard.h</text>
</g>
<!-- Node13 -->
<g id="node2" class="node"><title>Node13</title>
<g id="a_node2"><a xlink:href="lcd__debug_8cpp.html" target="_top" xlink:title="a lcd debug example ">
<polygon fill="white" stroke="black" points="-7.10543e-15,-0.5 -7.10543e-15,-41.5 125,-41.5 125,-0.5 -7.10543e-15,-0.5"/>
<text text-anchor="start" x="8" y="-29.5" font-family="Helvetica,sans-Serif" font-size="10.00">/eagleoutice/projects</text>
<text text-anchor="start" x="8" y="-18.5" font-family="Helvetica,sans-Serif" font-size="10.00">/github/eBoard/examples</text>
<text text-anchor="middle" x="62.5" y="-7.5" font-family="Helvetica,sans-Serif" font-size="10.00">/lcd_debug.cpp</text>
</a>
</g>
</g>
<!-- Node12&#45;&gt;Node13 -->
<g id="edge1" class="edge"><title>Node12&#45;&gt;Node13</title>
<path fill="none" stroke="midnightblue" d="M62.5,-67.9815C62.5,-59.3468 62.5,-49.7625 62.5,-41.5884"/>
<polygon fill="midnightblue" stroke="midnightblue" points="59.0001,-68.2332 62.5,-78.2333 66.0001,-68.2333 59.0001,-68.2332"/>
</g>
</g>
</svg>
