<?xml version="1.0" encoding="UTF-8" standalone="no"?>
<!DOCTYPE svg PUBLIC "-//W3C//DTD SVG 1.1//EN"
 "http://www.w3.org/Graphics/SVG/1.1/DTD/svg11.dtd">
<!-- Generated by graphviz version 2.38.0 (20140413.2041)
 -->
<!-- Title: set_steer_angle Pages: 1 -->
<svg width="180pt" height="46pt"
 viewBox="0.00 0.00 180.00 46.00" xmlns="http://www.w3.org/2000/svg" xmlns:xlink="http://www.w3.org/1999/xlink">
<g id="graph0" class="graph" transform="scale(1 1) rotate(0) translate(4 42)">
<title>set_steer_angle</title>
<polygon fill="white" stroke="none" points="-4,4 -4,-42 176,-42 176,4 -4,4"/>
<!-- Node239 -->
<g id="node1" class="node"><title>Node239</title>
<polygon fill="#bfbfbf" stroke="black" points="0,-0.5 0,-19.5 86,-19.5 86,-0.5 0,-0.5"/>
<text text-anchor="middle" x="43" y="-7.5" font-family="Helvetica,sans-Serif" font-size="10.00">set_steer_angle</text>
</g>
<!-- Node240 -->
<g id="node2" class="node"><title>Node240</title>
<g id="a_node2"><a xlink:href="eBoard__comment_8h.html#aca4f96af7c6736bf2b61c88d731af741" target="_top" xlink:title="read a digital state from an INPUTpin ">
<polygon fill="white" stroke="black" points="122,-0.5 122,-19.5 172,-19.5 172,-0.5 122,-0.5"/>
<text text-anchor="middle" x="147" y="-7.5" font-family="Helvetica,sans-Serif" font-size="10.00">readPin</text>
</a>
</g>
</g>
<!-- Node239&#45;&gt;Node240 -->
<g id="edge1" class="edge"><title>Node239&#45;&gt;Node240</title>
<path fill="none" stroke="midnightblue" d="M96.1678,-10C105.141,-10 114.065,-10 121.829,-10"/>
<polygon fill="midnightblue" stroke="midnightblue" points="96.0762,-6.5001 86.0762,-10 96.0762,-13.5001 96.0762,-6.5001"/>
</g>
<!-- Node240&#45;&gt;Node240 -->
<g id="edge2" class="edge"><title>Node240&#45;&gt;Node240</title>
<path fill="none" stroke="midnightblue" d="M127.742,-29.4C129.028,-34.3146 135.447,-38 147,-38 165.484,-38 170.828,-28.5653 163.029,-19.7571"/>
<polygon fill="midnightblue" stroke="midnightblue" points="131.114,-30.3509 130.971,-19.7571 124.476,-28.1283 131.114,-30.3509"/>
</g>
</g>
</svg>
