<?xml version="1.0" encoding="UTF-8" standalone="no"?>
<!DOCTYPE svg PUBLIC "-//W3C//DTD SVG 1.1//EN"
 "http://www.w3.org/Graphics/SVG/1.1/DTD/svg11.dtd">
<!-- Generated by graphviz version 2.38.0 (20140413.2041)
 -->
<!-- Title: set_steer_angle Pages: 1 -->
<svg width="365pt" height="28pt"
 viewBox="0.00 0.00 365.00 28.00" xmlns="http://www.w3.org/2000/svg" xmlns:xlink="http://www.w3.org/1999/xlink">
<g id="graph0" class="graph" transform="scale(1 1) rotate(0) translate(4 24)">
<title>set_steer_angle</title>
<polygon fill="white" stroke="none" points="-4,4 -4,-24 361,-24 361,4 -4,4"/>
<!-- Node168 -->
<g id="node1" class="node"><title>Node168</title>
<polygon fill="#bfbfbf" stroke="black" points="0,-0.5 0,-19.5 86,-19.5 86,-0.5 0,-0.5"/>
<text text-anchor="middle" x="43" y="-7.5" font-family="Helvetica,sans-Serif" font-size="10.00">set_steer_angle</text>
</g>
<!-- Node169 -->
<g id="node2" class="node"><title>Node169</title>
<g id="a_node2"><a xlink:href="classServo.html#a72b4b546912eada96a6ef705168ceb8a" target="_top" xlink:title="Servo::write">
<polygon fill="white" stroke="black" points="122,-0.5 122,-19.5 191,-19.5 191,-0.5 122,-0.5"/>
<text text-anchor="middle" x="156.5" y="-7.5" font-family="Helvetica,sans-Serif" font-size="10.00">Servo::write</text>
</a>
</g>
</g>
<!-- Node168&#45;&gt;Node169 -->
<g id="edge1" class="edge"><title>Node168&#45;&gt;Node169</title>
<path fill="none" stroke="midnightblue" d="M86.1534,-10C94.5713,-10 103.43,-10 111.895,-10"/>
<polygon fill="midnightblue" stroke="midnightblue" points="111.971,-13.5001 121.971,-10 111.971,-6.5001 111.971,-13.5001"/>
</g>
<!-- Node170 -->
<g id="node3" class="node"><title>Node170</title>
<g id="a_node3"><a xlink:href="classServo.html#ac7fe3d6d2ea285ead98814bcfc417029" target="_top" xlink:title="Servo::writeMicroseconds">
<polygon fill="white" stroke="black" points="227,-0.5 227,-19.5 357,-19.5 357,-0.5 227,-0.5"/>
<text text-anchor="middle" x="292" y="-7.5" font-family="Helvetica,sans-Serif" font-size="10.00">Servo::writeMicroseconds</text>
</a>
</g>
</g>
<!-- Node169&#45;&gt;Node170 -->
<g id="edge2" class="edge"><title>Node169&#45;&gt;Node170</title>
<path fill="none" stroke="midnightblue" d="M191.188,-10C199.101,-10 207.843,-10 216.767,-10"/>
<polygon fill="midnightblue" stroke="midnightblue" points="216.883,-13.5001 226.883,-10 216.883,-6.5001 216.883,-13.5001"/>
</g>
</g>
</svg>
