<?xml version="1.0" encoding="UTF-8" standalone="no"?>
<!DOCTYPE svg PUBLIC "-//W3C//DTD SVG 1.1//EN"
 "http://www.w3.org/Graphics/SVG/1.1/DTD/svg11.dtd">
<!-- Generated by graphviz version 2.38.0 (20140413.2041)
 -->
<!-- Title: set_motor_speed Pages: 1 -->
<svg width="371pt" height="28pt"
 viewBox="0.00 0.00 371.00 28.00" xmlns="http://www.w3.org/2000/svg" xmlns:xlink="http://www.w3.org/1999/xlink">
<g id="graph0" class="graph" transform="scale(1 1) rotate(0) translate(4 24)">
<title>set_motor_speed</title>
<polygon fill="white" stroke="none" points="-4,4 -4,-24 367,-24 367,4 -4,4"/>
<!-- Node131 -->
<g id="node1" class="node"><title>Node131</title>
<polygon fill="#bfbfbf" stroke="black" points="0,-0.5 0,-19.5 92,-19.5 92,-0.5 0,-0.5"/>
<text text-anchor="middle" x="46" y="-7.5" font-family="Helvetica,sans-Serif" font-size="10.00">set_motor_speed</text>
</g>
<!-- Node132 -->
<g id="node2" class="node"><title>Node132</title>
<g id="a_node2"><a xlink:href="classServo.html#a72b4b546912eada96a6ef705168ceb8a" target="_top" xlink:title="Servo::write">
<polygon fill="white" stroke="black" points="128,-0.5 128,-19.5 197,-19.5 197,-0.5 128,-0.5"/>
<text text-anchor="middle" x="162.5" y="-7.5" font-family="Helvetica,sans-Serif" font-size="10.00">Servo::write</text>
</a>
</g>
</g>
<!-- Node131&#45;&gt;Node132 -->
<g id="edge1" class="edge"><title>Node131&#45;&gt;Node132</title>
<path fill="none" stroke="midnightblue" d="M92.2534,-10C100.604,-10 109.312,-10 117.621,-10"/>
<polygon fill="midnightblue" stroke="midnightblue" points="117.877,-13.5001 127.876,-10 117.876,-6.5001 117.877,-13.5001"/>
</g>
<!-- Node133 -->
<g id="node3" class="node"><title>Node133</title>
<g id="a_node3"><a xlink:href="classServo.html#ac7fe3d6d2ea285ead98814bcfc417029" target="_top" xlink:title="Servo::writeMicroseconds">
<polygon fill="white" stroke="black" points="233,-0.5 233,-19.5 363,-19.5 363,-0.5 233,-0.5"/>
<text text-anchor="middle" x="298" y="-7.5" font-family="Helvetica,sans-Serif" font-size="10.00">Servo::writeMicroseconds</text>
</a>
</g>
</g>
<!-- Node132&#45;&gt;Node133 -->
<g id="edge2" class="edge"><title>Node132&#45;&gt;Node133</title>
<path fill="none" stroke="midnightblue" d="M197.188,-10C205.101,-10 213.843,-10 222.767,-10"/>
<polygon fill="midnightblue" stroke="midnightblue" points="222.883,-13.5001 232.883,-10 222.883,-6.5001 222.883,-13.5001"/>
</g>
</g>
</svg>
