<?xml version="1.0" encoding="UTF-8" standalone="no"?>
<!DOCTYPE svg PUBLIC "-//W3C//DTD SVG 1.1//EN"
 "http://www.w3.org/Graphics/SVG/1.1/DTD/svg11.dtd">
<!-- Generated by graphviz version 2.38.0 (20140413.2041)
 -->
<!-- Title: src/eBoard.h Pages: 1 -->
<svg width="299pt" height="84pt"
 viewBox="0.00 0.00 299.00 84.00" xmlns="http://www.w3.org/2000/svg" xmlns:xlink="http://www.w3.org/1999/xlink">
<g id="graph0" class="graph" transform="scale(1 1) rotate(0) translate(4 80)">
<title>src/eBoard.h</title>
<polygon fill="white" stroke="none" points="-4,4 -4,-80 295,-80 295,4 -4,4"/>
<!-- Node0 -->
<g id="node1" class="node"><title>Node0</title>
<polygon fill="#bfbfbf" stroke="black" points="105,-56.5 105,-75.5 177,-75.5 177,-56.5 105,-56.5"/>
<text text-anchor="middle" x="141" y="-63.5" font-family="Helvetica,sans-Serif" font-size="10.00">src/eBoard.h</text>
</g>
<!-- Node1 -->
<g id="node2" class="node"><title>Node1</title>
<polygon fill="white" stroke="#bfbfbf" points="0,-0.5 0,-19.5 58,-19.5 58,-0.5 0,-0.5"/>
<text text-anchor="middle" x="29" y="-7.5" font-family="Helvetica,sans-Serif" font-size="10.00">Arduino.h</text>
</g>
<!-- Node0&#45;&gt;Node1 -->
<g id="edge1" class="edge"><title>Node0&#45;&gt;Node1</title>
<path fill="none" stroke="midnightblue" d="M123.005,-56.324C104.962,-47.6247 76.9531,-34.1202 56.1973,-24.113"/>
<polygon fill="midnightblue" stroke="midnightblue" points="57.4778,-20.8449 46.9501,-19.6545 54.4377,-27.1502 57.4778,-20.8449"/>
</g>
<!-- Node2 -->
<g id="node3" class="node"><title>Node2</title>
<polygon fill="white" stroke="#bfbfbf" points="76.5,-0.5 76.5,-19.5 125.5,-19.5 125.5,-0.5 76.5,-0.5"/>
<text text-anchor="middle" x="101" y="-7.5" font-family="Helvetica,sans-Serif" font-size="10.00">avr/io.h</text>
</g>
<!-- Node0&#45;&gt;Node2 -->
<g id="edge2" class="edge"><title>Node0&#45;&gt;Node2</title>
<path fill="none" stroke="midnightblue" d="M134.395,-56.083C128.745,-48.4554 120.455,-37.2645 113.549,-27.9408"/>
<polygon fill="midnightblue" stroke="midnightblue" points="116.247,-25.7034 107.482,-19.7511 110.622,-29.87 116.247,-25.7034"/>
</g>
<!-- Node3 -->
<g id="node4" class="node"><title>Node3</title>
<polygon fill="white" stroke="#bfbfbf" points="143.5,-0.5 143.5,-19.5 220.5,-19.5 220.5,-0.5 143.5,-0.5"/>
<text text-anchor="middle" x="182" y="-7.5" font-family="Helvetica,sans-Serif" font-size="10.00">avr/interrupt.h</text>
</g>
<!-- Node0&#45;&gt;Node3 -->
<g id="edge3" class="edge"><title>Node0&#45;&gt;Node3</title>
<path fill="none" stroke="midnightblue" d="M147.77,-56.083C153.562,-48.4554 162.058,-37.2645 169.138,-27.9408"/>
<polygon fill="midnightblue" stroke="midnightblue" points="172.096,-29.8321 175.356,-19.7511 166.521,-25.5991 172.096,-29.8321"/>
</g>
<!-- Node4 -->
<g id="node5" class="node"><title>Node4</title>
<polygon fill="white" stroke="#bfbfbf" points="239,-0.5 239,-19.5 291,-19.5 291,-0.5 239,-0.5"/>
<text text-anchor="middle" x="265" y="-7.5" font-family="Helvetica,sans-Serif" font-size="10.00">assert.h</text>
</g>
<!-- Node0&#45;&gt;Node4 -->
<g id="edge4" class="edge"><title>Node0&#45;&gt;Node4</title>
<path fill="none" stroke="midnightblue" d="M160.648,-56.4435C180.965,-47.5961 212.903,-33.6875 236.098,-23.5865"/>
<polygon fill="midnightblue" stroke="midnightblue" points="237.673,-26.7181 245.444,-19.5164 234.878,-20.3002 237.673,-26.7181"/>
</g>
</g>
</svg>
