<?xml version="1.0" encoding="UTF-8" standalone="no"?>
<!DOCTYPE svg PUBLIC "-//W3C//DTD SVG 1.1//EN"
 "http://www.w3.org/Graphics/SVG/1.1/DTD/svg11.dtd">
<!-- Generated by graphviz version 2.38.0 (20140413.2041)
 -->
<!-- Title: _serial Pages: 1 -->
<svg width="257pt" height="142pt"
 viewBox="0.00 0.00 257.00 142.00" xmlns="http://www.w3.org/2000/svg" xmlns:xlink="http://www.w3.org/1999/xlink">
<g id="graph0" class="graph" transform="scale(1 1) rotate(0) translate(4 138)">
<title>_serial</title>
<polygon fill="white" stroke="none" points="-4,4 -4,-138 253,-138 253,4 -4,4"/>
<!-- Node3 -->
<g id="node1" class="node"><title>Node3</title>
<polygon fill="#bfbfbf" stroke="black" points="0,-57.5 0,-76.5 45,-76.5 45,-57.5 0,-57.5"/>
<text text-anchor="middle" x="22.5" y="-64.5" font-family="Helvetica,sans-Serif" font-size="10.00">_serial</text>
</g>
<!-- Node4 -->
<g id="node2" class="node"><title>Node4</title>
<g id="a_node2"><a xlink:href="eBoard__comment_8h.html#a77e51ddd601b32f343b7addc1f602d07" target="_top" xlink:title="[BLUETOOTH] checks if theres a lack of Data! ">
<polygon fill="white" stroke="black" points="81,-114.5 81,-133.5 163,-133.5 163,-114.5 81,-114.5"/>
<text text-anchor="middle" x="122" y="-121.5" font-family="Helvetica,sans-Serif" font-size="10.00">checkOverflow</text>
</a>
</g>
</g>
<!-- Node3&#45;&gt;Node4 -->
<g id="edge1" class="edge"><title>Node3&#45;&gt;Node4</title>
<path fill="none" stroke="midnightblue" d="M48.7059,-81.7358C66.3568,-92.0548 89.4269,-105.542 104.705,-114.474"/>
<polygon fill="midnightblue" stroke="midnightblue" points="50.439,-78.6947 40.0395,-76.6693 46.9061,-84.7378 50.439,-78.6947"/>
</g>
<!-- Node5 -->
<g id="node3" class="node"><title>Node5</title>
<g id="a_node3"><a xlink:href="eBoard__comment_8h.html#aca4f96af7c6736bf2b61c88d731af741" target="_top" xlink:title="read a digital state from an INPUTpin ">
<polygon fill="white" stroke="black" points="199,-38.5 199,-57.5 249,-57.5 249,-38.5 199,-38.5"/>
<text text-anchor="middle" x="224" y="-45.5" font-family="Helvetica,sans-Serif" font-size="10.00">readPin</text>
</a>
</g>
</g>
<!-- Node3&#45;&gt;Node5 -->
<g id="edge2" class="edge"><title>Node3&#45;&gt;Node5</title>
<path fill="none" stroke="midnightblue" d="M55.5614,-69.7657C83.9741,-71.5612 126.496,-72.6417 163,-67 175.094,-65.1308 188.09,-61.2605 198.884,-57.4977"/>
<polygon fill="midnightblue" stroke="midnightblue" points="55.6247,-66.2617 45.4047,-69.0551 55.136,-73.2446 55.6247,-66.2617"/>
</g>
<!-- Node6 -->
<g id="node4" class="node"><title>Node6</title>
<g id="a_node4"><a xlink:href="eBoard__comment_8h.html#a013ff57a97587f0064777a3a28f9a2dd" target="_top" xlink:title="[BLUETOOTH] reads a single value from bluetooth if available! ">
<polygon fill="white" stroke="black" points="97,-38.5 97,-57.5 147,-57.5 147,-38.5 97,-38.5"/>
<text text-anchor="middle" x="122" y="-45.5" font-family="Helvetica,sans-Serif" font-size="10.00">readVal</text>
</a>
</g>
</g>
<!-- Node3&#45;&gt;Node6 -->
<g id="edge4" class="edge"><title>Node3&#45;&gt;Node6</title>
<path fill="none" stroke="midnightblue" d="M54.9982,-60.8619C68.5175,-58.2274 84.069,-55.1968 96.6795,-52.7394"/>
<polygon fill="midnightblue" stroke="midnightblue" points="54.2843,-57.4351 45.1384,-62.7833 55.6233,-64.3058 54.2843,-57.4351"/>
</g>
<!-- Node7 -->
<g id="node5" class="node"><title>Node7</title>
<g id="a_node5"><a xlink:href="eBoard__comment_8h.html#abf785ff4ead72e3118dfaa8270c04f0c" target="_top" xlink:title="[BLUETOOTH] writes Data to bluetooth ">
<polygon fill="white" stroke="black" points="96,-0.5 96,-19.5 148,-19.5 148,-0.5 96,-0.5"/>
<text text-anchor="middle" x="122" y="-7.5" font-family="Helvetica,sans-Serif" font-size="10.00">writeVal</text>
</a>
</g>
</g>
<!-- Node3&#45;&gt;Node7 -->
<g id="edge6" class="edge"><title>Node3&#45;&gt;Node7</title>
<path fill="none" stroke="midnightblue" d="M45.1122,-51.6763C55.7071,-44.4356 68.7877,-35.8907 81,-29 86.8922,-25.6753 93.4601,-22.3913 99.5429,-19.5127"/>
<polygon fill="midnightblue" stroke="midnightblue" points="43.097,-48.8145 36.8708,-57.3868 47.0838,-54.5682 43.097,-48.8145"/>
</g>
<!-- Node5&#45;&gt;Node5 -->
<g id="edge3" class="edge"><title>Node5&#45;&gt;Node5</title>
<path fill="none" stroke="midnightblue" d="M205.112,-67.4C206.373,-72.3146 212.669,-76 224,-76 242.129,-76 247.369,-66.5653 239.721,-57.7571"/>
<polygon fill="midnightblue" stroke="midnightblue" points="208.484,-68.3499 208.279,-57.7571 201.833,-66.1658 208.484,-68.3499"/>
</g>
<!-- Node6&#45;&gt;Node5 -->
<g id="edge5" class="edge"><title>Node6&#45;&gt;Node5</title>
<path fill="none" stroke="midnightblue" d="M157.212,-48C170.841,-48 186.213,-48 198.669,-48"/>
<polygon fill="midnightblue" stroke="midnightblue" points="157.207,-44.5001 147.207,-48 157.207,-51.5001 157.207,-44.5001"/>
</g>
<!-- Node7&#45;&gt;Node5 -->
<g id="edge7" class="edge"><title>Node7&#45;&gt;Node5</title>
<path fill="none" stroke="midnightblue" d="M157.742,-23.2019C171.289,-28.3498 186.489,-34.1258 198.809,-38.8073"/>
<polygon fill="midnightblue" stroke="midnightblue" points="158.825,-19.8695 148.234,-19.589 156.339,-26.413 158.825,-19.8695"/>
</g>
</g>
</svg>
