<?xml version="1.0" encoding="UTF-8" standalone="no"?>
<!DOCTYPE svg PUBLIC "-//W3C//DTD SVG 1.1//EN"
 "http://www.w3.org/Graphics/SVG/1.1/DTD/svg11.dtd">
<!-- Generated by graphviz version 2.38.0 (20140413.2041)
 -->
<!-- Title: twi_init Pages: 1 -->
<svg width="343pt" height="78pt"
 viewBox="0.00 0.00 343.00 77.50" xmlns="http://www.w3.org/2000/svg" xmlns:xlink="http://www.w3.org/1999/xlink">
<g id="graph0" class="graph" transform="scale(1 1) rotate(0) translate(4 73.5)">
<title>twi_init</title>
<polygon fill="white" stroke="none" points="-4,4 -4,-73.5 339,-73.5 339,4 -4,4"/>
<!-- Node248 -->
<g id="node1" class="node"><title>Node248</title>
<polygon fill="#bfbfbf" stroke="black" points="0,-22.5 0,-41.5 47,-41.5 47,-22.5 0,-22.5"/>
<text text-anchor="middle" x="23.5" y="-29.5" font-family="Helvetica,sans-Serif" font-size="10.00">twi_init</text>
</g>
<!-- Node249 -->
<g id="node2" class="node"><title>Node249</title>
<g id="a_node2"><a xlink:href="classeagle__impl_1_1TwoWire.html#ada85a7a8663ec8af0a1248b659be2f18" target="_top" xlink:title="eagle_impl::TwoWire\l::begin">
<polygon fill="white" stroke="black" points="83,-17 83,-47 191,-47 191,-17 83,-17"/>
<text text-anchor="start" x="91" y="-35" font-family="Helvetica,sans-Serif" font-size="10.00">eagle_impl::TwoWire</text>
<text text-anchor="middle" x="137" y="-24" font-family="Helvetica,sans-Serif" font-size="10.00">::begin</text>
</a>
</g>
</g>
<!-- Node248&#45;&gt;Node249 -->
<g id="edge1" class="edge"><title>Node248&#45;&gt;Node249</title>
<path fill="none" stroke="midnightblue" d="M57.0776,-32C65.09,-32 73.8793,-32 82.5922,-32"/>
<polygon fill="midnightblue" stroke="midnightblue" points="57.0637,-28.5001 47.0637,-32 57.0637,-35.5001 57.0637,-28.5001"/>
</g>
<!-- Node250 -->
<g id="node3" class="node"><title>Node250</title>
<g id="a_node3"><a xlink:href="classeagle__impl_1_1TwoWire.html#a96f2477bba1630c25b9e318ced8585ab" target="_top" xlink:title="eagle_impl::TwoWire\l::begin">
<polygon fill="white" stroke="black" points="227,-39 227,-69 335,-69 335,-39 227,-39"/>
<text text-anchor="start" x="235" y="-57" font-family="Helvetica,sans-Serif" font-size="10.00">eagle_impl::TwoWire</text>
<text text-anchor="middle" x="281" y="-46" font-family="Helvetica,sans-Serif" font-size="10.00">::begin</text>
</a>
</g>
</g>
<!-- Node249&#45;&gt;Node250 -->
<g id="edge2" class="edge"><title>Node249&#45;&gt;Node250</title>
<path fill="none" stroke="midnightblue" d="M201.238,-41.7974C209.806,-43.1249 218.528,-44.4761 226.894,-45.7723"/>
<polygon fill="midnightblue" stroke="midnightblue" points="201.698,-38.327 191.28,-40.2546 200.626,-45.2444 201.698,-38.327"/>
</g>
<!-- Node251 -->
<g id="node4" class="node"><title>Node251</title>
<g id="a_node4"><a xlink:href="eBoard__comment_8h.html#a7dfd9b79bc5a37d7df40207afbc5431f" target="_top" xlink:title="this is a guard ">
<polygon fill="white" stroke="black" points="260.5,-0.5 260.5,-19.5 301.5,-19.5 301.5,-0.5 260.5,-0.5"/>
<text text-anchor="middle" x="281" y="-7.5" font-family="Helvetica,sans-Serif" font-size="10.00">setup</text>
</a>
</g>
</g>
<!-- Node249&#45;&gt;Node251 -->
<g id="edge3" class="edge"><title>Node249&#45;&gt;Node251</title>
<path fill="none" stroke="midnightblue" d="M201.289,-22.1947C222.569,-18.8978 244.784,-15.456 260.166,-13.0729"/>
<polygon fill="midnightblue" stroke="midnightblue" points="200.626,-18.7556 191.28,-23.7454 201.698,-25.673 200.626,-18.7556"/>
</g>
</g>
</svg>
