<?xml version="1.0" encoding="UTF-8" standalone="no"?>
<!DOCTYPE svg PUBLIC "-//W3C//DTD SVG 1.1//EN"
 "http://www.w3.org/Graphics/SVG/1.1/DTD/svg11.dtd">
<!-- Generated by graphviz version 2.38.0 (20140413.2041)
 -->
<!-- Title: checkIdx Pages: 1 -->
<!--zoomable 351 -->
<svg id="main" version="1.1" xmlns="http://www.w3.org/2000/svg" xmlns:xlink="http://www.w3.org/1999/xlink" xml:space="preserve" onload="init(evt)">
<style type="text/css"><![CDATA[
.edge:hover path { stroke: red; }
.edge:hover polygon { stroke: red; fill: red; }
]]></style>
<script type="text/javascript"><![CDATA[
var edges = document.getElementsByTagName('g');
if (edges && edges.length) {
  for (var i=0;i<edges.length;i++) {
    if (edges[i].id.substr(0,4)=='edge') {
      edges[i].setAttribute('class','edge');
    }
  }
}
]]></script>
        <defs>
                <circle id="rim" cx="0" cy="0" r="7"/>
                <circle id="rim2" cx="0" cy="0" r="3.5"/>
                <g id="zoomPlus">
                        <use xlink:href="#rim" fill="#404040">
                                <set attributeName="fill" to="#808080" begin="zoomplus.mouseover" end="zoomplus.mouseout"/>
                        </use>
                        <path d="M-4,0h8M0,-4v8" fill="none" stroke="white" stroke-width="1.5" pointer-events="none"/>
                </g>
                <g id="zoomMin">
                        <use xlink:href="#rim" fill="#404040">
                                <set attributeName="fill" to="#808080" begin="zoomminus.mouseover" end="zoomminus.mouseout"/>
                        </use>
                        <path d="M-4,0h8" fill="none" stroke="white" stroke-width="1.5" pointer-events="none"/>
                </g>
                <g id="dirArrow">
                        <path fill="none" stroke="white" stroke-width="1.5" d="M0,-3.0v7 M-2.5,-0.5L0,-3.0L2.5,-0.5"/>
                </g>
               <g id="resetDef">
                       <use xlink:href="#rim2" fill="#404040">
                               <set attributeName="fill" to="#808080" begin="reset.mouseover" end="reset.mouseout"/>
                       </use>
               </g>
        </defs>

<script type="text/javascript">
var viewWidth = 604;
var viewHeight = 351;
var sectionId = 'dynsection-1';
</script>
<script xlink:href="svgpan.js"/>
<svg id="graph" class="graph">
<g id="viewport">
<title>checkIdx</title>
<polygon fill="white" stroke="none" points="-4,4 -4,-347 600,-347 600,4 -4,4"/>
<!-- Node5 -->
<g id="node1" class="node"><title>Node5</title>
<polygon fill="#bfbfbf" stroke="black" points="0,-133.5 0,-152.5 56,-152.5 56,-133.5 0,-133.5"/>
<text text-anchor="middle" x="28" y="-140.5" font-family="Helvetica,sans-Serif" font-size="10.00">checkIdx</text>
</g>
<!-- Node6 -->
<g id="node2" class="node"><title>Node6</title>
<g id="a_node2"><a xlink:href="eBoard__comment_8h.html#a06400a6dce24e4eda610644893c1bbd7" target="_top" xlink:title="[COPY&amp;PASTE] [CHECK_PINS] Check if a pin is set to a specific mode ">
<polygon fill="white" stroke="black" points="92,-152.5 92,-171.5 149,-171.5 149,-152.5 92,-152.5"/>
<text text-anchor="middle" x="120.5" y="-159.5" font-family="Helvetica,sans-Serif" font-size="10.00">checkPin</text>
</a>
</g>
</g>
<!-- Node5&#45;&gt;Node6 -->
<g id="edge1" class="edge"><title>Node5&#45;&gt;Node6</title>
<path fill="none" stroke="midnightblue" d="M65.9875,-150.765C74.5931,-152.572 83.6113,-154.465 91.7397,-156.172"/>
<polygon fill="midnightblue" stroke="midnightblue" points="66.6588,-147.33 56.153,-148.701 65.2205,-154.181 66.6588,-147.33"/>
</g>
<!-- Node7 -->
<g id="node3" class="node"><title>Node7</title>
<g id="a_node3"><a xlink:href="eBoard__comment_8h.html#ad6d4c1b1e3b495ed81fb28fac04d2bd6" target="_top" xlink:title="write a boolean state to an output pin ">
<polygon fill="white" stroke="black" points="211,-190.5 211,-209.5 263,-209.5 263,-190.5 211,-190.5"/>
<text text-anchor="middle" x="237" y="-197.5" font-family="Helvetica,sans-Serif" font-size="10.00">writePin</text>
</a>
</g>
</g>
<!-- Node5&#45;&gt;Node7 -->
<g id="edge21" class="edge"><title>Node5&#45;&gt;Node7</title>
<path fill="none" stroke="midnightblue" d="M49.5141,-158.347C61.3351,-166.404 76.8223,-175.683 92,-181 131.982,-195.007 181.503,-198.812 210.825,-199.773"/>
<polygon fill="midnightblue" stroke="midnightblue" points="51.4413,-155.423 41.255,-152.509 47.401,-161.139 51.4413,-155.423"/>
</g>
<!-- Node16 -->
<g id="node12" class="node"><title>Node16</title>
<g id="a_node12"><a xlink:href="eBoard__comment_8h.html#aca4f96af7c6736bf2b61c88d731af741" target="_top" xlink:title="read a digital state from an INPUTpin ">
<polygon fill="white" stroke="black" points="212,-114.5 212,-133.5 262,-133.5 262,-114.5 212,-114.5"/>
<text text-anchor="middle" x="237" y="-121.5" font-family="Helvetica,sans-Serif" font-size="10.00">readPin</text>
</a>
</g>
</g>
<!-- Node5&#45;&gt;Node16 -->
<g id="edge14" class="edge"><title>Node5&#45;&gt;Node16</title>
<path fill="none" stroke="midnightblue" d="M66.2071,-139.585C108.4,-135.712 175.972,-129.51 211.827,-126.219"/>
<polygon fill="midnightblue" stroke="midnightblue" points="65.6998,-136.117 56.0616,-140.516 66.3397,-143.087 65.6998,-136.117"/>
</g>
<!-- Node19 -->
<g id="node15" class="node"><title>Node19</title>
<g id="a_node15"><a xlink:href="eBoard__comment_8h.html#a78b0e873cb50c282c6243d4913406be4" target="_top" xlink:title="[COPY&amp;PASTE] set a pin to a certain mode =&gt; checkPin() will return true then ">
<polygon fill="white" stroke="black" points="98.5,-76.5 98.5,-95.5 142.5,-95.5 142.5,-76.5 98.5,-76.5"/>
<text text-anchor="middle" x="120.5" y="-83.5" font-family="Helvetica,sans-Serif" font-size="10.00">setPin</text>
</a>
</g>
</g>
<!-- Node5&#45;&gt;Node19 -->
<g id="edge15" class="edge"><title>Node5&#45;&gt;Node19</title>
<path fill="none" stroke="midnightblue" d="M52.8484,-127.979C69.1722,-117.698 90.3238,-104.376 104.375,-95.5265"/>
<polygon fill="midnightblue" stroke="midnightblue" points="50.9484,-125.04 44.3521,-133.331 54.679,-130.963 50.9484,-125.04"/>
</g>
<!-- Node6&#45;&gt;Node7 -->
<g id="edge2" class="edge"><title>Node6&#45;&gt;Node7</title>
<path fill="none" stroke="midnightblue" d="M158.887,-174.408C175.928,-180.063 195.649,-186.608 210.881,-191.664"/>
<polygon fill="midnightblue" stroke="midnightblue" points="159.811,-171.027 149.217,-171.199 157.606,-177.67 159.811,-171.027"/>
</g>
<!-- Node6&#45;&gt;Node16 -->
<g id="edge11" class="edge"><title>Node6&#45;&gt;Node16</title>
<path fill="none" stroke="midnightblue" d="M159.028,-149.545C176.324,-143.805 196.356,-137.157 211.647,-132.082"/>
<polygon fill="midnightblue" stroke="midnightblue" points="157.606,-146.33 149.217,-152.801 159.811,-152.973 157.606,-146.33"/>
</g>
<!-- Node8 -->
<g id="node4" class="node"><title>Node8</title>
<g id="a_node4"><a xlink:href="structSoccerBoard.html#a01ff8231432776da9e5e5e1c05257606" target="_top" xlink:title="SoccerBoard::led">
<polygon fill="white" stroke="black" points="337,-323.5 337,-342.5 429,-342.5 429,-323.5 337,-323.5"/>
<text text-anchor="middle" x="383" y="-330.5" font-family="Helvetica,sans-Serif" font-size="10.00">SoccerBoard::led</text>
</a>
</g>
</g>
<!-- Node7&#45;&gt;Node8 -->
<g id="edge3" class="edge"><title>Node7&#45;&gt;Node8</title>
<path fill="none" stroke="midnightblue" d="M247.6,-218.737C261.418,-243.914 289.232,-288.447 325,-314 330.347,-317.82 336.515,-320.911 342.775,-323.4"/>
<polygon fill="midnightblue" stroke="midnightblue" points="250.643,-217.003 242.852,-209.823 244.465,-220.295 250.643,-217.003"/>
</g>
<!-- Node9 -->
<g id="node5" class="node"><title>Node9</title>
<g id="a_node5"><a xlink:href="structSoccerBoard.html#abaefeaaf5c0ea659dce35903284ee577" target="_top" xlink:title="SoccerBoard::ledOn">
<polygon fill="white" stroke="black" points="331,-285.5 331,-304.5 435,-304.5 435,-285.5 331,-285.5"/>
<text text-anchor="middle" x="383" y="-292.5" font-family="Helvetica,sans-Serif" font-size="10.00">SoccerBoard::ledOn</text>
</a>
</g>
</g>
<!-- Node7&#45;&gt;Node9 -->
<g id="edge4" class="edge"><title>Node7&#45;&gt;Node9</title>
<path fill="none" stroke="midnightblue" d="M253.563,-217.098C269.891,-234.131 297.028,-259.989 325,-276 331.518,-279.731 338.879,-282.866 346.092,-285.446"/>
<polygon fill="midnightblue" stroke="midnightblue" points="255.855,-214.425 246.46,-209.527 250.75,-219.214 255.855,-214.425"/>
</g>
<!-- Node10 -->
<g id="node6" class="node"><title>Node10</title>
<g id="a_node6"><a xlink:href="structSoccerBoard.html#af358ec89f0eab4a87b00959dc54f3e16" target="_top" xlink:title="SoccerBoard::ledOff">
<polygon fill="white" stroke="black" points="330.5,-247.5 330.5,-266.5 435.5,-266.5 435.5,-247.5 330.5,-247.5"/>
<text text-anchor="middle" x="383" y="-254.5" font-family="Helvetica,sans-Serif" font-size="10.00">SoccerBoard::ledOff</text>
</a>
</g>
</g>
<!-- Node7&#45;&gt;Node10 -->
<g id="edge5" class="edge"><title>Node7&#45;&gt;Node10</title>
<path fill="none" stroke="midnightblue" d="M267.765,-213.793C284.442,-221.321 305.708,-230.589 325,-238 333.569,-241.292 342.982,-244.566 351.646,-247.445"/>
<polygon fill="midnightblue" stroke="midnightblue" points="269.077,-210.545 258.525,-209.59 266.178,-216.917 269.077,-210.545"/>
</g>
<!-- Node11 -->
<g id="node7" class="node"><title>Node11</title>
<g id="a_node7"><a xlink:href="structSoccerBoard.html#a80d7f7690654433e3253f6924eb1164d" target="_top" xlink:title="SoccerBoard::ledsOff">
<polygon fill="white" stroke="black" points="328,-209.5 328,-228.5 438,-228.5 438,-209.5 328,-209.5"/>
<text text-anchor="middle" x="383" y="-216.5" font-family="Helvetica,sans-Serif" font-size="10.00">SoccerBoard::ledsOff</text>
</a>
</g>
</g>
<!-- Node7&#45;&gt;Node11 -->
<g id="edge6" class="edge"><title>Node7&#45;&gt;Node11</title>
<path fill="none" stroke="midnightblue" d="M273.335,-204.662C289.781,-206.832 309.708,-209.461 327.983,-211.873"/>
<polygon fill="midnightblue" stroke="midnightblue" points="273.455,-201.148 263.083,-203.31 272.539,-208.088 273.455,-201.148"/>
</g>
<!-- Node12 -->
<g id="node8" class="node"><title>Node12</title>
<g id="a_node8"><a xlink:href="structSoccerBoard.html#a978649a6b3089e6215da01b0f87ee3f1" target="_top" xlink:title="SoccerBoard::ledMeter">
<polygon fill="white" stroke="black" points="325,-171.5 325,-190.5 441,-190.5 441,-171.5 325,-171.5"/>
<text text-anchor="middle" x="383" y="-178.5" font-family="Helvetica,sans-Serif" font-size="10.00">SoccerBoard::ledMeter</text>
</a>
</g>
</g>
<!-- Node7&#45;&gt;Node12 -->
<g id="edge7" class="edge"><title>Node7&#45;&gt;Node12</title>
<path fill="none" stroke="midnightblue" d="M273.297,-195.343C288.847,-193.291 307.515,-190.828 324.958,-188.526"/>
<polygon fill="midnightblue" stroke="midnightblue" points="272.539,-191.912 263.083,-196.69 273.455,-198.852 272.539,-191.912"/>
</g>
<!-- Node13 -->
<g id="node9" class="node"><title>Node13</title>
<g id="a_node9"><a xlink:href="structSoccerBoard.html#a04c6b8fd4b6d1cd24be9c1b3291dbf06" target="_top" xlink:title="SoccerBoard::power">
<polygon fill="white" stroke="black" points="330.5,-133.5 330.5,-152.5 435.5,-152.5 435.5,-133.5 330.5,-133.5"/>
<text text-anchor="middle" x="383" y="-140.5" font-family="Helvetica,sans-Serif" font-size="10.00">SoccerBoard::power</text>
</a>
</g>
</g>
<!-- Node7&#45;&gt;Node13 -->
<g id="edge8" class="edge"><title>Node7&#45;&gt;Node13</title>
<path fill="none" stroke="midnightblue" d="M267.765,-186.207C284.442,-178.679 305.708,-169.411 325,-162 333.569,-158.708 342.982,-155.434 351.646,-152.555"/>
<polygon fill="midnightblue" stroke="midnightblue" points="266.178,-183.083 258.525,-190.41 269.077,-189.455 266.178,-183.083"/>
</g>
<!-- Node14 -->
<g id="node10" class="node"><title>Node14</title>
<g id="a_node10"><a xlink:href="structSoccerBoard.html#aa46822d5b727bf3e427c5ceba995f42f" target="_top" xlink:title="SoccerBoard::powerOn">
<polygon fill="white" stroke="black" points="477.5,-152.5 477.5,-171.5 595.5,-171.5 595.5,-152.5 477.5,-152.5"/>
<text text-anchor="middle" x="536.5" y="-159.5" font-family="Helvetica,sans-Serif" font-size="10.00">SoccerBoard::powerOn</text>
</a>
</g>
</g>
<!-- Node13&#45;&gt;Node14 -->
<g id="edge9" class="edge"><title>Node13&#45;&gt;Node14</title>
<path fill="none" stroke="midnightblue" d="M445.922,-150.766C456.279,-152.065 466.994,-153.408 477.255,-154.695"/>
<polygon fill="midnightblue" stroke="midnightblue" points="446.072,-147.257 435.714,-149.486 445.201,-154.203 446.072,-147.257"/>
</g>
<!-- Node15 -->
<g id="node11" class="node"><title>Node15</title>
<g id="a_node11"><a xlink:href="structSoccerBoard.html#a5442e3a7ca58ed90d9e4af0cac83ebdd" target="_top" xlink:title="SoccerBoard::powerOff">
<polygon fill="white" stroke="black" points="477,-114.5 477,-133.5 596,-133.5 596,-114.5 477,-114.5"/>
<text text-anchor="middle" x="536.5" y="-121.5" font-family="Helvetica,sans-Serif" font-size="10.00">SoccerBoard::powerOff</text>
</a>
</g>
</g>
<!-- Node13&#45;&gt;Node15 -->
<g id="edge10" class="edge"><title>Node13&#45;&gt;Node15</title>
<path fill="none" stroke="midnightblue" d="M445.856,-135.243C456.145,-133.952 466.789,-132.617 476.991,-131.338"/>
<polygon fill="midnightblue" stroke="midnightblue" points="445.201,-131.797 435.714,-136.514 446.072,-138.743 445.201,-131.797"/>
</g>
<!-- Node17 -->
<g id="node13" class="node"><title>Node17</title>
<g id="a_node13"><a xlink:href="structSoccerBoard.html#ac415567d530e78c9f46b00db4e64d9d5" target="_top" xlink:title="SoccerBoard::digital">
<polygon fill="white" stroke="black" points="331,-95.5 331,-114.5 435,-114.5 435,-95.5 331,-95.5"/>
<text text-anchor="middle" x="383" y="-102.5" font-family="Helvetica,sans-Serif" font-size="10.00">SoccerBoard::digital</text>
</a>
</g>
</g>
<!-- Node16&#45;&gt;Node17 -->
<g id="edge12" class="edge"><title>Node16&#45;&gt;Node17</title>
<path fill="none" stroke="midnightblue" d="M272.408,-119.46C289.904,-117.152 311.517,-114.3 330.913,-111.741"/>
<polygon fill="midnightblue" stroke="midnightblue" points="271.559,-116.042 262.102,-120.82 272.474,-122.982 271.559,-116.042"/>
</g>
<!-- Node18 -->
<g id="node14" class="node"><title>Node18</title>
<g id="a_node14"><a xlink:href="structSoccerBoard.html#a8a72ca75182aa71d297d3cee80b1054a" target="_top" xlink:title="SoccerBoard::analog">
<polygon fill="white" stroke="black" points="329.5,-57.5 329.5,-76.5 436.5,-76.5 436.5,-57.5 329.5,-57.5"/>
<text text-anchor="middle" x="383" y="-64.5" font-family="Helvetica,sans-Serif" font-size="10.00">SoccerBoard::analog</text>
</a>
</g>
</g>
<!-- Node16&#45;&gt;Node18 -->
<g id="edge13" class="edge"><title>Node16&#45;&gt;Node18</title>
<path fill="none" stroke="midnightblue" d="M271.701,-112.147C277.523,-109.9 283.476,-107.474 289,-105 305.511,-97.6044 308.363,-93.1066 325,-86 333.058,-82.5581 341.965,-79.3293 350.296,-76.5444"/>
<polygon fill="midnightblue" stroke="midnightblue" points="270.263,-108.948 262.127,-115.735 272.72,-115.503 270.263,-108.948"/>
</g>
<!-- Node19&#45;&gt;Node7 -->
<g id="edge16" class="edge"><title>Node19&#45;&gt;Node7</title>
<path fill="none" stroke="midnightblue" d="M138.406,-102.832C162.716,-127.036 206.763,-170.891 226.263,-190.305"/>
<polygon fill="midnightblue" stroke="midnightblue" points="140.818,-100.295 131.262,-95.7196 135.879,-105.255 140.818,-100.295"/>
</g>
<!-- Node19&#45;&gt;Node16 -->
<g id="edge17" class="edge"><title>Node19&#45;&gt;Node16</title>
<path fill="none" stroke="midnightblue" d="M152.078,-96.1482C170.847,-102.377 194.541,-110.241 211.962,-116.022"/>
<polygon fill="midnightblue" stroke="midnightblue" points="153.095,-92.7979 142.501,-92.9698 150.89,-99.4415 153.095,-92.7979"/>
</g>
<!-- Node20 -->
<g id="node16" class="node"><title>Node20</title>
<g id="a_node16"><a xlink:href="structSoccerBoard.html#a5039fee586408ce515f300d8db073818" target="_top" xlink:title="SoccerBoard::motor">
<polygon fill="white" stroke="black" points="185,-76.5 185,-95.5 289,-95.5 289,-76.5 185,-76.5"/>
<text text-anchor="middle" x="237" y="-83.5" font-family="Helvetica,sans-Serif" font-size="10.00">SoccerBoard::motor</text>
</a>
</g>
</g>
<!-- Node19&#45;&gt;Node20 -->
<g id="edge18" class="edge"><title>Node19&#45;&gt;Node20</title>
<path fill="none" stroke="midnightblue" d="M152.64,-86C162.532,-86 173.748,-86 184.674,-86"/>
<polygon fill="midnightblue" stroke="midnightblue" points="152.501,-82.5001 142.501,-86 152.501,-89.5001 152.501,-82.5001"/>
</g>
<!-- Node21 -->
<g id="node17" class="node"><title>Node21</title>
<g id="a_node17"><a xlink:href="structI2CInOut.html#ac475882f9f5cf8634f74084b416e9b39" target="_top" xlink:title="I2CInOut::write">
<polygon fill="white" stroke="black" points="195.5,-38.5 195.5,-57.5 278.5,-57.5 278.5,-38.5 195.5,-38.5"/>
<text text-anchor="middle" x="237" y="-45.5" font-family="Helvetica,sans-Serif" font-size="10.00">I2CInOut::write</text>
</a>
</g>
</g>
<!-- Node19&#45;&gt;Node21 -->
<g id="edge19" class="edge"><title>Node19&#45;&gt;Node21</title>
<path fill="none" stroke="midnightblue" d="M152.068,-75.8552C169.236,-70.1575 190.528,-63.0913 207.37,-57.5017"/>
<polygon fill="midnightblue" stroke="midnightblue" points="150.89,-72.5585 142.501,-79.0302 153.095,-79.2021 150.89,-72.5585"/>
</g>
<!-- Node22 -->
<g id="node18" class="node"><title>Node22</title>
<g id="a_node18"><a xlink:href="eBoard__comment_8h.html#a7dfd9b79bc5a37d7df40207afbc5431f" target="_top" xlink:title="this is a guard ">
<polygon fill="white" stroke="black" points="216.5,-0.5 216.5,-19.5 257.5,-19.5 257.5,-0.5 216.5,-0.5"/>
<text text-anchor="middle" x="237" y="-7.5" font-family="Helvetica,sans-Serif" font-size="10.00">setup</text>
</a>
</g>
</g>
<!-- Node19&#45;&gt;Node22 -->
<g id="edge20" class="edge"><title>Node19&#45;&gt;Node22</title>
<path fill="none" stroke="midnightblue" d="M137.167,-68.827C149.25,-56.4047 166.908,-39.9451 185,-29 194.701,-23.131 206.514,-18.5894 216.326,-15.4203"/>
<polygon fill="midnightblue" stroke="midnightblue" points="134.417,-66.6409 130.083,-76.3087 139.5,-71.4537 134.417,-66.6409"/>
</g>
</g>
</svg>
        <g id="navigator" transform="translate(0 0)" fill="#404254">
                <rect fill="#f2f5e9" fill-opacity="0.5" stroke="#606060" stroke-width=".5" x="0" y="0" width="60" height="60"/>
                <use id="zoomplus" xlink:href="#zoomPlus" x="17" y="9" onmousedown="handleZoom(evt,'in')"/>
                <use id="zoomminus" xlink:href="#zoomMin" x="42" y="9" onmousedown="handleZoom(evt,'out')"/>
                <use id="reset" xlink:href="#resetDef" x="30" y="36" onmousedown="handleReset()"/>
                <g id="arrowUp" xlink:href="#dirArrow" transform="translate(30 24)" onmousedown="handlePan(0,-1)">
                  <use xlink:href="#rim" fill="#404040">
                        <set attributeName="fill" to="#808080" begin="arrowUp.mouseover" end="arrowUp.mouseout"/>
                  </use>
                  <path fill="none" stroke="white" stroke-width="1.5" d="M0,-3.0v7 M-2.5,-0.5L0,-3.0L2.5,-0.5"/>
                </g>
                <g id="arrowRight" xlink:href="#dirArrow" transform="rotate(90) translate(36 -43)" onmousedown="handlePan(1,0)">
                  <use xlink:href="#rim" fill="#404040">
                        <set attributeName="fill" to="#808080" begin="arrowRight.mouseover" end="arrowRight.mouseout"/>
                  </use>
                  <path fill="none" stroke="white" stroke-width="1.5" d="M0,-3.0v7 M-2.5,-0.5L0,-3.0L2.5,-0.5"/>
                </g>
                <g id="arrowDown" xlink:href="#dirArrow" transform="rotate(180) translate(-30 -48)" onmousedown="handlePan(0,1)">
                  <use xlink:href="#rim" fill="#404040">
                        <set attributeName="fill" to="#808080" begin="arrowDown.mouseover" end="arrowDown.mouseout"/>
                  </use>
                  <path fill="none" stroke="white" stroke-width="1.5" d="M0,-3.0v7 M-2.5,-0.5L0,-3.0L2.5,-0.5"/>
                </g>
                <g id="arrowLeft" xlink:href="#dirArrow" transform="rotate(270) translate(-36 17)" onmousedown="handlePan(-1,0)">
                  <use xlink:href="#rim" fill="#404040">
                        <set attributeName="fill" to="#808080" begin="arrowLeft.mouseover" end="arrowLeft.mouseout"/>
                  </use>
                  <path fill="none" stroke="white" stroke-width="1.5" d="M0,-3.0v7 M-2.5,-0.5L0,-3.0L2.5,-0.5"/>
                </g>
        </g>
        <svg viewBox="0 0 15 15" width="100%" height="30px" preserveAspectRatio="xMaxYMin meet">
         <g id="arrow_out" transform="scale(0.3 0.3)">
          <a xlink:href="eBoard__comment_8h_a757015d50a6c57414603841f728b670b_icgraph_org.svg" target="_base">
           <rect id="button" ry="5" rx="5" y="6" x="6" height="38" width="38"
                fill="#f2f5e9" fill-opacity="0.5" stroke="#606060" stroke-width="1.0"/>
           <path id="arrow"
             d="M 11.500037,31.436501 C 11.940474,20.09759 22.043105,11.32322 32.158766,21.979434 L 37.068811,17.246167 C 37.068811,17.246167 37.088388,32 37.088388,32 L 22.160133,31.978069 C 22.160133,31.978069 26.997745,27.140456 26.997745,27.140456 C 18.528582,18.264221 13.291696,25.230495 11.500037,31.436501 z"
             style="fill:#404040;"/>
          </a>
         </g>
        </svg>
</svg>
