<?xml version="1.0" encoding="UTF-8" standalone="no"?>
<!DOCTYPE svg PUBLIC "-//W3C//DTD SVG 1.1//EN"
 "http://www.w3.org/Graphics/SVG/1.1/DTD/svg11.dtd">
<!-- Generated by graphviz version 2.38.0 (20140413.2041)
 -->
<!-- Title: setup Pages: 1 -->
<svg width="135pt" height="46pt"
 viewBox="0.00 0.00 135.00 46.00" xmlns="http://www.w3.org/2000/svg" xmlns:xlink="http://www.w3.org/1999/xlink">
<g id="graph0" class="graph" transform="scale(1 1) rotate(0) translate(4 42)">
<title>setup</title>
<polygon fill="white" stroke="none" points="-4,4 -4,-42 131,-42 131,4 -4,4"/>
<!-- Node247 -->
<g id="node1" class="node"><title>Node247</title>
<polygon fill="#bfbfbf" stroke="black" points="0,-0.5 0,-19.5 41,-19.5 41,-0.5 0,-0.5"/>
<text text-anchor="middle" x="20.5" y="-7.5" font-family="Helvetica,sans-Serif" font-size="10.00">setup</text>
</g>
<!-- Node248 -->
<g id="node2" class="node"><title>Node248</title>
<g id="a_node2"><a xlink:href="eBoard__comment_8h.html#aca4f96af7c6736bf2b61c88d731af741" target="_top" xlink:title="read a digital state from an INPUTpin ">
<polygon fill="white" stroke="black" points="77,-0.5 77,-19.5 127,-19.5 127,-0.5 77,-0.5"/>
<text text-anchor="middle" x="102" y="-7.5" font-family="Helvetica,sans-Serif" font-size="10.00">readPin</text>
</a>
</g>
</g>
<!-- Node247&#45;&gt;Node248 -->
<g id="edge1" class="edge"><title>Node247&#45;&gt;Node248</title>
<path fill="none" stroke="midnightblue" d="M51.3168,-10C59.7048,-10 68.7234,-10 76.7441,-10"/>
<polygon fill="midnightblue" stroke="midnightblue" points="51.1517,-6.5001 41.1517,-10 51.1517,-13.5001 51.1517,-6.5001"/>
</g>
<!-- Node248&#45;&gt;Node248 -->
<g id="edge2" class="edge"><title>Node248&#45;&gt;Node248</title>
<path fill="none" stroke="midnightblue" d="M87.2675,-29.7663C88.4246,-34.4965 93.3354,-38 102,-38 116.219,-38 120.329,-28.5653 114.33,-19.7571"/>
<polygon fill="midnightblue" stroke="midnightblue" points="90.7393,-30.2978 89.6697,-19.7571 83.9326,-28.6641 90.7393,-30.2978"/>
</g>
</g>
</svg>
