<?xml version="1.0" encoding="UTF-8" standalone="no"?>
<!DOCTYPE svg PUBLIC "-//W3C//DTD SVG 1.1//EN"
 "http://www.w3.org/Graphics/SVG/1.1/DTD/svg11.dtd">
<!-- Generated by graphviz version 2.38.0 (20140413.2041)
 -->
<!-- Title: ISR Pages: 1 -->
<svg width="128pt" height="46pt"
 viewBox="0.00 0.00 128.00 46.00" xmlns="http://www.w3.org/2000/svg" xmlns:xlink="http://www.w3.org/1999/xlink">
<g id="graph0" class="graph" transform="scale(1 1) rotate(0) translate(4 42)">
<title>ISR</title>
<polygon fill="white" stroke="none" points="-4,4 -4,-42 124,-42 124,4 -4,4"/>
<!-- Node63 -->
<g id="node1" class="node"><title>Node63</title>
<polygon fill="#bfbfbf" stroke="black" points="0,-0.5 0,-19.5 34,-19.5 34,-0.5 0,-0.5"/>
<text text-anchor="middle" x="17" y="-7.5" font-family="Helvetica,sans-Serif" font-size="10.00">ISR</text>
</g>
<!-- Node64 -->
<g id="node2" class="node"><title>Node64</title>
<g id="a_node2"><a xlink:href="eBoard__comment_8h.html#aca4f96af7c6736bf2b61c88d731af741" target="_top" xlink:title="read a digital state from an INPUTpin ">
<polygon fill="white" stroke="black" points="70,-0.5 70,-19.5 120,-19.5 120,-0.5 70,-0.5"/>
<text text-anchor="middle" x="95" y="-7.5" font-family="Helvetica,sans-Serif" font-size="10.00">readPin</text>
</a>
</g>
</g>
<!-- Node63&#45;&gt;Node64 -->
<g id="edge1" class="edge"><title>Node63&#45;&gt;Node64</title>
<path fill="none" stroke="midnightblue" d="M44.3652,-10C52.6307,-10 61.709,-10 69.816,-10"/>
<polygon fill="midnightblue" stroke="midnightblue" points="44.1177,-6.5001 34.1176,-10 44.1176,-13.5001 44.1177,-6.5001"/>
</g>
<!-- Node64&#45;&gt;Node64 -->
<g id="edge2" class="edge"><title>Node64&#45;&gt;Node64</title>
<path fill="none" stroke="midnightblue" d="M80.6358,-29.7663C81.764,-34.4965 86.5521,-38 95,-38 108.863,-38 112.871,-28.5653 107.022,-19.7571"/>
<polygon fill="midnightblue" stroke="midnightblue" points="84.1074,-30.2915 82.9779,-19.7571 77.2915,-28.6966 84.1074,-30.2915"/>
</g>
</g>
</svg>
