<?xml version="1.0" encoding="UTF-8" standalone="no"?>
<!DOCTYPE svg PUBLIC "-//W3C//DTD SVG 1.1//EN"
 "http://www.w3.org/Graphics/SVG/1.1/DTD/svg11.dtd">
<!-- Generated by graphviz version 2.38.0 (20140413.2041)
 -->
<!-- Title: DebugPulse Pages: 1 -->
<svg width="508pt" height="61pt"
 viewBox="0.00 0.00 508.00 61.00" xmlns="http://www.w3.org/2000/svg" xmlns:xlink="http://www.w3.org/1999/xlink">
<g id="graph0" class="graph" transform="scale(1 1) rotate(0) translate(4 57)">
<title>DebugPulse</title>
<polygon fill="white" stroke="none" points="-4,4 -4,-57 504,-57 504,4 -4,4"/>
<!-- Node91 -->
<g id="node1" class="node"><title>Node91</title>
<polygon fill="#bfbfbf" stroke="black" points="0,-28 0,-47 70,-47 70,-28 0,-28"/>
<text text-anchor="middle" x="35" y="-35" font-family="Helvetica,sans-Serif" font-size="10.00">DebugPulse</text>
</g>
<!-- Node92 -->
<g id="node2" class="node"><title>Node92</title>
<g id="a_node2"><a xlink:href="classeagle__impl_1_1SoftwareSerial.html#a14ff531f8f4a57b2311e452f902c7a31" target="_top" xlink:title="private receive routine called each time interrupt handler gets triggered ">
<polygon fill="white" stroke="black" points="106,-22.5 106,-52.5 239,-52.5 239,-22.5 106,-22.5"/>
<text text-anchor="start" x="114" y="-40.5" font-family="Helvetica,sans-Serif" font-size="10.00">eagle_impl::SoftwareSerial</text>
<text text-anchor="middle" x="172.5" y="-29.5" font-family="Helvetica,sans-Serif" font-size="10.00">::recv</text>
</a>
</g>
</g>
<!-- Node91&#45;&gt;Node92 -->
<g id="edge1" class="edge"><title>Node91&#45;&gt;Node92</title>
<path fill="none" stroke="midnightblue" d="M80.2648,-37.5C88.4722,-37.5 97.2044,-37.5 105.89,-37.5"/>
<polygon fill="midnightblue" stroke="midnightblue" points="80.1924,-34.0001 70.1924,-37.5 80.1923,-41.0001 80.1924,-34.0001"/>
</g>
<!-- Node93 -->
<g id="node3" class="node"><title>Node93</title>
<g id="a_node3"><a xlink:href="eBoard_8h.html#af64dd115a90406cbd4df7eb6455c91c6" target="_top" xlink:title="_Pragma">
<polygon fill="white" stroke="black" points="444,-28 444,-47 500,-47 500,-28 444,-28"/>
<text text-anchor="middle" x="472" y="-35" font-family="Helvetica,sans-Serif" font-size="10.00">_Pragma</text>
</a>
</g>
</g>
<!-- Node92&#45;&gt;Node93 -->
<g id="edge2" class="edge"><title>Node92&#45;&gt;Node93</title>
<path fill="none" stroke="midnightblue" d="M249.186,-39.9831C257.89,-40.1957 266.638,-40.3765 275,-40.5 334.105,-41.3733 348.906,-41.9062 408,-40.5 419.713,-40.2213 432.641,-39.6515 443.721,-39.0826"/>
<polygon fill="midnightblue" stroke="midnightblue" points="249.101,-36.4799 239.014,-39.7206 248.92,-43.4775 249.101,-36.4799"/>
</g>
<!-- Node94 -->
<g id="node4" class="node"><title>Node94</title>
<g id="a_node4"><a xlink:href="classeagle__impl_1_1SoftwareSerial.html#a009772cfdde9ef026c6660f7c578eda8" target="_top" xlink:title="used to handle interrupts on active listening object ">
<polygon fill="white" stroke="black" points="275,-0.5 275,-30.5 408,-30.5 408,-0.5 275,-0.5"/>
<text text-anchor="start" x="283" y="-18.5" font-family="Helvetica,sans-Serif" font-size="10.00">eagle_impl::SoftwareSerial</text>
<text text-anchor="middle" x="341.5" y="-7.5" font-family="Helvetica,sans-Serif" font-size="10.00">::handle_interrupt</text>
</a>
</g>
</g>
<!-- Node92&#45;&gt;Node94 -->
<g id="edge3" class="edge"><title>Node92&#45;&gt;Node94</title>
<path fill="none" stroke="midnightblue" d="M249.066,-27.5452C257.685,-26.4098 266.417,-25.2594 274.891,-24.1431"/>
<polygon fill="midnightblue" stroke="midnightblue" points="248.481,-24.092 239.024,-28.8682 249.395,-31.032 248.481,-24.092"/>
</g>
<!-- Node94&#45;&gt;Node93 -->
<g id="edge4" class="edge"><title>Node94&#45;&gt;Node93</title>
<path fill="none" stroke="midnightblue" d="M418.241,-28.4673C427.361,-30.0288 436.162,-31.5355 443.876,-32.8562"/>
<polygon fill="midnightblue" stroke="midnightblue" points="418.703,-24.9956 408.256,-26.7578 417.522,-31.8952 418.703,-24.9956"/>
</g>
</g>
</svg>
