<?xml version="1.0" encoding="UTF-8" standalone="no"?>
<!DOCTYPE svg PUBLIC "-//W3C//DTD SVG 1.1//EN"
 "http://www.w3.org/Graphics/SVG/1.1/DTD/svg11.dtd">
<!-- Generated by graphviz version 2.40.1 (20161225.0304)
 -->
<!-- Title: eBoard/eBoard.h Pages: 1 -->
<!--zoomable 151 -->
<svg id="main" version="1.1" xmlns="http://www.w3.org/2000/svg" xmlns:xlink="http://www.w3.org/1999/xlink" xml:space="preserve" onload="init(evt)">
<style type="text/css"><![CDATA[
.edge:hover path { stroke: red; }
.edge:hover polygon { stroke: red; fill: red; }
]]></style>
<script type="text/javascript"><![CDATA[
var edges = document.getElementsByTagName('g');
if (edges && edges.length) {
  for (var i=0;i<edges.length;i++) {
    if (edges[i].id.substr(0,4)=='edge') {
      edges[i].setAttribute('class','edge');
    }
  }
}
]]></script>
        <defs>
                <circle id="rim" cx="0" cy="0" r="7"/>
                <circle id="rim2" cx="0" cy="0" r="3.5"/>
                <g id="zoomPlus">
                        <use xlink:href="#rim" fill="#404040">
                                <set attributeName="fill" to="#808080" begin="zoomplus.mouseover" end="zoomplus.mouseout"/>
                        </use>
                        <path d="M-4,0h8M0,-4v8" fill="none" stroke="white" stroke-width="1.5" pointer-events="none"/>
                </g>
                <g id="zoomMin">
                        <use xlink:href="#rim" fill="#404040">
                                <set attributeName="fill" to="#808080" begin="zoomminus.mouseover" end="zoomminus.mouseout"/>
                        </use>
                        <path d="M-4,0h8" fill="none" stroke="white" stroke-width="1.5" pointer-events="none"/>
                </g>
                <g id="dirArrow">
                        <path fill="none" stroke="white" stroke-width="1.5" d="M0,-3.0v7 M-2.5,-0.5L0,-3.0L2.5,-0.5"/>
                </g>
               <g id="resetDef">
                       <use xlink:href="#rim2" fill="#404040">
                               <set attributeName="fill" to="#808080" begin="reset.mouseover" end="reset.mouseout"/>
                       </use>
               </g>
        </defs>

<script type="text/javascript">
var viewWidth = 2086;
var viewHeight = 151;
var sectionId = 'dynsection-0';
</script>
<script xlink:href="svgpan.js"/>
<svg id="graph" class="graph">
<g id="viewport">
<title>eBoard/eBoard.h</title>
<polygon fill="#ffffff" stroke="transparent" points="-4,4 -4,-147 2081.5,-147 2081.5,4 -4,4"/>
<!-- Node0 -->
<g id="node1" class="node">
<title>Node0</title>
<polygon fill="#bfbfbf" stroke="#000000" points="840,-123.5 840,-142.5 975,-142.5 975,-123.5 840,-123.5"/>
<text text-anchor="middle" x="907.5" y="-130.5" font-family="Helvetica,sans-Serif" font-size="10.00" fill="#000000">eBoard/eBoard.h</text>
</g>
<!-- Node1 -->
<g id="node2" class="node">
<title>Node1</title>
<g id="a_node2"><a xlink:href="eagle__PreprocessorControl_8h.html" target="_top" xlink:title="this file contains cool stuff never seen by the Arduino :/ ">
<polygon fill="#ffffff" stroke="#000000" points="0,-56.5 0,-86.5 135,-86.5 135,-56.5 0,-56.5"/>
<text text-anchor="start" x="8" y="-74.5" font-family="Helvetica,sans-Serif" font-size="10.00" fill="#000000">source/eagle_Preprocessor</text>
<text text-anchor="middle" x="67.5" y="-63.5" font-family="Helvetica,sans-Serif" font-size="10.00" fill="#000000">Control.h</text>
</a>
</g>
</g>
<!-- Node0&#45;&gt;Node1 -->
<g id="edge1" class="edge">
<title>Node0&#45;&gt;Node1</title>
<path fill="none" stroke="#191970" d="M839.8397,-132.0596C708.0293,-129.5443 407.5512,-120.4633 145.1221,-86.9462"/>
<polygon fill="#191970" stroke="#191970" points="145.384,-83.4511 135.018,-85.6411 144.4872,-90.3934 145.384,-83.4511"/>
</g>
<!-- Node2 -->
<g id="node3" class="node">
<title>Node2</title>
<polygon fill="#ffffff" stroke="#bfbfbf" points="153.5,-62 153.5,-81 239.5,-81 239.5,-62 153.5,-62"/>
<text text-anchor="middle" x="196.5" y="-69" font-family="Helvetica,sans-Serif" font-size="10.00" fill="#000000">avr/pgmspace.h</text>
</g>
<!-- Node0&#45;&gt;Node2 -->
<g id="edge2" class="edge">
<title>Node0&#45;&gt;Node2</title>
<path fill="none" stroke="#191970" d="M839.9196,-130.1715C695.4427,-123.8162 360.5657,-107.3567 248.5,-87 243.7672,-86.1403 238.8536,-85.0069 234.0196,-83.7431"/>
<polygon fill="#191970" stroke="#191970" points="234.8663,-80.3456 224.2925,-81.012 232.974,-87.085 234.8663,-80.3456"/>
</g>
<!-- Node3 -->
<g id="node4" class="node">
<title>Node3</title>
<polygon fill="#ffffff" stroke="#bfbfbf" points="257.5,-62 257.5,-81 315.5,-81 315.5,-62 257.5,-62"/>
<text text-anchor="middle" x="286.5" y="-69" font-family="Helvetica,sans-Serif" font-size="10.00" fill="#000000">Arduino.h</text>
</g>
<!-- Node0&#45;&gt;Node3 -->
<g id="edge3" class="edge">
<title>Node0&#45;&gt;Node3</title>
<path fill="none" stroke="#191970" d="M839.8689,-130.2809C707.9286,-124.5456 420.6928,-109.8292 324.5,-87 321.7054,-86.3368 318.8486,-85.4981 316.0186,-84.5556"/>
<polygon fill="#191970" stroke="#191970" points="317.2215,-81.2688 306.6288,-81.0557 314.7766,-87.828 317.2215,-81.2688"/>
</g>
<!-- Node4 -->
<g id="node5" class="node">
<title>Node4</title>
<polygon fill="#ffffff" stroke="#bfbfbf" points="334,-62 334,-81 383,-81 383,-62 334,-62"/>
<text text-anchor="middle" x="358.5" y="-69" font-family="Helvetica,sans-Serif" font-size="10.00" fill="#000000">avr/io.h</text>
</g>
<!-- Node0&#45;&gt;Node4 -->
<g id="edge4" class="edge">
<title>Node0&#45;&gt;Node4</title>
<path fill="none" stroke="#191970" d="M839.6885,-129.8973C719.5508,-123.9119 474.1982,-109.3552 391.5,-87 389.5294,-86.4673 387.5316,-85.8228 385.5447,-85.1032"/>
<polygon fill="#191970" stroke="#191970" points="386.4532,-81.6889 375.8777,-81.0483 383.7455,-88.144 386.4532,-81.6889"/>
</g>
<!-- Node5 -->
<g id="node6" class="node">
<title>Node5</title>
<polygon fill="#ffffff" stroke="#bfbfbf" points="401,-62 401,-81 478,-81 478,-62 401,-62"/>
<text text-anchor="middle" x="439.5" y="-69" font-family="Helvetica,sans-Serif" font-size="10.00" fill="#000000">avr/interrupt.h</text>
</g>
<!-- Node0&#45;&gt;Node5 -->
<g id="edge5" class="edge">
<title>Node0&#45;&gt;Node5</title>
<path fill="none" stroke="#191970" d="M839.7188,-129.9723C755.9351,-125.2305 609.3684,-113.6633 486.5,-87 482.6428,-86.163 478.6565,-85.1272 474.7117,-83.9911"/>
<polygon fill="#191970" stroke="#191970" points="475.6759,-80.6258 465.0882,-81.0159 473.6083,-87.3135 475.6759,-80.6258"/>
</g>
<!-- Node6 -->
<g id="node7" class="node">
<title>Node6</title>
<g id="a_node7"><a xlink:href="eagle__Twi_8h.html" target="_top" xlink:title="this file contains the Twi class ">
<polygon fill="#ffffff" stroke="#000000" points="496,-62 496,-81 597,-81 597,-62 496,-62"/>
<text text-anchor="middle" x="546.5" y="-69" font-family="Helvetica,sans-Serif" font-size="10.00" fill="#000000">source/eagle_Twi.h</text>
</a>
</g>
</g>
<!-- Node0&#45;&gt;Node6 -->
<g id="edge6" class="edge">
<title>Node0&#45;&gt;Node6</title>
<path fill="none" stroke="#191970" d="M839.9662,-124.7929C778.5212,-116.8336 685.4802,-103.5487 605.5,-87 600.5074,-85.967 595.306,-84.7743 590.1511,-83.5187"/>
<polygon fill="#191970" stroke="#191970" points="590.9142,-80.1016 580.3621,-81.0516 589.2035,-86.8894 590.9142,-80.1016"/>
</g>
<!-- Node8 -->
<g id="node9" class="node">
<title>Node8</title>
<g id="a_node9"><a xlink:href="eagle__TwoWire_8h.html" target="_top" xlink:title="this file contains the TwoWire class ">
<polygon fill="#ffffff" stroke="#000000" points="615,-62 615,-81 740,-81 740,-62 615,-62"/>
<text text-anchor="middle" x="677.5" y="-69" font-family="Helvetica,sans-Serif" font-size="10.00" fill="#000000">source/eagle_TwoWire.h</text>
</a>
</g>
</g>
<!-- Node0&#45;&gt;Node8 -->
<g id="edge8" class="edge">
<title>Node0&#45;&gt;Node8</title>
<path fill="none" stroke="#191970" d="M871.8149,-123.4581C831.7807,-112.7533 766.7429,-95.3628 723.065,-83.6837"/>
<polygon fill="#191970" stroke="#191970" points="723.8336,-80.2663 713.2689,-81.0643 722.0253,-87.0287 723.8336,-80.2663"/>
</g>
<!-- Node12 -->
<g id="node13" class="node">
<title>Node12</title>
<g id="a_node13"><a xlink:href="eagle__SPI_8h.html" target="_top" xlink:title="this file contains the SPI class ">
<polygon fill="#ffffff" stroke="#000000" points="758.5,-62 758.5,-81 860.5,-81 860.5,-62 758.5,-62"/>
<text text-anchor="middle" x="809.5" y="-69" font-family="Helvetica,sans-Serif" font-size="10.00" fill="#000000">source/eagle_SPI.h</text>
</a>
</g>
</g>
<!-- Node0&#45;&gt;Node12 -->
<g id="edge13" class="edge">
<title>Node0&#45;&gt;Node12</title>
<path fill="none" stroke="#191970" d="M892.1875,-123.3906C876.4376,-113.5067 851.6877,-97.9749 833.3663,-86.4773"/>
<polygon fill="#191970" stroke="#191970" points="835.0357,-83.3929 824.705,-81.0419 831.3148,-89.3221 835.0357,-83.3929"/>
</g>
<!-- Node14 -->
<g id="node15" class="node">
<title>Node14</title>
<polygon fill="#ffffff" stroke="#bfbfbf" points="879,-62 879,-81 936,-81 936,-62 879,-62"/>
<text text-anchor="middle" x="907.5" y="-69" font-family="Helvetica,sans-Serif" font-size="10.00" fill="#000000">avr/wdt.h</text>
</g>
<!-- Node0&#45;&gt;Node14 -->
<g id="edge15" class="edge">
<title>Node0&#45;&gt;Node14</title>
<path fill="none" stroke="#191970" d="M907.5,-123.3906C907.5,-114.8657 907.5,-102.1392 907.5,-91.4235"/>
<polygon fill="#191970" stroke="#191970" points="911.0001,-91.2448 907.5,-81.2449 904.0001,-91.2449 911.0001,-91.2448"/>
</g>
<!-- Node15 -->
<g id="node16" class="node">
<title>Node15</title>
<g id="a_node16"><a xlink:href="eagle__SoftwareSerial_8h.html" target="_top" xlink:title="this file contains the SoftwareSerial class ">
<polygon fill="#ffffff" stroke="#000000" points="954,-62 954,-81 1103,-81 1103,-62 954,-62"/>
<text text-anchor="middle" x="1028.5" y="-69" font-family="Helvetica,sans-Serif" font-size="10.00" fill="#000000">source/eagle_SoftwareSerial.h</text>
</a>
</g>
</g>
<!-- Node0&#45;&gt;Node15 -->
<g id="edge16" class="edge">
<title>Node0&#45;&gt;Node15</title>
<path fill="none" stroke="#191970" d="M926.4063,-123.3906C946.2966,-113.2811 977.8123,-97.2628 1000.5692,-85.6962"/>
<polygon fill="#191970" stroke="#191970" points="1002.3978,-88.693 1009.7265,-81.0419 999.226,-82.4528 1002.3978,-88.693"/>
</g>
<!-- Node16 -->
<g id="node17" class="node">
<title>Node16</title>
<g id="a_node17"><a xlink:href="eagle__Bluetooth_8h.html" target="_top" xlink:title="this file contains cool stuff to access the bluetooth interface ">
<polygon fill="#ffffff" stroke="#000000" points="1121,-62 1121,-81 1248,-81 1248,-62 1121,-62"/>
<text text-anchor="middle" x="1184.5" y="-69" font-family="Helvetica,sans-Serif" font-size="10.00" fill="#000000">source/eagle_Bluetooth.h</text>
</a>
</g>
</g>
<!-- Node0&#45;&gt;Node16 -->
<g id="edge17" class="edge">
<title>Node0&#45;&gt;Node16</title>
<path fill="none" stroke="#191970" d="M950.4773,-123.4581C999.3014,-112.6181 1079.0041,-94.9224 1131.6049,-83.2439"/>
<polygon fill="#191970" stroke="#191970" points="1132.4182,-86.6486 1141.4219,-81.0643 1130.9009,-79.815 1132.4182,-86.6486"/>
</g>
<!-- Node17 -->
<g id="node18" class="node">
<title>Node17</title>
<g id="a_node18"><a xlink:href="eagle__RB14Scan_8h.html" target="_top" xlink:title="this file contains the RB14Scan class ">
<polygon fill="#ffffff" stroke="#000000" points="1266,-62 1266,-81 1399,-81 1399,-62 1266,-62"/>
<text text-anchor="middle" x="1332.5" y="-69" font-family="Helvetica,sans-Serif" font-size="10.00" fill="#000000">source/eagle_RB14Scan.h</text>
</a>
</g>
</g>
<!-- Node0&#45;&gt;Node17 -->
<g id="edge18" class="edge">
<title>Node0&#45;&gt;Node17</title>
<path fill="none" stroke="#191970" d="M975.2668,-125.4949C1045.7388,-117.3564 1159.1591,-103.3206 1256.5,-87 1263.6218,-85.8059 1271.0947,-84.432 1278.4592,-83.0059"/>
<polygon fill="#191970" stroke="#191970" points="1279.2607,-86.4153 1288.3912,-81.041 1277.9021,-79.5484 1279.2607,-86.4153"/>
</g>
<!-- Node18 -->
<g id="node19" class="node">
<title>Node18</title>
<g id="a_node19"><a xlink:href="eagle__Comfort_8h.html" target="_top" xlink:title="this file contains sine8 and gamma8 ">
<polygon fill="#ffffff" stroke="#000000" points="1417,-62 1417,-81 1538,-81 1538,-62 1417,-62"/>
<text text-anchor="middle" x="1477.5" y="-69" font-family="Helvetica,sans-Serif" font-size="10.00" fill="#000000">source/eagle_Comfort.h</text>
</a>
</g>
</g>
<!-- Node0&#45;&gt;Node18 -->
<g id="edge19" class="edge">
<title>Node0&#45;&gt;Node18</title>
<path fill="none" stroke="#191970" d="M975.3623,-129.4789C1071.8359,-123.8565 1253.9743,-110.9617 1407.5,-87 1414.2756,-85.9425 1421.3769,-84.6223 1428.3499,-83.2014"/>
<polygon fill="#191970" stroke="#191970" points="1429.3647,-86.5641 1438.4215,-81.0665 1427.9131,-79.7163 1429.3647,-86.5641"/>
</g>
<!-- Node19 -->
<g id="node20" class="node">
<title>Node19</title>
<g id="a_node20"><a xlink:href="eagle__Servo_8h.html" target="_top" xlink:title="this file contains the Servo class ">
<polygon fill="#ffffff" stroke="#000000" points="1556,-62 1556,-81 1667,-81 1667,-62 1556,-62"/>
<text text-anchor="middle" x="1611.5" y="-69" font-family="Helvetica,sans-Serif" font-size="10.00" fill="#000000">source/eagle_Servo.h</text>
</a>
</g>
</g>
<!-- Node0&#45;&gt;Node19 -->
<g id="edge20" class="edge">
<title>Node0&#45;&gt;Node19</title>
<path fill="none" stroke="#191970" d="M975.0615,-131.7319C1092.0948,-128.7354 1339.8397,-118.8631 1546.5,-87 1552.8204,-86.0255 1559.4328,-84.752 1565.9183,-83.3534"/>
<polygon fill="#191970" stroke="#191970" points="1566.9679,-86.7043 1575.9452,-81.0777 1565.4185,-79.8779 1566.9679,-86.7043"/>
</g>
<!-- Node20 -->
<g id="node21" class="node">
<title>Node20</title>
<g id="a_node21"><a xlink:href="eagle__Assert_8h.html" target="_top" xlink:title="this file contains the assert wrapper for EBOARD_DEBUG_MODE ">
<polygon fill="#ffffff" stroke="#000000" points="1685.5,-62 1685.5,-81 1799.5,-81 1799.5,-62 1685.5,-62"/>
<text text-anchor="middle" x="1742.5" y="-69" font-family="Helvetica,sans-Serif" font-size="10.00" fill="#000000">source/eagle_Assert.h</text>
</a>
</g>
</g>
<!-- Node0&#45;&gt;Node20 -->
<g id="edge21" class="edge">
<title>Node0&#45;&gt;Node20</title>
<path fill="none" stroke="#191970" d="M975.0717,-130.4078C1136.5248,-123.9791 1541.2366,-106.4117 1675.5,-87 1682.2482,-86.0243 1689.3199,-84.7126 1696.235,-83.2633"/>
<polygon fill="#191970" stroke="#191970" points="1697.1875,-86.6374 1706.1983,-81.0646 1695.679,-79.8019 1697.1875,-86.6374"/>
</g>
<!-- Node22 -->
<g id="node23" class="node">
<title>Node22</title>
<g id="a_node23"><a xlink:href="eagle__Checks_8h.html" target="_top" xlink:title="this file contains various checkers like checkIdx ">
<polygon fill="#ffffff" stroke="#000000" points="1818,-62 1818,-81 1937,-81 1937,-62 1818,-62"/>
<text text-anchor="middle" x="1877.5" y="-69" font-family="Helvetica,sans-Serif" font-size="10.00" fill="#000000">source/eagle_Checks.h</text>
</a>
</g>
</g>
<!-- Node0&#45;&gt;Node22 -->
<g id="edge23" class="edge">
<title>Node0&#45;&gt;Node22</title>
<path fill="none" stroke="#191970" d="M975.2545,-131.0347C1156.1439,-125.5489 1647.5964,-109.0171 1808.5,-87 1815.6922,-86.0159 1823.2427,-84.6595 1830.6025,-83.1554"/>
<polygon fill="#191970" stroke="#191970" points="1831.4279,-86.558 1840.4686,-81.0338 1829.9563,-79.7144 1831.4279,-86.558"/>
</g>
<!-- Node23 -->
<g id="node24" class="node">
<title>Node23</title>
<g id="a_node24"><a xlink:href="eagle__HelpMot_8h.html" target="_top" xlink:title="this file contains the helper to acces the motor on the main car ">
<polygon fill="#ffffff" stroke="#000000" points="1955.5,-62 1955.5,-81 2077.5,-81 2077.5,-62 1955.5,-62"/>
<text text-anchor="middle" x="2016.5" y="-69" font-family="Helvetica,sans-Serif" font-size="10.00" fill="#000000">source/eagle_HelpMot.h</text>
</a>
</g>
</g>
<!-- Node0&#45;&gt;Node23 -->
<g id="edge24" class="edge">
<title>Node0&#45;&gt;Node23</title>
<path fill="none" stroke="#191970" d="M975.0194,-131.5436C1174.2749,-127.0025 1757.6447,-111.8976 1946.5,-87 1953.7962,-86.0381 1961.4561,-84.6937 1968.9225,-83.1949"/>
<polygon fill="#191970" stroke="#191970" points="1969.873,-86.5713 1978.9316,-81.0766 1968.4236,-79.723 1969.873,-86.5713"/>
</g>
<!-- Node7 -->
<g id="node8" class="node">
<title>Node7</title>
<polygon fill="#ffffff" stroke="#bfbfbf" points="510,-.5 510,-19.5 569,-19.5 569,-.5 510,-.5"/>
<text text-anchor="middle" x="539.5" y="-7.5" font-family="Helvetica,sans-Serif" font-size="10.00" fill="#000000">inttypes.h</text>
</g>
<!-- Node6&#45;&gt;Node7 -->
<g id="edge7" class="edge">
<title>Node6&#45;&gt;Node7</title>
<path fill="none" stroke="#191970" d="M545.4063,-61.8906C544.4359,-53.3657 542.9874,-40.6392 541.7677,-29.9235"/>
<polygon fill="#191970" stroke="#191970" points="545.2177,-29.2849 540.6092,-19.7449 538.2626,-30.0766 545.2177,-29.2849"/>
</g>
<!-- Node8&#45;&gt;Node7 -->
<g id="edge9" class="edge">
<title>Node8&#45;&gt;Node7</title>
<path fill="none" stroke="#191970" d="M655.9375,-61.8906C632.9488,-51.6457 596.344,-35.3326 570.3176,-23.7339"/>
<polygon fill="#191970" stroke="#191970" points="571.4698,-20.4156 560.9111,-19.5419 568.6204,-26.8095 571.4698,-20.4156"/>
</g>
<!-- Node9 -->
<g id="node10" class="node">
<title>Node9</title>
<polygon fill="#ffffff" stroke="#bfbfbf" points="587.5,-.5 587.5,-19.5 643.5,-19.5 643.5,-.5 587.5,-.5"/>
<text text-anchor="middle" x="615.5" y="-7.5" font-family="Helvetica,sans-Serif" font-size="10.00" fill="#000000">Stream.h</text>
</g>
<!-- Node8&#45;&gt;Node9 -->
<g id="edge10" class="edge">
<title>Node8&#45;&gt;Node9</title>
<path fill="none" stroke="#191970" d="M667.8125,-61.8906C658.4041,-52.5581 643.9193,-38.1902 632.5751,-26.9374"/>
<polygon fill="#191970" stroke="#191970" points="634.8886,-24.3024 625.3241,-19.7449 629.9589,-29.2722 634.8886,-24.3024"/>
</g>
<!-- Node10 -->
<g id="node11" class="node">
<title>Node10</title>
<polygon fill="#ffffff" stroke="#bfbfbf" points="661.5,-.5 661.5,-19.5 709.5,-19.5 709.5,-.5 661.5,-.5"/>
<text text-anchor="middle" x="685.5" y="-7.5" font-family="Helvetica,sans-Serif" font-size="10.00" fill="#000000">stdlib.h</text>
</g>
<!-- Node8&#45;&gt;Node10 -->
<g id="edge11" class="edge">
<title>Node8&#45;&gt;Node10</title>
<path fill="none" stroke="#191970" d="M678.75,-61.8906C679.8589,-53.3657 681.5144,-40.6392 682.9083,-29.9235"/>
<polygon fill="#191970" stroke="#191970" points="686.4131,-30.1128 684.2324,-19.7449 679.4716,-29.2098 686.4131,-30.1128"/>
</g>
<!-- Node11 -->
<g id="node12" class="node">
<title>Node11</title>
<polygon fill="#ffffff" stroke="#bfbfbf" points="728,-.5 728,-19.5 777,-19.5 777,-.5 728,-.5"/>
<text text-anchor="middle" x="752.5" y="-7.5" font-family="Helvetica,sans-Serif" font-size="10.00" fill="#000000">string.h</text>
</g>
<!-- Node8&#45;&gt;Node11 -->
<g id="edge12" class="edge">
<title>Node8&#45;&gt;Node11</title>
<path fill="none" stroke="#191970" d="M689.2188,-61.8906C700.8188,-52.3786 718.7979,-37.6357 732.6321,-26.2917"/>
<polygon fill="#191970" stroke="#191970" points="735.1026,-28.7921 740.616,-19.7449 730.664,-23.3792 735.1026,-28.7921"/>
</g>
<!-- Node13 -->
<g id="node14" class="node">
<title>Node13</title>
<polygon fill="#ffffff" stroke="#bfbfbf" points="795.5,-.5 795.5,-19.5 841.5,-19.5 841.5,-.5 795.5,-.5"/>
<text text-anchor="middle" x="818.5" y="-7.5" font-family="Helvetica,sans-Serif" font-size="10.00" fill="#000000">stdio.h</text>
</g>
<!-- Node12&#45;&gt;Node13 -->
<g id="edge14" class="edge">
<title>Node12&#45;&gt;Node13</title>
<path fill="none" stroke="#191970" d="M810.9063,-61.8906C812.1538,-53.3657 814.0162,-40.6392 815.5844,-29.9235"/>
<polygon fill="#191970" stroke="#191970" points="819.089,-30.1463 817.0739,-19.7449 812.1627,-29.1326 819.089,-30.1463"/>
</g>
<!-- Node21 -->
<g id="node22" class="node">
<title>Node21</title>
<polygon fill="#ffffff" stroke="#bfbfbf" points="1716.5,-.5 1716.5,-19.5 1768.5,-19.5 1768.5,-.5 1716.5,-.5"/>
<text text-anchor="middle" x="1742.5" y="-7.5" font-family="Helvetica,sans-Serif" font-size="10.00" fill="#000000">assert.h</text>
</g>
<!-- Node20&#45;&gt;Node21 -->
<g id="edge22" class="edge">
<title>Node20&#45;&gt;Node21</title>
<path fill="none" stroke="#191970" d="M1742.5,-61.8906C1742.5,-53.3657 1742.5,-40.6392 1742.5,-29.9235"/>
<polygon fill="#191970" stroke="#191970" points="1746.0001,-29.7448 1742.5,-19.7449 1739.0001,-29.7449 1746.0001,-29.7448"/>
</g>
</g>
</svg>
        <g id="navigator" transform="translate(0 0)" fill="#404254">
                <rect fill="#f2f5e9" fill-opacity="0.5" stroke="#606060" stroke-width=".5" x="0" y="0" width="60" height="60"/>
                <use id="zoomplus" xlink:href="#zoomPlus" x="17" y="9" onmousedown="handleZoom(evt,'in')"/>
                <use id="zoomminus" xlink:href="#zoomMin" x="42" y="9" onmousedown="handleZoom(evt,'out')"/>
                <use id="reset" xlink:href="#resetDef" x="30" y="36" onmousedown="handleReset()"/>
                <g id="arrowUp" xlink:href="#dirArrow" transform="translate(30 24)" onmousedown="handlePan(0,-1)">
                  <use xlink:href="#rim" fill="#404040">
                        <set attributeName="fill" to="#808080" begin="arrowUp.mouseover" end="arrowUp.mouseout"/>
                  </use>
                  <path fill="none" stroke="white" stroke-width="1.5" d="M0,-3.0v7 M-2.5,-0.5L0,-3.0L2.5,-0.5"/>
                </g>
                <g id="arrowRight" xlink:href="#dirArrow" transform="rotate(90) translate(36 -43)" onmousedown="handlePan(1,0)">
                  <use xlink:href="#rim" fill="#404040">
                        <set attributeName="fill" to="#808080" begin="arrowRight.mouseover" end="arrowRight.mouseout"/>
                  </use>
                  <path fill="none" stroke="white" stroke-width="1.5" d="M0,-3.0v7 M-2.5,-0.5L0,-3.0L2.5,-0.5"/>
                </g>
                <g id="arrowDown" xlink:href="#dirArrow" transform="rotate(180) translate(-30 -48)" onmousedown="handlePan(0,1)">
                  <use xlink:href="#rim" fill="#404040">
                        <set attributeName="fill" to="#808080" begin="arrowDown.mouseover" end="arrowDown.mouseout"/>
                  </use>
                  <path fill="none" stroke="white" stroke-width="1.5" d="M0,-3.0v7 M-2.5,-0.5L0,-3.0L2.5,-0.5"/>
                </g>
                <g id="arrowLeft" xlink:href="#dirArrow" transform="rotate(270) translate(-36 17)" onmousedown="handlePan(-1,0)">
                  <use xlink:href="#rim" fill="#404040">
                        <set attributeName="fill" to="#808080" begin="arrowLeft.mouseover" end="arrowLeft.mouseout"/>
                  </use>
                  <path fill="none" stroke="white" stroke-width="1.5" d="M0,-3.0v7 M-2.5,-0.5L0,-3.0L2.5,-0.5"/>
                </g>
        </g>
        <svg viewBox="0 0 15 15" width="100%" height="30px" preserveAspectRatio="xMaxYMin meet">
         <g id="arrow_out" transform="scale(0.3 0.3)">
          <a xlink:href="eBoard__comment_8h__incl_org.svg" target="_base">
           <rect id="button" ry="5" rx="5" y="6" x="6" height="38" width="38"
                fill="#f2f5e9" fill-opacity="0.5" stroke="#606060" stroke-width="1.0"/>
           <path id="arrow"
             d="M 11.500037,31.436501 C 11.940474,20.09759 22.043105,11.32322 32.158766,21.979434 L 37.068811,17.246167 C 37.068811,17.246167 37.088388,32 37.088388,32 L 22.160133,31.978069 C 22.160133,31.978069 26.997745,27.140456 26.997745,27.140456 C 18.528582,18.264221 13.291696,25.230495 11.500037,31.436501 z"
             style="fill:#404040;"/>
          </a>
         </g>
        </svg>
</svg>
