<?xml version="1.0" encoding="UTF-8" standalone="no"?>
<!DOCTYPE svg PUBLIC "-//W3C//DTD SVG 1.1//EN"
 "http://www.w3.org/Graphics/SVG/1.1/DTD/svg11.dtd">
<!-- Generated by graphviz version 2.38.0 (20140413.2041)
 -->
<!-- Title: _Pragma Pages: 1 -->
<svg width="233pt" height="372pt"
 viewBox="0.00 0.00 233.00 372.00" xmlns="http://www.w3.org/2000/svg" xmlns:xlink="http://www.w3.org/1999/xlink">
<g id="graph0" class="graph" transform="scale(1 1) rotate(0) translate(4 368)">
<title>_Pragma</title>
<polygon fill="white" stroke="none" points="-4,4 -4,-368 229,-368 229,4 -4,4"/>
<!-- Node6 -->
<g id="node1" class="node"><title>Node6</title>
<polygon fill="#bfbfbf" stroke="black" points="0,-175 0,-194 56,-194 56,-175 0,-175"/>
<text text-anchor="middle" x="28" y="-182" font-family="Helvetica,sans-Serif" font-size="10.00">_Pragma</text>
</g>
<!-- Node7 -->
<g id="node2" class="node"><title>Node7</title>
<g id="a_node2"><a xlink:href="structeagle__impl_1_1SPIClass.html#a1469d2ce9aed2837cf56c8797cfbc1fe" target="_top" xlink:title="enables the interrupt feature ">
<polygon fill="white" stroke="black" points="103,-333.5 103,-363.5 214,-363.5 214,-333.5 103,-333.5"/>
<text text-anchor="start" x="111" y="-351.5" font-family="Helvetica,sans-Serif" font-size="10.00">eagle_impl::SPIClass</text>
<text text-anchor="middle" x="158.5" y="-340.5" font-family="Helvetica,sans-Serif" font-size="10.00">::attachInterrupt</text>
</a>
</g>
</g>
<!-- Node6&#45;&gt;Node7 -->
<g id="edge1" class="edge"><title>Node6&#45;&gt;Node7</title>
<path fill="none" stroke="midnightblue" d="M30.6717,-194.154C35.5071,-219.234 51.8106,-287.091 92,-324.5 93.2799,-325.691 94.6237,-326.825 96.0202,-327.903"/>
<polygon fill="midnightblue" stroke="midnightblue" points="94.2379,-330.92 104.516,-333.491 98.085,-325.071 94.2379,-330.92"/>
</g>
<!-- Node8 -->
<g id="node3" class="node"><title>Node8</title>
<g id="a_node3"><a xlink:href="structeagle__impl_1_1SPIClass.html#a95193d135059e061214bb5348cda14fa" target="_top" xlink:title="this will setup everything for SPI connection ">
<polygon fill="white" stroke="black" points="103,-284.5 103,-314.5 214,-314.5 214,-284.5 103,-284.5"/>
<text text-anchor="start" x="111" y="-302.5" font-family="Helvetica,sans-Serif" font-size="10.00">eagle_impl::SPIClass</text>
<text text-anchor="middle" x="158.5" y="-291.5" font-family="Helvetica,sans-Serif" font-size="10.00">::begin</text>
</a>
</g>
</g>
<!-- Node6&#45;&gt;Node8 -->
<g id="edge2" class="edge"><title>Node6&#45;&gt;Node8</title>
<path fill="none" stroke="midnightblue" d="M33.2382,-194.199C41.753,-212.612 62.6628,-252.814 92,-275.5 93.7904,-276.884 95.6684,-278.195 97.6117,-279.434"/>
<polygon fill="midnightblue" stroke="midnightblue" points="96.0499,-282.571 106.481,-284.426 99.4832,-276.471 96.0499,-282.571"/>
</g>
<!-- Node9 -->
<g id="node4" class="node"><title>Node9</title>
<g id="a_node4"><a xlink:href="structeagle__impl_1_1SPIClass.html#a4dd199ce2f657ee3944e3235afa3a87e" target="_top" xlink:title="disables the interrupt feature ">
<polygon fill="white" stroke="black" points="103,-235.5 103,-265.5 214,-265.5 214,-235.5 103,-235.5"/>
<text text-anchor="start" x="111" y="-253.5" font-family="Helvetica,sans-Serif" font-size="10.00">eagle_impl::SPIClass</text>
<text text-anchor="middle" x="158.5" y="-242.5" font-family="Helvetica,sans-Serif" font-size="10.00">::detachInterrupt</text>
</a>
</g>
</g>
<!-- Node6&#45;&gt;Node9 -->
<g id="edge3" class="edge"><title>Node6&#45;&gt;Node9</title>
<path fill="none" stroke="midnightblue" d="M42.0237,-194.154C54.4315,-203.061 73.857,-216.266 92,-225.5 96.0136,-227.543 100.235,-229.517 104.521,-231.4"/>
<polygon fill="midnightblue" stroke="midnightblue" points="103.375,-234.715 113.95,-235.369 106.091,-228.264 103.375,-234.715"/>
</g>
<!-- Node10 -->
<g id="node5" class="node"><title>Node10</title>
<g id="a_node5"><a xlink:href="structeagle__impl_1_1SPIClass.html#a4e6b1133b5a5e817013c688c275aeaa4" target="_top" xlink:title="this will end the SPI connection ">
<polygon fill="white" stroke="black" points="92,-197 92,-216 225,-216 225,-197 92,-197"/>
<text text-anchor="middle" x="158.5" y="-204" font-family="Helvetica,sans-Serif" font-size="10.00">eagle_impl::SPIClass::end</text>
</a>
</g>
</g>
<!-- Node6&#45;&gt;Node10 -->
<g id="edge4" class="edge"><title>Node6&#45;&gt;Node10</title>
<path fill="none" stroke="midnightblue" d="M56.2515,-189.166C66.7734,-190.967 79.3034,-193.112 91.9025,-195.269"/>
<polygon fill="midnightblue" stroke="midnightblue" points="91.5373,-198.758 101.985,-196.995 92.7186,-191.858 91.5373,-198.758"/>
</g>
<!-- Node11 -->
<g id="node6" class="node"><title>Node11</title>
<g id="a_node6"><a xlink:href="structeagle__impl_1_1SPIClass.html#a0b958d7cd2e74d5ff977bdd1efe27017" target="_top" xlink:title="this will set the BitOrder ">
<polygon fill="white" stroke="black" points="103,-147.5 103,-177.5 214,-177.5 214,-147.5 103,-147.5"/>
<text text-anchor="start" x="111" y="-165.5" font-family="Helvetica,sans-Serif" font-size="10.00">eagle_impl::SPIClass</text>
<text text-anchor="middle" x="158.5" y="-154.5" font-family="Helvetica,sans-Serif" font-size="10.00">::setBitOrder</text>
</a>
</g>
</g>
<!-- Node6&#45;&gt;Node11 -->
<g id="edge5" class="edge"><title>Node6&#45;&gt;Node11</title>
<path fill="none" stroke="midnightblue" d="M56.2515,-179.834C67.0537,-177.985 79.9724,-175.773 92.9096,-173.558"/>
<polygon fill="midnightblue" stroke="midnightblue" points="93.5056,-177.007 102.772,-171.87 92.3243,-170.108 93.5056,-177.007"/>
</g>
<!-- Node12 -->
<g id="node7" class="node"><title>Node12</title>
<g id="a_node7"><a xlink:href="structeagle__impl_1_1SPIClass.html#a0a57f81d62a46c6419c14006cbb2cc5a" target="_top" xlink:title="this will change the clock devider the ">
<polygon fill="white" stroke="black" points="103,-98.5 103,-128.5 214,-128.5 214,-98.5 103,-98.5"/>
<text text-anchor="start" x="111" y="-116.5" font-family="Helvetica,sans-Serif" font-size="10.00">eagle_impl::SPIClass</text>
<text text-anchor="middle" x="158.5" y="-105.5" font-family="Helvetica,sans-Serif" font-size="10.00">::setClockDivider</text>
</a>
</g>
</g>
<!-- Node6&#45;&gt;Node12 -->
<g id="edge6" class="edge"><title>Node6&#45;&gt;Node12</title>
<path fill="none" stroke="midnightblue" d="M40.4467,-174.685C52.6141,-164.612 72.7218,-148.973 92,-138.5 95.73,-136.474 99.6593,-134.535 103.664,-132.699"/>
<polygon fill="midnightblue" stroke="midnightblue" points="105.312,-135.799 113.089,-128.605 102.523,-129.379 105.312,-135.799"/>
</g>
<!-- Node13 -->
<g id="node8" class="node"><title>Node13</title>
<g id="a_node8"><a xlink:href="structeagle__impl_1_1SPIClass.html#a13cf0985428fd08a5e056c747e296cc1" target="_top" xlink:title="this will set the Data transfer mode ">
<polygon fill="white" stroke="black" points="103,-49.5 103,-79.5 214,-79.5 214,-49.5 103,-49.5"/>
<text text-anchor="start" x="111" y="-67.5" font-family="Helvetica,sans-Serif" font-size="10.00">eagle_impl::SPIClass</text>
<text text-anchor="middle" x="158.5" y="-56.5" font-family="Helvetica,sans-Serif" font-size="10.00">::setDataMode</text>
</a>
</g>
</g>
<!-- Node6&#45;&gt;Node13 -->
<g id="edge7" class="edge"><title>Node6&#45;&gt;Node13</title>
<path fill="none" stroke="midnightblue" d="M32.8942,-174.996C41.0876,-156.112 61.87,-113.613 92,-89.5 94.0788,-87.8363 96.2806,-86.2745 98.5692,-84.8091"/>
<polygon fill="midnightblue" stroke="midnightblue" points="100.764,-87.5895 107.75,-79.6246 97.3215,-81.4942 100.764,-87.5895"/>
</g>
<!-- Node14 -->
<g id="node9" class="node"><title>Node14</title>
<g id="a_node9"><a xlink:href="structeagle__impl_1_1SPIClass.html#a821dccd5dda20ccd9093fc35cce74ae5" target="_top" xlink:title="this will send a single bite via the SPI connection ">
<polygon fill="white" stroke="black" points="103,-0.5 103,-30.5 214,-30.5 214,-0.5 103,-0.5"/>
<text text-anchor="start" x="111" y="-18.5" font-family="Helvetica,sans-Serif" font-size="10.00">eagle_impl::SPIClass</text>
<text text-anchor="middle" x="158.5" y="-7.5" font-family="Helvetica,sans-Serif" font-size="10.00">::transfer</text>
</a>
</g>
</g>
<!-- Node6&#45;&gt;Node14 -->
<g id="edge8" class="edge"><title>Node6&#45;&gt;Node14</title>
<path fill="none" stroke="midnightblue" d="M30.5471,-174.976C35.158,-149.571 51.1154,-79.4757 92,-40.5 93.6463,-38.9305 95.4014,-37.457 97.2404,-36.0737"/>
<polygon fill="midnightblue" stroke="midnightblue" points="99.2629,-38.9341 105.766,-30.5695 95.4659,-33.0533 99.2629,-38.9341"/>
</g>
</g>
</svg>
