<?xml version="1.0" encoding="UTF-8" standalone="no"?>
<!DOCTYPE svg PUBLIC "-//W3C//DTD SVG 1.1//EN"
 "http://www.w3.org/Graphics/SVG/1.1/DTD/svg11.dtd">
<!-- Generated by graphviz version 2.38.0 (20140413.2041)
 -->
<!-- Title: shiftSingle Pages: 1 -->
<svg width="465pt" height="237pt"
 viewBox="0.00 0.00 465.00 237.00" xmlns="http://www.w3.org/2000/svg" xmlns:xlink="http://www.w3.org/1999/xlink">
<g id="graph0" class="graph" transform="scale(1 1) rotate(0) translate(4 233)">
<title>shiftSingle</title>
<polygon fill="white" stroke="none" points="-4,4 -4,-233 461,-233 461,4 -4,4"/>
<!-- Node191 -->
<g id="node1" class="node"><title>Node191</title>
<polygon fill="#bfbfbf" stroke="black" points="0,-114.5 0,-133.5 62,-133.5 62,-114.5 0,-114.5"/>
<text text-anchor="middle" x="31" y="-121.5" font-family="Helvetica,sans-Serif" font-size="10.00">shiftSingle</text>
</g>
<!-- Node192 -->
<g id="node2" class="node"><title>Node192</title>
<g id="a_node2"><a xlink:href="eBoard__comment_8h.html#ad6d4c1b1e3b495ed81fb28fac04d2bd6" target="_top" xlink:title="write a boolean state to an output pin ">
<polygon fill="white" stroke="black" points="98,-114.5 98,-133.5 150,-133.5 150,-114.5 98,-114.5"/>
<text text-anchor="middle" x="124" y="-121.5" font-family="Helvetica,sans-Serif" font-size="10.00">writePin</text>
</a>
</g>
</g>
<!-- Node191&#45;&gt;Node192 -->
<g id="edge1" class="edge"><title>Node191&#45;&gt;Node192</title>
<path fill="none" stroke="midnightblue" d="M72.1152,-124C80.8627,-124 89.8795,-124 97.8477,-124"/>
<polygon fill="midnightblue" stroke="midnightblue" points="72.049,-120.5 62.049,-124 72.049,-127.5 72.049,-120.5"/>
</g>
<!-- Node193 -->
<g id="node3" class="node"><title>Node193</title>
<g id="a_node3"><a xlink:href="structSoccerBoard.html#a01ff8231432776da9e5e5e1c05257606" target="_top" xlink:title="SoccerBoard::led">
<polygon fill="white" stroke="black" points="198,-209.5 198,-228.5 290,-228.5 290,-209.5 198,-209.5"/>
<text text-anchor="middle" x="244" y="-216.5" font-family="Helvetica,sans-Serif" font-size="10.00">SoccerBoard::led</text>
</a>
</g>
</g>
<!-- Node192&#45;&gt;Node193 -->
<g id="edge2" class="edge"><title>Node192&#45;&gt;Node193</title>
<path fill="none" stroke="midnightblue" d="M135.372,-142.242C146.016,-159.428 164.091,-184.749 186,-200 191.479,-203.814 197.781,-206.909 204.152,-209.405"/>
<polygon fill="midnightblue" stroke="midnightblue" points="138.375,-140.444 130.246,-133.648 132.363,-144.029 138.375,-140.444"/>
</g>
<!-- Node194 -->
<g id="node4" class="node"><title>Node194</title>
<g id="a_node4"><a xlink:href="structSoccerBoard.html#abaefeaaf5c0ea659dce35903284ee577" target="_top" xlink:title="SoccerBoard::ledOn">
<polygon fill="white" stroke="black" points="192,-171.5 192,-190.5 296,-190.5 296,-171.5 192,-171.5"/>
<text text-anchor="middle" x="244" y="-178.5" font-family="Helvetica,sans-Serif" font-size="10.00">SoccerBoard::ledOn</text>
</a>
</g>
</g>
<!-- Node192&#45;&gt;Node194 -->
<g id="edge3" class="edge"><title>Node192&#45;&gt;Node194</title>
<path fill="none" stroke="midnightblue" d="M146.901,-139.398C158.215,-146.892 172.457,-155.634 186,-162 193.552,-165.55 201.95,-168.737 209.929,-171.441"/>
<polygon fill="midnightblue" stroke="midnightblue" points="148.767,-136.434 138.525,-133.724 144.841,-142.23 148.767,-136.434"/>
</g>
<!-- Node195 -->
<g id="node5" class="node"><title>Node195</title>
<g id="a_node5"><a xlink:href="structSoccerBoard.html#af358ec89f0eab4a87b00959dc54f3e16" target="_top" xlink:title="SoccerBoard::ledOff">
<polygon fill="white" stroke="black" points="191.5,-133.5 191.5,-152.5 296.5,-152.5 296.5,-133.5 191.5,-133.5"/>
<text text-anchor="middle" x="244" y="-140.5" font-family="Helvetica,sans-Serif" font-size="10.00">SoccerBoard::ledOff</text>
</a>
</g>
</g>
<!-- Node192&#45;&gt;Node195 -->
<g id="edge4" class="edge"><title>Node192&#45;&gt;Node195</title>
<path fill="none" stroke="midnightblue" d="M160.162,-129.662C169.945,-131.237 180.778,-132.981 191.297,-134.675"/>
<polygon fill="midnightblue" stroke="midnightblue" points="160.454,-126.164 150.025,-128.029 159.341,-133.075 160.454,-126.164"/>
</g>
<!-- Node196 -->
<g id="node6" class="node"><title>Node196</title>
<g id="a_node6"><a xlink:href="structSoccerBoard.html#a80d7f7690654433e3253f6924eb1164d" target="_top" xlink:title="SoccerBoard::ledsOff">
<polygon fill="white" stroke="black" points="189,-95.5 189,-114.5 299,-114.5 299,-95.5 189,-95.5"/>
<text text-anchor="middle" x="244" y="-102.5" font-family="Helvetica,sans-Serif" font-size="10.00">SoccerBoard::ledsOff</text>
</a>
</g>
</g>
<!-- Node192&#45;&gt;Node196 -->
<g id="edge5" class="edge"><title>Node192&#45;&gt;Node196</title>
<path fill="none" stroke="midnightblue" d="M160.155,-118.339C169.191,-116.884 179.124,-115.285 188.878,-113.715"/>
<polygon fill="midnightblue" stroke="midnightblue" points="159.341,-114.925 150.025,-119.971 160.454,-121.836 159.341,-114.925"/>
</g>
<!-- Node197 -->
<g id="node7" class="node"><title>Node197</title>
<g id="a_node7"><a xlink:href="structSoccerBoard.html#a978649a6b3089e6215da01b0f87ee3f1" target="_top" xlink:title="SoccerBoard::ledMeter">
<polygon fill="white" stroke="black" points="186,-57.5 186,-76.5 302,-76.5 302,-57.5 186,-57.5"/>
<text text-anchor="middle" x="244" y="-64.5" font-family="Helvetica,sans-Serif" font-size="10.00">SoccerBoard::ledMeter</text>
</a>
</g>
</g>
<!-- Node192&#45;&gt;Node197 -->
<g id="edge6" class="edge"><title>Node192&#45;&gt;Node197</title>
<path fill="none" stroke="midnightblue" d="M146.901,-108.602C158.215,-101.108 172.457,-92.3664 186,-86 193.552,-82.4498 201.95,-79.263 209.929,-76.5592"/>
<polygon fill="midnightblue" stroke="midnightblue" points="144.841,-105.77 138.525,-114.276 148.767,-111.566 144.841,-105.77"/>
</g>
<!-- Node198 -->
<g id="node8" class="node"><title>Node198</title>
<g id="a_node8"><a xlink:href="structSoccerBoard.html#a04c6b8fd4b6d1cd24be9c1b3291dbf06" target="_top" xlink:title="SoccerBoard::power">
<polygon fill="white" stroke="black" points="191.5,-19.5 191.5,-38.5 296.5,-38.5 296.5,-19.5 191.5,-19.5"/>
<text text-anchor="middle" x="244" y="-26.5" font-family="Helvetica,sans-Serif" font-size="10.00">SoccerBoard::power</text>
</a>
</g>
</g>
<!-- Node192&#45;&gt;Node198 -->
<g id="edge7" class="edge"><title>Node192&#45;&gt;Node198</title>
<path fill="none" stroke="midnightblue" d="M135.372,-105.758C146.016,-88.5725 164.091,-63.251 186,-48 191.479,-44.186 197.781,-41.0915 204.152,-38.5951"/>
<polygon fill="midnightblue" stroke="midnightblue" points="132.363,-103.971 130.246,-114.352 138.375,-107.556 132.363,-103.971"/>
</g>
<!-- Node199 -->
<g id="node9" class="node"><title>Node199</title>
<g id="a_node9"><a xlink:href="structSoccerBoard.html#aa46822d5b727bf3e427c5ceba995f42f" target="_top" xlink:title="SoccerBoard::powerOn">
<polygon fill="white" stroke="black" points="338.5,-38.5 338.5,-57.5 456.5,-57.5 456.5,-38.5 338.5,-38.5"/>
<text text-anchor="middle" x="397.5" y="-45.5" font-family="Helvetica,sans-Serif" font-size="10.00">SoccerBoard::powerOn</text>
</a>
</g>
</g>
<!-- Node198&#45;&gt;Node199 -->
<g id="edge8" class="edge"><title>Node198&#45;&gt;Node199</title>
<path fill="none" stroke="midnightblue" d="M306.922,-36.7658C317.279,-38.0647 327.994,-39.4084 338.255,-40.6953"/>
<polygon fill="midnightblue" stroke="midnightblue" points="307.072,-33.2572 296.714,-35.4856 306.201,-40.2028 307.072,-33.2572"/>
</g>
<!-- Node200 -->
<g id="node10" class="node"><title>Node200</title>
<g id="a_node10"><a xlink:href="structSoccerBoard.html#a5442e3a7ca58ed90d9e4af0cac83ebdd" target="_top" xlink:title="SoccerBoard::powerOff">
<polygon fill="white" stroke="black" points="338,-0.5 338,-19.5 457,-19.5 457,-0.5 338,-0.5"/>
<text text-anchor="middle" x="397.5" y="-7.5" font-family="Helvetica,sans-Serif" font-size="10.00">SoccerBoard::powerOff</text>
</a>
</g>
</g>
<!-- Node198&#45;&gt;Node200 -->
<g id="edge9" class="edge"><title>Node198&#45;&gt;Node200</title>
<path fill="none" stroke="midnightblue" d="M306.856,-21.2425C317.145,-19.9521 327.789,-18.6173 337.991,-17.3377"/>
<polygon fill="midnightblue" stroke="midnightblue" points="306.201,-17.7972 296.714,-22.5144 307.072,-24.7428 306.201,-17.7972"/>
</g>
</g>
</svg>
