<?xml version="1.0" encoding="UTF-8" standalone="no"?>
<!DOCTYPE svg PUBLIC "-//W3C//DTD SVG 1.1//EN"
 "http://www.w3.org/Graphics/SVG/1.1/DTD/svg11.dtd">
<!-- Generated by graphviz version 2.38.0 (20140413.2041)
 -->
<!-- Title: ISR Pages: 1 -->
<svg width="247pt" height="28pt"
 viewBox="0.00 0.00 247.00 28.00" xmlns="http://www.w3.org/2000/svg" xmlns:xlink="http://www.w3.org/1999/xlink">
<g id="graph0" class="graph" transform="scale(1 1) rotate(0) translate(4 24)">
<title>ISR</title>
<polygon fill="white" stroke="none" points="-4,4 -4,-24 243,-24 243,4 -4,4"/>
<!-- Node113 -->
<g id="node1" class="node"><title>Node113</title>
<polygon fill="#bfbfbf" stroke="black" points="0,-0.5 0,-19.5 34,-19.5 34,-0.5 0,-0.5"/>
<text text-anchor="middle" x="17" y="-7.5" font-family="Helvetica,sans-Serif" font-size="10.00">ISR</text>
</g>
<!-- Node114 -->
<g id="node2" class="node"><title>Node114</title>
<g id="a_node2"><a xlink:href="eBoard_8h.html#aa1a0a3a5e9131c8e40900d020e9dcc74" target="_top" xlink:title="trig_rept_task">
<polygon fill="white" stroke="black" points="70,-0.5 70,-19.5 146,-19.5 146,-0.5 70,-0.5"/>
<text text-anchor="middle" x="108" y="-7.5" font-family="Helvetica,sans-Serif" font-size="10.00">trig_rept_task</text>
</a>
</g>
</g>
<!-- Node113&#45;&gt;Node114 -->
<g id="edge1" class="edge"><title>Node113&#45;&gt;Node114</title>
<path fill="none" stroke="midnightblue" d="M34.324,-10C41.5432,-10 50.4432,-10 59.5094,-10"/>
<polygon fill="midnightblue" stroke="midnightblue" points="59.7355,-13.5001 69.7354,-10 59.7354,-6.5001 59.7355,-13.5001"/>
</g>
<!-- Node115 -->
<g id="node3" class="node"><title>Node115</title>
<g id="a_node3"><a xlink:href="eBoard_8h.html#a2c2fbf17da89298ceb0e017da0583ef6" target="_top" xlink:title="rept_task">
<polygon fill="white" stroke="black" points="182,-0.5 182,-19.5 239,-19.5 239,-0.5 182,-0.5"/>
<text text-anchor="middle" x="210.5" y="-7.5" font-family="Helvetica,sans-Serif" font-size="10.00">rept_task</text>
</a>
</g>
</g>
<!-- Node114&#45;&gt;Node115 -->
<g id="edge2" class="edge"><title>Node114&#45;&gt;Node115</title>
<path fill="none" stroke="midnightblue" d="M146.137,-10C154.472,-10 163.324,-10 171.686,-10"/>
<polygon fill="midnightblue" stroke="midnightblue" points="171.94,-13.5001 181.94,-10 171.94,-6.5001 171.94,-13.5001"/>
</g>
</g>
</svg>
