<?xml version="1.0" encoding="UTF-8" standalone="no"?>
<!DOCTYPE svg PUBLIC "-//W3C//DTD SVG 1.1//EN"
 "http://www.w3.org/Graphics/SVG/1.1/DTD/svg11.dtd">
<!-- Generated by graphviz version 2.38.0 (20140413.2041)
 -->
<!-- Title: isConnected Pages: 1 -->
<svg width="219pt" height="66pt"
 viewBox="0.00 0.00 219.00 66.00" xmlns="http://www.w3.org/2000/svg" xmlns:xlink="http://www.w3.org/1999/xlink">
<g id="graph0" class="graph" transform="scale(1 1) rotate(0) translate(4 62)">
<title>isConnected</title>
<polygon fill="white" stroke="none" points="-4,4 -4,-62 215,-62 215,4 -4,4"/>
<!-- Node65 -->
<g id="node1" class="node"><title>Node65</title>
<polygon fill="#bfbfbf" stroke="black" points="0,-19.5 0,-38.5 71,-38.5 71,-19.5 0,-19.5"/>
<text text-anchor="middle" x="35.5" y="-26.5" font-family="Helvetica,sans-Serif" font-size="10.00">isConnected</text>
</g>
<!-- Node66 -->
<g id="node2" class="node"><title>Node66</title>
<g id="a_node2"><a xlink:href="structRB14Scan.html#a35ff55470a07767513fb0c619ed78258" target="_top" xlink:title="RB14Scan::channel">
<polygon fill="white" stroke="black" points="107,-38.5 107,-57.5 211,-57.5 211,-38.5 107,-38.5"/>
<text text-anchor="middle" x="159" y="-45.5" font-family="Helvetica,sans-Serif" font-size="10.00">RB14Scan::channel</text>
</a>
</g>
</g>
<!-- Node65&#45;&gt;Node66 -->
<g id="edge1" class="edge"><title>Node65&#45;&gt;Node66</title>
<path fill="none" stroke="midnightblue" d="M81.2335,-35.9954C89.578,-37.3003 98.3566,-38.673 106.876,-40.0053"/>
<polygon fill="midnightblue" stroke="midnightblue" points="81.7377,-32.5318 71.317,-34.4446 80.6562,-39.4477 81.7377,-32.5318"/>
</g>
<!-- Node67 -->
<g id="node3" class="node"><title>Node67</title>
<g id="a_node3"><a xlink:href="structRB14Scan.html#a27e90f9b6d412b04af3f9d6341607bce" target="_top" xlink:title="RB14Scan::raw">
<polygon fill="white" stroke="black" points="116,-0.5 116,-19.5 202,-19.5 202,-0.5 116,-0.5"/>
<text text-anchor="middle" x="159" y="-7.5" font-family="Helvetica,sans-Serif" font-size="10.00">RB14Scan::raw</text>
</a>
</g>
</g>
<!-- Node65&#45;&gt;Node67 -->
<g id="edge2" class="edge"><title>Node65&#45;&gt;Node67</title>
<path fill="none" stroke="midnightblue" d="M81.3972,-21.979C92.6662,-20.2168 104.718,-18.3322 115.848,-16.5917"/>
<polygon fill="midnightblue" stroke="midnightblue" points="80.6562,-18.5523 71.317,-23.5554 81.7377,-25.4682 80.6562,-18.5523"/>
</g>
</g>
</svg>
