<?xml version="1.0" encoding="UTF-8" standalone="no"?>
<!DOCTYPE svg PUBLIC "-//W3C//DTD SVG 1.1//EN"
 "http://www.w3.org/Graphics/SVG/1.1/DTD/svg11.dtd">
<!-- Generated by graphviz version 2.38.0 (20140413.2041)
 -->
<!-- Title: eVirtual_main Pages: 1 -->
<svg width="249pt" height="332pt"
 viewBox="0.00 0.00 249.00 332.00" xmlns="http://www.w3.org/2000/svg" xmlns:xlink="http://www.w3.org/1999/xlink">
<g id="graph0" class="graph" transform="scale(1 1) rotate(0) translate(4 328)">
<title>eVirtual_main</title>
<polygon fill="white" stroke="none" points="-4,4 -4,-328 245,-328 245,4 -4,4"/>
<!-- Node12 -->
<g id="node1" class="node"><title>Node12</title>
<polygon fill="#bfbfbf" stroke="black" points="0,-152.5 0,-171.5 76,-171.5 76,-152.5 0,-152.5"/>
<text text-anchor="middle" x="38" y="-159.5" font-family="Helvetica,sans-Serif" font-size="10.00">eVirtual_main</text>
</g>
<!-- Node13 -->
<g id="node2" class="node"><title>Node13</title>
<g id="a_node2"><a xlink:href="structDynamixelBoard.html#a9b6d6166eaa2c42e87f424b54edce510" target="_top" xlink:title="will force every AX12Servo to drive to AX12Servo::storedPos with AX12Servo::storedSpeed ...">
<polygon fill="white" stroke="black" points="116,-304.5 116,-323.5 237,-323.5 237,-304.5 116,-304.5"/>
<text text-anchor="middle" x="176.5" y="-311.5" font-family="Helvetica,sans-Serif" font-size="10.00">DynamixelBoard::action</text>
</a>
</g>
</g>
<!-- Node12&#45;&gt;Node13 -->
<g id="edge1" class="edge"><title>Node12&#45;&gt;Node13</title>
<path fill="none" stroke="midnightblue" d="M41.5374,-171.691C48.4568,-196.189 70.0063,-261.057 112,-295 114.265,-296.831 116.703,-298.486 119.258,-299.981"/>
<polygon fill="midnightblue" stroke="midnightblue" points="117.798,-303.164 128.311,-304.476 120.911,-296.894 117.798,-303.164"/>
</g>
<!-- Node14 -->
<g id="node3" class="node"><title>Node14</title>
<g id="a_node3"><a xlink:href="structLCD.html#aa01b7522d1e210f9cd071e3a5d4ae9e6" target="_top" xlink:title="changes the background of the display ">
<polygon fill="white" stroke="black" points="113.5,-266.5 113.5,-285.5 239.5,-285.5 239.5,-266.5 113.5,-266.5"/>
<text text-anchor="middle" x="176.5" y="-273.5" font-family="Helvetica,sans-Serif" font-size="10.00">LCD::changeBackground</text>
</a>
</g>
</g>
<!-- Node12&#45;&gt;Node14 -->
<g id="edge2" class="edge"><title>Node12&#45;&gt;Node14</title>
<path fill="none" stroke="midnightblue" d="M43.7695,-171.692C53.7257,-190.915 78.5971,-233.992 112,-257 114.883,-258.986 117.977,-260.768 121.193,-262.367"/>
<polygon fill="midnightblue" stroke="midnightblue" points="119.93,-265.634 130.497,-266.404 122.717,-259.213 119.93,-265.634"/>
</g>
<!-- Node15 -->
<g id="node4" class="node"><title>Node15</title>
<g id="a_node4"><a xlink:href="structLCD.html#ad3120f397273bac2ad60e0291554b9e6" target="_top" xlink:title="clears the LCD ">
<polygon fill="white" stroke="black" points="144.5,-228.5 144.5,-247.5 208.5,-247.5 208.5,-228.5 144.5,-228.5"/>
<text text-anchor="middle" x="176.5" y="-235.5" font-family="Helvetica,sans-Serif" font-size="10.00">LCD::clear</text>
</a>
</g>
</g>
<!-- Node12&#45;&gt;Node15 -->
<g id="edge3" class="edge"><title>Node12&#45;&gt;Node15</title>
<path fill="none" stroke="midnightblue" d="M49.0202,-171.846C62.3516,-184.441 87.1427,-206.159 112,-219 119.045,-222.639 126.898,-225.696 134.613,-228.22"/>
<polygon fill="midnightblue" stroke="midnightblue" points="133.657,-231.587 144.242,-231.136 135.686,-224.888 133.657,-231.587"/>
</g>
<!-- Node16 -->
<g id="node5" class="node"><title>Node16</title>
<g id="a_node5"><a xlink:href="structLCD.html#a0fd055c88888db0e52fea11f1df24d4a" target="_top" xlink:title="draws a bitmap representet as an array of bytes ">
<polygon fill="white" stroke="black" points="129,-190.5 129,-209.5 224,-209.5 224,-190.5 129,-190.5"/>
<text text-anchor="middle" x="176.5" y="-197.5" font-family="Helvetica,sans-Serif" font-size="10.00">LCD::drawBitmap</text>
</a>
</g>
</g>
<!-- Node12&#45;&gt;Node16 -->
<g id="edge4" class="edge"><title>Node12&#45;&gt;Node16</title>
<path fill="none" stroke="midnightblue" d="M73.4447,-171.589C90.9847,-176.472 112.51,-182.464 131.263,-187.685"/>
<polygon fill="midnightblue" stroke="midnightblue" points="130.494,-191.104 141.066,-190.414 132.371,-184.36 130.494,-191.104"/>
</g>
<!-- Node17 -->
<g id="node6" class="node"><title>Node17</title>
<g id="a_node6"><a xlink:href="structAX12Servo.html#a8027cdd101d213b8f7d2c1988fd87fcb" target="_top" xlink:title="This &quot;kind of&quot; returns the Servo&#45;Position. ">
<polygon fill="white" stroke="black" points="116,-152.5 116,-171.5 237,-171.5 237,-152.5 116,-152.5"/>
<text text-anchor="middle" x="176.5" y="-159.5" font-family="Helvetica,sans-Serif" font-size="10.00">AX12Servo::getPosition</text>
</a>
</g>
</g>
<!-- Node12&#45;&gt;Node17 -->
<g id="edge5" class="edge"><title>Node12&#45;&gt;Node17</title>
<path fill="none" stroke="midnightblue" d="M76.2992,-162C85.4755,-162 95.5988,-162 105.766,-162"/>
<polygon fill="midnightblue" stroke="midnightblue" points="105.915,-165.5 115.915,-162 105.915,-158.5 105.915,-165.5"/>
</g>
<!-- Node18 -->
<g id="node7" class="node"><title>Node18</title>
<g id="a_node7"><a xlink:href="structSoccerBoard.html#a52bcbb2cc7e2d56ee0b0deff26a45b49" target="_top" xlink:title="Say goodnight! ">
<polygon fill="white" stroke="black" points="121.5,-114.5 121.5,-133.5 231.5,-133.5 231.5,-114.5 121.5,-114.5"/>
<text text-anchor="middle" x="176.5" y="-121.5" font-family="Helvetica,sans-Serif" font-size="10.00">SoccerBoard::msleep</text>
</a>
</g>
</g>
<!-- Node12&#45;&gt;Node18 -->
<g id="edge6" class="edge"><title>Node12&#45;&gt;Node18</title>
<path fill="none" stroke="midnightblue" d="M73.4447,-152.411C90.9847,-147.528 112.51,-141.536 131.263,-136.315"/>
<polygon fill="midnightblue" stroke="midnightblue" points="132.371,-139.64 141.066,-133.586 130.494,-132.896 132.371,-139.64"/>
</g>
<!-- Node19 -->
<g id="node8" class="node"><title>Node19</title>
<g id="a_node8"><a xlink:href="structLCD.html#a21c27f0eea9a6c281ddbb06b16ef7e56" target="_top" xlink:title="prints a string to the display ">
<polygon fill="white" stroke="black" points="145.5,-76.5 145.5,-95.5 207.5,-95.5 207.5,-76.5 145.5,-76.5"/>
<text text-anchor="middle" x="176.5" y="-83.5" font-family="Helvetica,sans-Serif" font-size="10.00">LCD::print</text>
</a>
</g>
</g>
<!-- Node12&#45;&gt;Node19 -->
<g id="edge7" class="edge"><title>Node12&#45;&gt;Node19</title>
<path fill="none" stroke="midnightblue" d="M49.0202,-152.154C62.3516,-139.559 87.1427,-117.841 112,-105 119.341,-101.208 127.56,-98.0479 135.586,-95.4643"/>
<polygon fill="midnightblue" stroke="midnightblue" points="136.626,-98.8065 145.209,-92.5948 134.626,-92.0983 136.626,-98.8065"/>
</g>
<!-- Node20 -->
<g id="node9" class="node"><title>Node20</title>
<g id="a_node9"><a xlink:href="structSoccerBoard.html#a30d756751a9866cd4547b2041921463f" target="_top" xlink:title="Say goodnight! ">
<polygon fill="white" stroke="black" points="125.5,-38.5 125.5,-57.5 227.5,-57.5 227.5,-38.5 125.5,-38.5"/>
<text text-anchor="middle" x="176.5" y="-45.5" font-family="Helvetica,sans-Serif" font-size="10.00">SoccerBoard::sleep</text>
</a>
</g>
</g>
<!-- Node12&#45;&gt;Node20 -->
<g id="edge8" class="edge"><title>Node12&#45;&gt;Node20</title>
<path fill="none" stroke="midnightblue" d="M43.7695,-152.308C53.7257,-133.085 78.5971,-90.008 112,-67 114.883,-65.0142 117.977,-63.232 121.193,-61.6332"/>
<polygon fill="midnightblue" stroke="midnightblue" points="122.717,-64.7872 130.497,-57.5957 119.93,-58.3657 122.717,-64.7872"/>
</g>
<!-- Node21 -->
<g id="node10" class="node"><title>Node21</title>
<g id="a_node10"><a xlink:href="structAX12Servo.html#ab4370f84cb53a93880f58c270c290c94" target="_top" xlink:title="This saves the Servo Position. ">
<polygon fill="white" stroke="black" points="112,-0.5 112,-19.5 241,-19.5 241,-0.5 112,-0.5"/>
<text text-anchor="middle" x="176.5" y="-7.5" font-family="Helvetica,sans-Serif" font-size="10.00">AX12Servo::storePosition</text>
</a>
</g>
</g>
<!-- Node12&#45;&gt;Node21 -->
<g id="edge9" class="edge"><title>Node12&#45;&gt;Node21</title>
<path fill="none" stroke="midnightblue" d="M41.5374,-152.309C48.4568,-127.811 70.0063,-62.9432 112,-29 114.265,-27.169 116.703,-25.5143 119.258,-24.019"/>
<polygon fill="midnightblue" stroke="midnightblue" points="120.911,-27.1062 128.311,-19.5243 117.798,-20.8365 120.911,-27.1062"/>
</g>
</g>
</svg>
