<?xml version="1.0" encoding="UTF-8" standalone="no"?>
<!DOCTYPE svg PUBLIC "-//W3C//DTD SVG 1.1//EN"
 "http://www.w3.org/Graphics/SVG/1.1/DTD/svg11.dtd">
<!-- Generated by graphviz version 2.38.0 (20140413.2041)
 -->
<!-- Title: ISR Pages: 1 -->
<svg width="161pt" height="104pt"
 viewBox="0.00 0.00 161.00 104.00" xmlns="http://www.w3.org/2000/svg" xmlns:xlink="http://www.w3.org/1999/xlink">
<g id="graph0" class="graph" transform="scale(1 1) rotate(0) translate(4 100)">
<title>ISR</title>
<polygon fill="white" stroke="none" points="-4,4 -4,-100 157,-100 157,4 -4,4"/>
<!-- Node108 -->
<g id="node1" class="node"><title>Node108</title>
<polygon fill="#bfbfbf" stroke="black" points="0,-38.5 0,-57.5 34,-57.5 34,-38.5 0,-38.5"/>
<text text-anchor="middle" x="17" y="-45.5" font-family="Helvetica,sans-Serif" font-size="10.00">ISR</text>
</g>
<!-- Node109 -->
<g id="node2" class="node"><title>Node109</title>
<g id="a_node2"><a xlink:href="eBoard_8h.html#a7f830793058786f5597ddd1d80b885ae" target="_top" xlink:title="twi_releaseBus">
<polygon fill="white" stroke="black" points="70,-76.5 70,-95.5 153,-95.5 153,-76.5 70,-76.5"/>
<text text-anchor="middle" x="111.5" y="-83.5" font-family="Helvetica,sans-Serif" font-size="10.00">twi_releaseBus</text>
</a>
</g>
</g>
<!-- Node108&#45;&gt;Node109 -->
<g id="edge1" class="edge"><title>Node108&#45;&gt;Node109</title>
<path fill="none" stroke="midnightblue" d="M34.1123,-54.6191C46.1711,-59.573 63.0713,-66.5158 77.9105,-72.6119"/>
<polygon fill="midnightblue" stroke="midnightblue" points="76.7128,-75.9036 87.2927,-76.4662 79.3728,-69.4287 76.7128,-75.9036"/>
</g>
<!-- Node110 -->
<g id="node3" class="node"><title>Node110</title>
<g id="a_node3"><a xlink:href="eBoard_8h.html#a19f62ca29970133e675862b58d2f3ac3" target="_top" xlink:title="twi_reply">
<polygon fill="white" stroke="black" points="83.5,-38.5 83.5,-57.5 139.5,-57.5 139.5,-38.5 83.5,-38.5"/>
<text text-anchor="middle" x="111.5" y="-45.5" font-family="Helvetica,sans-Serif" font-size="10.00">twi_reply</text>
</a>
</g>
</g>
<!-- Node108&#45;&gt;Node110 -->
<g id="edge2" class="edge"><title>Node108&#45;&gt;Node110</title>
<path fill="none" stroke="midnightblue" d="M34.1123,-48C44.9191,-48 59.6142,-48 73.2296,-48"/>
<polygon fill="midnightblue" stroke="midnightblue" points="73.3486,-51.5001 83.3486,-48 73.3485,-44.5001 73.3486,-51.5001"/>
</g>
<!-- Node111 -->
<g id="node4" class="node"><title>Node111</title>
<g id="a_node4"><a xlink:href="eBoard_8h.html#acf52d6c93df110dee6d402b389e5042e" target="_top" xlink:title="twi_stop">
<polygon fill="white" stroke="black" points="85,-0.5 85,-19.5 138,-19.5 138,-0.5 85,-0.5"/>
<text text-anchor="middle" x="111.5" y="-7.5" font-family="Helvetica,sans-Serif" font-size="10.00">twi_stop</text>
</a>
</g>
</g>
<!-- Node108&#45;&gt;Node111 -->
<g id="edge3" class="edge"><title>Node108&#45;&gt;Node111</title>
<path fill="none" stroke="midnightblue" d="M34.1123,-41.3809C46.1711,-36.427 63.0713,-29.4842 77.9105,-23.3881"/>
<polygon fill="midnightblue" stroke="midnightblue" points="79.3728,-26.5713 87.2927,-19.5338 76.7128,-20.0964 79.3728,-26.5713"/>
</g>
</g>
</svg>
