<?xml version="1.0" encoding="UTF-8" standalone="no"?>
<!DOCTYPE svg PUBLIC "-//W3C//DTD SVG 1.1//EN"
 "http://www.w3.org/Graphics/SVG/1.1/DTD/svg11.dtd">
<!-- Generated by graphviz version 2.38.0 (20140413.2041)
 -->
<!-- Title: writePin Pages: 1 -->
<svg width="367pt" height="237pt"
 viewBox="0.00 0.00 367.00 237.00" xmlns="http://www.w3.org/2000/svg" xmlns:xlink="http://www.w3.org/1999/xlink">
<g id="graph0" class="graph" transform="scale(1 1) rotate(0) translate(4 233)">
<title>writePin</title>
<polygon fill="white" stroke="none" points="-4,4 -4,-233 363,-233 363,4 -4,4"/>
<!-- Node211 -->
<g id="node1" class="node"><title>Node211</title>
<polygon fill="#bfbfbf" stroke="black" points="0,-114.5 0,-133.5 52,-133.5 52,-114.5 0,-114.5"/>
<text text-anchor="middle" x="26" y="-121.5" font-family="Helvetica,sans-Serif" font-size="10.00">writePin</text>
</g>
<!-- Node212 -->
<g id="node2" class="node"><title>Node212</title>
<g id="a_node2"><a xlink:href="structSoccerBoard.html#a01ff8231432776da9e5e5e1c05257606" target="_top" xlink:title="SoccerBoard::led">
<polygon fill="white" stroke="black" points="100,-209.5 100,-228.5 192,-228.5 192,-209.5 100,-209.5"/>
<text text-anchor="middle" x="146" y="-216.5" font-family="Helvetica,sans-Serif" font-size="10.00">SoccerBoard::led</text>
</a>
</g>
</g>
<!-- Node211&#45;&gt;Node212 -->
<g id="edge1" class="edge"><title>Node211&#45;&gt;Node212</title>
<path fill="none" stroke="midnightblue" d="M37.3724,-142.242C48.0164,-159.428 66.0907,-184.749 88,-200 93.4792,-203.814 99.7812,-206.909 106.152,-209.405"/>
<polygon fill="midnightblue" stroke="midnightblue" points="40.3748,-140.444 32.2464,-133.648 34.3629,-144.029 40.3748,-140.444"/>
</g>
<!-- Node213 -->
<g id="node3" class="node"><title>Node213</title>
<g id="a_node3"><a xlink:href="structSoccerBoard.html#a978649a6b3089e6215da01b0f87ee3f1" target="_top" xlink:title="SoccerBoard::ledMeter">
<polygon fill="white" stroke="black" points="88,-171.5 88,-190.5 204,-190.5 204,-171.5 88,-171.5"/>
<text text-anchor="middle" x="146" y="-178.5" font-family="Helvetica,sans-Serif" font-size="10.00">SoccerBoard::ledMeter</text>
</a>
</g>
</g>
<!-- Node211&#45;&gt;Node213 -->
<g id="edge2" class="edge"><title>Node211&#45;&gt;Node213</title>
<path fill="none" stroke="midnightblue" d="M48.9009,-139.398C60.2147,-146.892 74.4571,-155.634 88,-162 95.5521,-165.55 103.95,-168.737 111.929,-171.441"/>
<polygon fill="midnightblue" stroke="midnightblue" points="50.7669,-136.434 40.5246,-133.724 46.8414,-142.23 50.7669,-136.434"/>
</g>
<!-- Node214 -->
<g id="node4" class="node"><title>Node214</title>
<g id="a_node4"><a xlink:href="structSoccerBoard.html#af358ec89f0eab4a87b00959dc54f3e16" target="_top" xlink:title="SoccerBoard::ledOff">
<polygon fill="white" stroke="black" points="93.5,-133.5 93.5,-152.5 198.5,-152.5 198.5,-133.5 93.5,-133.5"/>
<text text-anchor="middle" x="146" y="-140.5" font-family="Helvetica,sans-Serif" font-size="10.00">SoccerBoard::ledOff</text>
</a>
</g>
</g>
<!-- Node211&#45;&gt;Node214 -->
<g id="edge3" class="edge"><title>Node211&#45;&gt;Node214</title>
<path fill="none" stroke="midnightblue" d="M62.1625,-129.662C71.9448,-131.237 82.7781,-132.981 93.2971,-134.675"/>
<polygon fill="midnightblue" stroke="midnightblue" points="62.454,-126.164 52.0248,-128.029 61.3412,-133.075 62.454,-126.164"/>
</g>
<!-- Node215 -->
<g id="node5" class="node"><title>Node215</title>
<g id="a_node5"><a xlink:href="structSoccerBoard.html#abaefeaaf5c0ea659dce35903284ee577" target="_top" xlink:title="SoccerBoard::ledOn">
<polygon fill="white" stroke="black" points="94,-95.5 94,-114.5 198,-114.5 198,-95.5 94,-95.5"/>
<text text-anchor="middle" x="146" y="-102.5" font-family="Helvetica,sans-Serif" font-size="10.00">SoccerBoard::ledOn</text>
</a>
</g>
</g>
<!-- Node211&#45;&gt;Node215 -->
<g id="edge4" class="edge"><title>Node211&#45;&gt;Node215</title>
<path fill="none" stroke="midnightblue" d="M61.9662,-118.37C71.9492,-116.762 83.0395,-114.977 93.7797,-113.247"/>
<polygon fill="midnightblue" stroke="midnightblue" points="61.3412,-114.925 52.0248,-119.971 62.454,-121.836 61.3412,-114.925"/>
</g>
<!-- Node216 -->
<g id="node6" class="node"><title>Node216</title>
<g id="a_node6"><a xlink:href="structSoccerBoard.html#a80d7f7690654433e3253f6924eb1164d" target="_top" xlink:title="SoccerBoard::ledsOff">
<polygon fill="white" stroke="black" points="91,-57.5 91,-76.5 201,-76.5 201,-57.5 91,-57.5"/>
<text text-anchor="middle" x="146" y="-64.5" font-family="Helvetica,sans-Serif" font-size="10.00">SoccerBoard::ledsOff</text>
</a>
</g>
</g>
<!-- Node211&#45;&gt;Node216 -->
<g id="edge5" class="edge"><title>Node211&#45;&gt;Node216</title>
<path fill="none" stroke="midnightblue" d="M48.9009,-108.602C60.2147,-101.108 74.4571,-92.3664 88,-86 95.5521,-82.4498 103.95,-79.263 111.929,-76.5592"/>
<polygon fill="midnightblue" stroke="midnightblue" points="46.8414,-105.77 40.5246,-114.276 50.7669,-111.566 46.8414,-105.77"/>
</g>
<!-- Node217 -->
<g id="node7" class="node"><title>Node217</title>
<g id="a_node7"><a xlink:href="structSoccerBoard.html#a04c6b8fd4b6d1cd24be9c1b3291dbf06" target="_top" xlink:title="SoccerBoard::power">
<polygon fill="white" stroke="black" points="93.5,-19.5 93.5,-38.5 198.5,-38.5 198.5,-19.5 93.5,-19.5"/>
<text text-anchor="middle" x="146" y="-26.5" font-family="Helvetica,sans-Serif" font-size="10.00">SoccerBoard::power</text>
</a>
</g>
</g>
<!-- Node211&#45;&gt;Node217 -->
<g id="edge6" class="edge"><title>Node211&#45;&gt;Node217</title>
<path fill="none" stroke="midnightblue" d="M37.3724,-105.758C48.0164,-88.5725 66.0907,-63.251 88,-48 93.4792,-44.186 99.7812,-41.0915 106.152,-38.5951"/>
<polygon fill="midnightblue" stroke="midnightblue" points="34.3629,-103.971 32.2464,-114.352 40.3748,-107.556 34.3629,-103.971"/>
</g>
<!-- Node218 -->
<g id="node8" class="node"><title>Node218</title>
<g id="a_node8"><a xlink:href="structSoccerBoard.html#aa46822d5b727bf3e427c5ceba995f42f" target="_top" xlink:title="SoccerBoard::powerOn">
<polygon fill="white" stroke="black" points="240.5,-38.5 240.5,-57.5 358.5,-57.5 358.5,-38.5 240.5,-38.5"/>
<text text-anchor="middle" x="299.5" y="-45.5" font-family="Helvetica,sans-Serif" font-size="10.00">SoccerBoard::powerOn</text>
</a>
</g>
</g>
<!-- Node217&#45;&gt;Node218 -->
<g id="edge7" class="edge"><title>Node217&#45;&gt;Node218</title>
<path fill="none" stroke="midnightblue" d="M208.922,-36.7658C219.279,-38.0647 229.994,-39.4084 240.255,-40.6953"/>
<polygon fill="midnightblue" stroke="midnightblue" points="209.072,-33.2572 198.714,-35.4856 208.201,-40.2028 209.072,-33.2572"/>
</g>
<!-- Node219 -->
<g id="node9" class="node"><title>Node219</title>
<g id="a_node9"><a xlink:href="structSoccerBoard.html#a5442e3a7ca58ed90d9e4af0cac83ebdd" target="_top" xlink:title="SoccerBoard::powerOff">
<polygon fill="white" stroke="black" points="240,-0.5 240,-19.5 359,-19.5 359,-0.5 240,-0.5"/>
<text text-anchor="middle" x="299.5" y="-7.5" font-family="Helvetica,sans-Serif" font-size="10.00">SoccerBoard::powerOff</text>
</a>
</g>
</g>
<!-- Node217&#45;&gt;Node219 -->
<g id="edge8" class="edge"><title>Node217&#45;&gt;Node219</title>
<path fill="none" stroke="midnightblue" d="M208.856,-21.2425C219.145,-19.9521 229.789,-18.6173 239.991,-17.3377"/>
<polygon fill="midnightblue" stroke="midnightblue" points="208.201,-17.7972 198.714,-22.5144 209.072,-24.7428 208.201,-17.7972"/>
</g>
</g>
</svg>
