<?xml version="1.0" encoding="UTF-8" standalone="no"?>
<!DOCTYPE svg PUBLIC "-//W3C//DTD SVG 1.1//EN"
 "http://www.w3.org/Graphics/SVG/1.1/DTD/svg11.dtd">
<!-- Generated by graphviz version 2.38.0 (20140413.2041)
 -->
<!-- Title: writeVal Pages: 1 -->
<svg width="398pt" height="102pt"
 viewBox="0.00 0.00 398.00 101.50" xmlns="http://www.w3.org/2000/svg" xmlns:xlink="http://www.w3.org/1999/xlink">
<g id="graph0" class="graph" transform="scale(1 1) rotate(0) translate(4 97.5)">
<title>writeVal</title>
<polygon fill="white" stroke="none" points="-4,4 -4,-97.5 394,-97.5 394,4 -4,4"/>
<!-- Node313 -->
<g id="node1" class="node"><title>Node313</title>
<polygon fill="#bfbfbf" stroke="black" points="0,-52 0,-71 52,-71 52,-52 0,-52"/>
<text text-anchor="middle" x="26" y="-59" font-family="Helvetica,sans-Serif" font-size="10.00">writeVal</text>
</g>
<!-- Node314 -->
<g id="node2" class="node"><title>Node314</title>
<g id="a_node2"><a xlink:href="eBoard_8h.html#acb51742a61b072bb500b6e0713d7dc2c" target="_top" xlink:title="_serial">
<polygon fill="white" stroke="black" points="132,-74 132,-93 177,-93 177,-74 132,-74"/>
<text text-anchor="middle" x="154.5" y="-81" font-family="Helvetica,sans-Serif" font-size="10.00">_serial</text>
</a>
</g>
</g>
<!-- Node313&#45;&gt;Node314 -->
<g id="edge1" class="edge"><title>Node313&#45;&gt;Node314</title>
<path fill="none" stroke="midnightblue" d="M52.2951,-65.8992C72.2469,-69.369 100.195,-74.2295 121.667,-77.9638"/>
<polygon fill="midnightblue" stroke="midnightblue" points="121.173,-81.4303 131.624,-79.6956 122.372,-74.5338 121.173,-81.4303"/>
</g>
<!-- Node315 -->
<g id="node3" class="node"><title>Node315</title>
<g id="a_node3"><a xlink:href="classeagle__impl_1_1SoftwareSerial.html#ac24e5c6af203ec636c0a200b0cb3caf0" target="_top" xlink:title="eagle_impl::SoftwareSerial\l::write">
<polygon fill="white" stroke="black" points="88,-24.5 88,-54.5 221,-54.5 221,-24.5 88,-24.5"/>
<text text-anchor="start" x="96" y="-42.5" font-family="Helvetica,sans-Serif" font-size="10.00">eagle_impl::SoftwareSerial</text>
<text text-anchor="middle" x="154.5" y="-31.5" font-family="Helvetica,sans-Serif" font-size="10.00">::write</text>
</a>
</g>
</g>
<!-- Node313&#45;&gt;Node315 -->
<g id="edge2" class="edge"><title>Node313&#45;&gt;Node315</title>
<path fill="none" stroke="midnightblue" d="M52.2951,-57.1008C59.9199,-55.7748 68.7123,-54.2457 77.8649,-52.6539"/>
<polygon fill="midnightblue" stroke="midnightblue" points="78.6471,-56.0705 87.8995,-50.9088 77.4476,-49.174 78.6471,-56.0705"/>
</g>
<!-- Node316 -->
<g id="node4" class="node"><title>Node316</title>
<g id="a_node4"><a xlink:href="classeagle__impl_1_1SoftwareSerial.html#a4fcb85cb384df8030835af3e8cafae71" target="_top" xlink:title="eagle_impl::SoftwareSerial\l::tx_pin_write">
<polygon fill="white" stroke="black" points="257,-49.5 257,-79.5 390,-79.5 390,-49.5 257,-49.5"/>
<text text-anchor="start" x="265" y="-67.5" font-family="Helvetica,sans-Serif" font-size="10.00">eagle_impl::SoftwareSerial</text>
<text text-anchor="middle" x="323.5" y="-56.5" font-family="Helvetica,sans-Serif" font-size="10.00">::tx_pin_write</text>
</a>
</g>
</g>
<!-- Node315&#45;&gt;Node316 -->
<g id="edge3" class="edge"><title>Node315&#45;&gt;Node316</title>
<path fill="none" stroke="midnightblue" d="M221.024,-49.3089C229.496,-50.5773 238.228,-51.8844 246.847,-53.1747"/>
<polygon fill="midnightblue" stroke="midnightblue" points="246.483,-56.6592 256.891,-54.6783 247.52,-49.7363 246.483,-56.6592"/>
</g>
<!-- Node317 -->
<g id="node5" class="node"><title>Node317</title>
<g id="a_node5"><a xlink:href="classeagle__impl_1_1SoftwareSerial.html#a1dc4448e5fdf2516f47439fb4f62f4be" target="_top" xlink:title="eagle_impl::SoftwareSerial\l::tunedDelay">
<polygon fill="white" stroke="black" points="257,-0.5 257,-30.5 390,-30.5 390,-0.5 257,-0.5"/>
<text text-anchor="start" x="265" y="-18.5" font-family="Helvetica,sans-Serif" font-size="10.00">eagle_impl::SoftwareSerial</text>
<text text-anchor="middle" x="323.5" y="-7.5" font-family="Helvetica,sans-Serif" font-size="10.00">::tunedDelay</text>
</a>
</g>
</g>
<!-- Node315&#45;&gt;Node317 -->
<g id="edge4" class="edge"><title>Node315&#45;&gt;Node317</title>
<path fill="none" stroke="midnightblue" d="M221.024,-30.0834C229.496,-28.8658 238.228,-27.611 246.847,-26.3723"/>
<polygon fill="midnightblue" stroke="midnightblue" points="247.491,-29.8158 256.891,-24.9288 246.495,-22.887 247.491,-29.8158"/>
</g>
</g>
</svg>
