<?xml version="1.0" encoding="UTF-8" standalone="no"?>
<!DOCTYPE svg PUBLIC "-//W3C//DTD SVG 1.1//EN"
 "http://www.w3.org/Graphics/SVG/1.1/DTD/svg11.dtd">
<!-- Generated by graphviz version 2.40.1 (20161225.0304)
 -->
<!-- Title: eBoard/eBoard.h Pages: 1 -->
<svg width="3814pt" height="151pt"
 viewBox="0.00 0.00 3813.50 151.00" xmlns="http://www.w3.org/2000/svg" xmlns:xlink="http://www.w3.org/1999/xlink">
<g id="graph0" class="graph" transform="scale(1 1) rotate(0) translate(4 147)">
<title>eBoard/eBoard.h</title>
<polygon fill="#ffffff" stroke="transparent" points="-4,4 -4,-147 3809.5,-147 3809.5,4 -4,4"/>
<!-- Node0 -->
<g id="node1" class="node">
<title>Node0</title>
<polygon fill="#bfbfbf" stroke="#000000" points="1675,-123.5 1675,-142.5 1810,-142.5 1810,-123.5 1675,-123.5"/>
<text text-anchor="middle" x="1742.5" y="-130.5" font-family="Helvetica,sans-Serif" font-size="10.00" fill="#000000">eBoard/eBoard.h</text>
</g>
<!-- Node1 -->
<g id="node2" class="node">
<title>Node1</title>
<g id="a_node2"><a xlink:href="eagle__PreprocessorControl_8h.html" target="_top" xlink:title="this file contains cool stuff never seen by the Arduino :/ ">
<polygon fill="#ffffff" stroke="#000000" points="0,-56.5 0,-86.5 135,-86.5 135,-56.5 0,-56.5"/>
<text text-anchor="start" x="8" y="-74.5" font-family="Helvetica,sans-Serif" font-size="10.00" fill="#000000">source/eagle_Preprocessor</text>
<text text-anchor="middle" x="67.5" y="-63.5" font-family="Helvetica,sans-Serif" font-size="10.00" fill="#000000">Control.h</text>
</a>
</g>
</g>
<!-- Node0&#45;&gt;Node1 -->
<g id="edge1" class="edge">
<title>Node0&#45;&gt;Node1</title>
<path fill="none" stroke="#191970" d="M1674.5799,-132.582C1412.8171,-130.7351 468.419,-121.8353 145.3075,-86.9097"/>
<polygon fill="#191970" stroke="#191970" points="145.329,-83.3906 135.0032,-85.7628 144.5545,-90.3476 145.329,-83.3906"/>
</g>
<!-- Node2 -->
<g id="node3" class="node">
<title>Node2</title>
<polygon fill="#ffffff" stroke="#bfbfbf" points="153.5,-62 153.5,-81 239.5,-81 239.5,-62 153.5,-62"/>
<text text-anchor="middle" x="196.5" y="-69" font-family="Helvetica,sans-Serif" font-size="10.00" fill="#000000">avr/pgmspace.h</text>
</g>
<!-- Node0&#45;&gt;Node2 -->
<g id="edge2" class="edge">
<title>Node0&#45;&gt;Node2</title>
<path fill="none" stroke="#191970" d="M1674.7588,-131.9458C1401.7549,-127.5566 390.116,-109.8882 248.5,-87 243.6409,-86.2147 238.5992,-85.1042 233.6517,-83.8341"/>
<polygon fill="#191970" stroke="#191970" points="234.2907,-80.3786 223.7175,-81.0557 232.4052,-87.1199 234.2907,-80.3786"/>
</g>
<!-- Node3 -->
<g id="node4" class="node">
<title>Node3</title>
<polygon fill="#ffffff" stroke="#bfbfbf" points="257.5,-62 257.5,-81 315.5,-81 315.5,-62 257.5,-62"/>
<text text-anchor="middle" x="286.5" y="-69" font-family="Helvetica,sans-Serif" font-size="10.00" fill="#000000">Arduino.h</text>
</g>
<!-- Node0&#45;&gt;Node3 -->
<g id="edge3" class="edge">
<title>Node0&#45;&gt;Node3</title>
<path fill="none" stroke="#191970" d="M1674.574,-132.2067C1410.0762,-128.9251 457.0736,-115.2378 324.5,-87 321.6254,-86.3877 318.6906,-85.5703 315.7896,-84.6298"/>
<polygon fill="#191970" stroke="#191970" points="316.7865,-81.2668 306.1933,-81.077 314.3561,-87.8313 316.7865,-81.2668"/>
</g>
<!-- Node4 -->
<g id="node5" class="node">
<title>Node4</title>
<polygon fill="#ffffff" stroke="#bfbfbf" points="334,-62 334,-81 383,-81 383,-62 334,-62"/>
<text text-anchor="middle" x="358.5" y="-69" font-family="Helvetica,sans-Serif" font-size="10.00" fill="#000000">avr/io.h</text>
</g>
<!-- Node0&#45;&gt;Node4 -->
<g id="edge4" class="edge">
<title>Node0&#45;&gt;Node4</title>
<path fill="none" stroke="#191970" d="M1674.7008,-132.2922C1418.3606,-129.397 516.5535,-117.149 391.5,-87 389.3002,-86.4696 387.0712,-85.7851 384.8641,-84.9999"/>
<polygon fill="#191970" stroke="#191970" points="386.0626,-81.7074 375.4865,-81.0779 383.3617,-88.1654 386.0626,-81.7074"/>
</g>
<!-- Node5 -->
<g id="node6" class="node">
<title>Node5</title>
<polygon fill="#ffffff" stroke="#bfbfbf" points="401,-62 401,-81 478,-81 478,-62 401,-62"/>
<text text-anchor="middle" x="439.5" y="-69" font-family="Helvetica,sans-Serif" font-size="10.00" fill="#000000">avr/interrupt.h</text>
</g>
<!-- Node0&#45;&gt;Node5 -->
<g id="edge5" class="edge">
<title>Node0&#45;&gt;Node5</title>
<path fill="none" stroke="#191970" d="M1674.5904,-131.6314C1430.1492,-126.5512 603.4156,-107.9831 486.5,-87 482.3138,-86.2487 477.9893,-85.2084 473.7365,-84.019"/>
<polygon fill="#191970" stroke="#191970" points="474.629,-80.6318 464.042,-81.0389 472.5721,-87.3228 474.629,-80.6318"/>
</g>
<!-- Node6 -->
<g id="node7" class="node">
<title>Node6</title>
<g id="a_node7"><a xlink:href="eagle__Twi_8h.html" target="_top" xlink:title="this file contains the Twi class ">
<polygon fill="#ffffff" stroke="#000000" points="496,-62 496,-81 597,-81 597,-62 496,-62"/>
<text text-anchor="middle" x="546.5" y="-69" font-family="Helvetica,sans-Serif" font-size="10.00" fill="#000000">source/eagle_Twi.h</text>
</a>
</g>
</g>
<!-- Node0&#45;&gt;Node6 -->
<g id="edge6" class="edge">
<title>Node0&#45;&gt;Node6</title>
<path fill="none" stroke="#191970" d="M1674.652,-132.1803C1462.5189,-129.3142 813.5776,-118.165 605.5,-87 599.6625,-86.1257 593.5703,-84.8974 587.6109,-83.5107"/>
<polygon fill="#191970" stroke="#191970" points="588.325,-80.0817 577.7756,-81.0619 586.6337,-86.8743 588.325,-80.0817"/>
</g>
<!-- Node8 -->
<g id="node9" class="node">
<title>Node8</title>
<g id="a_node9"><a xlink:href="eagle__TwoWire_8h.html" target="_top" xlink:title="this file contains the TwoWire class ">
<polygon fill="#ffffff" stroke="#000000" points="615,-62 615,-81 740,-81 740,-62 615,-62"/>
<text text-anchor="middle" x="677.5" y="-69" font-family="Helvetica,sans-Serif" font-size="10.00" fill="#000000">source/eagle_TwoWire.h</text>
</a>
</g>
</g>
<!-- Node0&#45;&gt;Node8 -->
<g id="edge8" class="edge">
<title>Node0&#45;&gt;Node8</title>
<path fill="none" stroke="#191970" d="M1674.8987,-131.33C1481.6237,-126.3232 929.0932,-110.3273 749.5,-87 741.9178,-86.0152 733.9494,-84.6447 726.1889,-83.1225"/>
<polygon fill="#191970" stroke="#191970" points="726.6575,-79.6456 716.1566,-81.0537 725.2437,-86.5013 726.6575,-79.6456"/>
</g>
<!-- Node12 -->
<g id="node13" class="node">
<title>Node12</title>
<g id="a_node13"><a xlink:href="eagle__SPI_8h.html" target="_top" xlink:title="this file contains the SPI class ">
<polygon fill="#ffffff" stroke="#000000" points="758.5,-62 758.5,-81 860.5,-81 860.5,-62 758.5,-62"/>
<text text-anchor="middle" x="809.5" y="-69" font-family="Helvetica,sans-Serif" font-size="10.00" fill="#000000">source/eagle_SPI.h</text>
</a>
</g>
</g>
<!-- Node0&#45;&gt;Node12 -->
<g id="edge13" class="edge">
<title>Node0&#45;&gt;Node12</title>
<path fill="none" stroke="#191970" d="M1674.897,-131.1887C1498.0025,-126.1686 1024.4751,-110.8543 869.5,-87 863.6417,-86.0983 857.5259,-84.8668 851.535,-83.4892"/>
<polygon fill="#191970" stroke="#191970" points="852.1833,-80.0446 841.6378,-81.0654 850.5182,-86.8437 852.1833,-80.0446"/>
</g>
<!-- Node14 -->
<g id="node15" class="node">
<title>Node14</title>
<polygon fill="#ffffff" stroke="#bfbfbf" points="879,-62 879,-81 936,-81 936,-62 879,-62"/>
<text text-anchor="middle" x="907.5" y="-69" font-family="Helvetica,sans-Serif" font-size="10.00" fill="#000000">avr/wdt.h</text>
</g>
<!-- Node0&#45;&gt;Node14 -->
<g id="edge15" class="edge">
<title>Node0&#45;&gt;Node14</title>
<path fill="none" stroke="#191970" d="M1674.783,-132.0333C1508.306,-129.1852 1082.5802,-118.9149 944.5,-87 941.8557,-86.3888 939.1592,-85.6046 936.4875,-84.7141"/>
<polygon fill="#191970" stroke="#191970" points="937.65,-81.4118 927.0585,-81.1432 935.1708,-87.9581 937.65,-81.4118"/>
</g>
<!-- Node15 -->
<g id="node16" class="node">
<title>Node15</title>
<g id="a_node16"><a xlink:href="eagle__SoftwareSerial_8h.html" target="_top" xlink:title="this file contains the SoftwareSerial class ">
<polygon fill="#ffffff" stroke="#000000" points="954,-62 954,-81 1103,-81 1103,-62 954,-62"/>
<text text-anchor="middle" x="1028.5" y="-69" font-family="Helvetica,sans-Serif" font-size="10.00" fill="#000000">source/eagle_SoftwareSerial.h</text>
</a>
</g>
</g>
<!-- Node0&#45;&gt;Node15 -->
<g id="edge16" class="edge">
<title>Node0&#45;&gt;Node15</title>
<path fill="none" stroke="#191970" d="M1674.5496,-130.5404C1558.6487,-125.7883 1315.4732,-113.3964 1111.5,-87 1102.7331,-85.8655 1093.4909,-84.4053 1084.4836,-82.836"/>
<polygon fill="#191970" stroke="#191970" points="1084.914,-79.3572 1074.4519,-81.0292 1083.6732,-86.2464 1084.914,-79.3572"/>
</g>
<!-- Node16 -->
<g id="node17" class="node">
<title>Node16</title>
<g id="a_node17"><a xlink:href="eagle__Bluetooth_8h.html" target="_top" xlink:title="this file contains cool stuff to access the bluetooth interface ">
<polygon fill="#ffffff" stroke="#000000" points="1121,-62 1121,-81 1248,-81 1248,-62 1121,-62"/>
<text text-anchor="middle" x="1184.5" y="-69" font-family="Helvetica,sans-Serif" font-size="10.00" fill="#000000">source/eagle_Bluetooth.h</text>
</a>
</g>
</g>
<!-- Node0&#45;&gt;Node16 -->
<g id="edge17" class="edge">
<title>Node0&#45;&gt;Node16</title>
<path fill="none" stroke="#191970" d="M1674.9727,-129.1274C1580.8253,-123.1564 1404.9635,-109.9251 1256.5,-87 1249.3761,-85.9 1241.8982,-84.5327 1234.5676,-83.0694"/>
<polygon fill="#191970" stroke="#191970" points="1235.2115,-79.6285 1224.7098,-81.0303 1233.7935,-86.4834 1235.2115,-79.6285"/>
</g>
<!-- Node17 -->
<g id="node18" class="node">
<title>Node17</title>
<g id="a_node18"><a xlink:href="eagle__RB14Scan_8h.html" target="_top" xlink:title="this file contains the RB14Scan class ">
<polygon fill="#ffffff" stroke="#000000" points="1266,-62 1266,-81 1399,-81 1399,-62 1266,-62"/>
<text text-anchor="middle" x="1332.5" y="-69" font-family="Helvetica,sans-Serif" font-size="10.00" fill="#000000">source/eagle_RB14Scan.h</text>
</a>
</g>
</g>
<!-- Node0&#45;&gt;Node17 -->
<g id="edge18" class="edge">
<title>Node0&#45;&gt;Node17</title>
<path fill="none" stroke="#191970" d="M1674.9215,-125.0768C1607.1158,-116.8085 1499.7834,-102.8533 1407.5,-87 1400.6327,-85.8203 1393.434,-84.474 1386.3273,-83.0788"/>
<polygon fill="#191970" stroke="#191970" points="1386.5236,-79.5485 1376.0305,-81.0133 1385.1469,-86.4118 1386.5236,-79.5485"/>
</g>
<!-- Node18 -->
<g id="node19" class="node">
<title>Node18</title>
<g id="a_node19"><a xlink:href="eagle__Comfort_8h.html" target="_top" xlink:title="this file contains sine8 and gamma8 ">
<polygon fill="#ffffff" stroke="#000000" points="1417,-62 1417,-81 1538,-81 1538,-62 1417,-62"/>
<text text-anchor="middle" x="1477.5" y="-69" font-family="Helvetica,sans-Serif" font-size="10.00" fill="#000000">source/eagle_Comfort.h</text>
</a>
</g>
</g>
<!-- Node0&#45;&gt;Node18 -->
<g id="edge19" class="edge">
<title>Node0&#45;&gt;Node18</title>
<path fill="none" stroke="#191970" d="M1701.3845,-123.4581C1654.8698,-112.6632 1579.0592,-95.0694 1528.7327,-83.3899"/>
<polygon fill="#191970" stroke="#191970" points="1529.2443,-79.9156 1518.7119,-81.0643 1527.6618,-86.7344 1529.2443,-79.9156"/>
</g>
<!-- Node19 -->
<g id="node20" class="node">
<title>Node19</title>
<g id="a_node20"><a xlink:href="eagle__Servo_8h.html" target="_top" xlink:title="this file contains the Servo class ">
<polygon fill="#ffffff" stroke="#000000" points="1556,-62 1556,-81 1667,-81 1667,-62 1556,-62"/>
<text text-anchor="middle" x="1611.5" y="-69" font-family="Helvetica,sans-Serif" font-size="10.00" fill="#000000">source/eagle_Servo.h</text>
</a>
</g>
</g>
<!-- Node0&#45;&gt;Node19 -->
<g id="edge20" class="edge">
<title>Node0&#45;&gt;Node19</title>
<path fill="none" stroke="#191970" d="M1722.0313,-123.3906C1700.3048,-113.1908 1665.7665,-96.9763 1641.0815,-85.3875"/>
<polygon fill="#191970" stroke="#191970" points="1642.3645,-82.1234 1631.825,-81.0419 1639.3897,-88.4598 1642.3645,-82.1234"/>
</g>
<!-- Node20 -->
<g id="node21" class="node">
<title>Node20</title>
<g id="a_node21"><a xlink:href="eagle__Assert_8h.html" target="_top" xlink:title="this file contains the assert wrapper for EBOARD_DEBUG_MODE ">
<polygon fill="#ffffff" stroke="#000000" points="1685.5,-62 1685.5,-81 1799.5,-81 1799.5,-62 1685.5,-62"/>
<text text-anchor="middle" x="1742.5" y="-69" font-family="Helvetica,sans-Serif" font-size="10.00" fill="#000000">source/eagle_Assert.h</text>
</a>
</g>
</g>
<!-- Node0&#45;&gt;Node20 -->
<g id="edge21" class="edge">
<title>Node0&#45;&gt;Node20</title>
<path fill="none" stroke="#191970" d="M1742.5,-123.3906C1742.5,-114.8657 1742.5,-102.1392 1742.5,-91.4235"/>
<polygon fill="#191970" stroke="#191970" points="1746.0001,-91.2448 1742.5,-81.2449 1739.0001,-91.2449 1746.0001,-91.2448"/>
</g>
<!-- Node22 -->
<g id="node23" class="node">
<title>Node22</title>
<g id="a_node23"><a xlink:href="eagle__Checks_8h.html" target="_top" xlink:title="this file contains various checkers like checkIdx ">
<polygon fill="#ffffff" stroke="#000000" points="1818,-62 1818,-81 1937,-81 1937,-62 1818,-62"/>
<text text-anchor="middle" x="1877.5" y="-69" font-family="Helvetica,sans-Serif" font-size="10.00" fill="#000000">source/eagle_Checks.h</text>
</a>
</g>
</g>
<!-- Node0&#45;&gt;Node22 -->
<g id="edge23" class="edge">
<title>Node0&#45;&gt;Node22</title>
<path fill="none" stroke="#191970" d="M1763.5938,-123.3906C1786.0827,-113.1457 1821.8918,-96.8326 1847.3524,-85.2339"/>
<polygon fill="#191970" stroke="#191970" points="1848.9052,-88.3727 1856.5544,-81.0419 1846.0032,-82.0025 1848.9052,-88.3727"/>
</g>
<!-- Node23 -->
<g id="node24" class="node">
<title>Node23</title>
<g id="a_node24"><a xlink:href="eagle__ShiftExt_8h.html" target="_top" xlink:title="this file contains the cool shift&#45;EXTension ">
<polygon fill="#ffffff" stroke="#000000" points="1955,-62 1955,-81 2076,-81 2076,-62 1955,-62"/>
<text text-anchor="middle" x="2015.5" y="-69" font-family="Helvetica,sans-Serif" font-size="10.00" fill="#000000">source/eagle_ShiftExt.h</text>
</a>
</g>
</g>
<!-- Node0&#45;&gt;Node23 -->
<g id="edge24" class="edge">
<title>Node0&#45;&gt;Node23</title>
<path fill="none" stroke="#191970" d="M1784.8567,-123.4581C1832.8757,-112.6406 1911.201,-94.9959 1963.045,-83.3168"/>
<polygon fill="#191970" stroke="#191970" points="1964.0576,-86.6765 1973.0439,-81.0643 1962.5192,-79.8476 1964.0576,-86.6765"/>
</g>
<!-- Node24 -->
<g id="node25" class="node">
<title>Node24</title>
<g id="a_node25"><a xlink:href="eagle__PinCtrl_8h.html" target="_top" xlink:title="this file contains cool stuff... it controls pins ">
<polygon fill="#ffffff" stroke="#000000" points="2094.5,-62 2094.5,-81 2210.5,-81 2210.5,-62 2094.5,-62"/>
<text text-anchor="middle" x="2152.5" y="-69" font-family="Helvetica,sans-Serif" font-size="10.00" fill="#000000">source/eagle_PinCtrl.h</text>
</a>
</g>
</g>
<!-- Node0&#45;&gt;Node24 -->
<g id="edge25" class="edge">
<title>Node0&#45;&gt;Node24</title>
<path fill="none" stroke="#191970" d="M1810.1558,-125.8286C1879.5518,-118.0278 1990.4847,-104.3222 2085.5,-87 2091.5893,-85.8899 2097.9601,-84.5937 2104.2486,-83.2323"/>
<polygon fill="#191970" stroke="#191970" points="2105.0114,-86.6483 2114.0106,-81.0568 2103.4887,-79.8159 2105.0114,-86.6483"/>
</g>
<!-- Node25 -->
<g id="node26" class="node">
<title>Node25</title>
<g id="a_node26"><a xlink:href="eagle__ServoCds55_8h.html" target="_top" xlink:title="this file contains the ServoCds55 class ">
<polygon fill="#ffffff" stroke="#000000" points="2228.5,-62 2228.5,-81 2368.5,-81 2368.5,-62 2228.5,-62"/>
<text text-anchor="middle" x="2298.5" y="-69" font-family="Helvetica,sans-Serif" font-size="10.00" fill="#000000">source/eagle_ServoCds55.h</text>
</a>
</g>
</g>
<!-- Node0&#45;&gt;Node25 -->
<g id="edge26" class="edge">
<title>Node0&#45;&gt;Node25</title>
<path fill="none" stroke="#191970" d="M1810.2889,-128.5549C1903,-121.9994 2074.4034,-108.1788 2219.5,-87 2227.4643,-85.8375 2235.8429,-84.4137 2244.0465,-82.905"/>
<polygon fill="#191970" stroke="#191970" points="2244.7523,-86.3336 2253.9267,-81.0344 2243.4501,-79.4558 2244.7523,-86.3336"/>
</g>
<!-- Node26 -->
<g id="node27" class="node">
<title>Node26</title>
<g id="a_node27"><a xlink:href="eagle__SoccerBoard_8h.html" target="_top" xlink:title="this file contains the SoccerBoard class ">
<polygon fill="#ffffff" stroke="#000000" points="2386.5,-62 2386.5,-81 2528.5,-81 2528.5,-62 2386.5,-62"/>
<text text-anchor="middle" x="2457.5" y="-69" font-family="Helvetica,sans-Serif" font-size="10.00" fill="#000000">source/eagle_SoccerBoard.h</text>
</a>
</g>
</g>
<!-- Node0&#45;&gt;Node26 -->
<g id="edge27" class="edge">
<title>Node0&#45;&gt;Node26</title>
<path fill="none" stroke="#191970" d="M1810.4344,-130.7342C1926.9123,-126.2571 2172.0514,-114.2458 2377.5,-87 2385.8664,-85.8905 2394.6779,-84.4564 2403.2726,-82.9092"/>
<polygon fill="#191970" stroke="#191970" points="2404.034,-86.3276 2413.2229,-81.0536 2402.7507,-79.4462 2404.034,-86.3276"/>
</g>
<!-- Node27 -->
<g id="node28" class="node">
<title>Node27</title>
<g id="a_node28"><a xlink:href="eagle__I2CInOut_8h.html" target="_top" xlink:title="this file contains the I2CInOut class ">
<polygon fill="#ffffff" stroke="#000000" points="2547,-62 2547,-81 2672,-81 2672,-62 2547,-62"/>
<text text-anchor="middle" x="2609.5" y="-69" font-family="Helvetica,sans-Serif" font-size="10.00" fill="#000000">source/eagle_I2CInOut.h</text>
</a>
</g>
</g>
<!-- Node0&#45;&gt;Node27 -->
<g id="edge28" class="edge">
<title>Node0&#45;&gt;Node27</title>
<path fill="none" stroke="#191970" d="M1810.2826,-130.4251C1975.8998,-123.9163 2397.7648,-105.9682 2537.5,-87 2544.9883,-85.9835 2552.8565,-84.6102 2560.5301,-83.0991"/>
<polygon fill="#191970" stroke="#191970" points="2561.3707,-86.4995 2570.4575,-81.0515 2559.9566,-79.6438 2561.3707,-86.4995"/>
</g>
<!-- Node28 -->
<g id="node29" class="node">
<title>Node28</title>
<g id="a_node29"><a xlink:href="eagle__AX12Servo_8h.html" target="_top" xlink:title="this file contains the AX12Servo class ">
<polygon fill="#ffffff" stroke="#000000" points="2690,-62 2690,-81 2825,-81 2825,-62 2690,-62"/>
<text text-anchor="middle" x="2757.5" y="-69" font-family="Helvetica,sans-Serif" font-size="10.00" fill="#000000">source/eagle_AX12Servo.h</text>
</a>
</g>
</g>
<!-- Node0&#45;&gt;Node28 -->
<g id="edge29" class="edge">
<title>Node0&#45;&gt;Node28</title>
<path fill="none" stroke="#191970" d="M1810.0495,-131.0289C1995.98,-125.39 2512.676,-108.2254 2681.5,-87 2689.6689,-85.973 2698.2709,-84.5524 2706.6332,-82.9848"/>
<polygon fill="#191970" stroke="#191970" points="2707.5297,-86.3757 2716.6691,-81.0164 2706.1824,-79.5066 2707.5297,-86.3757"/>
</g>
<!-- Node29 -->
<g id="node30" class="node">
<title>Node29</title>
<g id="a_node30"><a xlink:href="eagle__DynamixelBoard_8h.html" target="_top" xlink:title="this file contains the DynamixelBoard class ">
<polygon fill="#ffffff" stroke="#000000" points="2843.5,-62 2843.5,-81 3001.5,-81 3001.5,-62 2843.5,-62"/>
<text text-anchor="middle" x="2922.5" y="-69" font-family="Helvetica,sans-Serif" font-size="10.00" fill="#000000">source/eagle_DynamixelBoard.h</text>
</a>
</g>
</g>
<!-- Node0&#45;&gt;Node29 -->
<g id="edge30" class="edge">
<title>Node0&#45;&gt;Node29</title>
<path fill="none" stroke="#191970" d="M1810.1017,-131.3252C2016.1515,-126.0348 2634.4223,-108.7381 2834.5,-87 2844.4473,-85.9192 2854.9684,-84.3991 2865.1426,-82.7297"/>
<polygon fill="#191970" stroke="#191970" points="2865.8974,-86.1516 2875.1672,-81.0212 2864.7213,-79.2511 2865.8974,-86.1516"/>
</g>
<!-- Node30 -->
<g id="node31" class="node">
<title>Node30</title>
<g id="a_node31"><a xlink:href="eagle__I2C_8h.html" target="_top" xlink:title="this file contains cool stuff to access the I²C interface ">
<polygon fill="#ffffff" stroke="#000000" points="3020,-62 3020,-81 3121,-81 3121,-62 3020,-62"/>
<text text-anchor="middle" x="3070.5" y="-69" font-family="Helvetica,sans-Serif" font-size="10.00" fill="#000000">source/eagle_I2C.h</text>
</a>
</g>
</g>
<!-- Node0&#45;&gt;Node30 -->
<g id="edge31" class="edge">
<title>Node0&#45;&gt;Node30</title>
<path fill="none" stroke="#191970" d="M1810.03,-132.4773C2037.6496,-130.4135 2775.6192,-121.1866 3010.5,-87 3016.5019,-86.1264 3022.7701,-84.8859 3028.8962,-83.4825"/>
<polygon fill="#191970" stroke="#191970" points="3030.1223,-86.7855 3038.9998,-81.0028 3028.4537,-79.9873 3030.1223,-86.7855"/>
</g>
<!-- Node31 -->
<g id="node32" class="node">
<title>Node31</title>
<g id="a_node32"><a xlink:href="eagle__LCD_8h.html" target="_top" xlink:title="this file contains the LCD class ">
<polygon fill="#ffffff" stroke="#000000" points="3139.5,-62 3139.5,-81 3245.5,-81 3245.5,-62 3139.5,-62"/>
<text text-anchor="middle" x="3192.5" y="-69" font-family="Helvetica,sans-Serif" font-size="10.00" fill="#000000">source/eagle_LCD.h</text>
</a>
</g>
</g>
<!-- Node0&#45;&gt;Node31 -->
<g id="edge32" class="edge">
<title>Node0&#45;&gt;Node31</title>
<path fill="none" stroke="#191970" d="M1810.0329,-132.655C2051.4303,-131.1267 2870.9789,-123.3218 3130.5,-87 3136.8456,-86.1119 3143.4834,-84.8357 3149.9586,-83.3917"/>
<polygon fill="#191970" stroke="#191970" points="3151.0175,-86.7375 3159.9347,-81.0161 3149.3959,-79.9279 3151.0175,-86.7375"/>
</g>
<!-- Node32 -->
<g id="node33" class="node">
<title>Node32</title>
<g id="a_node33"><a xlink:href="eagle__NeoPixel_8h.html" target="_top" xlink:title="this file contains the NeoPixel class ">
<polygon fill="#ffffff" stroke="#000000" points="3264,-62 3264,-81 3389,-81 3389,-62 3264,-62"/>
<text text-anchor="middle" x="3326.5" y="-69" font-family="Helvetica,sans-Serif" font-size="10.00" fill="#000000">source/eagle_NeoPixel.h</text>
</a>
</g>
</g>
<!-- Node0&#45;&gt;Node32 -->
<g id="edge33" class="edge">
<title>Node0&#45;&gt;Node32</title>
<path fill="none" stroke="#191970" d="M1810.2347,-132.5744C2065.4621,-130.7165 2969.04,-121.7762 3254.5,-87 3262.3535,-86.0432 3270.6168,-84.6435 3278.6329,-83.0708"/>
<polygon fill="#191970" stroke="#191970" points="3279.5222,-86.461 3288.6051,-81.0065 3278.1032,-79.6063 3279.5222,-86.461"/>
</g>
<!-- Node33 -->
<g id="node34" class="node">
<title>Node33</title>
<g id="a_node34"><a xlink:href="eagle__ReptTask_8h.html" target="_top" xlink:title="this file contains cool stuff... this file contains cool stuff... this file contains cool stuff...">
<polygon fill="#ffffff" stroke="#000000" points="3407.5,-62 3407.5,-81 3535.5,-81 3535.5,-62 3407.5,-62"/>
<text text-anchor="middle" x="3471.5" y="-69" font-family="Helvetica,sans-Serif" font-size="10.00" fill="#000000">source/eagle_ReptTask.h</text>
</a>
</g>
</g>
<!-- Node0&#45;&gt;Node33 -->
<g id="edge34" class="edge">
<title>Node0&#45;&gt;Node33</title>
<path fill="none" stroke="#191970" d="M1810.1167,-132.7583C2080.3393,-131.5392 3083.2756,-124.5287 3398.5,-87 3406.5488,-86.0418 3415.0235,-84.6261 3423.2352,-83.034"/>
<polygon fill="#191970" stroke="#191970" points="3423.9781,-86.4546 3433.0748,-81.0231 3422.5765,-79.5963 3423.9781,-86.4546"/>
</g>
<!-- Node34 -->
<g id="node35" class="node">
<title>Node34</title>
<g id="a_node35"><a xlink:href="eagle__Setup_8h.html" target="_top" xlink:title="this file contains the setup method ">
<polygon fill="#ffffff" stroke="#000000" points="3554,-62 3554,-81 3665,-81 3665,-62 3554,-62"/>
<text text-anchor="middle" x="3609.5" y="-69" font-family="Helvetica,sans-Serif" font-size="10.00" fill="#000000">source/eagle_Setup.h</text>
</a>
</g>
</g>
<!-- Node0&#45;&gt;Node34 -->
<g id="edge35" class="edge">
<title>Node0&#45;&gt;Node34</title>
<path fill="none" stroke="#191970" d="M1810.2368,-132.1077C2117.2134,-127.9509 3370.4319,-109.7228 3544.5,-87 3551.3015,-86.1121 3558.4284,-84.8076 3565.3677,-83.3262"/>
<polygon fill="#191970" stroke="#191970" points="3566.3662,-86.6886 3575.3405,-81.0572 3564.8132,-79.863 3566.3662,-86.6886"/>
</g>
<!-- Node35 -->
<g id="node36" class="node">
<title>Node35</title>
<g id="a_node36"><a xlink:href="eagle__HelpMot_8h.html" target="_top" xlink:title="this file contains the helper to acces the motor on the main car ">
<polygon fill="#ffffff" stroke="#000000" points="3683.5,-62 3683.5,-81 3805.5,-81 3805.5,-62 3683.5,-62"/>
<text text-anchor="middle" x="3744.5" y="-69" font-family="Helvetica,sans-Serif" font-size="10.00" fill="#000000">source/eagle_HelpMot.h</text>
</a>
</g>
</g>
<!-- Node0&#45;&gt;Node35 -->
<g id="edge36" class="edge">
<title>Node0&#45;&gt;Node35</title>
<path fill="none" stroke="#191970" d="M1810.241,-132.1678C2130.6947,-128.1258 3486.735,-109.8042 3674.5,-87 3682.0605,-86.0818 3690.0059,-84.717 3697.7201,-83.1716"/>
<polygon fill="#191970" stroke="#191970" points="3698.621,-86.5584 3707.6764,-81.0583 3697.1676,-79.711 3698.621,-86.5584"/>
</g>
<!-- Node7 -->
<g id="node8" class="node">
<title>Node7</title>
<polygon fill="#ffffff" stroke="#bfbfbf" points="510,-.5 510,-19.5 569,-19.5 569,-.5 510,-.5"/>
<text text-anchor="middle" x="539.5" y="-7.5" font-family="Helvetica,sans-Serif" font-size="10.00" fill="#000000">inttypes.h</text>
</g>
<!-- Node6&#45;&gt;Node7 -->
<g id="edge7" class="edge">
<title>Node6&#45;&gt;Node7</title>
<path fill="none" stroke="#191970" d="M545.4063,-61.8906C544.4359,-53.3657 542.9874,-40.6392 541.7677,-29.9235"/>
<polygon fill="#191970" stroke="#191970" points="545.2177,-29.2849 540.6092,-19.7449 538.2626,-30.0766 545.2177,-29.2849"/>
</g>
<!-- Node8&#45;&gt;Node7 -->
<g id="edge9" class="edge">
<title>Node8&#45;&gt;Node7</title>
<path fill="none" stroke="#191970" d="M655.9375,-61.8906C632.9488,-51.6457 596.344,-35.3326 570.3176,-23.7339"/>
<polygon fill="#191970" stroke="#191970" points="571.4698,-20.4156 560.9111,-19.5419 568.6204,-26.8095 571.4698,-20.4156"/>
</g>
<!-- Node9 -->
<g id="node10" class="node">
<title>Node9</title>
<polygon fill="#ffffff" stroke="#bfbfbf" points="587.5,-.5 587.5,-19.5 643.5,-19.5 643.5,-.5 587.5,-.5"/>
<text text-anchor="middle" x="615.5" y="-7.5" font-family="Helvetica,sans-Serif" font-size="10.00" fill="#000000">Stream.h</text>
</g>
<!-- Node8&#45;&gt;Node9 -->
<g id="edge10" class="edge">
<title>Node8&#45;&gt;Node9</title>
<path fill="none" stroke="#191970" d="M667.8125,-61.8906C658.4041,-52.5581 643.9193,-38.1902 632.5751,-26.9374"/>
<polygon fill="#191970" stroke="#191970" points="634.8886,-24.3024 625.3241,-19.7449 629.9589,-29.2722 634.8886,-24.3024"/>
</g>
<!-- Node10 -->
<g id="node11" class="node">
<title>Node10</title>
<polygon fill="#ffffff" stroke="#bfbfbf" points="661.5,-.5 661.5,-19.5 709.5,-19.5 709.5,-.5 661.5,-.5"/>
<text text-anchor="middle" x="685.5" y="-7.5" font-family="Helvetica,sans-Serif" font-size="10.00" fill="#000000">stdlib.h</text>
</g>
<!-- Node8&#45;&gt;Node10 -->
<g id="edge11" class="edge">
<title>Node8&#45;&gt;Node10</title>
<path fill="none" stroke="#191970" d="M678.75,-61.8906C679.8589,-53.3657 681.5144,-40.6392 682.9083,-29.9235"/>
<polygon fill="#191970" stroke="#191970" points="686.4131,-30.1128 684.2324,-19.7449 679.4716,-29.2098 686.4131,-30.1128"/>
</g>
<!-- Node11 -->
<g id="node12" class="node">
<title>Node11</title>
<polygon fill="#ffffff" stroke="#bfbfbf" points="728,-.5 728,-19.5 777,-19.5 777,-.5 728,-.5"/>
<text text-anchor="middle" x="752.5" y="-7.5" font-family="Helvetica,sans-Serif" font-size="10.00" fill="#000000">string.h</text>
</g>
<!-- Node8&#45;&gt;Node11 -->
<g id="edge12" class="edge">
<title>Node8&#45;&gt;Node11</title>
<path fill="none" stroke="#191970" d="M689.2188,-61.8906C700.8188,-52.3786 718.7979,-37.6357 732.6321,-26.2917"/>
<polygon fill="#191970" stroke="#191970" points="735.1026,-28.7921 740.616,-19.7449 730.664,-23.3792 735.1026,-28.7921"/>
</g>
<!-- Node13 -->
<g id="node14" class="node">
<title>Node13</title>
<polygon fill="#ffffff" stroke="#bfbfbf" points="795.5,-.5 795.5,-19.5 841.5,-19.5 841.5,-.5 795.5,-.5"/>
<text text-anchor="middle" x="818.5" y="-7.5" font-family="Helvetica,sans-Serif" font-size="10.00" fill="#000000">stdio.h</text>
</g>
<!-- Node12&#45;&gt;Node13 -->
<g id="edge14" class="edge">
<title>Node12&#45;&gt;Node13</title>
<path fill="none" stroke="#191970" d="M810.9063,-61.8906C812.1538,-53.3657 814.0162,-40.6392 815.5844,-29.9235"/>
<polygon fill="#191970" stroke="#191970" points="819.089,-30.1463 817.0739,-19.7449 812.1627,-29.1326 819.089,-30.1463"/>
</g>
<!-- Node21 -->
<g id="node22" class="node">
<title>Node21</title>
<polygon fill="#ffffff" stroke="#bfbfbf" points="1716.5,-.5 1716.5,-19.5 1768.5,-19.5 1768.5,-.5 1716.5,-.5"/>
<text text-anchor="middle" x="1742.5" y="-7.5" font-family="Helvetica,sans-Serif" font-size="10.00" fill="#000000">assert.h</text>
</g>
<!-- Node20&#45;&gt;Node21 -->
<g id="edge22" class="edge">
<title>Node20&#45;&gt;Node21</title>
<path fill="none" stroke="#191970" d="M1742.5,-61.8906C1742.5,-53.3657 1742.5,-40.6392 1742.5,-29.9235"/>
<polygon fill="#191970" stroke="#191970" points="1746.0001,-29.7448 1742.5,-19.7449 1739.0001,-29.7449 1746.0001,-29.7448"/>
</g>
</g>
</svg>
