<?xml version="1.0" encoding="UTF-8" standalone="no"?>
<!DOCTYPE svg PUBLIC "-//W3C//DTD SVG 1.1//EN"
 "http://www.w3.org/Graphics/SVG/1.1/DTD/svg11.dtd">
<!-- Generated by graphviz version 2.38.0 (20140413.2041)
 -->
<!-- Title: src/eBoard.h Pages: 1 -->
<svg width="828pt" height="84pt"
 viewBox="0.00 0.00 828.00 84.00" xmlns="http://www.w3.org/2000/svg" xmlns:xlink="http://www.w3.org/1999/xlink">
<g id="graph0" class="graph" transform="scale(1 1) rotate(0) translate(4 80)">
<title>src/eBoard.h</title>
<polygon fill="white" stroke="none" points="-4,4 -4,-80 824,-80 824,4 -4,4"/>
<!-- Node0 -->
<g id="node1" class="node"><title>Node0</title>
<polygon fill="#bfbfbf" stroke="black" points="412,-56.5 412,-75.5 484,-75.5 484,-56.5 412,-56.5"/>
<text text-anchor="middle" x="448" y="-63.5" font-family="Helvetica,sans-Serif" font-size="10.00">src/eBoard.h</text>
</g>
<!-- Node1 -->
<g id="node2" class="node"><title>Node1</title>
<polygon fill="white" stroke="#bfbfbf" points="0,-0.5 0,-19.5 86,-19.5 86,-0.5 0,-0.5"/>
<text text-anchor="middle" x="43" y="-7.5" font-family="Helvetica,sans-Serif" font-size="10.00">avr/pgmspace.h</text>
</g>
<!-- Node0&#45;&gt;Node1 -->
<g id="edge1" class="edge"><title>Node0&#45;&gt;Node1</title>
<path fill="none" stroke="midnightblue" d="M411.846,-60.9303C349.597,-53.8063 217.928,-38.2265 96.3354,-20.1439"/>
<polygon fill="midnightblue" stroke="midnightblue" points="96.5142,-16.6317 86.1063,-18.613 95.4781,-23.5546 96.5142,-16.6317"/>
</g>
<!-- Node2 -->
<g id="node3" class="node"><title>Node2</title>
<polygon fill="white" stroke="#bfbfbf" points="104,-0.5 104,-19.5 162,-19.5 162,-0.5 104,-0.5"/>
<text text-anchor="middle" x="133" y="-7.5" font-family="Helvetica,sans-Serif" font-size="10.00">Arduino.h</text>
</g>
<!-- Node0&#45;&gt;Node2 -->
<g id="edge2" class="edge"><title>Node0&#45;&gt;Node2</title>
<path fill="none" stroke="midnightblue" d="M411.995,-59.9906C360.873,-52.6947 264.116,-38.2128 172.414,-20.1716"/>
<polygon fill="midnightblue" stroke="midnightblue" points="172.903,-16.7004 162.413,-18.1855 171.54,-23.5663 172.903,-16.7004"/>
</g>
<!-- Node3 -->
<g id="node4" class="node"><title>Node3</title>
<polygon fill="white" stroke="#bfbfbf" points="180.5,-0.5 180.5,-19.5 229.5,-19.5 229.5,-0.5 180.5,-0.5"/>
<text text-anchor="middle" x="205" y="-7.5" font-family="Helvetica,sans-Serif" font-size="10.00">avr/io.h</text>
</g>
<!-- Node0&#45;&gt;Node3 -->
<g id="edge3" class="edge"><title>Node0&#45;&gt;Node3</title>
<path fill="none" stroke="midnightblue" d="M411.818,-57.8781C371.908,-49.8837 305.565,-36.1863 239.927,-20.3795"/>
<polygon fill="midnightblue" stroke="midnightblue" points="240.372,-16.8857 229.828,-17.929 238.721,-23.6884 240.372,-16.8857"/>
</g>
<!-- Node4 -->
<g id="node5" class="node"><title>Node4</title>
<polygon fill="white" stroke="#bfbfbf" points="247.5,-0.5 247.5,-19.5 324.5,-19.5 324.5,-0.5 247.5,-0.5"/>
<text text-anchor="middle" x="286" y="-7.5" font-family="Helvetica,sans-Serif" font-size="10.00">avr/interrupt.h</text>
</g>
<!-- Node0&#45;&gt;Node4 -->
<g id="edge4" class="edge"><title>Node0&#45;&gt;Node4</title>
<path fill="none" stroke="midnightblue" d="M422.331,-56.4435C395.077,-47.3591 351.816,-32.9388 321.349,-22.7831"/>
<polygon fill="midnightblue" stroke="midnightblue" points="322.143,-19.3584 311.549,-19.5164 319.929,-25.9992 322.143,-19.3584"/>
</g>
<!-- Node5 -->
<g id="node6" class="node"><title>Node5</title>
<polygon fill="white" stroke="#bfbfbf" points="342.5,-0.5 342.5,-19.5 401.5,-19.5 401.5,-0.5 342.5,-0.5"/>
<text text-anchor="middle" x="372" y="-7.5" font-family="Helvetica,sans-Serif" font-size="10.00">inttypes.h</text>
</g>
<!-- Node0&#45;&gt;Node5 -->
<g id="edge5" class="edge"><title>Node0&#45;&gt;Node5</title>
<path fill="none" stroke="midnightblue" d="M435.789,-56.324C424.224,-48.1066 406.625,-35.6017 392.839,-25.8069"/>
<polygon fill="midnightblue" stroke="midnightblue" points="394.612,-22.7729 384.433,-19.8339 390.557,-28.4791 394.612,-22.7729"/>
</g>
<!-- Node6 -->
<g id="node7" class="node"><title>Node6</title>
<polygon fill="white" stroke="#bfbfbf" points="420,-0.5 420,-19.5 476,-19.5 476,-0.5 420,-0.5"/>
<text text-anchor="middle" x="448" y="-7.5" font-family="Helvetica,sans-Serif" font-size="10.00">Stream.h</text>
</g>
<!-- Node0&#45;&gt;Node6 -->
<g id="edge6" class="edge"><title>Node0&#45;&gt;Node6</title>
<path fill="none" stroke="midnightblue" d="M448,-56.083C448,-49.0059 448,-38.8611 448,-29.9865"/>
<polygon fill="midnightblue" stroke="midnightblue" points="451.5,-29.751 448,-19.7511 444.5,-29.7511 451.5,-29.751"/>
</g>
<!-- Node7 -->
<g id="node8" class="node"><title>Node7</title>
<polygon fill="white" stroke="#bfbfbf" points="494,-0.5 494,-19.5 542,-19.5 542,-0.5 494,-0.5"/>
<text text-anchor="middle" x="518" y="-7.5" font-family="Helvetica,sans-Serif" font-size="10.00">stdlib.h</text>
</g>
<!-- Node0&#45;&gt;Node7 -->
<g id="edge7" class="edge"><title>Node0&#45;&gt;Node7</title>
<path fill="none" stroke="midnightblue" d="M459.247,-56.324C469.797,-48.1849 485.801,-35.8395 498.442,-26.0874"/>
<polygon fill="midnightblue" stroke="midnightblue" points="500.769,-28.7132 506.549,-19.8339 496.493,-23.1707 500.769,-28.7132"/>
</g>
<!-- Node8 -->
<g id="node9" class="node"><title>Node8</title>
<polygon fill="white" stroke="#bfbfbf" points="560.5,-0.5 560.5,-19.5 609.5,-19.5 609.5,-0.5 560.5,-0.5"/>
<text text-anchor="middle" x="585" y="-7.5" font-family="Helvetica,sans-Serif" font-size="10.00">string.h</text>
</g>
<!-- Node0&#45;&gt;Node8 -->
<g id="edge8" class="edge"><title>Node0&#45;&gt;Node8</title>
<path fill="none" stroke="midnightblue" d="M469.708,-56.4435C492.355,-47.5171 528.072,-33.4387 553.752,-23.3168"/>
<polygon fill="midnightblue" stroke="midnightblue" points="555.374,-26.4397 563.394,-19.5164 552.807,-19.9273 555.374,-26.4397"/>
</g>
<!-- Node9 -->
<g id="node10" class="node"><title>Node9</title>
<polygon fill="white" stroke="#bfbfbf" points="628,-0.5 628,-19.5 674,-19.5 674,-0.5 628,-0.5"/>
<text text-anchor="middle" x="651" y="-7.5" font-family="Helvetica,sans-Serif" font-size="10.00">stdio.h</text>
</g>
<!-- Node0&#45;&gt;Node9 -->
<g id="edge9" class="edge"><title>Node0&#45;&gt;Node9</title>
<path fill="none" stroke="midnightblue" d="M481.145,-56.454C513.607,-48.0454 564.727,-34.7008 617.977,-20.2463"/>
<polygon fill="midnightblue" stroke="midnightblue" points="619.21,-23.5381 627.941,-17.5354 617.373,-16.7836 619.21,-23.5381"/>
</g>
<!-- Node10 -->
<g id="node11" class="node"><title>Node10</title>
<polygon fill="white" stroke="#bfbfbf" points="692.5,-0.5 692.5,-19.5 749.5,-19.5 749.5,-0.5 692.5,-0.5"/>
<text text-anchor="middle" x="721" y="-7.5" font-family="Helvetica,sans-Serif" font-size="10.00">avr/wdt.h</text>
</g>
<!-- Node0&#45;&gt;Node10 -->
<g id="edge10" class="edge"><title>Node0&#45;&gt;Node10</title>
<path fill="none" stroke="midnightblue" d="M484.331,-58.5478C528.693,-50.5582 606.237,-36.2357 682.606,-20.0072"/>
<polygon fill="midnightblue" stroke="midnightblue" points="683.349,-23.4277 692.396,-17.9148 681.885,-16.5823 683.349,-23.4277"/>
</g>
<!-- Node11 -->
<g id="node12" class="node"><title>Node11</title>
<polygon fill="white" stroke="#bfbfbf" points="768,-0.5 768,-19.5 820,-19.5 820,-0.5 768,-0.5"/>
<text text-anchor="middle" x="794" y="-7.5" font-family="Helvetica,sans-Serif" font-size="10.00">assert.h</text>
</g>
<!-- Node0&#45;&gt;Node11 -->
<g id="edge11" class="edge"><title>Node0&#45;&gt;Node11</title>
<path fill="none" stroke="midnightblue" d="M484.132,-61.0564C540.514,-54.6241 652.991,-40.677 757.6,-20.1003"/>
<polygon fill="midnightblue" stroke="midnightblue" points="758.574,-23.4752 767.697,-18.0883 757.206,-16.6102 758.574,-23.4752"/>
</g>
</g>
</svg>
