<?xml version="1.0" encoding="UTF-8" standalone="no"?>
<!DOCTYPE svg PUBLIC "-//W3C//DTD SVG 1.1//EN"
 "http://www.w3.org/Graphics/SVG/1.1/DTD/svg11.dtd">
<!-- Generated by graphviz version 2.38.0 (20140413.2041)
 -->
<!-- Title: src/eBoard.h Pages: 1 -->
<svg width="1343pt" height="106pt"
 viewBox="0.00 0.00 1342.50 106.00" xmlns="http://www.w3.org/2000/svg" xmlns:xlink="http://www.w3.org/1999/xlink">
<g id="graph0" class="graph" transform="scale(1 1) rotate(0) translate(4 102)">
<title>src/eBoard.h</title>
<polygon fill="white" stroke="none" points="-4,4 -4,-102 1338.5,-102 1338.5,4 -4,4"/>
<!-- Node0 -->
<g id="node1" class="node"><title>Node0</title>
<polygon fill="#bfbfbf" stroke="black" points="754.5,-78.5 754.5,-97.5 826.5,-97.5 826.5,-78.5 754.5,-78.5"/>
<text text-anchor="middle" x="790.5" y="-85.5" font-family="Helvetica,sans-Serif" font-size="10.00">src/eBoard.h</text>
</g>
<!-- Node1 -->
<g id="node2" class="node"><title>Node1</title>
<polygon fill="white" stroke="#bfbfbf" points="0,-6 0,-36 137,-36 137,-6 0,-6"/>
<text text-anchor="start" x="8" y="-24" font-family="Helvetica,sans-Serif" font-size="10.00">C:\Program Files (x86)</text>
<text text-anchor="middle" x="68.5" y="-13" font-family="Helvetica,sans-Serif" font-size="10.00">\Arduino\libraries\SPI\SPI.h</text>
</g>
<!-- Node0&#45;&gt;Node1 -->
<g id="edge1" class="edge"><title>Node0&#45;&gt;Node1</title>
<path fill="none" stroke="midnightblue" d="M754.279,-86.7615C655.912,-85.621 375.801,-79.0945 146.5,-42 140.342,-41.0037 133.96,-39.7471 127.62,-38.3511"/>
<polygon fill="midnightblue" stroke="midnightblue" points="128.262,-34.9072 117.731,-36.0601 126.683,-41.7266 128.262,-34.9072"/>
</g>
<!-- Node2 -->
<g id="node3" class="node"><title>Node2</title>
<polygon fill="white" stroke="#bfbfbf" points="155.5,-0.5 155.5,-41.5 271.5,-41.5 271.5,-0.5 155.5,-0.5"/>
<text text-anchor="start" x="163.5" y="-29.5" font-family="Helvetica,sans-Serif" font-size="10.00">C:\Program Files (x86)</text>
<text text-anchor="start" x="163.5" y="-18.5" font-family="Helvetica,sans-Serif" font-size="10.00">\Arduino\libraries\SPI</text>
<text text-anchor="middle" x="213.5" y="-7.5" font-family="Helvetica,sans-Serif" font-size="10.00">\SPI.cpp</text>
</g>
<!-- Node0&#45;&gt;Node2 -->
<g id="edge2" class="edge"><title>Node0&#45;&gt;Node2</title>
<path fill="none" stroke="midnightblue" d="M754.293,-86.3104C671.818,-84.2064 463.679,-75.8828 281.805,-42.0501"/>
<polygon fill="midnightblue" stroke="midnightblue" points="282.27,-38.5761 271.793,-40.1567 280.969,-45.4542 282.27,-38.5761"/>
</g>
<!-- Node3 -->
<g id="node4" class="node"><title>Node3</title>
<polygon fill="white" stroke="#bfbfbf" points="289.5,-11.5 289.5,-30.5 347.5,-30.5 347.5,-11.5 289.5,-11.5"/>
<text text-anchor="middle" x="318.5" y="-18.5" font-family="Helvetica,sans-Serif" font-size="10.00">Arduino.h</text>
</g>
<!-- Node0&#45;&gt;Node3 -->
<g id="edge3" class="edge"><title>Node0&#45;&gt;Node3</title>
<path fill="none" stroke="midnightblue" d="M754.441,-87.8225C678.885,-88.5656 499.15,-85.1748 356.5,-42 351.195,-40.3944 345.767,-38.0347 340.734,-35.4942"/>
<polygon fill="midnightblue" stroke="midnightblue" points="342.132,-32.2694 331.68,-30.5369 338.77,-38.4094 342.132,-32.2694"/>
</g>
<!-- Node4 -->
<g id="node5" class="node"><title>Node4</title>
<polygon fill="white" stroke="#bfbfbf" points="366,-11.5 366,-30.5 415,-30.5 415,-11.5 366,-11.5"/>
<text text-anchor="middle" x="390.5" y="-18.5" font-family="Helvetica,sans-Serif" font-size="10.00">avr/io.h</text>
</g>
<!-- Node0&#45;&gt;Node4 -->
<g id="edge4" class="edge"><title>Node0&#45;&gt;Node4</title>
<path fill="none" stroke="midnightblue" d="M754.469,-87.5317C687.396,-87.4547 539.658,-82.2334 423.5,-42 419.035,-40.4535 414.526,-38.2411 410.335,-35.847"/>
<polygon fill="midnightblue" stroke="midnightblue" points="412.143,-32.8497 401.811,-30.5039 408.425,-38.7808 412.143,-32.8497"/>
</g>
<!-- Node5 -->
<g id="node6" class="node"><title>Node5</title>
<polygon fill="white" stroke="#bfbfbf" points="433,-11.5 433,-30.5 510,-30.5 510,-11.5 433,-11.5"/>
<text text-anchor="middle" x="471.5" y="-18.5" font-family="Helvetica,sans-Serif" font-size="10.00">avr/interrupt.h</text>
</g>
<!-- Node0&#45;&gt;Node5 -->
<g id="edge5" class="edge"><title>Node0&#45;&gt;Node5</title>
<path fill="none" stroke="midnightblue" d="M754.407,-83.6771C701.912,-78.2473 601.782,-65.6313 519.5,-42 512.621,-40.0243 505.399,-37.3541 498.706,-34.6091"/>
<polygon fill="midnightblue" stroke="midnightblue" points="499.951,-31.3346 489.381,-30.606 497.189,-37.7669 499.951,-31.3346"/>
</g>
<!-- Node6 -->
<g id="node7" class="node"><title>Node6</title>
<polygon fill="white" stroke="#bfbfbf" points="528.5,-6 528.5,-36 654.5,-36 654.5,-6 528.5,-6"/>
<text text-anchor="start" x="536.5" y="-24" font-family="Helvetica,sans-Serif" font-size="10.00">C:\Program Files (x86)</text>
<text text-anchor="middle" x="591.5" y="-13" font-family="Helvetica,sans-Serif" font-size="10.00">\Arduino\Wire\utility\twi.h</text>
</g>
<!-- Node0&#45;&gt;Node6 -->
<g id="edge6" class="edge"><title>Node0&#45;&gt;Node6</title>
<path fill="none" stroke="midnightblue" d="M764.074,-78.3685C733.567,-68.4039 682.635,-51.7676 643.988,-39.1444"/>
<polygon fill="midnightblue" stroke="midnightblue" points="645.04,-35.806 634.447,-36.0281 642.867,-42.4601 645.04,-35.806"/>
</g>
<!-- Node7 -->
<g id="node8" class="node"><title>Node7</title>
<polygon fill="white" stroke="#bfbfbf" points="672.5,-6 672.5,-36 798.5,-36 798.5,-6 672.5,-6"/>
<text text-anchor="start" x="680.5" y="-24" font-family="Helvetica,sans-Serif" font-size="10.00">C:\Program Files (x86)</text>
<text text-anchor="middle" x="735.5" y="-13" font-family="Helvetica,sans-Serif" font-size="10.00">\Arduino\Wire\utility\twi.c</text>
</g>
<!-- Node0&#45;&gt;Node7 -->
<g id="edge7" class="edge"><title>Node0&#45;&gt;Node7</title>
<path fill="none" stroke="midnightblue" d="M783.082,-78.2338C775.649,-69.4493 763.912,-55.5783 753.956,-43.8111"/>
<polygon fill="midnightblue" stroke="midnightblue" points="756.553,-41.4621 747.421,-36.089 751.209,-45.9837 756.553,-41.4621"/>
</g>
<!-- Node8 -->
<g id="node9" class="node"><title>Node8</title>
<polygon fill="white" stroke="#bfbfbf" points="817,-11.5 817,-30.5 876,-30.5 876,-11.5 817,-11.5"/>
<text text-anchor="middle" x="846.5" y="-18.5" font-family="Helvetica,sans-Serif" font-size="10.00">inttypes.h</text>
</g>
<!-- Node0&#45;&gt;Node8 -->
<g id="edge8" class="edge"><title>Node0&#45;&gt;Node8</title>
<path fill="none" stroke="midnightblue" d="M798.052,-78.2338C806.785,-68.0979 821.352,-51.1899 832.237,-38.5556"/>
<polygon fill="midnightblue" stroke="midnightblue" points="835.192,-40.4879 839.067,-30.6273 829.888,-35.9189 835.192,-40.4879"/>
</g>
<!-- Node9 -->
<g id="node10" class="node"><title>Node9</title>
<polygon fill="white" stroke="#bfbfbf" points="894.5,-11.5 894.5,-30.5 950.5,-30.5 950.5,-11.5 894.5,-11.5"/>
<text text-anchor="middle" x="922.5" y="-18.5" font-family="Helvetica,sans-Serif" font-size="10.00">Stream.h</text>
</g>
<!-- Node0&#45;&gt;Node9 -->
<g id="edge9" class="edge"><title>Node0&#45;&gt;Node9</title>
<path fill="none" stroke="midnightblue" d="M809.21,-78.4946C828.473,-69.6545 859.29,-55.2796 885.5,-42 889.642,-39.9013 894.01,-37.6111 898.235,-35.354"/>
<polygon fill="midnightblue" stroke="midnightblue" points="899.983,-38.388 907.115,-30.5532 896.654,-32.2303 899.983,-38.388"/>
</g>
<!-- Node10 -->
<g id="node11" class="node"><title>Node10</title>
<polygon fill="white" stroke="#bfbfbf" points="968.5,-11.5 968.5,-30.5 1016.5,-30.5 1016.5,-11.5 968.5,-11.5"/>
<text text-anchor="middle" x="992.5" y="-18.5" font-family="Helvetica,sans-Serif" font-size="10.00">stdlib.h</text>
</g>
<!-- Node0&#45;&gt;Node10 -->
<g id="edge10" class="edge"><title>Node0&#45;&gt;Node10</title>
<path fill="none" stroke="midnightblue" d="M826.764,-80.4613C861.673,-73.45 915.501,-60.7346 959.5,-42 963.522,-40.2875 967.637,-38.1487 971.537,-35.9121"/>
<polygon fill="midnightblue" stroke="midnightblue" points="973.399,-38.8761 980.102,-30.6706 969.745,-32.9056 973.399,-38.8761"/>
</g>
<!-- Node11 -->
<g id="node12" class="node"><title>Node11</title>
<polygon fill="white" stroke="#bfbfbf" points="1035,-11.5 1035,-30.5 1084,-30.5 1084,-11.5 1035,-11.5"/>
<text text-anchor="middle" x="1059.5" y="-18.5" font-family="Helvetica,sans-Serif" font-size="10.00">string.h</text>
</g>
<!-- Node0&#45;&gt;Node11 -->
<g id="edge11" class="edge"><title>Node0&#45;&gt;Node11</title>
<path fill="none" stroke="midnightblue" d="M826.569,-83.9536C873.608,-79.1206 957.866,-67.4934 1025.5,-42 1029.87,-40.3522 1034.33,-38.1624 1038.51,-35.8365"/>
<polygon fill="midnightblue" stroke="midnightblue" points="1040.33,-38.8293 1047.1,-30.6848 1036.73,-32.8259 1040.33,-38.8293"/>
</g>
<!-- Node12 -->
<g id="node13" class="node"><title>Node12</title>
<polygon fill="white" stroke="#bfbfbf" points="1102.5,-11.5 1102.5,-30.5 1188.5,-30.5 1188.5,-11.5 1102.5,-11.5"/>
<text text-anchor="middle" x="1145.5" y="-18.5" font-family="Helvetica,sans-Serif" font-size="10.00">avr/pgmspace.h</text>
</g>
<!-- Node0&#45;&gt;Node12 -->
<g id="edge12" class="edge"><title>Node0&#45;&gt;Node12</title>
<path fill="none" stroke="midnightblue" d="M826.933,-84.192C884.365,-79.1868 999.125,-66.8336 1093.5,-42 1101.17,-39.9805 1109.27,-37.2011 1116.73,-34.3564"/>
<polygon fill="midnightblue" stroke="midnightblue" points="1118.08,-37.5854 1126.08,-30.6375 1115.5,-31.0809 1118.08,-37.5854"/>
</g>
<!-- Node13 -->
<g id="node14" class="node"><title>Node13</title>
<polygon fill="white" stroke="#bfbfbf" points="1207,-11.5 1207,-30.5 1264,-30.5 1264,-11.5 1207,-11.5"/>
<text text-anchor="middle" x="1235.5" y="-18.5" font-family="Helvetica,sans-Serif" font-size="10.00">avr/wdt.h</text>
</g>
<!-- Node0&#45;&gt;Node13 -->
<g id="edge13" class="edge"><title>Node0&#45;&gt;Node13</title>
<path fill="none" stroke="midnightblue" d="M826.514,-87.4696C898.614,-87.4498 1065.13,-82.5567 1197.5,-42 1202.8,-40.3764 1208.23,-38.0091 1213.26,-35.467"/>
<polygon fill="midnightblue" stroke="midnightblue" points="1215.22,-38.383 1222.31,-30.5126 1211.86,-32.242 1215.22,-38.383"/>
</g>
<!-- Node14 -->
<g id="node15" class="node"><title>Node14</title>
<polygon fill="white" stroke="#bfbfbf" points="1282.5,-11.5 1282.5,-30.5 1334.5,-30.5 1334.5,-11.5 1282.5,-11.5"/>
<text text-anchor="middle" x="1308.5" y="-18.5" font-family="Helvetica,sans-Serif" font-size="10.00">assert.h</text>
</g>
<!-- Node0&#45;&gt;Node14 -->
<g id="edge14" class="edge"><title>Node0&#45;&gt;Node14</title>
<path fill="none" stroke="midnightblue" d="M826.616,-85.6156C923.967,-81.5703 1190.08,-68.3552 1273.5,-42 1278.33,-40.4727 1283.23,-38.2084 1287.78,-35.7465"/>
<polygon fill="midnightblue" stroke="midnightblue" points="1289.65,-38.704 1296.46,-30.5883 1286.08,-32.6855 1289.65,-38.704"/>
</g>
</g>
</svg>
