<?xml version="1.0" encoding="UTF-8" standalone="no"?>
<!DOCTYPE svg PUBLIC "-//W3C//DTD SVG 1.1//EN"
 "http://www.w3.org/Graphics/SVG/1.1/DTD/svg11.dtd">
<!-- Generated by graphviz version 2.38.0 (20140413.2041)
 -->
<!-- Title: [ 🐼 ] OLED Pages: 1 -->
<svg width="289pt" height="27pt"
 viewBox="0.00 0.00 289.00 27.00" xmlns="http://www.w3.org/2000/svg" xmlns:xlink="http://www.w3.org/1999/xlink">
<g id="graph0" class="graph" transform="scale(1 1) rotate(0) translate(4 23)">
<title>[ 🐼 ] OLED</title>
<polygon fill="white" stroke="none" points="-4,4 -4,-23 285,-23 285,4 -4,4"/>
<!-- Node0 -->
<g id="node1" class="node"><title>Node0</title>
<polygon fill="#bfbfbf" stroke="black" points="156,-19 97,-19 97,-0 156,-0 156,-19"/>
<text text-anchor="middle" x="126.5" y="-7" font-family="Helvetica,sans-Serif" font-size="10.00">[ &#160;] OLED</text>
</g>
<!-- Node2 -->
<g id="node2" class="node"><title>Node2</title>
<g id="a_node2"><a xlink:href="group__portTu.html" target="_top" xlink:title="[ &#160;] UNO2MEGA">
<polygon fill="white" stroke="black" points="281,-19 192,-19 192,-0 281,-0 281,-19"/>
<text text-anchor="middle" x="236.5" y="-7" font-family="Helvetica,sans-Serif" font-size="10.00">[ &#160;] UNO2MEGA</text>
</a>
</g>
</g>
<!-- Node0&#45;&gt;Node2 -->
<g id="edge2" class="edge"><title>Node0&#45;&gt;Node2</title>
<path fill="none" stroke="black" d="M166.247,-9.5C174.48,-9.5 183.228,-9.5 191.637,-9.5"/>
<polygon fill="black" stroke="black" points="166.159,-6.0001 156.158,-9.5 166.158,-13.0001 166.159,-6.0001"/>
</g>
<!-- Node1 -->
<g id="node3" class="node"><title>Node1</title>
<g id="a_node3"><a xlink:href="group__shiftEx.html" target="_top" xlink:title="[ &#160;] SHIFT">
<polygon fill="white" stroke="black" points="61,-19 -3.55271e-15,-19 -3.55271e-15,-0 61,-0 61,-19"/>
<text text-anchor="middle" x="30.5" y="-7" font-family="Helvetica,sans-Serif" font-size="10.00">[ &#160;] SHIFT</text>
</a>
</g>
</g>
<!-- Node1&#45;&gt;Node0 -->
<g id="edge1" class="edge"><title>Node1&#45;&gt;Node0</title>
<path fill="none" stroke="black" d="M71.4465,-9.5C80.0065,-9.5 88.886,-9.5 96.914,-9.5"/>
<polygon fill="black" stroke="black" points="71.2422,-6.0001 61.2422,-9.5 71.2422,-13.0001 71.2422,-6.0001"/>
</g>
</g>
</svg>
