<?xml version="1.0" encoding="UTF-8" standalone="no"?>
<!DOCTYPE svg PUBLIC "-//W3C//DTD SVG 1.1//EN"
 "http://www.w3.org/Graphics/SVG/1.1/DTD/svg11.dtd">
<!-- Generated by graphviz version 2.38.0 (20140413.2041)
 -->
<!-- Title: SHIFT&#45;Tutorial Pages: 1 -->
<svg width="342pt" height="27pt"
 viewBox="0.00 0.00 342.00 27.00" xmlns="http://www.w3.org/2000/svg" xmlns:xlink="http://www.w3.org/1999/xlink">
<g id="graph0" class="graph" transform="scale(1 1) rotate(0) translate(4 23)">
<title>SHIFT&#45;Tutorial</title>
<polygon fill="white" stroke="none" points="-4,4 -4,-23 338,-23 338,4 -4,4"/>
<!-- Node1 -->
<g id="node1" class="node"><title>Node1</title>
<g id="a_node1"><a xlink:href="group__i2cEx.html" target="_top" xlink:title="I2C&#45;Tutorial">
<polygon fill="white" stroke="black" points="68,-19 0,-19 0,-0 68,-0 68,-19"/>
<text text-anchor="middle" x="34" y="-7" font-family="Helvetica,sans-Serif" font-size="10.00">I2C&#45;Tutorial</text>
</a>
</g>
</g>
<!-- Node0 -->
<g id="node3" class="node"><title>Node0</title>
<polygon fill="#bfbfbf" stroke="black" points="185,-19 104,-19 104,-0 185,-0 185,-19"/>
<text text-anchor="middle" x="144.5" y="-7" font-family="Helvetica,sans-Serif" font-size="10.00">SHIFT&#45;Tutorial</text>
</g>
<!-- Node1&#45;&gt;Node0 -->
<g id="edge1" class="edge"><title>Node1&#45;&gt;Node0</title>
<path fill="none" stroke="black" d="M78.1708,-9.5C86.5901,-9.5 95.3813,-9.5 103.686,-9.5"/>
<polygon fill="black" stroke="black" points="78.1432,-6.0001 68.1431,-9.5 78.1431,-13.0001 78.1432,-6.0001"/>
</g>
<!-- Node2 -->
<g id="node2" class="node"><title>Node2</title>
<g id="a_node2"><a xlink:href="group__blueEx.html" target="_top" xlink:title="A tutorial for the Pin&#45;Extension. ">
<polygon fill="white" stroke="black" points="334,-19 221,-19 221,-0 334,-0 334,-19"/>
<text text-anchor="middle" x="277.5" y="-7" font-family="Helvetica,sans-Serif" font-size="10.00">BLUETOOTH&#45;Tutorial</text>
</a>
</g>
</g>
<!-- Node0&#45;&gt;Node2 -->
<g id="edge2" class="edge"><title>Node0&#45;&gt;Node2</title>
<path fill="none" stroke="black" d="M195.358,-9.5C203.591,-9.5 212.173,-9.5 220.543,-9.5"/>
<polygon fill="black" stroke="black" points="195.16,-6.0001 185.16,-9.5 195.16,-13.0001 195.16,-6.0001"/>
</g>
</g>
</svg>
