<?xml version="1.0" encoding="UTF-8" standalone="no"?>
<!DOCTYPE svg PUBLIC "-//W3C//DTD SVG 1.1//EN"
 "http://www.w3.org/Graphics/SVG/1.1/DTD/svg11.dtd">
<!-- Generated by graphviz version 2.38.0 (20140413.2041)
 -->
<!-- Title: [ 🐼 ] SHIFT Pages: 1 -->
<svg width="292pt" height="27pt"
 viewBox="0.00 0.00 292.00 27.00" xmlns="http://www.w3.org/2000/svg" xmlns:xlink="http://www.w3.org/1999/xlink">
<g id="graph0" class="graph" transform="scale(1 1) rotate(0) translate(4 23)">
<title>[ 🐼 ] SHIFT</title>
<polygon fill="white" stroke="none" points="-4,4 -4,-23 288,-23 288,4 -4,4"/>
<!-- Node2 -->
<g id="node1" class="node"><title>Node2</title>
<g id="a_node1"><a xlink:href="group__lcdEx.html" target="_top" xlink:title="[ &#160;] OLED">
<polygon fill="white" stroke="black" points="284,-19 225,-19 225,-0 284,-0 284,-19"/>
<text text-anchor="middle" x="254.5" y="-7" font-family="Helvetica,sans-Serif" font-size="10.00">[ &#160;] OLED</text>
</a>
</g>
</g>
<!-- Node1 -->
<g id="node2" class="node"><title>Node1</title>
<g id="a_node2"><a xlink:href="group__blueEx.html" target="_top" xlink:title="[ &#160;] BLUETOOTH">
<polygon fill="white" stroke="black" points="92,-19 0,-19 0,-0 92,-0 92,-19"/>
<text text-anchor="middle" x="46" y="-7" font-family="Helvetica,sans-Serif" font-size="10.00">[ &#160;] BLUETOOTH</text>
</a>
</g>
</g>
<!-- Node0 -->
<g id="node3" class="node"><title>Node0</title>
<polygon fill="#bfbfbf" stroke="black" points="189,-19 128,-19 128,-0 189,-0 189,-19"/>
<text text-anchor="middle" x="158.5" y="-7" font-family="Helvetica,sans-Serif" font-size="10.00">[ &#160;] SHIFT</text>
</g>
<!-- Node1&#45;&gt;Node0 -->
<g id="edge1" class="edge"><title>Node1&#45;&gt;Node0</title>
<path fill="none" stroke="black" d="M102.524,-9.5C111.306,-9.5 120.079,-9.5 127.955,-9.5"/>
<polygon fill="black" stroke="black" points="102.263,-6.0001 92.2634,-9.5 102.263,-13.0001 102.263,-6.0001"/>
</g>
<!-- Node0&#45;&gt;Node2 -->
<g id="edge2" class="edge"><title>Node0&#45;&gt;Node2</title>
<path fill="none" stroke="black" d="M199.446,-9.5C208.007,-9.5 216.886,-9.5 224.914,-9.5"/>
<polygon fill="black" stroke="black" points="199.242,-6.0001 189.242,-9.5 199.242,-13.0001 199.242,-6.0001"/>
</g>
</g>
</svg>
