<?xml version="1.0" encoding="UTF-8" standalone="no"?>
<!DOCTYPE svg PUBLIC "-//W3C//DTD SVG 1.1//EN"
 "http://www.w3.org/Graphics/SVG/1.1/DTD/svg11.dtd">
<!-- Generated by graphviz version 2.38.0 (20140413.2041)
 -->
<!-- Title: Graphical Class Hierarchy Pages: 1 -->
<svg width="225pt" height="66pt"
 viewBox="0.00 0.00 225.00 66.00" xmlns="http://www.w3.org/2000/svg" xmlns:xlink="http://www.w3.org/1999/xlink">
<g id="graph0" class="graph" transform="scale(1 1) rotate(0) translate(4 62)">
<title>Graphical Class Hierarchy</title>
<polygon fill="white" stroke="none" points="-4,4 -4,-62 221,-62 221,4 -4,4"/>
<!-- Node1 -->
<g id="node1" class="node"><title>Node1</title>
<polygon fill="white" stroke="#bfbfbf" points="0,-19.5 0,-38.5 48,-38.5 48,-19.5 0,-19.5"/>
<text text-anchor="middle" x="24" y="-26.5" font-family="Helvetica,sans-Serif" font-size="10.00">Stream</text>
</g>
<!-- Node0 -->
<g id="node2" class="node"><title>Node0</title>
<g id="a_node2"><a xlink:href="classeagle__impl_1_1SoftwareSerial.html" target="_top" xlink:title="[328p] This is used to avoid path resolving issues and defines the common known Arduino SoftwareSeria...">
<polygon fill="white" stroke="black" points="84,-38.5 84,-57.5 217,-57.5 217,-38.5 84,-38.5"/>
<text text-anchor="middle" x="150.5" y="-45.5" font-family="Helvetica,sans-Serif" font-size="10.00">eagle_impl::SoftwareSerial</text>
</a>
</g>
</g>
<!-- Node1&#45;&gt;Node0 -->
<g id="edge1" class="edge"><title>Node1&#45;&gt;Node0</title>
<path fill="none" stroke="midnightblue" d="M58.1021,-34.0517C67.0603,-35.4188 77.0586,-36.9447 87.0634,-38.4715"/>
<polygon fill="midnightblue" stroke="midnightblue" points="58.5393,-30.578 48.1257,-32.5292 57.4832,-37.4979 58.5393,-30.578"/>
</g>
<!-- Node3 -->
<g id="node3" class="node"><title>Node3</title>
<g id="a_node3"><a xlink:href="classeagle__impl_1_1TwoWire.html" target="_top" xlink:title="[I2C] This is used to avoid path resolving issues and defines the common known Arduino Wire&#45;Interface...">
<polygon fill="white" stroke="black" points="96.5,-0.5 96.5,-19.5 204.5,-19.5 204.5,-0.5 96.5,-0.5"/>
<text text-anchor="middle" x="150.5" y="-7.5" font-family="Helvetica,sans-Serif" font-size="10.00">eagle_impl::TwoWire</text>
</a>
</g>
</g>
<!-- Node1&#45;&gt;Node3 -->
<g id="edge2" class="edge"><title>Node1&#45;&gt;Node3</title>
<path fill="none" stroke="midnightblue" d="M58.2908,-23.9195C69.966,-22.1377 83.3899,-20.0891 96.2853,-18.1211"/>
<polygon fill="midnightblue" stroke="midnightblue" points="57.4832,-20.5021 48.1257,-25.4708 58.5393,-27.422 57.4832,-20.5021"/>
</g>
</g>
</svg>
