<?xml version="1.0" encoding="UTF-8" standalone="no"?>
<!DOCTYPE svg PUBLIC "-//W3C//DTD SVG 1.1//EN"
 "http://www.w3.org/Graphics/SVG/1.1/DTD/svg11.dtd">
<!-- Generated by graphviz version 2.40.1 (20161225.0304)
 -->
<!-- Title: Graphical Class Hierarchy Pages: 1 -->
<svg width="244pt" height="66pt"
 viewBox="0.00 0.00 244.00 66.00" xmlns="http://www.w3.org/2000/svg" xmlns:xlink="http://www.w3.org/1999/xlink">
<g id="graph0" class="graph" transform="scale(1 1) rotate(0) translate(4 62)">
<title>Graphical Class Hierarchy</title>
<polygon fill="#ffffff" stroke="transparent" points="-4,4 -4,-62 240,-62 240,4 -4,4"/>
<!-- Node1 -->
<g id="node1" class="node">
<title>Node1</title>
<polygon fill="#ffffff" stroke="#bfbfbf" points="0,-19.5 0,-38.5 52,-38.5 52,-19.5 0,-19.5"/>
<text text-anchor="middle" x="26" y="-26.5" font-family="RobotoMono" font-size="10.00" fill="#000000">Stream</text>
</g>
<!-- Node0 -->
<g id="node2" class="node">
<title>Node0</title>
<g id="a_node2"><a xlink:href="classeagle__impl_1_1SoftwareSerial.html" target="_top" xlink:title="[328p] This is used to avoid path resolving issues and defines the common known Arduino SoftwareSeria...">
<polygon fill="#ffffff" stroke="#000000" points="88,-38.5 88,-57.5 236,-57.5 236,-38.5 88,-38.5"/>
<text text-anchor="middle" x="162" y="-45.5" font-family="RobotoMono" font-size="10.00" fill="#000000">eagle_impl::SoftwareSerial</text>
</a>
</g>
</g>
<!-- Node1&#45;&gt;Node0 -->
<g id="edge1" class="edge">
<title>Node1&#45;&gt;Node0</title>
<path fill="none" stroke="#191970" d="M62.2998,-34.0713C72.0398,-35.432 82.8976,-36.9489 93.7634,-38.4669"/>
<polygon fill="#191970" stroke="#191970" points="62.6103,-30.5808 52.2222,-32.6634 61.6417,-37.5134 62.6103,-30.5808"/>
</g>
<!-- Node3 -->
<g id="node3" class="node">
<title>Node3</title>
<g id="a_node3"><a xlink:href="classeagle__impl_1_1TwoWire.html" target="_top" xlink:title="[I2C] This is used to avoid path resolving issues and defines the common known Arduino Wire&#45;Interface...">
<polygon fill="#ffffff" stroke="#000000" points="103,-.5 103,-19.5 221,-19.5 221,-.5 103,-.5"/>
<text text-anchor="middle" x="162" y="-7.5" font-family="RobotoMono" font-size="10.00" fill="#000000">eagle_impl::TwoWire</text>
</a>
</g>
</g>
<!-- Node1&#45;&gt;Node3 -->
<g id="edge2" class="edge">
<title>Node1&#45;&gt;Node3</title>
<path fill="none" stroke="#191970" d="M62.2316,-23.9382C74.7258,-22.1927 89.0656,-20.1894 102.9047,-18.256"/>
<polygon fill="#191970" stroke="#191970" points="61.6417,-20.4866 52.2222,-25.3366 62.6103,-27.4192 61.6417,-20.4866"/>
</g>
</g>
</svg>
