<?xml version="1.0" encoding="UTF-8" standalone="no"?>
<!DOCTYPE svg PUBLIC "-//W3C//DTD SVG 1.1//EN"
 "http://www.w3.org/Graphics/SVG/1.1/DTD/svg11.dtd">
<!-- Generated by graphviz version 2.38.0 (20140413.2041)
 -->
<!-- Title: Graphical Class Hierarchy Pages: 1 -->
<svg width="172pt" height="66pt"
 viewBox="0.00 0.00 172.00 66.00" xmlns="http://www.w3.org/2000/svg" xmlns:xlink="http://www.w3.org/1999/xlink">
<g id="graph0" class="graph" transform="scale(1 1) rotate(0) translate(4 62)">
<title>Graphical Class Hierarchy</title>
<polygon fill="white" stroke="none" points="-4,4 -4,-62 168,-62 168,4 -4,4"/>
<!-- Node1 -->
<g id="node1" class="node"><title>Node1</title>
<polygon fill="white" stroke="#bfbfbf" points="0,-19.5 0,-38.5 48,-38.5 48,-19.5 0,-19.5"/>
<text text-anchor="middle" x="24" y="-26.5" font-family="Helvetica,sans-Serif" font-size="10.00">Stream</text>
</g>
<!-- Node0 -->
<g id="node2" class="node"><title>Node0</title>
<g id="a_node2"><a xlink:href="classSoftwareSerial.html" target="_top" xlink:title="This is used to avoid path resolving issues and defines the common known Arduino SoftwareSerial inter...">
<polygon fill="white" stroke="black" points="84,-38.5 84,-57.5 164,-57.5 164,-38.5 84,-38.5"/>
<text text-anchor="middle" x="124" y="-45.5" font-family="Helvetica,sans-Serif" font-size="10.00">SoftwareSerial</text>
</a>
</g>
</g>
<!-- Node1&#45;&gt;Node0 -->
<g id="edge1" class="edge"><title>Node1&#45;&gt;Node0</title>
<path fill="none" stroke="midnightblue" d="M58.2202,-35.4406C66.4566,-37.0375 75.3589,-38.7635 83.8497,-40.4096"/>
<polygon fill="midnightblue" stroke="midnightblue" points="58.708,-31.9701 48.2246,-33.5027 57.3756,-38.8422 58.708,-31.9701"/>
</g>
<!-- Node3 -->
<g id="node3" class="node"><title>Node3</title>
<g id="a_node3"><a xlink:href="classTwoWire.html" target="_top" xlink:title="This is used to avoid path resolving issues and defines the common known Arduino Wire&#45;Interface &#160;&#160;&#160;&#160;&#160;...">
<polygon fill="white" stroke="black" points="96,-0.5 96,-19.5 152,-19.5 152,-0.5 96,-0.5"/>
<text text-anchor="middle" x="124" y="-7.5" font-family="Helvetica,sans-Serif" font-size="10.00">TwoWire</text>
</a>
</g>
</g>
<!-- Node1&#45;&gt;Node3 -->
<g id="edge2" class="edge"><title>Node1&#45;&gt;Node3</title>
<path fill="none" stroke="midnightblue" d="M58.0917,-22.5843C70.3484,-20.208 84.0946,-17.5429 95.7707,-15.2792"/>
<polygon fill="midnightblue" stroke="midnightblue" points="57.3756,-19.1578 48.2246,-24.4973 58.708,-26.0299 57.3756,-19.1578"/>
</g>
</g>
</svg>
