<?xml version="1.0" encoding="UTF-8" standalone="no"?>
<!DOCTYPE svg PUBLIC "-//W3C//DTD SVG 1.1//EN"
 "http://www.w3.org/Graphics/SVG/1.1/DTD/svg11.dtd">
<!-- Generated by graphviz version 2.40.1 (20161225.0304)
 -->
<!-- Title: Graphical Class Hierarchy Pages: 1 -->
<svg width="270pt" height="66pt"
 viewBox="0.00 0.00 270.00 66.00" xmlns="http://www.w3.org/2000/svg" xmlns:xlink="http://www.w3.org/1999/xlink">
<g id="graph0" class="graph" transform="scale(1 1) rotate(0) translate(4 62)">
<title>Graphical Class Hierarchy</title>
<polygon fill="#ffffff" stroke="transparent" points="-4,4 -4,-62 266,-62 266,4 -4,4"/>
<!-- Node1 -->
<g id="node1" class="node">
<title>Node1</title>
<polygon fill="#ffffff" stroke="#bfbfbf" points="0,-19.5 0,-38.5 53,-38.5 53,-19.5 0,-19.5"/>
<text text-anchor="middle" x="26.5" y="-26.5" font-family="Hack" font-size="10.00" fill="#000000">Stream</text>
</g>
<!-- Node0 -->
<g id="node2" class="node">
<title>Node0</title>
<g id="a_node2"><a xlink:href="classeagle__impl_1_1SoftwareSerial.html" target="_top" xlink:title="[328p] This is used to avoid path resolving issues and defines the common known Arduino SoftwareSeria...">
<polygon fill="#ffffff" stroke="#000000" points="89,-38.5 89,-57.5 262,-57.5 262,-38.5 89,-38.5"/>
<text text-anchor="middle" x="175.5" y="-45.5" font-family="Hack" font-size="10.00" fill="#000000">eagle_impl::SoftwareSerial</text>
</a>
</g>
</g>
<!-- Node1&#45;&gt;Node0 -->
<g id="edge1" class="edge">
<title>Node1&#45;&gt;Node0</title>
<path fill="none" stroke="#191970" d="M63.1647,-33.6754C74.6314,-35.1376 87.726,-36.8073 100.8278,-38.478"/>
<polygon fill="#191970" stroke="#191970" points="63.5006,-30.1899 53.1382,-32.3968 62.6151,-37.1337 63.5006,-30.1899"/>
</g>
<!-- Node3 -->
<g id="node3" class="node">
<title>Node3</title>
<g id="a_node3"><a xlink:href="classeagle__impl_1_1TwoWire.html" target="_top" xlink:title="[I2C] This is used to avoid path resolving issues and defines the common known Arduino Wire&#45;Interface...">
<polygon fill="#ffffff" stroke="#000000" points="110,-.5 110,-19.5 241,-19.5 241,-.5 110,-.5"/>
<text text-anchor="middle" x="175.5" y="-7.5" font-family="Hack" font-size="10.00" fill="#000000">eagle_impl::TwoWire</text>
</a>
</g>
</g>
<!-- Node1&#45;&gt;Node3 -->
<g id="edge2" class="edge">
<title>Node1&#45;&gt;Node3</title>
<path fill="none" stroke="#191970" d="M63.348,-24.3013C77.3794,-22.512 93.8283,-20.4145 109.7381,-18.3857"/>
<polygon fill="#191970" stroke="#191970" points="62.6151,-20.8663 53.1382,-25.6032 63.5006,-27.8101 62.6151,-20.8663"/>
</g>
</g>
</svg>
