<?xml version="1.0" encoding="UTF-8" standalone="no"?>
<!DOCTYPE svg PUBLIC "-//W3C//DTD SVG 1.1//EN"
 "http://www.w3.org/Graphics/SVG/1.1/DTD/svg11.dtd">
<!-- Generated by graphviz version 2.40.1 (20161225.0304)
 -->
<!-- Title: main Pages: 1 -->
<svg width="246pt" height="256pt"
 viewBox="0.00 0.00 246.00 256.00" xmlns="http://www.w3.org/2000/svg" xmlns:xlink="http://www.w3.org/1999/xlink">
<g id="graph0" class="graph" transform="scale(1 1) rotate(0) translate(4 252)">
<title>main</title>
<polygon fill="#ffffff" stroke="transparent" points="-4,4 -4,-252 242,-252 242,4 -4,4"/>
<!-- Node0 -->
<g id="node1" class="node">
<title>Node0</title>
<polygon fill="#bfbfbf" stroke="#000000" points="0,-114.5 0,-133.5 41,-133.5 41,-114.5 0,-114.5"/>
<text text-anchor="middle" x="20.5" y="-121.5" font-family="Hack" font-size="10.00" fill="#000000">main</text>
</g>
<!-- Node1 -->
<g id="node2" class="node">
<title>Node1</title>
<g id="a_node2"><a xlink:href="structDynamixelBoard.html#a9b6d6166eaa2c42e87f424b54edce510" target="_top" xlink:title="will force every AX12Servo to drive to AX12Servo::storedPos with AX12Servo::storedSpeed ...">
<polygon fill="#ffffff" stroke="#000000" points="83,-228.5 83,-247.5 232,-247.5 232,-228.5 83,-228.5"/>
<text text-anchor="middle" x="157.5" y="-235.5" font-family="Hack" font-size="10.00" fill="#000000">DynamixelBoard::action</text>
</a>
</g>
</g>
<!-- Node0&#45;&gt;Node1 -->
<g id="edge1" class="edge">
<title>Node0&#45;&gt;Node1</title>
<path fill="none" stroke="#191970" d="M23.3588,-133.5426C29.6663,-152.8829 46.6759,-196.7497 77,-219 79.5235,-220.8516 82.2009,-222.5257 84.9876,-224.039"/>
<polygon fill="#191970" stroke="#191970" points="83.6639,-227.2836 94.2054,-228.3456 86.6269,-220.9417 83.6639,-227.2836"/>
</g>
<!-- Node2 -->
<g id="node3" class="node">
<title>Node2</title>
<g id="a_node3"><a xlink:href="structLCD.html#aa01b7522d1e210f9cd071e3a5d4ae9e6" target="_top" xlink:title="changes the background of the display ">
<polygon fill="#ffffff" stroke="#000000" points="86,-190.5 86,-209.5 229,-209.5 229,-190.5 86,-190.5"/>
<text text-anchor="middle" x="157.5" y="-197.5" font-family="Hack" font-size="10.00" fill="#000000">LCD::changeBackground</text>
</a>
</g>
</g>
<!-- Node0&#45;&gt;Node2 -->
<g id="edge2" class="edge">
<title>Node0&#45;&gt;Node2</title>
<path fill="none" stroke="#191970" d="M27.3368,-133.7079C36.9244,-146.5657 55.6071,-169.0114 77,-181 80.9831,-183.2321 85.2187,-185.2029 89.5825,-186.9428"/>
<polygon fill="#191970" stroke="#191970" points="88.6978,-190.3428 99.2925,-190.3948 91.0426,-183.7472 88.6978,-190.3428"/>
</g>
<!-- Node3 -->
<g id="node4" class="node">
<title>Node3</title>
<g id="a_node4"><a xlink:href="structLCD.html#ad3120f397273bac2ad60e0291554b9e6" target="_top" xlink:title="clears the LCD ">
<polygon fill="#ffffff" stroke="#000000" points="119,-152.5 119,-171.5 196,-171.5 196,-152.5 119,-152.5"/>
<text text-anchor="middle" x="157.5" y="-159.5" font-family="Hack" font-size="10.00" fill="#000000">LCD::clear</text>
</a>
</g>
</g>
<!-- Node0&#45;&gt;Node3 -->
<g id="edge3" class="edge">
<title>Node0&#45;&gt;Node3</title>
<path fill="none" stroke="#191970" d="M41.0196,-131.4106C51.6782,-135.1297 64.959,-139.5624 77,-143 87.2546,-145.9276 98.3342,-148.7556 108.8971,-151.2954"/>
<polygon fill="#191970" stroke="#191970" points="108.286,-154.7472 118.8224,-153.636 109.8927,-147.9341 108.286,-154.7472"/>
</g>
<!-- Node4 -->
<g id="node5" class="node">
<title>Node4</title>
<g id="a_node5"><a xlink:href="structAX12Servo.html#a8027cdd101d213b8f7d2c1988fd87fcb" target="_top" xlink:title="This &quot;kind of&quot; returns the Servo&#45;Position. ">
<polygon fill="#ffffff" stroke="#000000" points="83,-114.5 83,-133.5 232,-133.5 232,-114.5 83,-114.5"/>
<text text-anchor="middle" x="157.5" y="-121.5" font-family="Hack" font-size="10.00" fill="#000000">AX12Servo::getPosition</text>
</a>
</g>
</g>
<!-- Node0&#45;&gt;Node4 -->
<g id="edge4" class="edge">
<title>Node0&#45;&gt;Node4</title>
<path fill="none" stroke="#191970" d="M41.0103,-124C49.9327,-124 61.0382,-124 72.8211,-124"/>
<polygon fill="#191970" stroke="#191970" points="72.845,-127.5001 82.845,-124 72.845,-120.5001 72.845,-127.5001"/>
</g>
<!-- Node5 -->
<g id="node6" class="node">
<title>Node5</title>
<g id="a_node6"><a xlink:href="structLCD.html#a21c27f0eea9a6c281ddbb06b16ef7e56" target="_top" xlink:title="prints a string to the display ">
<polygon fill="#ffffff" stroke="#000000" points="119,-76.5 119,-95.5 196,-95.5 196,-76.5 119,-76.5"/>
<text text-anchor="middle" x="157.5" y="-83.5" font-family="Hack" font-size="10.00" fill="#000000">LCD::print</text>
</a>
</g>
</g>
<!-- Node0&#45;&gt;Node5 -->
<g id="edge5" class="edge">
<title>Node0&#45;&gt;Node5</title>
<path fill="none" stroke="#191970" d="M41.0196,-116.5894C51.6782,-112.8703 64.959,-108.4376 77,-105 87.2546,-102.0724 98.3342,-99.2444 108.8971,-96.7046"/>
<polygon fill="#191970" stroke="#191970" points="109.8927,-100.0659 118.8224,-94.364 108.286,-93.2528 109.8927,-100.0659"/>
</g>
<!-- Node6 -->
<g id="node7" class="node">
<title>Node6</title>
<g id="a_node7"><a xlink:href="structSoccerBoard.html#a30d756751a9866cd4547b2041921463f" target="_top" xlink:title="Say goodnight! ">
<polygon fill="#ffffff" stroke="#000000" points="95,-38.5 95,-57.5 220,-57.5 220,-38.5 95,-38.5"/>
<text text-anchor="middle" x="157.5" y="-45.5" font-family="Hack" font-size="10.00" fill="#000000">SoccerBoard::sleep</text>
</a>
</g>
</g>
<!-- Node0&#45;&gt;Node6 -->
<g id="edge6" class="edge">
<title>Node0&#45;&gt;Node6</title>
<path fill="none" stroke="#191970" d="M27.3368,-114.2921C36.9244,-101.4343 55.6071,-78.9886 77,-67 80.9831,-64.7679 85.2187,-62.7971 89.5825,-61.0572"/>
<polygon fill="#191970" stroke="#191970" points="91.0426,-64.2528 99.2925,-57.6052 88.6978,-57.6572 91.0426,-64.2528"/>
</g>
<!-- Node7 -->
<g id="node8" class="node">
<title>Node7</title>
<g id="a_node8"><a xlink:href="structAX12Servo.html#ab4370f84cb53a93880f58c270c290c94" target="_top" xlink:title="This saves the Servo Position. ">
<polygon fill="#ffffff" stroke="#000000" points="77,-.5 77,-19.5 238,-19.5 238,-.5 77,-.5"/>
<text text-anchor="middle" x="157.5" y="-7.5" font-family="Hack" font-size="10.00" fill="#000000">AX12Servo::storePosition</text>
</a>
</g>
</g>
<!-- Node0&#45;&gt;Node7 -->
<g id="edge7" class="edge">
<title>Node0&#45;&gt;Node7</title>
<path fill="none" stroke="#191970" d="M23.3588,-114.4574C29.6663,-95.1171 46.6759,-51.2503 77,-29 79.5235,-27.1484 82.2009,-25.4743 84.9876,-23.961"/>
<polygon fill="#191970" stroke="#191970" points="86.6269,-27.0583 94.2054,-19.6544 83.6639,-20.7164 86.6269,-27.0583"/>
</g>
</g>
</svg>
