<?xml version="1.0" encoding="UTF-8" standalone="no"?>
<!DOCTYPE svg PUBLIC "-//W3C//DTD SVG 1.1//EN"
 "http://www.w3.org/Graphics/SVG/1.1/DTD/svg11.dtd">
<!-- Generated by graphviz version 2.38.0 (20140413.2041)
 -->
<!-- Title: main Pages: 1 -->
<svg width="1254pt" height="413pt"
 viewBox="0.00 0.00 1254.00 413.40" xmlns="http://www.w3.org/2000/svg" xmlns:xlink="http://www.w3.org/1999/xlink">
<g id="graph0" class="graph" transform="scale(1 1) rotate(0) translate(4 409.402)">
<title>main</title>
<polygon fill="white" stroke="none" points="-4,4 -4,-409.402 1250,-409.402 1250,4 -4,4"/>
<!-- Node0 -->
<g id="node1" class="node"><title>Node0</title>
<polygon fill="#bfbfbf" stroke="black" points="0,-151.402 0,-170.402 38,-170.402 38,-151.402 0,-151.402"/>
<text text-anchor="middle" x="19" y="-158.402" font-family="Helvetica,sans-Serif" font-size="10.00">main</text>
</g>
<!-- Node1 -->
<g id="node2" class="node"><title>Node1</title>
<g id="a_node2"><a xlink:href="structDynamixelBoard.html#a9b6d6166eaa2c42e87f424b54edce510" target="_top" xlink:title="DynamixelBoard::action">
<polygon fill="white" stroke="black" points="78,-314.402 78,-333.402 199,-333.402 199,-314.402 78,-314.402"/>
<text text-anchor="middle" x="138.5" y="-321.402" font-family="Helvetica,sans-Serif" font-size="10.00">DynamixelBoard::action</text>
</a>
</g>
</g>
<!-- Node0&#45;&gt;Node1 -->
<g id="edge1" class="edge"><title>Node0&#45;&gt;Node1</title>
<path fill="none" stroke="midnightblue" d="M22.8714,-170.605C29.3732,-191.404 46.8028,-241.131 74,-274.902 84.7865,-288.296 99.9441,-300.171 112.745,-308.875"/>
<polygon fill="midnightblue" stroke="midnightblue" points="110.864,-311.827 121.148,-314.374 114.697,-305.97 110.864,-311.827"/>
</g>
<!-- Node9 -->
<g id="node10" class="node"><title>Node9</title>
<g id="a_node10"><a xlink:href="structLCD.html#aa01b7522d1e210f9cd071e3a5d4ae9e6" target="_top" xlink:title="LCD::changeBackground">
<polygon fill="white" stroke="black" points="75.5,-189.402 75.5,-208.402 201.5,-208.402 201.5,-189.402 75.5,-189.402"/>
<text text-anchor="middle" x="138.5" y="-196.402" font-family="Helvetica,sans-Serif" font-size="10.00">LCD::changeBackground</text>
</a>
</g>
</g>
<!-- Node0&#45;&gt;Node9 -->
<g id="edge10" class="edge"><title>Node0&#45;&gt;Node9</title>
<path fill="none" stroke="midnightblue" d="M38.4205,-167.628C48.8245,-171.365 62.092,-176.028 74,-179.902 80.6169,-182.055 87.6508,-184.251 94.5355,-186.349"/>
<polygon fill="midnightblue" stroke="midnightblue" points="93.865,-189.803 104.45,-189.338 95.8853,-183.101 93.865,-189.803"/>
</g>
<!-- Node19 -->
<g id="node20" class="node"><title>Node19</title>
<g id="a_node20"><a xlink:href="structLCD.html#ad3120f397273bac2ad60e0291554b9e6" target="_top" xlink:title="LCD::clear">
<polygon fill="white" stroke="black" points="426.5,-298.402 426.5,-317.402 490.5,-317.402 490.5,-298.402 426.5,-298.402"/>
<text text-anchor="middle" x="458.5" y="-305.402" font-family="Helvetica,sans-Serif" font-size="10.00">LCD::clear</text>
</a>
</g>
</g>
<!-- Node0&#45;&gt;Node19 -->
<g id="edge41" class="edge"><title>Node0&#45;&gt;Node19</title>
<path fill="none" stroke="midnightblue" d="M26.4299,-170.621C35.4748,-183.491 53.1972,-205.951 74,-217.902 186.474,-282.52 342.802,-300.791 416.259,-305.921"/>
<polygon fill="midnightblue" stroke="midnightblue" points="416.274,-309.43 426.48,-306.587 416.729,-302.444 416.274,-309.43"/>
</g>
<!-- Node22 -->
<g id="node23" class="node"><title>Node22</title>
<g id="a_node23"><a xlink:href="structAX12Servo.html#a8027cdd101d213b8f7d2c1988fd87fcb" target="_top" xlink:title="AX12Servo::getPosition">
<polygon fill="white" stroke="black" points="78,-151.402 78,-170.402 199,-170.402 199,-151.402 78,-151.402"/>
<text text-anchor="middle" x="138.5" y="-158.402" font-family="Helvetica,sans-Serif" font-size="10.00">AX12Servo::getPosition</text>
</a>
</g>
</g>
<!-- Node0&#45;&gt;Node22 -->
<g id="edge42" class="edge"><title>Node0&#45;&gt;Node22</title>
<path fill="none" stroke="midnightblue" d="M38.1019,-160.902C46.382,-160.902 56.7751,-160.902 67.6969,-160.902"/>
<polygon fill="midnightblue" stroke="midnightblue" points="67.8303,-164.403 77.8303,-160.902 67.8302,-157.403 67.8303,-164.403"/>
</g>
<!-- Node23 -->
<g id="node24" class="node"><title>Node23</title>
<g id="a_node24"><a xlink:href="structLCD.html#a21c27f0eea9a6c281ddbb06b16ef7e56" target="_top" xlink:title="LCD::print">
<polygon fill="white" stroke="black" points="107.5,-113.402 107.5,-132.402 169.5,-132.402 169.5,-113.402 107.5,-113.402"/>
<text text-anchor="middle" x="138.5" y="-120.402" font-family="Helvetica,sans-Serif" font-size="10.00">LCD::print</text>
</a>
</g>
</g>
<!-- Node0&#45;&gt;Node23 -->
<g id="edge43" class="edge"><title>Node0&#45;&gt;Node23</title>
<path fill="none" stroke="midnightblue" d="M38.4205,-154.177C48.8245,-150.44 62.092,-145.776 74,-141.902 81.6171,-139.424 89.7868,-136.889 97.6454,-134.511"/>
<polygon fill="midnightblue" stroke="midnightblue" points="98.7929,-137.821 107.368,-131.599 96.7844,-131.115 98.7929,-137.821"/>
</g>
<!-- Node24 -->
<g id="node25" class="node"><title>Node24</title>
<g id="a_node25"><a xlink:href="structSoccerBoard.html#a30d756751a9866cd4547b2041921463f" target="_top" xlink:title="SoccerBoard::sleep">
<polygon fill="white" stroke="black" points="87.5,-75.4024 87.5,-94.4024 189.5,-94.4024 189.5,-75.4024 87.5,-75.4024"/>
<text text-anchor="middle" x="138.5" y="-82.4024" font-family="Helvetica,sans-Serif" font-size="10.00">SoccerBoard::sleep</text>
</a>
</g>
</g>
<!-- Node0&#45;&gt;Node24 -->
<g id="edge44" class="edge"><title>Node0&#45;&gt;Node24</title>
<path fill="none" stroke="midnightblue" d="M26.538,-151.365C35.7056,-138.701 53.5665,-116.475 74,-103.902 77.4302,-101.792 81.1095,-99.9033 84.9055,-98.2154"/>
<polygon fill="midnightblue" stroke="midnightblue" points="86.4929,-101.352 94.5066,-94.4211 83.9201,-94.8414 86.4929,-101.352"/>
</g>
<!-- Node25 -->
<g id="node26" class="node"><title>Node25</title>
<g id="a_node26"><a xlink:href="structAX12Servo.html#ab4370f84cb53a93880f58c270c290c94" target="_top" xlink:title="AX12Servo::storePosition">
<polygon fill="white" stroke="black" points="74,-37.4024 74,-56.4024 203,-56.4024 203,-37.4024 74,-37.4024"/>
<text text-anchor="middle" x="138.5" y="-44.4024" font-family="Helvetica,sans-Serif" font-size="10.00">AX12Servo::storePosition</text>
</a>
</g>
</g>
<!-- Node0&#45;&gt;Node25 -->
<g id="edge45" class="edge"><title>Node0&#45;&gt;Node25</title>
<path fill="none" stroke="midnightblue" d="M22.8069,-151.216C28.8751,-132.003 45.0568,-88.9427 74,-65.9024 76.2789,-64.0883 78.7279,-62.4472 81.2912,-60.9626"/>
<polygon fill="midnightblue" stroke="midnightblue" points="82.9401,-64.052 90.365,-56.4941 79.8476,-57.7722 82.9401,-64.052"/>
</g>
<!-- Node2 -->
<g id="node3" class="node"><title>Node2</title>
<g id="a_node3"><a xlink:href="structAX12Servo.html#ae6005da90335d13c253a246edb247178" target="_top" xlink:title="AX12Servo::setPosition">
<polygon fill="white" stroke="black" points="239,-339.402 239,-358.402 360,-358.402 360,-339.402 239,-339.402"/>
<text text-anchor="middle" x="299.5" y="-346.402" font-family="Helvetica,sans-Serif" font-size="10.00">AX12Servo::setPosition</text>
</a>
</g>
</g>
<!-- Node1&#45;&gt;Node2 -->
<g id="edge2" class="edge"><title>Node1&#45;&gt;Node2</title>
<path fill="none" stroke="midnightblue" d="M199.158,-333.283C208.772,-334.794 218.8,-336.371 228.628,-337.916"/>
<polygon fill="midnightblue" stroke="midnightblue" points="228.35,-341.415 238.772,-339.511 229.437,-334.5 228.35,-341.415"/>
</g>
<!-- Node3 -->
<g id="node4" class="node"><title>Node3</title>
<g id="a_node4"><a xlink:href="structServoCds55.html#a6540f6d9023ec5e2541e76d647a2b0e2" target="_top" xlink:title="ServoCds55::setVelocity">
<polygon fill="white" stroke="black" points="396,-377.402 396,-396.402 521,-396.402 521,-377.402 396,-377.402"/>
<text text-anchor="middle" x="458.5" y="-384.402" font-family="Helvetica,sans-Serif" font-size="10.00">ServoCds55::setVelocity</text>
</a>
</g>
</g>
<!-- Node2&#45;&gt;Node3 -->
<g id="edge3" class="edge"><title>Node2&#45;&gt;Node3</title>
<path fill="none" stroke="midnightblue" d="M340.118,-358.491C360.836,-363.506 386.388,-369.69 408.356,-375.008"/>
<polygon fill="midnightblue" stroke="midnightblue" points="407.624,-378.432 418.167,-377.382 409.271,-371.628 407.624,-378.432"/>
</g>
<!-- Node4 -->
<g id="node5" class="node"><title>Node4</title>
<g id="a_node5"><a xlink:href="structServoCds55.html#ab74eb7a47800fedd7405adca0bf1e935" target="_top" xlink:title="ServoCds55::write">
<polygon fill="white" stroke="black" points="409.5,-339.402 409.5,-358.402 507.5,-358.402 507.5,-339.402 409.5,-339.402"/>
<text text-anchor="middle" x="458.5" y="-346.402" font-family="Helvetica,sans-Serif" font-size="10.00">ServoCds55::write</text>
</a>
</g>
</g>
<!-- Node2&#45;&gt;Node4 -->
<g id="edge4" class="edge"><title>Node2&#45;&gt;Node4</title>
<path fill="none" stroke="midnightblue" d="M360.303,-348.902C372.895,-348.902 386.169,-348.902 398.723,-348.902"/>
<polygon fill="midnightblue" stroke="midnightblue" points="399.069,-352.403 409.069,-348.902 399.069,-345.403 399.069,-352.403"/>
</g>
<!-- Node5 -->
<g id="node6" class="node"><title>Node5</title>
<g id="a_node6"><a xlink:href="structServoCds55.html#a5d77d36691d8a0fab7cf841a4feef530" target="_top" xlink:title="ServoCds55::SetServoLimit">
<polygon fill="white" stroke="black" points="557,-377.402 557,-396.402 695,-396.402 695,-377.402 557,-377.402"/>
<text text-anchor="middle" x="626" y="-384.402" font-family="Helvetica,sans-Serif" font-size="10.00">ServoCds55::SetServoLimit</text>
</a>
</g>
</g>
<!-- Node4&#45;&gt;Node5 -->
<g id="edge5" class="edge"><title>Node4&#45;&gt;Node5</title>
<path fill="none" stroke="midnightblue" d="M501.263,-358.491C523.201,-363.529 550.28,-369.746 573.508,-375.079"/>
<polygon fill="midnightblue" stroke="midnightblue" points="573.008,-378.556 583.538,-377.382 574.575,-371.733 573.008,-378.556"/>
</g>
<!-- Node8 -->
<g id="node9" class="node"><title>Node8</title>
<g id="a_node9"><a xlink:href="structServoCds55.html#a78620c3a9f22c9a37449ba01c5bd08f3" target="_top" xlink:title="ServoCds55::WritePos">
<polygon fill="white" stroke="black" points="567.5,-339.402 567.5,-358.402 684.5,-358.402 684.5,-339.402 567.5,-339.402"/>
<text text-anchor="middle" x="626" y="-346.402" font-family="Helvetica,sans-Serif" font-size="10.00">ServoCds55::WritePos</text>
</a>
</g>
</g>
<!-- Node4&#45;&gt;Node8 -->
<g id="edge8" class="edge"><title>Node4&#45;&gt;Node8</title>
<path fill="none" stroke="midnightblue" d="M507.814,-348.902C523.221,-348.902 540.567,-348.902 557.096,-348.902"/>
<polygon fill="midnightblue" stroke="midnightblue" points="557.257,-352.403 567.257,-348.902 557.257,-345.403 557.257,-352.403"/>
</g>
<!-- Node6 -->
<g id="node7" class="node"><title>Node6</title>
<g id="a_node7"><a xlink:href="structServoCds55.html#a0ddbf204d991dae881cc22b8985efee3" target="_top" xlink:title="ServoCds55::sendWait">
<polygon fill="white" stroke="black" points="731,-377.402 731,-396.402 849,-396.402 849,-377.402 731,-377.402"/>
<text text-anchor="middle" x="790" y="-384.402" font-family="Helvetica,sans-Serif" font-size="10.00">ServoCds55::sendWait</text>
</a>
</g>
</g>
<!-- Node5&#45;&gt;Node6 -->
<g id="edge6" class="edge"><title>Node5&#45;&gt;Node6</title>
<path fill="none" stroke="midnightblue" d="M695.233,-386.902C703.655,-386.902 712.266,-386.902 720.69,-386.902"/>
<polygon fill="midnightblue" stroke="midnightblue" points="720.846,-390.403 730.846,-386.902 720.846,-383.403 720.846,-390.403"/>
</g>
<!-- Node7 -->
<g id="node8" class="node"><title>Node7</title>
<g id="a_node8"><a xlink:href="structeagle__impl_1_1SPIClass.html#a821dccd5dda20ccd9093fc35cce74ae5" target="_top" xlink:title="eagle_impl::SPIClass\l::transfer">
<polygon fill="white" stroke="black" points="885,-374.902 885,-404.902 996,-404.902 996,-374.902 885,-374.902"/>
<text text-anchor="start" x="893" y="-392.902" font-family="Helvetica,sans-Serif" font-size="10.00">eagle_impl::SPIClass</text>
<text text-anchor="middle" x="940.5" y="-381.902" font-family="Helvetica,sans-Serif" font-size="10.00">::transfer</text>
</a>
</g>
</g>
<!-- Node6&#45;&gt;Node7 -->
<g id="edge7" class="edge"><title>Node6&#45;&gt;Node7</title>
<path fill="none" stroke="midnightblue" d="M849.265,-388.079C857.584,-388.248 866.183,-388.421 874.619,-388.592"/>
<polygon fill="midnightblue" stroke="midnightblue" points="874.729,-392.095 884.797,-388.797 874.87,-385.096 874.729,-392.095"/>
</g>
<!-- Node8&#45;&gt;Node6 -->
<g id="edge9" class="edge"><title>Node8&#45;&gt;Node6</title>
<path fill="none" stroke="midnightblue" d="M667.879,-358.491C689.353,-363.529 715.86,-369.746 738.597,-375.079"/>
<polygon fill="midnightblue" stroke="midnightblue" points="737.879,-378.506 748.415,-377.382 739.478,-371.691 737.879,-378.506"/>
</g>
<!-- Node10 -->
<g id="node11" class="node"><title>Node10</title>
<g id="a_node11"><a xlink:href="structLCD.html#a632d9c641930fe16c0b623b82136196e" target="_top" xlink:title="LCD::init">
<polygon fill="white" stroke="black" points="271.5,-189.402 271.5,-208.402 327.5,-208.402 327.5,-189.402 271.5,-189.402"/>
<text text-anchor="middle" x="299.5" y="-196.402" font-family="Helvetica,sans-Serif" font-size="10.00">LCD::init</text>
</a>
</g>
</g>
<!-- Node9&#45;&gt;Node10 -->
<g id="edge11" class="edge"><title>Node9&#45;&gt;Node10</title>
<path fill="none" stroke="midnightblue" d="M201.885,-192.293C221.77,-191.961 243.155,-192.216 260.738,-193.059"/>
<polygon fill="midnightblue" stroke="midnightblue" points="260.962,-196.577 271.147,-193.659 261.365,-189.589 260.962,-196.577"/>
</g>
<!-- Node12 -->
<g id="node13" class="node"><title>Node12</title>
<g id="a_node13"><a xlink:href="structLCD.html#a739998fad0591a092255676c8c8d532f" target="_top" xlink:title="LCD::s1Cmd">
<polygon fill="white" stroke="black" points="903.5,-146.402 903.5,-165.402 977.5,-165.402 977.5,-146.402 903.5,-146.402"/>
<text text-anchor="middle" x="940.5" y="-153.402" font-family="Helvetica,sans-Serif" font-size="10.00">LCD::s1Cmd</text>
</a>
</g>
</g>
<!-- Node9&#45;&gt;Node12 -->
<g id="edge40" class="edge"><title>Node9&#45;&gt;Node12</title>
<path fill="none" stroke="midnightblue" d="M180.06,-189.32C187.89,-186.766 195.869,-183.648 203,-179.902 324.302,-116.182 320.48,-5.90241 457.5,-5.90241 457.5,-5.90241 457.5,-5.90241 627,-5.90241 726.341,-5.90241 763.21,18.1853 849,-31.9024 890.838,-56.3291 918.89,-108.587 931.64,-136.836"/>
<polygon fill="midnightblue" stroke="midnightblue" points="928.587,-138.594 935.774,-146.379 935.01,-135.812 928.587,-138.594"/>
</g>
<!-- Node10&#45;&gt;Node9 -->
<g id="edge23" class="edge"><title>Node10&#45;&gt;Node9</title>
<path fill="none" stroke="midnightblue" d="M271.147,-204.146C254.775,-205.273 233.124,-205.768 212.119,-205.63"/>
<polygon fill="midnightblue" stroke="midnightblue" points="211.925,-202.127 201.885,-205.511 211.843,-209.127 211.925,-202.127"/>
</g>
<!-- Node11 -->
<g id="node12" class="node"><title>Node11</title>
<g id="a_node12"><a xlink:href="structLCD.html#ae7a8d9bc1581cfeeb0f098c8bb6d1229" target="_top" xlink:title="LCD::s2Cmd">
<polygon fill="white" stroke="black" points="753,-128.402 753,-147.402 827,-147.402 827,-128.402 753,-128.402"/>
<text text-anchor="middle" x="790" y="-135.402" font-family="Helvetica,sans-Serif" font-size="10.00">LCD::s2Cmd</text>
</a>
</g>
</g>
<!-- Node10&#45;&gt;Node11 -->
<g id="edge12" class="edge"><title>Node10&#45;&gt;Node11</title>
<path fill="none" stroke="midnightblue" d="M315,-189.31C333.662,-182.272 367.123,-174.893 396,-169.902 520.187,-148.441 668.527,-136.668 742.398,-135.056"/>
<polygon fill="midnightblue" stroke="midnightblue" points="742.802,-138.55 752.745,-134.892 742.691,-131.551 742.802,-138.55"/>
</g>
<!-- Node17 -->
<g id="node18" class="node"><title>Node17</title>
<g id="a_node18"><a xlink:href="structLCD.html#ad31ee94d401b7c28d6cc2f472e2eb8fd" target="_top" xlink:title="LCD::changeMode">
<polygon fill="white" stroke="black" points="409.5,-34.4024 409.5,-53.4024 507.5,-53.4024 507.5,-34.4024 409.5,-34.4024"/>
<text text-anchor="middle" x="458.5" y="-41.4024" font-family="Helvetica,sans-Serif" font-size="10.00">LCD::changeMode</text>
</a>
</g>
</g>
<!-- Node10&#45;&gt;Node17 -->
<g id="edge20" class="edge"><title>Node10&#45;&gt;Node17</title>
<path fill="none" stroke="midnightblue" d="M303.376,-189.071C313.286,-163.131 348.065,-95.834 396,-58.9024 397.404,-57.8204 398.864,-56.7814 400.366,-55.7864"/>
<polygon fill="midnightblue" stroke="midnightblue" points="402.464,-58.6159 409.359,-50.5721 398.953,-52.5601 402.464,-58.6159"/>
</g>
<!-- Node18 -->
<g id="node19" class="node"><title>Node18</title>
<g id="a_node19"><a xlink:href="structLCD.html#a75cacb94de3b3ff71e9a4497b5cc4a81" target="_top" xlink:title="LCD::changeBrightness">
<polygon fill="white" stroke="black" points="565.5,-213.402 565.5,-232.402 686.5,-232.402 686.5,-213.402 565.5,-213.402"/>
<text text-anchor="middle" x="626" y="-220.402" font-family="Helvetica,sans-Serif" font-size="10.00">LCD::changeBrightness</text>
</a>
</g>
</g>
<!-- Node10&#45;&gt;Node18 -->
<g id="edge24" class="edge"><title>Node10&#45;&gt;Node18</title>
<path fill="none" stroke="midnightblue" d="M327.609,-196.961C377.77,-197.604 486.429,-205.089 557.587,-212.319"/>
<polygon fill="midnightblue" stroke="midnightblue" points="557.493,-215.828 567.802,-213.383 558.218,-208.866 557.493,-215.828"/>
</g>
<!-- Node10&#45;&gt;Node19 -->
<g id="edge29" class="edge"><title>Node10&#45;&gt;Node19</title>
<path fill="none" stroke="midnightblue" d="M323.924,-208.598C335.107,-216.519 348.522,-227.444 360,-237.902 376.959,-253.356 376.879,-262.222 396,-274.902 408.238,-283.018 423.631,-289.022 435.956,-294.123"/>
<polygon fill="midnightblue" stroke="midnightblue" points="434.882,-297.472 445.45,-298.223 437.657,-291.045 434.882,-297.472"/>
</g>
<!-- Node11&#45;&gt;Node10 -->
<g id="edge13" class="edge"><title>Node11&#45;&gt;Node10</title>
<path fill="none" stroke="midnightblue" d="M752.745,-145.209C683.177,-153.533 526.294,-165.386 396,-187.902 376.605,-191.254 355.141,-195.684 337.483,-198.68"/>
<polygon fill="midnightblue" stroke="midnightblue" points="336.895,-195.23 327.571,-200.26 337.997,-202.143 336.895,-195.23"/>
</g>
<!-- Node11&#45;&gt;Node12 -->
<g id="edge14" class="edge"><title>Node11&#45;&gt;Node12</title>
<path fill="none" stroke="midnightblue" d="M827.327,-142.306C847.177,-144.712 871.969,-147.717 893.195,-150.29"/>
<polygon fill="midnightblue" stroke="midnightblue" points="892.942,-153.785 903.291,-151.513 893.785,-146.835 892.942,-153.785"/>
</g>
<!-- Node12&#45;&gt;Node10 -->
<g id="edge15" class="edge"><title>Node12&#45;&gt;Node10</title>
<path fill="none" stroke="midnightblue" d="M921.773,-146.233C903.98,-137.119 875.482,-124.107 849,-118.902 797.54,-108.789 783.361,-115.942 731,-118.902 581.395,-127.36 540.666,-117.854 396,-156.902 371.728,-163.454 345.701,-175.248 326.958,-184.674"/>
<polygon fill="midnightblue" stroke="midnightblue" points="325.162,-181.662 317.868,-189.347 328.362,-187.888 325.162,-181.662"/>
</g>
<!-- Node13 -->
<g id="node14" class="node"><title>Node13</title>
<g id="a_node14"><a xlink:href="classeagle__impl_1_1TwoWire.html#a1876ffdb16fb185c14a75e1251cef5e4" target="_top" xlink:title="eagle_impl::TwoWire\l::beginTransmission">
<polygon fill="white" stroke="black" points="1032,-256.902 1032,-286.902 1140,-286.902 1140,-256.902 1032,-256.902"/>
<text text-anchor="start" x="1040" y="-274.902" font-family="Helvetica,sans-Serif" font-size="10.00">eagle_impl::TwoWire</text>
<text text-anchor="middle" x="1086" y="-263.902" font-family="Helvetica,sans-Serif" font-size="10.00">::beginTransmission</text>
</a>
</g>
</g>
<!-- Node12&#45;&gt;Node13 -->
<g id="edge16" class="edge"><title>Node12&#45;&gt;Node13</title>
<path fill="none" stroke="midnightblue" d="M949.027,-165.661C963.457,-183.841 996.727,-223.28 1032,-247.902 1033.88,-249.218 1035.85,-250.489 1037.87,-251.713"/>
<polygon fill="midnightblue" stroke="midnightblue" points="1036.55,-254.981 1046.99,-256.774 1039.95,-248.86 1036.55,-254.981"/>
</g>
<!-- Node14 -->
<g id="node15" class="node"><title>Node14</title>
<g id="a_node15"><a xlink:href="classeagle__impl_1_1TwoWire.html#a2b5f9f156b6d281746a2a6ca5707dad3" target="_top" xlink:title="eagle_impl::TwoWire\l::write">
<polygon fill="white" stroke="black" points="1032,-207.902 1032,-237.902 1140,-237.902 1140,-207.902 1032,-207.902"/>
<text text-anchor="start" x="1040" y="-225.902" font-family="Helvetica,sans-Serif" font-size="10.00">eagle_impl::TwoWire</text>
<text text-anchor="middle" x="1086" y="-214.902" font-family="Helvetica,sans-Serif" font-size="10.00">::write</text>
</a>
</g>
</g>
<!-- Node12&#45;&gt;Node14 -->
<g id="edge17" class="edge"><title>Node12&#45;&gt;Node14</title>
<path fill="none" stroke="midnightblue" d="M961.579,-165.572C979.885,-174.358 1007.7,-187.628 1032,-198.902 1035.36,-200.461 1038.84,-202.065 1042.35,-203.67"/>
<polygon fill="midnightblue" stroke="midnightblue" points="1041.05,-206.923 1051.6,-207.888 1043.95,-200.554 1041.05,-206.923"/>
</g>
<!-- Node16 -->
<g id="node17" class="node"><title>Node16</title>
<g id="a_node17"><a xlink:href="classeagle__impl_1_1TwoWire.html#af80f9a7b85a3a81a035ca94c95bcdc1d" target="_top" xlink:title="eagle_impl::TwoWire\l::endTransmission">
<polygon fill="white" stroke="black" points="1032,-158.902 1032,-188.902 1140,-188.902 1140,-158.902 1032,-158.902"/>
<text text-anchor="start" x="1040" y="-176.902" font-family="Helvetica,sans-Serif" font-size="10.00">eagle_impl::TwoWire</text>
<text text-anchor="middle" x="1086" y="-165.902" font-family="Helvetica,sans-Serif" font-size="10.00">::endTransmission</text>
</a>
</g>
</g>
<!-- Node12&#45;&gt;Node16 -->
<g id="edge19" class="edge"><title>Node12&#45;&gt;Node16</title>
<path fill="none" stroke="midnightblue" d="M977.711,-160.445C991.068,-162.12 1006.62,-164.071 1021.68,-165.96"/>
<polygon fill="midnightblue" stroke="midnightblue" points="1021.63,-169.481 1031.99,-167.253 1022.5,-162.535 1021.63,-169.481"/>
</g>
<!-- Node15 -->
<g id="node16" class="node"><title>Node15</title>
<g id="a_node16"><a xlink:href="eBoard_8h.html#abb66f08d8061c1064047324c1bacc2a9" target="_top" xlink:title="twi_transmit">
<polygon fill="white" stroke="black" points="1176,-213.402 1176,-232.402 1246,-232.402 1246,-213.402 1176,-213.402"/>
<text text-anchor="middle" x="1211" y="-220.402" font-family="Helvetica,sans-Serif" font-size="10.00">twi_transmit</text>
</a>
</g>
</g>
<!-- Node14&#45;&gt;Node15 -->
<g id="edge18" class="edge"><title>Node14&#45;&gt;Node15</title>
<path fill="none" stroke="midnightblue" d="M1140.23,-222.902C1148.73,-222.902 1157.43,-222.902 1165.69,-222.902"/>
<polygon fill="midnightblue" stroke="midnightblue" points="1165.85,-226.403 1175.85,-222.902 1165.85,-219.403 1165.85,-226.403"/>
</g>
<!-- Node17&#45;&gt;Node10 -->
<g id="edge21" class="edge"><title>Node17&#45;&gt;Node10</title>
<path fill="none" stroke="midnightblue" d="M444.169,-53.5772C430.918,-59.1333 410.527,-65.7103 396,-76.9024 358.272,-105.97 328.694,-153.848 312.976,-180.369"/>
<polygon fill="midnightblue" stroke="midnightblue" points="309.892,-178.708 307.823,-189.099 315.92,-182.266 309.892,-178.708"/>
</g>
<!-- Node17&#45;&gt;Node12 -->
<g id="edge22" class="edge"><title>Node17&#45;&gt;Node12</title>
<path fill="none" stroke="midnightblue" d="M507.546,-36.5629C583.656,-27.1378 734.996,-17.4737 849,-67.9024 883.044,-82.9614 911.754,-116.78 927.22,-137.833"/>
<polygon fill="midnightblue" stroke="midnightblue" points="924.546,-140.113 933.19,-146.239 930.253,-136.059 924.546,-140.113"/>
</g>
<!-- Node18&#45;&gt;Node10 -->
<g id="edge25" class="edge"><title>Node18&#45;&gt;Node10</title>
<path fill="none" stroke="midnightblue" d="M565.333,-223.858C498.842,-221.038 393.383,-212.947 337.725,-206.15"/>
<polygon fill="midnightblue" stroke="midnightblue" points="337.972,-202.653 327.609,-204.853 337.083,-209.596 337.972,-202.653"/>
</g>
<!-- Node18&#45;&gt;Node11 -->
<g id="edge26" class="edge"><title>Node18&#45;&gt;Node11</title>
<path fill="none" stroke="midnightblue" d="M652.929,-213.315C665.793,-208.286 681.44,-201.754 695,-194.902 720.179,-182.18 747.62,-165.147 766.316,-153.022"/>
<polygon fill="midnightblue" stroke="midnightblue" points="768.294,-155.91 774.743,-147.504 764.46,-150.054 768.294,-155.91"/>
</g>
<!-- Node18&#45;&gt;Node13 -->
<g id="edge27" class="edge"><title>Node18&#45;&gt;Node13</title>
<path fill="none" stroke="midnightblue" d="M654.805,-232.473C701.619,-248.027 799.449,-278.133 885,-288.902 933.947,-295.064 946.886,-293.551 996,-288.902 1004.33,-288.114 1013.04,-286.919 1021.61,-285.521"/>
<polygon fill="midnightblue" stroke="midnightblue" points="1022.32,-288.95 1031.58,-283.799 1021.13,-282.053 1022.32,-288.95"/>
</g>
<!-- Node18&#45;&gt;Node16 -->
<g id="edge28" class="edge"><title>Node18&#45;&gt;Node16</title>
<path fill="none" stroke="midnightblue" d="M686.876,-216.497C773.524,-207.226 933.16,-190.147 1021.69,-180.676"/>
<polygon fill="midnightblue" stroke="midnightblue" points="1022.29,-184.131 1031.86,-179.587 1021.55,-177.171 1022.29,-184.131"/>
</g>
<!-- Node19&#45;&gt;Node10 -->
<g id="edge30" class="edge"><title>Node19&#45;&gt;Node10</title>
<path fill="none" stroke="midnightblue" d="M426.205,-307.148C416.111,-303.879 405.17,-298.984 396,-292.902 376.879,-280.222 376.959,-271.356 360,-255.902 344.855,-242.103 326.339,-227.491 314.025,-216.092"/>
<polygon fill="midnightblue" stroke="midnightblue" points="316.181,-213.302 306.608,-208.762 311.261,-218.281 316.181,-213.302"/>
</g>
<!-- Node20 -->
<g id="node21" class="node"><title>Node20</title>
<g id="a_node21"><a xlink:href="structLCD.html#ad1a67d455563026a5064ef9cab86ae4d" target="_top" xlink:title="LCD::setCursor">
<polygon fill="white" stroke="black" points="583,-166.402 583,-185.402 669,-185.402 669,-166.402 583,-166.402"/>
<text text-anchor="middle" x="626" y="-173.402" font-family="Helvetica,sans-Serif" font-size="10.00">LCD::setCursor</text>
</a>
</g>
</g>
<!-- Node19&#45;&gt;Node20 -->
<g id="edge31" class="edge"><title>Node19&#45;&gt;Node20</title>
<path fill="none" stroke="midnightblue" d="M466.255,-298.29C480.767,-278.255 516.874,-231.598 557,-203.902 565.432,-198.082 575.26,-193.16 584.78,-189.144"/>
<polygon fill="midnightblue" stroke="midnightblue" points="586.131,-192.373 594.134,-185.43 583.548,-185.867 586.131,-192.373"/>
</g>
<!-- Node21 -->
<g id="node22" class="node"><title>Node21</title>
<g id="a_node22"><a xlink:href="structLCD.html#ae5873763db265cd00da32664cce88873" target="_top" xlink:title="LCD::s1Dat">
<polygon fill="white" stroke="black" points="906,-260.402 906,-279.402 975,-279.402 975,-260.402 906,-260.402"/>
<text text-anchor="middle" x="940.5" y="-267.402" font-family="Helvetica,sans-Serif" font-size="10.00">LCD::s1Dat</text>
</a>
</g>
</g>
<!-- Node19&#45;&gt;Node21 -->
<g id="edge35" class="edge"><title>Node19&#45;&gt;Node21</title>
<path fill="none" stroke="midnightblue" d="M490.633,-306.956C556.778,-304.732 716.135,-298.242 849,-283.902 864.283,-282.253 880.932,-279.852 895.734,-277.503"/>
<polygon fill="midnightblue" stroke="midnightblue" points="896.336,-280.951 905.647,-275.895 895.215,-274.042 896.336,-280.951"/>
</g>
<!-- Node20&#45;&gt;Node10 -->
<g id="edge32" class="edge"><title>Node20&#45;&gt;Node10</title>
<path fill="none" stroke="midnightblue" d="M582.891,-178.887C519.067,-183.411 398.838,-191.932 337.916,-196.25"/>
<polygon fill="midnightblue" stroke="midnightblue" points="337.336,-192.783 327.609,-196.981 337.831,-199.765 337.336,-192.783"/>
</g>
<!-- Node20&#45;&gt;Node11 -->
<g id="edge33" class="edge"><title>Node20&#45;&gt;Node11</title>
<path fill="none" stroke="midnightblue" d="M667.879,-166.313C690.762,-160.946 719.359,-154.238 743.02,-148.688"/>
<polygon fill="midnightblue" stroke="midnightblue" points="743.89,-152.079 752.827,-146.387 742.292,-145.264 743.89,-152.079"/>
</g>
<!-- Node20&#45;&gt;Node12 -->
<g id="edge34" class="edge"><title>Node20&#45;&gt;Node12</title>
<path fill="none" stroke="midnightblue" d="M669.145,-173.205C727.574,-169.466 832.808,-162.731 893.311,-158.859"/>
<polygon fill="midnightblue" stroke="midnightblue" points="893.589,-162.348 903.345,-158.216 893.141,-155.362 893.589,-162.348"/>
</g>
<!-- Node21&#45;&gt;Node10 -->
<g id="edge36" class="edge"><title>Node21&#45;&gt;Node10</title>
<path fill="none" stroke="midnightblue" d="M905.984,-270.781C820.152,-272.354 585.821,-272.37 396,-232.902 373.799,-228.286 349.755,-219.704 331.346,-212.318"/>
<polygon fill="midnightblue" stroke="midnightblue" points="332.59,-209.045 322.01,-208.481 329.929,-215.52 332.59,-209.045"/>
</g>
<!-- Node21&#45;&gt;Node13 -->
<g id="edge37" class="edge"><title>Node21&#45;&gt;Node13</title>
<path fill="none" stroke="midnightblue" d="M975.144,-270.371C989.007,-270.565 1005.54,-270.795 1021.52,-271.018"/>
<polygon fill="midnightblue" stroke="midnightblue" points="1021.87,-274.523 1031.91,-271.163 1021.96,-267.523 1021.87,-274.523"/>
</g>
<!-- Node21&#45;&gt;Node14 -->
<g id="edge38" class="edge"><title>Node21&#45;&gt;Node14</title>
<path fill="none" stroke="midnightblue" d="M970.539,-260.391C987.431,-254.859 1009.29,-247.7 1029.37,-241.123"/>
<polygon fill="midnightblue" stroke="midnightblue" points="1030.64,-244.39 1039.05,-237.951 1028.46,-237.738 1030.64,-244.39"/>
</g>
<!-- Node21&#45;&gt;Node16 -->
<g id="edge39" class="edge"><title>Node21&#45;&gt;Node16</title>
<path fill="none" stroke="midnightblue" d="M957.24,-260.172C968.387,-253.054 983.517,-242.928 996,-232.902 1013.16,-219.122 1013.82,-211.307 1032,-198.902 1034.56,-197.153 1037.27,-195.465 1040.05,-193.849"/>
<polygon fill="midnightblue" stroke="midnightblue" points="1041.96,-196.794 1049.08,-188.945 1038.62,-190.642 1041.96,-196.794"/>
</g>
</g>
</svg>
