<?xml version="1.0" encoding="UTF-8" standalone="no"?>
<!DOCTYPE svg PUBLIC "-//W3C//DTD SVG 1.1//EN"
 "http://www.w3.org/Graphics/SVG/1.1/DTD/svg11.dtd">
<!-- Generated by graphviz version 2.38.0 (20140413.2041)
 -->
<!-- Title: src/examples/lcd_debug.cpp Pages: 1 -->
<!--zoomable 173 -->
<svg id="main" version="1.1" xmlns="http://www.w3.org/2000/svg" xmlns:xlink="http://www.w3.org/1999/xlink" xml:space="preserve" onload="init(evt)">
<style type="text/css"><![CDATA[
.edge:hover path { stroke: red; }
.edge:hover polygon { stroke: red; fill: red; }
]]></style>
<script type="text/javascript"><![CDATA[
var edges = document.getElementsByTagName('g');
if (edges && edges.length) {
  for (var i=0;i<edges.length;i++) {
    if (edges[i].id.substr(0,4)=='edge') {
      edges[i].setAttribute('class','edge');
    }
  }
}
]]></script>
        <defs>
                <circle id="rim" cx="0" cy="0" r="7"/>
                <circle id="rim2" cx="0" cy="0" r="3.5"/>
                <g id="zoomPlus">
                        <use xlink:href="#rim" fill="#404040">
                                <set attributeName="fill" to="#808080" begin="zoomplus.mouseover" end="zoomplus.mouseout"/>
                        </use>
                        <path d="M-4,0h8M0,-4v8" fill="none" stroke="white" stroke-width="1.5" pointer-events="none"/>
                </g>
                <g id="zoomMin">
                        <use xlink:href="#rim" fill="#404040">
                                <set attributeName="fill" to="#808080" begin="zoomminus.mouseover" end="zoomminus.mouseout"/>
                        </use>
                        <path d="M-4,0h8" fill="none" stroke="white" stroke-width="1.5" pointer-events="none"/>
                </g>
                <g id="dirArrow">
                        <path fill="none" stroke="white" stroke-width="1.5" d="M0,-3.0v7 M-2.5,-0.5L0,-3.0L2.5,-0.5"/>
                </g>
               <g id="resetDef">
                       <use xlink:href="#rim2" fill="#404040">
                               <set attributeName="fill" to="#808080" begin="reset.mouseover" end="reset.mouseout"/>
                       </use>
               </g>
        </defs>

<script type="text/javascript">
var viewWidth = 1343;
var viewHeight = 173;
var sectionId = 'dynsection-0';
</script>
<script xlink:href="svgpan.js"/>
<svg id="graph" class="graph">
<g id="viewport">
<title>src/examples/lcd_debug.cpp</title>
<polygon fill="white" stroke="none" points="-4,4 -4,-169 1338.5,-169 1338.5,4 -4,4"/>
<!-- Node0 -->
<g id="node1" class="node"><title>Node0</title>
<polygon fill="#bfbfbf" stroke="black" points="608,-145.5 608,-164.5 749,-164.5 749,-145.5 608,-145.5"/>
<text text-anchor="middle" x="678.5" y="-152.5" font-family="Helvetica,sans-Serif" font-size="10.00">src/examples/lcd_debug.cpp</text>
</g>
<!-- Node1 -->
<g id="node2" class="node"><title>Node1</title>
<polygon fill="white" stroke="#bfbfbf" points="595,-84 595,-103 640,-103 640,-84 595,-84"/>
<text text-anchor="middle" x="617.5" y="-91" font-family="Helvetica,sans-Serif" font-size="10.00">Wire.h</text>
</g>
<!-- Node0&#45;&gt;Node1 -->
<g id="edge1" class="edge"><title>Node0&#45;&gt;Node1</title>
<path fill="none" stroke="midnightblue" d="M669.76,-145.475C660.338,-136.285 645.136,-121.456 633.551,-110.156"/>
<polygon fill="midnightblue" stroke="midnightblue" points="635.826,-107.486 626.224,-103.009 630.938,-112.497 635.826,-107.486"/>
</g>
<!-- Node2 -->
<g id="node3" class="node"><title>Node2</title>
<polygon fill="white" stroke="#bfbfbf" points="658,-84 658,-103 699,-103 699,-84 658,-84"/>
<text text-anchor="middle" x="678.5" y="-91" font-family="Helvetica,sans-Serif" font-size="10.00">SPI.h</text>
</g>
<!-- Node0&#45;&gt;Node2 -->
<g id="edge2" class="edge"><title>Node0&#45;&gt;Node2</title>
<path fill="none" stroke="midnightblue" d="M678.5,-145.475C678.5,-137.08 678.5,-123.981 678.5,-113.163"/>
<polygon fill="midnightblue" stroke="midnightblue" points="682,-113.009 678.5,-103.009 675,-113.009 682,-113.009"/>
</g>
<!-- Node3 -->
<g id="node4" class="node"><title>Node3</title>
<g id="a_node4"><a xlink:href="eBoard_8h.html" target="_top" xlink:title="/home/eagleoutice/Dokumente\l/proj/_sia/src/eBoard.h">
<polygon fill="white" stroke="black" points="717,-78.5 717,-108.5 866,-108.5 866,-78.5 717,-78.5"/>
<text text-anchor="start" x="725" y="-96.5" font-family="Helvetica,sans-Serif" font-size="10.00">/home/eagleoutice/Dokumente</text>
<text text-anchor="middle" x="791.5" y="-85.5" font-family="Helvetica,sans-Serif" font-size="10.00">/proj/_sia/src/eBoard.h</text>
</a>
</g>
</g>
<!-- Node0&#45;&gt;Node3 -->
<g id="edge3" class="edge"><title>Node0&#45;&gt;Node3</title>
<path fill="none" stroke="midnightblue" d="M694.69,-145.475C710.567,-137.115 735.303,-124.09 755.798,-113.299"/>
<polygon fill="midnightblue" stroke="midnightblue" points="757.65,-116.279 764.868,-108.523 754.389,-110.085 757.65,-116.279"/>
</g>
<!-- Node4 -->
<g id="node5" class="node"><title>Node4</title>
<polygon fill="white" stroke="#bfbfbf" points="0,-6 0,-36 137,-36 137,-6 0,-6"/>
<text text-anchor="start" x="8" y="-24" font-family="Helvetica,sans-Serif" font-size="10.00">C:\Program Files (x86)</text>
<text text-anchor="middle" x="68.5" y="-13" font-family="Helvetica,sans-Serif" font-size="10.00">\Arduino\libraries\SPI\SPI.h</text>
</g>
<!-- Node3&#45;&gt;Node4 -->
<g id="edge4" class="edge"><title>Node3&#45;&gt;Node4</title>
<path fill="none" stroke="midnightblue" d="M716.9,-79.0723C714.067,-78.6881 711.26,-78.3285 708.5,-78 459.964,-48.4196 393.692,-81.2544 146.5,-42 140.248,-41.0072 133.768,-39.7399 127.335,-38.3262"/>
<polygon fill="midnightblue" stroke="midnightblue" points="127.837,-34.85 117.305,-36.0027 126.257,-41.6694 127.837,-34.85"/>
</g>
<!-- Node5 -->
<g id="node6" class="node"><title>Node5</title>
<polygon fill="white" stroke="#bfbfbf" points="155.5,-0.5 155.5,-41.5 271.5,-41.5 271.5,-0.5 155.5,-0.5"/>
<text text-anchor="start" x="163.5" y="-29.5" font-family="Helvetica,sans-Serif" font-size="10.00">C:\Program Files (x86)</text>
<text text-anchor="start" x="163.5" y="-18.5" font-family="Helvetica,sans-Serif" font-size="10.00">\Arduino\libraries\SPI</text>
<text text-anchor="middle" x="213.5" y="-7.5" font-family="Helvetica,sans-Serif" font-size="10.00">\SPI.cpp</text>
</g>
<!-- Node3&#45;&gt;Node5 -->
<g id="edge5" class="edge"><title>Node3&#45;&gt;Node5</title>
<path fill="none" stroke="midnightblue" d="M716.891,-79.1431C714.061,-78.739 711.256,-78.356 708.5,-78 522.414,-53.9679 469.853,-76.6855 281.728,-42.0313"/>
<polygon fill="midnightblue" stroke="midnightblue" points="282.264,-38.5709 271.791,-40.1711 280.976,-45.4514 282.264,-38.5709"/>
</g>
<!-- Node6 -->
<g id="node7" class="node"><title>Node6</title>
<polygon fill="white" stroke="#bfbfbf" points="289.5,-11.5 289.5,-30.5 347.5,-30.5 347.5,-11.5 289.5,-11.5"/>
<text text-anchor="middle" x="318.5" y="-18.5" font-family="Helvetica,sans-Serif" font-size="10.00">Arduino.h</text>
</g>
<!-- Node3&#45;&gt;Node6 -->
<g id="edge6" class="edge"><title>Node3&#45;&gt;Node6</title>
<path fill="none" stroke="midnightblue" d="M716.883,-79.2068C714.055,-78.7849 711.253,-78.3808 708.5,-78 552.722,-56.4547 507.049,-87.4507 356.5,-42 351.194,-40.3981 345.765,-38.04 340.732,-35.4998"/>
<polygon fill="midnightblue" stroke="midnightblue" points="342.13,-32.275 331.678,-30.5419 338.768,-38.4148 342.13,-32.275"/>
</g>
<!-- Node7 -->
<g id="node8" class="node"><title>Node7</title>
<polygon fill="white" stroke="#bfbfbf" points="366,-11.5 366,-30.5 415,-30.5 415,-11.5 366,-11.5"/>
<text text-anchor="middle" x="390.5" y="-18.5" font-family="Helvetica,sans-Serif" font-size="10.00">avr/io.h</text>
</g>
<!-- Node3&#45;&gt;Node7 -->
<g id="edge7" class="edge"><title>Node3&#45;&gt;Node7</title>
<path fill="none" stroke="midnightblue" d="M716.87,-79.2907C714.046,-78.8453 711.248,-78.4134 708.5,-78 582.247,-59.0089 544.065,-84.006 423.5,-42 419.23,-40.5122 414.917,-38.4185 410.881,-36.1419"/>
<polygon fill="midnightblue" stroke="midnightblue" points="412.458,-33.0013 402.117,-30.6969 408.764,-38.9472 412.458,-33.0013"/>
</g>
<!-- Node8 -->
<g id="node9" class="node"><title>Node8</title>
<polygon fill="white" stroke="#bfbfbf" points="433,-11.5 433,-30.5 510,-30.5 510,-11.5 433,-11.5"/>
<text text-anchor="middle" x="471.5" y="-18.5" font-family="Helvetica,sans-Serif" font-size="10.00">avr/interrupt.h</text>
</g>
<!-- Node3&#45;&gt;Node8 -->
<g id="edge8" class="edge"><title>Node3&#45;&gt;Node8</title>
<path fill="none" stroke="midnightblue" d="M716.978,-79.4981C643.079,-66.4703 538.23,-47.5727 519.5,-42 512.64,-39.959 505.425,-37.2639 498.733,-34.5157"/>
<polygon fill="midnightblue" stroke="midnightblue" points="499.976,-31.2405 489.406,-30.5212 497.22,-37.6753 499.976,-31.2405"/>
</g>
<!-- Node9 -->
<g id="node10" class="node"><title>Node9</title>
<polygon fill="white" stroke="#bfbfbf" points="528.5,-6 528.5,-36 654.5,-36 654.5,-6 528.5,-6"/>
<text text-anchor="start" x="536.5" y="-24" font-family="Helvetica,sans-Serif" font-size="10.00">C:\Program Files (x86)</text>
<text text-anchor="middle" x="591.5" y="-13" font-family="Helvetica,sans-Serif" font-size="10.00">\Arduino\Wire\utility\twi.h</text>
</g>
<!-- Node3&#45;&gt;Node9 -->
<g id="edge9" class="edge"><title>Node3&#45;&gt;Node9</title>
<path fill="none" stroke="midnightblue" d="M751.508,-78.4027C719.759,-67.2114 675.206,-51.5062 641.172,-39.5093"/>
<polygon fill="midnightblue" stroke="midnightblue" points="642.018,-36.0965 631.423,-36.0729 639.691,-42.6983 642.018,-36.0965"/>
</g>
<!-- Node10 -->
<g id="node11" class="node"><title>Node10</title>
<polygon fill="white" stroke="#bfbfbf" points="672.5,-6 672.5,-36 798.5,-36 798.5,-6 672.5,-6"/>
<text text-anchor="start" x="680.5" y="-24" font-family="Helvetica,sans-Serif" font-size="10.00">C:\Program Files (x86)</text>
<text text-anchor="middle" x="735.5" y="-13" font-family="Helvetica,sans-Serif" font-size="10.00">\Arduino\Wire\utility\twi.c</text>
</g>
<!-- Node3&#45;&gt;Node10 -->
<g id="edge10" class="edge"><title>Node3&#45;&gt;Node10</title>
<path fill="none" stroke="midnightblue" d="M780.168,-78.2333C772.425,-68.4863 762.01,-55.3741 753.184,-44.2632"/>
<polygon fill="midnightblue" stroke="midnightblue" points="755.776,-41.8989 746.816,-36.2455 750.295,-46.2528 755.776,-41.8989"/>
</g>
<!-- Node11 -->
<g id="node12" class="node"><title>Node11</title>
<polygon fill="white" stroke="#bfbfbf" points="817,-11.5 817,-30.5 876,-30.5 876,-11.5 817,-11.5"/>
<text text-anchor="middle" x="846.5" y="-18.5" font-family="Helvetica,sans-Serif" font-size="10.00">inttypes.h</text>
</g>
<!-- Node3&#45;&gt;Node11 -->
<g id="edge11" class="edge"><title>Node3&#45;&gt;Node11</title>
<path fill="none" stroke="midnightblue" d="M802.63,-78.2333C811.521,-66.8367 824.001,-50.8393 833.378,-38.8197"/>
<polygon fill="midnightblue" stroke="midnightblue" points="836.171,-40.9305 839.562,-30.8932 830.651,-36.6248 836.171,-40.9305"/>
</g>
<!-- Node12 -->
<g id="node13" class="node"><title>Node12</title>
<polygon fill="white" stroke="#bfbfbf" points="894.5,-11.5 894.5,-30.5 950.5,-30.5 950.5,-11.5 894.5,-11.5"/>
<text text-anchor="middle" x="922.5" y="-18.5" font-family="Helvetica,sans-Serif" font-size="10.00">Stream.h</text>
</g>
<!-- Node3&#45;&gt;Node12 -->
<g id="edge12" class="edge"><title>Node3&#45;&gt;Node12</title>
<path fill="none" stroke="midnightblue" d="M817.847,-78.369C836.696,-68.2533 862.669,-54.3036 885.5,-42 889.405,-39.8956 893.54,-37.6637 897.577,-35.4834"/>
<polygon fill="midnightblue" stroke="midnightblue" points="899.527,-38.4076 906.66,-30.5735 896.199,-32.2495 899.527,-38.4076"/>
</g>
<!-- Node13 -->
<g id="node14" class="node"><title>Node13</title>
<polygon fill="white" stroke="#bfbfbf" points="968.5,-11.5 968.5,-30.5 1016.5,-30.5 1016.5,-11.5 968.5,-11.5"/>
<text text-anchor="middle" x="992.5" y="-18.5" font-family="Helvetica,sans-Serif" font-size="10.00">stdlib.h</text>
</g>
<!-- Node3&#45;&gt;Node13 -->
<g id="edge13" class="edge"><title>Node3&#45;&gt;Node13</title>
<path fill="none" stroke="midnightblue" d="M851.519,-78.4105C884.172,-69.7723 924.854,-57.407 959.5,-42 963.494,-40.2238 967.596,-38.0538 971.491,-35.806"/>
<polygon fill="midnightblue" stroke="midnightblue" points="973.351,-38.7713 980.057,-30.5691 969.7,-32.799 973.351,-38.7713"/>
</g>
<!-- Node14 -->
<g id="node15" class="node"><title>Node14</title>
<polygon fill="white" stroke="#bfbfbf" points="1035,-11.5 1035,-30.5 1084,-30.5 1084,-11.5 1035,-11.5"/>
<text text-anchor="middle" x="1059.5" y="-18.5" font-family="Helvetica,sans-Serif" font-size="10.00">string.h</text>
</g>
<!-- Node3&#45;&gt;Node14 -->
<g id="edge14" class="edge"><title>Node3&#45;&gt;Node14</title>
<path fill="none" stroke="midnightblue" d="M866.252,-82.6045C913.09,-74.8957 974.105,-62.0607 1025.5,-42 1029.85,-40.3013 1034.3,-38.0877 1038.48,-35.7543"/>
<polygon fill="midnightblue" stroke="midnightblue" points="1040.29,-38.7486 1047.07,-30.608 1036.7,-32.7432 1040.29,-38.7486"/>
</g>
<!-- Node15 -->
<g id="node16" class="node"><title>Node15</title>
<polygon fill="white" stroke="#bfbfbf" points="1102.5,-11.5 1102.5,-30.5 1188.5,-30.5 1188.5,-11.5 1102.5,-11.5"/>
<text text-anchor="middle" x="1145.5" y="-18.5" font-family="Helvetica,sans-Serif" font-size="10.00">avr/pgmspace.h</text>
</g>
<!-- Node3&#45;&gt;Node15 -->
<g id="edge15" class="edge"><title>Node3&#45;&gt;Node15</title>
<path fill="none" stroke="midnightblue" d="M866.248,-84.2589C927.921,-76.4482 1017.34,-62.7841 1093.5,-42 1101.16,-39.9105 1109.25,-37.1061 1116.71,-34.2595"/>
<polygon fill="midnightblue" stroke="midnightblue" points="1118.05,-37.4902 1126.06,-30.5498 1115.47,-30.9833 1118.05,-37.4902"/>
</g>
<!-- Node16 -->
<g id="node17" class="node"><title>Node16</title>
<polygon fill="white" stroke="#bfbfbf" points="1207,-11.5 1207,-30.5 1264,-30.5 1264,-11.5 1207,-11.5"/>
<text text-anchor="middle" x="1235.5" y="-18.5" font-family="Helvetica,sans-Serif" font-size="10.00">avr/wdt.h</text>
</g>
<!-- Node3&#45;&gt;Node16 -->
<g id="edge16" class="edge"><title>Node3&#45;&gt;Node16</title>
<path fill="none" stroke="midnightblue" d="M866.168,-91.2116C948.929,-87.9617 1085.51,-77.1479 1197.5,-42 1202.7,-40.3675 1208.03,-38.0358 1212.99,-35.5375"/>
<polygon fill="midnightblue" stroke="midnightblue" points="1214.83,-38.5201 1221.95,-30.6681 1211.49,-32.3705 1214.83,-38.5201"/>
</g>
<!-- Node17 -->
<g id="node18" class="node"><title>Node17</title>
<polygon fill="white" stroke="#bfbfbf" points="1282.5,-11.5 1282.5,-30.5 1334.5,-30.5 1334.5,-11.5 1282.5,-11.5"/>
<text text-anchor="middle" x="1308.5" y="-18.5" font-family="Helvetica,sans-Serif" font-size="10.00">assert.h</text>
</g>
<!-- Node3&#45;&gt;Node17 -->
<g id="edge17" class="edge"><title>Node3&#45;&gt;Node17</title>
<path fill="none" stroke="midnightblue" d="M866.007,-88.4542C981.876,-81.5297 1199.62,-65.8087 1273.5,-42 1278.33,-40.445 1283.22,-38.1686 1287.76,-35.7037"/>
<polygon fill="midnightblue" stroke="midnightblue" points="1289.64,-38.6626 1296.45,-30.5499 1286.06,-32.6424 1289.64,-38.6626"/>
</g>
</g>
</svg>
        <g id="navigator" transform="translate(0 0)" fill="#404254">
                <rect fill="#f2f5e9" fill-opacity="0.5" stroke="#606060" stroke-width=".5" x="0" y="0" width="60" height="60"/>
                <use id="zoomplus" xlink:href="#zoomPlus" x="17" y="9" onmousedown="handleZoom(evt,'in')"/>
                <use id="zoomminus" xlink:href="#zoomMin" x="42" y="9" onmousedown="handleZoom(evt,'out')"/>
                <use id="reset" xlink:href="#resetDef" x="30" y="36" onmousedown="handleReset()"/>
                <g id="arrowUp" xlink:href="#dirArrow" transform="translate(30 24)" onmousedown="handlePan(0,-1)">
                  <use xlink:href="#rim" fill="#404040">
                        <set attributeName="fill" to="#808080" begin="arrowUp.mouseover" end="arrowUp.mouseout"/>
                  </use>
                  <path fill="none" stroke="white" stroke-width="1.5" d="M0,-3.0v7 M-2.5,-0.5L0,-3.0L2.5,-0.5"/>
                </g>
                <g id="arrowRight" xlink:href="#dirArrow" transform="rotate(90) translate(36 -43)" onmousedown="handlePan(1,0)">
                  <use xlink:href="#rim" fill="#404040">
                        <set attributeName="fill" to="#808080" begin="arrowRight.mouseover" end="arrowRight.mouseout"/>
                  </use>
                  <path fill="none" stroke="white" stroke-width="1.5" d="M0,-3.0v7 M-2.5,-0.5L0,-3.0L2.5,-0.5"/>
                </g>
                <g id="arrowDown" xlink:href="#dirArrow" transform="rotate(180) translate(-30 -48)" onmousedown="handlePan(0,1)">
                  <use xlink:href="#rim" fill="#404040">
                        <set attributeName="fill" to="#808080" begin="arrowDown.mouseover" end="arrowDown.mouseout"/>
                  </use>
                  <path fill="none" stroke="white" stroke-width="1.5" d="M0,-3.0v7 M-2.5,-0.5L0,-3.0L2.5,-0.5"/>
                </g>
                <g id="arrowLeft" xlink:href="#dirArrow" transform="rotate(270) translate(-36 17)" onmousedown="handlePan(-1,0)">
                  <use xlink:href="#rim" fill="#404040">
                        <set attributeName="fill" to="#808080" begin="arrowLeft.mouseover" end="arrowLeft.mouseout"/>
                  </use>
                  <path fill="none" stroke="white" stroke-width="1.5" d="M0,-3.0v7 M-2.5,-0.5L0,-3.0L2.5,-0.5"/>
                </g>
        </g>
        <svg viewBox="0 0 15 15" width="100%" height="30px" preserveAspectRatio="xMaxYMin meet">
         <g id="arrow_out" transform="scale(0.3 0.3)">
          <a xlink:href="lcd__debug_8cpp__incl_org.svg" target="_base">
           <rect id="button" ry="5" rx="5" y="6" x="6" height="38" width="38"
                fill="#f2f5e9" fill-opacity="0.5" stroke="#606060" stroke-width="1.0"/>
           <path id="arrow"
             d="M 11.500037,31.436501 C 11.940474,20.09759 22.043105,11.32322 32.158766,21.979434 L 37.068811,17.246167 C 37.068811,17.246167 37.088388,32 37.088388,32 L 22.160133,31.978069 C 22.160133,31.978069 26.997745,27.140456 26.997745,27.140456 C 18.528582,18.264221 13.291696,25.230495 11.500037,31.436501 z"
             style="fill:#404040;"/>
          </a>
         </g>
        </svg>
</svg>
