<?xml version="1.0" encoding="UTF-8" standalone="no"?>
<!DOCTYPE svg PUBLIC "-//W3C//DTD SVG 1.1//EN"
 "http://www.w3.org/Graphics/SVG/1.1/DTD/svg11.dtd">
<!-- Generated by graphviz version 2.38.0 (20140413.2041)
 -->
<!-- Title: main Pages: 1 -->
<svg width="211pt" height="256pt"
 viewBox="0.00 0.00 211.00 256.00" xmlns="http://www.w3.org/2000/svg" xmlns:xlink="http://www.w3.org/1999/xlink">
<g id="graph0" class="graph" transform="scale(1 1) rotate(0) translate(4 252)">
<title>main</title>
<polygon fill="white" stroke="none" points="-4,4 -4,-252 207,-252 207,4 -4,4"/>
<!-- Node0 -->
<g id="node1" class="node"><title>Node0</title>
<polygon fill="#bfbfbf" stroke="black" points="0,-114.5 0,-133.5 38,-133.5 38,-114.5 0,-114.5"/>
<text text-anchor="middle" x="19" y="-121.5" font-family="Helvetica,sans-Serif" font-size="10.00">main</text>
</g>
<!-- Node1 -->
<g id="node2" class="node"><title>Node1</title>
<g id="a_node2"><a xlink:href="structDynamixelBoard.html#a9b6d6166eaa2c42e87f424b54edce510" target="_top" xlink:title="will force every AX12Servo to drive to AX12Servo::storedPos with AX12Servo::storedSpeed ...">
<polygon fill="white" stroke="black" points="78,-228.5 78,-247.5 199,-247.5 199,-228.5 78,-228.5"/>
<text text-anchor="middle" x="138.5" y="-235.5" font-family="Helvetica,sans-Serif" font-size="10.00">DynamixelBoard::action</text>
</a>
</g>
</g>
<!-- Node0&#45;&gt;Node1 -->
<g id="edge1" class="edge"><title>Node0&#45;&gt;Node1</title>
<path fill="none" stroke="midnightblue" d="M22.8069,-133.687C28.8751,-152.899 45.0568,-195.96 74,-219 76.2789,-220.814 78.7279,-222.455 81.2912,-223.94"/>
<polygon fill="midnightblue" stroke="midnightblue" points="79.8476,-227.13 90.365,-228.408 82.9401,-220.85 79.8476,-227.13"/>
</g>
<!-- Node2 -->
<g id="node3" class="node"><title>Node2</title>
<g id="a_node3"><a xlink:href="structLCD.html#aa01b7522d1e210f9cd071e3a5d4ae9e6" target="_top" xlink:title="changes the background of the display ">
<polygon fill="white" stroke="black" points="75.5,-190.5 75.5,-209.5 201.5,-209.5 201.5,-190.5 75.5,-190.5"/>
<text text-anchor="middle" x="138.5" y="-197.5" font-family="Helvetica,sans-Serif" font-size="10.00">LCD::changeBackground</text>
</a>
</g>
</g>
<!-- Node0&#45;&gt;Node2 -->
<g id="edge2" class="edge"><title>Node0&#45;&gt;Node2</title>
<path fill="none" stroke="midnightblue" d="M26.538,-133.537C35.7056,-146.201 53.5665,-168.428 74,-181 77.4302,-183.111 81.1095,-184.999 84.9055,-186.687"/>
<polygon fill="midnightblue" stroke="midnightblue" points="83.9201,-190.061 94.5066,-190.481 86.4929,-183.551 83.9201,-190.061"/>
</g>
<!-- Node3 -->
<g id="node4" class="node"><title>Node3</title>
<g id="a_node4"><a xlink:href="structLCD.html#ad3120f397273bac2ad60e0291554b9e6" target="_top" xlink:title="clears the LCD ">
<polygon fill="white" stroke="black" points="106.5,-152.5 106.5,-171.5 170.5,-171.5 170.5,-152.5 106.5,-152.5"/>
<text text-anchor="middle" x="138.5" y="-159.5" font-family="Helvetica,sans-Serif" font-size="10.00">LCD::clear</text>
</a>
</g>
</g>
<!-- Node0&#45;&gt;Node3 -->
<g id="edge3" class="edge"><title>Node0&#45;&gt;Node3</title>
<path fill="none" stroke="midnightblue" d="M38.4205,-130.726C48.8245,-134.463 62.092,-139.126 74,-143 81.3043,-145.376 89.1166,-147.805 96.6755,-150.098"/>
<polygon fill="midnightblue" stroke="midnightblue" points="95.8183,-153.494 106.402,-153.017 97.8305,-146.79 95.8183,-153.494"/>
</g>
<!-- Node4 -->
<g id="node5" class="node"><title>Node4</title>
<g id="a_node5"><a xlink:href="structAX12Servo.html#a8027cdd101d213b8f7d2c1988fd87fcb" target="_top" xlink:title="This &quot;kind of&quot; returns the Servo&#45;Position. ">
<polygon fill="white" stroke="black" points="78,-114.5 78,-133.5 199,-133.5 199,-114.5 78,-114.5"/>
<text text-anchor="middle" x="138.5" y="-121.5" font-family="Helvetica,sans-Serif" font-size="10.00">AX12Servo::getPosition</text>
</a>
</g>
</g>
<!-- Node0&#45;&gt;Node4 -->
<g id="edge4" class="edge"><title>Node0&#45;&gt;Node4</title>
<path fill="none" stroke="midnightblue" d="M38.1019,-124C46.382,-124 56.7751,-124 67.6969,-124"/>
<polygon fill="midnightblue" stroke="midnightblue" points="67.8303,-127.5 77.8303,-124 67.8302,-120.5 67.8303,-127.5"/>
</g>
<!-- Node5 -->
<g id="node6" class="node"><title>Node5</title>
<g id="a_node6"><a xlink:href="structLCD.html#a21c27f0eea9a6c281ddbb06b16ef7e56" target="_top" xlink:title="prints a string to the display ">
<polygon fill="white" stroke="black" points="107.5,-76.5 107.5,-95.5 169.5,-95.5 169.5,-76.5 107.5,-76.5"/>
<text text-anchor="middle" x="138.5" y="-83.5" font-family="Helvetica,sans-Serif" font-size="10.00">LCD::print</text>
</a>
</g>
</g>
<!-- Node0&#45;&gt;Node5 -->
<g id="edge5" class="edge"><title>Node0&#45;&gt;Node5</title>
<path fill="none" stroke="midnightblue" d="M38.4205,-117.274C48.8245,-113.537 62.092,-108.874 74,-105 81.6171,-102.522 89.7868,-99.9867 97.6454,-97.6086"/>
<polygon fill="midnightblue" stroke="midnightblue" points="98.7929,-100.919 107.368,-94.6966 96.7844,-94.213 98.7929,-100.919"/>
</g>
<!-- Node6 -->
<g id="node7" class="node"><title>Node6</title>
<g id="a_node7"><a xlink:href="structSoccerBoard.html#a30d756751a9866cd4547b2041921463f" target="_top" xlink:title="Say goodnight! ">
<polygon fill="white" stroke="black" points="87.5,-38.5 87.5,-57.5 189.5,-57.5 189.5,-38.5 87.5,-38.5"/>
<text text-anchor="middle" x="138.5" y="-45.5" font-family="Helvetica,sans-Serif" font-size="10.00">SoccerBoard::sleep</text>
</a>
</g>
</g>
<!-- Node0&#45;&gt;Node6 -->
<g id="edge6" class="edge"><title>Node0&#45;&gt;Node6</title>
<path fill="none" stroke="midnightblue" d="M26.538,-114.463C35.7056,-101.799 53.5665,-79.5723 74,-67 77.4302,-64.8895 81.1095,-63.0009 84.9055,-61.313"/>
<polygon fill="midnightblue" stroke="midnightblue" points="86.4929,-64.4491 94.5066,-57.5187 83.9201,-57.939 86.4929,-64.4491"/>
</g>
<!-- Node7 -->
<g id="node8" class="node"><title>Node7</title>
<g id="a_node8"><a xlink:href="structAX12Servo.html#ab4370f84cb53a93880f58c270c290c94" target="_top" xlink:title="This saves the Servo Position. ">
<polygon fill="white" stroke="black" points="74,-0.5 74,-19.5 203,-19.5 203,-0.5 74,-0.5"/>
<text text-anchor="middle" x="138.5" y="-7.5" font-family="Helvetica,sans-Serif" font-size="10.00">AX12Servo::storePosition</text>
</a>
</g>
</g>
<!-- Node0&#45;&gt;Node7 -->
<g id="edge7" class="edge"><title>Node0&#45;&gt;Node7</title>
<path fill="none" stroke="midnightblue" d="M22.8069,-114.313C28.8751,-95.1006 45.0568,-52.0402 74,-29 76.2789,-27.1859 78.7279,-25.5448 81.2912,-24.0602"/>
<polygon fill="midnightblue" stroke="midnightblue" points="82.9401,-27.1496 90.365,-19.5917 79.8476,-20.8698 82.9401,-27.1496"/>
</g>
</g>
</svg>
