<?xml version="1.0" encoding="UTF-8" standalone="no"?>
<!DOCTYPE svg PUBLIC "-//W3C//DTD SVG 1.1//EN"
 "http://www.w3.org/Graphics/SVG/1.1/DTD/svg11.dtd">
<!-- Generated by graphviz version 2.38.0 (20140413.2041)
 -->
<!-- Title: eVirtual_main Pages: 1 -->
<svg width="249pt" height="256pt"
 viewBox="0.00 0.00 249.00 256.00" xmlns="http://www.w3.org/2000/svg" xmlns:xlink="http://www.w3.org/1999/xlink">
<g id="graph0" class="graph" transform="scale(1 1) rotate(0) translate(4 252)">
<title>eVirtual_main</title>
<polygon fill="white" stroke="none" points="-4,4 -4,-252 245,-252 245,4 -4,4"/>
<!-- Node0 -->
<g id="node1" class="node"><title>Node0</title>
<polygon fill="#bfbfbf" stroke="black" points="0,-114.5 0,-133.5 76,-133.5 76,-114.5 0,-114.5"/>
<text text-anchor="middle" x="38" y="-121.5" font-family="Helvetica,sans-Serif" font-size="10.00">eVirtual_main</text>
</g>
<!-- Node1 -->
<g id="node2" class="node"><title>Node1</title>
<g id="a_node2"><a xlink:href="structDynamixelBoard.html#a9b6d6166eaa2c42e87f424b54edce510" target="_top" xlink:title="will force every AX12Servo to drive to AX12Servo::storedPos with AX12Servo::storedSpeed ...">
<polygon fill="white" stroke="black" points="116,-228.5 116,-247.5 237,-247.5 237,-228.5 116,-228.5"/>
<text text-anchor="middle" x="176.5" y="-235.5" font-family="Helvetica,sans-Serif" font-size="10.00">DynamixelBoard::action</text>
</a>
</g>
</g>
<!-- Node0&#45;&gt;Node1 -->
<g id="edge1" class="edge"><title>Node0&#45;&gt;Node1</title>
<path fill="none" stroke="midnightblue" d="M43.7695,-133.692C53.7257,-152.915 78.5971,-195.992 112,-219 114.883,-220.986 117.977,-222.768 121.193,-224.367"/>
<polygon fill="midnightblue" stroke="midnightblue" points="119.93,-227.634 130.497,-228.404 122.717,-221.213 119.93,-227.634"/>
</g>
<!-- Node2 -->
<g id="node3" class="node"><title>Node2</title>
<g id="a_node3"><a xlink:href="structLCD.html#aa01b7522d1e210f9cd071e3a5d4ae9e6" target="_top" xlink:title="changes the background of the display ">
<polygon fill="white" stroke="black" points="113.5,-190.5 113.5,-209.5 239.5,-209.5 239.5,-190.5 113.5,-190.5"/>
<text text-anchor="middle" x="176.5" y="-197.5" font-family="Helvetica,sans-Serif" font-size="10.00">LCD::changeBackground</text>
</a>
</g>
</g>
<!-- Node0&#45;&gt;Node2 -->
<g id="edge2" class="edge"><title>Node0&#45;&gt;Node2</title>
<path fill="none" stroke="midnightblue" d="M49.0202,-133.846C62.3516,-146.441 87.1427,-168.159 112,-181 116.31,-183.226 120.922,-185.235 125.621,-187.037"/>
<polygon fill="midnightblue" stroke="midnightblue" points="124.721,-190.431 135.316,-190.449 127.045,-183.827 124.721,-190.431"/>
</g>
<!-- Node3 -->
<g id="node4" class="node"><title>Node3</title>
<g id="a_node4"><a xlink:href="structLCD.html#ad3120f397273bac2ad60e0291554b9e6" target="_top" xlink:title="clears the LCD ">
<polygon fill="white" stroke="black" points="144.5,-152.5 144.5,-171.5 208.5,-171.5 208.5,-152.5 144.5,-152.5"/>
<text text-anchor="middle" x="176.5" y="-159.5" font-family="Helvetica,sans-Serif" font-size="10.00">LCD::clear</text>
</a>
</g>
</g>
<!-- Node0&#45;&gt;Node3 -->
<g id="edge3" class="edge"><title>Node0&#45;&gt;Node3</title>
<path fill="none" stroke="midnightblue" d="M73.4447,-133.589C92.0071,-138.757 115.033,-145.167 134.513,-150.59"/>
<polygon fill="midnightblue" stroke="midnightblue" points="133.762,-154.014 144.334,-153.324 135.639,-147.27 133.762,-154.014"/>
</g>
<!-- Node4 -->
<g id="node5" class="node"><title>Node4</title>
<g id="a_node5"><a xlink:href="structAX12Servo.html#a8027cdd101d213b8f7d2c1988fd87fcb" target="_top" xlink:title="This &quot;kind of&quot; returns the Servo&#45;Position. ">
<polygon fill="white" stroke="black" points="116,-114.5 116,-133.5 237,-133.5 237,-114.5 116,-114.5"/>
<text text-anchor="middle" x="176.5" y="-121.5" font-family="Helvetica,sans-Serif" font-size="10.00">AX12Servo::getPosition</text>
</a>
</g>
</g>
<!-- Node0&#45;&gt;Node4 -->
<g id="edge4" class="edge"><title>Node0&#45;&gt;Node4</title>
<path fill="none" stroke="midnightblue" d="M76.2992,-124C85.4755,-124 95.5988,-124 105.766,-124"/>
<polygon fill="midnightblue" stroke="midnightblue" points="105.915,-127.5 115.915,-124 105.915,-120.5 105.915,-127.5"/>
</g>
<!-- Node5 -->
<g id="node6" class="node"><title>Node5</title>
<g id="a_node6"><a xlink:href="structLCD.html#a21c27f0eea9a6c281ddbb06b16ef7e56" target="_top" xlink:title="prints a string to the display ">
<polygon fill="white" stroke="black" points="145.5,-76.5 145.5,-95.5 207.5,-95.5 207.5,-76.5 145.5,-76.5"/>
<text text-anchor="middle" x="176.5" y="-83.5" font-family="Helvetica,sans-Serif" font-size="10.00">LCD::print</text>
</a>
</g>
</g>
<!-- Node0&#45;&gt;Node5 -->
<g id="edge5" class="edge"><title>Node0&#45;&gt;Node5</title>
<path fill="none" stroke="midnightblue" d="M73.4447,-114.411C92.2762,-109.169 115.701,-102.647 135.357,-97.1752"/>
<polygon fill="midnightblue" stroke="midnightblue" points="136.554,-100.475 145.249,-94.4216 134.676,-93.7318 136.554,-100.475"/>
</g>
<!-- Node6 -->
<g id="node7" class="node"><title>Node6</title>
<g id="a_node7"><a xlink:href="structSoccerBoard.html#a30d756751a9866cd4547b2041921463f" target="_top" xlink:title="Say goodnight! ">
<polygon fill="white" stroke="black" points="125.5,-38.5 125.5,-57.5 227.5,-57.5 227.5,-38.5 125.5,-38.5"/>
<text text-anchor="middle" x="176.5" y="-45.5" font-family="Helvetica,sans-Serif" font-size="10.00">SoccerBoard::sleep</text>
</a>
</g>
</g>
<!-- Node0&#45;&gt;Node6 -->
<g id="edge6" class="edge"><title>Node0&#45;&gt;Node6</title>
<path fill="none" stroke="midnightblue" d="M49.0202,-114.154C62.3516,-101.559 87.1427,-79.8412 112,-67 116.31,-64.7735 120.922,-62.7651 125.621,-60.9633"/>
<polygon fill="midnightblue" stroke="midnightblue" points="127.045,-64.1725 135.316,-57.5514 124.721,-57.5695 127.045,-64.1725"/>
</g>
<!-- Node7 -->
<g id="node8" class="node"><title>Node7</title>
<g id="a_node8"><a xlink:href="structAX12Servo.html#ab4370f84cb53a93880f58c270c290c94" target="_top" xlink:title="This saves the Servo Position. ">
<polygon fill="white" stroke="black" points="112,-0.5 112,-19.5 241,-19.5 241,-0.5 112,-0.5"/>
<text text-anchor="middle" x="176.5" y="-7.5" font-family="Helvetica,sans-Serif" font-size="10.00">AX12Servo::storePosition</text>
</a>
</g>
</g>
<!-- Node0&#45;&gt;Node7 -->
<g id="edge7" class="edge"><title>Node0&#45;&gt;Node7</title>
<path fill="none" stroke="midnightblue" d="M43.7695,-114.308C53.7257,-95.0852 78.5971,-52.008 112,-29 114.883,-27.0142 117.977,-25.232 121.193,-23.6332"/>
<polygon fill="midnightblue" stroke="midnightblue" points="122.717,-26.7872 130.497,-19.5957 119.93,-20.3657 122.717,-26.7872"/>
</g>
</g>
</svg>
