<?xml version="1.0" encoding="UTF-8" standalone="no"?>
<!DOCTYPE svg PUBLIC "-//W3C//DTD SVG 1.1//EN"
 "http://www.w3.org/Graphics/SVG/1.1/DTD/svg11.dtd">
<!-- Generated by graphviz version 2.40.1 (20161225.0304)
 -->
<!-- Title: main Pages: 1 -->
<svg width="225pt" height="256pt"
 viewBox="0.00 0.00 225.00 256.00" xmlns="http://www.w3.org/2000/svg" xmlns:xlink="http://www.w3.org/1999/xlink">
<g id="graph0" class="graph" transform="scale(1 1) rotate(0) translate(4 252)">
<title>main</title>
<polygon fill="#ffffff" stroke="transparent" points="-4,4 -4,-252 221,-252 221,4 -4,4"/>
<!-- Node0 -->
<g id="node1" class="node">
<title>Node0</title>
<polygon fill="#bfbfbf" stroke="#000000" points="0,-114.5 0,-133.5 41,-133.5 41,-114.5 0,-114.5"/>
<text text-anchor="middle" x="20.5" y="-121.5" font-family="RobotoMono" font-size="10.00" fill="#000000">main</text>
</g>
<!-- Node1 -->
<g id="node2" class="node">
<title>Node1</title>
<g id="a_node2"><a xlink:href="structDynamixelBoard.html#a9b6d6166eaa2c42e87f424b54edce510" target="_top" xlink:title="will force every AX12Servo to drive to AX12Servo::storedPos with AX12Servo::storedSpeed ...">
<polygon fill="#ffffff" stroke="#000000" points="80,-228.5 80,-247.5 214,-247.5 214,-228.5 80,-228.5"/>
<text text-anchor="middle" x="147" y="-235.5" font-family="RobotoMono" font-size="10.00" fill="#000000">DynamixelBoard::action</text>
</a>
</g>
</g>
<!-- Node0&#45;&gt;Node1 -->
<g id="edge1" class="edge">
<title>Node0&#45;&gt;Node1</title>
<path fill="none" stroke="#191970" d="M23.5196,-133.7556C30.0177,-153.0924 47.2029,-196.3646 77,-219 79.4771,-220.8817 82.1279,-222.5772 84.8959,-224.1048"/>
<polygon fill="#191970" stroke="#191970" points="83.5285,-227.3297 94.0655,-228.4352 86.5177,-221 83.5285,-227.3297"/>
</g>
<!-- Node2 -->
<g id="node3" class="node">
<title>Node2</title>
<g id="a_node3"><a xlink:href="structLCD.html#aa01b7522d1e210f9cd071e3a5d4ae9e6" target="_top" xlink:title="changes the background of the display ">
<polygon fill="#ffffff" stroke="#000000" points="79.5,-190.5 79.5,-209.5 214.5,-209.5 214.5,-190.5 79.5,-190.5"/>
<text text-anchor="middle" x="147" y="-197.5" font-family="RobotoMono" font-size="10.00" fill="#000000">LCD::changeBackground</text>
</a>
</g>
</g>
<!-- Node0&#45;&gt;Node2 -->
<g id="edge2" class="edge">
<title>Node0&#45;&gt;Node2</title>
<path fill="none" stroke="#191970" d="M27.3961,-133.6042C37.0508,-146.3444 55.8094,-168.6573 77,-181 80.8373,-183.2351 84.9458,-185.215 89.1779,-186.9675"/>
<polygon fill="#191970" stroke="#191970" points="87.9899,-190.2598 98.583,-190.4518 90.4217,-183.6957 87.9899,-190.2598"/>
</g>
<!-- Node3 -->
<g id="node4" class="node">
<title>Node3</title>
<g id="a_node4"><a xlink:href="structLCD.html#ad3120f397273bac2ad60e0291554b9e6" target="_top" xlink:title="clears the LCD ">
<polygon fill="#ffffff" stroke="#000000" points="114,-152.5 114,-171.5 180,-171.5 180,-152.5 114,-152.5"/>
<text text-anchor="middle" x="147" y="-159.5" font-family="RobotoMono" font-size="10.00" fill="#000000">LCD::clear</text>
</a>
</g>
</g>
<!-- Node0&#45;&gt;Node3 -->
<g id="edge3" class="edge">
<title>Node0&#45;&gt;Node3</title>
<path fill="none" stroke="#191970" d="M41.0687,-131.244C51.7403,-134.9191 65.0179,-139.3627 77,-143 85.6672,-145.631 94.9902,-148.2836 103.9161,-150.7378"/>
<polygon fill="#191970" stroke="#191970" points="103.2013,-154.1704 113.769,-153.4127 105.0354,-147.4149 103.2013,-154.1704"/>
</g>
<!-- Node4 -->
<g id="node5" class="node">
<title>Node4</title>
<g id="a_node5"><a xlink:href="structAX12Servo.html#a8027cdd101d213b8f7d2c1988fd87fcb" target="_top" xlink:title="This &quot;kind of&quot; returns the Servo&#45;Position. ">
<polygon fill="#ffffff" stroke="#000000" points="81.5,-114.5 81.5,-133.5 212.5,-133.5 212.5,-114.5 81.5,-114.5"/>
<text text-anchor="middle" x="147" y="-121.5" font-family="RobotoMono" font-size="10.00" fill="#000000">AX12Servo::getPosition</text>
</a>
</g>
</g>
<!-- Node0&#45;&gt;Node4 -->
<g id="edge4" class="edge">
<title>Node0&#45;&gt;Node4</title>
<path fill="none" stroke="#191970" d="M41.106,-124C49.6286,-124 60.0848,-124 71.0734,-124"/>
<polygon fill="#191970" stroke="#191970" points="71.2743,-127.5001 81.2743,-124 71.2743,-120.5001 71.2743,-127.5001"/>
</g>
<!-- Node5 -->
<g id="node6" class="node">
<title>Node5</title>
<g id="a_node6"><a xlink:href="structLCD.html#a21c27f0eea9a6c281ddbb06b16ef7e56" target="_top" xlink:title="prints a string to the display ">
<polygon fill="#ffffff" stroke="#000000" points="114.5,-76.5 114.5,-95.5 179.5,-95.5 179.5,-76.5 114.5,-76.5"/>
<text text-anchor="middle" x="147" y="-83.5" font-family="RobotoMono" font-size="10.00" fill="#000000">LCD::print</text>
</a>
</g>
</g>
<!-- Node0&#45;&gt;Node5 -->
<g id="edge5" class="edge">
<title>Node0&#45;&gt;Node5</title>
<path fill="none" stroke="#191970" d="M41.0687,-116.756C51.7403,-113.0809 65.0179,-108.6373 77,-105 85.9374,-102.2869 95.572,-99.551 104.7496,-97.0333"/>
<polygon fill="#191970" stroke="#191970" points="105.7378,-100.3918 114.4744,-94.3983 103.907,-93.6355 105.7378,-100.3918"/>
</g>
<!-- Node6 -->
<g id="node7" class="node">
<title>Node6</title>
<g id="a_node7"><a xlink:href="structSoccerBoard.html#a30d756751a9866cd4547b2041921463f" target="_top" xlink:title="Say goodnight! ">
<polygon fill="#ffffff" stroke="#000000" points="92,-38.5 92,-57.5 202,-57.5 202,-38.5 92,-38.5"/>
<text text-anchor="middle" x="147" y="-45.5" font-family="RobotoMono" font-size="10.00" fill="#000000">SoccerBoard::sleep</text>
</a>
</g>
</g>
<!-- Node0&#45;&gt;Node6 -->
<g id="edge6" class="edge">
<title>Node0&#45;&gt;Node6</title>
<path fill="none" stroke="#191970" d="M27.3961,-114.3958C37.0508,-101.6556 55.8094,-79.3427 77,-67 80.8373,-64.7649 84.9458,-62.785 89.1779,-61.0325"/>
<polygon fill="#191970" stroke="#191970" points="90.4217,-64.3043 98.583,-57.5482 87.9899,-57.7402 90.4217,-64.3043"/>
</g>
<!-- Node7 -->
<g id="node8" class="node">
<title>Node7</title>
<g id="a_node8"><a xlink:href="structAX12Servo.html#ab4370f84cb53a93880f58c270c290c94" target="_top" xlink:title="This saves the Servo Position. ">
<polygon fill="#ffffff" stroke="#000000" points="77,-.5 77,-19.5 217,-19.5 217,-.5 77,-.5"/>
<text text-anchor="middle" x="147" y="-7.5" font-family="RobotoMono" font-size="10.00" fill="#000000">AX12Servo::storePosition</text>
</a>
</g>
</g>
<!-- Node0&#45;&gt;Node7 -->
<g id="edge7" class="edge">
<title>Node0&#45;&gt;Node7</title>
<path fill="none" stroke="#191970" d="M23.5196,-114.2444C30.0177,-94.9076 47.2029,-51.6354 77,-29 79.4771,-27.1183 82.1279,-25.4228 84.8959,-23.8952"/>
<polygon fill="#191970" stroke="#191970" points="86.5177,-27 94.0655,-19.5648 83.5285,-20.6703 86.5177,-27"/>
</g>
</g>
</svg>
