<?xml version="1.0" encoding="UTF-8" standalone="no"?>
<!DOCTYPE svg PUBLIC "-//W3C//DTD SVG 1.1//EN"
 "http://www.w3.org/Graphics/SVG/1.1/DTD/svg11.dtd">
<!-- Generated by graphviz version 2.38.0 (20140413.2041)
 -->
<!-- Title: src/examples/lcd_debug.cpp Pages: 1 -->
<svg width="479pt" height="151pt"
 viewBox="0.00 0.00 479.00 151.00" xmlns="http://www.w3.org/2000/svg" xmlns:xlink="http://www.w3.org/1999/xlink">
<g id="graph0" class="graph" transform="scale(1 1) rotate(0) translate(4 147)">
<title>src/examples/lcd_debug.cpp</title>
<polygon fill="white" stroke="none" points="-4,4 -4,-147 475,-147 475,4 -4,4"/>
<!-- Node0 -->
<g id="node1" class="node"><title>Node0</title>
<polygon fill="#bfbfbf" stroke="black" points="48.5,-123.5 48.5,-142.5 189.5,-142.5 189.5,-123.5 48.5,-123.5"/>
<text text-anchor="middle" x="119" y="-130.5" font-family="Helvetica,sans-Serif" font-size="10.00">src/examples/lcd_debug.cpp</text>
</g>
<!-- Node1 -->
<g id="node2" class="node"><title>Node1</title>
<polygon fill="white" stroke="#bfbfbf" points="35.5,-62 35.5,-81 80.5,-81 80.5,-62 35.5,-62"/>
<text text-anchor="middle" x="58" y="-69" font-family="Helvetica,sans-Serif" font-size="10.00">Wire.h</text>
</g>
<!-- Node0&#45;&gt;Node1 -->
<g id="edge1" class="edge"><title>Node0&#45;&gt;Node1</title>
<path fill="none" stroke="midnightblue" d="M110.26,-123.475C100.838,-114.285 85.6359,-99.4563 74.0507,-88.156"/>
<polygon fill="midnightblue" stroke="midnightblue" points="76.326,-85.4861 66.7236,-81.0091 71.4383,-90.4971 76.326,-85.4861"/>
</g>
<!-- Node2 -->
<g id="node3" class="node"><title>Node2</title>
<polygon fill="white" stroke="#bfbfbf" points="98.5,-62 98.5,-81 139.5,-81 139.5,-62 98.5,-62"/>
<text text-anchor="middle" x="119" y="-69" font-family="Helvetica,sans-Serif" font-size="10.00">SPI.h</text>
</g>
<!-- Node0&#45;&gt;Node2 -->
<g id="edge2" class="edge"><title>Node0&#45;&gt;Node2</title>
<path fill="none" stroke="midnightblue" d="M119,-123.475C119,-115.08 119,-101.981 119,-91.1631"/>
<polygon fill="midnightblue" stroke="midnightblue" points="122.5,-91.0091 119,-81.0091 115.5,-91.0091 122.5,-91.0091"/>
</g>
<!-- Node3 -->
<g id="node4" class="node"><title>Node3</title>
<g id="a_node4"><a xlink:href="eBoard_8h.html" target="_top" xlink:title="/home/eagleoutice/Dokumente\l/proj/_sia/src/eBoard.h">
<polygon fill="white" stroke="black" points="157.5,-56.5 157.5,-86.5 306.5,-86.5 306.5,-56.5 157.5,-56.5"/>
<text text-anchor="start" x="165.5" y="-74.5" font-family="Helvetica,sans-Serif" font-size="10.00">/home/eagleoutice/Dokumente</text>
<text text-anchor="middle" x="232" y="-63.5" font-family="Helvetica,sans-Serif" font-size="10.00">/proj/_sia/src/eBoard.h</text>
</a>
</g>
</g>
<!-- Node0&#45;&gt;Node3 -->
<g id="edge3" class="edge"><title>Node0&#45;&gt;Node3</title>
<path fill="none" stroke="midnightblue" d="M135.19,-123.475C151.067,-115.115 175.803,-102.09 196.298,-91.2991"/>
<polygon fill="midnightblue" stroke="midnightblue" points="198.15,-94.279 205.368,-86.523 194.889,-88.0852 198.15,-94.279"/>
</g>
<!-- Node4 -->
<g id="node5" class="node"><title>Node4</title>
<polygon fill="white" stroke="#bfbfbf" points="0,-0.5 0,-19.5 58,-19.5 58,-0.5 0,-0.5"/>
<text text-anchor="middle" x="29" y="-7.5" font-family="Helvetica,sans-Serif" font-size="10.00">Arduino.h</text>
</g>
<!-- Node3&#45;&gt;Node4 -->
<g id="edge4" class="edge"><title>Node3&#45;&gt;Node4</title>
<path fill="none" stroke="midnightblue" d="M184.149,-56.4747C148.668,-46.0752 100.914,-32.0783 67.7991,-22.3722"/>
<polygon fill="midnightblue" stroke="midnightblue" points="68.6025,-18.9604 58.0217,-19.5064 66.6335,-25.6778 68.6025,-18.9604"/>
</g>
<!-- Node5 -->
<g id="node6" class="node"><title>Node5</title>
<polygon fill="white" stroke="#bfbfbf" points="76.5,-0.5 76.5,-19.5 125.5,-19.5 125.5,-0.5 76.5,-0.5"/>
<text text-anchor="middle" x="101" y="-7.5" font-family="Helvetica,sans-Serif" font-size="10.00">avr/io.h</text>
</g>
<!-- Node3&#45;&gt;Node5 -->
<g id="edge5" class="edge"><title>Node3&#45;&gt;Node5</title>
<path fill="none" stroke="midnightblue" d="M200.955,-56.3993C179.27,-46.55 150.541,-33.5014 129.449,-23.9217"/>
<polygon fill="midnightblue" stroke="midnightblue" points="130.614,-20.6065 120.062,-19.6578 127.719,-26.9799 130.614,-20.6065"/>
</g>
<!-- Node6 -->
<g id="node7" class="node"><title>Node6</title>
<polygon fill="white" stroke="#bfbfbf" points="143.5,-0.5 143.5,-19.5 220.5,-19.5 220.5,-0.5 143.5,-0.5"/>
<text text-anchor="middle" x="182" y="-7.5" font-family="Helvetica,sans-Serif" font-size="10.00">avr/interrupt.h</text>
</g>
<!-- Node3&#45;&gt;Node6 -->
<g id="edge6" class="edge"><title>Node3&#45;&gt;Node6</title>
<path fill="none" stroke="midnightblue" d="M220.151,-56.3993C212.885,-47.7533 203.548,-36.642 195.929,-27.576"/>
<polygon fill="midnightblue" stroke="midnightblue" points="198.388,-25.0619 189.275,-19.6578 193.029,-29.5653 198.388,-25.0619"/>
</g>
<!-- Node7 -->
<g id="node8" class="node"><title>Node7</title>
<polygon fill="white" stroke="#bfbfbf" points="239,-0.5 239,-19.5 325,-19.5 325,-0.5 239,-0.5"/>
<text text-anchor="middle" x="282" y="-7.5" font-family="Helvetica,sans-Serif" font-size="10.00">avr/pgmspace.h</text>
</g>
<!-- Node3&#45;&gt;Node7 -->
<g id="edge7" class="edge"><title>Node3&#45;&gt;Node7</title>
<path fill="none" stroke="midnightblue" d="M243.849,-56.3993C251.115,-47.7533 260.452,-36.642 268.071,-27.576"/>
<polygon fill="midnightblue" stroke="midnightblue" points="270.971,-29.5653 274.725,-19.6578 265.612,-25.0619 270.971,-29.5653"/>
</g>
<!-- Node8 -->
<g id="node9" class="node"><title>Node8</title>
<polygon fill="white" stroke="#bfbfbf" points="343.5,-0.5 343.5,-19.5 400.5,-19.5 400.5,-0.5 343.5,-0.5"/>
<text text-anchor="middle" x="372" y="-7.5" font-family="Helvetica,sans-Serif" font-size="10.00">avr/wdt.h</text>
</g>
<!-- Node3&#45;&gt;Node8 -->
<g id="edge8" class="edge"><title>Node3&#45;&gt;Node8</title>
<path fill="none" stroke="midnightblue" d="M265.178,-56.3993C288.563,-46.4608 319.612,-33.2649 342.206,-23.6625"/>
<polygon fill="midnightblue" stroke="midnightblue" points="343.794,-26.7904 351.629,-19.6578 341.056,-20.3481 343.794,-26.7904"/>
</g>
<!-- Node9 -->
<g id="node10" class="node"><title>Node9</title>
<polygon fill="white" stroke="#bfbfbf" points="419,-0.5 419,-19.5 471,-19.5 471,-0.5 419,-0.5"/>
<text text-anchor="middle" x="445" y="-7.5" font-family="Helvetica,sans-Serif" font-size="10.00">assert.h</text>
</g>
<!-- Node3&#45;&gt;Node9 -->
<g id="edge9" class="edge"><title>Node3&#45;&gt;Node9</title>
<path fill="none" stroke="midnightblue" d="M282.208,-56.4747C321.164,-45.5926 374.221,-30.7715 409.025,-21.0493"/>
<polygon fill="midnightblue" stroke="midnightblue" points="410.077,-24.3895 418.767,-18.328 408.194,-17.6476 410.077,-24.3895"/>
</g>
</g>
</svg>
