<?xml version="1.0" encoding="UTF-8" standalone="no"?>
<!DOCTYPE svg PUBLIC "-//W3C//DTD SVG 1.1//EN"
 "http://www.w3.org/Graphics/SVG/1.1/DTD/svg11.dtd">
<!-- Generated by graphviz version 2.38.0 (20140413.2041)
 -->
<!-- Title: shiftPx Pages: 1 -->
<svg width="212pt" height="104pt"
 viewBox="0.00 0.00 212.00 104.00" xmlns="http://www.w3.org/2000/svg" xmlns:xlink="http://www.w3.org/1999/xlink">
<g id="graph0" class="graph" transform="scale(1 1) rotate(0) translate(4 100)">
<title>shiftPx</title>
<polygon fill="white" stroke="none" points="-4,4 -4,-100 208,-100 208,4 -4,4"/>
<!-- Node8 -->
<g id="node1" class="node"><title>Node8</title>
<polygon fill="#bfbfbf" stroke="black" points="0,-38.5 0,-57.5 47,-57.5 47,-38.5 0,-38.5"/>
<text text-anchor="middle" x="23.5" y="-45.5" font-family="Helvetica,sans-Serif" font-size="10.00">shiftPx</text>
</g>
<!-- Node9 -->
<g id="node2" class="node"><title>Node9</title>
<g id="a_node2"><a xlink:href="structNeoPixel.html#a14aaaf801a74b5a608c4e94ae5293a3b" target="_top" xlink:title="returns a color value that can be used with NeoPixel::setPixelColor() ">
<polygon fill="white" stroke="black" points="100.5,-76.5 100.5,-95.5 186.5,-95.5 186.5,-76.5 100.5,-76.5"/>
<text text-anchor="middle" x="143.5" y="-83.5" font-family="Helvetica,sans-Serif" font-size="10.00">NeoPixel::Color</text>
</a>
</g>
</g>
<!-- Node8&#45;&gt;Node9 -->
<g id="edge1" class="edge"><title>Node8&#45;&gt;Node9</title>
<path fill="none" stroke="midnightblue" d="M47.2724,-55.4251C58.0926,-58.9456 71.2093,-63.2028 83,-67 89.4494,-69.0771 96.2952,-71.2721 102.96,-73.4038"/>
<polygon fill="midnightblue" stroke="midnightblue" points="101.936,-76.751 112.527,-76.4606 104.066,-70.083 101.936,-76.751"/>
</g>
<!-- Node10 -->
<g id="node3" class="node"><title>Node10</title>
<g id="a_node3"><a xlink:href="structNeoPixel.html#a3c6105546cfb9ccca5b31a1c26450d1d" target="_top" xlink:title="sets the rgb color of a specific pixel ">
<polygon fill="white" stroke="black" points="83,-38.5 83,-57.5 204,-57.5 204,-38.5 83,-38.5"/>
<text text-anchor="middle" x="143.5" y="-45.5" font-family="Helvetica,sans-Serif" font-size="10.00">NeoPixel::setPixelColor</text>
</a>
</g>
</g>
<!-- Node8&#45;&gt;Node10 -->
<g id="edge2" class="edge"><title>Node8&#45;&gt;Node10</title>
<path fill="none" stroke="midnightblue" d="M47.2516,-48C54.6478,-48 63.2847,-48 72.2832,-48"/>
<polygon fill="midnightblue" stroke="midnightblue" points="72.5494,-51.5001 82.5494,-48 72.5493,-44.5001 72.5494,-51.5001"/>
</g>
<!-- Node11 -->
<g id="node4" class="node"><title>Node11</title>
<g id="a_node4"><a xlink:href="structNeoPixel.html#a73a8e7c435b16a785430b5f3734e3216" target="_top" xlink:title="this will reveal the setPixels [via NeoPixel::setPixelColor() etc...] ">
<polygon fill="white" stroke="black" points="100.5,-0.5 100.5,-19.5 186.5,-19.5 186.5,-0.5 100.5,-0.5"/>
<text text-anchor="middle" x="143.5" y="-7.5" font-family="Helvetica,sans-Serif" font-size="10.00">NeoPixel::show</text>
</a>
</g>
</g>
<!-- Node8&#45;&gt;Node11 -->
<g id="edge3" class="edge"><title>Node8&#45;&gt;Node11</title>
<path fill="none" stroke="midnightblue" d="M47.2724,-40.5749C58.0926,-37.0544 71.2093,-32.7972 83,-29 89.4494,-26.9229 96.2952,-24.7279 102.96,-22.5962"/>
<polygon fill="midnightblue" stroke="midnightblue" points="104.066,-25.917 112.527,-19.5394 101.936,-19.249 104.066,-25.917"/>
</g>
</g>
</svg>
