<?xml version="1.0" encoding="UTF-8" standalone="no"?>
<!DOCTYPE svg PUBLIC "-//W3C//DTD SVG 1.1//EN"
 "http://www.w3.org/Graphics/SVG/1.1/DTD/svg11.dtd">
<!-- Generated by graphviz version 2.38.0 (20140413.2041)
 -->
<!-- Title: main Pages: 1 -->
<svg width="361pt" height="142pt"
 viewBox="0.00 0.00 361.00 142.00" xmlns="http://www.w3.org/2000/svg" xmlns:xlink="http://www.w3.org/1999/xlink">
<g id="graph0" class="graph" transform="scale(1 1) rotate(0) translate(4 138)">
<title>main</title>
<polygon fill="white" stroke="none" points="-4,4 -4,-138 357,-138 357,4 -4,4"/>
<!-- Node0 -->
<g id="node1" class="node"><title>Node0</title>
<polygon fill="#bfbfbf" stroke="black" points="0,-76.5 0,-95.5 38,-95.5 38,-76.5 0,-76.5"/>
<text text-anchor="middle" x="19" y="-83.5" font-family="Helvetica,sans-Serif" font-size="10.00">main</text>
</g>
<!-- Node1 -->
<g id="node2" class="node"><title>Node1</title>
<g id="a_node2"><a xlink:href="structNeoPixel.html#ad31eb7e7b738586ea0361a470591226f" target="_top" xlink:title="this has to be called to start the communcation (you should call NeoPixel::setPin() before) ...">
<polygon fill="white" stroke="black" points="92,-114.5 92,-133.5 178,-133.5 178,-114.5 92,-114.5"/>
<text text-anchor="middle" x="135" y="-121.5" font-family="Helvetica,sans-Serif" font-size="10.00">NeoPixel::begin</text>
</a>
</g>
</g>
<!-- Node0&#45;&gt;Node1 -->
<g id="edge1" class="edge"><title>Node0&#45;&gt;Node1</title>
<path fill="none" stroke="midnightblue" d="M38.4446,-92.6523C48.8562,-96.3664 62.1232,-101.031 74,-105 80.1888,-107.068 86.7552,-109.205 93.1863,-111.267"/>
<polygon fill="midnightblue" stroke="midnightblue" points="92.5168,-114.726 103.107,-114.423 94.6391,-108.056 92.5168,-114.726"/>
</g>
<!-- Node2 -->
<g id="node3" class="node"><title>Node2</title>
<g id="a_node3"><a xlink:href="structNeoPixel.html#a15d732945ae530d843910753ba9929f2" target="_top" xlink:title="changes the brightness for all further acceses via NeoPixel::setPixelColor() ">
<polygon fill="white" stroke="black" points="74,-76.5 74,-95.5 196,-95.5 196,-76.5 74,-76.5"/>
<text text-anchor="middle" x="135" y="-83.5" font-family="Helvetica,sans-Serif" font-size="10.00">NeoPixel::setBrightness</text>
</a>
</g>
</g>
<!-- Node0&#45;&gt;Node2 -->
<g id="edge2" class="edge"><title>Node0&#45;&gt;Node2</title>
<path fill="none" stroke="midnightblue" d="M38.0636,-86C45.2562,-86 54.0332,-86 63.3255,-86"/>
<polygon fill="midnightblue" stroke="midnightblue" points="63.5603,-89.5001 73.5603,-86 63.5602,-82.5001 63.5603,-89.5001"/>
</g>
<!-- Node3 -->
<g id="node4" class="node"><title>Node3</title>
<g id="a_node4"><a xlink:href="neo__animation_8cpp.html#af16b42fccab1fb1eaf3658e792035c42" target="_top" xlink:title="this will perform a single shift operation! ">
<polygon fill="white" stroke="black" points="111.5,-38.5 111.5,-57.5 158.5,-57.5 158.5,-38.5 111.5,-38.5"/>
<text text-anchor="middle" x="135" y="-45.5" font-family="Helvetica,sans-Serif" font-size="10.00">shiftPx</text>
</a>
</g>
</g>
<!-- Node0&#45;&gt;Node3 -->
<g id="edge3" class="edge"><title>Node0&#45;&gt;Node3</title>
<path fill="none" stroke="midnightblue" d="M38.4446,-79.3477C48.8562,-75.6336 62.1232,-70.9688 74,-67 82.9601,-64.0058 92.7119,-60.8669 101.699,-58.0225"/>
<polygon fill="midnightblue" stroke="midnightblue" points="102.947,-61.2988 111.437,-54.9596 100.847,-54.6213 102.947,-61.2988"/>
</g>
<!-- Node4 -->
<g id="node5" class="node"><title>Node4</title>
<g id="a_node5"><a xlink:href="structNeoPixel.html#a3c6105546cfb9ccca5b31a1c26450d1d" target="_top" xlink:title="sets the rgb color of a specific pixel ">
<polygon fill="white" stroke="black" points="232,-76.5 232,-95.5 353,-95.5 353,-76.5 232,-76.5"/>
<text text-anchor="middle" x="292.5" y="-83.5" font-family="Helvetica,sans-Serif" font-size="10.00">NeoPixel::setPixelColor</text>
</a>
</g>
</g>
<!-- Node3&#45;&gt;Node4 -->
<g id="edge4" class="edge"><title>Node3&#45;&gt;Node4</title>
<path fill="none" stroke="midnightblue" d="M158.611,-53.5255C180.517,-58.8788 214.454,-67.1721 242.549,-74.0377"/>
<polygon fill="midnightblue" stroke="midnightblue" points="242.057,-77.5205 252.602,-76.4945 243.719,-70.7206 242.057,-77.5205"/>
</g>
<!-- Node5 -->
<g id="node6" class="node"><title>Node5</title>
<g id="a_node6"><a xlink:href="structNeoPixel.html#a14aaaf801a74b5a608c4e94ae5293a3b" target="_top" xlink:title="returns a color value that can be used with NeoPixel::setPixelColor() ">
<polygon fill="white" stroke="black" points="249.5,-38.5 249.5,-57.5 335.5,-57.5 335.5,-38.5 249.5,-38.5"/>
<text text-anchor="middle" x="292.5" y="-45.5" font-family="Helvetica,sans-Serif" font-size="10.00">NeoPixel::Color</text>
</a>
</g>
</g>
<!-- Node3&#45;&gt;Node5 -->
<g id="edge5" class="edge"><title>Node3&#45;&gt;Node5</title>
<path fill="none" stroke="midnightblue" d="M158.611,-48C179.599,-48 211.632,-48 238.989,-48"/>
<polygon fill="midnightblue" stroke="midnightblue" points="239.212,-51.5001 249.212,-48 239.212,-44.5001 239.212,-51.5001"/>
</g>
<!-- Node6 -->
<g id="node7" class="node"><title>Node6</title>
<g id="a_node7"><a xlink:href="structNeoPixel.html#a73a8e7c435b16a785430b5f3734e3216" target="_top" xlink:title="this will reveal the setPixels [via NeoPixel::setPixelColor() etc...] ">
<polygon fill="white" stroke="black" points="249.5,-0.5 249.5,-19.5 335.5,-19.5 335.5,-0.5 249.5,-0.5"/>
<text text-anchor="middle" x="292.5" y="-7.5" font-family="Helvetica,sans-Serif" font-size="10.00">NeoPixel::show</text>
</a>
</g>
</g>
<!-- Node3&#45;&gt;Node6 -->
<g id="edge6" class="edge"><title>Node3&#45;&gt;Node6</title>
<path fill="none" stroke="midnightblue" d="M158.611,-42.4745C180.517,-37.1212 214.454,-28.8279 242.549,-21.9623"/>
<polygon fill="midnightblue" stroke="midnightblue" points="243.719,-25.2794 252.602,-19.5055 242.057,-18.4795 243.719,-25.2794"/>
</g>
</g>
</svg>
