<?xml version="1.0" encoding="UTF-8" standalone="no"?>
<!DOCTYPE svg PUBLIC "-//W3C//DTD SVG 1.1//EN"
 "http://www.w3.org/Graphics/SVG/1.1/DTD/svg11.dtd">
<!-- Generated by graphviz version 2.38.0 (20140413.2041)
 -->
<!-- Title: eVirtual_main Pages: 1 -->
<svg width="399pt" height="142pt"
 viewBox="0.00 0.00 399.00 142.00" xmlns="http://www.w3.org/2000/svg" xmlns:xlink="http://www.w3.org/1999/xlink">
<g id="graph0" class="graph" transform="scale(1 1) rotate(0) translate(4 138)">
<title>eVirtual_main</title>
<polygon fill="white" stroke="none" points="-4,4 -4,-138 395,-138 395,4 -4,4"/>
<!-- Node0 -->
<g id="node1" class="node"><title>Node0</title>
<polygon fill="#bfbfbf" stroke="black" points="0,-76.5 0,-95.5 76,-95.5 76,-76.5 0,-76.5"/>
<text text-anchor="middle" x="38" y="-83.5" font-family="Helvetica,sans-Serif" font-size="10.00">eVirtual_main</text>
</g>
<!-- Node1 -->
<g id="node2" class="node"><title>Node1</title>
<g id="a_node2"><a xlink:href="structNeoPixel.html#ad31eb7e7b738586ea0361a470591226f" target="_top" xlink:title="this has to be called to start the communcation (you should call NeoPixel::setPin() before) ...">
<polygon fill="white" stroke="black" points="130,-114.5 130,-133.5 216,-133.5 216,-114.5 130,-114.5"/>
<text text-anchor="middle" x="173" y="-121.5" font-family="Helvetica,sans-Serif" font-size="10.00">NeoPixel::begin</text>
</a>
</g>
</g>
<!-- Node0&#45;&gt;Node1 -->
<g id="edge1" class="edge"><title>Node0&#45;&gt;Node1</title>
<path fill="none" stroke="midnightblue" d="M72.5615,-95.589C89.573,-100.449 110.432,-106.409 128.645,-111.613"/>
<polygon fill="midnightblue" stroke="midnightblue" points="127.872,-115.032 138.449,-114.414 129.796,-108.301 127.872,-115.032"/>
</g>
<!-- Node2 -->
<g id="node3" class="node"><title>Node2</title>
<g id="a_node3"><a xlink:href="structNeoPixel.html#a15d732945ae530d843910753ba9929f2" target="_top" xlink:title="changes the brightness for all further acceses via NeoPixel::setPixelColor() ">
<polygon fill="white" stroke="black" points="112,-76.5 112,-95.5 234,-95.5 234,-76.5 112,-76.5"/>
<text text-anchor="middle" x="173" y="-83.5" font-family="Helvetica,sans-Serif" font-size="10.00">NeoPixel::setBrightness</text>
</a>
</g>
</g>
<!-- Node0&#45;&gt;Node2 -->
<g id="edge2" class="edge"><title>Node0&#45;&gt;Node2</title>
<path fill="none" stroke="midnightblue" d="M76.0479,-86C84.1455,-86 92.9732,-86 101.888,-86"/>
<polygon fill="midnightblue" stroke="midnightblue" points="101.955,-89.5001 111.955,-86 101.955,-82.5001 101.955,-89.5001"/>
</g>
<!-- Node3 -->
<g id="node4" class="node"><title>Node3</title>
<g id="a_node4"><a xlink:href="neo__animation_8cpp.html#af16b42fccab1fb1eaf3658e792035c42" target="_top" xlink:title="this will perform a single shift operation! ">
<polygon fill="white" stroke="black" points="149.5,-38.5 149.5,-57.5 196.5,-57.5 196.5,-38.5 149.5,-38.5"/>
<text text-anchor="middle" x="173" y="-45.5" font-family="Helvetica,sans-Serif" font-size="10.00">shiftPx</text>
</a>
</g>
</g>
<!-- Node0&#45;&gt;Node3 -->
<g id="edge3" class="edge"><title>Node0&#45;&gt;Node3</title>
<path fill="none" stroke="midnightblue" d="M72.5615,-76.411C93.1009,-70.5426 119.249,-63.0718 139.576,-57.264"/>
<polygon fill="midnightblue" stroke="midnightblue" points="140.672,-60.5911 149.325,-54.4785 138.749,-53.8604 140.672,-60.5911"/>
</g>
<!-- Node4 -->
<g id="node5" class="node"><title>Node4</title>
<g id="a_node5"><a xlink:href="structNeoPixel.html#a3c6105546cfb9ccca5b31a1c26450d1d" target="_top" xlink:title="sets the rgb color of a specific pixel ">
<polygon fill="white" stroke="black" points="270,-76.5 270,-95.5 391,-95.5 391,-76.5 270,-76.5"/>
<text text-anchor="middle" x="330.5" y="-83.5" font-family="Helvetica,sans-Serif" font-size="10.00">NeoPixel::setPixelColor</text>
</a>
</g>
</g>
<!-- Node3&#45;&gt;Node4 -->
<g id="edge4" class="edge"><title>Node3&#45;&gt;Node4</title>
<path fill="none" stroke="midnightblue" d="M196.611,-53.5255C218.517,-58.8788 252.454,-67.1721 280.549,-74.0377"/>
<polygon fill="midnightblue" stroke="midnightblue" points="280.057,-77.5205 290.602,-76.4945 281.719,-70.7206 280.057,-77.5205"/>
</g>
<!-- Node5 -->
<g id="node6" class="node"><title>Node5</title>
<g id="a_node6"><a xlink:href="structNeoPixel.html#a14aaaf801a74b5a608c4e94ae5293a3b" target="_top" xlink:title="returns a color value that can be used with NeoPixel::setPixelColor() ">
<polygon fill="white" stroke="black" points="287.5,-38.5 287.5,-57.5 373.5,-57.5 373.5,-38.5 287.5,-38.5"/>
<text text-anchor="middle" x="330.5" y="-45.5" font-family="Helvetica,sans-Serif" font-size="10.00">NeoPixel::Color</text>
</a>
</g>
</g>
<!-- Node3&#45;&gt;Node5 -->
<g id="edge5" class="edge"><title>Node3&#45;&gt;Node5</title>
<path fill="none" stroke="midnightblue" d="M196.611,-48C217.599,-48 249.632,-48 276.989,-48"/>
<polygon fill="midnightblue" stroke="midnightblue" points="277.212,-51.5001 287.212,-48 277.212,-44.5001 277.212,-51.5001"/>
</g>
<!-- Node6 -->
<g id="node7" class="node"><title>Node6</title>
<g id="a_node7"><a xlink:href="structNeoPixel.html#a73a8e7c435b16a785430b5f3734e3216" target="_top" xlink:title="this will reveal the setPixels [via NeoPixel::setPixelColor() etc...] ">
<polygon fill="white" stroke="black" points="287.5,-0.5 287.5,-19.5 373.5,-19.5 373.5,-0.5 287.5,-0.5"/>
<text text-anchor="middle" x="330.5" y="-7.5" font-family="Helvetica,sans-Serif" font-size="10.00">NeoPixel::show</text>
</a>
</g>
</g>
<!-- Node3&#45;&gt;Node6 -->
<g id="edge6" class="edge"><title>Node3&#45;&gt;Node6</title>
<path fill="none" stroke="midnightblue" d="M196.611,-42.4745C218.517,-37.1212 252.454,-28.8279 280.549,-21.9623"/>
<polygon fill="midnightblue" stroke="midnightblue" points="281.719,-25.2794 290.602,-19.5055 280.057,-18.4795 281.719,-25.2794"/>
</g>
</g>
</svg>
