<?xml version="1.0" encoding="UTF-8" standalone="no"?>
<!DOCTYPE svg PUBLIC "-//W3C//DTD SVG 1.1//EN"
 "http://www.w3.org/Graphics/SVG/1.1/DTD/svg11.dtd">
<!-- Generated by graphviz version 2.40.1 (20161225.0304)
 -->
<!-- Title: main Pages: 1 -->
<svg width="385pt" height="142pt"
 viewBox="0.00 0.00 385.00 142.00" xmlns="http://www.w3.org/2000/svg" xmlns:xlink="http://www.w3.org/1999/xlink">
<g id="graph0" class="graph" transform="scale(1 1) rotate(0) translate(4 138)">
<title>main</title>
<polygon fill="#ffffff" stroke="transparent" points="-4,4 -4,-138 381,-138 381,4 -4,4"/>
<!-- Node0 -->
<g id="node1" class="node">
<title>Node0</title>
<polygon fill="#bfbfbf" stroke="#000000" points="0,-76.5 0,-95.5 41,-95.5 41,-76.5 0,-76.5"/>
<text text-anchor="middle" x="20.5" y="-83.5" font-family="RobotoMono" font-size="10.00" fill="#000000">main</text>
</g>
<!-- Node1 -->
<g id="node2" class="node">
<title>Node1</title>
<g id="a_node2"><a xlink:href="structNeoPixel.html#ad31eb7e7b738586ea0361a470591226f" target="_top" xlink:title="this has to be called to start the communcation (you should call NeoPixel::setPin() before) ...">
<polygon fill="#ffffff" stroke="#000000" points="97,-114.5 97,-133.5 190,-133.5 190,-114.5 97,-114.5"/>
<text text-anchor="middle" x="143.5" y="-121.5" font-family="RobotoMono" font-size="10.00" fill="#000000">NeoPixel::begin</text>
</a>
</g>
</g>
<!-- Node0&#45;&gt;Node1 -->
<g id="edge1" class="edge">
<title>Node0&#45;&gt;Node1</title>
<path fill="none" stroke="#191970" d="M41.089,-93.1778C51.766,-96.8354 65.0422,-101.2833 77,-105 84.1752,-107.2302 91.8162,-109.5054 99.2664,-111.6703"/>
<polygon fill="#191970" stroke="#191970" points="98.3176,-115.0392 108.8954,-114.4398 100.2525,-108.3119 98.3176,-115.0392"/>
</g>
<!-- Node2 -->
<g id="node3" class="node">
<title>Node2</title>
<g id="a_node3"><a xlink:href="structNeoPixel.html#a15d732945ae530d843910753ba9929f2" target="_top" xlink:title="changes the brightness for all further acceses via NeoPixel::setPixelColor() ">
<polygon fill="#ffffff" stroke="#000000" points="77,-76.5 77,-95.5 210,-95.5 210,-76.5 77,-76.5"/>
<text text-anchor="middle" x="143.5" y="-83.5" font-family="RobotoMono" font-size="10.00" fill="#000000">NeoPixel::setBrightness</text>
</a>
</g>
</g>
<!-- Node0&#45;&gt;Node2 -->
<g id="edge2" class="edge">
<title>Node0&#45;&gt;Node2</title>
<path fill="none" stroke="#191970" d="M41.0874,-86C48.4702,-86 57.2926,-86 66.6193,-86"/>
<polygon fill="#191970" stroke="#191970" points="66.8935,-89.5001 76.8934,-86 66.8934,-82.5001 66.8935,-89.5001"/>
</g>
<!-- Node3 -->
<g id="node4" class="node">
<title>Node3</title>
<g id="a_node4"><a xlink:href="neo__animation_8cpp.html#af16b42fccab1fb1eaf3658e792035c42" target="_top" xlink:title="this will perform a single shift operation! ">
<polygon fill="#ffffff" stroke="#000000" points="118.5,-38.5 118.5,-57.5 168.5,-57.5 168.5,-38.5 118.5,-38.5"/>
<text text-anchor="middle" x="143.5" y="-45.5" font-family="RobotoMono" font-size="10.00" fill="#000000">shiftPx</text>
</a>
</g>
</g>
<!-- Node0&#45;&gt;Node3 -->
<g id="edge3" class="edge">
<title>Node0&#45;&gt;Node3</title>
<path fill="none" stroke="#191970" d="M41.089,-78.8222C51.766,-75.1646 65.0422,-70.7167 77,-67 87.2334,-63.8193 98.4142,-60.547 108.6379,-57.6336"/>
<polygon fill="#191970" stroke="#191970" points="109.7996,-60.9425 118.4721,-54.8566 107.8972,-54.206 109.7996,-60.9425"/>
</g>
<!-- Node4 -->
<g id="node5" class="node">
<title>Node4</title>
<g id="a_node5"><a xlink:href="structNeoPixel.html#a3c6105546cfb9ccca5b31a1c26450d1d" target="_top" xlink:title="sets the rgb color of a specific pixel ">
<polygon fill="#ffffff" stroke="#000000" points="246,-76.5 246,-95.5 377,-95.5 377,-76.5 246,-76.5"/>
<text text-anchor="middle" x="311.5" y="-83.5" font-family="RobotoMono" font-size="10.00" fill="#000000">NeoPixel::setPixelColor</text>
</a>
</g>
</g>
<!-- Node3&#45;&gt;Node4 -->
<g id="edge4" class="edge">
<title>Node3&#45;&gt;Node4</title>
<path fill="none" stroke="#191970" d="M168.6513,-53.689C192.5007,-59.0835 229.0691,-67.3549 259.2356,-74.1783"/>
<polygon fill="#191970" stroke="#191970" points="258.6672,-77.6381 269.1929,-76.4305 260.2115,-70.8105 258.6672,-77.6381"/>
</g>
<!-- Node5 -->
<g id="node6" class="node">
<title>Node5</title>
<g id="a_node6"><a xlink:href="structNeoPixel.html#a14aaaf801a74b5a608c4e94ae5293a3b" target="_top" xlink:title="returns a color value that can be used with NeoPixel::setPixelColor() ">
<polygon fill="#ffffff" stroke="#000000" points="265.5,-38.5 265.5,-57.5 357.5,-57.5 357.5,-38.5 265.5,-38.5"/>
<text text-anchor="middle" x="311.5" y="-45.5" font-family="RobotoMono" font-size="10.00" fill="#000000">NeoPixel::Color</text>
</a>
</g>
</g>
<!-- Node3&#45;&gt;Node5 -->
<g id="edge5" class="edge">
<title>Node3&#45;&gt;Node5</title>
<path fill="none" stroke="#191970" d="M168.6513,-48C191.4144,-48 225.7643,-48 255.0756,-48"/>
<polygon fill="#191970" stroke="#191970" points="255.206,-51.5001 265.2059,-48 255.2059,-44.5001 255.206,-51.5001"/>
</g>
<!-- Node6 -->
<g id="node7" class="node">
<title>Node6</title>
<g id="a_node7"><a xlink:href="structNeoPixel.html#a73a8e7c435b16a785430b5f3734e3216" target="_top" xlink:title="this will reveal the setPixels [via NeoPixel::setPixelColor() etc...] ">
<polygon fill="#ffffff" stroke="#000000" points="265.5,-.5 265.5,-19.5 357.5,-19.5 357.5,-.5 265.5,-.5"/>
<text text-anchor="middle" x="311.5" y="-7.5" font-family="RobotoMono" font-size="10.00" fill="#000000">NeoPixel::show</text>
</a>
</g>
</g>
<!-- Node3&#45;&gt;Node6 -->
<g id="edge6" class="edge">
<title>Node3&#45;&gt;Node6</title>
<path fill="none" stroke="#191970" d="M168.6513,-42.311C192.5007,-36.9165 229.0691,-28.6451 259.2356,-21.8217"/>
<polygon fill="#191970" stroke="#191970" points="260.2115,-25.1895 269.1929,-19.5695 258.6672,-18.3619 260.2115,-25.1895"/>
</g>
</g>
</svg>
