<?xml version="1.0" encoding="UTF-8" standalone="no"?>
<!DOCTYPE svg PUBLIC "-//W3C//DTD SVG 1.1//EN"
 "http://www.w3.org/Graphics/SVG/1.1/DTD/svg11.dtd">
<!-- Generated by graphviz version 2.40.1 (20161225.0304)
 -->
<!-- Title: shiftPx Pages: 1 -->
<svg width="225pt" height="104pt"
 viewBox="0.00 0.00 225.00 104.00" xmlns="http://www.w3.org/2000/svg" xmlns:xlink="http://www.w3.org/1999/xlink">
<g id="graph0" class="graph" transform="scale(1 1) rotate(0) translate(4 100)">
<title>shiftPx</title>
<polygon fill="#ffffff" stroke="transparent" points="-4,4 -4,-100 221,-100 221,4 -4,4"/>
<!-- Node8 -->
<g id="node1" class="node">
<title>Node8</title>
<polygon fill="#bfbfbf" stroke="#000000" points="0,-38.5 0,-57.5 50,-57.5 50,-38.5 0,-38.5"/>
<text text-anchor="middle" x="25" y="-45.5" font-family="RobotoMono" font-size="10.00" fill="#000000">shiftPx</text>
</g>
<!-- Node9 -->
<g id="node2" class="node">
<title>Node9</title>
<g id="a_node2"><a xlink:href="structNeoPixel.html#a14aaaf801a74b5a608c4e94ae5293a3b" target="_top" xlink:title="returns a color value that can be used with NeoPixel::setPixelColor() ">
<polygon fill="#ffffff" stroke="#000000" points="105.5,-76.5 105.5,-95.5 197.5,-95.5 197.5,-76.5 105.5,-76.5"/>
<text text-anchor="middle" x="151.5" y="-83.5" font-family="RobotoMono" font-size="10.00" fill="#000000">NeoPixel::Color</text>
</a>
</g>
</g>
<!-- Node8&#45;&gt;Node9 -->
<g id="edge1" class="edge">
<title>Node8&#45;&gt;Node9</title>
<path fill="none" stroke="#191970" d="M50.1926,-55.9687C61.1753,-59.411 74.2094,-63.4541 86,-67 93.2532,-69.1813 100.9713,-71.4589 108.4691,-73.6484"/>
<polygon fill="#191970" stroke="#191970" points="107.5617,-77.0294 118.1412,-76.4604 109.516,-70.3077 107.5617,-77.0294"/>
</g>
<!-- Node10 -->
<g id="node3" class="node">
<title>Node10</title>
<g id="a_node3"><a xlink:href="structNeoPixel.html#a3c6105546cfb9ccca5b31a1c26450d1d" target="_top" xlink:title="sets the rgb color of a specific pixel ">
<polygon fill="#ffffff" stroke="#000000" points="86,-38.5 86,-57.5 217,-57.5 217,-38.5 86,-38.5"/>
<text text-anchor="middle" x="151.5" y="-45.5" font-family="RobotoMono" font-size="10.00" fill="#000000">NeoPixel::setPixelColor</text>
</a>
</g>
</g>
<!-- Node8&#45;&gt;Node10 -->
<g id="edge2" class="edge">
<title>Node8&#45;&gt;Node10</title>
<path fill="none" stroke="#191970" d="M50.2951,-48C57.9199,-48 66.7123,-48 75.8649,-48"/>
<polygon fill="#191970" stroke="#191970" points="75.8995,-51.5001 85.8995,-48 75.8994,-44.5001 75.8995,-51.5001"/>
</g>
<!-- Node11 -->
<g id="node4" class="node">
<title>Node11</title>
<g id="a_node4"><a xlink:href="structNeoPixel.html#a73a8e7c435b16a785430b5f3734e3216" target="_top" xlink:title="this will reveal the setPixels [via NeoPixel::setPixelColor() etc...] ">
<polygon fill="#ffffff" stroke="#000000" points="105.5,-.5 105.5,-19.5 197.5,-19.5 197.5,-.5 105.5,-.5"/>
<text text-anchor="middle" x="151.5" y="-7.5" font-family="RobotoMono" font-size="10.00" fill="#000000">NeoPixel::show</text>
</a>
</g>
</g>
<!-- Node8&#45;&gt;Node11 -->
<g id="edge3" class="edge">
<title>Node8&#45;&gt;Node11</title>
<path fill="none" stroke="#191970" d="M50.1926,-40.0313C61.1753,-36.589 74.2094,-32.5459 86,-29 93.2532,-26.8187 100.9713,-24.5411 108.4691,-22.3516"/>
<polygon fill="#191970" stroke="#191970" points="109.516,-25.6923 118.1412,-19.5396 107.5617,-18.9706 109.516,-25.6923"/>
</g>
</g>
</svg>
