<?xml version="1.0" encoding="UTF-8" standalone="no"?>
<!DOCTYPE svg PUBLIC "-//W3C//DTD SVG 1.1//EN"
 "http://www.w3.org/Graphics/SVG/1.1/DTD/svg11.dtd">
<!-- Generated by graphviz version 2.40.1 (20161225.0304)
 -->
<!-- Title: shiftPx Pages: 1 -->
<svg width="258pt" height="104pt"
 viewBox="0.00 0.00 258.00 104.00" xmlns="http://www.w3.org/2000/svg" xmlns:xlink="http://www.w3.org/1999/xlink">
<g id="graph0" class="graph" transform="scale(1 1) rotate(0) translate(4 100)">
<title>shiftPx</title>
<polygon fill="#ffffff" stroke="transparent" points="-4,4 -4,-100 254,-100 254,4 -4,4"/>
<!-- Node8 -->
<g id="node1" class="node">
<title>Node8</title>
<polygon fill="#bfbfbf" stroke="#000000" points="0,-38.5 0,-57.5 59,-57.5 59,-38.5 0,-38.5"/>
<text text-anchor="middle" x="29.5" y="-45.5" font-family="Hack" font-size="10.00" fill="#000000">shiftPx</text>
</g>
<!-- Node9 -->
<g id="node2" class="node">
<title>Node9</title>
<g id="a_node2"><a xlink:href="structNeoPixel.html#a14aaaf801a74b5a608c4e94ae5293a3b" target="_top" xlink:title="returns a color value that can be used with NeoPixel::setPixelColor() ">
<polygon fill="#ffffff" stroke="#000000" points="119,-76.5 119,-95.5 226,-95.5 226,-76.5 119,-76.5"/>
<text text-anchor="middle" x="172.5" y="-83.5" font-family="Hack" font-size="10.00" fill="#000000">NeoPixel::Color</text>
</a>
</g>
</g>
<!-- Node8&#45;&gt;Node9 -->
<g id="edge1" class="edge">
<title>Node8&#45;&gt;Node9</title>
<path fill="none" stroke="#191970" d="M59.0981,-56.8708C70.3145,-60.1573 83.2187,-63.8486 95,-67 103.8452,-69.366 113.289,-71.7768 122.4326,-74.0515"/>
<polygon fill="#191970" stroke="#191970" points="121.6471,-77.4626 132.1942,-76.4579 123.3226,-70.666 121.6471,-77.4626"/>
</g>
<!-- Node10 -->
<g id="node3" class="node">
<title>Node10</title>
<g id="a_node3"><a xlink:href="structNeoPixel.html#a3c6105546cfb9ccca5b31a1c26450d1d" target="_top" xlink:title="sets the rgb color of a specific pixel ">
<polygon fill="#ffffff" stroke="#000000" points="95,-38.5 95,-57.5 250,-57.5 250,-38.5 95,-38.5"/>
<text text-anchor="middle" x="172.5" y="-45.5" font-family="Hack" font-size="10.00" fill="#000000">NeoPixel::setPixelColor</text>
</a>
</g>
</g>
<!-- Node8&#45;&gt;Node10 -->
<g id="edge2" class="edge">
<title>Node8&#45;&gt;Node10</title>
<path fill="none" stroke="#191970" d="M59.1297,-48C66.8797,-48 75.643,-48 84.7794,-48"/>
<polygon fill="#191970" stroke="#191970" points="84.8095,-51.5001 94.8095,-48 84.8094,-44.5001 84.8095,-51.5001"/>
</g>
<!-- Node11 -->
<g id="node4" class="node">
<title>Node11</title>
<g id="a_node4"><a xlink:href="structNeoPixel.html#a73a8e7c435b16a785430b5f3734e3216" target="_top" xlink:title="this will reveal the setPixels [via NeoPixel::setPixelColor() etc...] ">
<polygon fill="#ffffff" stroke="#000000" points="122,-.5 122,-19.5 223,-19.5 223,-.5 122,-.5"/>
<text text-anchor="middle" x="172.5" y="-7.5" font-family="Hack" font-size="10.00" fill="#000000">NeoPixel::show</text>
</a>
</g>
</g>
<!-- Node8&#45;&gt;Node11 -->
<g id="edge3" class="edge">
<title>Node8&#45;&gt;Node11</title>
<path fill="none" stroke="#191970" d="M59.0981,-39.1292C70.3145,-35.8427 83.2187,-32.1514 95,-29 103.8452,-26.634 113.289,-24.2232 122.4326,-21.9485"/>
<polygon fill="#191970" stroke="#191970" points="123.3226,-25.334 132.1942,-19.5421 121.6471,-18.5374 123.3226,-25.334"/>
</g>
</g>
</svg>
