<?xml version="1.0" encoding="UTF-8" standalone="no"?>
<!DOCTYPE svg PUBLIC "-//W3C//DTD SVG 1.1//EN"
 "http://www.w3.org/Graphics/SVG/1.1/DTD/svg11.dtd">
<!-- Generated by graphviz version 2.40.1 (20161225.0304)
 -->
<!-- Title: main Pages: 1 -->
<svg width="431pt" height="142pt"
 viewBox="0.00 0.00 431.00 142.00" xmlns="http://www.w3.org/2000/svg" xmlns:xlink="http://www.w3.org/1999/xlink">
<g id="graph0" class="graph" transform="scale(1 1) rotate(0) translate(4 138)">
<title>main</title>
<polygon fill="#ffffff" stroke="transparent" points="-4,4 -4,-138 427,-138 427,4 -4,4"/>
<!-- Node0 -->
<g id="node1" class="node">
<title>Node0</title>
<polygon fill="#bfbfbf" stroke="#000000" points="0,-76.5 0,-95.5 41,-95.5 41,-76.5 0,-76.5"/>
<text text-anchor="middle" x="20.5" y="-83.5" font-family="Hack" font-size="10.00" fill="#000000">main</text>
</g>
<!-- Node1 -->
<g id="node2" class="node">
<title>Node1</title>
<g id="a_node2"><a xlink:href="structNeoPixel.html#ad31eb7e7b738586ea0361a470591226f" target="_top" xlink:title="this has to be called to start the communcation (you should call NeoPixel::setPin() before) ...">
<polygon fill="#ffffff" stroke="#000000" points="101,-114.5 101,-133.5 208,-133.5 208,-114.5 101,-114.5"/>
<text text-anchor="middle" x="154.5" y="-121.5" font-family="Hack" font-size="10.00" fill="#000000">NeoPixel::begin</text>
</a>
</g>
</g>
<!-- Node0&#45;&gt;Node1 -->
<g id="edge1" class="edge">
<title>Node0&#45;&gt;Node1</title>
<path fill="none" stroke="#191970" d="M41.0321,-93.3673C51.694,-97.0749 64.974,-101.5105 77,-105 85.4099,-107.4403 94.3918,-109.8339 103.1504,-112.055"/>
<polygon fill="#191970" stroke="#191970" points="102.3525,-115.4632 112.9019,-114.4828 104.0437,-108.6705 102.3525,-115.4632"/>
</g>
<!-- Node2 -->
<g id="node3" class="node">
<title>Node2</title>
<g id="a_node3"><a xlink:href="structNeoPixel.html#a15d732945ae530d843910753ba9929f2" target="_top" xlink:title="changes the brightness for all further acceses via NeoPixel::setPixelColor() ">
<polygon fill="#ffffff" stroke="#000000" points="77,-76.5 77,-95.5 232,-95.5 232,-76.5 77,-76.5"/>
<text text-anchor="middle" x="154.5" y="-83.5" font-family="Hack" font-size="10.00" fill="#000000">NeoPixel::setBrightness</text>
</a>
</g>
</g>
<!-- Node0&#45;&gt;Node2 -->
<g id="edge2" class="edge">
<title>Node0&#45;&gt;Node2</title>
<path fill="none" stroke="#191970" d="M41.1438,-86C48.4996,-86 57.3175,-86 66.7436,-86"/>
<polygon fill="#191970" stroke="#191970" points="66.751,-89.5001 76.7509,-86 66.7509,-82.5001 66.751,-89.5001"/>
</g>
<!-- Node3 -->
<g id="node4" class="node">
<title>Node3</title>
<g id="a_node4"><a xlink:href="neo__animation_8cpp.html#af16b42fccab1fb1eaf3658e792035c42" target="_top" xlink:title="this will perform a single shift operation! ">
<polygon fill="#ffffff" stroke="#000000" points="125,-38.5 125,-57.5 184,-57.5 184,-38.5 125,-38.5"/>
<text text-anchor="middle" x="154.5" y="-45.5" font-family="Hack" font-size="10.00" fill="#000000">shiftPx</text>
</a>
</g>
</g>
<!-- Node0&#45;&gt;Node3 -->
<g id="edge3" class="edge">
<title>Node0&#45;&gt;Node3</title>
<path fill="none" stroke="#191970" d="M41.0321,-78.6327C51.694,-74.9251 64.974,-70.4895 77,-67 89.2651,-63.4411 102.7467,-59.9815 114.9781,-57.0112"/>
<polygon fill="#191970" stroke="#191970" points="115.9914,-60.3677 124.9044,-54.6398 114.3648,-53.5593 115.9914,-60.3677"/>
</g>
<!-- Node4 -->
<g id="node5" class="node">
<title>Node4</title>
<g id="a_node5"><a xlink:href="structNeoPixel.html#a3c6105546cfb9ccca5b31a1c26450d1d" target="_top" xlink:title="sets the rgb color of a specific pixel ">
<polygon fill="#ffffff" stroke="#000000" points="268,-76.5 268,-95.5 423,-95.5 423,-76.5 268,-76.5"/>
<text text-anchor="middle" x="345.5" y="-83.5" font-family="Hack" font-size="10.00" fill="#000000">NeoPixel::setPixelColor</text>
</a>
</g>
</g>
<!-- Node3&#45;&gt;Node4 -->
<g id="edge4" class="edge">
<title>Node3&#45;&gt;Node4</title>
<path fill="none" stroke="#191970" d="M184.3438,-53.9375C211.9412,-59.4281 253.7167,-67.7394 287.8187,-74.5241"/>
<polygon fill="#191970" stroke="#191970" points="287.1815,-77.9659 297.6723,-76.4845 288.5475,-71.1005 287.1815,-77.9659"/>
</g>
<!-- Node5 -->
<g id="node6" class="node">
<title>Node5</title>
<g id="a_node6"><a xlink:href="structNeoPixel.html#a14aaaf801a74b5a608c4e94ae5293a3b" target="_top" xlink:title="returns a color value that can be used with NeoPixel::setPixelColor() ">
<polygon fill="#ffffff" stroke="#000000" points="292,-38.5 292,-57.5 399,-57.5 399,-38.5 292,-38.5"/>
<text text-anchor="middle" x="345.5" y="-45.5" font-family="Hack" font-size="10.00" fill="#000000">NeoPixel::Color</text>
</a>
</g>
</g>
<!-- Node3&#45;&gt;Node5 -->
<g id="edge5" class="edge">
<title>Node3&#45;&gt;Node5</title>
<path fill="none" stroke="#191970" d="M184.3438,-48C210.1896,-48 248.4707,-48 281.238,-48"/>
<polygon fill="#191970" stroke="#191970" points="281.6603,-51.5001 291.6603,-48 281.6603,-44.5001 281.6603,-51.5001"/>
</g>
<!-- Node6 -->
<g id="node7" class="node">
<title>Node6</title>
<g id="a_node7"><a xlink:href="structNeoPixel.html#a73a8e7c435b16a785430b5f3734e3216" target="_top" xlink:title="this will reveal the setPixels [via NeoPixel::setPixelColor() etc...] ">
<polygon fill="#ffffff" stroke="#000000" points="295,-.5 295,-19.5 396,-19.5 396,-.5 295,-.5"/>
<text text-anchor="middle" x="345.5" y="-7.5" font-family="Hack" font-size="10.00" fill="#000000">NeoPixel::show</text>
</a>
</g>
</g>
<!-- Node3&#45;&gt;Node6 -->
<g id="edge6" class="edge">
<title>Node3&#45;&gt;Node6</title>
<path fill="none" stroke="#191970" d="M184.3438,-42.0625C211.9412,-36.5719 253.7167,-28.2606 287.8187,-21.4759"/>
<polygon fill="#191970" stroke="#191970" points="288.5475,-24.8995 297.6723,-19.5155 287.1815,-18.0341 288.5475,-24.8995"/>
</g>
</g>
</svg>
