<?xml version="1.0" encoding="UTF-8"?>
<!DOCTYPE svg PUBLIC "-//W3C//DTD SVG 1.1//EN" "http://www.w3.org/Graphics/SVG/1.1/DTD/svg11.dtd">
<svg width="271mm" height="153mm" viewBox="0 0 27100 15300" version="1.1" xmlns="http://www.w3.org/2000/svg" stroke-width="28.222" stroke-linejoin="round" xml:space="preserve">
 <path fill="rgb(255,255,255)" stroke="none" d="M 13559,15253 L -1,15253 -1,0 27119,0 27119,15253 13559,15253 Z"/>
 <path fill="none" stroke="rgb(179,179,179)" stroke-linejoin="round" d="M 13507,13758 L 2255,13758 2255,780 24758,780 24758,13758 13507,13758 Z"/>
 <path fill="none" stroke="rgb(179,179,179)" stroke-linejoin="round" d="M 24758,13757 L 2255,13757"/>
 <path fill="none" stroke="rgb(179,179,179)" stroke-linejoin="round" d="M 24758,11593 L 2255,11593"/>
 <path fill="none" stroke="rgb(179,179,179)" stroke-linejoin="round" d="M 24758,9431 L 2255,9431"/>
 <path fill="none" stroke="rgb(179,179,179)" stroke-linejoin="round" d="M 24758,7267 L 2255,7267"/>
 <path fill="none" stroke="rgb(179,179,179)" stroke-linejoin="round" d="M 24758,5104 L 2255,5104"/>
 <path fill="none" stroke="rgb(179,179,179)" stroke-linejoin="round" d="M 24758,2942 L 2255,2942"/>
 <path fill="none" stroke="rgb(179,179,179)" stroke-linejoin="round" d="M 24758,778 L 2255,778"/>
 <path fill="none" stroke="rgb(179,179,179)" stroke-linejoin="round" d="M 2255,13907 L 2255,13757"/>
 <path fill="none" stroke="rgb(179,179,179)" stroke-linejoin="round" d="M 2255,13907 L 2255,13757"/>
 <path fill="none" stroke="rgb(179,179,179)" stroke-linejoin="round" d="M 2714,13907 L 2714,13757"/>
 <path fill="none" stroke="rgb(179,179,179)" stroke-linejoin="round" d="M 2714,13907 L 2714,13757"/>
 <path fill="none" stroke="rgb(179,179,179)" stroke-linejoin="round" d="M 3173,13907 L 3173,13757"/>
 <path fill="none" stroke="rgb(179,179,179)" stroke-linejoin="round" d="M 3173,13907 L 3173,13757"/>
 <path fill="none" stroke="rgb(179,179,179)" stroke-linejoin="round" d="M 3632,13907 L 3632,13757"/>
 <path fill="none" stroke="rgb(179,179,179)" stroke-linejoin="round" d="M 3632,13907 L 3632,13757"/>
 <path fill="none" stroke="rgb(179,179,179)" stroke-linejoin="round" d="M 4092,13907 L 4092,13757"/>
 <path fill="none" stroke="rgb(179,179,179)" stroke-linejoin="round" d="M 4092,13907 L 4092,13757"/>
 <path fill="none" stroke="rgb(179,179,179)" stroke-linejoin="round" d="M 4551,13907 L 4551,13757"/>
 <path fill="none" stroke="rgb(179,179,179)" stroke-linejoin="round" d="M 4551,13907 L 4551,13757"/>
 <path fill="none" stroke="rgb(179,179,179)" stroke-linejoin="round" d="M 5010,13907 L 5010,13757"/>
 <path fill="none" stroke="rgb(179,179,179)" stroke-linejoin="round" d="M 5010,13907 L 5010,13757"/>
 <path fill="none" stroke="rgb(179,179,179)" stroke-linejoin="round" d="M 5469,13907 L 5469,13757"/>
 <path fill="none" stroke="rgb(179,179,179)" stroke-linejoin="round" d="M 5469,13907 L 5469,13757"/>
 <path fill="none" stroke="rgb(179,179,179)" stroke-linejoin="round" d="M 5929,13907 L 5929,13757"/>
 <path fill="none" stroke="rgb(179,179,179)" stroke-linejoin="round" d="M 5929,13907 L 5929,13757"/>
 <path fill="none" stroke="rgb(179,179,179)" stroke-linejoin="round" d="M 6388,13907 L 6388,13757"/>
 <path fill="none" stroke="rgb(179,179,179)" stroke-linejoin="round" d="M 6388,13907 L 6388,13757"/>
 <path fill="none" stroke="rgb(179,179,179)" stroke-linejoin="round" d="M 6847,13907 L 6847,13757"/>
 <path fill="none" stroke="rgb(179,179,179)" stroke-linejoin="round" d="M 6847,13907 L 6847,13757"/>
 <path fill="none" stroke="rgb(179,179,179)" stroke-linejoin="round" d="M 7306,13907 L 7306,13757"/>
 <path fill="none" stroke="rgb(179,179,179)" stroke-linejoin="round" d="M 7306,13907 L 7306,13757"/>
 <path fill="none" stroke="rgb(179,179,179)" stroke-linejoin="round" d="M 7766,13907 L 7766,13757"/>
 <path fill="none" stroke="rgb(179,179,179)" stroke-linejoin="round" d="M 7766,13907 L 7766,13757"/>
 <path fill="none" stroke="rgb(179,179,179)" stroke-linejoin="round" d="M 8225,13907 L 8225,13757"/>
 <path fill="none" stroke="rgb(179,179,179)" stroke-linejoin="round" d="M 8225,13907 L 8225,13757"/>
 <path fill="none" stroke="rgb(179,179,179)" stroke-linejoin="round" d="M 8684,13907 L 8684,13757"/>
 <path fill="none" stroke="rgb(179,179,179)" stroke-linejoin="round" d="M 8684,13907 L 8684,13757"/>
 <path fill="none" stroke="rgb(179,179,179)" stroke-linejoin="round" d="M 9143,13907 L 9143,13757"/>
 <path fill="none" stroke="rgb(179,179,179)" stroke-linejoin="round" d="M 9143,13907 L 9143,13757"/>
 <path fill="none" stroke="rgb(179,179,179)" stroke-linejoin="round" d="M 9603,13907 L 9603,13757"/>
 <path fill="none" stroke="rgb(179,179,179)" stroke-linejoin="round" d="M 9603,13907 L 9603,13757"/>
 <path fill="none" stroke="rgb(179,179,179)" stroke-linejoin="round" d="M 10062,13907 L 10062,13757"/>
 <path fill="none" stroke="rgb(179,179,179)" stroke-linejoin="round" d="M 10062,13907 L 10062,13757"/>
 <path fill="none" stroke="rgb(179,179,179)" stroke-linejoin="round" d="M 10521,13907 L 10521,13757"/>
 <path fill="none" stroke="rgb(179,179,179)" stroke-linejoin="round" d="M 10521,13907 L 10521,13757"/>
 <path fill="none" stroke="rgb(179,179,179)" stroke-linejoin="round" d="M 10981,13907 L 10981,13757"/>
 <path fill="none" stroke="rgb(179,179,179)" stroke-linejoin="round" d="M 10981,13907 L 10981,13757"/>
 <path fill="none" stroke="rgb(179,179,179)" stroke-linejoin="round" d="M 11440,13907 L 11440,13757"/>
 <path fill="none" stroke="rgb(179,179,179)" stroke-linejoin="round" d="M 11440,13907 L 11440,13757"/>
 <path fill="none" stroke="rgb(179,179,179)" stroke-linejoin="round" d="M 11899,13907 L 11899,13757"/>
 <path fill="none" stroke="rgb(179,179,179)" stroke-linejoin="round" d="M 11899,13907 L 11899,13757"/>
 <path fill="none" stroke="rgb(179,179,179)" stroke-linejoin="round" d="M 12358,13907 L 12358,13757"/>
 <path fill="none" stroke="rgb(179,179,179)" stroke-linejoin="round" d="M 12358,13907 L 12358,13757"/>
 <path fill="none" stroke="rgb(179,179,179)" stroke-linejoin="round" d="M 12818,13907 L 12818,13757"/>
 <path fill="none" stroke="rgb(179,179,179)" stroke-linejoin="round" d="M 12818,13907 L 12818,13757"/>
 <path fill="none" stroke="rgb(179,179,179)" stroke-linejoin="round" d="M 13277,13907 L 13277,13757"/>
 <path fill="none" stroke="rgb(179,179,179)" stroke-linejoin="round" d="M 13277,13907 L 13277,13757"/>
 <path fill="none" stroke="rgb(179,179,179)" stroke-linejoin="round" d="M 13735,13907 L 13735,13757"/>
 <path fill="none" stroke="rgb(179,179,179)" stroke-linejoin="round" d="M 13735,13907 L 13735,13757"/>
 <path fill="none" stroke="rgb(179,179,179)" stroke-linejoin="round" d="M 14194,13907 L 14194,13757"/>
 <path fill="none" stroke="rgb(179,179,179)" stroke-linejoin="round" d="M 14194,13907 L 14194,13757"/>
 <path fill="none" stroke="rgb(179,179,179)" stroke-linejoin="round" d="M 14654,13907 L 14654,13757"/>
 <path fill="none" stroke="rgb(179,179,179)" stroke-linejoin="round" d="M 14654,13907 L 14654,13757"/>
 <path fill="none" stroke="rgb(179,179,179)" stroke-linejoin="round" d="M 15113,13907 L 15113,13757"/>
 <path fill="none" stroke="rgb(179,179,179)" stroke-linejoin="round" d="M 15113,13907 L 15113,13757"/>
 <path fill="none" stroke="rgb(179,179,179)" stroke-linejoin="round" d="M 15572,13907 L 15572,13757"/>
 <path fill="none" stroke="rgb(179,179,179)" stroke-linejoin="round" d="M 15572,13907 L 15572,13757"/>
 <path fill="none" stroke="rgb(179,179,179)" stroke-linejoin="round" d="M 16031,13907 L 16031,13757"/>
 <path fill="none" stroke="rgb(179,179,179)" stroke-linejoin="round" d="M 16031,13907 L 16031,13757"/>
 <path fill="none" stroke="rgb(179,179,179)" stroke-linejoin="round" d="M 16491,13907 L 16491,13757"/>
 <path fill="none" stroke="rgb(179,179,179)" stroke-linejoin="round" d="M 16491,13907 L 16491,13757"/>
 <path fill="none" stroke="rgb(179,179,179)" stroke-linejoin="round" d="M 16950,13907 L 16950,13757"/>
 <path fill="none" stroke="rgb(179,179,179)" stroke-linejoin="round" d="M 16950,13907 L 16950,13757"/>
 <path fill="none" stroke="rgb(179,179,179)" stroke-linejoin="round" d="M 17409,13907 L 17409,13757"/>
 <path fill="none" stroke="rgb(179,179,179)" stroke-linejoin="round" d="M 17409,13907 L 17409,13757"/>
 <path fill="none" stroke="rgb(179,179,179)" stroke-linejoin="round" d="M 17869,13907 L 17869,13757"/>
 <path fill="none" stroke="rgb(179,179,179)" stroke-linejoin="round" d="M 17869,13907 L 17869,13757"/>
 <path fill="none" stroke="rgb(179,179,179)" stroke-linejoin="round" d="M 18328,13907 L 18328,13757"/>
 <path fill="none" stroke="rgb(179,179,179)" stroke-linejoin="round" d="M 18328,13907 L 18328,13757"/>
 <path fill="none" stroke="rgb(179,179,179)" stroke-linejoin="round" d="M 18787,13907 L 18787,13757"/>
 <path fill="none" stroke="rgb(179,179,179)" stroke-linejoin="round" d="M 18787,13907 L 18787,13757"/>
 <path fill="none" stroke="rgb(179,179,179)" stroke-linejoin="round" d="M 19246,13907 L 19246,13757"/>
 <path fill="none" stroke="rgb(179,179,179)" stroke-linejoin="round" d="M 19246,13907 L 19246,13757"/>
 <path fill="none" stroke="rgb(179,179,179)" stroke-linejoin="round" d="M 19706,13907 L 19706,13757"/>
 <path fill="none" stroke="rgb(179,179,179)" stroke-linejoin="round" d="M 19706,13907 L 19706,13757"/>
 <path fill="none" stroke="rgb(179,179,179)" stroke-linejoin="round" d="M 20165,13907 L 20165,13757"/>
 <path fill="none" stroke="rgb(179,179,179)" stroke-linejoin="round" d="M 20165,13907 L 20165,13757"/>
 <path fill="none" stroke="rgb(179,179,179)" stroke-linejoin="round" d="M 20624,13907 L 20624,13757"/>
 <path fill="none" stroke="rgb(179,179,179)" stroke-linejoin="round" d="M 20624,13907 L 20624,13757"/>
 <path fill="none" stroke="rgb(179,179,179)" stroke-linejoin="round" d="M 21083,13907 L 21083,13757"/>
 <path fill="none" stroke="rgb(179,179,179)" stroke-linejoin="round" d="M 21083,13907 L 21083,13757"/>
 <path fill="none" stroke="rgb(179,179,179)" stroke-linejoin="round" d="M 21543,13907 L 21543,13757"/>
 <path fill="none" stroke="rgb(179,179,179)" stroke-linejoin="round" d="M 21543,13907 L 21543,13757"/>
 <path fill="none" stroke="rgb(179,179,179)" stroke-linejoin="round" d="M 22002,13907 L 22002,13757"/>
 <path fill="none" stroke="rgb(179,179,179)" stroke-linejoin="round" d="M 22002,13907 L 22002,13757"/>
 <path fill="none" stroke="rgb(179,179,179)" stroke-linejoin="round" d="M 22461,13907 L 22461,13757"/>
 <path fill="none" stroke="rgb(179,179,179)" stroke-linejoin="round" d="M 22461,13907 L 22461,13757"/>
 <path fill="none" stroke="rgb(179,179,179)" stroke-linejoin="round" d="M 22920,13907 L 22920,13757"/>
 <path fill="none" stroke="rgb(179,179,179)" stroke-linejoin="round" d="M 22920,13907 L 22920,13757"/>
 <path fill="none" stroke="rgb(179,179,179)" stroke-linejoin="round" d="M 23380,13907 L 23380,13757"/>
 <path fill="none" stroke="rgb(179,179,179)" stroke-linejoin="round" d="M 23380,13907 L 23380,13757"/>
 <path fill="none" stroke="rgb(179,179,179)" stroke-linejoin="round" d="M 23839,13907 L 23839,13757"/>
 <path fill="none" stroke="rgb(179,179,179)" stroke-linejoin="round" d="M 23839,13907 L 23839,13757"/>
 <path fill="none" stroke="rgb(179,179,179)" stroke-linejoin="round" d="M 24298,13907 L 24298,13757"/>
 <path fill="none" stroke="rgb(179,179,179)" stroke-linejoin="round" d="M 24298,13907 L 24298,13757"/>
 <path fill="none" stroke="rgb(179,179,179)" stroke-linejoin="round" d="M 24757,13907 L 24757,13757"/>
 <path fill="none" stroke="rgb(179,179,179)" stroke-linejoin="round" d="M 24757,13907 L 24757,13757"/>
 <path fill="none" stroke="rgb(179,179,179)" stroke-linejoin="round" d="M 2255,13757 L 24758,13757"/>
 <path fill="none" stroke="rgb(179,179,179)" stroke-linejoin="round" d="M 2105,13757 L 2255,13757"/>
 <path fill="none" stroke="rgb(179,179,179)" stroke-linejoin="round" d="M 2105,13757 L 2255,13757"/>
 <path fill="none" stroke="rgb(179,179,179)" stroke-linejoin="round" d="M 2105,11593 L 2255,11593"/>
 <path fill="none" stroke="rgb(179,179,179)" stroke-linejoin="round" d="M 2105,11593 L 2255,11593"/>
 <path fill="none" stroke="rgb(179,179,179)" stroke-linejoin="round" d="M 2105,9431 L 2255,9431"/>
 <path fill="none" stroke="rgb(179,179,179)" stroke-linejoin="round" d="M 2105,9431 L 2255,9431"/>
 <path fill="none" stroke="rgb(179,179,179)" stroke-linejoin="round" d="M 2105,7267 L 2255,7267"/>
 <path fill="none" stroke="rgb(179,179,179)" stroke-linejoin="round" d="M 2105,7267 L 2255,7267"/>
 <path fill="none" stroke="rgb(179,179,179)" stroke-linejoin="round" d="M 2105,5104 L 2255,5104"/>
 <path fill="none" stroke="rgb(179,179,179)" stroke-linejoin="round" d="M 2105,5104 L 2255,5104"/>
 <path fill="none" stroke="rgb(179,179,179)" stroke-linejoin="round" d="M 2105,2942 L 2255,2942"/>
 <path fill="none" stroke="rgb(179,179,179)" stroke-linejoin="round" d="M 2105,2942 L 2255,2942"/>
 <path fill="none" stroke="rgb(179,179,179)" stroke-linejoin="round" d="M 2105,778 L 2255,778"/>
 <path fill="none" stroke="rgb(179,179,179)" stroke-linejoin="round" d="M 2105,778 L 2255,778"/>
 <path fill="none" stroke="rgb(179,179,179)" stroke-linejoin="round" d="M 2255,13757 L 2255,778"/>
 <path fill="none" stroke="rgb(173,213,138)" stroke-width="20" stroke-linejoin="round" d="M 2255,13216 L 2714,13216 3173,13205 3632,13216 4092,13205 4551,13205 5010,13216 5469,13205 5929,13216 6388,13216 6847,13194 7306,13216 7766,13216 8225,13205 8684,13216 9143,13205 9603,13205 10062,13216 10521,13216 10981,13205 11440,13205 11899,13216 12358,13205 12818,13216 13277,13216 13735,13205 14194,13205 14654,13216 15113,13205 15572,13216 16031,13216 16491,13194 16950,13216 17409,13216 17869,13205 18328,13216 18787,13216 19246,13194 19706,13216 20165,13205 20624,13216 21083,13216 21543,13194 22002,13216 22461,13216 22920,13205 23380,13216 23839,13216 24298,13194 24758,13216"/>
 <path fill="none" stroke="rgb(87,152,53)" stroke-width="20" stroke-linejoin="round" d="M 2255,8295 L 2714,8295 3173,8317 3632,8295 4092,8295 4551,8295 5010,8295 5469,8295 5929,8306 6388,8306 6847,8295 7306,8295 7766,8295 8225,8295 8684,8306 9143,8295 9603,8295 10062,8306 10521,8295 10981,8295 11440,8306 11899,8295 12358,8295 12818,8295 13277,8306 13735,8306 14194,8295 14654,8295 15113,8295 15572,8295 16031,8306 16491,8306 16950,8295 17409,8295 17869,8295 18328,8295 18787,8306 19246,8306 19706,8295 20165,8295 20624,8295 21083,8295 21543,8295 22002,8317 22461,8295 22920,8295 23380,8295 23839,8295 24298,8295 24758,8317"/>
 <path fill="none" stroke="rgb(43,81,26)" stroke-width="20" stroke-linejoin="round" d="M 2255,2963 L 2714,2942 3173,2931 3632,2942 4092,2931 4551,2942 5010,2931 5469,2942 5929,2942 6388,2931 6847,2942 7306,2942 7766,2942 8225,2931 8684,2942 9143,2931 9603,2942 10062,2942 10521,2931 10981,2942 11440,2931 11899,2942 12358,2931 12818,2942 13277,2931 13735,2942 14194,2931 14654,2953 15113,2942 15572,2931 16031,2942 16491,2931 16950,2942 17409,2931 17869,2942 18328,2931 18787,2942 19246,2942 19706,2931 20165,2942 20624,2931 21083,2953 21543,2931 22002,2942 22461,2931 22920,2942 23380,2942 23839,2931 24298,2942 24758,2931"/>
 <text class="TextShape"><tspan class="TextParagraph" font-family="Liberation Sans, sans-serif" font-size="353px" font-weight="400"><tspan class="TextPosition" x="2162" y="14325"><tspan fill="rgb(0,0,0)" stroke="none">1</tspan></tspan></tspan></text>
 <text class="TextShape"><tspan class="TextParagraph" font-family="Liberation Sans, sans-serif" font-size="353px" font-weight="400"><tspan class="TextPosition" x="2621" y="14325"><tspan fill="rgb(0,0,0)" stroke="none">2</tspan></tspan></tspan></text>
 <text class="TextShape"><tspan class="TextParagraph" font-family="Liberation Sans, sans-serif" font-size="353px" font-weight="400"><tspan class="TextPosition" x="3080" y="14325"><tspan fill="rgb(0,0,0)" stroke="none">3</tspan></tspan></tspan></text>
 <text class="TextShape"><tspan class="TextParagraph" font-family="Liberation Sans, sans-serif" font-size="353px" font-weight="400"><tspan class="TextPosition" x="3539" y="14325"><tspan fill="rgb(0,0,0)" stroke="none">4</tspan></tspan></tspan></text>
 <text class="TextShape"><tspan class="TextParagraph" font-family="Liberation Sans, sans-serif" font-size="353px" font-weight="400"><tspan class="TextPosition" x="3999" y="14325"><tspan fill="rgb(0,0,0)" stroke="none">5</tspan></tspan></tspan></text>
 <text class="TextShape"><tspan class="TextParagraph" font-family="Liberation Sans, sans-serif" font-size="353px" font-weight="400"><tspan class="TextPosition" x="4458" y="14325"><tspan fill="rgb(0,0,0)" stroke="none">6</tspan></tspan></tspan></text>
 <text class="TextShape"><tspan class="TextParagraph" font-family="Liberation Sans, sans-serif" font-size="353px" font-weight="400"><tspan class="TextPosition" x="4917" y="14325"><tspan fill="rgb(0,0,0)" stroke="none">7</tspan></tspan></tspan></text>
 <text class="TextShape"><tspan class="TextParagraph" font-family="Liberation Sans, sans-serif" font-size="353px" font-weight="400"><tspan class="TextPosition" x="5376" y="14325"><tspan fill="rgb(0,0,0)" stroke="none">8</tspan></tspan></tspan></text>
 <text class="TextShape"><tspan class="TextParagraph" font-family="Liberation Sans, sans-serif" font-size="353px" font-weight="400"><tspan class="TextPosition" x="5836" y="14325"><tspan fill="rgb(0,0,0)" stroke="none">9</tspan></tspan></tspan></text>
 <text class="TextShape"><tspan class="TextParagraph" font-family="Liberation Sans, sans-serif" font-size="353px" font-weight="400"><tspan class="TextPosition" x="6203" y="14325"><tspan fill="rgb(0,0,0)" stroke="none">10</tspan></tspan></tspan></text>
 <text class="TextShape"><tspan class="TextParagraph" font-family="Liberation Sans, sans-serif" font-size="353px" font-weight="400"><tspan class="TextPosition" x="6662" y="14325"><tspan fill="rgb(0,0,0)" stroke="none">11</tspan></tspan></tspan></text>
 <text class="TextShape"><tspan class="TextParagraph" font-family="Liberation Sans, sans-serif" font-size="353px" font-weight="400"><tspan class="TextPosition" x="7121" y="14325"><tspan fill="rgb(0,0,0)" stroke="none">12</tspan></tspan></tspan></text>
 <text class="TextShape"><tspan class="TextParagraph" font-family="Liberation Sans, sans-serif" font-size="353px" font-weight="400"><tspan class="TextPosition" x="7581" y="14325"><tspan fill="rgb(0,0,0)" stroke="none">13</tspan></tspan></tspan></text>
 <text class="TextShape"><tspan class="TextParagraph" font-family="Liberation Sans, sans-serif" font-size="353px" font-weight="400"><tspan class="TextPosition" x="8040" y="14325"><tspan fill="rgb(0,0,0)" stroke="none">14</tspan></tspan></tspan></text>
 <text class="TextShape"><tspan class="TextParagraph" font-family="Liberation Sans, sans-serif" font-size="353px" font-weight="400"><tspan class="TextPosition" x="8499" y="14325"><tspan fill="rgb(0,0,0)" stroke="none">15</tspan></tspan></tspan></text>
 <text class="TextShape"><tspan class="TextParagraph" font-family="Liberation Sans, sans-serif" font-size="353px" font-weight="400"><tspan class="TextPosition" x="8958" y="14325"><tspan fill="rgb(0,0,0)" stroke="none">16</tspan></tspan></tspan></text>
 <text class="TextShape"><tspan class="TextParagraph" font-family="Liberation Sans, sans-serif" font-size="353px" font-weight="400"><tspan class="TextPosition" x="9418" y="14325"><tspan fill="rgb(0,0,0)" stroke="none">17</tspan></tspan></tspan></text>
 <text class="TextShape"><tspan class="TextParagraph" font-family="Liberation Sans, sans-serif" font-size="353px" font-weight="400"><tspan class="TextPosition" x="9877" y="14325"><tspan fill="rgb(0,0,0)" stroke="none">18</tspan></tspan></tspan></text>
 <text class="TextShape"><tspan class="TextParagraph" font-family="Liberation Sans, sans-serif" font-size="353px" font-weight="400"><tspan class="TextPosition" x="10336" y="14325"><tspan fill="rgb(0,0,0)" stroke="none">19</tspan></tspan></tspan></text>
 <text class="TextShape"><tspan class="TextParagraph" font-family="Liberation Sans, sans-serif" font-size="353px" font-weight="400"><tspan class="TextPosition" x="10796" y="14325"><tspan fill="rgb(0,0,0)" stroke="none">20</tspan></tspan></tspan></text>
 <text class="TextShape"><tspan class="TextParagraph" font-family="Liberation Sans, sans-serif" font-size="353px" font-weight="400"><tspan class="TextPosition" x="11255" y="14325"><tspan fill="rgb(0,0,0)" stroke="none">21</tspan></tspan></tspan></text>
 <text class="TextShape"><tspan class="TextParagraph" font-family="Liberation Sans, sans-serif" font-size="353px" font-weight="400"><tspan class="TextPosition" x="11714" y="14325"><tspan fill="rgb(0,0,0)" stroke="none">22</tspan></tspan></tspan></text>
 <text class="TextShape"><tspan class="TextParagraph" font-family="Liberation Sans, sans-serif" font-size="353px" font-weight="400"><tspan class="TextPosition" x="12173" y="14325"><tspan fill="rgb(0,0,0)" stroke="none">23</tspan></tspan></tspan></text>
 <text class="TextShape"><tspan class="TextParagraph" font-family="Liberation Sans, sans-serif" font-size="353px" font-weight="400"><tspan class="TextPosition" x="12633" y="14325"><tspan fill="rgb(0,0,0)" stroke="none">24</tspan></tspan></tspan></text>
 <text class="TextShape"><tspan class="TextParagraph" font-family="Liberation Sans, sans-serif" font-size="353px" font-weight="400"><tspan class="TextPosition" x="13092" y="14325"><tspan fill="rgb(0,0,0)" stroke="none">25</tspan></tspan></tspan></text>
 <text class="TextShape"><tspan class="TextParagraph" font-family="Liberation Sans, sans-serif" font-size="353px" font-weight="400"><tspan class="TextPosition" x="13551" y="14325"><tspan fill="rgb(0,0,0)" stroke="none">26</tspan></tspan></tspan></text>
 <text class="TextShape"><tspan class="TextParagraph" font-family="Liberation Sans, sans-serif" font-size="353px" font-weight="400"><tspan class="TextPosition" x="14010" y="14325"><tspan fill="rgb(0,0,0)" stroke="none">27</tspan></tspan></tspan></text>
 <text class="TextShape"><tspan class="TextParagraph" font-family="Liberation Sans, sans-serif" font-size="353px" font-weight="400"><tspan class="TextPosition" x="14470" y="14325"><tspan fill="rgb(0,0,0)" stroke="none">28</tspan></tspan></tspan></text>
 <text class="TextShape"><tspan class="TextParagraph" font-family="Liberation Sans, sans-serif" font-size="353px" font-weight="400"><tspan class="TextPosition" x="14929" y="14325"><tspan fill="rgb(0,0,0)" stroke="none">29</tspan></tspan></tspan></text>
 <text class="TextShape"><tspan class="TextParagraph" font-family="Liberation Sans, sans-serif" font-size="353px" font-weight="400"><tspan class="TextPosition" x="15388" y="14325"><tspan fill="rgb(0,0,0)" stroke="none">30</tspan></tspan></tspan></text>
 <text class="TextShape"><tspan class="TextParagraph" font-family="Liberation Sans, sans-serif" font-size="353px" font-weight="400"><tspan class="TextPosition" x="15847" y="14325"><tspan fill="rgb(0,0,0)" stroke="none">31</tspan></tspan></tspan></text>
 <text class="TextShape"><tspan class="TextParagraph" font-family="Liberation Sans, sans-serif" font-size="353px" font-weight="400"><tspan class="TextPosition" x="16307" y="14325"><tspan fill="rgb(0,0,0)" stroke="none">32</tspan></tspan></tspan></text>
 <text class="TextShape"><tspan class="TextParagraph" font-family="Liberation Sans, sans-serif" font-size="353px" font-weight="400"><tspan class="TextPosition" x="16766" y="14325"><tspan fill="rgb(0,0,0)" stroke="none">33</tspan></tspan></tspan></text>
 <text class="TextShape"><tspan class="TextParagraph" font-family="Liberation Sans, sans-serif" font-size="353px" font-weight="400"><tspan class="TextPosition" x="17225" y="14325"><tspan fill="rgb(0,0,0)" stroke="none">34</tspan></tspan></tspan></text>
 <text class="TextShape"><tspan class="TextParagraph" font-family="Liberation Sans, sans-serif" font-size="353px" font-weight="400"><tspan class="TextPosition" x="17685" y="14325"><tspan fill="rgb(0,0,0)" stroke="none">35</tspan></tspan></tspan></text>
 <text class="TextShape"><tspan class="TextParagraph" font-family="Liberation Sans, sans-serif" font-size="353px" font-weight="400"><tspan class="TextPosition" x="18144" y="14325"><tspan fill="rgb(0,0,0)" stroke="none">36</tspan></tspan></tspan></text>
 <text class="TextShape"><tspan class="TextParagraph" font-family="Liberation Sans, sans-serif" font-size="353px" font-weight="400"><tspan class="TextPosition" x="18603" y="14325"><tspan fill="rgb(0,0,0)" stroke="none">37</tspan></tspan></tspan></text>
 <text class="TextShape"><tspan class="TextParagraph" font-family="Liberation Sans, sans-serif" font-size="353px" font-weight="400"><tspan class="TextPosition" x="19062" y="14325"><tspan fill="rgb(0,0,0)" stroke="none">38</tspan></tspan></tspan></text>
 <text class="TextShape"><tspan class="TextParagraph" font-family="Liberation Sans, sans-serif" font-size="353px" font-weight="400"><tspan class="TextPosition" x="19522" y="14325"><tspan fill="rgb(0,0,0)" stroke="none">39</tspan></tspan></tspan></text>
 <text class="TextShape"><tspan class="TextParagraph" font-family="Liberation Sans, sans-serif" font-size="353px" font-weight="400"><tspan class="TextPosition" x="19981" y="14325"><tspan fill="rgb(0,0,0)" stroke="none">40</tspan></tspan></tspan></text>
 <text class="TextShape"><tspan class="TextParagraph" font-family="Liberation Sans, sans-serif" font-size="353px" font-weight="400"><tspan class="TextPosition" x="20440" y="14325"><tspan fill="rgb(0,0,0)" stroke="none">41</tspan></tspan></tspan></text>
 <text class="TextShape"><tspan class="TextParagraph" font-family="Liberation Sans, sans-serif" font-size="353px" font-weight="400"><tspan class="TextPosition" x="20899" y="14325"><tspan fill="rgb(0,0,0)" stroke="none">42</tspan></tspan></tspan></text>
 <text class="TextShape"><tspan class="TextParagraph" font-family="Liberation Sans, sans-serif" font-size="353px" font-weight="400"><tspan class="TextPosition" x="21359" y="14325"><tspan fill="rgb(0,0,0)" stroke="none">43</tspan></tspan></tspan></text>
 <text class="TextShape"><tspan class="TextParagraph" font-family="Liberation Sans, sans-serif" font-size="353px" font-weight="400"><tspan class="TextPosition" x="21818" y="14325"><tspan fill="rgb(0,0,0)" stroke="none">44</tspan></tspan></tspan></text>
 <text class="TextShape"><tspan class="TextParagraph" font-family="Liberation Sans, sans-serif" font-size="353px" font-weight="400"><tspan class="TextPosition" x="22277" y="14325"><tspan fill="rgb(0,0,0)" stroke="none">45</tspan></tspan></tspan></text>
 <text class="TextShape"><tspan class="TextParagraph" font-family="Liberation Sans, sans-serif" font-size="353px" font-weight="400"><tspan class="TextPosition" x="22736" y="14325"><tspan fill="rgb(0,0,0)" stroke="none">46</tspan></tspan></tspan></text>
 <text class="TextShape"><tspan class="TextParagraph" font-family="Liberation Sans, sans-serif" font-size="353px" font-weight="400"><tspan class="TextPosition" x="23196" y="14325"><tspan fill="rgb(0,0,0)" stroke="none">47</tspan></tspan></tspan></text>
 <text class="TextShape"><tspan class="TextParagraph" font-family="Liberation Sans, sans-serif" font-size="353px" font-weight="400"><tspan class="TextPosition" x="23655" y="14325"><tspan fill="rgb(0,0,0)" stroke="none">48</tspan></tspan></tspan></text>
 <text class="TextShape"><tspan class="TextParagraph" font-family="Liberation Sans, sans-serif" font-size="353px" font-weight="400"><tspan class="TextPosition" x="24114" y="14325"><tspan fill="rgb(0,0,0)" stroke="none">49</tspan></tspan></tspan></text>
 <text class="TextShape"><tspan class="TextParagraph" font-family="Liberation Sans, sans-serif" font-size="353px" font-weight="400"><tspan class="TextPosition" x="24573" y="14325"><tspan fill="rgb(0,0,0)" stroke="none">50</tspan></tspan></tspan></text>
 <text class="TextShape"><tspan class="TextParagraph" font-family="Liberation Sans, sans-serif" font-size="353px" font-weight="400"><tspan class="TextPosition" x="1820" y="13878"><tspan fill="rgb(0,0,0)" stroke="none">0</tspan></tspan></tspan></text>
 <text class="TextShape"><tspan class="TextParagraph" font-family="Liberation Sans, sans-serif" font-size="353px" font-weight="400"><tspan class="TextPosition" x="1449" y="11714"><tspan fill="rgb(0,0,0)" stroke="none">200</tspan></tspan></tspan></text>
 <text class="TextShape"><tspan class="TextParagraph" font-family="Liberation Sans, sans-serif" font-size="353px" font-weight="400"><tspan class="TextPosition" x="1449" y="9551"><tspan fill="rgb(0,0,0)" stroke="none">400</tspan></tspan></tspan></text>
 <text class="TextShape"><tspan class="TextParagraph" font-family="Liberation Sans, sans-serif" font-size="353px" font-weight="400"><tspan class="TextPosition" x="1449" y="7388"><tspan fill="rgb(0,0,0)" stroke="none">600</tspan></tspan></tspan></text>
 <text class="TextShape"><tspan class="TextParagraph" font-family="Liberation Sans, sans-serif" font-size="353px" font-weight="400"><tspan class="TextPosition" x="1449" y="5225"><tspan fill="rgb(0,0,0)" stroke="none">800</tspan></tspan></tspan></text>
 <text class="TextShape"><tspan class="TextParagraph" font-family="Liberation Sans, sans-serif" font-size="353px" font-weight="400"><tspan class="TextPosition" x="1264" y="3062"><tspan fill="rgb(0,0,0)" stroke="none">1000</tspan></tspan></tspan></text>
 <text class="TextShape"><tspan class="TextParagraph" font-family="Liberation Sans, sans-serif" font-size="353px" font-weight="400"><tspan class="TextPosition" x="1264" y="898"><tspan fill="rgb(0,0,0)" stroke="none">1200</tspan></tspan></tspan></text>
 <text class="TextShape"><tspan class="TextParagraph" font-family="Liberation Sans, sans-serif" font-size="459px" font-weight="400"><tspan class="TextPosition" x="11364" y="535"><tspan fill="rgb(0,0,0)" stroke="none">Stability of rept_task()</tspan></tspan></tspan></text>
 <path fill="none" stroke="rgb(173,213,138)" stroke-width="20" stroke-linejoin="round" d="M 24882,6850 L 25682,6850"/>
 <path fill="none" stroke="rgb(87,152,53)" stroke-width="20" stroke-linejoin="round" d="M 24882,7624 L 25682,7624"/>
 <path fill="none" stroke="rgb(43,81,26)" stroke-width="20" stroke-linejoin="round" d="M 24882,8398 L 25682,8398"/>
 <text class="TextShape"><tspan class="TextParagraph" font-family="Liberation Sans, sans-serif" font-size="353px" font-weight="400"><tspan class="TextPosition" x="25782" y="6970"><tspan fill="rgb(0,0,0)" stroke="none">50ms</tspan></tspan></tspan></text>
 <text class="TextShape"><tspan class="TextParagraph" font-family="Liberation Sans, sans-serif" font-size="353px" font-weight="400"><tspan class="TextPosition" x="25782" y="7744"><tspan fill="rgb(0,0,0)" stroke="none">500ms</tspan></tspan></tspan></text>
 <text class="TextShape"><tspan class="TextParagraph" font-family="Liberation Sans, sans-serif" font-size="353px" font-weight="400"><tspan class="TextPosition" x="25782" y="8518"><tspan fill="rgb(0,0,0)" stroke="none">1000ms</tspan></tspan></tspan></text>
 <text class="TextShape"><tspan class="TextParagraph" font-family="Liberation Sans, sans-serif" font-size="318px" font-weight="400"><tspan class="TextPosition" x="11834" y="15080"><tspan fill="rgb(0,0,0)" stroke="none">Random Intervals</tspan></tspan></tspan></text>
 <text class="TextShape" transform="translate(547,7782) rotate(-90) translate(-547,-7782)"><tspan class="TextParagraph" font-family="Liberation Sans, sans-serif" font-size="318px" font-weight="400"><tspan class="TextPosition" x="547" y="7782"><tspan fill="rgb(0,0,0)" stroke="none">[ms]</tspan></tspan></tspan></text>
</svg>