<?xml version="1.0" encoding="UTF-8" standalone="no"?>
<!DOCTYPE svg PUBLIC "-//W3C//DTD SVG 1.1//EN"
 "http://www.w3.org/Graphics/SVG/1.1/DTD/svg11.dtd">
<!-- Generated by graphviz version 2.38.0 (20140413.2041)
 -->
<!-- Title: LCD::LCD Pages: 1 -->
<svg width="157pt" height="46pt"
 viewBox="0.00 0.00 157.00 46.00" xmlns="http://www.w3.org/2000/svg" xmlns:xlink="http://www.w3.org/1999/xlink">
<g id="graph0" class="graph" transform="scale(1 1) rotate(0) translate(4 42)">
<title>LCD::LCD</title>
<polygon fill="white" stroke="none" points="-4,4 -4,-42 153,-42 153,4 -4,4"/>
<!-- Node1 -->
<g id="node1" class="node"><title>Node1</title>
<polygon fill="#bfbfbf" stroke="black" points="0,-0.5 0,-19.5 63,-19.5 63,-0.5 0,-0.5"/>
<text text-anchor="middle" x="31.5" y="-7.5" font-family="Helvetica,sans-Serif" font-size="10.00">LCD::LCD</text>
</g>
<!-- Node2 -->
<g id="node2" class="node"><title>Node2</title>
<g id="a_node2"><a xlink:href="eBoard__comment_8h.html#aca4f96af7c6736bf2b61c88d731af741" target="_top" xlink:title="read a digital state from an INPUTpin ">
<polygon fill="white" stroke="black" points="99,-0.5 99,-19.5 149,-19.5 149,-0.5 99,-0.5"/>
<text text-anchor="middle" x="124" y="-7.5" font-family="Helvetica,sans-Serif" font-size="10.00">readPin</text>
</a>
</g>
</g>
<!-- Node1&#45;&gt;Node2 -->
<g id="edge1" class="edge"><title>Node1&#45;&gt;Node2</title>
<path fill="none" stroke="midnightblue" d="M73.2694,-10C82.0565,-10 91.0711,-10 98.9704,-10"/>
<polygon fill="midnightblue" stroke="midnightblue" points="73.1392,-6.5001 63.1392,-10 73.1391,-13.5001 73.1392,-6.5001"/>
</g>
<!-- Node2&#45;&gt;Node2 -->
<g id="edge2" class="edge"><title>Node2&#45;&gt;Node2</title>
<path fill="none" stroke="midnightblue" d="M106.964,-29.4C108.102,-34.3146 113.78,-38 124,-38 140.352,-38 145.078,-28.5653 138.18,-19.7571"/>
<polygon fill="midnightblue" stroke="midnightblue" points="110.336,-30.3393 109.82,-19.7571 103.624,-28.3512 110.336,-30.3393"/>
</g>
</g>
</svg>
