<?xml version="1.0" encoding="UTF-8" standalone="no"?>
<!DOCTYPE svg PUBLIC "-//W3C//DTD SVG 1.1//EN"
 "http://www.w3.org/Graphics/SVG/1.1/DTD/svg11.dtd">
<!-- Generated by graphviz version 2.38.0 (20140413.2041)
 -->
<!-- Title: ServoCds55::SetServoLimit Pages: 1 -->
<svg width="671pt" height="123pt"
 viewBox="0.00 0.00 671.00 123.00" xmlns="http://www.w3.org/2000/svg" xmlns:xlink="http://www.w3.org/1999/xlink">
<g id="graph0" class="graph" transform="scale(1 1) rotate(0) translate(4 119)">
<title>ServoCds55::SetServoLimit</title>
<polygon fill="white" stroke="none" points="-4,4 -4,-119 667,-119 667,4 -4,4"/>
<!-- Node46 -->
<g id="node1" class="node"><title>Node46</title>
<polygon fill="#bfbfbf" stroke="black" points="0,-57.5 0,-76.5 138,-76.5 138,-57.5 0,-57.5"/>
<text text-anchor="middle" x="69" y="-64.5" font-family="Helvetica,sans-Serif" font-size="10.00">ServoCds55::SetServoLimit</text>
</g>
<!-- Node47 -->
<g id="node2" class="node"><title>Node47</title>
<g id="a_node2"><a xlink:href="structServoCds55.html#a3d2a551e816185d455adb5b1add148f9" target="_top" xlink:title="ServoCds55::rotate">
<polygon fill="white" stroke="black" points="174,-95.5 174,-114.5 275,-114.5 275,-95.5 174,-95.5"/>
<text text-anchor="middle" x="224.5" y="-102.5" font-family="Helvetica,sans-Serif" font-size="10.00">ServoCds55::rotate</text>
</a>
</g>
</g>
<!-- Node46&#45;&gt;Node47 -->
<g id="edge1" class="edge"><title>Node46&#45;&gt;Node47</title>
<path fill="none" stroke="midnightblue" d="M118.635,-79.04C140.08,-84.3488 164.923,-90.4988 185.044,-95.4799"/>
<polygon fill="midnightblue" stroke="midnightblue" points="119.283,-75.5947 108.735,-76.589 117.6,-82.3896 119.283,-75.5947"/>
</g>
<!-- Node48 -->
<g id="node3" class="node"><title>Node48</title>
<g id="a_node3"><a xlink:href="structAX12Servo.html#a9830f46998b838d3558aaf5245c7960a" target="_top" xlink:title="AX12Servo::setID">
<polygon fill="white" stroke="black" points="176.5,-57.5 176.5,-76.5 272.5,-76.5 272.5,-57.5 176.5,-57.5"/>
<text text-anchor="middle" x="224.5" y="-64.5" font-family="Helvetica,sans-Serif" font-size="10.00">AX12Servo::setID</text>
</a>
</g>
</g>
<!-- Node46&#45;&gt;Node48 -->
<g id="edge2" class="edge"><title>Node46&#45;&gt;Node48</title>
<path fill="none" stroke="midnightblue" d="M148.471,-67C157.929,-67 167.353,-67 176.166,-67"/>
<polygon fill="midnightblue" stroke="midnightblue" points="148.221,-63.5001 138.221,-67 148.221,-70.5001 148.221,-63.5001"/>
</g>
<!-- Node49 -->
<g id="node4" class="node"><title>Node49</title>
<g id="a_node4"><a xlink:href="structServoCds55.html#ab74eb7a47800fedd7405adca0bf1e935" target="_top" xlink:title="ServoCds55::write">
<polygon fill="white" stroke="black" points="175.5,-19.5 175.5,-38.5 273.5,-38.5 273.5,-19.5 175.5,-19.5"/>
<text text-anchor="middle" x="224.5" y="-26.5" font-family="Helvetica,sans-Serif" font-size="10.00">ServoCds55::write</text>
</a>
</g>
</g>
<!-- Node46&#45;&gt;Node49 -->
<g id="edge3" class="edge"><title>Node46&#45;&gt;Node49</title>
<path fill="none" stroke="midnightblue" d="M118.635,-54.96C140.08,-49.6512 164.923,-43.5012 185.044,-38.5201"/>
<polygon fill="midnightblue" stroke="midnightblue" points="117.6,-51.6104 108.735,-57.411 119.283,-58.4053 117.6,-51.6104"/>
</g>
<!-- Node50 -->
<g id="node5" class="node"><title>Node50</title>
<g id="a_node5"><a xlink:href="structSoccerBoard.html#a5039fee586408ce515f300d8db073818" target="_top" xlink:title="SoccerBoard::motor">
<polygon fill="white" stroke="black" points="319.5,-38.5 319.5,-57.5 423.5,-57.5 423.5,-38.5 319.5,-38.5"/>
<text text-anchor="middle" x="371.5" y="-45.5" font-family="Helvetica,sans-Serif" font-size="10.00">SoccerBoard::motor</text>
</a>
</g>
</g>
<!-- Node49&#45;&gt;Node50 -->
<g id="edge4" class="edge"><title>Node49&#45;&gt;Node50</title>
<path fill="none" stroke="midnightblue" d="M283.947,-36.6586C295.701,-38.1988 307.967,-39.8061 319.445,-41.3101"/>
<polygon fill="midnightblue" stroke="midnightblue" points="284.153,-33.1557 273.783,-35.3267 283.243,-40.0964 284.153,-33.1557"/>
</g>
<!-- Node51 -->
<g id="node6" class="node"><title>Node51</title>
<g id="a_node6"><a xlink:href="structAX12Servo.html#ae6005da90335d13c253a246edb247178" target="_top" xlink:title="AX12Servo::setPosition">
<polygon fill="white" stroke="black" points="311,-0.5 311,-19.5 432,-19.5 432,-0.5 311,-0.5"/>
<text text-anchor="middle" x="371.5" y="-7.5" font-family="Helvetica,sans-Serif" font-size="10.00">AX12Servo::setPosition</text>
</a>
</g>
</g>
<!-- Node49&#45;&gt;Node51 -->
<g id="edge5" class="edge"><title>Node49&#45;&gt;Node51</title>
<path fill="none" stroke="midnightblue" d="M283.703,-21.3734C292.63,-20.2036 301.858,-18.9944 310.817,-17.8206"/>
<polygon fill="midnightblue" stroke="midnightblue" points="283.243,-17.9036 273.783,-22.6733 284.153,-24.8443 283.243,-17.9036"/>
</g>
<!-- Node52 -->
<g id="node7" class="node"><title>Node52</title>
<g id="a_node7"><a xlink:href="structDynamixelBoard.html#a9b6d6166eaa2c42e87f424b54edce510" target="_top" xlink:title="DynamixelBoard::action">
<polygon fill="white" stroke="black" points="468,-0.5 468,-19.5 589,-19.5 589,-0.5 468,-0.5"/>
<text text-anchor="middle" x="528.5" y="-7.5" font-family="Helvetica,sans-Serif" font-size="10.00">DynamixelBoard::action</text>
</a>
</g>
</g>
<!-- Node51&#45;&gt;Node52 -->
<g id="edge6" class="edge"><title>Node51&#45;&gt;Node52</title>
<path fill="none" stroke="midnightblue" d="M442.661,-10C451.122,-10 459.7,-10 467.988,-10"/>
<polygon fill="midnightblue" stroke="midnightblue" points="442.427,-6.5001 432.427,-10 442.427,-13.5001 442.427,-6.5001"/>
</g>
<!-- Node53 -->
<g id="node8" class="node"><title>Node53</title>
<g id="a_node8"><a xlink:href="lcd__debug_8cpp.html#ae66f6b31b5ad750f1fe042a706a4e3d4" target="_top" xlink:title="main">
<polygon fill="white" stroke="black" points="625,-0.5 625,-19.5 663,-19.5 663,-0.5 625,-0.5"/>
<text text-anchor="middle" x="644" y="-7.5" font-family="Helvetica,sans-Serif" font-size="10.00">main</text>
</a>
</g>
</g>
<!-- Node52&#45;&gt;Node53 -->
<g id="edge7" class="edge"><title>Node52&#45;&gt;Node53</title>
<path fill="none" stroke="midnightblue" d="M599.529,-10C608.874,-10 617.709,-10 624.943,-10"/>
<polygon fill="midnightblue" stroke="midnightblue" points="599.241,-6.5001 589.241,-10 599.241,-13.5001 599.241,-6.5001"/>
</g>
</g>
</svg>
