<?xml version="1.0" encoding="UTF-8" standalone="no"?>
<!DOCTYPE svg PUBLIC "-//W3C//DTD SVG 1.1//EN"
 "http://www.w3.org/Graphics/SVG/1.1/DTD/svg11.dtd">
<!-- Generated by graphviz version 2.38.0 (20140413.2041)
 -->
<!-- Title: RB14Scan::channel Pages: 1 -->
<svg width="557pt" height="127pt"
 viewBox="0.00 0.00 557.00 126.50" xmlns="http://www.w3.org/2000/svg" xmlns:xlink="http://www.w3.org/1999/xlink">
<g id="graph0" class="graph" transform="scale(1 1) rotate(0) translate(4 122.5)">
<title>RB14Scan::channel</title>
<polygon fill="white" stroke="none" points="-4,4 -4,-122.5 553,-122.5 553,4 -4,4"/>
<!-- Node4 -->
<g id="node1" class="node"><title>Node4</title>
<polygon fill="#bfbfbf" stroke="black" points="0,-74 0,-93 104,-93 104,-74 0,-74"/>
<text text-anchor="middle" x="52" y="-81" font-family="Helvetica,sans-Serif" font-size="10.00">RB14Scan::channel</text>
</g>
<!-- Node5 -->
<g id="node2" class="node"><title>Node5</title>
<g id="a_node2"><a xlink:href="eBoard_8h.html#a490de796838813d1148e3d684f9c88a0" target="_top" xlink:title="[BLUETOOTH] this will check if the HC&#45;05 is paired ">
<polygon fill="white" stroke="black" points="140,-93 140,-112 211,-112 211,-93 140,-93"/>
<text text-anchor="middle" x="175.5" y="-100" font-family="Helvetica,sans-Serif" font-size="10.00">isConnected</text>
</a>
</g>
</g>
<!-- Node4&#45;&gt;Node5 -->
<g id="edge1" class="edge"><title>Node4&#45;&gt;Node5</title>
<path fill="none" stroke="midnightblue" d="M104.175,-91.5026C112.751,-92.8437 121.588,-94.2257 129.979,-95.5379"/>
<polygon fill="midnightblue" stroke="midnightblue" points="129.525,-99.0093 139.946,-97.0965 130.607,-92.0934 129.525,-99.0093"/>
</g>
<!-- Node6 -->
<g id="node3" class="node"><title>Node6</title>
<g id="a_node3"><a xlink:href="eBoard_8h.html#a013ff57a97587f0064777a3a28f9a2dd" target="_top" xlink:title="[BLUETOOTH] reads a single value from bluetooth if available! ">
<polygon fill="white" stroke="black" points="150.5,-55 150.5,-74 200.5,-74 200.5,-55 150.5,-55"/>
<text text-anchor="middle" x="175.5" y="-62" font-family="Helvetica,sans-Serif" font-size="10.00">readVal</text>
</a>
</g>
</g>
<!-- Node4&#45;&gt;Node6 -->
<g id="edge2" class="edge"><title>Node4&#45;&gt;Node6</title>
<path fill="none" stroke="midnightblue" d="M104.175,-75.4974C116.265,-73.6067 128.874,-71.6349 140.022,-69.8917"/>
<polygon fill="midnightblue" stroke="midnightblue" points="140.858,-73.3036 150.197,-68.3005 139.776,-66.3876 140.858,-73.3036"/>
</g>
<!-- Node7 -->
<g id="node4" class="node"><title>Node7</title>
<g id="a_node4"><a xlink:href="eBoard_8h.html#acb51742a61b072bb500b6e0713d7dc2c" target="_top" xlink:title="_serial">
<polygon fill="white" stroke="black" points="291,-99 291,-118 336,-118 336,-99 291,-99"/>
<text text-anchor="middle" x="313.5" y="-106" font-family="Helvetica,sans-Serif" font-size="10.00">_serial</text>
</a>
</g>
</g>
<!-- Node6&#45;&gt;Node7 -->
<g id="edge3" class="edge"><title>Node6&#45;&gt;Node7</title>
<path fill="none" stroke="midnightblue" d="M200.527,-73.4126C214.103,-78.3496 231.425,-84.4842 247,-89.5 258.018,-93.0481 270.172,-96.657 280.988,-99.7629"/>
<polygon fill="midnightblue" stroke="midnightblue" points="280.292,-103.204 290.868,-102.568 282.204,-96.4697 280.292,-103.204"/>
</g>
<!-- Node8 -->
<g id="node5" class="node"><title>Node8</title>
<g id="a_node5"><a xlink:href="classeagle__impl_1_1SoftwareSerial.html#a6a0c4bbe1cf6866ec54b98c6efdc4deb" target="_top" xlink:title="eagle_impl::SoftwareSerial\l::available">
<polygon fill="white" stroke="black" points="247,-49.5 247,-79.5 380,-79.5 380,-49.5 247,-49.5"/>
<text text-anchor="start" x="255" y="-67.5" font-family="Helvetica,sans-Serif" font-size="10.00">eagle_impl::SoftwareSerial</text>
<text text-anchor="middle" x="313.5" y="-56.5" font-family="Helvetica,sans-Serif" font-size="10.00">::available</text>
</a>
</g>
</g>
<!-- Node6&#45;&gt;Node8 -->
<g id="edge4" class="edge"><title>Node6&#45;&gt;Node8</title>
<path fill="none" stroke="midnightblue" d="M200.501,-64.5C210.892,-64.5 223.685,-64.5 236.866,-64.5"/>
<polygon fill="midnightblue" stroke="midnightblue" points="236.987,-68.0001 246.987,-64.5 236.987,-61.0001 236.987,-68.0001"/>
</g>
<!-- Node10 -->
<g id="node7" class="node"><title>Node10</title>
<g id="a_node7"><a xlink:href="classeagle__impl_1_1SoftwareSerial.html#ac80b242424a292382f2ac3ea9d84ba43" target="_top" xlink:title="eagle_impl::SoftwareSerial\l::read">
<polygon fill="white" stroke="black" points="247,-0.5 247,-30.5 380,-30.5 380,-0.5 247,-0.5"/>
<text text-anchor="start" x="255" y="-18.5" font-family="Helvetica,sans-Serif" font-size="10.00">eagle_impl::SoftwareSerial</text>
<text text-anchor="middle" x="313.5" y="-7.5" font-family="Helvetica,sans-Serif" font-size="10.00">::read</text>
</a>
</g>
</g>
<!-- Node6&#45;&gt;Node10 -->
<g id="edge6" class="edge"><title>Node6&#45;&gt;Node10</title>
<path fill="none" stroke="midnightblue" d="M200.501,-55.8526C217.222,-49.8282 240.163,-41.5627 260.929,-34.0806"/>
<polygon fill="midnightblue" stroke="midnightblue" points="262.377,-37.2792 270.599,-30.5967 260.004,-30.6936 262.377,-37.2792"/>
</g>
<!-- Node9 -->
<g id="node6" class="node"><title>Node9</title>
<g id="a_node6"><a xlink:href="classeagle__impl_1_1SoftwareSerial.html#a024231154a7cdf059ae7adae882297c5" target="_top" xlink:title="eagle_impl::SoftwareSerial\l::isListening">
<polygon fill="white" stroke="black" points="416,-24.5 416,-54.5 549,-54.5 549,-24.5 416,-24.5"/>
<text text-anchor="start" x="424" y="-42.5" font-family="Helvetica,sans-Serif" font-size="10.00">eagle_impl::SoftwareSerial</text>
<text text-anchor="middle" x="482.5" y="-31.5" font-family="Helvetica,sans-Serif" font-size="10.00">::isListening</text>
</a>
</g>
</g>
<!-- Node8&#45;&gt;Node9 -->
<g id="edge5" class="edge"><title>Node8&#45;&gt;Node9</title>
<path fill="none" stroke="midnightblue" d="M380.024,-54.6911C388.496,-53.4227 397.228,-52.1156 405.847,-50.8253"/>
<polygon fill="midnightblue" stroke="midnightblue" points="406.52,-54.2637 415.891,-49.3217 405.483,-47.3408 406.52,-54.2637"/>
</g>
<!-- Node10&#45;&gt;Node9 -->
<g id="edge7" class="edge"><title>Node10&#45;&gt;Node9</title>
<path fill="none" stroke="midnightblue" d="M380.024,-24.9166C388.496,-26.1342 397.228,-27.389 405.847,-28.6277"/>
<polygon fill="midnightblue" stroke="midnightblue" points="405.495,-32.113 415.891,-30.0712 406.491,-25.1842 405.495,-32.113"/>
</g>
</g>
</svg>
