<?xml version="1.0" encoding="UTF-8" standalone="no"?>
<!DOCTYPE svg PUBLIC "-//W3C//DTD SVG 1.1//EN"
 "http://www.w3.org/Graphics/SVG/1.1/DTD/svg11.dtd">
<!-- Generated by graphviz version 2.38.0 (20140413.2041)
 -->
<!-- Title: ServoCds55::Reset Pages: 1 -->
<svg width="412pt" height="39pt"
 viewBox="0.00 0.00 412.00 39.00" xmlns="http://www.w3.org/2000/svg" xmlns:xlink="http://www.w3.org/1999/xlink">
<g id="graph0" class="graph" transform="scale(1 1) rotate(0) translate(4 35)">
<title>ServoCds55::Reset</title>
<polygon fill="white" stroke="none" points="-4,4 -4,-35 408,-35 408,4 -4,4"/>
<!-- Node7 -->
<g id="node1" class="node"><title>Node7</title>
<polygon fill="#bfbfbf" stroke="black" points="0,-6 0,-25 103,-25 103,-6 0,-6"/>
<text text-anchor="middle" x="51.5" y="-13" font-family="Helvetica,sans-Serif" font-size="10.00">ServoCds55::Reset</text>
</g>
<!-- Node8 -->
<g id="node2" class="node"><title>Node8</title>
<g id="a_node2"><a xlink:href="structServoCds55.html#a0ddbf204d991dae881cc22b8985efee3" target="_top" xlink:title="ServoCds55::sendWait">
<polygon fill="white" stroke="black" points="139,-6 139,-25 257,-25 257,-6 139,-6"/>
<text text-anchor="middle" x="198" y="-13" font-family="Helvetica,sans-Serif" font-size="10.00">ServoCds55::sendWait</text>
</a>
</g>
</g>
<!-- Node7&#45;&gt;Node8 -->
<g id="edge1" class="edge"><title>Node7&#45;&gt;Node8</title>
<path fill="none" stroke="midnightblue" d="M103.039,-15.5C111.346,-15.5 120.074,-15.5 128.726,-15.5"/>
<polygon fill="midnightblue" stroke="midnightblue" points="128.818,-19.0001 138.818,-15.5 128.818,-12.0001 128.818,-19.0001"/>
</g>
<!-- Node9 -->
<g id="node3" class="node"><title>Node9</title>
<g id="a_node3"><a xlink:href="structeagle__impl_1_1SPIClass.html#a821dccd5dda20ccd9093fc35cce74ae5" target="_top" xlink:title="eagle_impl::SPIClass\l::transfer">
<polygon fill="white" stroke="black" points="293,-0.5 293,-30.5 404,-30.5 404,-0.5 293,-0.5"/>
<text text-anchor="start" x="301" y="-18.5" font-family="Helvetica,sans-Serif" font-size="10.00">eagle_impl::SPIClass</text>
<text text-anchor="middle" x="348.5" y="-7.5" font-family="Helvetica,sans-Serif" font-size="10.00">::transfer</text>
</a>
</g>
</g>
<!-- Node8&#45;&gt;Node9 -->
<g id="edge2" class="edge"><title>Node8&#45;&gt;Node9</title>
<path fill="none" stroke="midnightblue" d="M257.265,-15.5C265.584,-15.5 274.183,-15.5 282.619,-15.5"/>
<polygon fill="midnightblue" stroke="midnightblue" points="282.797,-19.0001 292.797,-15.5 282.797,-12.0001 282.797,-19.0001"/>
</g>
</g>
</svg>
