<?xml version="1.0" encoding="UTF-8" standalone="no"?>
<!DOCTYPE svg PUBLIC "-//W3C//DTD SVG 1.1//EN"
 "http://www.w3.org/Graphics/SVG/1.1/DTD/svg11.dtd">
<!-- Generated by graphviz version 2.38.0 (20140413.2041)
 -->
<!-- Title: SoccerBoard::ledOn Pages: 1 -->
<svg width="390pt" height="117pt"
 viewBox="0.00 0.00 390.00 117.23" xmlns="http://www.w3.org/2000/svg" xmlns:xlink="http://www.w3.org/1999/xlink">
<g id="graph0" class="graph" transform="scale(1 1) rotate(0) translate(4 113.226)">
<title>SoccerBoard::ledOn</title>
<polygon fill="white" stroke="none" points="-4,4 -4,-113.226 386,-113.226 386,4 -4,4"/>
<!-- Node54 -->
<g id="node1" class="node"><title>Node54</title>
<polygon fill="#bfbfbf" stroke="black" points="0,-57.5 0,-76.5 104,-76.5 104,-57.5 0,-57.5"/>
<text text-anchor="middle" x="52" y="-64.5" font-family="Helvetica,sans-Serif" font-size="10.00">SoccerBoard::ledOn</text>
</g>
<!-- Node55 -->
<g id="node2" class="node"><title>Node55</title>
<g id="a_node2"><a xlink:href="eBoard_8h.html#ad6d4c1b1e3b495ed81fb28fac04d2bd6" target="_top" xlink:title="write a boolean state to an output pin ">
<polygon fill="white" stroke="black" points="140,-57.5 140,-76.5 192,-76.5 192,-57.5 140,-57.5"/>
<text text-anchor="middle" x="166" y="-64.5" font-family="Helvetica,sans-Serif" font-size="10.00">writePin</text>
</a>
</g>
</g>
<!-- Node54&#45;&gt;Node55 -->
<g id="edge1" class="edge"><title>Node54&#45;&gt;Node55</title>
<path fill="none" stroke="midnightblue" d="M104.084,-67C112.749,-67 121.572,-67 129.714,-67"/>
<polygon fill="midnightblue" stroke="midnightblue" points="129.957,-70.5001 139.957,-67 129.956,-63.5001 129.957,-70.5001"/>
</g>
<!-- Node56 -->
<g id="node3" class="node"><title>Node56</title>
<g id="a_node3"><a xlink:href="eBoard_8h.html#a757015d50a6c57414603841f728b670b" target="_top" xlink:title="[DEBUG_MODE] used to check if a pin index is in bounds ">
<polygon fill="white" stroke="black" points="326,-76.5 326,-95.5 382,-95.5 382,-76.5 326,-76.5"/>
<text text-anchor="middle" x="354" y="-83.5" font-family="Helvetica,sans-Serif" font-size="10.00">checkIdx</text>
</a>
</g>
</g>
<!-- Node55&#45;&gt;Node56 -->
<g id="edge2" class="edge"><title>Node55&#45;&gt;Node56</title>
<path fill="none" stroke="midnightblue" d="M178.203,-76.7076C189.777,-86.0392 208.806,-99.5106 228,-105 258.369,-113.685 294.092,-106.603 319.555,-98.7356"/>
<polygon fill="midnightblue" stroke="midnightblue" points="320.707,-102.041 329.116,-95.5959 318.523,-95.3906 320.707,-102.041"/>
</g>
<!-- Node57 -->
<g id="node4" class="node"><title>Node57</title>
<g id="a_node4"><a xlink:href="eBoard_8h.html#a06400a6dce24e4eda610644893c1bbd7" target="_top" xlink:title="[COPY&amp;PASTE] [CHECK_PINS] Check if a pin is set to a specific mode ">
<polygon fill="white" stroke="black" points="230.5,-76.5 230.5,-95.5 287.5,-95.5 287.5,-76.5 230.5,-76.5"/>
<text text-anchor="middle" x="259" y="-83.5" font-family="Helvetica,sans-Serif" font-size="10.00">checkPin</text>
</a>
</g>
</g>
<!-- Node55&#45;&gt;Node57 -->
<g id="edge3" class="edge"><title>Node55&#45;&gt;Node57</title>
<path fill="none" stroke="midnightblue" d="M192.349,-72.2926C201,-74.0988 210.869,-76.1594 220.28,-78.1244"/>
<polygon fill="midnightblue" stroke="midnightblue" points="219.729,-81.5848 230.234,-80.2026 221.16,-74.7326 219.729,-81.5848"/>
</g>
<!-- Node58 -->
<g id="node5" class="node"><title>Node58</title>
<g id="a_node5"><a xlink:href="eBoard_8h.html#a78b0e873cb50c282c6243d4913406be4" target="_top" xlink:title="[COPY&amp;PASTE] set a pin to a certain mode =&gt; checkPin() will return true then ">
<polygon fill="white" stroke="black" points="237,-38.5 237,-57.5 281,-57.5 281,-38.5 237,-38.5"/>
<text text-anchor="middle" x="259" y="-45.5" font-family="Helvetica,sans-Serif" font-size="10.00">setPin</text>
</a>
</g>
</g>
<!-- Node55&#45;&gt;Node58 -->
<g id="edge5" class="edge"><title>Node55&#45;&gt;Node58</title>
<path fill="none" stroke="midnightblue" d="M192.349,-61.7074C203.059,-59.4712 215.636,-56.8452 226.9,-54.4933"/>
<polygon fill="midnightblue" stroke="midnightblue" points="227.711,-57.8996 236.785,-52.4296 226.28,-51.0474 227.711,-57.8996"/>
</g>
<!-- Node59 -->
<g id="node6" class="node"><title>Node59</title>
<g id="a_node6"><a xlink:href="eBoard_8h.html#ad6372ab439a73887b0800cc695599436" target="_top" xlink:title="[SHIFT] Changes a single output Pin ">
<polygon fill="white" stroke="black" points="228,-0.5 228,-19.5 290,-19.5 290,-0.5 228,-0.5"/>
<text text-anchor="middle" x="259" y="-7.5" font-family="Helvetica,sans-Serif" font-size="10.00">shiftSingle</text>
</a>
</g>
</g>
<!-- Node55&#45;&gt;Node59 -->
<g id="edge7" class="edge"><title>Node55&#45;&gt;Node59</title>
<path fill="none" stroke="midnightblue" d="M182.437,-57.3307C196.642,-48.4333 217.922,-35.1038 234.284,-24.8554"/>
<polygon fill="midnightblue" stroke="midnightblue" points="236.174,-27.801 242.791,-19.5265 232.458,-21.8687 236.174,-27.801"/>
</g>
<!-- Node57&#45;&gt;Node56 -->
<g id="edge4" class="edge"><title>Node57&#45;&gt;Node56</title>
<path fill="none" stroke="midnightblue" d="M287.651,-86C296.443,-86 306.317,-86 315.675,-86"/>
<polygon fill="midnightblue" stroke="midnightblue" points="315.936,-89.5001 325.936,-86 315.936,-82.5001 315.936,-89.5001"/>
</g>
<!-- Node58&#45;&gt;Node56 -->
<g id="edge6" class="edge"><title>Node58&#45;&gt;Node56</title>
<path fill="none" stroke="midnightblue" d="M281.103,-56.6228C292.634,-61.3342 307.17,-67.2736 320.149,-72.577"/>
<polygon fill="midnightblue" stroke="midnightblue" points="319.114,-75.9351 329.695,-76.4777 321.762,-69.4552 319.114,-75.9351"/>
</g>
<!-- Node60 -->
<g id="node7" class="node"><title>Node60</title>
<g id="a_node7"><a xlink:href="eBoard_8h.html#aa0a7f697a49b0d038631c64e945f5c1a" target="_top" xlink:title="[SHIFT] Changes bits according to store_bits ">
<polygon fill="white" stroke="black" points="330.5,-0.5 330.5,-19.5 377.5,-19.5 377.5,-0.5 330.5,-0.5"/>
<text text-anchor="middle" x="354" y="-7.5" font-family="Helvetica,sans-Serif" font-size="10.00">shiftAll</text>
</a>
</g>
</g>
<!-- Node59&#45;&gt;Node60 -->
<g id="edge8" class="edge"><title>Node59&#45;&gt;Node60</title>
<path fill="none" stroke="midnightblue" d="M290.194,-10C299.776,-10 310.415,-10 320.173,-10"/>
<polygon fill="midnightblue" stroke="midnightblue" points="320.323,-13.5001 330.323,-10 320.323,-6.5001 320.323,-13.5001"/>
</g>
</g>
</svg>
