<?xml version="1.0" encoding="UTF-8" standalone="no"?>
<!DOCTYPE svg PUBLIC "-//W3C//DTD SVG 1.1//EN"
 "http://www.w3.org/Graphics/SVG/1.1/DTD/svg11.dtd">
<!-- Generated by graphviz version 2.40.1 (20161225.0304)
 -->
<!-- Title: NeoPixel::show Pages: 1 -->
<svg width="263pt" height="28pt"
 viewBox="0.00 0.00 263.00 28.00" xmlns="http://www.w3.org/2000/svg" xmlns:xlink="http://www.w3.org/1999/xlink">
<g id="graph0" class="graph" transform="scale(1 1) rotate(0) translate(4 24)">
<title>NeoPixel::show</title>
<polygon fill="#ffffff" stroke="transparent" points="-4,4 -4,-24 259,-24 259,4 -4,4"/>
<!-- Node43 -->
<g id="node1" class="node">
<title>Node43</title>
<polygon fill="#bfbfbf" stroke="#000000" points="0,-.5 0,-19.5 92,-19.5 92,-.5 0,-.5"/>
<text text-anchor="middle" x="46" y="-7.5" font-family="RobotoMono" font-size="10.00" fill="#000000">NeoPixel::show</text>
</g>
<!-- Node44 -->
<g id="node2" class="node">
<title>Node44</title>
<g id="a_node2"><a xlink:href="neo__animation_8cpp.html#af16b42fccab1fb1eaf3658e792035c42" target="_top" xlink:title="this will perform a single shift operation! ">
<polygon fill="#ffffff" stroke="#000000" points="128,-.5 128,-19.5 178,-19.5 178,-.5 128,-.5"/>
<text text-anchor="middle" x="153" y="-7.5" font-family="RobotoMono" font-size="10.00" fill="#000000">shiftPx</text>
</a>
</g>
</g>
<!-- Node43&#45;&gt;Node44 -->
<g id="edge1" class="edge">
<title>Node43&#45;&gt;Node44</title>
<path fill="none" stroke="#191970" d="M102.3779,-10C111.3024,-10 120.1198,-10 127.833,-10"/>
<polygon fill="#191970" stroke="#191970" points="102.3095,-6.5001 92.3094,-10 102.3094,-13.5001 102.3095,-6.5001"/>
</g>
<!-- Node45 -->
<g id="node3" class="node">
<title>Node45</title>
<g id="a_node3"><a xlink:href="neo__animation_8cpp.html#ae66f6b31b5ad750f1fe042a706a4e3d4" target="_top" xlink:title="main">
<polygon fill="#ffffff" stroke="#000000" points="214,-.5 214,-19.5 255,-19.5 255,-.5 214,-.5"/>
<text text-anchor="middle" x="234.5" y="-7.5" font-family="RobotoMono" font-size="10.00" fill="#000000">main</text>
</a>
</g>
</g>
<!-- Node44&#45;&gt;Node45 -->
<g id="edge2" class="edge">
<title>Node44&#45;&gt;Node45</title>
<path fill="none" stroke="#191970" d="M188.5948,-10C197.2156,-10 206.1493,-10 213.8189,-10"/>
<polygon fill="#191970" stroke="#191970" points="188.3404,-6.5001 178.3404,-10 188.3403,-13.5001 188.3404,-6.5001"/>
</g>
</g>
</svg>
