<?xml version="1.0" encoding="UTF-8" standalone="no"?>
<!DOCTYPE svg PUBLIC "-//W3C//DTD SVG 1.1//EN"
 "http://www.w3.org/Graphics/SVG/1.1/DTD/svg11.dtd">
<!-- Generated by graphviz version 2.38.0 (20140413.2041)
 -->
<!-- Title: LCD::print Pages: 1 -->
<!--zoomable 371 -->
<svg id="main" version="1.1" xmlns="http://www.w3.org/2000/svg" xmlns:xlink="http://www.w3.org/1999/xlink" xml:space="preserve" onload="init(evt)">
<style type="text/css"><![CDATA[
.edge:hover path { stroke: red; }
.edge:hover polygon { stroke: red; fill: red; }
]]></style>
<script type="text/javascript"><![CDATA[
var edges = document.getElementsByTagName('g');
if (edges && edges.length) {
  for (var i=0;i<edges.length;i++) {
    if (edges[i].id.substr(0,4)=='edge') {
      edges[i].setAttribute('class','edge');
    }
  }
}
]]></script>
        <defs>
                <circle id="rim" cx="0" cy="0" r="7"/>
                <circle id="rim2" cx="0" cy="0" r="3.5"/>
                <g id="zoomPlus">
                        <use xlink:href="#rim" fill="#404040">
                                <set attributeName="fill" to="#808080" begin="zoomplus.mouseover" end="zoomplus.mouseout"/>
                        </use>
                        <path d="M-4,0h8M0,-4v8" fill="none" stroke="white" stroke-width="1.5" pointer-events="none"/>
                </g>
                <g id="zoomMin">
                        <use xlink:href="#rim" fill="#404040">
                                <set attributeName="fill" to="#808080" begin="zoomminus.mouseover" end="zoomminus.mouseout"/>
                        </use>
                        <path d="M-4,0h8" fill="none" stroke="white" stroke-width="1.5" pointer-events="none"/>
                </g>
                <g id="dirArrow">
                        <path fill="none" stroke="white" stroke-width="1.5" d="M0,-3.0v7 M-2.5,-0.5L0,-3.0L2.5,-0.5"/>
                </g>
               <g id="resetDef">
                       <use xlink:href="#rim2" fill="#404040">
                               <set attributeName="fill" to="#808080" begin="reset.mouseover" end="reset.mouseout"/>
                       </use>
               </g>
        </defs>

<script type="text/javascript">
var viewWidth = 951;
var viewHeight = 371;
var sectionId = 'dynsection-17';
</script>
<script xlink:href="svgpan.js"/>
<svg id="graph" class="graph">
<g id="viewport">
<title>LCD::print</title>
<polygon fill="white" stroke="none" points="-4,4 -4,-366.605 947,-366.605 947,4 -4,4"/>
<!-- Node240 -->
<g id="node1" class="node"><title>Node240</title>
<polygon fill="#bfbfbf" stroke="black" points="0,-6.55031 0,-25.5503 62,-25.5503 62,-6.55031 0,-6.55031"/>
<text text-anchor="middle" x="31" y="-13.5503" font-family="Helvetica,sans-Serif" font-size="10.00">LCD::print</text>
</g>
<!-- Node241 -->
<g id="node2" class="node"><title>Node241</title>
<g id="a_node2"><a xlink:href="structLCD.html#a632d9c641930fe16c0b623b82136196e" target="_top" xlink:title="LCD::init">
<polygon fill="white" stroke="black" points="98,-177.55 98,-196.55 154,-196.55 154,-177.55 98,-177.55"/>
<text text-anchor="middle" x="126" y="-184.55" font-family="Helvetica,sans-Serif" font-size="10.00">LCD::init</text>
</a>
</g>
</g>
<!-- Node240&#45;&gt;Node241 -->
<g id="edge1" class="edge"><title>Node240&#45;&gt;Node241</title>
<path fill="none" stroke="midnightblue" d="M37.2665,-25.734C52.2289,-53.2453 95.178,-132.216 114.89,-168.461"/>
<polygon fill="midnightblue" stroke="midnightblue" points="111.939,-170.36 119.791,-177.473 118.088,-167.016 111.939,-170.36"/>
</g>
<!-- Node252 -->
<g id="node13" class="node"><title>Node252</title>
<g id="a_node13"><a xlink:href="structLCD.html#ae5873763db265cd00da32664cce88873" target="_top" xlink:title="LCD::s1Dat">
<polygon fill="white" stroke="black" points="511.5,-82.5503 511.5,-101.55 580.5,-101.55 580.5,-82.5503 511.5,-82.5503"/>
<text text-anchor="middle" x="546" y="-89.5503" font-family="Helvetica,sans-Serif" font-size="10.00">LCD::s1Dat</text>
</a>
</g>
</g>
<!-- Node240&#45;&gt;Node252 -->
<g id="edge32" class="edge"><title>Node240&#45;&gt;Node252</title>
<path fill="none" stroke="midnightblue" d="M62.1475,-11.4529C135.38,-1.56052 327.322,16.6666 473,-38.0503 494.319,-46.0578 514.701,-62.4512 528.303,-75.086"/>
<polygon fill="midnightblue" stroke="midnightblue" points="526.216,-77.9357 535.843,-82.3587 531.075,-72.8973 526.216,-77.9357"/>
</g>
<!-- Node253 -->
<g id="node14" class="node"><title>Node253</title>
<g id="a_node14"><a xlink:href="structLCD.html#ad1a67d455563026a5064ef9cab86ae4d" target="_top" xlink:title="LCD::setCursor">
<polygon fill="white" stroke="black" points="369.5,-158.55 369.5,-177.55 455.5,-177.55 455.5,-158.55 369.5,-158.55"/>
<text text-anchor="middle" x="412.5" y="-165.55" font-family="Helvetica,sans-Serif" font-size="10.00">LCD::setCursor</text>
</a>
</g>
</g>
<!-- Node240&#45;&gt;Node253 -->
<g id="edge33" class="edge"><title>Node240&#45;&gt;Node253</title>
<path fill="none" stroke="midnightblue" d="M62.0899,-16.4889C116.1,-18.4474 231.713,-28.0469 316,-73.0503 351.538,-92.0251 382.491,-128.48 398.938,-150.298"/>
<polygon fill="midnightblue" stroke="midnightblue" points="396.146,-152.408 404.884,-158.399 401.789,-148.266 396.146,-152.408"/>
</g>
<!-- Node242 -->
<g id="node3" class="node"><title>Node242</title>
<g id="a_node3"><a xlink:href="structLCD.html#aa01b7522d1e210f9cd071e3a5d4ae9e6" target="_top" xlink:title="LCD::changeBackground">
<polygon fill="white" stroke="black" points="190,-120.55 190,-139.55 316,-139.55 316,-120.55 190,-120.55"/>
<text text-anchor="middle" x="253" y="-127.55" font-family="Helvetica,sans-Serif" font-size="10.00">LCD::changeBackground</text>
</a>
</g>
</g>
<!-- Node241&#45;&gt;Node242 -->
<g id="edge2" class="edge"><title>Node241&#45;&gt;Node242</title>
<path fill="none" stroke="midnightblue" d="M134.237,-177.257C145.817,-167.378 169.311,-154.437 190,-145.05 191.153,-144.527 192.321,-144.005 193.5,-143.485"/>
<polygon fill="midnightblue" stroke="midnightblue" points="194.878,-146.702 202.715,-139.572 192.142,-140.259 194.878,-146.702"/>
</g>
<!-- Node248 -->
<g id="node9" class="node"><title>Node248</title>
<g id="a_node9"><a xlink:href="structLCD.html#a75cacb94de3b3ff71e9a4497b5cc4a81" target="_top" xlink:title="LCD::changeBrightness">
<polygon fill="white" stroke="black" points="352,-337.55 352,-356.55 473,-356.55 473,-337.55 352,-337.55"/>
<text text-anchor="middle" x="412.5" y="-344.55" font-family="Helvetica,sans-Serif" font-size="10.00">LCD::changeBrightness</text>
</a>
</g>
</g>
<!-- Node241&#45;&gt;Node248 -->
<g id="edge10" class="edge"><title>Node241&#45;&gt;Node248</title>
<path fill="none" stroke="midnightblue" d="M129.771,-196.843C135.629,-220.308 151.99,-277.389 190,-305.05 233.491,-336.701 294.666,-343.78 341.709,-345.022"/>
<polygon fill="midnightblue" stroke="midnightblue" points="341.761,-348.524 351.824,-345.209 341.89,-341.525 341.761,-348.524"/>
</g>
<!-- Node249 -->
<g id="node10" class="node"><title>Node249</title>
<g id="a_node10"><a xlink:href="structLCD.html#ae7a8d9bc1581cfeeb0f098c8bb6d1229" target="_top" xlink:title="LCD::s2Cmd">
<polygon fill="white" stroke="black" points="509,-272.55 509,-291.55 583,-291.55 583,-272.55 509,-272.55"/>
<text text-anchor="middle" x="546" y="-279.55" font-family="Helvetica,sans-Serif" font-size="10.00">LCD::s2Cmd</text>
</a>
</g>
</g>
<!-- Node241&#45;&gt;Node249 -->
<g id="edge31" class="edge"><title>Node241&#45;&gt;Node249</title>
<path fill="none" stroke="midnightblue" d="M135.097,-196.775C145.185,-212.425 164.278,-241.112 190,-254.05 290.432,-304.57 427.668,-292.817 498.49,-285.074"/>
<polygon fill="midnightblue" stroke="midnightblue" points="499.305,-288.505 508.858,-283.922 498.532,-281.548 499.305,-288.505"/>
</g>
<!-- Node250 -->
<g id="node11" class="node"><title>Node250</title>
<g id="a_node11"><a xlink:href="structLCD.html#ad31ee94d401b7c28d6cc2f472e2eb8fd" target="_top" xlink:title="LCD::changeMode">
<polygon fill="white" stroke="black" points="204,-234.55 204,-253.55 302,-253.55 302,-234.55 204,-234.55"/>
<text text-anchor="middle" x="253" y="-241.55" font-family="Helvetica,sans-Serif" font-size="10.00">LCD::changeMode</text>
</a>
</g>
</g>
<!-- Node241&#45;&gt;Node250 -->
<g id="edge17" class="edge"><title>Node241&#45;&gt;Node250</title>
<path fill="none" stroke="midnightblue" d="M154.265,-193.832C165.232,-199.056 178.081,-205.643 190,-211.05 204.265,-217.522 220.831,-223.878 233.248,-229.762"/>
<polygon fill="midnightblue" stroke="midnightblue" points="231.702,-232.902 242.194,-234.373 234.909,-226.68 231.702,-232.902"/>
</g>
<!-- Node251 -->
<g id="node12" class="node"><title>Node251</title>
<g id="a_node12"><a xlink:href="structLCD.html#ad3120f397273bac2ad60e0291554b9e6" target="_top" xlink:title="LCD::clear">
<polygon fill="white" stroke="black" points="221,-82.5503 221,-101.55 285,-101.55 285,-82.5503 221,-82.5503"/>
<text text-anchor="middle" x="253" y="-89.5503" font-family="Helvetica,sans-Serif" font-size="10.00">LCD::clear</text>
</a>
</g>
</g>
<!-- Node241&#45;&gt;Node251 -->
<g id="edge20" class="edge"><title>Node241&#45;&gt;Node251</title>
<path fill="none" stroke="midnightblue" d="M129.909,-177.416C137.731,-158.912 160.625,-121.634 190,-102.05 196.311,-97.8428 203.595,-94.534 210.902,-92.1063"/>
<polygon fill="midnightblue" stroke="midnightblue" points="212.104,-95.4045 220.791,-89.3402 210.218,-88.6632 212.104,-95.4045"/>
</g>
<!-- Node242&#45;&gt;Node241 -->
<g id="edge3" class="edge"><title>Node242&#45;&gt;Node241</title>
<path fill="none" stroke="midnightblue" d="M242.194,-139.728C229.852,-146.834 208.079,-154.848 190,-163.05 181.247,-167.021 171.992,-171.629 163.35,-175.865"/>
<polygon fill="midnightblue" stroke="midnightblue" points="161.737,-172.757 154.265,-180.269 164.791,-179.056 161.737,-172.757"/>
</g>
<!-- Node243 -->
<g id="node4" class="node"><title>Node243</title>
<g id="a_node4"><a xlink:href="structLCD.html#a739998fad0591a092255676c8c8d532f" target="_top" xlink:title="LCD::s1Cmd">
<polygon fill="white" stroke="black" points="619,-196.55 619,-215.55 693,-215.55 693,-196.55 619,-196.55"/>
<text text-anchor="middle" x="656" y="-203.55" font-family="Helvetica,sans-Serif" font-size="10.00">LCD::s1Cmd</text>
</a>
</g>
</g>
<!-- Node242&#45;&gt;Node243 -->
<g id="edge4" class="edge"><title>Node242&#45;&gt;Node243</title>
<path fill="none" stroke="midnightblue" d="M316.172,-132.746C360.196,-135.311 420.51,-140.154 473,-149.05 522.738,-157.481 535.051,-161.369 583,-177.05 596.644,-181.512 611.4,-187.282 623.979,-192.499"/>
<polygon fill="midnightblue" stroke="midnightblue" points="622.965,-195.869 633.539,-196.529 625.684,-189.419 622.965,-195.869"/>
</g>
<!-- Node243&#45;&gt;Node241 -->
<g id="edge5" class="edge"><title>Node243&#45;&gt;Node241</title>
<path fill="none" stroke="midnightblue" d="M618.798,-205.565C540.519,-204.383 349.677,-200.785 190,-192.05 181.666,-191.594 172.722,-190.968 164.267,-190.313"/>
<polygon fill="midnightblue" stroke="midnightblue" points="164.518,-186.822 154.269,-189.508 163.956,-193.799 164.518,-186.822"/>
</g>
<!-- Node244 -->
<g id="node5" class="node"><title>Node244</title>
<g id="a_node5"><a xlink:href="classeagle__impl_1_1TwoWire.html#a1876ffdb16fb185c14a75e1251cef5e4" target="_top" xlink:title="eagle_impl::TwoWire\l::beginTransmission">
<polygon fill="white" stroke="black" points="729,-166.05 729,-196.05 837,-196.05 837,-166.05 729,-166.05"/>
<text text-anchor="start" x="737" y="-184.05" font-family="Helvetica,sans-Serif" font-size="10.00">eagle_impl::TwoWire</text>
<text text-anchor="middle" x="783" y="-173.05" font-family="Helvetica,sans-Serif" font-size="10.00">::beginTransmission</text>
</a>
</g>
</g>
<!-- Node243&#45;&gt;Node244 -->
<g id="edge6" class="edge"><title>Node243&#45;&gt;Node244</title>
<path fill="none" stroke="midnightblue" d="M693.155,-198.819C701.223,-197.206 710.008,-195.449 718.81,-193.688"/>
<polygon fill="midnightblue" stroke="midnightblue" points="719.6,-197.1 728.72,-191.706 718.227,-190.236 719.6,-197.1"/>
</g>
<!-- Node245 -->
<g id="node6" class="node"><title>Node245</title>
<g id="a_node6"><a xlink:href="classeagle__impl_1_1TwoWire.html#a2b5f9f156b6d281746a2a6ca5707dad3" target="_top" xlink:title="eagle_impl::TwoWire\l::write">
<polygon fill="white" stroke="black" points="729,-109.05 729,-139.05 837,-139.05 837,-109.05 729,-109.05"/>
<text text-anchor="start" x="737" y="-127.05" font-family="Helvetica,sans-Serif" font-size="10.00">eagle_impl::TwoWire</text>
<text text-anchor="middle" x="783" y="-116.05" font-family="Helvetica,sans-Serif" font-size="10.00">::write</text>
</a>
</g>
</g>
<!-- Node243&#45;&gt;Node245 -->
<g id="edge7" class="edge"><title>Node243&#45;&gt;Node245</title>
<path fill="none" stroke="midnightblue" d="M670.691,-196.489C685.094,-186.489 708.474,-170.417 729,-157.05 735.307,-152.943 742.092,-148.636 748.631,-144.54"/>
<polygon fill="midnightblue" stroke="midnightblue" points="750.691,-147.381 757.329,-139.123 746.99,-141.439 750.691,-147.381"/>
</g>
<!-- Node247 -->
<g id="node8" class="node"><title>Node247</title>
<g id="a_node8"><a xlink:href="classeagle__impl_1_1TwoWire.html#af80f9a7b85a3a81a035ca94c95bcdc1d" target="_top" xlink:title="eagle_impl::TwoWire\l::endTransmission">
<polygon fill="white" stroke="black" points="729,-215.05 729,-245.05 837,-245.05 837,-215.05 729,-215.05"/>
<text text-anchor="start" x="737" y="-233.05" font-family="Helvetica,sans-Serif" font-size="10.00">eagle_impl::TwoWire</text>
<text text-anchor="middle" x="783" y="-222.05" font-family="Helvetica,sans-Serif" font-size="10.00">::endTransmission</text>
</a>
</g>
</g>
<!-- Node243&#45;&gt;Node247 -->
<g id="edge9" class="edge"><title>Node243&#45;&gt;Node247</title>
<path fill="none" stroke="midnightblue" d="M693.155,-212.992C701.223,-214.541 710.008,-216.228 718.81,-217.918"/>
<polygon fill="midnightblue" stroke="midnightblue" points="718.239,-221.372 728.72,-219.82 719.559,-214.498 718.239,-221.372"/>
</g>
<!-- Node246 -->
<g id="node7" class="node"><title>Node246</title>
<g id="a_node7"><a xlink:href="eBoard_8h.html#abb66f08d8061c1064047324c1bacc2a9" target="_top" xlink:title="twi_transmit">
<polygon fill="white" stroke="black" points="873,-114.55 873,-133.55 943,-133.55 943,-114.55 873,-114.55"/>
<text text-anchor="middle" x="908" y="-121.55" font-family="Helvetica,sans-Serif" font-size="10.00">twi_transmit</text>
</a>
</g>
</g>
<!-- Node245&#45;&gt;Node246 -->
<g id="edge8" class="edge"><title>Node245&#45;&gt;Node246</title>
<path fill="none" stroke="midnightblue" d="M837.234,-124.05C845.725,-124.05 854.431,-124.05 862.686,-124.05"/>
<polygon fill="midnightblue" stroke="midnightblue" points="862.854,-127.55 872.854,-124.05 862.854,-120.55 862.854,-127.55"/>
</g>
<!-- Node248&#45;&gt;Node241 -->
<g id="edge13" class="edge"><title>Node248&#45;&gt;Node241</title>
<path fill="none" stroke="midnightblue" d="M381.018,-356.575C335.03,-363.801 247.214,-364.687 190,-323.05 151.716,-295.19 135.394,-237.485 129.646,-206.703"/>
<polygon fill="midnightblue" stroke="midnightblue" points="133.074,-205.979 127.985,-196.686 126.168,-207.124 133.074,-205.979"/>
</g>
<!-- Node248&#45;&gt;Node244 -->
<g id="edge11" class="edge"><title>Node248&#45;&gt;Node244</title>
<path fill="none" stroke="midnightblue" d="M464.611,-337.537C499.01,-330.093 544.873,-318.119 583,-301.05 653.659,-269.417 661.39,-243.762 729,-206.05 732.257,-204.234 735.668,-202.425 739.122,-200.658"/>
<polygon fill="midnightblue" stroke="midnightblue" points="740.889,-203.689 748.289,-196.107 737.776,-197.419 740.889,-203.689"/>
</g>
<!-- Node248&#45;&gt;Node247 -->
<g id="edge12" class="edge"><title>Node248&#45;&gt;Node247</title>
<path fill="none" stroke="midnightblue" d="M466.515,-356.564C525.12,-364.449 620.775,-369.36 693,-334.05 728.022,-316.928 754.705,-279.045 769.356,-254.039"/>
<polygon fill="midnightblue" stroke="midnightblue" points="772.503,-255.584 774.374,-245.156 766.408,-252.141 772.503,-255.584"/>
</g>
<!-- Node248&#45;&gt;Node249 -->
<g id="edge14" class="edge"><title>Node248&#45;&gt;Node249</title>
<path fill="none" stroke="midnightblue" d="M432.903,-337.459C454.949,-326.562 491.139,-308.674 516.416,-296.179"/>
<polygon fill="midnightblue" stroke="midnightblue" points="518.103,-299.249 525.517,-291.681 515.002,-292.974 518.103,-299.249"/>
</g>
<!-- Node249&#45;&gt;Node241 -->
<g id="edge15" class="edge"><title>Node249&#45;&gt;Node241</title>
<path fill="none" stroke="midnightblue" d="M520.49,-291.581C460.346,-307.206 302.205,-328.492 190,-272.05 162.764,-258.35 142.959,-226.992 133.409,-206.112"/>
<polygon fill="midnightblue" stroke="midnightblue" points="136.622,-204.723 129.557,-196.827 130.157,-207.405 136.622,-204.723"/>
</g>
<!-- Node249&#45;&gt;Node243 -->
<g id="edge16" class="edge"><title>Node249&#45;&gt;Node243</title>
<path fill="none" stroke="midnightblue" d="M561.797,-272.365C568.334,-268.041 576.089,-262.847 583,-258.05 600.308,-246.037 619.652,-232.034 633.927,-221.587"/>
<polygon fill="midnightblue" stroke="midnightblue" points="636.106,-224.33 642.097,-215.592 631.965,-218.686 636.106,-224.33"/>
</g>
<!-- Node250&#45;&gt;Node241 -->
<g id="edge18" class="edge"><title>Node250&#45;&gt;Node241</title>
<path fill="none" stroke="midnightblue" d="M203.714,-234.935C199.05,-233.045 194.415,-231.053 190,-229.05 173.352,-221.497 154.887,-211.642 142.276,-202.933"/>
<polygon fill="midnightblue" stroke="midnightblue" points="144.322,-200.092 134.237,-196.844 140.095,-205.672 144.322,-200.092"/>
</g>
<!-- Node250&#45;&gt;Node243 -->
<g id="edge19" class="edge"><title>Node250&#45;&gt;Node243</title>
<path fill="none" stroke="midnightblue" d="M302.131,-242.337C366.392,-239.64 483.655,-233.284 583,-220.05 591.437,-218.926 600.377,-217.435 608.982,-215.844"/>
<polygon fill="midnightblue" stroke="midnightblue" points="609.717,-219.267 618.88,-213.948 608.4,-212.392 609.717,-219.267"/>
</g>
<!-- Node251&#45;&gt;Node241 -->
<g id="edge21" class="edge"><title>Node251&#45;&gt;Node241</title>
<path fill="none" stroke="midnightblue" d="M235.875,-101.582C222.67,-105.836 203.957,-110.745 190,-120.05 170.451,-133.083 153.772,-153.953 142.496,-169.146"/>
<polygon fill="midnightblue" stroke="midnightblue" points="139.585,-167.198 136.5,-177.333 145.232,-171.333 139.585,-167.198"/>
</g>
<!-- Node251&#45;&gt;Node252 -->
<g id="edge22" class="edge"><title>Node251&#45;&gt;Node252</title>
<path fill="none" stroke="midnightblue" d="M285.142,-92.0503C337.149,-92.0503 441.814,-92.0503 501.216,-92.0503"/>
<polygon fill="midnightblue" stroke="midnightblue" points="501.406,-95.5504 511.405,-92.0503 501.405,-88.5504 501.406,-95.5504"/>
</g>
<!-- Node251&#45;&gt;Node253 -->
<g id="edge27" class="edge"><title>Node251&#45;&gt;Node253</title>
<path fill="none" stroke="midnightblue" d="M285.123,-99.9943C295.166,-102.976 306.225,-106.711 316,-111.05 342.39,-122.764 370.533,-140.241 389.378,-152.752"/>
<polygon fill="midnightblue" stroke="midnightblue" points="387.585,-155.764 397.834,-158.448 391.496,-149.958 387.585,-155.764"/>
</g>
<!-- Node252&#45;&gt;Node241 -->
<g id="edge23" class="edge"><title>Node252&#45;&gt;Node241</title>
<path fill="none" stroke="midnightblue" d="M521.321,-82.4343C461.065,-59.6197 298.978,-8.76337 190,-73.0503 155.25,-93.5494 138.337,-140.849 131.277,-167.634"/>
<polygon fill="midnightblue" stroke="midnightblue" points="127.861,-166.87 128.899,-177.414 134.663,-168.524 127.861,-166.87"/>
</g>
<!-- Node252&#45;&gt;Node244 -->
<g id="edge24" class="edge"><title>Node252&#45;&gt;Node244</title>
<path fill="none" stroke="midnightblue" d="M572.149,-101.575C610.335,-116.037 683.674,-143.812 732.732,-162.391"/>
<polygon fill="midnightblue" stroke="midnightblue" points="731.611,-165.709 742.202,-165.978 734.09,-159.163 731.611,-165.709"/>
</g>
<!-- Node252&#45;&gt;Node245 -->
<g id="edge25" class="edge"><title>Node252&#45;&gt;Node245</title>
<path fill="none" stroke="midnightblue" d="M580.67,-96.6351C616.581,-101.525 674.291,-109.384 718.737,-115.436"/>
<polygon fill="midnightblue" stroke="midnightblue" points="718.484,-118.934 728.865,-116.815 719.429,-111.998 718.484,-118.934"/>
</g>
<!-- Node252&#45;&gt;Node247 -->
<g id="edge26" class="edge"><title>Node252&#45;&gt;Node247</title>
<path fill="none" stroke="midnightblue" d="M562.351,-101.689C568.847,-105.92 576.419,-111.053 583,-116.05 599.816,-128.819 601.593,-135.1 619,-147.05 621.859,-149.013 725.891,-204.515 729,-206.05 732.129,-207.596 735.378,-209.161 738.659,-210.713"/>
<polygon fill="midnightblue" stroke="midnightblue" points="737.37,-213.973 747.913,-215.022 740.325,-207.628 737.37,-213.973"/>
</g>
<!-- Node253&#45;&gt;Node241 -->
<g id="edge28" class="edge"><title>Node253&#45;&gt;Node241</title>
<path fill="none" stroke="midnightblue" d="M369.108,-170.881C313.6,-174.588 217.16,-181.029 164.299,-184.559"/>
<polygon fill="midnightblue" stroke="midnightblue" points="163.766,-181.087 154.022,-185.246 164.233,-188.071 163.766,-181.087"/>
</g>
<!-- Node253&#45;&gt;Node243 -->
<g id="edge30" class="edge"><title>Node253&#45;&gt;Node243</title>
<path fill="none" stroke="midnightblue" d="M455.735,-173.418C490.084,-177.93 539.767,-184.791 583,-192.05 591.394,-193.46 600.314,-195.088 608.912,-196.724"/>
<polygon fill="midnightblue" stroke="midnightblue" points="608.325,-200.175 618.807,-198.636 609.653,-193.302 608.325,-200.175"/>
</g>
<!-- Node253&#45;&gt;Node249 -->
<g id="edge29" class="edge"><title>Node253&#45;&gt;Node249</title>
<path fill="none" stroke="midnightblue" d="M424.712,-177.77C447.227,-197.289 498.158,-241.442 525.981,-265.562"/>
<polygon fill="midnightblue" stroke="midnightblue" points="523.968,-268.449 533.817,-272.355 528.553,-263.16 523.968,-268.449"/>
</g>
</g>
</svg>
        <g id="navigator" transform="translate(0 0)" fill="#404254">
                <rect fill="#f2f5e9" fill-opacity="0.5" stroke="#606060" stroke-width=".5" x="0" y="0" width="60" height="60"/>
                <use id="zoomplus" xlink:href="#zoomPlus" x="17" y="9" onmousedown="handleZoom(evt,'in')"/>
                <use id="zoomminus" xlink:href="#zoomMin" x="42" y="9" onmousedown="handleZoom(evt,'out')"/>
                <use id="reset" xlink:href="#resetDef" x="30" y="36" onmousedown="handleReset()"/>
                <g id="arrowUp" xlink:href="#dirArrow" transform="translate(30 24)" onmousedown="handlePan(0,-1)">
                  <use xlink:href="#rim" fill="#404040">
                        <set attributeName="fill" to="#808080" begin="arrowUp.mouseover" end="arrowUp.mouseout"/>
                  </use>
                  <path fill="none" stroke="white" stroke-width="1.5" d="M0,-3.0v7 M-2.5,-0.5L0,-3.0L2.5,-0.5"/>
                </g>
                <g id="arrowRight" xlink:href="#dirArrow" transform="rotate(90) translate(36 -43)" onmousedown="handlePan(1,0)">
                  <use xlink:href="#rim" fill="#404040">
                        <set attributeName="fill" to="#808080" begin="arrowRight.mouseover" end="arrowRight.mouseout"/>
                  </use>
                  <path fill="none" stroke="white" stroke-width="1.5" d="M0,-3.0v7 M-2.5,-0.5L0,-3.0L2.5,-0.5"/>
                </g>
                <g id="arrowDown" xlink:href="#dirArrow" transform="rotate(180) translate(-30 -48)" onmousedown="handlePan(0,1)">
                  <use xlink:href="#rim" fill="#404040">
                        <set attributeName="fill" to="#808080" begin="arrowDown.mouseover" end="arrowDown.mouseout"/>
                  </use>
                  <path fill="none" stroke="white" stroke-width="1.5" d="M0,-3.0v7 M-2.5,-0.5L0,-3.0L2.5,-0.5"/>
                </g>
                <g id="arrowLeft" xlink:href="#dirArrow" transform="rotate(270) translate(-36 17)" onmousedown="handlePan(-1,0)">
                  <use xlink:href="#rim" fill="#404040">
                        <set attributeName="fill" to="#808080" begin="arrowLeft.mouseover" end="arrowLeft.mouseout"/>
                  </use>
                  <path fill="none" stroke="white" stroke-width="1.5" d="M0,-3.0v7 M-2.5,-0.5L0,-3.0L2.5,-0.5"/>
                </g>
        </g>
        <svg viewBox="0 0 15 15" width="100%" height="30px" preserveAspectRatio="xMaxYMin meet">
         <g id="arrow_out" transform="scale(0.3 0.3)">
          <a xlink:href="structLCD_ab1b68d883d80dc7b8810e602b7032767_cgraph_org.svg" target="_base">
           <rect id="button" ry="5" rx="5" y="6" x="6" height="38" width="38"
                fill="#f2f5e9" fill-opacity="0.5" stroke="#606060" stroke-width="1.0"/>
           <path id="arrow"
             d="M 11.500037,31.436501 C 11.940474,20.09759 22.043105,11.32322 32.158766,21.979434 L 37.068811,17.246167 C 37.068811,17.246167 37.088388,32 37.088388,32 L 22.160133,31.978069 C 22.160133,31.978069 26.997745,27.140456 26.997745,27.140456 C 18.528582,18.264221 13.291696,25.230495 11.500037,31.436501 z"
             style="fill:#404040;"/>
          </a>
         </g>
        </svg>
</svg>
