<?xml version="1.0" encoding="UTF-8" standalone="no"?>
<!DOCTYPE svg PUBLIC "-//W3C//DTD SVG 1.1//EN"
 "http://www.w3.org/Graphics/SVG/1.1/DTD/svg11.dtd">
<!-- Generated by graphviz version 2.38.0 (20140413.2041)
 -->
<!-- Title: AX12Servo::setPositionMode Pages: 1 -->
<svg width="239pt" height="46pt"
 viewBox="0.00 0.00 239.03 46.00" xmlns="http://www.w3.org/2000/svg" xmlns:xlink="http://www.w3.org/1999/xlink">
<g id="graph0" class="graph" transform="scale(1 1) rotate(0) translate(4 42)">
<title>AX12Servo::setPositionMode</title>
<polygon fill="white" stroke="none" points="-4,4 -4,-42 235.03,-42 235.03,4 -4,4"/>
<!-- Node28 -->
<g id="node1" class="node"><title>Node28</title>
<polygon fill="#bfbfbf" stroke="black" points="0,-0.5 0,-19.5 145,-19.5 145,-0.5 0,-0.5"/>
<text text-anchor="middle" x="72.5" y="-7.5" font-family="Helvetica,sans-Serif" font-size="10.00">AX12Servo::setPositionMode</text>
</g>
<!-- Node29 -->
<g id="node2" class="node"><title>Node29</title>
<g id="a_node2"><a xlink:href="eBoard__comment_8h.html#aca4f96af7c6736bf2b61c88d731af741" target="_top" xlink:title="read a digital state from an INPUTpin ">
<polygon fill="white" stroke="black" points="181,-0.5 181,-19.5 231,-19.5 231,-0.5 181,-0.5"/>
<text text-anchor="middle" x="206" y="-7.5" font-family="Helvetica,sans-Serif" font-size="10.00">readPin</text>
</a>
</g>
</g>
<!-- Node28&#45;&gt;Node29 -->
<g id="edge1" class="edge"><title>Node28&#45;&gt;Node29</title>
<path fill="none" stroke="midnightblue" d="M155.194,-10C164.441,-10 173.24,-10 180.798,-10"/>
<polygon fill="midnightblue" stroke="midnightblue" points="155.022,-6.5001 145.022,-10 155.022,-13.5001 155.022,-6.5001"/>
</g>
<!-- Node29&#45;&gt;Node29 -->
<g id="edge2" class="edge"><title>Node29&#45;&gt;Node29</title>
<path fill="none" stroke="midnightblue" d="M181.447,-29.0292C182.786,-34.128 190.97,-38 206,-38 229.461,-38 236.243,-28.5653 226.345,-19.7571"/>
<polygon fill="midnightblue" stroke="midnightblue" points="184.709,-30.3096 185.655,-19.7571 178.335,-27.4164 184.709,-30.3096"/>
</g>
</g>
</svg>
