<?xml version="1.0" encoding="UTF-8" standalone="no"?>
<!DOCTYPE svg PUBLIC "-//W3C//DTD SVG 1.1//EN"
 "http://www.w3.org/Graphics/SVG/1.1/DTD/svg11.dtd">
<!-- Generated by graphviz version 2.38.0 (20140413.2041)
 -->
<!-- Title: SoccerBoard::ledMeter Pages: 1 -->
<svg width="402pt" height="117pt"
 viewBox="0.00 0.00 402.00 117.23" xmlns="http://www.w3.org/2000/svg" xmlns:xlink="http://www.w3.org/1999/xlink">
<g id="graph0" class="graph" transform="scale(1 1) rotate(0) translate(4 113.226)">
<title>SoccerBoard::ledMeter</title>
<polygon fill="white" stroke="none" points="-4,4 -4,-113.226 398,-113.226 398,4 -4,4"/>
<!-- Node34 -->
<g id="node1" class="node"><title>Node34</title>
<polygon fill="#bfbfbf" stroke="black" points="0,-57.5 0,-76.5 116,-76.5 116,-57.5 0,-57.5"/>
<text text-anchor="middle" x="58" y="-64.5" font-family="Helvetica,sans-Serif" font-size="10.00">SoccerBoard::ledMeter</text>
</g>
<!-- Node35 -->
<g id="node2" class="node"><title>Node35</title>
<g id="a_node2"><a xlink:href="eBoard_8h.html#ad6d4c1b1e3b495ed81fb28fac04d2bd6" target="_top" xlink:title="write a boolean state to an output pin ">
<polygon fill="white" stroke="black" points="152,-57.5 152,-76.5 204,-76.5 204,-57.5 152,-57.5"/>
<text text-anchor="middle" x="178" y="-64.5" font-family="Helvetica,sans-Serif" font-size="10.00">writePin</text>
</a>
</g>
</g>
<!-- Node34&#45;&gt;Node35 -->
<g id="edge1" class="edge"><title>Node34&#45;&gt;Node35</title>
<path fill="none" stroke="midnightblue" d="M116.272,-67C124.927,-67 133.633,-67 141.642,-67"/>
<polygon fill="midnightblue" stroke="midnightblue" points="141.706,-70.5001 151.706,-67 141.706,-63.5001 141.706,-70.5001"/>
</g>
<!-- Node36 -->
<g id="node3" class="node"><title>Node36</title>
<g id="a_node3"><a xlink:href="eBoard_8h.html#a757015d50a6c57414603841f728b670b" target="_top" xlink:title="[DEBUG_MODE] used to check if a pin index is in bounds ">
<polygon fill="white" stroke="black" points="338,-76.5 338,-95.5 394,-95.5 394,-76.5 338,-76.5"/>
<text text-anchor="middle" x="366" y="-83.5" font-family="Helvetica,sans-Serif" font-size="10.00">checkIdx</text>
</a>
</g>
</g>
<!-- Node35&#45;&gt;Node36 -->
<g id="edge2" class="edge"><title>Node35&#45;&gt;Node36</title>
<path fill="none" stroke="midnightblue" d="M190.203,-76.7076C201.777,-86.0392 220.806,-99.5106 240,-105 270.369,-113.685 306.092,-106.603 331.555,-98.7356"/>
<polygon fill="midnightblue" stroke="midnightblue" points="332.707,-102.041 341.116,-95.5959 330.523,-95.3906 332.707,-102.041"/>
</g>
<!-- Node37 -->
<g id="node4" class="node"><title>Node37</title>
<g id="a_node4"><a xlink:href="eBoard_8h.html#a06400a6dce24e4eda610644893c1bbd7" target="_top" xlink:title="[COPY&amp;PASTE] [CHECK_PINS] Check if a pin is set to a specific mode ">
<polygon fill="white" stroke="black" points="242.5,-76.5 242.5,-95.5 299.5,-95.5 299.5,-76.5 242.5,-76.5"/>
<text text-anchor="middle" x="271" y="-83.5" font-family="Helvetica,sans-Serif" font-size="10.00">checkPin</text>
</a>
</g>
</g>
<!-- Node35&#45;&gt;Node37 -->
<g id="edge3" class="edge"><title>Node35&#45;&gt;Node37</title>
<path fill="none" stroke="midnightblue" d="M204.349,-72.2926C213,-74.0988 222.869,-76.1594 232.28,-78.1244"/>
<polygon fill="midnightblue" stroke="midnightblue" points="231.729,-81.5848 242.234,-80.2026 233.16,-74.7326 231.729,-81.5848"/>
</g>
<!-- Node38 -->
<g id="node5" class="node"><title>Node38</title>
<g id="a_node5"><a xlink:href="eBoard_8h.html#a78b0e873cb50c282c6243d4913406be4" target="_top" xlink:title="[COPY&amp;PASTE] set a pin to a certain mode =&gt; checkPin() will return true then ">
<polygon fill="white" stroke="black" points="249,-38.5 249,-57.5 293,-57.5 293,-38.5 249,-38.5"/>
<text text-anchor="middle" x="271" y="-45.5" font-family="Helvetica,sans-Serif" font-size="10.00">setPin</text>
</a>
</g>
</g>
<!-- Node35&#45;&gt;Node38 -->
<g id="edge5" class="edge"><title>Node35&#45;&gt;Node38</title>
<path fill="none" stroke="midnightblue" d="M204.349,-61.7074C215.059,-59.4712 227.636,-56.8452 238.9,-54.4933"/>
<polygon fill="midnightblue" stroke="midnightblue" points="239.711,-57.8996 248.785,-52.4296 238.28,-51.0474 239.711,-57.8996"/>
</g>
<!-- Node39 -->
<g id="node6" class="node"><title>Node39</title>
<g id="a_node6"><a xlink:href="eBoard_8h.html#ad6372ab439a73887b0800cc695599436" target="_top" xlink:title="[SHIFT] Changes a single output Pin ">
<polygon fill="white" stroke="black" points="240,-0.5 240,-19.5 302,-19.5 302,-0.5 240,-0.5"/>
<text text-anchor="middle" x="271" y="-7.5" font-family="Helvetica,sans-Serif" font-size="10.00">shiftSingle</text>
</a>
</g>
</g>
<!-- Node35&#45;&gt;Node39 -->
<g id="edge7" class="edge"><title>Node35&#45;&gt;Node39</title>
<path fill="none" stroke="midnightblue" d="M194.437,-57.3307C208.642,-48.4333 229.922,-35.1038 246.284,-24.8554"/>
<polygon fill="midnightblue" stroke="midnightblue" points="248.174,-27.801 254.791,-19.5265 244.458,-21.8687 248.174,-27.801"/>
</g>
<!-- Node37&#45;&gt;Node36 -->
<g id="edge4" class="edge"><title>Node37&#45;&gt;Node36</title>
<path fill="none" stroke="midnightblue" d="M299.651,-86C308.443,-86 318.317,-86 327.675,-86"/>
<polygon fill="midnightblue" stroke="midnightblue" points="327.936,-89.5001 337.936,-86 327.936,-82.5001 327.936,-89.5001"/>
</g>
<!-- Node38&#45;&gt;Node36 -->
<g id="edge6" class="edge"><title>Node38&#45;&gt;Node36</title>
<path fill="none" stroke="midnightblue" d="M293.103,-56.6228C304.634,-61.3342 319.17,-67.2736 332.149,-72.577"/>
<polygon fill="midnightblue" stroke="midnightblue" points="331.114,-75.9351 341.695,-76.4777 333.762,-69.4552 331.114,-75.9351"/>
</g>
<!-- Node40 -->
<g id="node7" class="node"><title>Node40</title>
<g id="a_node7"><a xlink:href="eBoard_8h.html#aa0a7f697a49b0d038631c64e945f5c1a" target="_top" xlink:title="[SHIFT] Changes bits according to store_bits ">
<polygon fill="white" stroke="black" points="342.5,-0.5 342.5,-19.5 389.5,-19.5 389.5,-0.5 342.5,-0.5"/>
<text text-anchor="middle" x="366" y="-7.5" font-family="Helvetica,sans-Serif" font-size="10.00">shiftAll</text>
</a>
</g>
</g>
<!-- Node39&#45;&gt;Node40 -->
<g id="edge8" class="edge"><title>Node39&#45;&gt;Node40</title>
<path fill="none" stroke="midnightblue" d="M302.194,-10C311.776,-10 322.415,-10 332.173,-10"/>
<polygon fill="midnightblue" stroke="midnightblue" points="332.323,-13.5001 342.323,-10 332.323,-6.5001 332.323,-13.5001"/>
</g>
</g>
</svg>
