<?xml version="1.0" encoding="UTF-8" standalone="no"?>
<!DOCTYPE svg PUBLIC "-//W3C//DTD SVG 1.1//EN"
 "http://www.w3.org/Graphics/SVG/1.1/DTD/svg11.dtd">
<!-- Generated by graphviz version 2.38.0 (20140413.2041)
 -->
<!-- Title: LCD::changeID Pages: 1 -->
<svg width="179pt" height="46pt"
 viewBox="0.00 0.00 179.00 46.00" xmlns="http://www.w3.org/2000/svg" xmlns:xlink="http://www.w3.org/1999/xlink">
<g id="graph0" class="graph" transform="scale(1 1) rotate(0) translate(4 42)">
<title>LCD::changeID</title>
<polygon fill="white" stroke="none" points="-4,4 -4,-42 175,-42 175,4 -4,4"/>
<!-- Node13 -->
<g id="node1" class="node"><title>Node13</title>
<polygon fill="#bfbfbf" stroke="black" points="0,-0.5 0,-19.5 85,-19.5 85,-0.5 0,-0.5"/>
<text text-anchor="middle" x="42.5" y="-7.5" font-family="Helvetica,sans-Serif" font-size="10.00">LCD::changeID</text>
</g>
<!-- Node14 -->
<g id="node2" class="node"><title>Node14</title>
<g id="a_node2"><a xlink:href="eBoard__comment_8h.html#aca4f96af7c6736bf2b61c88d731af741" target="_top" xlink:title="read a digital state from an INPUTpin ">
<polygon fill="white" stroke="black" points="121,-0.5 121,-19.5 171,-19.5 171,-0.5 121,-0.5"/>
<text text-anchor="middle" x="146" y="-7.5" font-family="Helvetica,sans-Serif" font-size="10.00">readPin</text>
</a>
</g>
</g>
<!-- Node13&#45;&gt;Node14 -->
<g id="edge1" class="edge"><title>Node13&#45;&gt;Node14</title>
<path fill="none" stroke="midnightblue" d="M95.1501,-10C104.111,-10 113.034,-10 120.802,-10"/>
<polygon fill="midnightblue" stroke="midnightblue" points="95.0768,-6.5001 85.0768,-10 95.0768,-13.5001 95.0768,-6.5001"/>
</g>
<!-- Node14&#45;&gt;Node14 -->
<g id="edge2" class="edge"><title>Node14&#45;&gt;Node14</title>
<path fill="none" stroke="midnightblue" d="M127.112,-29.4C128.373,-34.3146 134.669,-38 146,-38 164.129,-38 169.369,-28.5653 161.721,-19.7571"/>
<polygon fill="midnightblue" stroke="midnightblue" points="130.484,-30.3499 130.279,-19.7571 123.833,-28.1658 130.484,-30.3499"/>
</g>
</g>
</svg>
