<?xml version="1.0" encoding="UTF-8" standalone="no"?>
<!DOCTYPE svg PUBLIC "-//W3C//DTD SVG 1.1//EN"
 "http://www.w3.org/Graphics/SVG/1.1/DTD/svg11.dtd">
<!-- Generated by graphviz version 2.38.0 (20140413.2041)
 -->
<!-- Title: SoccerBoard::motor Pages: 1 -->
<svg width="721pt" height="104pt"
 viewBox="0.00 0.00 721.00 104.00" xmlns="http://www.w3.org/2000/svg" xmlns:xlink="http://www.w3.org/1999/xlink">
<g id="graph0" class="graph" transform="scale(1 1) rotate(0) translate(4 100)">
<title>SoccerBoard::motor</title>
<polygon fill="white" stroke="none" points="-4,4 -4,-100 717,-100 717,4 -4,4"/>
<!-- Node74 -->
<g id="node1" class="node"><title>Node74</title>
<polygon fill="#bfbfbf" stroke="black" points="0,-38.5 0,-57.5 104,-57.5 104,-38.5 0,-38.5"/>
<text text-anchor="middle" x="52" y="-45.5" font-family="Helvetica,sans-Serif" font-size="10.00">SoccerBoard::motor</text>
</g>
<!-- Node75 -->
<g id="node2" class="node"><title>Node75</title>
<g id="a_node2"><a xlink:href="eBoard_8h.html#a78b0e873cb50c282c6243d4913406be4" target="_top" xlink:title="[COPY&amp;PASTE] set a pin to a certain mode =&gt; checkPin() will return true then ">
<polygon fill="white" stroke="black" points="167,-76.5 167,-95.5 211,-95.5 211,-76.5 167,-76.5"/>
<text text-anchor="middle" x="189" y="-83.5" font-family="Helvetica,sans-Serif" font-size="10.00">setPin</text>
</a>
</g>
</g>
<!-- Node74&#45;&gt;Node75 -->
<g id="edge1" class="edge"><title>Node74&#45;&gt;Node75</title>
<path fill="none" stroke="midnightblue" d="M87.0662,-57.589C108.547,-63.6353 136.07,-71.3828 156.949,-77.2597"/>
<polygon fill="midnightblue" stroke="midnightblue" points="156.035,-80.6383 166.609,-79.9788 157.931,-73.9001 156.035,-80.6383"/>
</g>
<!-- Node77 -->
<g id="node4" class="node"><title>Node77</title>
<g id="a_node4"><a xlink:href="structServoCds55.html#ab74eb7a47800fedd7405adca0bf1e935" target="_top" xlink:title="ServoCds55::write">
<polygon fill="white" stroke="black" points="140,-38.5 140,-57.5 238,-57.5 238,-38.5 140,-38.5"/>
<text text-anchor="middle" x="189" y="-45.5" font-family="Helvetica,sans-Serif" font-size="10.00">ServoCds55::write</text>
</a>
</g>
</g>
<!-- Node74&#45;&gt;Node77 -->
<g id="edge3" class="edge"><title>Node74&#45;&gt;Node77</title>
<path fill="none" stroke="midnightblue" d="M104.038,-48C112.319,-48 120.952,-48 129.396,-48"/>
<polygon fill="midnightblue" stroke="midnightblue" points="129.566,-51.5001 139.566,-48 129.566,-44.5001 129.566,-51.5001"/>
</g>
<!-- Node82 -->
<g id="node9" class="node"><title>Node82</title>
<g id="a_node9"><a xlink:href="eBoard_8h.html#ad3f999233c04890710241b8b898d09cb" target="_top" xlink:title="write a clamped pwm value to an output pin ">
<polygon fill="white" stroke="black" points="158,-0.5 158,-19.5 220,-19.5 220,-0.5 158,-0.5"/>
<text text-anchor="middle" x="189" y="-7.5" font-family="Helvetica,sans-Serif" font-size="10.00">writePWM</text>
</a>
</g>
</g>
<!-- Node74&#45;&gt;Node82 -->
<g id="edge9" class="edge"><title>Node74&#45;&gt;Node82</title>
<path fill="none" stroke="midnightblue" d="M87.0662,-38.411C105.558,-33.206 128.528,-26.7404 147.881,-21.2926"/>
<polygon fill="midnightblue" stroke="midnightblue" points="148.952,-24.6273 157.63,-18.5487 147.055,-17.8892 148.952,-24.6273"/>
</g>
<!-- Node76 -->
<g id="node3" class="node"><title>Node76</title>
<g id="a_node3"><a xlink:href="eBoard_8h.html#a757015d50a6c57414603841f728b670b" target="_top" xlink:title="[DEBUG_MODE] used to check if a pin index is in bounds ">
<polygon fill="white" stroke="black" points="315,-76.5 315,-95.5 371,-95.5 371,-76.5 315,-76.5"/>
<text text-anchor="middle" x="343" y="-83.5" font-family="Helvetica,sans-Serif" font-size="10.00">checkIdx</text>
</a>
</g>
</g>
<!-- Node75&#45;&gt;Node76 -->
<g id="edge2" class="edge"><title>Node75&#45;&gt;Node76</title>
<path fill="none" stroke="midnightblue" d="M211.135,-86C235.255,-86 275.162,-86 304.577,-86"/>
<polygon fill="midnightblue" stroke="midnightblue" points="304.891,-89.5001 314.891,-86 304.891,-82.5001 304.891,-89.5001"/>
</g>
<!-- Node78 -->
<g id="node5" class="node"><title>Node78</title>
<g id="a_node5"><a xlink:href="structServoCds55.html#a5d77d36691d8a0fab7cf841a4feef530" target="_top" xlink:title="ServoCds55::SetServoLimit">
<polygon fill="white" stroke="black" points="274,-38.5 274,-57.5 412,-57.5 412,-38.5 274,-38.5"/>
<text text-anchor="middle" x="343" y="-45.5" font-family="Helvetica,sans-Serif" font-size="10.00">ServoCds55::SetServoLimit</text>
</a>
</g>
</g>
<!-- Node77&#45;&gt;Node78 -->
<g id="edge4" class="edge"><title>Node77&#45;&gt;Node78</title>
<path fill="none" stroke="midnightblue" d="M238.094,-48C246.283,-48 254.974,-48 263.706,-48"/>
<polygon fill="midnightblue" stroke="midnightblue" points="263.947,-51.5001 273.947,-48 263.947,-44.5001 263.947,-51.5001"/>
</g>
<!-- Node81 -->
<g id="node8" class="node"><title>Node81</title>
<g id="a_node8"><a xlink:href="structServoCds55.html#a78620c3a9f22c9a37449ba01c5bd08f3" target="_top" xlink:title="ServoCds55::WritePos">
<polygon fill="white" stroke="black" points="284.5,-0.5 284.5,-19.5 401.5,-19.5 401.5,-0.5 284.5,-0.5"/>
<text text-anchor="middle" x="343" y="-7.5" font-family="Helvetica,sans-Serif" font-size="10.00">ServoCds55::WritePos</text>
</a>
</g>
</g>
<!-- Node77&#45;&gt;Node81 -->
<g id="edge7" class="edge"><title>Node77&#45;&gt;Node81</title>
<path fill="none" stroke="midnightblue" d="M228.356,-38.411C248.324,-33.4191 272.93,-27.2676 294.133,-21.9666"/>
<polygon fill="midnightblue" stroke="midnightblue" points="295.067,-25.341 303.92,-19.5201 293.369,-18.55 295.067,-25.341"/>
</g>
<!-- Node79 -->
<g id="node6" class="node"><title>Node79</title>
<g id="a_node6"><a xlink:href="structServoCds55.html#a0ddbf204d991dae881cc22b8985efee3" target="_top" xlink:title="ServoCds55::sendWait">
<polygon fill="white" stroke="black" points="448,-19.5 448,-38.5 566,-38.5 566,-19.5 448,-19.5"/>
<text text-anchor="middle" x="507" y="-26.5" font-family="Helvetica,sans-Serif" font-size="10.00">ServoCds55::sendWait</text>
</a>
</g>
</g>
<!-- Node78&#45;&gt;Node79 -->
<g id="edge5" class="edge"><title>Node78&#45;&gt;Node79</title>
<path fill="none" stroke="midnightblue" d="M412.233,-39.9974C420.655,-39.0096 429.266,-37.9996 437.69,-37.0117"/>
<polygon fill="midnightblue" stroke="midnightblue" points="438.322,-40.4617 447.846,-35.8205 437.506,-33.5093 438.322,-40.4617"/>
</g>
<!-- Node80 -->
<g id="node7" class="node"><title>Node80</title>
<g id="a_node7"><a xlink:href="structeagle__impl_1_1SPIClass.html#a821dccd5dda20ccd9093fc35cce74ae5" target="_top" xlink:title="eagle_impl::SPIClass\l::transfer">
<polygon fill="white" stroke="black" points="602,-14 602,-44 713,-44 713,-14 602,-14"/>
<text text-anchor="start" x="610" y="-32" font-family="Helvetica,sans-Serif" font-size="10.00">eagle_impl::SPIClass</text>
<text text-anchor="middle" x="657.5" y="-21" font-family="Helvetica,sans-Serif" font-size="10.00">::transfer</text>
</a>
</g>
</g>
<!-- Node79&#45;&gt;Node80 -->
<g id="edge6" class="edge"><title>Node79&#45;&gt;Node80</title>
<path fill="none" stroke="midnightblue" d="M566.265,-29C574.584,-29 583.183,-29 591.619,-29"/>
<polygon fill="midnightblue" stroke="midnightblue" points="591.797,-32.5001 601.797,-29 591.797,-25.5001 591.797,-32.5001"/>
</g>
<!-- Node81&#45;&gt;Node79 -->
<g id="edge8" class="edge"><title>Node81&#45;&gt;Node79</title>
<path fill="none" stroke="midnightblue" d="M401.571,-16.7522C413.295,-18.1271 425.734,-19.5861 437.786,-20.9996"/>
<polygon fill="midnightblue" stroke="midnightblue" points="437.455,-24.4847 447.795,-22.1735 438.271,-17.5324 437.455,-24.4847"/>
</g>
</g>
</svg>
