<?xml version="1.0" encoding="UTF-8" standalone="no"?>
<!DOCTYPE svg PUBLIC "-//W3C//DTD SVG 1.1//EN"
 "http://www.w3.org/Graphics/SVG/1.1/DTD/svg11.dtd">
<!-- Generated by graphviz version 2.38.0 (20140413.2041)
 -->
<!-- Title: SoccerBoard::powerOff Pages: 1 -->
<svg width="213pt" height="46pt"
 viewBox="0.00 0.00 213.00 46.00" xmlns="http://www.w3.org/2000/svg" xmlns:xlink="http://www.w3.org/1999/xlink">
<g id="graph0" class="graph" transform="scale(1 1) rotate(0) translate(4 42)">
<title>SoccerBoard::powerOff</title>
<polygon fill="white" stroke="none" points="-4,4 -4,-42 209,-42 209,4 -4,4"/>
<!-- Node41 -->
<g id="node1" class="node"><title>Node41</title>
<polygon fill="#bfbfbf" stroke="black" points="0,-0.5 0,-19.5 119,-19.5 119,-0.5 0,-0.5"/>
<text text-anchor="middle" x="59.5" y="-7.5" font-family="Helvetica,sans-Serif" font-size="10.00">SoccerBoard::powerOff</text>
</g>
<!-- Node42 -->
<g id="node2" class="node"><title>Node42</title>
<g id="a_node2"><a xlink:href="eBoard__comment_8h.html#aca4f96af7c6736bf2b61c88d731af741" target="_top" xlink:title="read a digital state from an INPUTpin ">
<polygon fill="white" stroke="black" points="155,-0.5 155,-19.5 205,-19.5 205,-0.5 155,-0.5"/>
<text text-anchor="middle" x="180" y="-7.5" font-family="Helvetica,sans-Serif" font-size="10.00">readPin</text>
</a>
</g>
</g>
<!-- Node41&#45;&gt;Node42 -->
<g id="edge1" class="edge"><title>Node41&#45;&gt;Node42</title>
<path fill="none" stroke="midnightblue" d="M129.15,-10C138.381,-10 147.299,-10 154.977,-10"/>
<polygon fill="midnightblue" stroke="midnightblue" points="129.056,-6.5001 119.056,-10 129.056,-13.5001 129.056,-6.5001"/>
</g>
<!-- Node42&#45;&gt;Node42 -->
<g id="edge2" class="edge"><title>Node42&#45;&gt;Node42</title>
<path fill="none" stroke="midnightblue" d="M157.679,-29.0292C158.896,-34.128 166.337,-38 180,-38 201.328,-38 207.493,-28.5653 198.495,-19.7571"/>
<polygon fill="midnightblue" stroke="midnightblue" points="160.926,-30.3361 161.505,-19.7571 154.455,-27.6661 160.926,-30.3361"/>
</g>
</g>
</svg>
