<?xml version="1.0" encoding="UTF-8" standalone="no"?>
<!DOCTYPE svg PUBLIC "-//W3C//DTD SVG 1.1//EN"
 "http://www.w3.org/Graphics/SVG/1.1/DTD/svg11.dtd">
<!-- Generated by graphviz version 2.38.0 (20140413.2041)
 -->
<!-- Title: AX12Servo::changeMotorID Pages: 1 -->
<svg width="233pt" height="46pt"
 viewBox="0.00 0.00 233.00 46.00" xmlns="http://www.w3.org/2000/svg" xmlns:xlink="http://www.w3.org/1999/xlink">
<g id="graph0" class="graph" transform="scale(1 1) rotate(0) translate(4 42)">
<title>AX12Servo::changeMotorID</title>
<polygon fill="white" stroke="none" points="-4,4 -4,-42 229,-42 229,4 -4,4"/>
<!-- Node6 -->
<g id="node1" class="node"><title>Node6</title>
<polygon fill="#bfbfbf" stroke="black" points="0,-0.5 0,-19.5 139,-19.5 139,-0.5 0,-0.5"/>
<text text-anchor="middle" x="69.5" y="-7.5" font-family="Helvetica,sans-Serif" font-size="10.00">AX12Servo::changeMotorID</text>
</g>
<!-- Node7 -->
<g id="node2" class="node"><title>Node7</title>
<g id="a_node2"><a xlink:href="eBoard__comment_8h.html#aca4f96af7c6736bf2b61c88d731af741" target="_top" xlink:title="read a digital state from an INPUTpin ">
<polygon fill="white" stroke="black" points="175,-0.5 175,-19.5 225,-19.5 225,-0.5 175,-0.5"/>
<text text-anchor="middle" x="200" y="-7.5" font-family="Helvetica,sans-Serif" font-size="10.00">readPin</text>
</a>
</g>
</g>
<!-- Node6&#45;&gt;Node7 -->
<g id="edge1" class="edge"><title>Node6&#45;&gt;Node7</title>
<path fill="none" stroke="midnightblue" d="M149.351,-10C158.531,-10 167.29,-10 174.825,-10"/>
<polygon fill="midnightblue" stroke="midnightblue" points="149.264,-6.5001 139.264,-10 149.264,-13.5001 149.264,-6.5001"/>
</g>
<!-- Node7&#45;&gt;Node7 -->
<g id="edge2" class="edge"><title>Node7&#45;&gt;Node7</title>
<path fill="none" stroke="midnightblue" d="M175.819,-29.0292C177.138,-34.128 185.198,-38 200,-38 223.105,-38 229.784,-28.5653 220.037,-19.7571"/>
<polygon fill="midnightblue" stroke="midnightblue" points="179.078,-30.3148 179.963,-19.7571 172.687,-27.4582 179.078,-30.3148"/>
</g>
</g>
</svg>
