<?xml version="1.0" encoding="UTF-8" standalone="no"?>
<!DOCTYPE svg PUBLIC "-//W3C//DTD SVG 1.1//EN"
 "http://www.w3.org/Graphics/SVG/1.1/DTD/svg11.dtd">
<!-- Generated by graphviz version 2.38.0 (20140413.2041)
 -->
<!-- Title: LCD::changeBackground Pages: 1 -->
<svg width="870pt" height="478pt"
 viewBox="0.00 0.00 870.00 477.77" xmlns="http://www.w3.org/2000/svg" xmlns:xlink="http://www.w3.org/1999/xlink">
<g id="graph0" class="graph" transform="scale(1 1) rotate(0) translate(4 473.772)">
<title>LCD::changeBackground</title>
<polygon fill="white" stroke="none" points="-4,4 -4,-473.772 866,-473.772 866,4 -4,4"/>
<!-- Node17 -->
<g id="node1" class="node"><title>Node17</title>
<polygon fill="#bfbfbf" stroke="black" points="0,-207.312 0,-226.312 126,-226.312 126,-207.312 0,-207.312"/>
<text text-anchor="middle" x="63" y="-214.312" font-family="Helvetica,sans-Serif" font-size="10.00">LCD::changeBackground</text>
</g>
<!-- Node18 -->
<g id="node2" class="node"><title>Node18</title>
<g id="a_node2"><a xlink:href="structLCD.html#a632d9c641930fe16c0b623b82136196e" target="_top" xlink:title="LCD::init">
<polygon fill="white" stroke="black" points="162,-227.312 162,-246.312 218,-246.312 218,-227.312 162,-227.312"/>
<text text-anchor="middle" x="190" y="-234.312" font-family="Helvetica,sans-Serif" font-size="10.00">LCD::init</text>
</a>
</g>
</g>
<!-- Node17&#45;&gt;Node18 -->
<g id="edge1" class="edge"><title>Node17&#45;&gt;Node18</title>
<path fill="none" stroke="midnightblue" d="M136.118,-221.673C146.03,-223.407 155.611,-225.32 163.832,-227.247"/>
<polygon fill="midnightblue" stroke="midnightblue" points="136.574,-218.201 126.134,-220.004 135.42,-225.105 136.574,-218.201"/>
</g>
<!-- Node25 -->
<g id="node9" class="node"><title>Node25</title>
<g id="a_node9"><a xlink:href="dancing__dragon_8cpp.html#a840291bc02cba5474a4cb46a9b9566fe" target="_top" xlink:title="main">
<polygon fill="white" stroke="black" points="810.5,-106.312 810.5,-125.312 848.5,-125.312 848.5,-106.312 810.5,-106.312"/>
<text text-anchor="middle" x="829.5" y="-113.312" font-family="Helvetica,sans-Serif" font-size="10.00">main</text>
</a>
</g>
</g>
<!-- Node17&#45;&gt;Node25 -->
<g id="edge34" class="edge"><title>Node17&#45;&gt;Node25</title>
<path fill="none" stroke="midnightblue" d="M73.0029,-198.045C99.3292,-146.199 181.566,-4.81247 295.5,-4.81247 295.5,-4.81247 295.5,-4.81247 570.5,-4.81247 655.782,-4.81247 686.92,14.4374 761,-27.8125 793.448,-46.3182 815.481,-87.3128 824.25,-106.084"/>
<polygon fill="midnightblue" stroke="midnightblue" points="69.7942,-196.638 68.4903,-207.152 76.0664,-199.746 69.7942,-196.638"/>
</g>
<!-- Node18&#45;&gt;Node17 -->
<g id="edge20" class="edge"><title>Node18&#45;&gt;Node17</title>
<path fill="none" stroke="midnightblue" d="M151.73,-237.085C131.468,-234.715 106.954,-230.556 88.9952,-226.338"/>
<polygon fill="midnightblue" stroke="midnightblue" points="151.571,-240.587 161.882,-238.152 152.302,-233.625 151.571,-240.587"/>
</g>
<!-- Node19 -->
<g id="node3" class="node"><title>Node19</title>
<g id="a_node3"><a xlink:href="structLCD.html#aa5e25fef7649532af402df06f05b6d4c" target="_top" xlink:title="LCD::changeID">
<polygon fill="white" stroke="black" points="254,-353.312 254,-372.312 339,-372.312 339,-353.312 254,-353.312"/>
<text text-anchor="middle" x="296.5" y="-360.312" font-family="Helvetica,sans-Serif" font-size="10.00">LCD::changeID</text>
</a>
</g>
</g>
<!-- Node18&#45;&gt;Node19 -->
<g id="edge2" class="edge"><title>Node18&#45;&gt;Node19</title>
<path fill="none" stroke="midnightblue" d="M199.262,-255.913C209.547,-277.987 228.868,-314.398 254,-338.812 259.85,-344.496 267.303,-349.345 274.274,-353.166"/>
<polygon fill="midnightblue" stroke="midnightblue" points="202.368,-254.288 195.068,-246.609 195.986,-257.164 202.368,-254.288"/>
</g>
<!-- Node20 -->
<g id="node4" class="node"><title>Node20</title>
<g id="a_node4"><a xlink:href="structLCD.html#ad3120f397273bac2ad60e0291554b9e6" target="_top" xlink:title="LCD::clear">
<polygon fill="white" stroke="black" points="681.5,-372.312 681.5,-391.312 745.5,-391.312 745.5,-372.312 681.5,-372.312"/>
<text text-anchor="middle" x="713.5" y="-379.312" font-family="Helvetica,sans-Serif" font-size="10.00">LCD::clear</text>
</a>
</g>
</g>
<!-- Node18&#45;&gt;Node20 -->
<g id="edge3" class="edge"><title>Node18&#45;&gt;Node20</title>
<path fill="none" stroke="midnightblue" d="M192.189,-256.476C195.487,-291.954 207.847,-365.3 254,-401.812 383.796,-504.496 604.409,-421.667 683.341,-391.39"/>
<polygon fill="midnightblue" stroke="midnightblue" points="195.669,-256.082 191.406,-246.383 188.69,-256.624 195.669,-256.082"/>
</g>
<!-- Node23 -->
<g id="node7" class="node"><title>Node23</title>
<g id="a_node7"><a xlink:href="structLCD.html#ab1b68d883d80dc7b8810e602b7032767" target="_top" xlink:title="LCD::print">
<polygon fill="white" stroke="black" points="682.5,-315.312 682.5,-334.312 744.5,-334.312 744.5,-315.312 682.5,-315.312"/>
<text text-anchor="middle" x="713.5" y="-322.312" font-family="Helvetica,sans-Serif" font-size="10.00">LCD::print</text>
</a>
</g>
</g>
<!-- Node18&#45;&gt;Node23 -->
<g id="edge7" class="edge"><title>Node18&#45;&gt;Node23</title>
<path fill="none" stroke="midnightblue" d="M209.535,-252.716C221.433,-261.982 237.669,-272.962 254,-278.812 407.639,-333.852 607.568,-330.383 682.45,-326.702"/>
<polygon fill="midnightblue" stroke="midnightblue" points="211.672,-249.943 201.698,-246.37 207.267,-255.383 211.672,-249.943"/>
</g>
<!-- Node24 -->
<g id="node8" class="node"><title>Node24</title>
<g id="a_node8"><a xlink:href="structLCD.html#a0fd055c88888db0e52fea11f1df24d4a" target="_top" xlink:title="LCD::drawBitmap">
<polygon fill="white" stroke="black" points="666,-193.312 666,-212.312 761,-212.312 761,-193.312 666,-193.312"/>
<text text-anchor="middle" x="713.5" y="-200.312" font-family="Helvetica,sans-Serif" font-size="10.00">LCD::drawBitmap</text>
</a>
</g>
</g>
<!-- Node18&#45;&gt;Node24 -->
<g id="edge8" class="edge"><title>Node18&#45;&gt;Node24</title>
<path fill="none" stroke="midnightblue" d="M198.595,-217.87C208.164,-196.631 226.727,-162.931 254,-145.812 300.107,-116.873 320.728,-131.048 375,-126.812 418.424,-123.424 429.957,-120.147 473,-126.812 555.554,-139.597 648.618,-175.782 690.272,-193.205"/>
<polygon fill="midnightblue" stroke="midnightblue" points="195.333,-216.596 194.621,-227.167 201.769,-219.348 195.333,-216.596"/>
</g>
<!-- Node26 -->
<g id="node10" class="node"><title>Node26</title>
<g id="a_node10"><a xlink:href="structLCD.html#ad31ee94d401b7c28d6cc2f472e2eb8fd" target="_top" xlink:title="LCD::changeMode">
<polygon fill="white" stroke="black" points="375,-136.312 375,-155.312 473,-155.312 473,-136.312 375,-136.312"/>
<text text-anchor="middle" x="424" y="-143.312" font-family="Helvetica,sans-Serif" font-size="10.00">LCD::changeMode</text>
</a>
</g>
</g>
<!-- Node18&#45;&gt;Node26 -->
<g id="edge10" class="edge"><title>Node18&#45;&gt;Node26</title>
<path fill="none" stroke="midnightblue" d="M199.551,-218.099C210.402,-200.794 230.553,-176.865 254,-164.812 291.56,-145.506 339.449,-139.003 374.653,-138.575"/>
<polygon fill="midnightblue" stroke="midnightblue" points="196.437,-216.494 194.517,-226.914 202.516,-219.965 196.437,-216.494"/>
</g>
<!-- Node27 -->
<g id="node11" class="node"><title>Node27</title>
<g id="a_node11"><a xlink:href="structLCD.html#ad1a67d455563026a5064ef9cab86ae4d" target="_top" xlink:title="LCD::setCursor">
<polygon fill="white" stroke="black" points="526.5,-253.312 526.5,-272.312 612.5,-272.312 612.5,-253.312 526.5,-253.312"/>
<text text-anchor="middle" x="569.5" y="-260.312" font-family="Helvetica,sans-Serif" font-size="10.00">LCD::setCursor</text>
</a>
</g>
</g>
<!-- Node18&#45;&gt;Node27 -->
<g id="edge12" class="edge"><title>Node18&#45;&gt;Node27</title>
<path fill="none" stroke="midnightblue" d="M220.085,-250.379C230.542,-254.584 242.579,-258.673 254,-260.812 350.066,-278.807 465.551,-272.615 526.331,-267.262"/>
<polygon fill="midnightblue" stroke="midnightblue" points="221.187,-247.045 210.614,-246.372 218.459,-253.492 221.187,-247.045"/>
</g>
<!-- Node28 -->
<g id="node12" class="node"><title>Node28</title>
<g id="a_node12"><a xlink:href="structLCD.html#a75cacb94de3b3ff71e9a4497b5cc4a81" target="_top" xlink:title="LCD::changeBrightness">
<polygon fill="white" stroke="black" points="509,-42.3125 509,-61.3125 630,-61.3125 630,-42.3125 509,-42.3125"/>
<text text-anchor="middle" x="569.5" y="-49.3125" font-family="Helvetica,sans-Serif" font-size="10.00">LCD::changeBrightness</text>
</a>
</g>
</g>
<!-- Node18&#45;&gt;Node28 -->
<g id="edge16" class="edge"><title>Node18&#45;&gt;Node28</title>
<path fill="none" stroke="midnightblue" d="M192.277,-217.108C195.825,-181.787 208.763,-109.579 254,-75.8125 343.091,-9.31232 488.022,-27.3692 544.707,-42.2753"/>
<polygon fill="midnightblue" stroke="midnightblue" points="188.78,-216.925 191.426,-227.184 195.755,-217.514 188.78,-216.925"/>
</g>
<!-- Node31 -->
<g id="node15" class="node"><title>Node31</title>
<g id="a_node15"><a xlink:href="structLCD.html#ae7a8d9bc1581cfeeb0f098c8bb6d1229" target="_top" xlink:title="LCD::s2Cmd">
<polygon fill="white" stroke="black" points="387,-230.312 387,-249.312 461,-249.312 461,-230.312 387,-230.312"/>
<text text-anchor="middle" x="424" y="-237.312" font-family="Helvetica,sans-Serif" font-size="10.00">LCD::s2Cmd</text>
</a>
</g>
</g>
<!-- Node18&#45;&gt;Node31 -->
<g id="edge21" class="edge"><title>Node18&#45;&gt;Node31</title>
<path fill="none" stroke="midnightblue" d="M228.267,-232.18C271.956,-230.543 343.863,-231.494 386.999,-234.297"/>
<polygon fill="midnightblue" stroke="midnightblue" points="227.9,-228.693 218.067,-232.638 228.214,-235.686 227.9,-228.693"/>
</g>
<!-- Node32 -->
<g id="node16" class="node"><title>Node32</title>
<g id="a_node16"><a xlink:href="structLCD.html#a739998fad0591a092255676c8c8d532f" target="_top" xlink:title="LCD::s1Cmd">
<polygon fill="white" stroke="black" points="259.5,-183.312 259.5,-202.312 333.5,-202.312 333.5,-183.312 259.5,-183.312"/>
<text text-anchor="middle" x="296.5" y="-190.312" font-family="Helvetica,sans-Serif" font-size="10.00">LCD::s1Cmd</text>
</a>
</g>
</g>
<!-- Node18&#45;&gt;Node32 -->
<g id="edge25" class="edge"><title>Node18&#45;&gt;Node32</title>
<path fill="none" stroke="midnightblue" d="M223.232,-223.241C239.308,-216.472 258.363,-208.449 272.869,-202.341"/>
<polygon fill="midnightblue" stroke="midnightblue" points="221.533,-220.159 213.675,-227.265 224.25,-226.61 221.533,-220.159"/>
</g>
<!-- Node33 -->
<g id="node17" class="node"><title>Node33</title>
<g id="a_node17"><a xlink:href="structLCD.html#ae5873763db265cd00da32664cce88873" target="_top" xlink:title="LCD::s1Dat">
<polygon fill="white" stroke="black" points="535,-372.312 535,-391.312 604,-391.312 604,-372.312 535,-372.312"/>
<text text-anchor="middle" x="569.5" y="-379.312" font-family="Helvetica,sans-Serif" font-size="10.00">LCD::s1Dat</text>
</a>
</g>
</g>
<!-- Node18&#45;&gt;Node33 -->
<g id="edge30" class="edge"><title>Node18&#45;&gt;Node33</title>
<path fill="none" stroke="midnightblue" d="M192.912,-256.624C197.254,-289.299 211.091,-353.671 254,-381.812 343.717,-440.651 481,-409.163 539.969,-391.348"/>
<polygon fill="midnightblue" stroke="midnightblue" points="196.367,-256.03 191.74,-246.499 189.413,-256.835 196.367,-256.03"/>
</g>
<!-- Node20&#45;&gt;Node18 -->
<g id="edge5" class="edge"><title>Node20&#45;&gt;Node18</title>
<path fill="none" stroke="midnightblue" d="M689.787,-396.482C617.157,-434.756 387.524,-525.445 254,-419.812 198.317,-375.76 191.823,-278.093 191.088,-246.42"/>
<polygon fill="midnightblue" stroke="midnightblue" points="691.877,-399.328 698.967,-391.455 688.515,-393.188 691.877,-399.328"/>
</g>
<!-- Node21 -->
<g id="node5" class="node"><title>Node21</title>
<g id="a_node5"><a xlink:href="structLCD.html#a7912ad9a12d649cdec2dd53ae893a8ce" target="_top" xlink:title="LCD::reset">
<polygon fill="white" stroke="black" points="797,-353.312 797,-372.312 862,-372.312 862,-353.312 797,-353.312"/>
<text text-anchor="middle" x="829.5" y="-360.312" font-family="Helvetica,sans-Serif" font-size="10.00">LCD::reset</text>
</a>
</g>
</g>
<!-- Node20&#45;&gt;Node21 -->
<g id="edge4" class="edge"><title>Node20&#45;&gt;Node21</title>
<path fill="none" stroke="midnightblue" d="M755.74,-374.939C769.339,-372.673 784.237,-370.19 796.991,-368.064"/>
<polygon fill="midnightblue" stroke="midnightblue" points="754.94,-371.524 745.651,-376.621 756.09,-378.429 754.94,-371.524"/>
</g>
<!-- Node22 -->
<g id="node6" class="node"><title>Node22</title>
<g id="a_node6"><a xlink:href="lcd__debug_8cpp.html#ae66f6b31b5ad750f1fe042a706a4e3d4" target="_top" xlink:title="main">
<polygon fill="white" stroke="black" points="810.5,-391.312 810.5,-410.312 848.5,-410.312 848.5,-391.312 810.5,-391.312"/>
<text text-anchor="middle" x="829.5" y="-398.312" font-family="Helvetica,sans-Serif" font-size="10.00">main</text>
</a>
</g>
</g>
<!-- Node20&#45;&gt;Node22 -->
<g id="edge6" class="edge"><title>Node20&#45;&gt;Node22</title>
<path fill="none" stroke="midnightblue" d="M755.72,-388.683C774.401,-391.796 795.537,-395.319 810.2,-397.762"/>
<polygon fill="midnightblue" stroke="midnightblue" points="756.09,-385.196 745.651,-387.004 754.94,-392.101 756.09,-385.196"/>
</g>
<!-- Node24&#45;&gt;Node25 -->
<g id="edge9" class="edge"><title>Node24&#45;&gt;Node25</title>
<path fill="none" stroke="midnightblue" d="M735.088,-187.101C758.577,-169.175 796.256,-140.419 815.808,-125.499"/>
<polygon fill="midnightblue" stroke="midnightblue" points="732.962,-184.32 727.136,-193.17 737.208,-189.885 732.962,-184.32"/>
</g>
<!-- Node26&#45;&gt;Node18 -->
<g id="edge11" class="edge"><title>Node26&#45;&gt;Node18</title>
<path fill="none" stroke="midnightblue" d="M364.436,-154.575C330.561,-158.335 288.039,-165.316 254,-182.812 232.814,-193.702 214.319,-214.289 202.944,-227.005"/>
<polygon fill="midnightblue" stroke="midnightblue" points="365.072,-158.027 374.653,-153.503 364.342,-151.066 365.072,-158.027"/>
</g>
<!-- Node27&#45;&gt;Node20 -->
<g id="edge13" class="edge"><title>Node27&#45;&gt;Node20</title>
<path fill="none" stroke="midnightblue" d="M589.338,-278.965C608.538,-295.388 639.221,-321.517 666,-343.812 677.698,-353.552 691.177,-364.542 700.601,-372.188"/>
<polygon fill="midnightblue" stroke="midnightblue" points="591.491,-276.201 581.618,-272.356 586.938,-281.518 591.491,-276.201"/>
</g>
<!-- Node27&#45;&gt;Node23 -->
<g id="edge14" class="edge"><title>Node27&#45;&gt;Node23</title>
<path fill="none" stroke="midnightblue" d="M601.707,-276.438C628.537,-288.153 666.565,-304.756 690.365,-315.148"/>
<polygon fill="midnightblue" stroke="midnightblue" points="602.941,-273.158 592.376,-272.364 600.14,-279.573 602.941,-273.158"/>
</g>
<!-- Node27&#45;&gt;Node24 -->
<g id="edge15" class="edge"><title>Node27&#45;&gt;Node24</title>
<path fill="none" stroke="midnightblue" d="M602.245,-249.399C628.77,-238.192 665.953,-222.48 689.635,-212.474"/>
<polygon fill="midnightblue" stroke="midnightblue" points="600.85,-246.189 593,-253.305 603.574,-252.637 600.85,-246.189"/>
</g>
<!-- Node28&#45;&gt;Node18 -->
<g id="edge19" class="edge"><title>Node28&#45;&gt;Node18</title>
<path fill="none" stroke="midnightblue" d="M498.424,-46.8694C429.379,-41.5138 324.304,-41.3358 254,-93.8125 208.674,-127.645 195.775,-200.07 192.256,-226.987"/>
<polygon fill="midnightblue" stroke="midnightblue" points="498.507,-50.3883 508.763,-47.7287 499.087,-43.4124 498.507,-50.3883"/>
</g>
<!-- Node29 -->
<g id="node13" class="node"><title>Node29</title>
<g id="a_node13"><a xlink:href="structLCD.html#aa4c1e7d41ca93af28769aaba704d5c1f" target="_top" xlink:title="LCD::lightOn">
<polygon fill="white" stroke="black" points="676.5,-75.3125 676.5,-94.3125 750.5,-94.3125 750.5,-75.3125 676.5,-75.3125"/>
<text text-anchor="middle" x="713.5" y="-82.3125" font-family="Helvetica,sans-Serif" font-size="10.00">LCD::lightOn</text>
</a>
</g>
</g>
<!-- Node28&#45;&gt;Node29 -->
<g id="edge17" class="edge"><title>Node28&#45;&gt;Node29</title>
<path fill="none" stroke="midnightblue" d="M621.435,-63.6495C639.603,-67.8715 659.68,-72.5373 676.349,-76.4111"/>
<polygon fill="midnightblue" stroke="midnightblue" points="622.105,-60.212 611.572,-61.3574 620.52,-67.0303 622.105,-60.212"/>
</g>
<!-- Node30 -->
<g id="node14" class="node"><title>Node30</title>
<g id="a_node14"><a xlink:href="structLCD.html#a3f437907a543226be7c527a2d304ad95" target="_top" xlink:title="LCD::lightOff">
<polygon fill="white" stroke="black" points="676.5,-37.3125 676.5,-56.3125 750.5,-56.3125 750.5,-37.3125 676.5,-37.3125"/>
<text text-anchor="middle" x="713.5" y="-44.3125" font-family="Helvetica,sans-Serif" font-size="10.00">LCD::lightOff</text>
</a>
</g>
</g>
<!-- Node28&#45;&gt;Node30 -->
<g id="edge18" class="edge"><title>Node28&#45;&gt;Node30</title>
<path fill="none" stroke="midnightblue" d="M640.63,-49.3431C652.964,-48.9088 665.334,-48.4732 676.25,-48.0889"/>
<polygon fill="midnightblue" stroke="midnightblue" points="640.18,-45.8567 630.309,-49.7065 640.426,-52.8524 640.18,-45.8567"/>
</g>
<!-- Node31&#45;&gt;Node18 -->
<g id="edge22" class="edge"><title>Node31&#45;&gt;Node18</title>
<path fill="none" stroke="midnightblue" d="M376.974,-244.729C329.494,-246.047 257.043,-244.781 218.067,-241.687"/>
<polygon fill="midnightblue" stroke="midnightblue" points="377.12,-248.226 386.999,-244.397 376.888,-241.23 377.12,-248.226"/>
</g>
<!-- Node31&#45;&gt;Node27 -->
<g id="edge23" class="edge"><title>Node31&#45;&gt;Node27</title>
<path fill="none" stroke="midnightblue" d="M471.331,-247.238C489.051,-250.078 509.146,-253.299 526.445,-256.072"/>
<polygon fill="midnightblue" stroke="midnightblue" points="471.639,-243.743 461.211,-245.616 470.531,-250.655 471.639,-243.743"/>
</g>
<!-- Node31&#45;&gt;Node28 -->
<g id="edge24" class="edge"><title>Node31&#45;&gt;Node28</title>
<path fill="none" stroke="midnightblue" d="M438.643,-221.939C468.353,-183.016 538.078,-91.6691 561.029,-61.6"/>
<polygon fill="midnightblue" stroke="midnightblue" points="435.599,-220.158 432.313,-230.231 441.163,-224.406 435.599,-220.158"/>
</g>
<!-- Node32&#45;&gt;Node17 -->
<g id="edge28" class="edge"><title>Node32&#45;&gt;Node17</title>
<path fill="none" stroke="midnightblue" d="M249.247,-197.608C213.892,-201.273 164.802,-206.362 126.038,-210.381"/>
<polygon fill="midnightblue" stroke="midnightblue" points="249.707,-201.079 259.292,-196.566 248.985,-194.116 249.707,-201.079"/>
</g>
<!-- Node32&#45;&gt;Node26 -->
<g id="edge26" class="edge"><title>Node32&#45;&gt;Node26</title>
<path fill="none" stroke="midnightblue" d="M332.523,-179.696C353.047,-172.01 378.525,-162.468 397.21,-155.471"/>
<polygon fill="midnightblue" stroke="midnightblue" points="331.034,-176.516 322.897,-183.301 333.489,-183.072 331.034,-176.516"/>
</g>
<!-- Node32&#45;&gt;Node27 -->
<g id="edge27" class="edge"><title>Node32&#45;&gt;Node27</title>
<path fill="none" stroke="midnightblue" d="M343.877,-196.938C379.678,-200.903 430.167,-208.204 473,-220.812 500.974,-229.047 531.535,-243.536 550.364,-253.156"/>
<polygon fill="midnightblue" stroke="midnightblue" points="344.039,-193.436 333.725,-195.859 343.3,-200.396 344.039,-193.436"/>
</g>
<!-- Node32&#45;&gt;Node31 -->
<g id="edge29" class="edge"><title>Node32&#45;&gt;Node31</title>
<path fill="none" stroke="midnightblue" d="M332.523,-205.929C353.047,-213.615 378.525,-223.157 397.21,-230.154"/>
<polygon fill="midnightblue" stroke="midnightblue" points="333.489,-202.553 322.897,-202.324 331.034,-209.109 333.489,-202.553"/>
</g>
<!-- Node33&#45;&gt;Node20 -->
<g id="edge31" class="edge"><title>Node33&#45;&gt;Node20</title>
<path fill="none" stroke="midnightblue" d="M614.38,-381.812C635.945,-381.812 661.439,-381.812 681.035,-381.812"/>
<polygon fill="midnightblue" stroke="midnightblue" points="614.152,-378.313 604.152,-381.812 614.152,-385.313 614.152,-378.313"/>
</g>
<!-- Node33&#45;&gt;Node23 -->
<g id="edge32" class="edge"><title>Node33&#45;&gt;Node23</title>
<path fill="none" stroke="midnightblue" d="M603.735,-368.472C629.779,-358.017 665.384,-343.725 688.655,-334.384"/>
<polygon fill="midnightblue" stroke="midnightblue" points="602.244,-365.299 594.268,-372.272 604.852,-371.795 602.244,-365.299"/>
</g>
<!-- Node33&#45;&gt;Node24 -->
<g id="edge33" class="edge"><title>Node33&#45;&gt;Node24</title>
<path fill="none" stroke="midnightblue" d="M584.452,-364.225C613.979,-327.005 681.952,-241.32 704.828,-212.484"/>
<polygon fill="midnightblue" stroke="midnightblue" points="581.607,-362.179 578.135,-372.189 587.091,-366.53 581.607,-362.179"/>
</g>
</g>
</svg>
