<?xml version="1.0" encoding="UTF-8" standalone="no"?>
<!DOCTYPE svg PUBLIC "-//W3C//DTD SVG 1.1//EN"
 "http://www.w3.org/Graphics/SVG/1.1/DTD/svg11.dtd">
<!-- Generated by graphviz version 2.38.0 (20140413.2041)
 -->
<!-- Title: LCD::init Pages: 1 -->
<!--zoomable 498 -->
<svg id="main" version="1.1" xmlns="http://www.w3.org/2000/svg" xmlns:xlink="http://www.w3.org/1999/xlink" xml:space="preserve" onload="init(evt)">
<style type="text/css"><![CDATA[
.edge:hover path { stroke: red; }
.edge:hover polygon { stroke: red; fill: red; }
]]></style>
<script type="text/javascript"><![CDATA[
var edges = document.getElementsByTagName('g');
if (edges && edges.length) {
  for (var i=0;i<edges.length;i++) {
    if (edges[i].id.substr(0,4)=='edge') {
      edges[i].setAttribute('class','edge');
    }
  }
}
]]></script>
        <defs>
                <circle id="rim" cx="0" cy="0" r="7"/>
                <circle id="rim2" cx="0" cy="0" r="3.5"/>
                <g id="zoomPlus">
                        <use xlink:href="#rim" fill="#404040">
                                <set attributeName="fill" to="#808080" begin="zoomplus.mouseover" end="zoomplus.mouseout"/>
                        </use>
                        <path d="M-4,0h8M0,-4v8" fill="none" stroke="white" stroke-width="1.5" pointer-events="none"/>
                </g>
                <g id="zoomMin">
                        <use xlink:href="#rim" fill="#404040">
                                <set attributeName="fill" to="#808080" begin="zoomminus.mouseover" end="zoomminus.mouseout"/>
                        </use>
                        <path d="M-4,0h8" fill="none" stroke="white" stroke-width="1.5" pointer-events="none"/>
                </g>
                <g id="dirArrow">
                        <path fill="none" stroke="white" stroke-width="1.5" d="M0,-3.0v7 M-2.5,-0.5L0,-3.0L2.5,-0.5"/>
                </g>
               <g id="resetDef">
                       <use xlink:href="#rim2" fill="#404040">
                               <set attributeName="fill" to="#808080" begin="reset.mouseover" end="reset.mouseout"/>
                       </use>
               </g>
        </defs>

<script type="text/javascript">
var viewWidth = 736;
var viewHeight = 498;
var sectionId = 'dynsection-12';
</script>
<script xlink:href="svgpan.js"/>
<svg id="graph" class="graph">
<g id="viewport">
<title>LCD::init</title>
<polygon fill="white" stroke="none" points="-4,4 -4,-494.433 732,-494.433 732,4 -4,4"/>
<!-- Node180 -->
<g id="node1" class="node"><title>Node180</title>
<polygon fill="#bfbfbf" stroke="black" points="0,-260.219 0,-279.219 56,-279.219 56,-260.219 0,-260.219"/>
<text text-anchor="middle" x="28" y="-267.219" font-family="Helvetica,sans-Serif" font-size="10.00">LCD::init</text>
</g>
<!-- Node181 -->
<g id="node2" class="node"><title>Node181</title>
<g id="a_node2"><a xlink:href="structLCD.html#aa01b7522d1e210f9cd071e3a5d4ae9e6" target="_top" xlink:title="LCD::changeBackground">
<polygon fill="white" stroke="black" points="213,-467.219 213,-486.219 339,-486.219 339,-467.219 213,-467.219"/>
<text text-anchor="middle" x="276" y="-474.219" font-family="Helvetica,sans-Serif" font-size="10.00">LCD::changeBackground</text>
</a>
</g>
</g>
<!-- Node180&#45;&gt;Node181 -->
<g id="edge1" class="edge"><title>Node180&#45;&gt;Node181</title>
<path fill="none" stroke="midnightblue" d="M30.1145,-289.882C33.3112,-326.164 45.5384,-401.208 92,-439.719 125.282,-467.306 174.107,-473.634 212.955,-474.732"/>
<polygon fill="midnightblue" stroke="midnightblue" points="33.5799,-289.278 29.3619,-279.559 26.5984,-289.787 33.5799,-289.278"/>
</g>
<!-- Node183 -->
<g id="node4" class="node"><title>Node183</title>
<g id="a_node4"><a xlink:href="structLCD.html#a75cacb94de3b3ff71e9a4497b5cc4a81" target="_top" xlink:title="LCD::changeBrightness">
<polygon fill="white" stroke="black" points="375,-416.219 375,-435.219 496,-435.219 496,-416.219 375,-416.219"/>
<text text-anchor="middle" x="435.5" y="-423.219" font-family="Helvetica,sans-Serif" font-size="10.00">LCD::changeBrightness</text>
</a>
</g>
</g>
<!-- Node180&#45;&gt;Node183 -->
<g id="edge4" class="edge"><title>Node180&#45;&gt;Node183</title>
<path fill="none" stroke="midnightblue" d="M33.9242,-289.573C41.0714,-317.073 57.4452,-365.206 92,-388.719 176.591,-446.28 301.555,-439.285 374.835,-431.101"/>
<polygon fill="midnightblue" stroke="midnightblue" points="37.2381,-288.388 31.4721,-279.5 30.4367,-290.044 37.2381,-288.388"/>
</g>
<!-- Node186 -->
<g id="node7" class="node"><title>Node186</title>
<g id="a_node7"><a xlink:href="structLCD.html#aa5e25fef7649532af402df06f05b6d4c" target="_top" xlink:title="LCD::changeID">
<polygon fill="white" stroke="black" points="92,-369.219 92,-388.219 177,-388.219 177,-369.219 92,-369.219"/>
<text text-anchor="middle" x="134.5" y="-376.219" font-family="Helvetica,sans-Serif" font-size="10.00">LCD::changeID</text>
</a>
</g>
</g>
<!-- Node180&#45;&gt;Node186 -->
<g id="edge8" class="edge"><title>Node180&#45;&gt;Node186</title>
<path fill="none" stroke="midnightblue" d="M39.4844,-288.032C50.7196,-306.505 69.9437,-335.035 92,-354.719 98.2096,-360.261 105.9,-365.136 112.968,-369.018"/>
<polygon fill="midnightblue" stroke="midnightblue" points="42.4725,-286.208 34.3647,-279.388 36.4498,-289.776 42.4725,-286.208"/>
</g>
<!-- Node187 -->
<g id="node8" class="node"><title>Node187</title>
<g id="a_node8"><a xlink:href="structLCD.html#ad31ee94d401b7c28d6cc2f472e2eb8fd" target="_top" xlink:title="LCD::changeMode">
<polygon fill="white" stroke="black" points="227,-284.219 227,-303.219 325,-303.219 325,-284.219 227,-284.219"/>
<text text-anchor="middle" x="276" y="-291.219" font-family="Helvetica,sans-Serif" font-size="10.00">LCD::changeMode</text>
</a>
</g>
</g>
<!-- Node180&#45;&gt;Node187 -->
<g id="edge9" class="edge"><title>Node180&#45;&gt;Node187</title>
<path fill="none" stroke="midnightblue" d="M66.336,-268.354C110.693,-270.459 184.575,-277.571 231.483,-284.178"/>
<polygon fill="midnightblue" stroke="midnightblue" points="66.3994,-264.854 56.2662,-267.947 66.1167,-271.848 66.3994,-264.854"/>
</g>
<!-- Node188 -->
<g id="node9" class="node"><title>Node188</title>
<g id="a_node9"><a xlink:href="structLCD.html#ad3120f397273bac2ad60e0291554b9e6" target="_top" xlink:title="LCD::clear">
<polygon fill="white" stroke="black" points="547.5,-44.2194 547.5,-63.2194 611.5,-63.2194 611.5,-44.2194 547.5,-44.2194"/>
<text text-anchor="middle" x="579.5" y="-51.2194" font-family="Helvetica,sans-Serif" font-size="10.00">LCD::clear</text>
</a>
</g>
</g>
<!-- Node180&#45;&gt;Node188 -->
<g id="edge11" class="edge"><title>Node180&#45;&gt;Node188</title>
<path fill="none" stroke="midnightblue" d="M29.0602,-249.917C30.0962,-208.835 38.1746,-115.797 92,-69.7194 232.38,50.454 487.537,-16.3001 559.278,-44.0316"/>
<polygon fill="midnightblue" stroke="midnightblue" points="25.5588,-249.997 28.9225,-260.044 32.5582,-250.092 25.5588,-249.997"/>
</g>
<!-- Node191 -->
<g id="node12" class="node"><title>Node191</title>
<g id="a_node12"><a xlink:href="structLCD.html#a0fd055c88888db0e52fea11f1df24d4a" target="_top" xlink:title="LCD::drawBitmap">
<polygon fill="white" stroke="black" points="532,-241.219 532,-260.219 627,-260.219 627,-241.219 532,-241.219"/>
<text text-anchor="middle" x="579.5" y="-248.219" font-family="Helvetica,sans-Serif" font-size="10.00">LCD::drawBitmap</text>
</a>
</g>
</g>
<!-- Node180&#45;&gt;Node191 -->
<g id="edge15" class="edge"><title>Node180&#45;&gt;Node191</title>
<path fill="none" stroke="midnightblue" d="M51.8806,-284.547C63.4413,-291.285 77.9652,-298.646 92,-302.719 143.822,-317.761 159.085,-310.495 213,-312.719 268.952,-315.028 283.449,-319.793 339,-312.719 417.396,-302.737 506.824,-275.075 550.926,-260.305"/>
<polygon fill="midnightblue" stroke="midnightblue" points="53.6763,-281.543 43.3104,-279.352 50.0475,-287.529 53.6763,-281.543"/>
</g>
<!-- Node192 -->
<g id="node13" class="node"><title>Node192</title>
<g id="a_node13"><a xlink:href="structLCD.html#ab1b68d883d80dc7b8810e602b7032767" target="_top" xlink:title="LCD::print">
<polygon fill="white" stroke="black" points="548.5,-105.219 548.5,-124.219 610.5,-124.219 610.5,-105.219 548.5,-105.219"/>
<text text-anchor="middle" x="579.5" y="-112.219" font-family="Helvetica,sans-Serif" font-size="10.00">LCD::print</text>
</a>
</g>
</g>
<!-- Node180&#45;&gt;Node192 -->
<g id="edge17" class="edge"><title>Node180&#45;&gt;Node192</title>
<path fill="none" stroke="midnightblue" d="M31.6618,-249.951C37.025,-218.368 52.2243,-156.917 92,-125.719 231.765,-16.0975 470.107,-79.1184 550.832,-105.145"/>
<polygon fill="midnightblue" stroke="midnightblue" points="28.1581,-249.71 30.1037,-260.125 35.0774,-250.77 28.1581,-249.71"/>
</g>
<!-- Node193 -->
<g id="node14" class="node"><title>Node193</title>
<g id="a_node14"><a xlink:href="structLCD.html#a739998fad0591a092255676c8c8d532f" target="_top" xlink:title="LCD::s1Cmd">
<polygon fill="white" stroke="black" points="97.5,-237.219 97.5,-256.219 171.5,-256.219 171.5,-237.219 97.5,-237.219"/>
<text text-anchor="middle" x="134.5" y="-244.219" font-family="Helvetica,sans-Serif" font-size="10.00">LCD::s1Cmd</text>
</a>
</g>
</g>
<!-- Node180&#45;&gt;Node193 -->
<g id="edge18" class="edge"><title>Node180&#45;&gt;Node193</title>
<path fill="none" stroke="midnightblue" d="M66.0289,-261.569C76.2214,-259.326 87.2606,-256.896 97.3998,-254.665"/>
<polygon fill="midnightblue" stroke="midnightblue" points="65.1972,-258.169 56.1833,-263.736 66.702,-265.005 65.1972,-258.169"/>
</g>
<!-- Node194 -->
<g id="node15" class="node"><title>Node194</title>
<g id="a_node15"><a xlink:href="structLCD.html#ad1a67d455563026a5064ef9cab86ae4d" target="_top" xlink:title="LCD::setCursor">
<polygon fill="white" stroke="black" points="392.5,-167.219 392.5,-186.219 478.5,-186.219 478.5,-167.219 392.5,-167.219"/>
<text text-anchor="middle" x="435.5" y="-174.219" font-family="Helvetica,sans-Serif" font-size="10.00">LCD::setCursor</text>
</a>
</g>
</g>
<!-- Node180&#45;&gt;Node194 -->
<g id="edge34" class="edge"><title>Node180&#45;&gt;Node194</title>
<path fill="none" stroke="midnightblue" d="M40.7874,-251.823C52.0325,-236.271 70.4244,-214.45 92,-202.719 188.921,-150.022 324.625,-159.911 392.444,-169.449"/>
<polygon fill="midnightblue" stroke="midnightblue" points="37.8477,-249.92 35.0222,-260.131 43.5987,-253.911 37.8477,-249.92"/>
</g>
<!-- Node195 -->
<g id="node16" class="node"><title>Node195</title>
<g id="a_node16"><a xlink:href="structLCD.html#ae7a8d9bc1581cfeeb0f098c8bb6d1229" target="_top" xlink:title="LCD::s2Cmd">
<polygon fill="white" stroke="black" points="239,-190.219 239,-209.219 313,-209.219 313,-190.219 239,-190.219"/>
<text text-anchor="middle" x="276" y="-197.219" font-family="Helvetica,sans-Serif" font-size="10.00">LCD::s2Cmd</text>
</a>
</g>
</g>
<!-- Node180&#45;&gt;Node195 -->
<g id="edge33" class="edge"><title>Node180&#45;&gt;Node195</title>
<path fill="none" stroke="midnightblue" d="M40.8551,-252.642C52.895,-240.673 72.4956,-226.282 92,-218.719 140.546,-199.895 200.933,-193.683 238.735,-193.939"/>
<polygon fill="midnightblue" stroke="midnightblue" points="38.2477,-250.307 34.112,-260.061 43.4279,-255.015 38.2477,-250.307"/>
</g>
<!-- Node196 -->
<g id="node17" class="node"><title>Node196</title>
<g id="a_node17"><a xlink:href="structLCD.html#ae5873763db265cd00da32664cce88873" target="_top" xlink:title="LCD::s1Dat">
<polygon fill="white" stroke="black" points="401,-105.219 401,-124.219 470,-124.219 470,-105.219 401,-105.219"/>
<text text-anchor="middle" x="435.5" y="-112.219" font-family="Helvetica,sans-Serif" font-size="10.00">LCD::s1Dat</text>
</a>
</g>
</g>
<!-- Node180&#45;&gt;Node196 -->
<g id="edge29" class="edge"><title>Node180&#45;&gt;Node196</title>
<path fill="none" stroke="midnightblue" d="M35.3693,-250.449C44.1723,-227.054 62.4108,-188.306 92,-168.719 189.253,-104.342 335.481,-106.48 400.846,-111.326"/>
<polygon fill="midnightblue" stroke="midnightblue" points="32.0282,-249.399 31.9818,-259.994 38.6251,-251.74 32.0282,-249.399"/>
</g>
<!-- Node181&#45;&gt;Node180 -->
<g id="edge2" class="edge"><title>Node181&#45;&gt;Node180</title>
<path fill="none" stroke="midnightblue" d="M238.984,-487.845C198.583,-493.451 133.316,-491.965 92,-457.719 35.9445,-411.256 29.7213,-311.614 29.0674,-279.446"/>
<polygon fill="midnightblue" stroke="midnightblue" points="239.623,-491.287 248.937,-486.236 238.506,-484.377 239.623,-491.287"/>
</g>
<!-- Node182 -->
<g id="node3" class="node"><title>Node182</title>
<g id="a_node3"><a xlink:href="dancing__dragon_8cpp.html#a840291bc02cba5474a4cb46a9b9566fe" target="_top" xlink:title="main">
<polygon fill="white" stroke="black" points="676.5,-389.219 676.5,-408.219 714.5,-408.219 714.5,-389.219 676.5,-389.219"/>
<text text-anchor="middle" x="695.5" y="-396.219" font-family="Helvetica,sans-Serif" font-size="10.00">main</text>
</a>
</g>
</g>
<!-- Node181&#45;&gt;Node182 -->
<g id="edge3" class="edge"><title>Node181&#45;&gt;Node182</title>
<path fill="none" stroke="midnightblue" d="M349.635,-481.878C422.185,-484.487 535.738,-481.581 627,-447.719 650.352,-439.055 672.795,-419.914 685.009,-408.286"/>
<polygon fill="midnightblue" stroke="midnightblue" points="349.37,-478.364 339.236,-481.456 349.086,-485.358 349.37,-478.364"/>
</g>
<!-- Node183&#45;&gt;Node180 -->
<g id="edge5" class="edge"><title>Node183&#45;&gt;Node180</title>
<path fill="none" stroke="midnightblue" d="M401.876,-437.862C336.658,-454.144 188.213,-472.189 92,-406.719 47.7698,-376.622 33.3275,-306.189 29.8941,-279.507"/>
<polygon fill="midnightblue" stroke="midnightblue" points="402.841,-441.227 411.607,-435.277 401.044,-434.462 402.841,-441.227"/>
</g>
<!-- Node184 -->
<g id="node5" class="node"><title>Node184</title>
<g id="a_node5"><a xlink:href="structLCD.html#a3f437907a543226be7c527a2d304ad95" target="_top" xlink:title="LCD::lightOff">
<polygon fill="white" stroke="black" points="542.5,-419.219 542.5,-438.219 616.5,-438.219 616.5,-419.219 542.5,-419.219"/>
<text text-anchor="middle" x="579.5" y="-426.219" font-family="Helvetica,sans-Serif" font-size="10.00">LCD::lightOff</text>
</a>
</g>
</g>
<!-- Node183&#45;&gt;Node184 -->
<g id="edge6" class="edge"><title>Node183&#45;&gt;Node184</title>
<path fill="none" stroke="midnightblue" d="M506.63,-427.201C518.964,-427.462 531.334,-427.723 542.25,-427.954"/>
<polygon fill="midnightblue" stroke="midnightblue" points="506.381,-423.695 496.309,-426.983 506.233,-430.693 506.381,-423.695"/>
</g>
<!-- Node185 -->
<g id="node6" class="node"><title>Node185</title>
<g id="a_node6"><a xlink:href="structLCD.html#aa4c1e7d41ca93af28769aaba704d5c1f" target="_top" xlink:title="LCD::lightOn">
<polygon fill="white" stroke="black" points="542.5,-381.219 542.5,-400.219 616.5,-400.219 616.5,-381.219 542.5,-381.219"/>
<text text-anchor="middle" x="579.5" y="-388.219" font-family="Helvetica,sans-Serif" font-size="10.00">LCD::lightOn</text>
</a>
</g>
</g>
<!-- Node183&#45;&gt;Node185 -->
<g id="edge7" class="edge"><title>Node183&#45;&gt;Node185</title>
<path fill="none" stroke="midnightblue" d="M485.128,-413.734C503.829,-409.124 524.838,-403.946 542.185,-399.67"/>
<polygon fill="midnightblue" stroke="midnightblue" points="484.174,-410.364 475.302,-416.155 485.849,-417.161 484.174,-410.364"/>
</g>
<!-- Node187&#45;&gt;Node180 -->
<g id="edge10" class="edge"><title>Node187&#45;&gt;Node180</title>
<path fill="none" stroke="midnightblue" d="M216.746,-293.875C166.029,-290.503 94.7701,-283.082 56.2662,-276.812"/>
<polygon fill="midnightblue" stroke="midnightblue" points="216.719,-297.38 226.918,-294.512 217.157,-290.393 216.719,-297.38"/>
</g>
<!-- Node188&#45;&gt;Node180 -->
<g id="edge12" class="edge"><title>Node188&#45;&gt;Node180</title>
<path fill="none" stroke="midnightblue" d="M537.627,-45.7804C445.699,-24.4499 220.651,22.413 92,-87.7194 37.6233,-134.269 29.9355,-228.745 29.0305,-259.919"/>
<polygon fill="midnightblue" stroke="midnightblue" points="536.858,-49.1949 547.392,-48.062 538.451,-42.3785 536.858,-49.1949"/>
</g>
<!-- Node189 -->
<g id="node10" class="node"><title>Node189</title>
<g id="a_node10"><a xlink:href="lcd__debug_8cpp.html#ae66f6b31b5ad750f1fe042a706a4e3d4" target="_top" xlink:title="main">
<polygon fill="white" stroke="black" points="676.5,-63.2194 676.5,-82.2194 714.5,-82.2194 714.5,-63.2194 676.5,-63.2194"/>
<text text-anchor="middle" x="695.5" y="-70.2194" font-family="Helvetica,sans-Serif" font-size="10.00">main</text>
</a>
</g>
</g>
<!-- Node188&#45;&gt;Node189 -->
<g id="edge13" class="edge"><title>Node188&#45;&gt;Node189</title>
<path fill="none" stroke="midnightblue" d="M621.72,-60.5894C640.401,-63.7029 661.537,-67.2256 676.2,-69.6693"/>
<polygon fill="midnightblue" stroke="midnightblue" points="622.09,-57.1029 611.651,-58.9112 620.94,-64.0077 622.09,-57.1029"/>
</g>
<!-- Node190 -->
<g id="node11" class="node"><title>Node190</title>
<g id="a_node11"><a xlink:href="structLCD.html#a7912ad9a12d649cdec2dd53ae893a8ce" target="_top" xlink:title="LCD::reset">
<polygon fill="white" stroke="black" points="663,-25.2194 663,-44.2194 728,-44.2194 728,-25.2194 663,-25.2194"/>
<text text-anchor="middle" x="695.5" y="-32.2194" font-family="Helvetica,sans-Serif" font-size="10.00">LCD::reset</text>
</a>
</g>
</g>
<!-- Node188&#45;&gt;Node190 -->
<g id="edge14" class="edge"><title>Node188&#45;&gt;Node190</title>
<path fill="none" stroke="midnightblue" d="M621.74,-46.846C635.339,-44.5795 650.237,-42.0966 662.991,-39.9709"/>
<polygon fill="midnightblue" stroke="midnightblue" points="620.94,-43.4311 611.651,-48.5275 622.09,-50.3358 620.94,-43.4311"/>
</g>
<!-- Node191&#45;&gt;Node182 -->
<g id="edge16" class="edge"><title>Node191&#45;&gt;Node182</title>
<path fill="none" stroke="midnightblue" d="M594.095,-268.369C618.36,-299.872 668.347,-364.767 687.141,-389.165"/>
<polygon fill="midnightblue" stroke="midnightblue" points="596.855,-266.217 587.98,-260.43 591.309,-270.488 596.855,-266.217"/>
</g>
<!-- Node193&#45;&gt;Node181 -->
<g id="edge24" class="edge"><title>Node193&#45;&gt;Node181</title>
<path fill="none" stroke="midnightblue" d="M146.592,-265.007C174.689,-311.331 247.936,-432.098 269.159,-467.088"/>
<polygon fill="midnightblue" stroke="midnightblue" points="149.495,-263.045 141.317,-256.309 143.51,-266.675 149.495,-263.045"/>
</g>
<!-- Node193&#45;&gt;Node187 -->
<g id="edge19" class="edge"><title>Node193&#45;&gt;Node187</title>
<path fill="none" stroke="midnightblue" d="M173.5,-259.522C196.47,-267.261 225.281,-276.968 246.333,-284.061"/>
<polygon fill="midnightblue" stroke="midnightblue" points="174.324,-256.107 163.73,-256.231 172.089,-262.74 174.324,-256.107"/>
</g>
<!-- Node193&#45;&gt;Node194 -->
<g id="edge20" class="edge"><title>Node193&#45;&gt;Node194</title>
<path fill="none" stroke="midnightblue" d="M181.918,-244.01C223.659,-240.712 286.325,-233.612 339,-218.719 367.235,-210.737 397.978,-196.038 416.749,-186.32"/>
<polygon fill="midnightblue" stroke="midnightblue" points="181.487,-240.532 171.776,-244.769 182.009,-247.513 181.487,-240.532"/>
</g>
<!-- Node193&#45;&gt;Node195 -->
<g id="edge25" class="edge"><title>Node193&#45;&gt;Node195</title>
<path fill="none" stroke="midnightblue" d="M173.5,-233.917C196.47,-226.177 225.281,-216.471 246.333,-209.378"/>
<polygon fill="midnightblue" stroke="midnightblue" points="172.089,-230.699 163.73,-237.208 174.324,-237.332 172.089,-230.699"/>
</g>
<!-- Node194&#45;&gt;Node188 -->
<g id="edge21" class="edge"><title>Node194&#45;&gt;Node188</title>
<path fill="none" stroke="midnightblue" d="M459.762,-161.412C471.077,-153.596 484.65,-143.656 496,-133.719 513.504,-118.395 515.355,-111.973 532,-95.7194 543.675,-84.3191 557.633,-71.8589 567.19,-63.4949"/>
<polygon fill="midnightblue" stroke="midnightblue" points="457.566,-158.673 451.257,-167.185 461.497,-164.465 457.566,-158.673"/>
</g>
<!-- Node194&#45;&gt;Node191 -->
<g id="edge23" class="edge"><title>Node194&#45;&gt;Node191</title>
<path fill="none" stroke="midnightblue" d="M463.714,-190.901C491.932,-205.606 535.288,-228.2 559.846,-240.998"/>
<polygon fill="midnightblue" stroke="midnightblue" points="465.259,-187.76 454.773,-186.242 462.024,-193.967 465.259,-187.76"/>
</g>
<!-- Node194&#45;&gt;Node192 -->
<g id="edge22" class="edge"><title>Node194&#45;&gt;Node192</title>
<path fill="none" stroke="midnightblue" d="M467.707,-163.094C494.537,-151.379 532.565,-134.776 556.365,-124.384"/>
<polygon fill="midnightblue" stroke="midnightblue" points="466.14,-159.959 458.376,-167.168 468.941,-166.374 466.14,-159.959"/>
</g>
<!-- Node195&#45;&gt;Node180 -->
<g id="edge26" class="edge"><title>Node195&#45;&gt;Node180</title>
<path fill="none" stroke="midnightblue" d="M228.511,-208.537C190.642,-212.843 136.374,-219.513 92,-236.719 77.0476,-242.517 62.0387,-252.328 50.4229,-260.036"/>
<polygon fill="midnightblue" stroke="midnightblue" points="229.193,-211.982 238.735,-207.378 228.405,-205.026 229.193,-211.982"/>
</g>
<!-- Node195&#45;&gt;Node183 -->
<g id="edge28" class="edge"><title>Node195&#45;&gt;Node183</title>
<path fill="none" stroke="midnightblue" d="M292.748,-217.454C305.695,-232.337 324.244,-254.369 339,-274.719 376.145,-325.947 414.733,-391.417 428.878,-415.901"/>
<polygon fill="midnightblue" stroke="midnightblue" points="295.07,-214.793 285.844,-209.584 289.808,-219.409 295.07,-214.793"/>
</g>
<!-- Node195&#45;&gt;Node194 -->
<g id="edge27" class="edge"><title>Node195&#45;&gt;Node194</title>
<path fill="none" stroke="midnightblue" d="M323.194,-192.974C345.088,-189.776 371.055,-185.984 392.4,-182.867"/>
<polygon fill="midnightblue" stroke="midnightblue" points="322.523,-189.534 313.134,-194.443 323.535,-196.461 322.523,-189.534"/>
</g>
<!-- Node196&#45;&gt;Node188 -->
<g id="edge30" class="edge"><title>Node196&#45;&gt;Node188</title>
<path fill="none" stroke="midnightblue" d="M467.976,-101.198C494.653,-89.738 532.257,-73.5844 556,-63.385"/>
<polygon fill="midnightblue" stroke="midnightblue" points="466.494,-98.0252 458.688,-105.188 469.257,-104.457 466.494,-98.0252"/>
</g>
<!-- Node196&#45;&gt;Node191 -->
<g id="edge32" class="edge"><title>Node196&#45;&gt;Node191</title>
<path fill="none" stroke="midnightblue" d="M460.131,-130.022C471.434,-137.777 484.889,-147.666 496,-157.719 526.568,-185.378 557.447,-223.534 571.157,-241.127"/>
<polygon fill="midnightblue" stroke="midnightblue" points="461.866,-126.971 451.614,-124.298 457.962,-132.781 461.866,-126.971"/>
</g>
<!-- Node196&#45;&gt;Node192 -->
<g id="edge31" class="edge"><title>Node196&#45;&gt;Node192</title>
<path fill="none" stroke="midnightblue" d="M480.303,-114.719C502.415,-114.719 528.672,-114.719 548.47,-114.719"/>
<polygon fill="midnightblue" stroke="midnightblue" points="480.152,-111.219 470.152,-114.719 480.152,-118.219 480.152,-111.219"/>
</g>
</g>
</svg>
        <g id="navigator" transform="translate(0 0)" fill="#404254">
                <rect fill="#f2f5e9" fill-opacity="0.5" stroke="#606060" stroke-width=".5" x="0" y="0" width="60" height="60"/>
                <use id="zoomplus" xlink:href="#zoomPlus" x="17" y="9" onmousedown="handleZoom(evt,'in')"/>
                <use id="zoomminus" xlink:href="#zoomMin" x="42" y="9" onmousedown="handleZoom(evt,'out')"/>
                <use id="reset" xlink:href="#resetDef" x="30" y="36" onmousedown="handleReset()"/>
                <g id="arrowUp" xlink:href="#dirArrow" transform="translate(30 24)" onmousedown="handlePan(0,-1)">
                  <use xlink:href="#rim" fill="#404040">
                        <set attributeName="fill" to="#808080" begin="arrowUp.mouseover" end="arrowUp.mouseout"/>
                  </use>
                  <path fill="none" stroke="white" stroke-width="1.5" d="M0,-3.0v7 M-2.5,-0.5L0,-3.0L2.5,-0.5"/>
                </g>
                <g id="arrowRight" xlink:href="#dirArrow" transform="rotate(90) translate(36 -43)" onmousedown="handlePan(1,0)">
                  <use xlink:href="#rim" fill="#404040">
                        <set attributeName="fill" to="#808080" begin="arrowRight.mouseover" end="arrowRight.mouseout"/>
                  </use>
                  <path fill="none" stroke="white" stroke-width="1.5" d="M0,-3.0v7 M-2.5,-0.5L0,-3.0L2.5,-0.5"/>
                </g>
                <g id="arrowDown" xlink:href="#dirArrow" transform="rotate(180) translate(-30 -48)" onmousedown="handlePan(0,1)">
                  <use xlink:href="#rim" fill="#404040">
                        <set attributeName="fill" to="#808080" begin="arrowDown.mouseover" end="arrowDown.mouseout"/>
                  </use>
                  <path fill="none" stroke="white" stroke-width="1.5" d="M0,-3.0v7 M-2.5,-0.5L0,-3.0L2.5,-0.5"/>
                </g>
                <g id="arrowLeft" xlink:href="#dirArrow" transform="rotate(270) translate(-36 17)" onmousedown="handlePan(-1,0)">
                  <use xlink:href="#rim" fill="#404040">
                        <set attributeName="fill" to="#808080" begin="arrowLeft.mouseover" end="arrowLeft.mouseout"/>
                  </use>
                  <path fill="none" stroke="white" stroke-width="1.5" d="M0,-3.0v7 M-2.5,-0.5L0,-3.0L2.5,-0.5"/>
                </g>
        </g>
        <svg viewBox="0 0 15 15" width="100%" height="30px" preserveAspectRatio="xMaxYMin meet">
         <g id="arrow_out" transform="scale(0.3 0.3)">
          <a xlink:href="structLCD_a632d9c641930fe16c0b623b82136196e_icgraph_org.svg" target="_base">
           <rect id="button" ry="5" rx="5" y="6" x="6" height="38" width="38"
                fill="#f2f5e9" fill-opacity="0.5" stroke="#606060" stroke-width="1.0"/>
           <path id="arrow"
             d="M 11.500037,31.436501 C 11.940474,20.09759 22.043105,11.32322 32.158766,21.979434 L 37.068811,17.246167 C 37.068811,17.246167 37.088388,32 37.088388,32 L 22.160133,31.978069 C 22.160133,31.978069 26.997745,27.140456 26.997745,27.140456 C 18.528582,18.264221 13.291696,25.230495 11.500037,31.436501 z"
             style="fill:#404040;"/>
          </a>
         </g>
        </svg>
</svg>
