<?xml version="1.0" encoding="UTF-8" standalone="no"?>
<!DOCTYPE svg PUBLIC "-//W3C//DTD SVG 1.1//EN"
 "http://www.w3.org/Graphics/SVG/1.1/DTD/svg11.dtd">
<!-- Generated by graphviz version 2.38.0 (20140413.2041)
 -->
<!-- Title: LCD::s2Cmd Pages: 1 -->
<!--zoomable 318 -->
<svg id="main" version="1.1" xmlns="http://www.w3.org/2000/svg" xmlns:xlink="http://www.w3.org/1999/xlink" xml:space="preserve" onload="init(evt)">
<style type="text/css"><![CDATA[
.edge:hover path { stroke: red; }
.edge:hover polygon { stroke: red; fill: red; }
]]></style>
<script type="text/javascript"><![CDATA[
var edges = document.getElementsByTagName('g');
if (edges && edges.length) {
  for (var i=0;i<edges.length;i++) {
    if (edges[i].id.substr(0,4)=='edge') {
      edges[i].setAttribute('class','edge');
    }
  }
}
]]></script>
        <defs>
                <circle id="rim" cx="0" cy="0" r="7"/>
                <circle id="rim2" cx="0" cy="0" r="3.5"/>
                <g id="zoomPlus">
                        <use xlink:href="#rim" fill="#404040">
                                <set attributeName="fill" to="#808080" begin="zoomplus.mouseover" end="zoomplus.mouseout"/>
                        </use>
                        <path d="M-4,0h8M0,-4v8" fill="none" stroke="white" stroke-width="1.5" pointer-events="none"/>
                </g>
                <g id="zoomMin">
                        <use xlink:href="#rim" fill="#404040">
                                <set attributeName="fill" to="#808080" begin="zoomminus.mouseover" end="zoomminus.mouseout"/>
                        </use>
                        <path d="M-4,0h8" fill="none" stroke="white" stroke-width="1.5" pointer-events="none"/>
                </g>
                <g id="dirArrow">
                        <path fill="none" stroke="white" stroke-width="1.5" d="M0,-3.0v7 M-2.5,-0.5L0,-3.0L2.5,-0.5"/>
                </g>
               <g id="resetDef">
                       <use xlink:href="#rim2" fill="#404040">
                               <set attributeName="fill" to="#808080" begin="reset.mouseover" end="reset.mouseout"/>
                       </use>
               </g>
        </defs>

<script type="text/javascript">
var viewWidth = 818;
var viewHeight = 318;
var sectionId = 'dynsection-24';
</script>
<script xlink:href="svgpan.js"/>
<svg id="graph" class="graph">
<g id="viewport">
<title>LCD::s2Cmd</title>
<polygon fill="white" stroke="none" points="-4,4 -4,-313.971 814,-313.971 814,4 -4,4"/>
<!-- Node347 -->
<g id="node1" class="node"><title>Node347</title>
<polygon fill="#bfbfbf" stroke="black" points="0,-156.32 0,-175.32 74,-175.32 74,-156.32 0,-156.32"/>
<text text-anchor="middle" x="37" y="-163.32" font-family="Helvetica,sans-Serif" font-size="10.00">LCD::s2Cmd</text>
</g>
<!-- Node348 -->
<g id="node2" class="node"><title>Node348</title>
<g id="a_node2"><a xlink:href="structLCD.html#a632d9c641930fe16c0b623b82136196e" target="_top" xlink:title="LCD::init">
<polygon fill="white" stroke="black" points="110,-156.32 110,-175.32 166,-175.32 166,-156.32 110,-156.32"/>
<text text-anchor="middle" x="138" y="-163.32" font-family="Helvetica,sans-Serif" font-size="10.00">LCD::init</text>
</a>
</g>
</g>
<!-- Node347&#45;&gt;Node348 -->
<g id="edge1" class="edge"><title>Node347&#45;&gt;Node348</title>
<path fill="none" stroke="midnightblue" d="M74.0213,-159.298C82.4326,-159.007 91.406,-158.995 99.8646,-159.261"/>
<polygon fill="midnightblue" stroke="midnightblue" points="99.7035,-162.757 109.855,-159.724 100.027,-155.765 99.7035,-162.757"/>
</g>
<!-- Node350 -->
<g id="node4" class="node"><title>Node350</title>
<g id="a_node4"><a xlink:href="structLCD.html#a739998fad0591a092255676c8c8d532f" target="_top" xlink:title="LCD::s1Cmd">
<polygon fill="white" stroke="black" points="486,-118.32 486,-137.32 560,-137.32 560,-118.32 486,-118.32"/>
<text text-anchor="middle" x="523" y="-125.32" font-family="Helvetica,sans-Serif" font-size="10.00">LCD::s1Cmd</text>
</a>
</g>
</g>
<!-- Node347&#45;&gt;Node350 -->
<g id="edge30" class="edge"><title>Node347&#45;&gt;Node350</title>
<path fill="none" stroke="midnightblue" d="M41.216,-156.236C49.232,-133.749 72.2178,-77.1424 110,-45.8202 143.559,-17.999 159.089,-19.4957 202,-11.8202 311.902,7.83806 355.682,7.92148 450,-51.8202 474.451,-67.3074 496.342,-92.9343 509.397,-110.094"/>
<polygon fill="midnightblue" stroke="midnightblue" points="506.627,-112.235 515.386,-118.197 512.257,-108.074 506.627,-112.235"/>
</g>
<!-- Node348&#45;&gt;Node347 -->
<g id="edge29" class="edge"><title>Node348&#45;&gt;Node347</title>
<path fill="none" stroke="midnightblue" d="M109.855,-171.917C101.906,-172.415 92.9841,-172.628 84.2012,-172.557"/>
<polygon fill="midnightblue" stroke="midnightblue" points="84.0928,-169.054 74.0213,-172.343 83.9455,-176.052 84.0928,-169.054"/>
</g>
<!-- Node349 -->
<g id="node3" class="node"><title>Node349</title>
<g id="a_node3"><a xlink:href="structLCD.html#aa01b7522d1e210f9cd071e3a5d4ae9e6" target="_top" xlink:title="LCD::changeBackground">
<polygon fill="white" stroke="black" points="202,-42.3202 202,-61.3202 328,-61.3202 328,-42.3202 202,-42.3202"/>
<text text-anchor="middle" x="265" y="-49.3202" font-family="Helvetica,sans-Serif" font-size="10.00">LCD::changeBackground</text>
</a>
</g>
</g>
<!-- Node348&#45;&gt;Node349 -->
<g id="edge2" class="edge"><title>Node348&#45;&gt;Node349</title>
<path fill="none" stroke="midnightblue" d="M141.418,-156.217C147.991,-137.268 167.586,-97.5368 201.798,-67.9879"/>
<polygon fill="midnightblue" stroke="midnightblue" points="204.261,-70.4961 209.812,-61.4717 199.845,-65.065 204.261,-70.4961"/>
</g>
<!-- Node355 -->
<g id="node9" class="node"><title>Node355</title>
<g id="a_node9"><a xlink:href="structLCD.html#a75cacb94de3b3ff71e9a4497b5cc4a81" target="_top" xlink:title="LCD::changeBrightness">
<polygon fill="white" stroke="black" points="204.5,-270.32 204.5,-289.32 325.5,-289.32 325.5,-270.32 204.5,-270.32"/>
<text text-anchor="middle" x="265" y="-277.32" font-family="Helvetica,sans-Serif" font-size="10.00">LCD::changeBrightness</text>
</a>
</g>
</g>
<!-- Node348&#45;&gt;Node355 -->
<g id="edge10" class="edge"><title>Node348&#45;&gt;Node355</title>
<path fill="none" stroke="midnightblue" d="M146.383,-175.427C156.389,-192.522 176.029,-226.468 202,-246.82 213.47,-255.809 228.706,-261.769 241.203,-266.581"/>
<polygon fill="midnightblue" stroke="midnightblue" points="239.927,-269.84 250.515,-270.229 242.481,-263.322 239.927,-269.84"/>
</g>
<!-- Node356 -->
<g id="node10" class="node"><title>Node356</title>
<g id="a_node10"><a xlink:href="structLCD.html#ad31ee94d401b7c28d6cc2f472e2eb8fd" target="_top" xlink:title="LCD::changeMode">
<polygon fill="white" stroke="black" points="216,-194.32 216,-213.32 314,-213.32 314,-194.32 216,-194.32"/>
<text text-anchor="middle" x="265" y="-201.32" font-family="Helvetica,sans-Serif" font-size="10.00">LCD::changeMode</text>
</a>
</g>
</g>
<!-- Node348&#45;&gt;Node356 -->
<g id="edge15" class="edge"><title>Node348&#45;&gt;Node356</title>
<path fill="none" stroke="midnightblue" d="M166.123,-168.387C187.597,-173.451 217.378,-182.541 238.436,-190.48"/>
<polygon fill="midnightblue" stroke="midnightblue" points="237.412,-193.839 247.998,-194.263 239.986,-187.33 237.412,-193.839"/>
</g>
<!-- Node357 -->
<g id="node11" class="node"><title>Node357</title>
<g id="a_node11"><a xlink:href="structLCD.html#ad3120f397273bac2ad60e0291554b9e6" target="_top" xlink:title="LCD::clear">
<polygon fill="white" stroke="black" points="233,-156.32 233,-175.32 297,-175.32 297,-156.32 233,-156.32"/>
<text text-anchor="middle" x="265" y="-163.32" font-family="Helvetica,sans-Serif" font-size="10.00">LCD::clear</text>
</a>
</g>
</g>
<!-- Node348&#45;&gt;Node357 -->
<g id="edge18" class="edge"><title>Node348&#45;&gt;Node357</title>
<path fill="none" stroke="midnightblue" d="M166.123,-160.142C182.723,-159.01 204.288,-158.775 222.949,-159.437"/>
<polygon fill="midnightblue" stroke="midnightblue" points="222.818,-162.934 232.968,-159.897 223.139,-155.942 222.818,-162.934"/>
</g>
<!-- Node349&#45;&gt;Node348 -->
<g id="edge3" class="edge"><title>Node349&#45;&gt;Node348</title>
<path fill="none" stroke="midnightblue" d="M250.515,-61.4111C237.121,-66.9018 216.536,-73.429 202,-84.8202 179.884,-102.152 162.359,-129.341 151.465,-147.587"/>
<polygon fill="midnightblue" stroke="midnightblue" points="148.443,-145.821 146.383,-156.214 154.474,-149.374 148.443,-145.821"/>
</g>
<!-- Node349&#45;&gt;Node350 -->
<g id="edge4" class="edge"><title>Node349&#45;&gt;Node350</title>
<path fill="none" stroke="midnightblue" d="M328.4,-52.3673C364.95,-54.5242 411.37,-60.4987 450,-75.8202 470.653,-84.0117 490.867,-99.4563 504.593,-111.394"/>
<polygon fill="midnightblue" stroke="midnightblue" points="502.471,-114.193 512.247,-118.277 507.152,-108.988 502.471,-114.193"/>
</g>
<!-- Node350&#45;&gt;Node348 -->
<g id="edge7" class="edge"><title>Node350&#45;&gt;Node348</title>
<path fill="none" stroke="midnightblue" d="M492.915,-118.316C479.935,-114.553 464.359,-110.683 450,-108.82 340.406,-94.6033 306.46,-90.7501 202,-126.82 186.497,-132.173 170.809,-141.868 158.966,-150.252"/>
<polygon fill="midnightblue" stroke="midnightblue" points="156.707,-147.569 150.726,-156.314 160.855,-153.208 156.707,-147.569"/>
</g>
<!-- Node351 -->
<g id="node5" class="node"><title>Node351</title>
<g id="a_node5"><a xlink:href="classeagle__impl_1_1TwoWire.html#a1876ffdb16fb185c14a75e1251cef5e4" target="_top" xlink:title="eagle_impl::TwoWire\l::beginTransmission">
<polygon fill="white" stroke="black" points="596,-210.82 596,-240.82 704,-240.82 704,-210.82 596,-210.82"/>
<text text-anchor="start" x="604" y="-228.82" font-family="Helvetica,sans-Serif" font-size="10.00">eagle_impl::TwoWire</text>
<text text-anchor="middle" x="650" y="-217.82" font-family="Helvetica,sans-Serif" font-size="10.00">::beginTransmission</text>
</a>
</g>
</g>
<!-- Node350&#45;&gt;Node351 -->
<g id="edge5" class="edge"><title>Node350&#45;&gt;Node351</title>
<path fill="none" stroke="midnightblue" d="M536.84,-137.539C543.951,-143.158 552.784,-150.539 560,-157.82 577.786,-175.767 575.964,-186.426 596,-201.82 597.757,-203.17 599.602,-204.465 601.507,-205.705"/>
<polygon fill="midnightblue" stroke="midnightblue" points="599.762,-208.739 610.159,-210.781 603.305,-202.701 599.762,-208.739"/>
</g>
<!-- Node352 -->
<g id="node6" class="node"><title>Node352</title>
<g id="a_node6"><a xlink:href="classeagle__impl_1_1TwoWire.html#af80f9a7b85a3a81a035ca94c95bcdc1d" target="_top" xlink:title="eagle_impl::TwoWire\l::endTransmission">
<polygon fill="white" stroke="black" points="596,-161.82 596,-191.82 704,-191.82 704,-161.82 596,-161.82"/>
<text text-anchor="start" x="604" y="-179.82" font-family="Helvetica,sans-Serif" font-size="10.00">eagle_impl::TwoWire</text>
<text text-anchor="middle" x="650" y="-168.82" font-family="Helvetica,sans-Serif" font-size="10.00">::endTransmission</text>
</a>
</g>
</g>
<!-- Node350&#45;&gt;Node352 -->
<g id="edge6" class="edge"><title>Node350&#45;&gt;Node352</title>
<path fill="none" stroke="midnightblue" d="M548.398,-137.384C563.265,-143.212 582.783,-150.863 600.668,-157.874"/>
<polygon fill="midnightblue" stroke="midnightblue" points="599.808,-161.296 610.396,-161.687 602.363,-154.779 599.808,-161.296"/>
</g>
<!-- Node353 -->
<g id="node7" class="node"><title>Node353</title>
<g id="a_node7"><a xlink:href="classeagle__impl_1_1TwoWire.html#a2b5f9f156b6d281746a2a6ca5707dad3" target="_top" xlink:title="eagle_impl::TwoWire\l::write">
<polygon fill="white" stroke="black" points="596,-112.82 596,-142.82 704,-142.82 704,-112.82 596,-112.82"/>
<text text-anchor="start" x="604" y="-130.82" font-family="Helvetica,sans-Serif" font-size="10.00">eagle_impl::TwoWire</text>
<text text-anchor="middle" x="650" y="-119.82" font-family="Helvetica,sans-Serif" font-size="10.00">::write</text>
</a>
</g>
</g>
<!-- Node350&#45;&gt;Node353 -->
<g id="edge8" class="edge"><title>Node350&#45;&gt;Node353</title>
<path fill="none" stroke="midnightblue" d="M560.155,-127.82C568.136,-127.82 576.819,-127.82 585.526,-127.82"/>
<polygon fill="midnightblue" stroke="midnightblue" points="585.72,-131.32 595.72,-127.82 585.72,-124.32 585.72,-131.32"/>
</g>
<!-- Node354 -->
<g id="node8" class="node"><title>Node354</title>
<g id="a_node8"><a xlink:href="eBoard_8h.html#abb66f08d8061c1064047324c1bacc2a9" target="_top" xlink:title="twi_transmit">
<polygon fill="white" stroke="black" points="740,-118.32 740,-137.32 810,-137.32 810,-118.32 740,-118.32"/>
<text text-anchor="middle" x="775" y="-125.32" font-family="Helvetica,sans-Serif" font-size="10.00">twi_transmit</text>
</a>
</g>
</g>
<!-- Node353&#45;&gt;Node354 -->
<g id="edge9" class="edge"><title>Node353&#45;&gt;Node354</title>
<path fill="none" stroke="midnightblue" d="M704.234,-127.82C712.725,-127.82 721.431,-127.82 729.686,-127.82"/>
<polygon fill="midnightblue" stroke="midnightblue" points="729.854,-131.32 739.854,-127.82 729.854,-124.32 729.854,-131.32"/>
</g>
<!-- Node355&#45;&gt;Node347 -->
<g id="edge14" class="edge"><title>Node355&#45;&gt;Node347</title>
<path fill="none" stroke="midnightblue" d="M237.125,-270.305C226.102,-266.174 213.301,-261.08 202,-255.82 151.081,-232.121 94.1198,-199.372 62.514,-180.614"/>
<polygon fill="midnightblue" stroke="midnightblue" points="64.3068,-177.608 53.9258,-175.49 60.7203,-183.619 64.3068,-177.608"/>
</g>
<!-- Node355&#45;&gt;Node348 -->
<g id="edge13" class="edge"><title>Node355&#45;&gt;Node348</title>
<path fill="none" stroke="midnightblue" d="M209.812,-270.169C207.078,-268.526 204.453,-266.743 202,-264.82 174.914,-243.594 154.714,-207.582 145.148,-185.019"/>
<polygon fill="midnightblue" stroke="midnightblue" points="148.303,-183.476 141.418,-175.423 141.779,-186.012 148.303,-183.476"/>
</g>
<!-- Node355&#45;&gt;Node351 -->
<g id="edge11" class="edge"><title>Node355&#45;&gt;Node351</title>
<path fill="none" stroke="midnightblue" d="M300.181,-289.332C356.178,-303.2 470.209,-324.196 560,-293.82 586.435,-284.877 611.202,-264.59 627.863,-248.489"/>
<polygon fill="midnightblue" stroke="midnightblue" points="630.766,-250.535 635.362,-240.989 625.816,-245.585 630.766,-250.535"/>
</g>
<!-- Node355&#45;&gt;Node352 -->
<g id="edge12" class="edge"><title>Node355&#45;&gt;Node352</title>
<path fill="none" stroke="midnightblue" d="M304.484,-270.278C341.759,-260.968 399.847,-246.28 450,-232.82 496.016,-220.47 547.82,-205.87 587.034,-194.675"/>
<polygon fill="midnightblue" stroke="midnightblue" points="588.069,-198.019 596.722,-191.905 586.145,-191.289 588.069,-198.019"/>
</g>
<!-- Node356&#45;&gt;Node348 -->
<g id="edge16" class="edge"><title>Node356&#45;&gt;Node348</title>
<path fill="none" stroke="midnightblue" d="M215.91,-195.789C198.421,-190.872 179.341,-184.732 164.559,-179.158"/>
<polygon fill="midnightblue" stroke="midnightblue" points="165.672,-175.835 155.086,-175.413 163.098,-182.344 165.672,-175.835"/>
</g>
<!-- Node356&#45;&gt;Node350 -->
<g id="edge17" class="edge"><title>Node356&#45;&gt;Node350</title>
<path fill="none" stroke="midnightblue" d="M298.163,-194.272C344.242,-180.592 429.09,-155.403 480.048,-140.275"/>
<polygon fill="midnightblue" stroke="midnightblue" points="481.176,-143.591 489.767,-137.389 479.184,-136.88 481.176,-143.591"/>
</g>
<!-- Node357&#45;&gt;Node348 -->
<g id="edge19" class="edge"><title>Node357&#45;&gt;Node348</title>
<path fill="none" stroke="midnightblue" d="M232.968,-171.744C215.812,-172.729 194.376,-172.833 176.312,-172.057"/>
<polygon fill="midnightblue" stroke="midnightblue" points="176.3,-168.552 166.123,-171.499 175.916,-175.541 176.3,-168.552"/>
</g>
<!-- Node358 -->
<g id="node12" class="node"><title>Node358</title>
<g id="a_node12"><a xlink:href="structLCD.html#ae5873763db265cd00da32664cce88873" target="_top" xlink:title="LCD::s1Dat">
<polygon fill="white" stroke="black" points="488.5,-167.32 488.5,-186.32 557.5,-186.32 557.5,-167.32 488.5,-167.32"/>
<text text-anchor="middle" x="523" y="-174.32" font-family="Helvetica,sans-Serif" font-size="10.00">LCD::s1Dat</text>
</a>
</g>
</g>
<!-- Node357&#45;&gt;Node358 -->
<g id="edge20" class="edge"><title>Node357&#45;&gt;Node358</title>
<path fill="none" stroke="midnightblue" d="M297.135,-167.158C342.387,-169.103 426.539,-172.718 478.078,-174.933"/>
<polygon fill="midnightblue" stroke="midnightblue" points="478.101,-178.437 488.242,-175.37 478.401,-171.444 478.101,-178.437"/>
</g>
<!-- Node359 -->
<g id="node13" class="node"><title>Node359</title>
<g id="a_node13"><a xlink:href="structLCD.html#ad1a67d455563026a5064ef9cab86ae4d" target="_top" xlink:title="LCD::setCursor">
<polygon fill="white" stroke="black" points="364,-118.32 364,-137.32 450,-137.32 450,-118.32 364,-118.32"/>
<text text-anchor="middle" x="407" y="-125.32" font-family="Helvetica,sans-Serif" font-size="10.00">LCD::setCursor</text>
</a>
</g>
</g>
<!-- Node357&#45;&gt;Node359 -->
<g id="edge25" class="edge"><title>Node357&#45;&gt;Node359</title>
<path fill="none" stroke="midnightblue" d="M297.071,-157.387C315.831,-152.295 340.063,-145.718 360.906,-140.06"/>
<polygon fill="midnightblue" stroke="midnightblue" points="362.093,-143.364 370.827,-137.367 360.26,-136.609 362.093,-143.364"/>
</g>
<!-- Node358&#45;&gt;Node348 -->
<g id="edge23" class="edge"><title>Node358&#45;&gt;Node348</title>
<path fill="none" stroke="midnightblue" d="M502.12,-186.325C450.666,-209.537 309.63,-264.284 202,-222.82 181.483,-214.916 163.5,-196.891 152.055,-183.212"/>
<polygon fill="midnightblue" stroke="midnightblue" points="154.783,-181.019 145.81,-175.385 149.311,-185.385 154.783,-181.019"/>
</g>
<!-- Node358&#45;&gt;Node351 -->
<g id="edge21" class="edge"><title>Node358&#45;&gt;Node351</title>
<path fill="none" stroke="midnightblue" d="M548.398,-186.384C563.265,-192.212 582.783,-199.863 600.668,-206.874"/>
<polygon fill="midnightblue" stroke="midnightblue" points="599.808,-210.296 610.396,-210.687 602.363,-203.779 599.808,-210.296"/>
</g>
<!-- Node358&#45;&gt;Node352 -->
<g id="edge22" class="edge"><title>Node358&#45;&gt;Node352</title>
<path fill="none" stroke="midnightblue" d="M557.827,-176.82C566.52,-176.82 576.158,-176.82 585.818,-176.82"/>
<polygon fill="midnightblue" stroke="midnightblue" points="585.854,-180.32 595.854,-176.82 585.854,-173.32 585.854,-180.32"/>
</g>
<!-- Node358&#45;&gt;Node353 -->
<g id="edge24" class="edge"><title>Node358&#45;&gt;Node353</title>
<path fill="none" stroke="midnightblue" d="M548.398,-167.256C563.265,-161.428 582.783,-153.777 600.668,-146.766"/>
<polygon fill="midnightblue" stroke="midnightblue" points="602.363,-149.861 610.396,-142.953 599.808,-143.344 602.363,-149.861"/>
</g>
<!-- Node359&#45;&gt;Node347 -->
<g id="edge27" class="edge"><title>Node359&#45;&gt;Node347</title>
<path fill="none" stroke="midnightblue" d="M401.685,-118.182C391.969,-97.8338 366.199,-50.8816 328,-32.8202 277.374,-8.88281 254.781,-14.1081 202,-32.8202 136.59,-56.0095 78.2362,-117.635 52.2727,-148.167"/>
<polygon fill="midnightblue" stroke="midnightblue" points="49.2651,-146.309 45.5551,-156.233 54.6441,-150.789 49.2651,-146.309"/>
</g>
<!-- Node359&#45;&gt;Node348 -->
<g id="edge26" class="edge"><title>Node359&#45;&gt;Node348</title>
<path fill="none" stroke="midnightblue" d="M363.846,-129.286C322.348,-131.305 257.333,-136.013 202,-146.82 193.458,-148.489 184.42,-150.847 175.938,-153.337"/>
<polygon fill="midnightblue" stroke="midnightblue" points="174.838,-150.013 166.3,-156.286 176.886,-156.707 174.838,-150.013"/>
</g>
<!-- Node359&#45;&gt;Node350 -->
<g id="edge28" class="edge"><title>Node359&#45;&gt;Node350</title>
<path fill="none" stroke="midnightblue" d="M450.126,-127.82C458.422,-127.82 467.172,-127.82 475.6,-127.82"/>
<polygon fill="midnightblue" stroke="midnightblue" points="475.67,-131.32 485.67,-127.82 475.67,-124.32 475.67,-131.32"/>
</g>
</g>
</svg>
        <g id="navigator" transform="translate(0 0)" fill="#404254">
                <rect fill="#f2f5e9" fill-opacity="0.5" stroke="#606060" stroke-width=".5" x="0" y="0" width="60" height="60"/>
                <use id="zoomplus" xlink:href="#zoomPlus" x="17" y="9" onmousedown="handleZoom(evt,'in')"/>
                <use id="zoomminus" xlink:href="#zoomMin" x="42" y="9" onmousedown="handleZoom(evt,'out')"/>
                <use id="reset" xlink:href="#resetDef" x="30" y="36" onmousedown="handleReset()"/>
                <g id="arrowUp" xlink:href="#dirArrow" transform="translate(30 24)" onmousedown="handlePan(0,-1)">
                  <use xlink:href="#rim" fill="#404040">
                        <set attributeName="fill" to="#808080" begin="arrowUp.mouseover" end="arrowUp.mouseout"/>
                  </use>
                  <path fill="none" stroke="white" stroke-width="1.5" d="M0,-3.0v7 M-2.5,-0.5L0,-3.0L2.5,-0.5"/>
                </g>
                <g id="arrowRight" xlink:href="#dirArrow" transform="rotate(90) translate(36 -43)" onmousedown="handlePan(1,0)">
                  <use xlink:href="#rim" fill="#404040">
                        <set attributeName="fill" to="#808080" begin="arrowRight.mouseover" end="arrowRight.mouseout"/>
                  </use>
                  <path fill="none" stroke="white" stroke-width="1.5" d="M0,-3.0v7 M-2.5,-0.5L0,-3.0L2.5,-0.5"/>
                </g>
                <g id="arrowDown" xlink:href="#dirArrow" transform="rotate(180) translate(-30 -48)" onmousedown="handlePan(0,1)">
                  <use xlink:href="#rim" fill="#404040">
                        <set attributeName="fill" to="#808080" begin="arrowDown.mouseover" end="arrowDown.mouseout"/>
                  </use>
                  <path fill="none" stroke="white" stroke-width="1.5" d="M0,-3.0v7 M-2.5,-0.5L0,-3.0L2.5,-0.5"/>
                </g>
                <g id="arrowLeft" xlink:href="#dirArrow" transform="rotate(270) translate(-36 17)" onmousedown="handlePan(-1,0)">
                  <use xlink:href="#rim" fill="#404040">
                        <set attributeName="fill" to="#808080" begin="arrowLeft.mouseover" end="arrowLeft.mouseout"/>
                  </use>
                  <path fill="none" stroke="white" stroke-width="1.5" d="M0,-3.0v7 M-2.5,-0.5L0,-3.0L2.5,-0.5"/>
                </g>
        </g>
        <svg viewBox="0 0 15 15" width="100%" height="30px" preserveAspectRatio="xMaxYMin meet">
         <g id="arrow_out" transform="scale(0.3 0.3)">
          <a xlink:href="structLCD_ae7a8d9bc1581cfeeb0f098c8bb6d1229_cgraph_org.svg" target="_base">
           <rect id="button" ry="5" rx="5" y="6" x="6" height="38" width="38"
                fill="#f2f5e9" fill-opacity="0.5" stroke="#606060" stroke-width="1.0"/>
           <path id="arrow"
             d="M 11.500037,31.436501 C 11.940474,20.09759 22.043105,11.32322 32.158766,21.979434 L 37.068811,17.246167 C 37.068811,17.246167 37.088388,32 37.088388,32 L 22.160133,31.978069 C 22.160133,31.978069 26.997745,27.140456 26.997745,27.140456 C 18.528582,18.264221 13.291696,25.230495 11.500037,31.436501 z"
             style="fill:#404040;"/>
          </a>
         </g>
        </svg>
</svg>
