<?xml version="1.0" encoding="UTF-8" standalone="no"?>
<!DOCTYPE svg PUBLIC "-//W3C//DTD SVG 1.1//EN"
 "http://www.w3.org/Graphics/SVG/1.1/DTD/svg11.dtd">
<!-- Generated by graphviz version 2.38.0 (20140413.2041)
 -->
<!-- Title: LCD::lightOn Pages: 1 -->
<svg width="1085pt" height="368pt"
 viewBox="0.00 0.00 1085.00 368.00" xmlns="http://www.w3.org/2000/svg" xmlns:xlink="http://www.w3.org/1999/xlink">
<g id="graph0" class="graph" transform="scale(1 1) rotate(0) translate(4 364)">
<title>LCD::lightOn</title>
<polygon fill="white" stroke="none" points="-4,4 -4,-364 1081,-364 1081,4 -4,4"/>
<!-- Node216 -->
<g id="node1" class="node"><title>Node216</title>
<polygon fill="#bfbfbf" stroke="black" points="0,-165.5 0,-184.5 74,-184.5 74,-165.5 0,-165.5"/>
<text text-anchor="middle" x="37" y="-172.5" font-family="Helvetica,sans-Serif" font-size="10.00">LCD::lightOn</text>
</g>
<!-- Node217 -->
<g id="node2" class="node"><title>Node217</title>
<g id="a_node2"><a xlink:href="structLCD.html#a75cacb94de3b3ff71e9a4497b5cc4a81" target="_top" xlink:title="LCD::changeBrightness">
<polygon fill="white" stroke="black" points="110,-165.5 110,-184.5 231,-184.5 231,-165.5 110,-165.5"/>
<text text-anchor="middle" x="170.5" y="-172.5" font-family="Helvetica,sans-Serif" font-size="10.00">LCD::changeBrightness</text>
</a>
</g>
</g>
<!-- Node216&#45;&gt;Node217 -->
<g id="edge1" class="edge"><title>Node216&#45;&gt;Node217</title>
<path fill="none" stroke="midnightblue" d="M74.2811,-175C82.204,-175 90.8467,-175 99.5879,-175"/>
<polygon fill="midnightblue" stroke="midnightblue" points="99.8574,-178.5 109.857,-175 99.8573,-171.5 99.8574,-178.5"/>
</g>
<!-- Node218 -->
<g id="node3" class="node"><title>Node218</title>
<g id="a_node3"><a xlink:href="classeagle__impl_1_1TwoWire.html#a1876ffdb16fb185c14a75e1251cef5e4" target="_top" xlink:title="eagle_impl::TwoWire\l::beginTransmission">
<polygon fill="white" stroke="black" points="863,-275 863,-305 971,-305 971,-275 863,-275"/>
<text text-anchor="start" x="871" y="-293" font-family="Helvetica,sans-Serif" font-size="10.00">eagle_impl::TwoWire</text>
<text text-anchor="middle" x="917" y="-282" font-family="Helvetica,sans-Serif" font-size="10.00">::beginTransmission</text>
</a>
</g>
</g>
<!-- Node217&#45;&gt;Node218 -->
<g id="edge2" class="edge"><title>Node217&#45;&gt;Node218</title>
<path fill="none" stroke="midnightblue" d="M177.703,-184.686C202.922,-222.751 302.097,-360 421,-360 421,-360 421,-360 681,-360 752.339,-360 830.98,-330.004 876.794,-309.283"/>
<polygon fill="midnightblue" stroke="midnightblue" points="878.439,-312.379 886.057,-305.017 875.51,-306.021 878.439,-312.379"/>
</g>
<!-- Node219 -->
<g id="node4" class="node"><title>Node219</title>
<g id="a_node4"><a xlink:href="classeagle__impl_1_1TwoWire.html#af80f9a7b85a3a81a035ca94c95bcdc1d" target="_top" xlink:title="eagle_impl::TwoWire\l::endTransmission">
<polygon fill="white" stroke="black" points="863,-177 863,-207 971,-207 971,-177 863,-177"/>
<text text-anchor="start" x="871" y="-195" font-family="Helvetica,sans-Serif" font-size="10.00">eagle_impl::TwoWire</text>
<text text-anchor="middle" x="917" y="-184" font-family="Helvetica,sans-Serif" font-size="10.00">::endTransmission</text>
</a>
</g>
</g>
<!-- Node217&#45;&gt;Node219 -->
<g id="edge3" class="edge"><title>Node217&#45;&gt;Node219</title>
<path fill="none" stroke="midnightblue" d="M178.187,-165.342C204.458,-128.655 304.865,-0 421,-0 421,-0 421,-0 681,-0 786.146,-0 870.176,-116.694 902.109,-168.132"/>
<polygon fill="midnightblue" stroke="midnightblue" points="899.274,-170.206 907.458,-176.934 905.256,-166.571 899.274,-170.206"/>
</g>
<!-- Node220 -->
<g id="node5" class="node"><title>Node220</title>
<g id="a_node5"><a xlink:href="structLCD.html#a632d9c641930fe16c0b623b82136196e" target="_top" xlink:title="LCD::init">
<polygon fill="white" stroke="black" points="267,-165.5 267,-184.5 323,-184.5 323,-165.5 267,-165.5"/>
<text text-anchor="middle" x="295" y="-172.5" font-family="Helvetica,sans-Serif" font-size="10.00">LCD::init</text>
</a>
</g>
</g>
<!-- Node217&#45;&gt;Node220 -->
<g id="edge4" class="edge"><title>Node217&#45;&gt;Node220</title>
<path fill="none" stroke="midnightblue" d="M231.315,-168.252C240.014,-168.232 248.752,-168.393 256.826,-168.737"/>
<polygon fill="midnightblue" stroke="midnightblue" points="256.822,-172.242 266.998,-169.293 257.204,-165.252 256.822,-172.242"/>
</g>
<!-- Node229 -->
<g id="node14" class="node"><title>Node229</title>
<g id="a_node14"><a xlink:href="structLCD.html#ae7a8d9bc1581cfeeb0f098c8bb6d1229" target="_top" xlink:title="LCD::s2Cmd">
<polygon fill="white" stroke="black" points="643,-189.5 643,-208.5 717,-208.5 717,-189.5 643,-189.5"/>
<text text-anchor="middle" x="680" y="-196.5" font-family="Helvetica,sans-Serif" font-size="10.00">LCD::s2Cmd</text>
</a>
</g>
</g>
<!-- Node217&#45;&gt;Node229 -->
<g id="edge31" class="edge"><title>Node217&#45;&gt;Node229</title>
<path fill="none" stroke="midnightblue" d="M187.819,-165.335C219.492,-147.203 292.079,-108.68 359,-95 413.865,-83.7845 430.687,-81.3599 485,-95 553.387,-112.175 623.973,-158.618 658.063,-183.217"/>
<polygon fill="midnightblue" stroke="midnightblue" points="656.165,-186.165 666.3,-189.252 660.302,-180.519 656.165,-186.165"/>
</g>
<!-- Node220&#45;&gt;Node217 -->
<g id="edge13" class="edge"><title>Node220&#45;&gt;Node217</title>
<path fill="none" stroke="midnightblue" d="M266.998,-180.707C259.31,-181.233 250.561,-181.559 241.553,-181.688"/>
<polygon fill="midnightblue" stroke="midnightblue" points="241.294,-178.189 231.315,-181.748 241.335,-185.189 241.294,-178.189"/>
</g>
<!-- Node221 -->
<g id="node6" class="node"><title>Node221</title>
<g id="a_node6"><a xlink:href="structLCD.html#aa01b7522d1e210f9cd071e3a5d4ae9e6" target="_top" xlink:title="LCD::changeBackground">
<polygon fill="white" stroke="black" points="359,-104.5 359,-123.5 485,-123.5 485,-104.5 359,-104.5"/>
<text text-anchor="middle" x="422" y="-111.5" font-family="Helvetica,sans-Serif" font-size="10.00">LCD::changeBackground</text>
</a>
</g>
</g>
<!-- Node220&#45;&gt;Node221 -->
<g id="edge5" class="edge"><title>Node220&#45;&gt;Node221</title>
<path fill="none" stroke="midnightblue" d="M301.568,-165.262C310.794,-154.607 330.221,-139.409 350.759,-128.236"/>
<polygon fill="midnightblue" stroke="midnightblue" points="352.599,-131.227 359.92,-123.568 349.421,-124.99 352.599,-131.227"/>
</g>
<!-- Node225 -->
<g id="node10" class="node"><title>Node225</title>
<g id="a_node10"><a xlink:href="structLCD.html#ad31ee94d401b7c28d6cc2f472e2eb8fd" target="_top" xlink:title="LCD::changeMode">
<polygon fill="white" stroke="black" points="373,-142.5 373,-161.5 471,-161.5 471,-142.5 373,-142.5"/>
<text text-anchor="middle" x="422" y="-149.5" font-family="Helvetica,sans-Serif" font-size="10.00">LCD::changeMode</text>
</a>
</g>
</g>
<!-- Node220&#45;&gt;Node225 -->
<g id="edge14" class="edge"><title>Node220&#45;&gt;Node225</title>
<path fill="none" stroke="midnightblue" d="M318.637,-165.495C331.045,-162.179 347.051,-158.769 362.704,-155.99"/>
<polygon fill="midnightblue" stroke="midnightblue" points="363.623,-159.384 372.897,-154.263 362.453,-152.483 363.623,-159.384"/>
</g>
<!-- Node226 -->
<g id="node11" class="node"><title>Node226</title>
<g id="a_node11"><a xlink:href="structLCD.html#ad3120f397273bac2ad60e0291554b9e6" target="_top" xlink:title="LCD::clear">
<polygon fill="white" stroke="black" points="390,-274.5 390,-293.5 454,-293.5 454,-274.5 390,-274.5"/>
<text text-anchor="middle" x="422" y="-281.5" font-family="Helvetica,sans-Serif" font-size="10.00">LCD::clear</text>
</a>
</g>
</g>
<!-- Node220&#45;&gt;Node226 -->
<g id="edge17" class="edge"><title>Node220&#45;&gt;Node226</title>
<path fill="none" stroke="midnightblue" d="M304.144,-184.561C314.531,-200.801 334.163,-232.074 359,-251 370.476,-259.745 385.527,-265.672 397.925,-270.495"/>
<polygon fill="midnightblue" stroke="midnightblue" points="396.994,-273.891 407.58,-274.326 399.575,-267.385 396.994,-273.891"/>
</g>
<!-- Node220&#45;&gt;Node229 -->
<g id="edge30" class="edge"><title>Node220&#45;&gt;Node229</title>
<path fill="none" stroke="midnightblue" d="M323.237,-173.022C388.005,-173.323 551.813,-183.285 632.555,-191.495"/>
<polygon fill="midnightblue" stroke="midnightblue" points="632.599,-195.02 642.912,-192.59 633.335,-188.058 632.599,-195.02"/>
</g>
<!-- Node221&#45;&gt;Node220 -->
<g id="edge6" class="edge"><title>Node221&#45;&gt;Node220</title>
<path fill="none" stroke="midnightblue" d="M408.249,-123.559C395.426,-128.791 375.276,-134.284 359,-142 348.269,-147.087 337.266,-153.815 327.519,-159.995"/>
<polygon fill="midnightblue" stroke="midnightblue" points="325.511,-157.125 318.965,-165.455 329.278,-163.025 325.511,-157.125"/>
</g>
<!-- Node222 -->
<g id="node7" class="node"><title>Node222</title>
<g id="a_node7"><a xlink:href="structLCD.html#a739998fad0591a092255676c8c8d532f" target="_top" xlink:title="LCD::s1Cmd">
<polygon fill="white" stroke="black" points="753,-185.5 753,-204.5 827,-204.5 827,-185.5 753,-185.5"/>
<text text-anchor="middle" x="790" y="-192.5" font-family="Helvetica,sans-Serif" font-size="10.00">LCD::s1Cmd</text>
</a>
</g>
</g>
<!-- Node221&#45;&gt;Node222 -->
<g id="edge7" class="edge"><title>Node221&#45;&gt;Node222</title>
<path fill="none" stroke="midnightblue" d="M485.225,-121.186C545.323,-129.017 638.518,-143.519 717,-166 731.246,-170.081 746.539,-176.007 759.35,-181.44"/>
<polygon fill="midnightblue" stroke="midnightblue" points="758.039,-184.686 768.605,-185.46 760.827,-178.266 758.039,-184.686"/>
</g>
<!-- Node222&#45;&gt;Node218 -->
<g id="edge9" class="edge"><title>Node222&#45;&gt;Node218</title>
<path fill="none" stroke="midnightblue" d="M798.968,-204.834C811.383,-219.657 836.663,-247.912 863,-266 865.076,-267.426 867.251,-268.802 869.485,-270.124"/>
<polygon fill="midnightblue" stroke="midnightblue" points="867.862,-273.225 878.316,-274.948 871.218,-267.082 867.862,-273.225"/>
</g>
<!-- Node222&#45;&gt;Node219 -->
<g id="edge12" class="edge"><title>Node222&#45;&gt;Node219</title>
<path fill="none" stroke="midnightblue" d="M827.155,-194.132C835.136,-193.941 843.819,-193.732 852.526,-193.523"/>
<polygon fill="midnightblue" stroke="midnightblue" points="852.807,-197.018 862.72,-193.279 852.639,-190.02 852.807,-197.018"/>
</g>
<!-- Node222&#45;&gt;Node220 -->
<g id="edge8" class="edge"><title>Node222&#45;&gt;Node220</title>
<path fill="none" stroke="midnightblue" d="M778.671,-185.33C765.431,-173.487 741.272,-153.687 717,-143 620.632,-100.57 589.748,-105.722 485,-95 429.291,-89.2974 409.38,-70.5481 359,-95 332.997,-107.621 314.511,-136.753 304.547,-156.157"/>
<polygon fill="midnightblue" stroke="midnightblue" points="301.337,-154.754 300.118,-165.279 307.634,-157.812 301.337,-154.754"/>
</g>
<!-- Node223 -->
<g id="node8" class="node"><title>Node223</title>
<g id="a_node8"><a xlink:href="classeagle__impl_1_1TwoWire.html#a2b5f9f156b6d281746a2a6ca5707dad3" target="_top" xlink:title="eagle_impl::TwoWire\l::write">
<polygon fill="white" stroke="black" points="863,-226 863,-256 971,-256 971,-226 863,-226"/>
<text text-anchor="start" x="871" y="-244" font-family="Helvetica,sans-Serif" font-size="10.00">eagle_impl::TwoWire</text>
<text text-anchor="middle" x="917" y="-233" font-family="Helvetica,sans-Serif" font-size="10.00">::write</text>
</a>
</g>
</g>
<!-- Node222&#45;&gt;Node223 -->
<g id="edge10" class="edge"><title>Node222&#45;&gt;Node223</title>
<path fill="none" stroke="midnightblue" d="M816.9,-204.531C830.888,-209.679 848.653,-216.216 865.267,-222.33"/>
<polygon fill="midnightblue" stroke="midnightblue" points="864.285,-225.698 874.878,-225.867 866.702,-219.129 864.285,-225.698"/>
</g>
<!-- Node224 -->
<g id="node9" class="node"><title>Node224</title>
<g id="a_node9"><a xlink:href="eBoard_8h.html#abb66f08d8061c1064047324c1bacc2a9" target="_top" xlink:title="twi_transmit">
<polygon fill="white" stroke="black" points="1007,-231.5 1007,-250.5 1077,-250.5 1077,-231.5 1007,-231.5"/>
<text text-anchor="middle" x="1042" y="-238.5" font-family="Helvetica,sans-Serif" font-size="10.00">twi_transmit</text>
</a>
</g>
</g>
<!-- Node223&#45;&gt;Node224 -->
<g id="edge11" class="edge"><title>Node223&#45;&gt;Node224</title>
<path fill="none" stroke="midnightblue" d="M971.234,-241C979.725,-241 988.431,-241 996.686,-241"/>
<polygon fill="midnightblue" stroke="midnightblue" points="996.854,-244.5 1006.85,-241 996.854,-237.5 996.854,-244.5"/>
</g>
<!-- Node225&#45;&gt;Node220 -->
<g id="edge15" class="edge"><title>Node225&#45;&gt;Node220</title>
<path fill="none" stroke="midnightblue" d="M398.119,-161.571C379.945,-166.41 354.166,-171.442 333.057,-174.408"/>
<polygon fill="midnightblue" stroke="midnightblue" points="332.594,-170.938 323.123,-175.688 333.488,-177.881 332.594,-170.938"/>
</g>
<!-- Node225&#45;&gt;Node222 -->
<g id="edge16" class="edge"><title>Node225&#45;&gt;Node222</title>
<path fill="none" stroke="midnightblue" d="M471.067,-154.942C529.448,-158.891 630.818,-166.959 717,-180 725.439,-181.277 734.38,-182.91 742.985,-184.625"/>
<polygon fill="midnightblue" stroke="midnightblue" points="742.382,-188.075 752.882,-186.661 743.792,-181.218 742.382,-188.075"/>
</g>
<!-- Node226&#45;&gt;Node220 -->
<g id="edge18" class="edge"><title>Node226&#45;&gt;Node220</title>
<path fill="none" stroke="midnightblue" d="M389.9,-284.286C379.42,-281.084 368.089,-275.926 359,-269 332.885,-249.1 312.524,-215.549 302.614,-194.049"/>
<polygon fill="midnightblue" stroke="midnightblue" points="305.726,-192.423 298.609,-184.575 299.279,-195.148 305.726,-192.423"/>
</g>
<!-- Node227 -->
<g id="node12" class="node"><title>Node227</title>
<g id="a_node12"><a xlink:href="structLCD.html#ae5873763db265cd00da32664cce88873" target="_top" xlink:title="LCD::s1Dat">
<polygon fill="white" stroke="black" points="755.5,-274.5 755.5,-293.5 824.5,-293.5 824.5,-274.5 755.5,-274.5"/>
<text text-anchor="middle" x="790" y="-281.5" font-family="Helvetica,sans-Serif" font-size="10.00">LCD::s1Dat</text>
</a>
</g>
</g>
<!-- Node226&#45;&gt;Node227 -->
<g id="edge19" class="edge"><title>Node226&#45;&gt;Node227</title>
<path fill="none" stroke="midnightblue" d="M454.205,-284C519.421,-284 670.296,-284 745.192,-284"/>
<polygon fill="midnightblue" stroke="midnightblue" points="745.239,-287.5 755.239,-284 745.239,-280.5 745.239,-287.5"/>
</g>
<!-- Node228 -->
<g id="node13" class="node"><title>Node228</title>
<g id="a_node13"><a xlink:href="structLCD.html#ad1a67d455563026a5064ef9cab86ae4d" target="_top" xlink:title="LCD::setCursor">
<polygon fill="white" stroke="black" points="521,-236.5 521,-255.5 607,-255.5 607,-236.5 521,-236.5"/>
<text text-anchor="middle" x="564" y="-243.5" font-family="Helvetica,sans-Serif" font-size="10.00">LCD::setCursor</text>
</a>
</g>
</g>
<!-- Node226&#45;&gt;Node228 -->
<g id="edge24" class="edge"><title>Node226&#45;&gt;Node228</title>
<path fill="none" stroke="midnightblue" d="M454.071,-275.567C472.831,-270.474 497.063,-263.897 517.906,-258.24"/>
<polygon fill="midnightblue" stroke="midnightblue" points="519.093,-261.544 527.827,-255.547 517.26,-254.789 519.093,-261.544"/>
</g>
<!-- Node227&#45;&gt;Node218 -->
<g id="edge21" class="edge"><title>Node227&#45;&gt;Node218</title>
<path fill="none" stroke="midnightblue" d="M824.827,-285.624C833.52,-286.041 843.158,-286.504 852.818,-286.967"/>
<polygon fill="midnightblue" stroke="midnightblue" points="852.698,-290.465 862.854,-287.449 853.034,-283.473 852.698,-290.465"/>
</g>
<!-- Node227&#45;&gt;Node219 -->
<g id="edge23" class="edge"><title>Node227&#45;&gt;Node219</title>
<path fill="none" stroke="midnightblue" d="M799.54,-274.347C812.293,-260.354 837.549,-234.23 863,-217 865.571,-215.26 868.282,-213.579 871.063,-211.968"/>
<polygon fill="midnightblue" stroke="midnightblue" points="872.972,-214.915 880.1,-207.076 869.639,-208.759 872.972,-214.915"/>
</g>
<!-- Node227&#45;&gt;Node220 -->
<g id="edge20" class="edge"><title>Node227&#45;&gt;Node220</title>
<path fill="none" stroke="midnightblue" d="M765.243,-293.652C696.231,-320.013 492.228,-385.918 359,-303 320.589,-279.094 304.918,-224.135 299.092,-194.609"/>
<polygon fill="midnightblue" stroke="midnightblue" points="302.518,-193.884 297.314,-184.656 295.627,-195.115 302.518,-193.884"/>
</g>
<!-- Node227&#45;&gt;Node223 -->
<g id="edge22" class="edge"><title>Node227&#45;&gt;Node223</title>
<path fill="none" stroke="midnightblue" d="M818.742,-274.457C831.604,-270.032 847.346,-264.617 862.387,-259.443"/>
<polygon fill="midnightblue" stroke="midnightblue" points="863.815,-262.653 872.133,-256.09 861.538,-256.034 863.815,-262.653"/>
</g>
<!-- Node228&#45;&gt;Node220 -->
<g id="edge25" class="edge"><title>Node228&#45;&gt;Node220</title>
<path fill="none" stroke="midnightblue" d="M520.816,-247.313C478.443,-247.209 412.008,-243.113 359,-222 341.695,-215.108 324.933,-202.203 313.055,-191.657"/>
<polygon fill="midnightblue" stroke="midnightblue" points="315.387,-189.047 305.665,-184.836 310.639,-194.19 315.387,-189.047"/>
</g>
<!-- Node228&#45;&gt;Node222 -->
<g id="edge29" class="edge"><title>Node228&#45;&gt;Node222</title>
<path fill="none" stroke="midnightblue" d="M607.245,-239.696C637.918,-234.762 680.302,-227.202 717,-218 728.617,-215.087 741.101,-211.328 752.359,-207.696"/>
<polygon fill="midnightblue" stroke="midnightblue" points="753.478,-211.012 761.883,-204.562 751.29,-204.363 753.478,-211.012"/>
</g>
<!-- Node228&#45;&gt;Node229 -->
<g id="edge26" class="edge"><title>Node228&#45;&gt;Node229</title>
<path fill="none" stroke="midnightblue" d="M588.07,-236.489C604.801,-229.591 627.666,-220.164 646.281,-212.489"/>
<polygon fill="midnightblue" stroke="midnightblue" points="647.662,-215.706 655.573,-208.658 644.994,-209.234 647.662,-215.706"/>
</g>
<!-- Node229&#45;&gt;Node220 -->
<g id="edge27" class="edge"><title>Node229&#45;&gt;Node220</title>
<path fill="none" stroke="midnightblue" d="M642.912,-200.887C570.293,-199.784 407.176,-189.584 333.446,-181.559"/>
<polygon fill="midnightblue" stroke="midnightblue" points="333.57,-178.05 323.237,-180.392 332.775,-185.005 333.57,-178.05"/>
</g>
<!-- Node229&#45;&gt;Node222 -->
<g id="edge28" class="edge"><title>Node229&#45;&gt;Node222</title>
<path fill="none" stroke="midnightblue" d="M717.263,-197.657C725.366,-197.357 734.069,-197.034 742.521,-196.721"/>
<polygon fill="midnightblue" stroke="midnightblue" points="742.785,-200.214 752.649,-196.346 742.526,-193.219 742.785,-200.214"/>
</g>
</g>
</svg>
