<?xml version="1.0" encoding="UTF-8" standalone="no"?>
<!DOCTYPE svg PUBLIC "-//W3C//DTD SVG 1.1//EN"
 "http://www.w3.org/Graphics/SVG/1.1/DTD/svg11.dtd">
<!-- Generated by graphviz version 2.38.0 (20140413.2041)
 -->
<!-- Title: LCD::s2Cmd Pages: 1 -->
<!--zoomable 343 -->
<svg id="main" version="1.1" xmlns="http://www.w3.org/2000/svg" xmlns:xlink="http://www.w3.org/1999/xlink" xml:space="preserve" onload="init(evt)">
<style type="text/css"><![CDATA[
.edge:hover path { stroke: red; }
.edge:hover polygon { stroke: red; fill: red; }
]]></style>
<script type="text/javascript"><![CDATA[
var edges = document.getElementsByTagName('g');
if (edges && edges.length) {
  for (var i=0;i<edges.length;i++) {
    if (edges[i].id.substr(0,4)=='edge') {
      edges[i].setAttribute('class','edge');
    }
  }
}
]]></script>
        <defs>
                <circle id="rim" cx="0" cy="0" r="7"/>
                <circle id="rim2" cx="0" cy="0" r="3.5"/>
                <g id="zoomPlus">
                        <use xlink:href="#rim" fill="#404040">
                                <set attributeName="fill" to="#808080" begin="zoomplus.mouseover" end="zoomplus.mouseout"/>
                        </use>
                        <path d="M-4,0h8M0,-4v8" fill="none" stroke="white" stroke-width="1.5" pointer-events="none"/>
                </g>
                <g id="zoomMin">
                        <use xlink:href="#rim" fill="#404040">
                                <set attributeName="fill" to="#808080" begin="zoomminus.mouseover" end="zoomminus.mouseout"/>
                        </use>
                        <path d="M-4,0h8" fill="none" stroke="white" stroke-width="1.5" pointer-events="none"/>
                </g>
                <g id="dirArrow">
                        <path fill="none" stroke="white" stroke-width="1.5" d="M0,-3.0v7 M-2.5,-0.5L0,-3.0L2.5,-0.5"/>
                </g>
               <g id="resetDef">
                       <use xlink:href="#rim2" fill="#404040">
                               <set attributeName="fill" to="#808080" begin="reset.mouseover" end="reset.mouseout"/>
                       </use>
               </g>
        </defs>

<script type="text/javascript">
var viewWidth = 864;
var viewHeight = 343;
var sectionId = 'dynsection-25';
</script>
<script xlink:href="svgpan.js"/>
<svg id="graph" class="graph">
<g id="viewport">
<title>LCD::s2Cmd</title>
<polygon fill="white" stroke="none" points="-4,4 -4,-339.011 860,-339.011 860,4 -4,4"/>
<!-- Node360 -->
<g id="node1" class="node"><title>Node360</title>
<polygon fill="#bfbfbf" stroke="black" points="0,-143.601 0,-162.601 74,-162.601 74,-143.601 0,-143.601"/>
<text text-anchor="middle" x="37" y="-150.601" font-family="Helvetica,sans-Serif" font-size="10.00">LCD::s2Cmd</text>
</g>
<!-- Node361 -->
<g id="node2" class="node"><title>Node361</title>
<g id="a_node2"><a xlink:href="structLCD.html#a75cacb94de3b3ff71e9a4497b5cc4a81" target="_top" xlink:title="LCD::changeBrightness">
<polygon fill="white" stroke="black" points="110,-190.601 110,-209.601 231,-209.601 231,-190.601 110,-190.601"/>
<text text-anchor="middle" x="170.5" y="-197.601" font-family="Helvetica,sans-Serif" font-size="10.00">LCD::changeBrightness</text>
</a>
</g>
</g>
<!-- Node360&#45;&gt;Node361 -->
<g id="edge1" class="edge"><title>Node360&#45;&gt;Node361</title>
<path fill="none" stroke="midnightblue" d="M74.1122,-166.008C95.7171,-173.73 122.721,-183.382 142.477,-190.443"/>
<polygon fill="midnightblue" stroke="midnightblue" points="75.2056,-162.682 64.611,-162.612 72.8496,-169.274 75.2056,-162.682"/>
</g>
<!-- Node362 -->
<g id="node3" class="node"><title>Node362</title>
<g id="a_node3"><a xlink:href="structLCD.html#a632d9c641930fe16c0b623b82136196e" target="_top" xlink:title="LCD::init">
<polygon fill="white" stroke="black" points="276,-146.601 276,-165.601 332,-165.601 332,-146.601 276,-146.601"/>
<text text-anchor="middle" x="304" y="-153.601" font-family="Helvetica,sans-Serif" font-size="10.00">LCD::init</text>
</a>
</g>
</g>
<!-- Node360&#45;&gt;Node362 -->
<g id="edge33" class="edge"><title>Node360&#45;&gt;Node362</title>
<path fill="none" stroke="midnightblue" d="M84.2702,-148.353C139.72,-146.724 230.786,-148.082 275.911,-151.505"/>
<polygon fill="midnightblue" stroke="midnightblue" points="83.8887,-144.864 74.0149,-148.706 84.1292,-151.86 83.8887,-144.864"/>
</g>
<!-- Node373 -->
<g id="node14" class="node"><title>Node373</title>
<g id="a_node14"><a xlink:href="structLCD.html#ad1a67d455563026a5064ef9cab86ae4d" target="_top" xlink:title="LCD::setCursor">
<polygon fill="white" stroke="black" points="518,-104.601 518,-123.601 604,-123.601 604,-104.601 518,-104.601"/>
<text text-anchor="middle" x="561" y="-111.601" font-family="Helvetica,sans-Serif" font-size="10.00">LCD::setCursor</text>
</a>
</g>
</g>
<!-- Node360&#45;&gt;Node373 -->
<g id="edge34" class="edge"><title>Node360&#45;&gt;Node373</title>
<path fill="none" stroke="midnightblue" d="M79.744,-140.901C155.623,-120.176 321.328,-81.5902 462,-95.101 481.321,-96.9567 502.494,-100.825 520.201,-104.591"/>
<polygon fill="midnightblue" stroke="midnightblue" points="78.7803,-137.536 70.0772,-143.578 80.6486,-144.282 78.7803,-137.536"/>
</g>
<!-- Node361&#45;&gt;Node362 -->
<g id="edge2" class="edge"><title>Node361&#45;&gt;Node362</title>
<path fill="none" stroke="midnightblue" d="M195.85,-186.572C218.512,-177.237 252.236,-165.884 275.778,-159.618"/>
<polygon fill="midnightblue" stroke="midnightblue" points="194.386,-183.391 186.585,-190.56 197.154,-189.821 194.386,-183.391"/>
</g>
<!-- Node375 -->
<g id="node16" class="node"><title>Node375</title>
<g id="a_node16"><a xlink:href="structLCD.html#a3f437907a543226be7c527a2d304ad95" target="_top" xlink:title="LCD::lightOff">
<polygon fill="white" stroke="black" points="267,-186.601 267,-205.601 341,-205.601 341,-186.601 267,-186.601"/>
<text text-anchor="middle" x="304" y="-193.601" font-family="Helvetica,sans-Serif" font-size="10.00">LCD::lightOff</text>
</a>
</g>
</g>
<!-- Node361&#45;&gt;Node375 -->
<g id="edge31" class="edge"><title>Node361&#45;&gt;Node375</title>
<path fill="none" stroke="midnightblue" d="M241.157,-197.982C250.065,-197.711 258.878,-197.443 266.937,-197.198"/>
<polygon fill="midnightblue" stroke="midnightblue" points="240.983,-194.486 231.094,-198.288 241.196,-201.483 240.983,-194.486"/>
</g>
<!-- Node376 -->
<g id="node17" class="node"><title>Node376</title>
<g id="a_node17"><a xlink:href="structLCD.html#aa4c1e7d41ca93af28769aaba704d5c1f" target="_top" xlink:title="LCD::lightOn">
<polygon fill="white" stroke="black" points="267,-224.601 267,-243.601 341,-243.601 341,-224.601 267,-224.601"/>
<text text-anchor="middle" x="304" y="-231.601" font-family="Helvetica,sans-Serif" font-size="10.00">LCD::lightOn</text>
</a>
</g>
</g>
<!-- Node361&#45;&gt;Node376 -->
<g id="edge32" class="edge"><title>Node361&#45;&gt;Node376</title>
<path fill="none" stroke="midnightblue" d="M218.169,-212.167C234.131,-216.295 251.736,-220.847 266.752,-224.729"/>
<polygon fill="midnightblue" stroke="midnightblue" points="219.038,-208.777 208.48,-209.662 217.285,-215.554 219.038,-208.777"/>
</g>
<!-- Node362&#45;&gt;Node360 -->
<g id="edge29" class="edge"><title>Node362&#45;&gt;Node360</title>
<path fill="none" stroke="midnightblue" d="M265.682,-160.547C214.789,-162.501 124.22,-161.454 74.0149,-158.311"/>
<polygon fill="midnightblue" stroke="midnightblue" points="266.079,-164.033 275.911,-160.084 265.763,-157.04 266.079,-164.033"/>
</g>
<!-- Node362&#45;&gt;Node361 -->
<g id="edge6" class="edge"><title>Node362&#45;&gt;Node361</title>
<path fill="none" stroke="midnightblue" d="M278.333,-169.761C261.853,-176.532 239.629,-184.343 219.719,-190.499"/>
<polygon fill="midnightblue" stroke="midnightblue" points="279.972,-172.866 287.779,-165.704 277.209,-166.435 279.972,-172.866"/>
</g>
<!-- Node363 -->
<g id="node4" class="node"><title>Node363</title>
<g id="a_node4"><a xlink:href="structLCD.html#aa01b7522d1e210f9cd071e3a5d4ae9e6" target="_top" xlink:title="LCD::changeBackground">
<polygon fill="white" stroke="black" points="498,-297.601 498,-316.601 624,-316.601 624,-297.601 498,-297.601"/>
<text text-anchor="middle" x="561" y="-304.601" font-family="Helvetica,sans-Serif" font-size="10.00">LCD::changeBackground</text>
</a>
</g>
</g>
<!-- Node362&#45;&gt;Node363 -->
<g id="edge3" class="edge"><title>Node362&#45;&gt;Node363</title>
<path fill="none" stroke="midnightblue" d="M339.79,-166.63C340.208,-167.111 340.612,-167.601 341,-168.101 376.732,-214.093 330.889,-258.523 377,-294.101 410.714,-320.114 459.273,-319.991 497.899,-315.256"/>
<polygon fill="midnightblue" stroke="midnightblue" points="341.84,-163.771 332.034,-159.761 337.199,-169.012 341.84,-163.771"/>
</g>
<!-- Node365 -->
<g id="node6" class="node"><title>Node365</title>
<g id="a_node6"><a xlink:href="structLCD.html#aa5e25fef7649532af402df06f05b6d4c" target="_top" xlink:title="LCD::changeID">
<polygon fill="white" stroke="black" points="377,-104.601 377,-123.601 462,-123.601 462,-104.601 377,-104.601"/>
<text text-anchor="middle" x="419.5" y="-111.601" font-family="Helvetica,sans-Serif" font-size="10.00">LCD::changeID</text>
</a>
</g>
</g>
<!-- Node362&#45;&gt;Node365 -->
<g id="edge7" class="edge"><title>Node362&#45;&gt;Node365</title>
<path fill="none" stroke="midnightblue" d="M340.286,-143.044C357.151,-136.803 376.981,-129.465 392.454,-123.739"/>
<polygon fill="midnightblue" stroke="midnightblue" points="338.919,-139.818 330.755,-146.571 341.348,-146.383 338.919,-139.818"/>
</g>
<!-- Node366 -->
<g id="node7" class="node"><title>Node366</title>
<g id="a_node7"><a xlink:href="structLCD.html#ad31ee94d401b7c28d6cc2f472e2eb8fd" target="_top" xlink:title="LCD::changeMode">
<polygon fill="white" stroke="black" points="512,-227.601 512,-246.601 610,-246.601 610,-227.601 512,-227.601"/>
<text text-anchor="middle" x="561" y="-234.601" font-family="Helvetica,sans-Serif" font-size="10.00">LCD::changeMode</text>
</a>
</g>
</g>
<!-- Node362&#45;&gt;Node366 -->
<g id="edge8" class="edge"><title>Node362&#45;&gt;Node366</title>
<path fill="none" stroke="midnightblue" d="M340.74,-167.928C340.826,-167.986 340.913,-168.044 341,-168.101 357.666,-179.158 358.665,-187.111 377,-195.101 421.393,-214.446 476.591,-222.451 514.691,-227.574"/>
<polygon fill="midnightblue" stroke="midnightblue" points="342.662,-165.003 332.332,-162.648 338.939,-170.931 342.662,-165.003"/>
</g>
<!-- Node367 -->
<g id="node8" class="node"><title>Node367</title>
<g id="a_node8"><a xlink:href="structLCD.html#ad3120f397273bac2ad60e0291554b9e6" target="_top" xlink:title="LCD::clear">
<polygon fill="white" stroke="black" points="675.5,-28.601 675.5,-47.601 739.5,-47.601 739.5,-28.601 675.5,-28.601"/>
<text text-anchor="middle" x="707.5" y="-35.601" font-family="Helvetica,sans-Serif" font-size="10.00">LCD::clear</text>
</a>
</g>
</g>
<!-- Node362&#45;&gt;Node367 -->
<g id="edge10" class="edge"><title>Node362&#45;&gt;Node367</title>
<path fill="none" stroke="midnightblue" d="M309.093,-136.628C317.252,-107.569 338.186,-55.1255 377,-33.101 481.24,26.049 635.539,-8.93407 688.153,-28.5269"/>
<polygon fill="midnightblue" stroke="midnightblue" points="305.653,-135.954 306.581,-146.508 312.437,-137.679 305.653,-135.954"/>
</g>
<!-- Node370 -->
<g id="node11" class="node"><title>Node370</title>
<g id="a_node11"><a xlink:href="structLCD.html#a0fd055c88888db0e52fea11f1df24d4a" target="_top" xlink:title="LCD::drawBitmap">
<polygon fill="white" stroke="black" points="660,-104.601 660,-123.601 755,-123.601 755,-104.601 660,-104.601"/>
<text text-anchor="middle" x="707.5" y="-111.601" font-family="Helvetica,sans-Serif" font-size="10.00">LCD::drawBitmap</text>
</a>
</g>
</g>
<!-- Node362&#45;&gt;Node370 -->
<g id="edge14" class="edge"><title>Node362&#45;&gt;Node370</title>
<path fill="none" stroke="midnightblue" d="M342.456,-156.475C374.295,-156.533 421.199,-156.002 462,-153.101 534.364,-147.957 552.556,-145.703 624,-133.101 638.764,-130.497 654.86,-126.952 668.883,-123.629"/>
<polygon fill="midnightblue" stroke="midnightblue" points="342.28,-152.975 332.267,-156.436 342.253,-159.975 342.28,-152.975"/>
</g>
<!-- Node371 -->
<g id="node12" class="node"><title>Node371</title>
<g id="a_node12"><a xlink:href="structLCD.html#ab1b68d883d80dc7b8810e602b7032767" target="_top" xlink:title="LCD::print">
<polygon fill="white" stroke="black" points="676.5,-66.601 676.5,-85.601 738.5,-85.601 738.5,-66.601 676.5,-66.601"/>
<text text-anchor="middle" x="707.5" y="-73.601" font-family="Helvetica,sans-Serif" font-size="10.00">LCD::print</text>
</a>
</g>
</g>
<!-- Node362&#45;&gt;Node371 -->
<g id="edge16" class="edge"><title>Node362&#45;&gt;Node371</title>
<path fill="none" stroke="midnightblue" d="M315.054,-137.797C327.012,-117.974 348.933,-87.1712 377,-72.101 475.538,-19.1929 615.737,-49.4264 676.5,-66.6715"/>
<polygon fill="midnightblue" stroke="midnightblue" points="311.98,-136.121 310.001,-146.529 318.039,-139.627 311.98,-136.121"/>
</g>
<!-- Node372 -->
<g id="node13" class="node"><title>Node372</title>
<g id="a_node13"><a xlink:href="structLCD.html#a739998fad0591a092255676c8c8d532f" target="_top" xlink:title="LCD::s1Cmd">
<polygon fill="white" stroke="black" points="382.5,-274.601 382.5,-293.601 456.5,-293.601 456.5,-274.601 382.5,-274.601"/>
<text text-anchor="middle" x="419.5" y="-281.601" font-family="Helvetica,sans-Serif" font-size="10.00">LCD::s1Cmd</text>
</a>
</g>
</g>
<!-- Node362&#45;&gt;Node372 -->
<g id="edge17" class="edge"><title>Node362&#45;&gt;Node372</title>
<path fill="none" stroke="midnightblue" d="M335.103,-171.551C337.234,-173.262 339.235,-175.112 341,-177.101 367.694,-207.171 350.25,-230.081 377,-260.101 382.205,-265.942 389.183,-270.729 395.93,-274.449"/>
<polygon fill="midnightblue" stroke="midnightblue" points="336.684,-168.393 326.451,-165.646 332.738,-174.174 336.684,-168.393"/>
</g>
<!-- Node362&#45;&gt;Node373 -->
<g id="edge30" class="edge"><title>Node362&#45;&gt;Node373</title>
<path fill="none" stroke="midnightblue" d="M342.198,-151.143C374.058,-146.779 421.131,-140.053 462,-133.101 480.281,-129.991 500.401,-126.162 517.629,-122.758"/>
<polygon fill="midnightblue" stroke="midnightblue" points="341.444,-147.713 332.007,-152.529 342.388,-154.649 341.444,-147.713"/>
</g>
<!-- Node374 -->
<g id="node15" class="node"><title>Node374</title>
<g id="a_node15"><a xlink:href="structLCD.html#ae5873763db265cd00da32664cce88873" target="_top" xlink:title="LCD::s1Dat">
<polygon fill="white" stroke="black" points="526.5,-66.601 526.5,-85.601 595.5,-85.601 595.5,-66.601 526.5,-66.601"/>
<text text-anchor="middle" x="561" y="-73.601" font-family="Helvetica,sans-Serif" font-size="10.00">LCD::s1Dat</text>
</a>
</g>
</g>
<!-- Node362&#45;&gt;Node374 -->
<g id="edge25" class="edge"><title>Node362&#45;&gt;Node374</title>
<path fill="none" stroke="midnightblue" d="M320.059,-138.48C333.431,-124.149 354.325,-104.773 377,-95.101 425.919,-74.2356 488.615,-72.4744 526.475,-73.7932"/>
<polygon fill="midnightblue" stroke="midnightblue" points="317.18,-136.447 313.097,-146.224 322.386,-141.127 317.18,-136.447"/>
</g>
<!-- Node363&#45;&gt;Node362 -->
<g id="edge4" class="edge"><title>Node363&#45;&gt;Node362</title>
<path fill="none" stroke="midnightblue" d="M535.531,-320.526C497.358,-334.3 423.225,-347.768 377,-312.101 330.889,-276.523 376.732,-232.093 341,-186.101 333.897,-176.959 321.61,-171.041 313.394,-165.691"/>
<polygon fill="midnightblue" stroke="midnightblue" points="537.275,-323.601 545.292,-316.673 534.705,-317.089 537.275,-323.601"/>
</g>
<!-- Node364 -->
<g id="node5" class="node"><title>Node364</title>
<g id="a_node5"><a xlink:href="dancing__dragon_8cpp.html#a840291bc02cba5474a4cb46a9b9566fe" target="_top" xlink:title="main">
<polygon fill="white" stroke="black" points="804.5,-104.601 804.5,-123.601 842.5,-123.601 842.5,-104.601 804.5,-104.601"/>
<text text-anchor="middle" x="823.5" y="-111.601" font-family="Helvetica,sans-Serif" font-size="10.00">main</text>
</a>
</g>
</g>
<!-- Node363&#45;&gt;Node364 -->
<g id="edge5" class="edge"><title>Node363&#45;&gt;Node364</title>
<path fill="none" stroke="midnightblue" d="M583.071,-291.49C634.909,-253.084 767.467,-154.874 809.504,-123.73"/>
<polygon fill="midnightblue" stroke="midnightblue" points="580.87,-288.765 574.918,-297.53 585.037,-294.389 580.87,-288.765"/>
</g>
<!-- Node366&#45;&gt;Node362 -->
<g id="edge9" class="edge"><title>Node366&#45;&gt;Node362</title>
<path fill="none" stroke="midnightblue" d="M501.875,-241.239C464.874,-238.603 416.631,-230.371 377,-213.101 358.665,-205.111 357.666,-197.158 341,-186.101 330.75,-179.301 318.238,-172.271 310.988,-165.681"/>
<polygon fill="midnightblue" stroke="midnightblue" points="501.807,-244.741 511.996,-241.837 502.22,-237.753 501.807,-244.741"/>
</g>
<!-- Node367&#45;&gt;Node362 -->
<g id="edge11" class="edge"><title>Node367&#45;&gt;Node362</title>
<path fill="none" stroke="midnightblue" d="M665.363,-32.328C599.6,-19.9533 468.862,1.02529 377,-51.101 338.725,-72.82 317.836,-124.12 309.44,-146.277"/>
<polygon fill="midnightblue" stroke="midnightblue" points="664.865,-35.7961 675.344,-34.2277 666.174,-28.9195 664.865,-35.7961"/>
</g>
<!-- Node368 -->
<g id="node9" class="node"><title>Node368</title>
<g id="a_node9"><a xlink:href="lcd__debug_8cpp.html#ae66f6b31b5ad750f1fe042a706a4e3d4" target="_top" xlink:title="main">
<polygon fill="white" stroke="black" points="804.5,-9.60102 804.5,-28.601 842.5,-28.601 842.5,-9.60102 804.5,-9.60102"/>
<text text-anchor="middle" x="823.5" y="-16.601" font-family="Helvetica,sans-Serif" font-size="10.00">main</text>
</a>
</g>
</g>
<!-- Node367&#45;&gt;Node368 -->
<g id="edge12" class="edge"><title>Node367&#45;&gt;Node368</title>
<path fill="none" stroke="midnightblue" d="M749.72,-31.231C768.401,-28.1175 789.537,-24.5948 804.2,-22.1511"/>
<polygon fill="midnightblue" stroke="midnightblue" points="748.94,-27.8127 739.651,-32.9092 750.09,-34.7175 748.94,-27.8127"/>
</g>
<!-- Node369 -->
<g id="node10" class="node"><title>Node369</title>
<g id="a_node10"><a xlink:href="structLCD.html#a7912ad9a12d649cdec2dd53ae893a8ce" target="_top" xlink:title="LCD::reset">
<polygon fill="white" stroke="black" points="791,-47.601 791,-66.601 856,-66.601 856,-47.601 791,-47.601"/>
<text text-anchor="middle" x="823.5" y="-54.601" font-family="Helvetica,sans-Serif" font-size="10.00">LCD::reset</text>
</a>
</g>
</g>
<!-- Node367&#45;&gt;Node369 -->
<g id="edge13" class="edge"><title>Node367&#45;&gt;Node369</title>
<path fill="none" stroke="midnightblue" d="M749.74,-44.9744C763.339,-47.2409 778.237,-49.7238 790.991,-51.8494"/>
<polygon fill="midnightblue" stroke="midnightblue" points="750.09,-41.4845 739.651,-43.2929 748.94,-48.3893 750.09,-41.4845"/>
</g>
<!-- Node370&#45;&gt;Node364 -->
<g id="edge15" class="edge"><title>Node370&#45;&gt;Node364</title>
<path fill="none" stroke="midnightblue" d="M765.458,-114.101C779.619,-114.101 793.783,-114.101 804.455,-114.101"/>
<polygon fill="midnightblue" stroke="midnightblue" points="765.197,-110.601 755.197,-114.101 765.197,-117.601 765.197,-110.601"/>
</g>
<!-- Node372&#45;&gt;Node360 -->
<g id="edge20" class="edge"><title>Node372&#45;&gt;Node360</title>
<path fill="none" stroke="midnightblue" d="M372.217,-282.013C309.533,-277.529 195.647,-263.429 110,-219.101 82.5916,-204.915 57.7634,-177.541 45.6998,-162.901"/>
<polygon fill="midnightblue" stroke="midnightblue" points="371.987,-285.505 382.197,-282.676 372.451,-278.52 371.987,-285.505"/>
</g>
<!-- Node372&#45;&gt;Node363 -->
<g id="edge18" class="edge"><title>Node372&#45;&gt;Node363</title>
<path fill="none" stroke="midnightblue" d="M466.893,-291.75C478.225,-293.618 490.486,-295.64 502.275,-297.584"/>
<polygon fill="midnightblue" stroke="midnightblue" points="467.224,-288.257 456.788,-290.084 466.085,-295.164 467.224,-288.257"/>
</g>
<!-- Node372&#45;&gt;Node366 -->
<g id="edge19" class="edge"><title>Node372&#45;&gt;Node366</title>
<path fill="none" stroke="midnightblue" d="M458.5,-271.298C481.47,-263.559 510.281,-253.852 531.333,-246.759"/>
<polygon fill="midnightblue" stroke="midnightblue" points="457.089,-268.08 448.73,-274.59 459.324,-274.714 457.089,-268.08"/>
</g>
<!-- Node372&#45;&gt;Node373 -->
<g id="edge21" class="edge"><title>Node372&#45;&gt;Node373</title>
<path fill="none" stroke="midnightblue" d="M435.027,-266.398C464.333,-230.684 529.661,-151.073 552.187,-123.622"/>
<polygon fill="midnightblue" stroke="midnightblue" points="432.038,-264.523 428.4,-274.474 437.449,-268.964 432.038,-264.523"/>
</g>
<!-- Node373&#45;&gt;Node367 -->
<g id="edge22" class="edge"><title>Node373&#45;&gt;Node367</title>
<path fill="none" stroke="midnightblue" d="M613.179,-100.789C616.946,-99.0986 620.599,-97.2094 624,-95.101 643.774,-82.8441 640.801,-70.2402 660,-57.101 665.326,-53.4563 671.458,-50.3311 677.485,-47.7296"/>
<polygon fill="midnightblue" stroke="midnightblue" points="611.642,-97.6338 603.652,-104.592 614.237,-104.135 611.642,-97.6338"/>
</g>
<!-- Node373&#45;&gt;Node370 -->
<g id="edge24" class="edge"><title>Node373&#45;&gt;Node370</title>
<path fill="none" stroke="midnightblue" d="M614.291,-114.101C629.226,-114.101 645.395,-114.101 659.961,-114.101"/>
<polygon fill="midnightblue" stroke="midnightblue" points="614.184,-110.601 604.184,-114.101 614.184,-117.601 614.184,-110.601"/>
</g>
<!-- Node373&#45;&gt;Node371 -->
<g id="edge23" class="edge"><title>Node373&#45;&gt;Node371</title>
<path fill="none" stroke="midnightblue" d="M608.396,-101.9C630.673,-96.0417 656.727,-89.1902 676.384,-84.0208"/>
<polygon fill="midnightblue" stroke="midnightblue" points="607.244,-98.5837 598.463,-104.512 609.025,-105.354 607.244,-98.5837"/>
</g>
<!-- Node374&#45;&gt;Node367 -->
<g id="edge26" class="edge"><title>Node374&#45;&gt;Node367</title>
<path fill="none" stroke="midnightblue" d="M605.471,-64.6692C627.904,-58.7698 654.763,-51.7067 675.146,-46.3465"/>
<polygon fill="midnightblue" stroke="midnightblue" points="604.295,-61.3593 595.514,-67.2875 606.076,-68.1291 604.295,-61.3593"/>
</g>
<!-- Node374&#45;&gt;Node370 -->
<g id="edge27" class="edge"><title>Node374&#45;&gt;Node370</title>
<path fill="none" stroke="midnightblue" d="M605.32,-87.493C625.989,-92.9285 650.441,-99.3589 670.13,-104.537"/>
<polygon fill="midnightblue" stroke="midnightblue" points="606.076,-84.0729 595.514,-84.9145 604.295,-90.8428 606.076,-84.0729"/>
</g>
<!-- Node374&#45;&gt;Node371 -->
<g id="edge28" class="edge"><title>Node374&#45;&gt;Node371</title>
<path fill="none" stroke="midnightblue" d="M605.614,-76.101C628.378,-76.101 655.667,-76.101 676.12,-76.101"/>
<polygon fill="midnightblue" stroke="midnightblue" points="605.514,-72.6011 595.514,-76.101 605.514,-79.6011 605.514,-72.6011"/>
</g>
</g>
</svg>
        <g id="navigator" transform="translate(0 0)" fill="#404254">
                <rect fill="#f2f5e9" fill-opacity="0.5" stroke="#606060" stroke-width=".5" x="0" y="0" width="60" height="60"/>
                <use id="zoomplus" xlink:href="#zoomPlus" x="17" y="9" onmousedown="handleZoom(evt,'in')"/>
                <use id="zoomminus" xlink:href="#zoomMin" x="42" y="9" onmousedown="handleZoom(evt,'out')"/>
                <use id="reset" xlink:href="#resetDef" x="30" y="36" onmousedown="handleReset()"/>
                <g id="arrowUp" xlink:href="#dirArrow" transform="translate(30 24)" onmousedown="handlePan(0,-1)">
                  <use xlink:href="#rim" fill="#404040">
                        <set attributeName="fill" to="#808080" begin="arrowUp.mouseover" end="arrowUp.mouseout"/>
                  </use>
                  <path fill="none" stroke="white" stroke-width="1.5" d="M0,-3.0v7 M-2.5,-0.5L0,-3.0L2.5,-0.5"/>
                </g>
                <g id="arrowRight" xlink:href="#dirArrow" transform="rotate(90) translate(36 -43)" onmousedown="handlePan(1,0)">
                  <use xlink:href="#rim" fill="#404040">
                        <set attributeName="fill" to="#808080" begin="arrowRight.mouseover" end="arrowRight.mouseout"/>
                  </use>
                  <path fill="none" stroke="white" stroke-width="1.5" d="M0,-3.0v7 M-2.5,-0.5L0,-3.0L2.5,-0.5"/>
                </g>
                <g id="arrowDown" xlink:href="#dirArrow" transform="rotate(180) translate(-30 -48)" onmousedown="handlePan(0,1)">
                  <use xlink:href="#rim" fill="#404040">
                        <set attributeName="fill" to="#808080" begin="arrowDown.mouseover" end="arrowDown.mouseout"/>
                  </use>
                  <path fill="none" stroke="white" stroke-width="1.5" d="M0,-3.0v7 M-2.5,-0.5L0,-3.0L2.5,-0.5"/>
                </g>
                <g id="arrowLeft" xlink:href="#dirArrow" transform="rotate(270) translate(-36 17)" onmousedown="handlePan(-1,0)">
                  <use xlink:href="#rim" fill="#404040">
                        <set attributeName="fill" to="#808080" begin="arrowLeft.mouseover" end="arrowLeft.mouseout"/>
                  </use>
                  <path fill="none" stroke="white" stroke-width="1.5" d="M0,-3.0v7 M-2.5,-0.5L0,-3.0L2.5,-0.5"/>
                </g>
        </g>
        <svg viewBox="0 0 15 15" width="100%" height="30px" preserveAspectRatio="xMaxYMin meet">
         <g id="arrow_out" transform="scale(0.3 0.3)">
          <a xlink:href="structLCD_ae7a8d9bc1581cfeeb0f098c8bb6d1229_icgraph_org.svg" target="_base">
           <rect id="button" ry="5" rx="5" y="6" x="6" height="38" width="38"
                fill="#f2f5e9" fill-opacity="0.5" stroke="#606060" stroke-width="1.0"/>
           <path id="arrow"
             d="M 11.500037,31.436501 C 11.940474,20.09759 22.043105,11.32322 32.158766,21.979434 L 37.068811,17.246167 C 37.068811,17.246167 37.088388,32 37.088388,32 L 22.160133,31.978069 C 22.160133,31.978069 26.997745,27.140456 26.997745,27.140456 C 18.528582,18.264221 13.291696,25.230495 11.500037,31.436501 z"
             style="fill:#404040;"/>
          </a>
         </g>
        </svg>
</svg>
