<?xml version="1.0" encoding="UTF-8" standalone="no"?>
<!DOCTYPE svg PUBLIC "-//W3C//DTD SVG 1.1//EN"
 "http://www.w3.org/Graphics/SVG/1.1/DTD/svg11.dtd">
<!-- Generated by graphviz version 2.38.0 (20140413.2041)
 -->
<!-- Title: LCD::lightOn Pages: 1 -->
<svg width="168pt" height="46pt"
 viewBox="0.00 0.00 168.00 46.00" xmlns="http://www.w3.org/2000/svg" xmlns:xlink="http://www.w3.org/1999/xlink">
<g id="graph0" class="graph" transform="scale(1 1) rotate(0) translate(4 42)">
<title>LCD::lightOn</title>
<polygon fill="white" stroke="none" points="-4,4 -4,-42 164,-42 164,4 -4,4"/>
<!-- Node33 -->
<g id="node1" class="node"><title>Node33</title>
<polygon fill="#bfbfbf" stroke="black" points="0,-0.5 0,-19.5 74,-19.5 74,-0.5 0,-0.5"/>
<text text-anchor="middle" x="37" y="-7.5" font-family="Helvetica,sans-Serif" font-size="10.00">LCD::lightOn</text>
</g>
<!-- Node34 -->
<g id="node2" class="node"><title>Node34</title>
<g id="a_node2"><a xlink:href="eBoard__comment_8h.html#aca4f96af7c6736bf2b61c88d731af741" target="_top" xlink:title="read a digital state from an INPUTpin ">
<polygon fill="white" stroke="black" points="110,-0.5 110,-19.5 160,-19.5 160,-0.5 110,-0.5"/>
<text text-anchor="middle" x="135" y="-7.5" font-family="Helvetica,sans-Serif" font-size="10.00">readPin</text>
</a>
</g>
</g>
<!-- Node33&#45;&gt;Node34 -->
<g id="edge1" class="edge"><title>Node33&#45;&gt;Node34</title>
<path fill="none" stroke="midnightblue" d="M84.2541,-10C93.0634,-10 101.951,-10 109.729,-10"/>
<polygon fill="midnightblue" stroke="midnightblue" points="84.02,-6.5001 74.02,-10 84.02,-13.5001 84.02,-6.5001"/>
</g>
<!-- Node34&#45;&gt;Node34 -->
<g id="edge2" class="edge"><title>Node34&#45;&gt;Node34</title>
<path fill="none" stroke="midnightblue" d="M116.853,-29.4C118.065,-34.3146 124.114,-38 135,-38 152.418,-38 157.453,-28.5653 150.105,-19.7571"/>
<polygon fill="midnightblue" stroke="midnightblue" points="120.224,-30.3468 119.895,-19.7571 113.548,-28.2404 120.224,-30.3468"/>
</g>
</g>
</svg>
