<?xml version="1.0" encoding="UTF-8" standalone="no"?>
<!DOCTYPE svg PUBLIC "-//W3C//DTD SVG 1.1//EN"
 "http://www.w3.org/Graphics/SVG/1.1/DTD/svg11.dtd">
<!-- Generated by graphviz version 2.40.1 (20161225.0304)
 -->
<!-- Title: NeoPixel::setPixelColor Pages: 1 -->
<svg width="335pt" height="28pt"
 viewBox="0.00 0.00 335.00 28.00" xmlns="http://www.w3.org/2000/svg" xmlns:xlink="http://www.w3.org/1999/xlink">
<g id="graph0" class="graph" transform="scale(1 1) rotate(0) translate(4 24)">
<title>NeoPixel::setPixelColor</title>
<polygon fill="#ffffff" stroke="transparent" points="-4,4 -4,-24 331,-24 331,4 -4,4"/>
<!-- Node35 -->
<g id="node1" class="node">
<title>Node35</title>
<polygon fill="#bfbfbf" stroke="#000000" points="0,-.5 0,-19.5 155,-19.5 155,-.5 0,-.5"/>
<text text-anchor="middle" x="77.5" y="-7.5" font-family="Hack" font-size="10.00" fill="#000000">NeoPixel::setPixelColor</text>
</g>
<!-- Node36 -->
<g id="node2" class="node">
<title>Node36</title>
<g id="a_node2"><a xlink:href="neo__animation_8cpp.html#af16b42fccab1fb1eaf3658e792035c42" target="_top" xlink:title="this will perform a single shift operation! ">
<polygon fill="#ffffff" stroke="#000000" points="191,-.5 191,-19.5 250,-19.5 250,-.5 191,-.5"/>
<text text-anchor="middle" x="220.5" y="-7.5" font-family="Hack" font-size="10.00" fill="#000000">shiftPx</text>
</a>
</g>
</g>
<!-- Node35&#45;&gt;Node36 -->
<g id="edge1" class="edge">
<title>Node35&#45;&gt;Node36</title>
<path fill="none" stroke="#191970" d="M165.3172,-10C174.4619,-10 183.2304,-10 190.9801,-10"/>
<polygon fill="#191970" stroke="#191970" points="165.277,-6.5001 155.277,-10 165.277,-13.5001 165.277,-6.5001"/>
</g>
<!-- Node37 -->
<g id="node3" class="node">
<title>Node37</title>
<g id="a_node3"><a xlink:href="neo__animation_8cpp.html#ae66f6b31b5ad750f1fe042a706a4e3d4" target="_top" xlink:title="main">
<polygon fill="#ffffff" stroke="#000000" points="286,-.5 286,-19.5 327,-19.5 327,-.5 286,-.5"/>
<text text-anchor="middle" x="306.5" y="-7.5" font-family="Hack" font-size="10.00" fill="#000000">main</text>
</a>
</g>
</g>
<!-- Node36&#45;&gt;Node37 -->
<g id="edge2" class="edge">
<title>Node36&#45;&gt;Node37</title>
<path fill="none" stroke="#191970" d="M260.2801,-10C269.1028,-10 278.1072,-10 285.7966,-10"/>
<polygon fill="#191970" stroke="#191970" points="260.0964,-6.5001 250.0963,-10 260.0963,-13.5001 260.0964,-6.5001"/>
</g>
</g>
</svg>
