<?xml version="1.0" encoding="UTF-8" standalone="no"?>
<!DOCTYPE svg PUBLIC "-//W3C//DTD SVG 1.1//EN"
 "http://www.w3.org/Graphics/SVG/1.1/DTD/svg11.dtd">
<!-- Generated by graphviz version 2.38.0 (20140413.2041)
 -->
<!-- Title: SoccerBoard::ledsOff Pages: 1 -->
<svg width="204pt" height="46pt"
 viewBox="0.00 0.00 204.00 46.00" xmlns="http://www.w3.org/2000/svg" xmlns:xlink="http://www.w3.org/1999/xlink">
<g id="graph0" class="graph" transform="scale(1 1) rotate(0) translate(4 42)">
<title>SoccerBoard::ledsOff</title>
<polygon fill="white" stroke="none" points="-4,4 -4,-42 200,-42 200,4 -4,4"/>
<!-- Node25 -->
<g id="node1" class="node"><title>Node25</title>
<polygon fill="#bfbfbf" stroke="black" points="0,-0.5 0,-19.5 110,-19.5 110,-0.5 0,-0.5"/>
<text text-anchor="middle" x="55" y="-7.5" font-family="Helvetica,sans-Serif" font-size="10.00">SoccerBoard::ledsOff</text>
</g>
<!-- Node26 -->
<g id="node2" class="node"><title>Node26</title>
<g id="a_node2"><a xlink:href="eBoard__comment_8h.html#aca4f96af7c6736bf2b61c88d731af741" target="_top" xlink:title="read a digital state from an INPUTpin ">
<polygon fill="white" stroke="black" points="146,-0.5 146,-19.5 196,-19.5 196,-0.5 146,-0.5"/>
<text text-anchor="middle" x="171" y="-7.5" font-family="Helvetica,sans-Serif" font-size="10.00">readPin</text>
</a>
</g>
</g>
<!-- Node25&#45;&gt;Node26 -->
<g id="edge1" class="edge"><title>Node25&#45;&gt;Node26</title>
<path fill="none" stroke="midnightblue" d="M120.574,-10C129.594,-10 138.357,-10 145.937,-10"/>
<polygon fill="midnightblue" stroke="midnightblue" points="120.329,-6.5001 110.329,-10 120.329,-13.5001 120.329,-6.5001"/>
</g>
<!-- Node26&#45;&gt;Node26 -->
<g id="edge2" class="edge"><title>Node26&#45;&gt;Node26</title>
<path fill="none" stroke="midnightblue" d="M149.52,-29.4C150.954,-34.3146 158.114,-38 171,-38 191.617,-38 197.577,-28.5653 188.879,-19.7571"/>
<polygon fill="midnightblue" stroke="midnightblue" points="152.901,-30.3496 153.121,-19.7571 146.343,-27.9004 152.901,-30.3496"/>
</g>
</g>
</svg>
