<?xml version="1.0" encoding="UTF-8" standalone="no"?>
<!DOCTYPE svg PUBLIC "-//W3C//DTD SVG 1.1//EN"
 "http://www.w3.org/Graphics/SVG/1.1/DTD/svg11.dtd">
<!-- Generated by graphviz version 2.38.0 (20140413.2041)
 -->
<!-- Title: SoccerBoard::power Pages: 1 -->
<svg width="268pt" height="66pt"
 viewBox="0.00 0.00 268.00 66.00" xmlns="http://www.w3.org/2000/svg" xmlns:xlink="http://www.w3.org/1999/xlink">
<g id="graph0" class="graph" transform="scale(1 1) rotate(0) translate(4 62)">
<title>SoccerBoard::power</title>
<polygon fill="white" stroke="none" points="-4,4 -4,-62 264,-62 264,4 -4,4"/>
<!-- Node103 -->
<g id="node1" class="node"><title>Node103</title>
<polygon fill="#bfbfbf" stroke="black" points="0,-19.5 0,-38.5 105,-38.5 105,-19.5 0,-19.5"/>
<text text-anchor="middle" x="52.5" y="-26.5" font-family="Helvetica,sans-Serif" font-size="10.00">SoccerBoard::power</text>
</g>
<!-- Node104 -->
<g id="node2" class="node"><title>Node104</title>
<g id="a_node2"><a xlink:href="structSoccerBoard.html#a5442e3a7ca58ed90d9e4af0cac83ebdd" target="_top" xlink:title="SoccerBoard::powerOff">
<polygon fill="white" stroke="black" points="141,-38.5 141,-57.5 260,-57.5 260,-38.5 141,-38.5"/>
<text text-anchor="middle" x="200.5" y="-45.5" font-family="Helvetica,sans-Serif" font-size="10.00">SoccerBoard::powerOff</text>
</a>
</g>
</g>
<!-- Node103&#45;&gt;Node104 -->
<g id="edge1" class="edge"><title>Node103&#45;&gt;Node104</title>
<path fill="none" stroke="midnightblue" d="M115.496,-37.068C123.891,-38.1605 132.485,-39.2789 140.82,-40.3635"/>
<polygon fill="midnightblue" stroke="midnightblue" points="115.753,-33.572 105.385,-35.7522 114.85,-40.5135 115.753,-33.572"/>
</g>
<!-- Node105 -->
<g id="node3" class="node"><title>Node105</title>
<g id="a_node3"><a xlink:href="structSoccerBoard.html#aa46822d5b727bf3e427c5ceba995f42f" target="_top" xlink:title="SoccerBoard::powerOn">
<polygon fill="white" stroke="black" points="141.5,-0.5 141.5,-19.5 259.5,-19.5 259.5,-0.5 141.5,-0.5"/>
<text text-anchor="middle" x="200.5" y="-7.5" font-family="Helvetica,sans-Serif" font-size="10.00">SoccerBoard::powerOn</text>
</a>
</g>
</g>
<!-- Node103&#45;&gt;Node105 -->
<g id="edge2" class="edge"><title>Node103&#45;&gt;Node105</title>
<path fill="none" stroke="midnightblue" d="M115.362,-20.9495C123.968,-19.8295 132.786,-18.682 141.322,-17.5712"/>
<polygon fill="midnightblue" stroke="midnightblue" points="114.85,-17.4865 105.385,-22.2478 115.753,-24.428 114.85,-17.4865"/>
</g>
</g>
</svg>
