<?xml version="1.0" encoding="UTF-8" standalone="no"?>
<!DOCTYPE svg PUBLIC "-//W3C//DTD SVG 1.1//EN"
 "http://www.w3.org/Graphics/SVG/1.1/DTD/svg11.dtd">
<!-- Generated by graphviz version 2.38.0 (20140413.2041)
 -->
<!-- Title: LCD::s1Dat Pages: 1 -->
<!--zoomable 406 -->
<svg id="main" version="1.1" xmlns="http://www.w3.org/2000/svg" xmlns:xlink="http://www.w3.org/1999/xlink" xml:space="preserve" onload="init(evt)">
<style type="text/css"><![CDATA[
.edge:hover path { stroke: red; }
.edge:hover polygon { stroke: red; fill: red; }
]]></style>
<script type="text/javascript"><![CDATA[
var edges = document.getElementsByTagName('g');
if (edges && edges.length) {
  for (var i=0;i<edges.length;i++) {
    if (edges[i].id.substr(0,4)=='edge') {
      edges[i].setAttribute('class','edge');
    }
  }
}
]]></script>
        <defs>
                <circle id="rim" cx="0" cy="0" r="7"/>
                <circle id="rim2" cx="0" cy="0" r="3.5"/>
                <g id="zoomPlus">
                        <use xlink:href="#rim" fill="#404040">
                                <set attributeName="fill" to="#808080" begin="zoomplus.mouseover" end="zoomplus.mouseout"/>
                        </use>
                        <path d="M-4,0h8M0,-4v8" fill="none" stroke="white" stroke-width="1.5" pointer-events="none"/>
                </g>
                <g id="zoomMin">
                        <use xlink:href="#rim" fill="#404040">
                                <set attributeName="fill" to="#808080" begin="zoomminus.mouseover" end="zoomminus.mouseout"/>
                        </use>
                        <path d="M-4,0h8" fill="none" stroke="white" stroke-width="1.5" pointer-events="none"/>
                </g>
                <g id="dirArrow">
                        <path fill="none" stroke="white" stroke-width="1.5" d="M0,-3.0v7 M-2.5,-0.5L0,-3.0L2.5,-0.5"/>
                </g>
               <g id="resetDef">
                       <use xlink:href="#rim2" fill="#404040">
                               <set attributeName="fill" to="#808080" begin="reset.mouseover" end="reset.mouseout"/>
                       </use>
               </g>
        </defs>

<script type="text/javascript">
var viewWidth = 958;
var viewHeight = 406;
var sectionId = 'dynsection-22';
</script>
<script xlink:href="svgpan.js"/>
<svg id="graph" class="graph">
<g id="viewport">
<title>LCD::s1Dat</title>
<polygon fill="white" stroke="none" points="-4,4 -4,-402.18 954,-402.18 954,4 -4,4"/>
<!-- Node315 -->
<g id="node1" class="node"><title>Node315</title>
<polygon fill="#bfbfbf" stroke="black" points="0,-66.6799 0,-85.6799 69,-85.6799 69,-66.6799 0,-66.6799"/>
<text text-anchor="middle" x="34.5" y="-73.6799" font-family="Helvetica,sans-Serif" font-size="10.00">LCD::s1Dat</text>
</g>
<!-- Node316 -->
<g id="node2" class="node"><title>Node316</title>
<g id="a_node2"><a xlink:href="classeagle__impl_1_1TwoWire.html#a1876ffdb16fb185c14a75e1251cef5e4" target="_top" xlink:title="eagle_impl::TwoWire\l::beginTransmission">
<polygon fill="white" stroke="black" points="736,-345.18 736,-375.18 844,-375.18 844,-345.18 736,-345.18"/>
<text text-anchor="start" x="744" y="-363.18" font-family="Helvetica,sans-Serif" font-size="10.00">eagle_impl::TwoWire</text>
<text text-anchor="middle" x="790" y="-352.18" font-family="Helvetica,sans-Serif" font-size="10.00">::beginTransmission</text>
</a>
</g>
</g>
<!-- Node315&#45;&gt;Node316 -->
<g id="edge1" class="edge"><title>Node315&#45;&gt;Node316</title>
<path fill="none" stroke="midnightblue" d="M37.1685,-85.8167C47.0438,-139.394 102.827,-398.18 259,-398.18 259,-398.18 259,-398.18 554,-398.18 612.718,-398.18 678.642,-386.476 725.688,-376.059"/>
<polygon fill="midnightblue" stroke="midnightblue" points="726.746,-379.408 735.729,-373.791 725.204,-372.58 726.746,-379.408"/>
</g>
<!-- Node317 -->
<g id="node3" class="node"><title>Node317</title>
<g id="a_node3"><a xlink:href="classeagle__impl_1_1TwoWire.html#af80f9a7b85a3a81a035ca94c95bcdc1d" target="_top" xlink:title="eagle_impl::TwoWire\l::endTransmission">
<polygon fill="white" stroke="black" points="736,-184.18 736,-214.18 844,-214.18 844,-184.18 736,-184.18"/>
<text text-anchor="start" x="744" y="-202.18" font-family="Helvetica,sans-Serif" font-size="10.00">eagle_impl::TwoWire</text>
<text text-anchor="middle" x="790" y="-191.18" font-family="Helvetica,sans-Serif" font-size="10.00">::endTransmission</text>
</a>
</g>
</g>
<!-- Node315&#45;&gt;Node317 -->
<g id="edge2" class="edge"><title>Node315&#45;&gt;Node317</title>
<path fill="none" stroke="midnightblue" d="M69.2745,-66.7866C112.779,-55.5337 190.909,-38.1799 259,-38.1799 259,-38.1799 259,-38.1799 554,-38.1799 650.406,-38.1799 736.253,-131.534 771.722,-176.069"/>
<polygon fill="midnightblue" stroke="midnightblue" points="769.028,-178.306 777.942,-184.033 774.545,-173.998 769.028,-178.306"/>
</g>
<!-- Node318 -->
<g id="node4" class="node"><title>Node318</title>
<g id="a_node4"><a xlink:href="structLCD.html#a632d9c641930fe16c0b623b82136196e" target="_top" xlink:title="LCD::init">
<polygon fill="white" stroke="black" points="105,-189.68 105,-208.68 161,-208.68 161,-189.68 105,-189.68"/>
<text text-anchor="middle" x="133" y="-196.68" font-family="Helvetica,sans-Serif" font-size="10.00">LCD::init</text>
</a>
</g>
</g>
<!-- Node315&#45;&gt;Node318 -->
<g id="edge3" class="edge"><title>Node315&#45;&gt;Node318</title>
<path fill="none" stroke="midnightblue" d="M43.0722,-85.8315C59.2793,-106.489 97.5297,-155.244 118.189,-181.576"/>
<polygon fill="midnightblue" stroke="midnightblue" points="115.537,-183.866 124.463,-189.573 121.044,-179.545 115.537,-183.866"/>
</g>
<!-- Node321 -->
<g id="node7" class="node"><title>Node321</title>
<g id="a_node7"><a xlink:href="classeagle__impl_1_1TwoWire.html#a2b5f9f156b6d281746a2a6ca5707dad3" target="_top" xlink:title="eagle_impl::TwoWire\l::write">
<polygon fill="white" stroke="black" points="736,-60.1799 736,-90.1799 844,-90.1799 844,-60.1799 736,-60.1799"/>
<text text-anchor="start" x="744" y="-78.1799" font-family="Helvetica,sans-Serif" font-size="10.00">eagle_impl::TwoWire</text>
<text text-anchor="middle" x="790" y="-67.1799" font-family="Helvetica,sans-Serif" font-size="10.00">::write</text>
</a>
</g>
</g>
<!-- Node315&#45;&gt;Node321 -->
<g id="edge30" class="edge"><title>Node315&#45;&gt;Node321</title>
<path fill="none" stroke="midnightblue" d="M45.3218,-66.3065C57.9496,-54.2535 81.1112,-34.237 105,-24.1799 168.844,2.69804 189.729,-0.179869 259,-0.179869 259,-0.179869 259,-0.179869 554,-0.179869 619.76,-0.179869 638.041,-2.14814 700,-24.1799 720.812,-31.5801 742.348,-43.7812 759.023,-54.394"/>
<polygon fill="midnightblue" stroke="midnightblue" points="757.462,-57.5549 767.75,-60.086 761.286,-51.6916 757.462,-57.5549"/>
</g>
<!-- Node319 -->
<g id="node5" class="node"><title>Node319</title>
<g id="a_node5"><a xlink:href="structLCD.html#aa01b7522d1e210f9cd071e3a5d4ae9e6" target="_top" xlink:title="LCD::changeBackground">
<polygon fill="white" stroke="black" points="197,-236.68 197,-255.68 323,-255.68 323,-236.68 197,-236.68"/>
<text text-anchor="middle" x="260" y="-243.68" font-family="Helvetica,sans-Serif" font-size="10.00">LCD::changeBackground</text>
</a>
</g>
</g>
<!-- Node318&#45;&gt;Node319 -->
<g id="edge4" class="edge"><title>Node318&#45;&gt;Node319</title>
<path fill="none" stroke="midnightblue" d="M161.123,-203.7C183.562,-210.606 215.073,-222.563 236.222,-232.263"/>
<polygon fill="midnightblue" stroke="midnightblue" points="234.883,-235.503 245.413,-236.673 237.911,-229.192 234.883,-235.503"/>
</g>
<!-- Node323 -->
<g id="node9" class="node"><title>Node323</title>
<g id="a_node9"><a xlink:href="structLCD.html#a75cacb94de3b3ff71e9a4497b5cc4a81" target="_top" xlink:title="LCD::changeBrightness">
<polygon fill="white" stroke="black" points="359,-321.68 359,-340.68 480,-340.68 480,-321.68 359,-321.68"/>
<text text-anchor="middle" x="419.5" y="-328.68" font-family="Helvetica,sans-Serif" font-size="10.00">LCD::changeBrightness</text>
</a>
</g>
</g>
<!-- Node318&#45;&gt;Node323 -->
<g id="edge12" class="edge"><title>Node318&#45;&gt;Node323</title>
<path fill="none" stroke="midnightblue" d="M139.091,-208.702C147.387,-227.923 166.075,-269.096 197,-289.18 241.713,-318.218 302.079,-325.616 348.5,-327.608"/>
<polygon fill="midnightblue" stroke="midnightblue" points="348.662,-331.116 358.78,-327.975 348.911,-324.121 348.662,-331.116"/>
</g>
<!-- Node324 -->
<g id="node10" class="node"><title>Node324</title>
<g id="a_node10"><a xlink:href="structLCD.html#ae7a8d9bc1581cfeeb0f098c8bb6d1229" target="_top" xlink:title="LCD::s2Cmd">
<polygon fill="white" stroke="black" points="516,-189.68 516,-208.68 590,-208.68 590,-189.68 516,-189.68"/>
<text text-anchor="middle" x="553" y="-196.68" font-family="Helvetica,sans-Serif" font-size="10.00">LCD::s2Cmd</text>
</a>
</g>
</g>
<!-- Node318&#45;&gt;Node324 -->
<g id="edge29" class="edge"><title>Node318&#45;&gt;Node324</title>
<path fill="none" stroke="midnightblue" d="M161.104,-195.638C230.99,-191.684 417.937,-191.385 505.521,-194.742"/>
<polygon fill="midnightblue" stroke="midnightblue" points="505.557,-198.246 515.695,-195.169 505.851,-191.252 505.557,-198.246"/>
</g>
<!-- Node325 -->
<g id="node11" class="node"><title>Node325</title>
<g id="a_node11"><a xlink:href="structLCD.html#ad31ee94d401b7c28d6cc2f472e2eb8fd" target="_top" xlink:title="LCD::changeMode">
<polygon fill="white" stroke="black" points="211,-104.68 211,-123.68 309,-123.68 309,-104.68 211,-104.68"/>
<text text-anchor="middle" x="260" y="-111.68" font-family="Helvetica,sans-Serif" font-size="10.00">LCD::changeMode</text>
</a>
</g>
</g>
<!-- Node318&#45;&gt;Node325 -->
<g id="edge19" class="edge"><title>Node318&#45;&gt;Node325</title>
<path fill="none" stroke="midnightblue" d="M138.043,-189.348C147.328,-173.592 171.354,-145.593 197,-129.18 198.641,-128.13 200.334,-127.114 202.067,-126.135"/>
<polygon fill="midnightblue" stroke="midnightblue" points="203.689,-129.237 210.99,-121.559 200.494,-123.008 203.689,-129.237"/>
</g>
<!-- Node326 -->
<g id="node12" class="node"><title>Node326</title>
<g id="a_node12"><a xlink:href="structLCD.html#ad3120f397273bac2ad60e0291554b9e6" target="_top" xlink:title="LCD::clear">
<polygon fill="white" stroke="black" points="228,-66.6799 228,-85.6799 292,-85.6799 292,-66.6799 228,-66.6799"/>
<text text-anchor="middle" x="260" y="-73.6799" font-family="Helvetica,sans-Serif" font-size="10.00">LCD::clear</text>
</a>
</g>
</g>
<!-- Node318&#45;&gt;Node326 -->
<g id="edge22" class="edge"><title>Node318&#45;&gt;Node326</title>
<path fill="none" stroke="midnightblue" d="M135.815,-189.568C141.659,-166.956 161.694,-113.681 197,-86.1799 203.175,-81.3697 210.57,-77.7708 218.066,-75.2604"/>
<polygon fill="midnightblue" stroke="midnightblue" points="219.161,-78.5896 227.885,-72.577 217.316,-71.8372 219.161,-78.5896"/>
</g>
<!-- Node319&#45;&gt;Node318 -->
<g id="edge5" class="edge"><title>Node319&#45;&gt;Node318</title>
<path fill="none" stroke="midnightblue" d="M216.464,-236.62C196.674,-229.826 173.9,-220.917 157.306,-213.338"/>
<polygon fill="midnightblue" stroke="midnightblue" points="158.387,-209.975 147.855,-208.822 155.369,-216.291 158.387,-209.975"/>
</g>
<!-- Node320 -->
<g id="node6" class="node"><title>Node320</title>
<g id="a_node6"><a xlink:href="structLCD.html#a739998fad0591a092255676c8c8d532f" target="_top" xlink:title="LCD::s1Cmd">
<polygon fill="white" stroke="black" points="626,-189.68 626,-208.68 700,-208.68 700,-189.68 626,-189.68"/>
<text text-anchor="middle" x="663" y="-196.68" font-family="Helvetica,sans-Serif" font-size="10.00">LCD::s1Cmd</text>
</a>
</g>
</g>
<!-- Node319&#45;&gt;Node320 -->
<g id="edge6" class="edge"><title>Node319&#45;&gt;Node320</title>
<path fill="none" stroke="midnightblue" d="M323.259,-244.091C389.726,-241.114 497.931,-234.122 590,-218.18 600.127,-216.426 610.908,-213.93 620.96,-211.32"/>
<polygon fill="midnightblue" stroke="midnightblue" points="621.969,-214.673 630.717,-208.697 620.152,-207.913 621.969,-214.673"/>
</g>
<!-- Node320&#45;&gt;Node316 -->
<g id="edge7" class="edge"><title>Node320&#45;&gt;Node316</title>
<path fill="none" stroke="midnightblue" d="M671.445,-208.769C690.811,-233.712 743.185,-301.17 771.029,-337.033"/>
<polygon fill="midnightblue" stroke="midnightblue" points="768.325,-339.258 777.223,-345.011 773.855,-334.965 768.325,-339.258"/>
</g>
<!-- Node320&#45;&gt;Node317 -->
<g id="edge8" class="edge"><title>Node320&#45;&gt;Node317</title>
<path fill="none" stroke="midnightblue" d="M700.155,-199.18C708.136,-199.18 716.819,-199.18 725.526,-199.18"/>
<polygon fill="midnightblue" stroke="midnightblue" points="725.72,-202.68 735.72,-199.18 725.72,-195.68 725.72,-202.68"/>
</g>
<!-- Node320&#45;&gt;Node318 -->
<g id="edge9" class="edge"><title>Node320&#45;&gt;Node318</title>
<path fill="none" stroke="midnightblue" d="M647.518,-208.833C633.445,-217.715 611.159,-230.493 590,-237.18 506.515,-263.564 277.495,-299.624 197,-265.18 174.356,-255.491 155.979,-233.225 145.038,-217.233"/>
<polygon fill="midnightblue" stroke="midnightblue" points="147.865,-215.161 139.479,-208.685 141.997,-218.977 147.865,-215.161"/>
</g>
<!-- Node320&#45;&gt;Node321 -->
<g id="edge10" class="edge"><title>Node320&#45;&gt;Node321</title>
<path fill="none" stroke="midnightblue" d="M673.809,-189.45C693.589,-169.827 738.719,-125.059 766.252,-97.7457"/>
<polygon fill="midnightblue" stroke="midnightblue" points="768.881,-100.068 773.516,-90.5402 763.951,-95.0981 768.881,-100.068"/>
</g>
<!-- Node322 -->
<g id="node8" class="node"><title>Node322</title>
<g id="a_node8"><a xlink:href="eBoard_8h.html#abb66f08d8061c1064047324c1bacc2a9" target="_top" xlink:title="twi_transmit">
<polygon fill="white" stroke="black" points="880,-65.6799 880,-84.6799 950,-84.6799 950,-65.6799 880,-65.6799"/>
<text text-anchor="middle" x="915" y="-72.6799" font-family="Helvetica,sans-Serif" font-size="10.00">twi_transmit</text>
</a>
</g>
</g>
<!-- Node321&#45;&gt;Node322 -->
<g id="edge11" class="edge"><title>Node321&#45;&gt;Node322</title>
<path fill="none" stroke="midnightblue" d="M844.234,-75.1799C852.725,-75.1799 861.431,-75.1799 869.686,-75.1799"/>
<polygon fill="midnightblue" stroke="midnightblue" points="869.854,-78.68 879.854,-75.1799 869.854,-71.68 869.854,-78.68"/>
</g>
<!-- Node323&#45;&gt;Node316 -->
<g id="edge13" class="edge"><title>Node323&#45;&gt;Node316</title>
<path fill="none" stroke="midnightblue" d="M480.115,-335.871C547.444,-341.17 656.573,-349.758 725.472,-355.18"/>
<polygon fill="midnightblue" stroke="midnightblue" points="725.51,-358.694 735.754,-355.99 726.06,-351.716 725.51,-358.694"/>
</g>
<!-- Node323&#45;&gt;Node317 -->
<g id="edge14" class="edge"><title>Node323&#45;&gt;Node317</title>
<path fill="none" stroke="midnightblue" d="M480.35,-323.555C513.267,-318.365 554.511,-310.215 590,-298.18 650.896,-277.528 716.834,-241.814 755.446,-219.397"/>
<polygon fill="midnightblue" stroke="midnightblue" points="757.329,-222.351 764.189,-214.277 753.791,-216.31 757.329,-222.351"/>
</g>
<!-- Node323&#45;&gt;Node318 -->
<g id="edge15" class="edge"><title>Node323&#45;&gt;Node318</title>
<path fill="none" stroke="midnightblue" d="M382.344,-340.707C335.673,-346.03 253.735,-344.026 197,-307.18 165.306,-286.597 146.465,-243.862 138.491,-218.462"/>
<polygon fill="midnightblue" stroke="midnightblue" points="141.833,-217.415 135.733,-208.752 135.099,-219.328 141.833,-217.415"/>
</g>
<!-- Node323&#45;&gt;Node324 -->
<g id="edge16" class="edge"><title>Node323&#45;&gt;Node324</title>
<path fill="none" stroke="midnightblue" d="M430.384,-321.258C452.769,-298.788 507.542,-243.807 535.297,-215.947"/>
<polygon fill="midnightblue" stroke="midnightblue" points="537.781,-218.412 542.359,-208.858 532.822,-213.472 537.781,-218.412"/>
</g>
<!-- Node324&#45;&gt;Node318 -->
<g id="edge17" class="edge"><title>Node324&#45;&gt;Node318</title>
<path fill="none" stroke="midnightblue" d="M515.695,-203.191C436.869,-206.83 250.759,-206.843 171.162,-203.23"/>
<polygon fill="midnightblue" stroke="midnightblue" points="171.268,-199.731 161.104,-202.721 170.915,-206.722 171.268,-199.731"/>
</g>
<!-- Node324&#45;&gt;Node320 -->
<g id="edge18" class="edge"><title>Node324&#45;&gt;Node320</title>
<path fill="none" stroke="midnightblue" d="M590.263,-199.18C598.366,-199.18 607.069,-199.18 615.521,-199.18"/>
<polygon fill="midnightblue" stroke="midnightblue" points="615.649,-202.68 625.649,-199.18 615.649,-195.68 615.649,-202.68"/>
</g>
<!-- Node325&#45;&gt;Node318 -->
<g id="edge20" class="edge"><title>Node325&#45;&gt;Node318</title>
<path fill="none" stroke="midnightblue" d="M247.383,-123.71C234.416,-129.827 213.138,-136.852 197,-147.18 181.58,-157.048 166.746,-171.105 155.35,-182.305"/>
<polygon fill="midnightblue" stroke="midnightblue" points="152.702,-180 148.044,-189.516 157.62,-184.982 152.702,-180"/>
</g>
<!-- Node325&#45;&gt;Node320 -->
<g id="edge21" class="edge"><title>Node325&#45;&gt;Node320</title>
<path fill="none" stroke="midnightblue" d="M309.237,-114.645C374.871,-116.729 495.011,-125.748 590,-162.18 606.206,-168.395 623.532,-177.225 637.126,-184.7"/>
<polygon fill="midnightblue" stroke="midnightblue" points="635.447,-187.771 645.882,-189.61 638.871,-181.666 635.447,-187.771"/>
</g>
<!-- Node326&#45;&gt;Node315 -->
<g id="edge24" class="edge"><title>Node326&#45;&gt;Node315</title>
<path fill="none" stroke="midnightblue" d="M227.984,-76.1799C189.415,-76.1799 123.325,-76.1799 79.5239,-76.1799"/>
<polygon fill="midnightblue" stroke="midnightblue" points="79.4449,-72.68 69.4448,-76.1799 79.4448,-79.68 79.4449,-72.68"/>
</g>
<!-- Node326&#45;&gt;Node318 -->
<g id="edge23" class="edge"><title>Node326&#45;&gt;Node318</title>
<path fill="none" stroke="midnightblue" d="M240.569,-85.7473C227.308,-89.5848 209.612,-94.3562 197,-104.18 170.977,-124.449 153.251,-158.72 143.388,-180.303"/>
<polygon fill="midnightblue" stroke="midnightblue" points="140.165,-178.937 139.292,-189.496 146.559,-181.786 140.165,-178.937"/>
</g>
<!-- Node327 -->
<g id="node13" class="node"><title>Node327</title>
<g id="a_node13"><a xlink:href="structLCD.html#ad1a67d455563026a5064ef9cab86ae4d" target="_top" xlink:title="LCD::setCursor">
<polygon fill="white" stroke="black" points="376.5,-142.68 376.5,-161.68 462.5,-161.68 462.5,-142.68 376.5,-142.68"/>
<text text-anchor="middle" x="419.5" y="-149.68" font-family="Helvetica,sans-Serif" font-size="10.00">LCD::setCursor</text>
</a>
</g>
</g>
<!-- Node326&#45;&gt;Node327 -->
<g id="edge25" class="edge"><title>Node326&#45;&gt;Node327</title>
<path fill="none" stroke="midnightblue" d="M292.123,-84.1239C302.166,-87.1058 313.225,-90.841 323,-95.1799 349.39,-106.893 377.533,-124.37 396.378,-136.881"/>
<polygon fill="midnightblue" stroke="midnightblue" points="394.585,-139.893 404.834,-142.577 398.496,-134.087 394.585,-139.893"/>
</g>
<!-- Node327&#45;&gt;Node318 -->
<g id="edge26" class="edge"><title>Node327&#45;&gt;Node318</title>
<path fill="none" stroke="midnightblue" d="M376.353,-153.714C331.411,-156.052 258.403,-161.868 197,-176.18 186.539,-178.618 175.437,-182.286 165.513,-185.98"/>
<polygon fill="midnightblue" stroke="midnightblue" points="164.116,-182.768 156.051,-189.639 166.64,-189.297 164.116,-182.768"/>
</g>
<!-- Node327&#45;&gt;Node320 -->
<g id="edge28" class="edge"><title>Node327&#45;&gt;Node320</title>
<path fill="none" stroke="midnightblue" d="M462.501,-157.992C496.928,-163.026 546.835,-170.941 590,-180.18 599.284,-182.167 609.166,-184.578 618.54,-187.005"/>
<polygon fill="midnightblue" stroke="midnightblue" points="617.896,-190.455 628.459,-189.627 619.685,-183.688 617.896,-190.455"/>
</g>
<!-- Node327&#45;&gt;Node324 -->
<g id="edge27" class="edge"><title>Node327&#45;&gt;Node324</title>
<path fill="none" stroke="midnightblue" d="M447.111,-161.691C466.765,-168.716 493.756,-178.363 515.436,-186.111"/>
<polygon fill="midnightblue" stroke="midnightblue" points="514.383,-189.452 524.977,-189.522 516.739,-182.86 514.383,-189.452"/>
</g>
</g>
</svg>
        <g id="navigator" transform="translate(0 0)" fill="#404254">
                <rect fill="#f2f5e9" fill-opacity="0.5" stroke="#606060" stroke-width=".5" x="0" y="0" width="60" height="60"/>
                <use id="zoomplus" xlink:href="#zoomPlus" x="17" y="9" onmousedown="handleZoom(evt,'in')"/>
                <use id="zoomminus" xlink:href="#zoomMin" x="42" y="9" onmousedown="handleZoom(evt,'out')"/>
                <use id="reset" xlink:href="#resetDef" x="30" y="36" onmousedown="handleReset()"/>
                <g id="arrowUp" xlink:href="#dirArrow" transform="translate(30 24)" onmousedown="handlePan(0,-1)">
                  <use xlink:href="#rim" fill="#404040">
                        <set attributeName="fill" to="#808080" begin="arrowUp.mouseover" end="arrowUp.mouseout"/>
                  </use>
                  <path fill="none" stroke="white" stroke-width="1.5" d="M0,-3.0v7 M-2.5,-0.5L0,-3.0L2.5,-0.5"/>
                </g>
                <g id="arrowRight" xlink:href="#dirArrow" transform="rotate(90) translate(36 -43)" onmousedown="handlePan(1,0)">
                  <use xlink:href="#rim" fill="#404040">
                        <set attributeName="fill" to="#808080" begin="arrowRight.mouseover" end="arrowRight.mouseout"/>
                  </use>
                  <path fill="none" stroke="white" stroke-width="1.5" d="M0,-3.0v7 M-2.5,-0.5L0,-3.0L2.5,-0.5"/>
                </g>
                <g id="arrowDown" xlink:href="#dirArrow" transform="rotate(180) translate(-30 -48)" onmousedown="handlePan(0,1)">
                  <use xlink:href="#rim" fill="#404040">
                        <set attributeName="fill" to="#808080" begin="arrowDown.mouseover" end="arrowDown.mouseout"/>
                  </use>
                  <path fill="none" stroke="white" stroke-width="1.5" d="M0,-3.0v7 M-2.5,-0.5L0,-3.0L2.5,-0.5"/>
                </g>
                <g id="arrowLeft" xlink:href="#dirArrow" transform="rotate(270) translate(-36 17)" onmousedown="handlePan(-1,0)">
                  <use xlink:href="#rim" fill="#404040">
                        <set attributeName="fill" to="#808080" begin="arrowLeft.mouseover" end="arrowLeft.mouseout"/>
                  </use>
                  <path fill="none" stroke="white" stroke-width="1.5" d="M0,-3.0v7 M-2.5,-0.5L0,-3.0L2.5,-0.5"/>
                </g>
        </g>
        <svg viewBox="0 0 15 15" width="100%" height="30px" preserveAspectRatio="xMaxYMin meet">
         <g id="arrow_out" transform="scale(0.3 0.3)">
          <a xlink:href="structLCD_ae5873763db265cd00da32664cce88873_cgraph_org.svg" target="_base">
           <rect id="button" ry="5" rx="5" y="6" x="6" height="38" width="38"
                fill="#f2f5e9" fill-opacity="0.5" stroke="#606060" stroke-width="1.0"/>
           <path id="arrow"
             d="M 11.500037,31.436501 C 11.940474,20.09759 22.043105,11.32322 32.158766,21.979434 L 37.068811,17.246167 C 37.068811,17.246167 37.088388,32 37.088388,32 L 22.160133,31.978069 C 22.160133,31.978069 26.997745,27.140456 26.997745,27.140456 C 18.528582,18.264221 13.291696,25.230495 11.500037,31.436501 z"
             style="fill:#404040;"/>
          </a>
         </g>
        </svg>
</svg>
