<?xml version="1.0" encoding="UTF-8" standalone="no"?>
<!DOCTYPE svg PUBLIC "-//W3C//DTD SVG 1.1//EN"
 "http://www.w3.org/Graphics/SVG/1.1/DTD/svg11.dtd">
<!-- Generated by graphviz version 2.38.0 (20140413.2041)
 -->
<!-- Title: NeoPixel::getPixels Pages: 1 -->
<svg width="197pt" height="46pt"
 viewBox="0.00 0.00 197.00 46.00" xmlns="http://www.w3.org/2000/svg" xmlns:xlink="http://www.w3.org/1999/xlink">
<g id="graph0" class="graph" transform="scale(1 1) rotate(0) translate(4 42)">
<title>NeoPixel::getPixels</title>
<polygon fill="white" stroke="none" points="-4,4 -4,-42 193,-42 193,4 -4,4"/>
<!-- Node37 -->
<g id="node1" class="node"><title>Node37</title>
<polygon fill="#bfbfbf" stroke="black" points="0,-0.5 0,-19.5 103,-19.5 103,-0.5 0,-0.5"/>
<text text-anchor="middle" x="51.5" y="-7.5" font-family="Helvetica,sans-Serif" font-size="10.00">NeoPixel::getPixels</text>
</g>
<!-- Node38 -->
<g id="node2" class="node"><title>Node38</title>
<g id="a_node2"><a xlink:href="eBoard__comment_8h.html#aca4f96af7c6736bf2b61c88d731af741" target="_top" xlink:title="read a digital state from an INPUTpin ">
<polygon fill="white" stroke="black" points="139,-0.5 139,-19.5 189,-19.5 189,-0.5 139,-0.5"/>
<text text-anchor="middle" x="164" y="-7.5" font-family="Helvetica,sans-Serif" font-size="10.00">readPin</text>
</a>
</g>
</g>
<!-- Node37&#45;&gt;Node38 -->
<g id="edge1" class="edge"><title>Node37&#45;&gt;Node38</title>
<path fill="none" stroke="midnightblue" d="M113.385,-10C122.357,-10 131.128,-10 138.74,-10"/>
<polygon fill="midnightblue" stroke="midnightblue" points="113.222,-6.5001 103.222,-10 113.222,-13.5001 113.222,-6.5001"/>
</g>
<!-- Node38&#45;&gt;Node38 -->
<g id="edge2" class="edge"><title>Node38&#45;&gt;Node38</title>
<path fill="none" stroke="midnightblue" d="M143.26,-29.4C144.645,-34.3146 151.559,-38 164,-38 183.906,-38 189.66,-28.5653 181.262,-19.7571"/>
<polygon fill="midnightblue" stroke="midnightblue" points="146.638,-30.3514 146.738,-19.7571 140.053,-27.9768 146.638,-30.3514"/>
</g>
</g>
</svg>
