<?xml version="1.0" encoding="UTF-8" standalone="no"?>
<!DOCTYPE svg PUBLIC "-//W3C//DTD SVG 1.1//EN"
 "http://www.w3.org/Graphics/SVG/1.1/DTD/svg11.dtd">
<!-- Generated by graphviz version 2.38.0 (20140413.2041)
 -->
<!-- Title: AX12Servo Pages: 1 -->
<svg width="117pt" height="95pt"
 viewBox="0.00 0.00 116.50 95.00" xmlns="http://www.w3.org/2000/svg" xmlns:xlink="http://www.w3.org/1999/xlink">
<g id="graph0" class="graph" transform="scale(1 1) rotate(0) translate(4 91)">
<title>AX12Servo</title>
<polygon fill="white" stroke="none" points="-4,4 -4,-91 112.5,-91 112.5,4 -4,4"/>
<!-- Node1 -->
<g id="node1" class="node"><title>Node1</title>
<polygon fill="#bfbfbf" stroke="black" points="11.5,-67.5 11.5,-86.5 77.5,-86.5 77.5,-67.5 11.5,-67.5"/>
<text text-anchor="middle" x="44.5" y="-74.5" font-family="Helvetica,sans-Serif" font-size="10.00">AX12Servo</text>
</g>
<!-- Node2 -->
<g id="node2" class="node"><title>Node2</title>
<g id="a_node2"><a xlink:href="structDynamixelBoard.html" target="_top" xlink:title="[COPY&amp;PASTE] This is the DynamixelBoard ghost struct :D ">
<polygon fill="white" stroke="black" points="-7.10543e-15,-0.5 -7.10543e-15,-19.5 89,-19.5 89,-0.5 -7.10543e-15,-0.5"/>
<text text-anchor="middle" x="44.5" y="-7.5" font-family="Helvetica,sans-Serif" font-size="10.00">DynamixelBoard</text>
</a>
</g>
</g>
<!-- Node1&#45;&gt;Node2 -->
<g id="edge2" class="edge"><title>Node1&#45;&gt;Node2</title>
<path fill="none" stroke="#9a32cd" stroke-dasharray="5,2" d="M16.0722,-61.3847C11.8149,-57.9175 8.01533,-53.8007 5.5,-49 -0.817863,-36.9419 12.3117,-26.4257 25.0094,-19.5321"/>
<polygon fill="#9a32cd" stroke="#9a32cd" points="14.3845,-64.4721 24.6057,-67.2609 18.3545,-58.7068 14.3845,-64.4721"/>
<text text-anchor="middle" x="30" y="-41" font-family="Helvetica,sans-Serif" font-size="10.00"> connected</text>
</g>
<!-- Node2&#45;&gt;Node1 -->
<g id="edge1" class="edge"><title>Node2&#45;&gt;Node1</title>
<path fill="none" stroke="#9a32cd" stroke-dasharray="5,2" d="M55.6365,-28.5732C58.4025,-34.9134 60.1614,-42.1865 58.5,-49 56.8989,-55.5662 53.3989,-62.3162 50.2991,-67.4247"/>
<polygon fill="#9a32cd" stroke="#9a32cd" points="58.6215,-26.7336 50.8078,-19.5783 52.454,-30.0445 58.6215,-26.7336"/>
<text text-anchor="middle" x="83.5" y="-41" font-family="Helvetica,sans-Serif" font-size="10.00"> _conBoard</text>
</g>
</g>
</svg>
