<?xml version="1.0" encoding="UTF-8" standalone="no"?>
<!DOCTYPE svg PUBLIC "-//W3C//DTD SVG 1.1//EN"
 "http://www.w3.org/Graphics/SVG/1.1/DTD/svg11.dtd">
<!-- Generated by graphviz version 2.38.0 (20140413.2041)
 -->
<!-- Title: AX12Servo::setID Pages: 1 -->
<svg width="190pt" height="46pt"
 viewBox="0.00 0.00 190.00 46.00" xmlns="http://www.w3.org/2000/svg" xmlns:xlink="http://www.w3.org/1999/xlink">
<g id="graph0" class="graph" transform="scale(1 1) rotate(0) translate(4 42)">
<title>AX12Servo::setID</title>
<polygon fill="white" stroke="none" points="-4,4 -4,-42 186,-42 186,4 -4,4"/>
<!-- Node22 -->
<g id="node1" class="node"><title>Node22</title>
<polygon fill="#bfbfbf" stroke="black" points="0,-0.5 0,-19.5 96,-19.5 96,-0.5 0,-0.5"/>
<text text-anchor="middle" x="48" y="-7.5" font-family="Helvetica,sans-Serif" font-size="10.00">AX12Servo::setID</text>
</g>
<!-- Node23 -->
<g id="node2" class="node"><title>Node23</title>
<g id="a_node2"><a xlink:href="eBoard__comment_8h.html#aca4f96af7c6736bf2b61c88d731af741" target="_top" xlink:title="read a digital state from an INPUTpin ">
<polygon fill="white" stroke="black" points="132,-0.5 132,-19.5 182,-19.5 182,-0.5 132,-0.5"/>
<text text-anchor="middle" x="157" y="-7.5" font-family="Helvetica,sans-Serif" font-size="10.00">readPin</text>
</a>
</g>
</g>
<!-- Node22&#45;&gt;Node23 -->
<g id="edge1" class="edge"><title>Node22&#45;&gt;Node23</title>
<path fill="none" stroke="midnightblue" d="M106.393,-10C115.375,-10 124.211,-10 131.879,-10"/>
<polygon fill="midnightblue" stroke="midnightblue" points="106.243,-6.5001 96.2432,-10 106.243,-13.5001 106.243,-6.5001"/>
</g>
<!-- Node23&#45;&gt;Node23 -->
<g id="edge2" class="edge"><title>Node23&#45;&gt;Node23</title>
<path fill="none" stroke="midnightblue" d="M137.001,-29.4C138.337,-34.3146 145.003,-38 157,-38 176.195,-38 181.744,-28.5653 173.646,-19.7571"/>
<polygon fill="midnightblue" stroke="midnightblue" points="140.376,-30.3519 140.354,-19.7571 133.764,-28.0528 140.376,-30.3519"/>
</g>
</g>
</svg>
