<?xml version="1.0" encoding="UTF-8" standalone="no"?>
<!DOCTYPE svg PUBLIC "-//W3C//DTD SVG 1.1//EN"
 "http://www.w3.org/Graphics/SVG/1.1/DTD/svg11.dtd">
<!-- Generated by graphviz version 2.38.0 (20140413.2041)
 -->
<!-- Title: NeoPixel::gamma8 Pages: 1 -->
<svg width="194pt" height="46pt"
 viewBox="0.00 0.00 194.00 46.00" xmlns="http://www.w3.org/2000/svg" xmlns:xlink="http://www.w3.org/1999/xlink">
<g id="graph0" class="graph" transform="scale(1 1) rotate(0) translate(4 42)">
<title>NeoPixel::gamma8</title>
<polygon fill="white" stroke="none" points="-4,4 -4,-42 190,-42 190,4 -4,4"/>
<!-- Node26 -->
<g id="node1" class="node"><title>Node26</title>
<polygon fill="#bfbfbf" stroke="black" points="0,-0.5 0,-19.5 100,-19.5 100,-0.5 0,-0.5"/>
<text text-anchor="middle" x="50" y="-7.5" font-family="Helvetica,sans-Serif" font-size="10.00">NeoPixel::gamma8</text>
</g>
<!-- Node27 -->
<g id="node2" class="node"><title>Node27</title>
<g id="a_node2"><a xlink:href="eBoard__comment_8h.html#aca4f96af7c6736bf2b61c88d731af741" target="_top" xlink:title="read a digital state from an INPUTpin ">
<polygon fill="white" stroke="black" points="136,-0.5 136,-19.5 186,-19.5 186,-0.5 136,-0.5"/>
<text text-anchor="middle" x="161" y="-7.5" font-family="Helvetica,sans-Serif" font-size="10.00">readPin</text>
</a>
</g>
</g>
<!-- Node26&#45;&gt;Node27 -->
<g id="edge1" class="edge"><title>Node26&#45;&gt;Node27</title>
<path fill="none" stroke="midnightblue" d="M110.309,-10C119.349,-10 128.212,-10 135.892,-10"/>
<polygon fill="midnightblue" stroke="midnightblue" points="110.079,-6.5001 100.079,-10 110.079,-13.5001 110.079,-6.5001"/>
</g>
<!-- Node27&#45;&gt;Node27 -->
<g id="edge2" class="edge"><title>Node27&#45;&gt;Node27</title>
<path fill="none" stroke="midnightblue" d="M140.631,-29.4C141.991,-34.3146 148.781,-38 161,-38 180.551,-38 186.202,-28.5653 177.954,-19.7571"/>
<polygon fill="midnightblue" stroke="midnightblue" points="144.007,-30.3518 144.046,-19.7571 137.408,-28.0149 144.007,-30.3518"/>
</g>
</g>
</svg>
