<?xml version="1.0" encoding="UTF-8" standalone="no"?>
<!DOCTYPE svg PUBLIC "-//W3C//DTD SVG 1.1//EN"
 "http://www.w3.org/Graphics/SVG/1.1/DTD/svg11.dtd">
<!-- Generated by graphviz version 2.40.1 (20161225.0304)
 -->
<!-- Title: SoccerBoard::powerOff Pages: 1 -->
<svg width="356pt" height="28pt"
 viewBox="0.00 0.00 356.00 28.00" xmlns="http://www.w3.org/2000/svg" xmlns:xlink="http://www.w3.org/1999/xlink">
<g id="graph0" class="graph" transform="scale(1 1) rotate(0) translate(4 24)">
<title>SoccerBoard::powerOff</title>
<polygon fill="#ffffff" stroke="transparent" points="-4,4 -4,-24 352,-24 352,4 -4,4"/>
<!-- Node20 -->
<g id="node1" class="node">
<title>Node20</title>
<polygon fill="#bfbfbf" stroke="#000000" points="0,-.5 0,-19.5 119,-19.5 119,-.5 0,-.5"/>
<text text-anchor="middle" x="59.5" y="-7.5" font-family="Helvetica,sans-Serif" font-size="10.00" fill="#000000">SoccerBoard::powerOff</text>
</g>
<!-- Node21 -->
<g id="node2" class="node">
<title>Node21</title>
<g id="a_node2"><a xlink:href="structSoccerBoard.html#a04c6b8fd4b6d1cd24be9c1b3291dbf06" target="_top" xlink:title="Set the state of a certain D&#45;pin. ">
<polygon fill="#ffffff" stroke="#000000" points="155,-.5 155,-19.5 260,-19.5 260,-.5 155,-.5"/>
<text text-anchor="middle" x="207.5" y="-7.5" font-family="Helvetica,sans-Serif" font-size="10.00" fill="#000000">SoccerBoard::power</text>
</a>
</g>
</g>
<!-- Node20&#45;&gt;Node21 -->
<g id="edge1" class="edge">
<title>Node20&#45;&gt;Node21</title>
<path fill="none" stroke="#191970" d="M119.2707,-10C127.5978,-10 136.1748,-10 144.5581,-10"/>
<polygon fill="#191970" stroke="#191970" points="144.6579,-13.5001 154.6579,-10 144.6579,-6.5001 144.6579,-13.5001"/>
</g>
<!-- Node22 -->
<g id="node3" class="node">
<title>Node22</title>
<g id="a_node3"><a xlink:href="eagle__PinCtrl_8h.html#ad6d4c1b1e3b495ed81fb28fac04d2bd6" target="_top" xlink:title="write a boolean state to an output pin ">
<polygon fill="#ffffff" stroke="#000000" points="296,-.5 296,-19.5 348,-19.5 348,-.5 296,-.5"/>
<text text-anchor="middle" x="322" y="-7.5" font-family="Helvetica,sans-Serif" font-size="10.00" fill="#000000">writePin</text>
</a>
</g>
</g>
<!-- Node21&#45;&gt;Node22 -->
<g id="edge2" class="edge">
<title>Node21&#45;&gt;Node22</title>
<path fill="none" stroke="#191970" d="M260.0584,-10C268.7243,-10 277.5346,-10 285.6877,-10"/>
<polygon fill="#191970" stroke="#191970" points="285.96,-13.5001 295.96,-10 285.96,-6.5001 285.96,-13.5001"/>
</g>
</g>
</svg>
