<?xml version="1.0" encoding="UTF-8" standalone="no"?>
<!DOCTYPE svg PUBLIC "-//W3C//DTD SVG 1.1//EN"
 "http://www.w3.org/Graphics/SVG/1.1/DTD/svg11.dtd">
<!-- Generated by graphviz version 2.38.0 (20140413.2041)
 -->
<!-- Title: NeoPixel::~NeoPixel Pages: 1 -->
<svg width="202pt" height="46pt"
 viewBox="0.00 0.00 202.00 46.00" xmlns="http://www.w3.org/2000/svg" xmlns:xlink="http://www.w3.org/1999/xlink">
<g id="graph0" class="graph" transform="scale(1 1) rotate(0) translate(4 42)">
<title>NeoPixel::~NeoPixel</title>
<polygon fill="white" stroke="none" points="-4,4 -4,-42 198,-42 198,4 -4,4"/>
<!-- Node6 -->
<g id="node1" class="node"><title>Node6</title>
<polygon fill="#bfbfbf" stroke="black" points="0,-0.5 0,-19.5 108,-19.5 108,-0.5 0,-0.5"/>
<text text-anchor="middle" x="54" y="-7.5" font-family="Helvetica,sans-Serif" font-size="10.00">NeoPixel::~NeoPixel</text>
</g>
<!-- Node7 -->
<g id="node2" class="node"><title>Node7</title>
<g id="a_node2"><a xlink:href="eBoard__comment_8h.html#aca4f96af7c6736bf2b61c88d731af741" target="_top" xlink:title="read a digital state from an INPUTpin ">
<polygon fill="white" stroke="black" points="144,-0.5 144,-19.5 194,-19.5 194,-0.5 144,-0.5"/>
<text text-anchor="middle" x="169" y="-7.5" font-family="Helvetica,sans-Serif" font-size="10.00">readPin</text>
</a>
</g>
</g>
<!-- Node6&#45;&gt;Node7 -->
<g id="edge1" class="edge"><title>Node6&#45;&gt;Node7</title>
<path fill="none" stroke="midnightblue" d="M118.426,-10C127.446,-10 136.227,-10 143.83,-10"/>
<polygon fill="midnightblue" stroke="midnightblue" points="118.191,-6.5001 108.191,-10 118.191,-13.5001 118.191,-6.5001"/>
</g>
<!-- Node7&#45;&gt;Node7 -->
<g id="edge2" class="edge"><title>Node7&#45;&gt;Node7</title>
<path fill="none" stroke="midnightblue" d="M147.89,-29.4C149.3,-34.3146 156.336,-38 169,-38 189.262,-38 195.119,-28.5653 186.571,-19.7571"/>
<polygon fill="midnightblue" stroke="midnightblue" points="151.269,-30.3507 151.429,-19.7571 144.698,-27.9387 151.269,-30.3507"/>
</g>
</g>
</svg>
