<?xml version="1.0" encoding="UTF-8" standalone="no"?>
<!DOCTYPE svg PUBLIC "-//W3C//DTD SVG 1.1//EN"
 "http://www.w3.org/Graphics/SVG/1.1/DTD/svg11.dtd">
<!-- Generated by graphviz version 2.38.0 (20140413.2041)
 -->
<!-- Title: SoccerBoard::analog Pages: 1 -->
<svg width="201pt" height="46pt"
 viewBox="0.00 0.00 201.00 46.00" xmlns="http://www.w3.org/2000/svg" xmlns:xlink="http://www.w3.org/1999/xlink">
<g id="graph0" class="graph" transform="scale(1 1) rotate(0) translate(4 42)">
<title>SoccerBoard::analog</title>
<polygon fill="white" stroke="none" points="-4,4 -4,-42 197,-42 197,4 -4,4"/>
<!-- Node4 -->
<g id="node1" class="node"><title>Node4</title>
<polygon fill="#bfbfbf" stroke="black" points="0,-0.5 0,-19.5 107,-19.5 107,-0.5 0,-0.5"/>
<text text-anchor="middle" x="53.5" y="-7.5" font-family="Helvetica,sans-Serif" font-size="10.00">SoccerBoard::analog</text>
</g>
<!-- Node5 -->
<g id="node2" class="node"><title>Node5</title>
<g id="a_node2"><a xlink:href="eBoard__comment_8h.html#aca4f96af7c6736bf2b61c88d731af741" target="_top" xlink:title="read a digital state from an INPUTpin ">
<polygon fill="white" stroke="black" points="143,-0.5 143,-19.5 193,-19.5 193,-0.5 143,-0.5"/>
<text text-anchor="middle" x="168" y="-7.5" font-family="Helvetica,sans-Serif" font-size="10.00">readPin</text>
</a>
</g>
</g>
<!-- Node4&#45;&gt;Node5 -->
<g id="edge1" class="edge"><title>Node4&#45;&gt;Node5</title>
<path fill="none" stroke="midnightblue" d="M117.356,-10C126.375,-10 135.164,-10 142.778,-10"/>
<polygon fill="midnightblue" stroke="midnightblue" points="117.127,-6.5001 107.127,-10 117.127,-13.5001 117.127,-6.5001"/>
</g>
<!-- Node5&#45;&gt;Node5 -->
<g id="edge2" class="edge"><title>Node5&#45;&gt;Node5</title>
<path fill="none" stroke="midnightblue" d="M146.89,-29.4C148.3,-34.3146 155.336,-38 168,-38 188.262,-38 194.119,-28.5653 185.571,-19.7571"/>
<polygon fill="midnightblue" stroke="midnightblue" points="150.269,-30.3507 150.429,-19.7571 143.698,-27.9387 150.269,-30.3507"/>
</g>
</g>
</svg>
