<?xml version="1.0" encoding="UTF-8" standalone="no"?>
<!DOCTYPE svg PUBLIC "-//W3C//DTD SVG 1.1//EN"
 "http://www.w3.org/Graphics/SVG/1.1/DTD/svg11.dtd">
<!-- Generated by graphviz version 2.38.0 (20140413.2041)
 -->
<!-- Title: ServoCds55::write Pages: 1 -->
<svg width="581pt" height="66pt"
 viewBox="0.00 0.00 581.00 66.00" xmlns="http://www.w3.org/2000/svg" xmlns:xlink="http://www.w3.org/1999/xlink">
<g id="graph0" class="graph" transform="scale(1 1) rotate(0) translate(4 62)">
<title>ServoCds55::write</title>
<polygon fill="white" stroke="none" points="-4,4 -4,-62 577,-62 577,4 -4,4"/>
<!-- Node59 -->
<g id="node1" class="node"><title>Node59</title>
<polygon fill="#bfbfbf" stroke="black" points="0,-19.5 0,-38.5 98,-38.5 98,-19.5 0,-19.5"/>
<text text-anchor="middle" x="49" y="-26.5" font-family="Helvetica,sans-Serif" font-size="10.00">ServoCds55::write</text>
</g>
<!-- Node60 -->
<g id="node2" class="node"><title>Node60</title>
<g id="a_node2"><a xlink:href="structServoCds55.html#a5d77d36691d8a0fab7cf841a4feef530" target="_top" xlink:title="ServoCds55::SetServoLimit">
<polygon fill="white" stroke="black" points="134,-38.5 134,-57.5 272,-57.5 272,-38.5 134,-38.5"/>
<text text-anchor="middle" x="203" y="-45.5" font-family="Helvetica,sans-Serif" font-size="10.00">ServoCds55::SetServoLimit</text>
</a>
</g>
</g>
<!-- Node59&#45;&gt;Node60 -->
<g id="edge1" class="edge"><title>Node59&#45;&gt;Node60</title>
<path fill="none" stroke="midnightblue" d="M98.0938,-35.0117C106.372,-36.0465 115.163,-37.1454 123.991,-38.2488"/>
<polygon fill="midnightblue" stroke="midnightblue" points="123.59,-41.7259 133.947,-39.4934 124.458,-34.78 123.59,-41.7259"/>
</g>
<!-- Node63 -->
<g id="node5" class="node"><title>Node63</title>
<g id="a_node5"><a xlink:href="structServoCds55.html#a78620c3a9f22c9a37449ba01c5bd08f3" target="_top" xlink:title="ServoCds55::WritePos">
<polygon fill="white" stroke="black" points="144.5,-0.5 144.5,-19.5 261.5,-19.5 261.5,-0.5 144.5,-0.5"/>
<text text-anchor="middle" x="203" y="-7.5" font-family="Helvetica,sans-Serif" font-size="10.00">ServoCds55::WritePos</text>
</a>
</g>
</g>
<!-- Node59&#45;&gt;Node63 -->
<g id="edge4" class="edge"><title>Node59&#45;&gt;Node63</title>
<path fill="none" stroke="midnightblue" d="M98.0938,-22.9883C109.577,-21.5529 122.048,-19.994 134.233,-18.4709"/>
<polygon fill="midnightblue" stroke="midnightblue" points="134.884,-21.9168 144.373,-17.2034 134.016,-14.9709 134.884,-21.9168"/>
</g>
<!-- Node61 -->
<g id="node3" class="node"><title>Node61</title>
<g id="a_node3"><a xlink:href="structServoCds55.html#a0ddbf204d991dae881cc22b8985efee3" target="_top" xlink:title="ServoCds55::sendWait">
<polygon fill="white" stroke="black" points="308,-19.5 308,-38.5 426,-38.5 426,-19.5 308,-19.5"/>
<text text-anchor="middle" x="367" y="-26.5" font-family="Helvetica,sans-Serif" font-size="10.00">ServoCds55::sendWait</text>
</a>
</g>
</g>
<!-- Node60&#45;&gt;Node61 -->
<g id="edge2" class="edge"><title>Node60&#45;&gt;Node61</title>
<path fill="none" stroke="midnightblue" d="M272.233,-39.9974C280.655,-39.0096 289.266,-37.9996 297.69,-37.0117"/>
<polygon fill="midnightblue" stroke="midnightblue" points="298.322,-40.4617 307.846,-35.8205 297.506,-33.5093 298.322,-40.4617"/>
</g>
<!-- Node62 -->
<g id="node4" class="node"><title>Node62</title>
<g id="a_node4"><a xlink:href="structeagle__impl_1_1SPIClass.html#a821dccd5dda20ccd9093fc35cce74ae5" target="_top" xlink:title="eagle_impl::SPIClass\l::transfer">
<polygon fill="white" stroke="black" points="462,-14 462,-44 573,-44 573,-14 462,-14"/>
<text text-anchor="start" x="470" y="-32" font-family="Helvetica,sans-Serif" font-size="10.00">eagle_impl::SPIClass</text>
<text text-anchor="middle" x="517.5" y="-21" font-family="Helvetica,sans-Serif" font-size="10.00">::transfer</text>
</a>
</g>
</g>
<!-- Node61&#45;&gt;Node62 -->
<g id="edge3" class="edge"><title>Node61&#45;&gt;Node62</title>
<path fill="none" stroke="midnightblue" d="M426.265,-29C434.584,-29 443.183,-29 451.619,-29"/>
<polygon fill="midnightblue" stroke="midnightblue" points="451.797,-32.5001 461.797,-29 451.797,-25.5001 451.797,-32.5001"/>
</g>
<!-- Node63&#45;&gt;Node61 -->
<g id="edge5" class="edge"><title>Node63&#45;&gt;Node61</title>
<path fill="none" stroke="midnightblue" d="M261.571,-16.7522C273.295,-18.1271 285.734,-19.5861 297.786,-20.9996"/>
<polygon fill="midnightblue" stroke="midnightblue" points="297.455,-24.4847 307.795,-22.1735 298.271,-17.5324 297.455,-24.4847"/>
</g>
</g>
</svg>
