<?xml version="1.0" encoding="UTF-8" standalone="no"?>
<!DOCTYPE svg PUBLIC "-//W3C//DTD SVG 1.1//EN"
 "http://www.w3.org/Graphics/SVG/1.1/DTD/svg11.dtd">
<!-- Generated by graphviz version 2.38.0 (20140413.2041)
 -->
<!-- Title: I2CInOut::write Pages: 1 -->
<svg width="281pt" height="66pt"
 viewBox="0.00 0.00 281.00 66.00" xmlns="http://www.w3.org/2000/svg" xmlns:xlink="http://www.w3.org/1999/xlink">
<g id="graph0" class="graph" transform="scale(1 1) rotate(0) translate(4 62)">
<title>I2CInOut::write</title>
<polygon fill="white" stroke="none" points="-4,4 -4,-62 277,-62 277,4 -4,4"/>
<!-- Node16 -->
<g id="node1" class="node"><title>Node16</title>
<polygon fill="#bfbfbf" stroke="black" points="0,-19.5 0,-38.5 83,-38.5 83,-19.5 0,-19.5"/>
<text text-anchor="middle" x="41.5" y="-26.5" font-family="Helvetica,sans-Serif" font-size="10.00">I2CInOut::write</text>
</g>
<!-- Node17 -->
<g id="node2" class="node"><title>Node17</title>
<g id="a_node2"><a xlink:href="eBoard_8h.html#a78b0e873cb50c282c6243d4913406be4" target="_top" xlink:title="[COPY&amp;PASTE] set a pin to a certain mode =&gt; checkPin() will return true then ">
<polygon fill="white" stroke="black" points="128,-38.5 128,-57.5 172,-57.5 172,-38.5 128,-38.5"/>
<text text-anchor="middle" x="150" y="-45.5" font-family="Helvetica,sans-Serif" font-size="10.00">setPin</text>
</a>
</g>
</g>
<!-- Node16&#45;&gt;Node17 -->
<g id="edge1" class="edge"><title>Node16&#45;&gt;Node17</title>
<path fill="none" stroke="midnightblue" d="M83.0669,-36.2373C94.649,-38.3036 107.081,-40.5215 117.994,-42.4683"/>
<polygon fill="midnightblue" stroke="midnightblue" points="117.454,-45.9273 127.913,-44.2381 118.683,-39.0361 117.454,-45.9273"/>
</g>
<!-- Node19 -->
<g id="node4" class="node"><title>Node19</title>
<g id="a_node4"><a xlink:href="eBoard_8h.html#ad3f999233c04890710241b8b898d09cb" target="_top" xlink:title="write a clamped pwm value to an output pin ">
<polygon fill="white" stroke="black" points="119,-0.5 119,-19.5 181,-19.5 181,-0.5 119,-0.5"/>
<text text-anchor="middle" x="150" y="-7.5" font-family="Helvetica,sans-Serif" font-size="10.00">writePWM</text>
</a>
</g>
</g>
<!-- Node16&#45;&gt;Node19 -->
<g id="edge3" class="edge"><title>Node16&#45;&gt;Node19</title>
<path fill="none" stroke="midnightblue" d="M83.0669,-21.7627C91.5087,-20.2567 100.402,-18.6701 108.829,-17.1666"/>
<polygon fill="midnightblue" stroke="midnightblue" points="109.586,-20.5869 118.816,-15.3849 108.357,-13.6957 109.586,-20.5869"/>
</g>
<!-- Node18 -->
<g id="node3" class="node"><title>Node18</title>
<g id="a_node3"><a xlink:href="eBoard_8h.html#a757015d50a6c57414603841f728b670b" target="_top" xlink:title="[DEBUG_MODE] used to check if a pin index is in bounds ">
<polygon fill="white" stroke="black" points="217,-38.5 217,-57.5 273,-57.5 273,-38.5 217,-38.5"/>
<text text-anchor="middle" x="245" y="-45.5" font-family="Helvetica,sans-Serif" font-size="10.00">checkIdx</text>
</a>
</g>
</g>
<!-- Node17&#45;&gt;Node18 -->
<g id="edge2" class="edge"><title>Node17&#45;&gt;Node18</title>
<path fill="none" stroke="midnightblue" d="M172.103,-48C182.383,-48 195.051,-48 206.875,-48"/>
<polygon fill="midnightblue" stroke="midnightblue" points="206.968,-51.5001 216.968,-48 206.968,-44.5001 206.968,-51.5001"/>
</g>
</g>
</svg>
