<?xml version="1.0" encoding="UTF-8" standalone="no"?>
<!DOCTYPE svg PUBLIC "-//W3C//DTD SVG 1.1//EN"
 "http://www.w3.org/Graphics/SVG/1.1/DTD/svg11.dtd">
<!-- Generated by graphviz version 2.38.0 (20140413.2041)
 -->
<!-- Title: ServoCds55::rotate Pages: 1 -->
<svg width="586pt" height="66pt"
 viewBox="0.00 0.00 586.00 66.00" xmlns="http://www.w3.org/2000/svg" xmlns:xlink="http://www.w3.org/1999/xlink">
<g id="graph0" class="graph" transform="scale(1 1) rotate(0) translate(4 62)">
<title>ServoCds55::rotate</title>
<polygon fill="white" stroke="none" points="-4,4 -4,-62 582,-62 582,4 -4,4"/>
<!-- Node11 -->
<g id="node1" class="node"><title>Node11</title>
<polygon fill="#bfbfbf" stroke="black" points="0,-19.5 0,-38.5 101,-38.5 101,-19.5 0,-19.5"/>
<text text-anchor="middle" x="50.5" y="-26.5" font-family="Helvetica,sans-Serif" font-size="10.00">ServoCds55::rotate</text>
</g>
<!-- Node12 -->
<g id="node2" class="node"><title>Node12</title>
<g id="a_node2"><a xlink:href="structServoCds55.html#ab9e5ab857983d3c0d1eaf43f60c53285" target="_top" xlink:title="ServoCds55::SetMotormode">
<polygon fill="white" stroke="black" points="137,-38.5 137,-57.5 277,-57.5 277,-38.5 137,-38.5"/>
<text text-anchor="middle" x="207" y="-45.5" font-family="Helvetica,sans-Serif" font-size="10.00">ServoCds55::SetMotormode</text>
</a>
</g>
</g>
<!-- Node11&#45;&gt;Node12 -->
<g id="edge1" class="edge"><title>Node11&#45;&gt;Node12</title>
<path fill="none" stroke="midnightblue" d="M101.235,-35.1163C109.414,-36.1221 118.067,-37.1862 126.753,-38.2544"/>
<polygon fill="midnightblue" stroke="midnightblue" points="126.586,-41.7602 136.939,-39.507 127.441,-34.8125 126.586,-41.7602"/>
</g>
<!-- Node15 -->
<g id="node5" class="node"><title>Node15</title>
<g id="a_node5"><a xlink:href="structServoCds55.html#a5d77d36691d8a0fab7cf841a4feef530" target="_top" xlink:title="ServoCds55::SetServoLimit">
<polygon fill="white" stroke="black" points="138,-0.5 138,-19.5 276,-19.5 276,-0.5 138,-0.5"/>
<text text-anchor="middle" x="207" y="-7.5" font-family="Helvetica,sans-Serif" font-size="10.00">ServoCds55::SetServoLimit</text>
</a>
</g>
</g>
<!-- Node11&#45;&gt;Node15 -->
<g id="edge4" class="edge"><title>Node11&#45;&gt;Node15</title>
<path fill="none" stroke="midnightblue" d="M101.235,-22.8837C109.695,-21.8433 118.662,-20.7406 127.649,-19.6354"/>
<polygon fill="midnightblue" stroke="midnightblue" points="128.279,-23.0843 137.777,-18.3898 127.425,-16.1367 128.279,-23.0843"/>
</g>
<!-- Node13 -->
<g id="node3" class="node"><title>Node13</title>
<g id="a_node3"><a xlink:href="structServoCds55.html#a0ddbf204d991dae881cc22b8985efee3" target="_top" xlink:title="ServoCds55::sendWait">
<polygon fill="white" stroke="black" points="313,-19.5 313,-38.5 431,-38.5 431,-19.5 313,-19.5"/>
<text text-anchor="middle" x="372" y="-26.5" font-family="Helvetica,sans-Serif" font-size="10.00">ServoCds55::sendWait</text>
</a>
</g>
</g>
<!-- Node12&#45;&gt;Node13 -->
<g id="edge2" class="edge"><title>Node12&#45;&gt;Node13</title>
<path fill="none" stroke="midnightblue" d="M277.127,-39.9423C285.578,-38.9572 294.211,-37.9509 302.65,-36.9671"/>
<polygon fill="midnightblue" stroke="midnightblue" points="303.296,-40.4156 312.824,-35.7813 302.486,-33.4627 303.296,-40.4156"/>
</g>
<!-- Node14 -->
<g id="node4" class="node"><title>Node14</title>
<g id="a_node4"><a xlink:href="structeagle__impl_1_1SPIClass.html#a821dccd5dda20ccd9093fc35cce74ae5" target="_top" xlink:title="eagle_impl::SPIClass\l::transfer">
<polygon fill="white" stroke="black" points="467,-14 467,-44 578,-44 578,-14 467,-14"/>
<text text-anchor="start" x="475" y="-32" font-family="Helvetica,sans-Serif" font-size="10.00">eagle_impl::SPIClass</text>
<text text-anchor="middle" x="522.5" y="-21" font-family="Helvetica,sans-Serif" font-size="10.00">::transfer</text>
</a>
</g>
</g>
<!-- Node13&#45;&gt;Node14 -->
<g id="edge3" class="edge"><title>Node13&#45;&gt;Node14</title>
<path fill="none" stroke="midnightblue" d="M431.265,-29C439.584,-29 448.183,-29 456.619,-29"/>
<polygon fill="midnightblue" stroke="midnightblue" points="456.797,-32.5001 466.797,-29 456.797,-25.5001 456.797,-32.5001"/>
</g>
<!-- Node15&#45;&gt;Node13 -->
<g id="edge5" class="edge"><title>Node15&#45;&gt;Node13</title>
<path fill="none" stroke="midnightblue" d="M276.182,-17.9476C284.961,-18.9709 293.951,-20.0188 302.731,-21.0422"/>
<polygon fill="midnightblue" stroke="midnightblue" points="302.577,-24.548 312.915,-22.2294 303.388,-17.595 302.577,-24.548"/>
</g>
</g>
</svg>
