<?xml version="1.0" encoding="UTF-8" standalone="no"?>
<!DOCTYPE svg PUBLIC "-//W3C//DTD SVG 1.1//EN"
 "http://www.w3.org/Graphics/SVG/1.1/DTD/svg11.dtd">
<!-- Generated by graphviz version 2.38.0 (20140413.2041)
 -->
<!-- Title: SoccerBoard::analog Pages: 1 -->
<svg width="386pt" height="78pt"
 viewBox="0.00 0.00 386.00 77.86" xmlns="http://www.w3.org/2000/svg" xmlns:xlink="http://www.w3.org/1999/xlink">
<g id="graph0" class="graph" transform="scale(1 1) rotate(0) translate(4 73.8589)">
<title>SoccerBoard::analog</title>
<polygon fill="white" stroke="none" points="-4,4 -4,-73.8589 382,-73.8589 382,4 -4,4"/>
<!-- Node4 -->
<g id="node1" class="node"><title>Node4</title>
<polygon fill="#bfbfbf" stroke="black" points="0,-38.5 0,-57.5 107,-57.5 107,-38.5 0,-38.5"/>
<text text-anchor="middle" x="53.5" y="-45.5" font-family="Helvetica,sans-Serif" font-size="10.00">SoccerBoard::analog</text>
</g>
<!-- Node5 -->
<g id="node2" class="node"><title>Node5</title>
<g id="a_node2"><a xlink:href="eBoard_8h.html#aca4f96af7c6736bf2b61c88d731af741" target="_top" xlink:title="read a digital state from an INPUTpin ">
<polygon fill="white" stroke="black" points="143,-38.5 143,-57.5 193,-57.5 193,-38.5 143,-38.5"/>
<text text-anchor="middle" x="168" y="-45.5" font-family="Helvetica,sans-Serif" font-size="10.00">readPin</text>
</a>
</g>
</g>
<!-- Node4&#45;&gt;Node5 -->
<g id="edge1" class="edge"><title>Node4&#45;&gt;Node5</title>
<path fill="none" stroke="midnightblue" d="M107.127,-48C115.795,-48 124.578,-48 132.649,-48"/>
<polygon fill="midnightblue" stroke="midnightblue" points="132.779,-51.5001 142.778,-48 132.778,-44.5001 132.779,-51.5001"/>
</g>
<!-- Node6 -->
<g id="node3" class="node"><title>Node6</title>
<g id="a_node3"><a xlink:href="eBoard_8h.html#a757015d50a6c57414603841f728b670b" target="_top" xlink:title="[DEBUG_MODE] used to check if a pin index is in bounds ">
<polygon fill="white" stroke="black" points="322,-38.5 322,-57.5 378,-57.5 378,-38.5 322,-38.5"/>
<text text-anchor="middle" x="350" y="-45.5" font-family="Helvetica,sans-Serif" font-size="10.00">checkIdx</text>
</a>
</g>
</g>
<!-- Node5&#45;&gt;Node6 -->
<g id="edge2" class="edge"><title>Node5&#45;&gt;Node6</title>
<path fill="none" stroke="midnightblue" d="M193.116,-57.4977C203.91,-61.2605 216.906,-65.1308 229,-67 254.036,-70.8694 260.938,-70.697 286,-67 295.115,-65.6555 304.739,-63.2724 313.647,-60.6386"/>
<polygon fill="midnightblue" stroke="midnightblue" points="314.841,-63.9324 323.335,-57.6004 312.746,-57.2532 314.841,-63.9324"/>
</g>
<!-- Node7 -->
<g id="node4" class="node"><title>Node7</title>
<g id="a_node4"><a xlink:href="eBoard_8h.html#a06400a6dce24e4eda610644893c1bbd7" target="_top" xlink:title="[COPY&amp;PASTE] [CHECK_PINS] Check if a pin is set to a specific mode ">
<polygon fill="white" stroke="black" points="229,-38.5 229,-57.5 286,-57.5 286,-38.5 229,-38.5"/>
<text text-anchor="middle" x="257.5" y="-45.5" font-family="Helvetica,sans-Serif" font-size="10.00">checkPin</text>
</a>
</g>
</g>
<!-- Node5&#45;&gt;Node7 -->
<g id="edge3" class="edge"><title>Node5&#45;&gt;Node7</title>
<path fill="none" stroke="midnightblue" d="M193.374,-48C201.211,-48 210.088,-48 218.656,-48"/>
<polygon fill="midnightblue" stroke="midnightblue" points="218.865,-51.5001 228.865,-48 218.865,-44.5001 218.865,-51.5001"/>
</g>
<!-- Node8 -->
<g id="node5" class="node"><title>Node8</title>
<g id="a_node5"><a xlink:href="eBoard_8h.html#a78b0e873cb50c282c6243d4913406be4" target="_top" xlink:title="[COPY&amp;PASTE] set a pin to a certain mode =&gt; checkPin() will return true then ">
<polygon fill="white" stroke="black" points="235.5,-0.5 235.5,-19.5 279.5,-19.5 279.5,-0.5 235.5,-0.5"/>
<text text-anchor="middle" x="257.5" y="-7.5" font-family="Helvetica,sans-Serif" font-size="10.00">setPin</text>
</a>
</g>
</g>
<!-- Node5&#45;&gt;Node8 -->
<g id="edge5" class="edge"><title>Node5&#45;&gt;Node8</title>
<path fill="none" stroke="midnightblue" d="M191.08,-38.411C201.68,-33.8075 214.551,-28.218 226.062,-23.2187"/>
<polygon fill="midnightblue" stroke="midnightblue" points="227.554,-26.3865 235.333,-19.1927 224.766,-19.9658 227.554,-26.3865"/>
</g>
<!-- Node7&#45;&gt;Node6 -->
<g id="edge4" class="edge"><title>Node7&#45;&gt;Node6</title>
<path fill="none" stroke="midnightblue" d="M286.145,-48C294.201,-48 303.139,-48 311.688,-48"/>
<polygon fill="midnightblue" stroke="midnightblue" points="311.836,-51.5001 321.836,-48 311.835,-44.5001 311.836,-51.5001"/>
</g>
<!-- Node8&#45;&gt;Node6 -->
<g id="edge6" class="edge"><title>Node8&#45;&gt;Node6</title>
<path fill="none" stroke="midnightblue" d="M279.947,-19.0055C290.918,-23.612 304.499,-29.3144 316.706,-34.4399"/>
<polygon fill="midnightblue" stroke="midnightblue" points="315.549,-37.7504 326.125,-38.3949 318.259,-31.2963 315.549,-37.7504"/>
</g>
</g>
</svg>
