<?xml version="1.0" encoding="UTF-8" standalone="no"?>
<!DOCTYPE svg PUBLIC "-//W3C//DTD SVG 1.1//EN"
 "http://www.w3.org/Graphics/SVG/1.1/DTD/svg11.dtd">
<!-- Generated by graphviz version 2.38.0 (20140413.2041)
 -->
<!-- Title: LCD::s1Cmd Pages: 1 -->
<!--zoomable 448 -->
<svg id="main" version="1.1" xmlns="http://www.w3.org/2000/svg" xmlns:xlink="http://www.w3.org/1999/xlink" xml:space="preserve" onload="init(evt)">
<style type="text/css"><![CDATA[
.edge:hover path { stroke: red; }
.edge:hover polygon { stroke: red; fill: red; }
]]></style>
<script type="text/javascript"><![CDATA[
var edges = document.getElementsByTagName('g');
if (edges && edges.length) {
  for (var i=0;i<edges.length;i++) {
    if (edges[i].id.substr(0,4)=='edge') {
      edges[i].setAttribute('class','edge');
    }
  }
}
]]></script>
        <defs>
                <circle id="rim" cx="0" cy="0" r="7"/>
                <circle id="rim2" cx="0" cy="0" r="3.5"/>
                <g id="zoomPlus">
                        <use xlink:href="#rim" fill="#404040">
                                <set attributeName="fill" to="#808080" begin="zoomplus.mouseover" end="zoomplus.mouseout"/>
                        </use>
                        <path d="M-4,0h8M0,-4v8" fill="none" stroke="white" stroke-width="1.5" pointer-events="none"/>
                </g>
                <g id="zoomMin">
                        <use xlink:href="#rim" fill="#404040">
                                <set attributeName="fill" to="#808080" begin="zoomminus.mouseover" end="zoomminus.mouseout"/>
                        </use>
                        <path d="M-4,0h8" fill="none" stroke="white" stroke-width="1.5" pointer-events="none"/>
                </g>
                <g id="dirArrow">
                        <path fill="none" stroke="white" stroke-width="1.5" d="M0,-3.0v7 M-2.5,-0.5L0,-3.0L2.5,-0.5"/>
                </g>
               <g id="resetDef">
                       <use xlink:href="#rim2" fill="#404040">
                               <set attributeName="fill" to="#808080" begin="reset.mouseover" end="reset.mouseout"/>
                       </use>
               </g>
        </defs>

<script type="text/javascript">
var viewWidth = 743;
var viewHeight = 448;
var sectionId = 'dynsection-20';
</script>
<script xlink:href="svgpan.js"/>
<svg id="graph" class="graph">
<g id="viewport">
<title>LCD::s1Cmd</title>
<polygon fill="white" stroke="none" points="-4,4 -4,-444.221 739,-444.221 739,4 -4,4"/>
<!-- Node283 -->
<g id="node1" class="node"><title>Node283</title>
<polygon fill="#bfbfbf" stroke="black" points="0,-110.221 0,-129.221 74,-129.221 74,-110.221 0,-110.221"/>
<text text-anchor="middle" x="37" y="-117.221" font-family="Helvetica,sans-Serif" font-size="10.00">LCD::s1Cmd</text>
</g>
<!-- Node284 -->
<g id="node2" class="node"><title>Node284</title>
<g id="a_node2"><a xlink:href="classeagle__impl_1_1TwoWire.html#a1876ffdb16fb185c14a75e1251cef5e4" target="_top" xlink:title="eagle_impl::TwoWire\l::beginTransmission">
<polygon fill="white" stroke="black" points="521,-347.721 521,-377.721 629,-377.721 629,-347.721 521,-347.721"/>
<text text-anchor="start" x="529" y="-365.721" font-family="Helvetica,sans-Serif" font-size="10.00">eagle_impl::TwoWire</text>
<text text-anchor="middle" x="575" y="-354.721" font-family="Helvetica,sans-Serif" font-size="10.00">::beginTransmission</text>
</a>
</g>
</g>
<!-- Node283&#45;&gt;Node284 -->
<g id="edge1" class="edge"><title>Node283&#45;&gt;Node284</title>
<path fill="none" stroke="midnightblue" d="M41.3554,-129.462C49.8335,-153.001 74.0322,-213.966 110,-253.721 143.08,-290.285 158.187,-293.103 202,-315.721 316.33,-374.744 356.725,-386.749 485,-376.721 493.406,-376.064 502.218,-375.063 510.893,-373.892"/>
<polygon fill="midnightblue" stroke="midnightblue" points="511.576,-377.33 520.98,-372.449 510.585,-370.4 511.576,-377.33"/>
</g>
<!-- Node285 -->
<g id="node3" class="node"><title>Node285</title>
<g id="a_node3"><a xlink:href="classeagle__impl_1_1TwoWire.html#af80f9a7b85a3a81a035ca94c95bcdc1d" target="_top" xlink:title="eagle_impl::TwoWire\l::endTransmission">
<polygon fill="white" stroke="black" points="521,-298.721 521,-328.721 629,-328.721 629,-298.721 521,-298.721"/>
<text text-anchor="start" x="529" y="-316.721" font-family="Helvetica,sans-Serif" font-size="10.00">eagle_impl::TwoWire</text>
<text text-anchor="middle" x="575" y="-305.721" font-family="Helvetica,sans-Serif" font-size="10.00">::endTransmission</text>
</a>
</g>
</g>
<!-- Node283&#45;&gt;Node285 -->
<g id="edge2" class="edge"><title>Node283&#45;&gt;Node285</title>
<path fill="none" stroke="midnightblue" d="M43.9812,-129.484C62.8148,-159.212 124.282,-248.784 202,-284.721 302.303,-331.102 434.115,-328.546 510.902,-321.679"/>
<polygon fill="midnightblue" stroke="midnightblue" points="511.279,-325.159 520.905,-320.732 510.619,-318.19 511.279,-325.159"/>
</g>
<!-- Node286 -->
<g id="node4" class="node"><title>Node286</title>
<g id="a_node4"><a xlink:href="structLCD.html#a632d9c641930fe16c0b623b82136196e" target="_top" xlink:title="LCD::init">
<polygon fill="white" stroke="black" points="110,-131.221 110,-150.221 166,-150.221 166,-131.221 110,-131.221"/>
<text text-anchor="middle" x="138" y="-138.221" font-family="Helvetica,sans-Serif" font-size="10.00">LCD::init</text>
</a>
</g>
</g>
<!-- Node283&#45;&gt;Node286 -->
<g id="edge3" class="edge"><title>Node283&#45;&gt;Node286</title>
<path fill="none" stroke="midnightblue" d="M74.0213,-127.362C82.4326,-129.146 91.406,-131.05 99.8646,-132.844"/>
<polygon fill="midnightblue" stroke="midnightblue" points="99.3461,-136.312 109.855,-134.963 100.799,-129.464 99.3461,-136.312"/>
</g>
<!-- Node293 -->
<g id="node11" class="node"><title>Node293</title>
<g id="a_node11"><a xlink:href="classeagle__impl_1_1TwoWire.html#a2b5f9f156b6d281746a2a6ca5707dad3" target="_top" xlink:title="eagle_impl::TwoWire\l::write">
<polygon fill="white" stroke="black" points="521,-409.721 521,-439.721 629,-439.721 629,-409.721 521,-409.721"/>
<text text-anchor="start" x="529" y="-427.721" font-family="Helvetica,sans-Serif" font-size="10.00">eagle_impl::TwoWire</text>
<text text-anchor="middle" x="575" y="-416.721" font-family="Helvetica,sans-Serif" font-size="10.00">::write</text>
</a>
</g>
</g>
<!-- Node283&#45;&gt;Node293 -->
<g id="edge30" class="edge"><title>Node283&#45;&gt;Node293</title>
<path fill="none" stroke="midnightblue" d="M40.1932,-129.444C46.7729,-156.927 68.5015,-236.561 110,-288.721 141.492,-328.305 155.897,-334.908 202,-355.721 303.633,-401.603 434.063,-416.976 510.402,-422.126"/>
<polygon fill="midnightblue" stroke="midnightblue" points="510.604,-425.646 520.806,-422.787 511.048,-418.66 510.604,-425.646"/>
</g>
<!-- Node287 -->
<g id="node5" class="node"><title>Node287</title>
<g id="a_node5"><a xlink:href="structLCD.html#aa01b7522d1e210f9cd071e3a5d4ae9e6" target="_top" xlink:title="LCD::changeBackground">
<polygon fill="white" stroke="black" points="202,-84.2212 202,-103.221 328,-103.221 328,-84.2212 202,-84.2212"/>
<text text-anchor="middle" x="265" y="-91.2212" font-family="Helvetica,sans-Serif" font-size="10.00">LCD::changeBackground</text>
</a>
</g>
</g>
<!-- Node286&#45;&gt;Node287 -->
<g id="edge4" class="edge"><title>Node286&#45;&gt;Node287</title>
<path fill="none" stroke="midnightblue" d="M152.855,-131.079C167.132,-123.877 190.271,-114.431 211.75,-106.699"/>
<polygon fill="midnightblue" stroke="midnightblue" points="213.193,-109.901 221.464,-103.281 210.869,-103.298 213.193,-109.901"/>
</g>
<!-- Node288 -->
<g id="node6" class="node"><title>Node288</title>
<g id="a_node6"><a xlink:href="structLCD.html#a75cacb94de3b3ff71e9a4497b5cc4a81" target="_top" xlink:title="LCD::changeBrightness">
<polygon fill="white" stroke="black" points="364,-263.221 364,-282.221 485,-282.221 485,-263.221 364,-263.221"/>
<text text-anchor="middle" x="424.5" y="-270.221" font-family="Helvetica,sans-Serif" font-size="10.00">LCD::changeBrightness</text>
</a>
</g>
</g>
<!-- Node286&#45;&gt;Node288 -->
<g id="edge7" class="edge"><title>Node286&#45;&gt;Node288</title>
<path fill="none" stroke="midnightblue" d="M143.543,-150.423C151.329,-170.578 169.601,-214.682 202,-235.721 246.578,-264.669 306.954,-270.639 353.412,-271.324"/>
<polygon fill="midnightblue" stroke="midnightblue" points="353.677,-274.826 363.702,-271.397 353.727,-267.826 353.677,-274.826"/>
</g>
<!-- Node289 -->
<g id="node7" class="node"><title>Node289</title>
<g id="a_node7"><a xlink:href="structLCD.html#ae7a8d9bc1581cfeeb0f098c8bb6d1229" target="_top" xlink:title="LCD::s2Cmd">
<polygon fill="white" stroke="black" points="538,-131.221 538,-150.221 612,-150.221 612,-131.221 538,-131.221"/>
<text text-anchor="middle" x="575" y="-138.221" font-family="Helvetica,sans-Serif" font-size="10.00">LCD::s2Cmd</text>
</a>
</g>
</g>
<!-- Node286&#45;&gt;Node289 -->
<g id="edge29" class="edge"><title>Node286&#45;&gt;Node289</title>
<path fill="none" stroke="midnightblue" d="M166.211,-137.235C238.672,-133.198 436.954,-132.906 527.634,-136.358"/>
<polygon fill="midnightblue" stroke="midnightblue" points="527.747,-139.866 537.884,-136.786 528.039,-132.872 527.747,-139.866"/>
</g>
<!-- Node290 -->
<g id="node8" class="node"><title>Node290</title>
<g id="a_node8"><a xlink:href="structLCD.html#ad31ee94d401b7c28d6cc2f472e2eb8fd" target="_top" xlink:title="LCD::changeMode">
<polygon fill="white" stroke="black" points="216,-46.2212 216,-65.2212 314,-65.2212 314,-46.2212 216,-46.2212"/>
<text text-anchor="middle" x="265" y="-53.2212" font-family="Helvetica,sans-Serif" font-size="10.00">LCD::changeMode</text>
</a>
</g>
</g>
<!-- Node286&#45;&gt;Node290 -->
<g id="edge14" class="edge"><title>Node286&#45;&gt;Node290</title>
<path fill="none" stroke="midnightblue" d="M142.592,-130.815C151.288,-113.904 174.771,-82.528 202,-65.7212 203.482,-64.8065 205.011,-63.9329 206.576,-63.1009"/>
<polygon fill="midnightblue" stroke="midnightblue" points="208.263,-66.177 215.86,-58.7922 205.315,-59.8276 208.263,-66.177"/>
</g>
<!-- Node291 -->
<g id="node9" class="node"><title>Node291</title>
<g id="a_node9"><a xlink:href="structLCD.html#ad3120f397273bac2ad60e0291554b9e6" target="_top" xlink:title="LCD::clear">
<polygon fill="white" stroke="black" points="233,-216.221 233,-235.221 297,-235.221 297,-216.221 233,-216.221"/>
<text text-anchor="middle" x="265" y="-223.221" font-family="Helvetica,sans-Serif" font-size="10.00">LCD::clear</text>
</a>
</g>
</g>
<!-- Node286&#45;&gt;Node291 -->
<g id="edge17" class="edge"><title>Node286&#45;&gt;Node291</title>
<path fill="none" stroke="midnightblue" d="M153.044,-150.385C164.931,-162.085 183.022,-180.575 202,-192.721 214.734,-200.871 230.668,-206.964 243.194,-212.177"/>
<polygon fill="midnightblue" stroke="midnightblue" points="241.818,-215.395 252.383,-216.191 244.621,-208.98 241.818,-215.395"/>
</g>
<!-- Node287&#45;&gt;Node283 -->
<g id="edge6" class="edge"><title>Node287&#45;&gt;Node283</title>
<path fill="none" stroke="midnightblue" d="M201.613,-100.898C164.429,-105.176 118.03,-110.514 84.149,-114.412"/>
<polygon fill="midnightblue" stroke="midnightblue" points="83.5947,-110.953 74.0603,-115.573 84.3948,-117.907 83.5947,-110.953"/>
</g>
<!-- Node287&#45;&gt;Node286 -->
<g id="edge5" class="edge"><title>Node287&#45;&gt;Node286</title>
<path fill="none" stroke="midnightblue" d="M250.413,-103.228C232.641,-112.229 200.813,-124.8 175.714,-133.128"/>
<polygon fill="midnightblue" stroke="midnightblue" points="174.578,-129.816 166.123,-136.201 176.714,-136.482 174.578,-129.816"/>
</g>
<!-- Node288&#45;&gt;Node284 -->
<g id="edge8" class="edge"><title>Node288&#45;&gt;Node284</title>
<path fill="none" stroke="midnightblue" d="M437.999,-282.448C455.804,-296.046 489.778,-321.053 521,-338.721 523.683,-340.239 526.479,-341.736 529.323,-343.196"/>
<polygon fill="midnightblue" stroke="midnightblue" points="527.975,-346.434 538.493,-347.71 531.067,-340.153 527.975,-346.434"/>
</g>
<!-- Node288&#45;&gt;Node285 -->
<g id="edge9" class="edge"><title>Node288&#45;&gt;Node285</title>
<path fill="none" stroke="midnightblue" d="M459.942,-282.23C475.196,-286.442 493.632,-291.532 511.193,-296.381"/>
<polygon fill="midnightblue" stroke="midnightblue" points="510.263,-299.755 520.834,-299.042 512.126,-293.007 510.263,-299.755"/>
</g>
<!-- Node288&#45;&gt;Node286 -->
<g id="edge10" class="edge"><title>Node288&#45;&gt;Node286</title>
<path fill="none" stroke="midnightblue" d="M394.62,-282.262C349.593,-290.049 261.652,-292.458 202,-253.721 168.856,-232.198 150.497,-186.538 143.023,-160.033"/>
<polygon fill="midnightblue" stroke="midnightblue" points="146.4,-159.111 140.543,-150.281 139.616,-160.836 146.4,-159.111"/>
</g>
<!-- Node288&#45;&gt;Node289 -->
<g id="edge11" class="edge"><title>Node288&#45;&gt;Node289</title>
<path fill="none" stroke="midnightblue" d="M436.662,-262.8C462.048,-240.234 524.324,-184.878 555.537,-157.132"/>
<polygon fill="midnightblue" stroke="midnightblue" points="557.964,-159.659 563.112,-150.399 553.313,-154.427 557.964,-159.659"/>
</g>
<!-- Node289&#45;&gt;Node283 -->
<g id="edge13" class="edge"><title>Node289&#45;&gt;Node283</title>
<path fill="none" stroke="midnightblue" d="M560.742,-131.168C525.222,-106.24 424.084,-39.5684 328,-16.7212 233.26,5.80621 193.553,11.299 110,-38.7212 83.761,-54.4296 61.8165,-82.8437 49.2907,-101.497"/>
<polygon fill="midnightblue" stroke="midnightblue" points="46.2766,-99.7123 43.7733,-110.007 52.1501,-103.52 46.2766,-99.7123"/>
</g>
<!-- Node289&#45;&gt;Node286 -->
<g id="edge12" class="edge"><title>Node289&#45;&gt;Node286</title>
<path fill="none" stroke="midnightblue" d="M537.884,-144.657C456.423,-148.39 259.065,-148.409 176.401,-144.715"/>
<polygon fill="midnightblue" stroke="midnightblue" points="176.373,-141.209 166.211,-144.208 176.025,-148.201 176.373,-141.209"/>
</g>
<!-- Node290&#45;&gt;Node283 -->
<g id="edge16" class="edge"><title>Node290&#45;&gt;Node283</title>
<path fill="none" stroke="midnightblue" d="M230.304,-65.2635C190.724,-76.472 124.966,-95.0935 81.5505,-107.388"/>
<polygon fill="midnightblue" stroke="midnightblue" points="80.5025,-104.047 71.8345,-110.14 82.4098,-110.783 80.5025,-104.047"/>
</g>
<!-- Node290&#45;&gt;Node286 -->
<g id="edge15" class="edge"><title>Node290&#45;&gt;Node286</title>
<path fill="none" stroke="midnightblue" d="M248.826,-65.2466C235.689,-69.7201 216.562,-74.7331 202,-83.7212 184.861,-94.3002 169.206,-110.652 157.789,-123.329"/>
<polygon fill="midnightblue" stroke="midnightblue" points="154.964,-121.238 150.925,-131.032 160.191,-125.895 154.964,-121.238"/>
</g>
<!-- Node291&#45;&gt;Node286 -->
<g id="edge18" class="edge"><title>Node291&#45;&gt;Node286</title>
<path fill="none" stroke="midnightblue" d="M232.872,-224.942C222.615,-221.664 211.43,-216.756 202,-210.721 180.561,-197.001 160.255,-175.184 148.745,-159.191"/>
<polygon fill="midnightblue" stroke="midnightblue" points="151.473,-156.971 143.043,-150.553 145.631,-160.827 151.473,-156.971"/>
</g>
<!-- Node292 -->
<g id="node10" class="node"><title>Node292</title>
<g id="a_node10"><a xlink:href="structLCD.html#ae5873763db265cd00da32664cce88873" target="_top" xlink:title="LCD::s1Dat">
<polygon fill="white" stroke="black" points="390,-348.221 390,-367.221 459,-367.221 459,-348.221 390,-348.221"/>
<text text-anchor="middle" x="424.5" y="-355.221" font-family="Helvetica,sans-Serif" font-size="10.00">LCD::s1Dat</text>
</a>
</g>
</g>
<!-- Node291&#45;&gt;Node292 -->
<g id="edge19" class="edge"><title>Node291&#45;&gt;Node292</title>
<path fill="none" stroke="midnightblue" d="M277.581,-235.427C304.319,-257.836 370.596,-313.382 403.834,-341.239"/>
<polygon fill="midnightblue" stroke="midnightblue" points="401.989,-344.26 411.902,-348.001 406.486,-338.895 401.989,-344.26"/>
</g>
<!-- Node295 -->
<g id="node13" class="node"><title>Node295</title>
<g id="a_node13"><a xlink:href="structLCD.html#ad1a67d455563026a5064ef9cab86ae4d" target="_top" xlink:title="LCD::setCursor">
<polygon fill="white" stroke="black" points="381.5,-178.221 381.5,-197.221 467.5,-197.221 467.5,-178.221 381.5,-178.221"/>
<text text-anchor="middle" x="424.5" y="-185.221" font-family="Helvetica,sans-Serif" font-size="10.00">LCD::setCursor</text>
</a>
</g>
</g>
<!-- Node291&#45;&gt;Node295 -->
<g id="edge25" class="edge"><title>Node291&#45;&gt;Node295</title>
<path fill="none" stroke="midnightblue" d="M297.117,-218.214C319.119,-212.905 349.066,-205.68 374.287,-199.595"/>
<polygon fill="midnightblue" stroke="midnightblue" points="375.151,-202.987 384.051,-197.239 373.509,-196.182 375.151,-202.987"/>
</g>
<!-- Node292&#45;&gt;Node284 -->
<g id="edge21" class="edge"><title>Node292&#45;&gt;Node284</title>
<path fill="none" stroke="midnightblue" d="M459.197,-358.856C474.434,-359.369 492.957,-359.992 510.638,-360.588"/>
<polygon fill="midnightblue" stroke="midnightblue" points="510.808,-364.095 520.92,-360.934 511.044,-357.099 510.808,-364.095"/>
</g>
<!-- Node292&#45;&gt;Node285 -->
<g id="edge24" class="edge"><title>Node292&#45;&gt;Node285</title>
<path fill="none" stroke="midnightblue" d="M457.722,-348.174C473.994,-343.353 494.28,-337.342 513.332,-331.697"/>
<polygon fill="midnightblue" stroke="midnightblue" points="514.561,-334.983 523.154,-328.787 512.572,-328.272 514.561,-334.983"/>
</g>
<!-- Node292&#45;&gt;Node286 -->
<g id="edge20" class="edge"><title>Node292&#45;&gt;Node286</title>
<path fill="none" stroke="midnightblue" d="M389.985,-355.121C342.537,-349.757 255.601,-333.504 202,-284.721 164.794,-250.86 148.503,-191.088 142.299,-160.286"/>
<polygon fill="midnightblue" stroke="midnightblue" points="145.72,-159.54 140.449,-150.35 138.838,-160.821 145.72,-159.54"/>
</g>
<!-- Node292&#45;&gt;Node293 -->
<g id="edge22" class="edge"><title>Node292&#45;&gt;Node293</title>
<path fill="none" stroke="midnightblue" d="M446.776,-367.321C468.729,-377.225 503.572,-392.946 531.248,-405.432"/>
<polygon fill="midnightblue" stroke="midnightblue" points="530.151,-408.777 540.705,-409.699 533.03,-402.396 530.151,-408.777"/>
</g>
<!-- Node294 -->
<g id="node12" class="node"><title>Node294</title>
<g id="a_node12"><a xlink:href="eBoard_8h.html#abb66f08d8061c1064047324c1bacc2a9" target="_top" xlink:title="twi_transmit">
<polygon fill="white" stroke="black" points="665,-415.221 665,-434.221 735,-434.221 735,-415.221 665,-415.221"/>
<text text-anchor="middle" x="700" y="-422.221" font-family="Helvetica,sans-Serif" font-size="10.00">twi_transmit</text>
</a>
</g>
</g>
<!-- Node293&#45;&gt;Node294 -->
<g id="edge23" class="edge"><title>Node293&#45;&gt;Node294</title>
<path fill="none" stroke="midnightblue" d="M629.234,-424.721C637.725,-424.721 646.431,-424.721 654.686,-424.721"/>
<polygon fill="midnightblue" stroke="midnightblue" points="654.854,-428.221 664.854,-424.721 654.854,-421.221 654.854,-428.221"/>
</g>
<!-- Node295&#45;&gt;Node283 -->
<g id="edge28" class="edge"><title>Node295&#45;&gt;Node283</title>
<path fill="none" stroke="midnightblue" d="M420.884,-177.891C412.768,-149.624 385.057,-68.146 328,-36.7212 234.939,14.5333 107.251,-67.5729 58.2612,-103.859"/>
<polygon fill="midnightblue" stroke="midnightblue" points="55.9245,-101.238 50.0557,-110.058 60.1443,-106.823 55.9245,-101.238"/>
</g>
<!-- Node295&#45;&gt;Node286 -->
<g id="edge26" class="edge"><title>Node295&#45;&gt;Node286</title>
<path fill="none" stroke="midnightblue" d="M381.353,-186.187C336.411,-183.849 263.403,-178.033 202,-163.721 191.539,-161.283 180.437,-157.615 170.513,-153.921"/>
<polygon fill="midnightblue" stroke="midnightblue" points="171.64,-150.604 161.051,-150.262 169.116,-157.133 171.64,-150.604"/>
</g>
<!-- Node295&#45;&gt;Node289 -->
<g id="edge27" class="edge"><title>Node295&#45;&gt;Node289</title>
<path fill="none" stroke="midnightblue" d="M455.551,-178.21C478.121,-171.067 509.257,-161.212 533.942,-153.399"/>
<polygon fill="midnightblue" stroke="midnightblue" points="535.261,-156.653 543.739,-150.299 533.149,-149.979 535.261,-156.653"/>
</g>
</g>
</svg>
        <g id="navigator" transform="translate(0 0)" fill="#404254">
                <rect fill="#f2f5e9" fill-opacity="0.5" stroke="#606060" stroke-width=".5" x="0" y="0" width="60" height="60"/>
                <use id="zoomplus" xlink:href="#zoomPlus" x="17" y="9" onmousedown="handleZoom(evt,'in')"/>
                <use id="zoomminus" xlink:href="#zoomMin" x="42" y="9" onmousedown="handleZoom(evt,'out')"/>
                <use id="reset" xlink:href="#resetDef" x="30" y="36" onmousedown="handleReset()"/>
                <g id="arrowUp" xlink:href="#dirArrow" transform="translate(30 24)" onmousedown="handlePan(0,-1)">
                  <use xlink:href="#rim" fill="#404040">
                        <set attributeName="fill" to="#808080" begin="arrowUp.mouseover" end="arrowUp.mouseout"/>
                  </use>
                  <path fill="none" stroke="white" stroke-width="1.5" d="M0,-3.0v7 M-2.5,-0.5L0,-3.0L2.5,-0.5"/>
                </g>
                <g id="arrowRight" xlink:href="#dirArrow" transform="rotate(90) translate(36 -43)" onmousedown="handlePan(1,0)">
                  <use xlink:href="#rim" fill="#404040">
                        <set attributeName="fill" to="#808080" begin="arrowRight.mouseover" end="arrowRight.mouseout"/>
                  </use>
                  <path fill="none" stroke="white" stroke-width="1.5" d="M0,-3.0v7 M-2.5,-0.5L0,-3.0L2.5,-0.5"/>
                </g>
                <g id="arrowDown" xlink:href="#dirArrow" transform="rotate(180) translate(-30 -48)" onmousedown="handlePan(0,1)">
                  <use xlink:href="#rim" fill="#404040">
                        <set attributeName="fill" to="#808080" begin="arrowDown.mouseover" end="arrowDown.mouseout"/>
                  </use>
                  <path fill="none" stroke="white" stroke-width="1.5" d="M0,-3.0v7 M-2.5,-0.5L0,-3.0L2.5,-0.5"/>
                </g>
                <g id="arrowLeft" xlink:href="#dirArrow" transform="rotate(270) translate(-36 17)" onmousedown="handlePan(-1,0)">
                  <use xlink:href="#rim" fill="#404040">
                        <set attributeName="fill" to="#808080" begin="arrowLeft.mouseover" end="arrowLeft.mouseout"/>
                  </use>
                  <path fill="none" stroke="white" stroke-width="1.5" d="M0,-3.0v7 M-2.5,-0.5L0,-3.0L2.5,-0.5"/>
                </g>
        </g>
        <svg viewBox="0 0 15 15" width="100%" height="30px" preserveAspectRatio="xMaxYMin meet">
         <g id="arrow_out" transform="scale(0.3 0.3)">
          <a xlink:href="structLCD_a739998fad0591a092255676c8c8d532f_cgraph_org.svg" target="_base">
           <rect id="button" ry="5" rx="5" y="6" x="6" height="38" width="38"
                fill="#f2f5e9" fill-opacity="0.5" stroke="#606060" stroke-width="1.0"/>
           <path id="arrow"
             d="M 11.500037,31.436501 C 11.940474,20.09759 22.043105,11.32322 32.158766,21.979434 L 37.068811,17.246167 C 37.068811,17.246167 37.088388,32 37.088388,32 L 22.160133,31.978069 C 22.160133,31.978069 26.997745,27.140456 26.997745,27.140456 C 18.528582,18.264221 13.291696,25.230495 11.500037,31.436501 z"
             style="fill:#404040;"/>
          </a>
         </g>
        </svg>
</svg>
