<?xml version="1.0" encoding="UTF-8" standalone="no"?>
<!DOCTYPE svg PUBLIC "-//W3C//DTD SVG 1.1//EN"
 "http://www.w3.org/Graphics/SVG/1.1/DTD/svg11.dtd">
<!-- Generated by graphviz version 2.38.0 (20140413.2041)
 -->
<!-- Title: LCD::changeBrightness Pages: 1 -->
<svg width="876pt" height="455pt"
 viewBox="0.00 0.00 876.00 455.30" xmlns="http://www.w3.org/2000/svg" xmlns:xlink="http://www.w3.org/1999/xlink">
<g id="graph0" class="graph" transform="scale(1 1) rotate(0) translate(4 451.297)">
<title>LCD::changeBrightness</title>
<polygon fill="white" stroke="none" points="-4,4 -4,-451.297 872,-451.297 872,4 -4,4"/>
<!-- Node49 -->
<g id="node1" class="node"><title>Node49</title>
<polygon fill="#bfbfbf" stroke="black" points="0,-164.5 0,-183.5 121,-183.5 121,-164.5 0,-164.5"/>
<text text-anchor="middle" x="60.5" y="-171.5" font-family="Helvetica,sans-Serif" font-size="10.00">LCD::changeBrightness</text>
</g>
<!-- Node50 -->
<g id="node2" class="node"><title>Node50</title>
<g id="a_node2"><a xlink:href="structLCD.html#a632d9c641930fe16c0b623b82136196e" target="_top" xlink:title="LCD::init">
<polygon fill="white" stroke="black" points="166,-202.5 166,-221.5 222,-221.5 222,-202.5 166,-202.5"/>
<text text-anchor="middle" x="194" y="-209.5" font-family="Helvetica,sans-Serif" font-size="10.00">LCD::init</text>
</a>
</g>
</g>
<!-- Node49&#45;&gt;Node50 -->
<g id="edge1" class="edge"><title>Node49&#45;&gt;Node50</title>
<path fill="none" stroke="midnightblue" d="M127.411,-186.297C145.572,-191.549 163.718,-197.483 176.304,-202.497"/>
<polygon fill="midnightblue" stroke="midnightblue" points="128.224,-182.889 117.649,-183.54 126.322,-189.626 128.224,-182.889"/>
</g>
<!-- Node64 -->
<g id="node16" class="node"><title>Node64</title>
<g id="a_node16"><a xlink:href="structLCD.html#a3f437907a543226be7c527a2d304ad95" target="_top" xlink:title="LCD::lightOff">
<polygon fill="white" stroke="black" points="157,-164.5 157,-183.5 231,-183.5 231,-164.5 157,-164.5"/>
<text text-anchor="middle" x="194" y="-171.5" font-family="Helvetica,sans-Serif" font-size="10.00">LCD::lightOff</text>
</a>
</g>
</g>
<!-- Node49&#45;&gt;Node64 -->
<g id="edge33" class="edge"><title>Node49&#45;&gt;Node64</title>
<path fill="none" stroke="midnightblue" d="M131.157,-174C140.065,-174 148.878,-174 156.937,-174"/>
<polygon fill="midnightblue" stroke="midnightblue" points="131.094,-170.5 121.094,-174 131.094,-177.5 131.094,-170.5"/>
</g>
<!-- Node65 -->
<g id="node17" class="node"><title>Node65</title>
<g id="a_node17"><a xlink:href="structLCD.html#aa4c1e7d41ca93af28769aaba704d5c1f" target="_top" xlink:title="LCD::lightOn">
<polygon fill="white" stroke="black" points="157,-126.5 157,-145.5 231,-145.5 231,-126.5 157,-126.5"/>
<text text-anchor="middle" x="194" y="-133.5" font-family="Helvetica,sans-Serif" font-size="10.00">LCD::lightOn</text>
</a>
</g>
</g>
<!-- Node49&#45;&gt;Node65 -->
<g id="edge34" class="edge"><title>Node49&#45;&gt;Node65</title>
<path fill="none" stroke="midnightblue" d="M104.378,-161.609C122.386,-156.406 143.01,-150.446 159.828,-145.586"/>
<polygon fill="midnightblue" stroke="midnightblue" points="103.318,-158.272 94.683,-164.411 105.262,-164.997 103.318,-158.272"/>
</g>
<!-- Node50&#45;&gt;Node49 -->
<g id="edge16" class="edge"><title>Node50&#45;&gt;Node49</title>
<path fill="none" stroke="midnightblue" d="M155.569,-207.343C130.173,-201.131 97.8097,-191.293 78.4221,-183.592"/>
<polygon fill="midnightblue" stroke="midnightblue" points="155.083,-210.824 165.617,-209.689 156.675,-204.007 155.083,-210.824"/>
</g>
<!-- Node51 -->
<g id="node3" class="node"><title>Node51</title>
<g id="a_node3"><a xlink:href="structLCD.html#aa5e25fef7649532af402df06f05b6d4c" target="_top" xlink:title="LCD::changeID">
<polygon fill="white" stroke="black" points="267,-363.5 267,-382.5 352,-382.5 352,-363.5 267,-363.5"/>
<text text-anchor="middle" x="309.5" y="-370.5" font-family="Helvetica,sans-Serif" font-size="10.00">LCD::changeID</text>
</a>
</g>
</g>
<!-- Node50&#45;&gt;Node51 -->
<g id="edge2" class="edge"><title>Node50&#45;&gt;Node51</title>
<path fill="none" stroke="midnightblue" d="M201.263,-231.406C211.296,-260.027 233.334,-313.944 267,-349 272.534,-354.763 279.754,-359.579 286.616,-363.347"/>
<polygon fill="midnightblue" stroke="midnightblue" points="204.523,-230.121 198.006,-221.768 197.891,-232.362 204.523,-230.121"/>
</g>
<!-- Node52 -->
<g id="node4" class="node"><title>Node52</title>
<g id="a_node4"><a xlink:href="structLCD.html#ad3120f397273bac2ad60e0291554b9e6" target="_top" xlink:title="LCD::clear">
<polygon fill="white" stroke="black" points="687.5,-367.5 687.5,-386.5 751.5,-386.5 751.5,-367.5 687.5,-367.5"/>
<text text-anchor="middle" x="719.5" y="-374.5" font-family="Helvetica,sans-Serif" font-size="10.00">LCD::clear</text>
</a>
</g>
</g>
<!-- Node50&#45;&gt;Node52 -->
<g id="edge3" class="edge"><title>Node50&#45;&gt;Node52</title>
<path fill="none" stroke="midnightblue" d="M196.593,-231.726C200.676,-268.972 215.222,-347.944 267,-383 399.973,-473.027 609.06,-409.451 687.447,-384.992"/>
<polygon fill="midnightblue" stroke="midnightblue" points="200.061,-231.226 195.631,-221.601 193.092,-231.887 200.061,-231.226"/>
</g>
<!-- Node55 -->
<g id="node7" class="node"><title>Node55</title>
<g id="a_node7"><a xlink:href="structLCD.html#ab1b68d883d80dc7b8810e602b7032767" target="_top" xlink:title="LCD::print">
<polygon fill="white" stroke="black" points="688.5,-287.5 688.5,-306.5 750.5,-306.5 750.5,-287.5 688.5,-287.5"/>
<text text-anchor="middle" x="719.5" y="-294.5" font-family="Helvetica,sans-Serif" font-size="10.00">LCD::print</text>
</a>
</g>
</g>
<!-- Node50&#45;&gt;Node55 -->
<g id="edge7" class="edge"><title>Node50&#45;&gt;Node55</title>
<path fill="none" stroke="midnightblue" d="M217.896,-226.987C231.583,-235.19 249.637,-244.73 267,-250 420.275,-296.52 614.769,-298.798 688.414,-297.761"/>
<polygon fill="midnightblue" stroke="midnightblue" points="219.526,-223.88 209.181,-221.591 215.841,-229.831 219.526,-223.88"/>
</g>
<!-- Node56 -->
<g id="node8" class="node"><title>Node56</title>
<g id="a_node8"><a xlink:href="structLCD.html#a0fd055c88888db0e52fea11f1df24d4a" target="_top" xlink:title="LCD::drawBitmap">
<polygon fill="white" stroke="black" points="672,-131.5 672,-150.5 767,-150.5 767,-131.5 672,-131.5"/>
<text text-anchor="middle" x="719.5" y="-138.5" font-family="Helvetica,sans-Serif" font-size="10.00">LCD::drawBitmap</text>
</a>
</g>
</g>
<!-- Node50&#45;&gt;Node56 -->
<g id="edge8" class="edge"><title>Node50&#45;&gt;Node56</title>
<path fill="none" stroke="midnightblue" d="M227.11,-196.606C228.489,-195.471 229.797,-194.269 231,-193 257.27,-165.293 236.26,-137.646 267,-115 402.593,-15.1095 627.942,-100.867 697.441,-131.297"/>
<polygon fill="midnightblue" stroke="midnightblue" points="224.923,-193.86 218.633,-202.386 228.867,-199.644 224.923,-193.86"/>
</g>
<!-- Node58 -->
<g id="node10" class="node"><title>Node58</title>
<g id="a_node10"><a xlink:href="structLCD.html#ad31ee94d401b7c28d6cc2f472e2eb8fd" target="_top" xlink:title="LCD::changeMode">
<polygon fill="white" stroke="black" points="402,-202.5 402,-221.5 500,-221.5 500,-202.5 402,-202.5"/>
<text text-anchor="middle" x="451" y="-209.5" font-family="Helvetica,sans-Serif" font-size="10.00">LCD::changeMode</text>
</a>
</g>
</g>
<!-- Node50&#45;&gt;Node58 -->
<g id="edge10" class="edge"><title>Node50&#45;&gt;Node58</title>
<path fill="none" stroke="midnightblue" d="M232.459,-207.053C277.295,-204.821 352.471,-204.661 401.652,-206.574"/>
<polygon fill="midnightblue" stroke="midnightblue" points="232.075,-203.569 222.289,-207.63 232.472,-210.558 232.075,-203.569"/>
</g>
<!-- Node59 -->
<g id="node11" class="node"><title>Node59</title>
<g id="a_node11"><a xlink:href="structLCD.html#ad1a67d455563026a5064ef9cab86ae4d" target="_top" xlink:title="LCD::setCursor">
<polygon fill="white" stroke="black" points="550,-202.5 550,-221.5 636,-221.5 636,-202.5 550,-202.5"/>
<text text-anchor="middle" x="593" y="-209.5" font-family="Helvetica,sans-Serif" font-size="10.00">LCD::setCursor</text>
</a>
</g>
</g>
<!-- Node50&#45;&gt;Node59 -->
<g id="edge12" class="edge"><title>Node50&#45;&gt;Node59</title>
<path fill="none" stroke="midnightblue" d="M228.18,-224.962C240.212,-229.028 254.034,-232.979 267,-235 302.412,-240.519 481.904,-235.255 514,-231 529.198,-228.985 545.737,-225.194 559.658,-221.525"/>
<polygon fill="midnightblue" stroke="midnightblue" points="229.148,-221.592 218.553,-221.56 226.815,-228.192 229.148,-221.592"/>
</g>
<!-- Node60 -->
<g id="node12" class="node"><title>Node60</title>
<g id="a_node12"><a xlink:href="structLCD.html#aa01b7522d1e210f9cd071e3a5d4ae9e6" target="_top" xlink:title="LCD::changeBackground">
<polygon fill="white" stroke="black" points="388,-0.5 388,-19.5 514,-19.5 514,-0.5 388,-0.5"/>
<text text-anchor="middle" x="451" y="-7.5" font-family="Helvetica,sans-Serif" font-size="10.00">LCD::changeBackground</text>
</a>
</g>
</g>
<!-- Node50&#45;&gt;Node60 -->
<g id="edge17" class="edge"><title>Node50&#45;&gt;Node60</title>
<path fill="none" stroke="midnightblue" d="M213.263,-197.491C219.695,-193.923 226.448,-189.722 231,-184 269.925,-135.067 222.625,-92.0494 267,-48 298.661,-16.572 348.329,-5.27164 387.937,-2.93246"/>
<polygon fill="midnightblue" stroke="midnightblue" points="211.45,-194.494 204.364,-202.37 214.816,-200.632 211.45,-194.494"/>
</g>
<!-- Node61 -->
<g id="node13" class="node"><title>Node61</title>
<g id="a_node13"><a xlink:href="structLCD.html#ae7a8d9bc1581cfeeb0f098c8bb6d1229" target="_top" xlink:title="LCD::s2Cmd">
<polygon fill="white" stroke="black" points="414,-108.5 414,-127.5 488,-127.5 488,-108.5 414,-108.5"/>
<text text-anchor="middle" x="451" y="-115.5" font-family="Helvetica,sans-Serif" font-size="10.00">LCD::s2Cmd</text>
</a>
</g>
</g>
<!-- Node50&#45;&gt;Node61 -->
<g id="edge20" class="edge"><title>Node50&#45;&gt;Node61</title>
<path fill="none" stroke="midnightblue" d="M211.186,-196.995C217.737,-193.141 225.124,-188.964 231,-184 251.101,-167.021 244.357,-150.404 267,-137 312.359,-110.149 374.705,-106.21 413.658,-109.212"/>
<polygon fill="midnightblue" stroke="midnightblue" points="209.073,-194.188 202.459,-202.465 212.791,-200.12 209.073,-194.188"/>
</g>
<!-- Node62 -->
<g id="node14" class="node"><title>Node62</title>
<g id="a_node14"><a xlink:href="structLCD.html#a739998fad0591a092255676c8c8d532f" target="_top" xlink:title="LCD::s1Cmd">
<polygon fill="white" stroke="black" points="272.5,-155.5 272.5,-174.5 346.5,-174.5 346.5,-155.5 272.5,-155.5"/>
<text text-anchor="middle" x="309.5" y="-162.5" font-family="Helvetica,sans-Serif" font-size="10.00">LCD::s1Cmd</text>
</a>
</g>
</g>
<!-- Node50&#45;&gt;Node62 -->
<g id="edge24" class="edge"><title>Node50&#45;&gt;Node62</title>
<path fill="none" stroke="midnightblue" d="M227.436,-198.568C245.863,-190.938 268.508,-181.56 285.176,-174.658"/>
<polygon fill="midnightblue" stroke="midnightblue" points="225.869,-195.429 217.968,-202.489 228.547,-201.897 225.869,-195.429"/>
</g>
<!-- Node63 -->
<g id="node15" class="node"><title>Node63</title>
<g id="a_node15"><a xlink:href="structLCD.html#ae5873763db265cd00da32664cce88873" target="_top" xlink:title="LCD::s1Dat">
<polygon fill="white" stroke="black" points="558.5,-325.5 558.5,-344.5 627.5,-344.5 627.5,-325.5 558.5,-325.5"/>
<text text-anchor="middle" x="593" y="-332.5" font-family="Helvetica,sans-Serif" font-size="10.00">LCD::s1Dat</text>
</a>
</g>
</g>
<!-- Node50&#45;&gt;Node63 -->
<g id="edge29" class="edge"><title>Node50&#45;&gt;Node63</title>
<path fill="none" stroke="midnightblue" d="M202.763,-231.046C213.418,-254.43 234.971,-293.174 267,-311 361.424,-363.551 495.863,-351.046 558.045,-341.308"/>
<polygon fill="midnightblue" stroke="midnightblue" points="205.94,-229.574 198.751,-221.791 199.518,-232.358 205.94,-229.574"/>
</g>
<!-- Node52&#45;&gt;Node50 -->
<g id="edge5" class="edge"><title>Node52&#45;&gt;Node50</title>
<path fill="none" stroke="midnightblue" d="M693.836,-390.977C621.059,-423.696 403.769,-493.597 267,-401 205.128,-359.11 196.42,-254.51 195.199,-221.596"/>
<polygon fill="midnightblue" stroke="midnightblue" points="695.551,-394.038 703.122,-386.627 692.582,-387.699 695.551,-394.038"/>
</g>
<!-- Node53 -->
<g id="node5" class="node"><title>Node53</title>
<g id="a_node5"><a xlink:href="structLCD.html#a7912ad9a12d649cdec2dd53ae893a8ce" target="_top" xlink:title="LCD::reset">
<polygon fill="white" stroke="black" points="803,-348.5 803,-367.5 868,-367.5 868,-348.5 803,-348.5"/>
<text text-anchor="middle" x="835.5" y="-355.5" font-family="Helvetica,sans-Serif" font-size="10.00">LCD::reset</text>
</a>
</g>
</g>
<!-- Node52&#45;&gt;Node53 -->
<g id="edge4" class="edge"><title>Node52&#45;&gt;Node53</title>
<path fill="none" stroke="midnightblue" d="M761.74,-370.127C775.339,-367.86 790.237,-365.377 802.991,-363.252"/>
<polygon fill="midnightblue" stroke="midnightblue" points="760.94,-366.712 751.651,-371.808 762.09,-373.616 760.94,-366.712"/>
</g>
<!-- Node54 -->
<g id="node6" class="node"><title>Node54</title>
<g id="a_node6"><a xlink:href="lcd__debug_8cpp.html#ae66f6b31b5ad750f1fe042a706a4e3d4" target="_top" xlink:title="main">
<polygon fill="white" stroke="black" points="816.5,-386.5 816.5,-405.5 854.5,-405.5 854.5,-386.5 816.5,-386.5"/>
<text text-anchor="middle" x="835.5" y="-393.5" font-family="Helvetica,sans-Serif" font-size="10.00">main</text>
</a>
</g>
</g>
<!-- Node52&#45;&gt;Node54 -->
<g id="edge6" class="edge"><title>Node52&#45;&gt;Node54</title>
<path fill="none" stroke="midnightblue" d="M761.72,-383.87C780.401,-386.984 801.537,-390.506 816.2,-392.95"/>
<polygon fill="midnightblue" stroke="midnightblue" points="762.09,-380.384 751.651,-382.192 760.94,-387.288 762.09,-380.384"/>
</g>
<!-- Node57 -->
<g id="node9" class="node"><title>Node57</title>
<g id="a_node9"><a xlink:href="dancing__dragon_8cpp.html#a840291bc02cba5474a4cb46a9b9566fe" target="_top" xlink:title="main">
<polygon fill="white" stroke="black" points="816.5,-107.5 816.5,-126.5 854.5,-126.5 854.5,-107.5 816.5,-107.5"/>
<text text-anchor="middle" x="835.5" y="-114.5" font-family="Helvetica,sans-Serif" font-size="10.00">main</text>
</a>
</g>
</g>
<!-- Node56&#45;&gt;Node57 -->
<g id="edge9" class="edge"><title>Node56&#45;&gt;Node57</title>
<path fill="none" stroke="midnightblue" d="M775.919,-129.333C790.514,-126.26 805.248,-123.158 816.289,-120.834"/>
<polygon fill="midnightblue" stroke="midnightblue" points="774.948,-125.96 765.883,-131.446 776.39,-132.81 774.948,-125.96"/>
</g>
<!-- Node58&#45;&gt;Node50 -->
<g id="edge11" class="edge"><title>Node58&#45;&gt;Node50</title>
<path fill="none" stroke="midnightblue" d="M391.353,-217.785C338.256,-219.439 262.4,-218.967 222.289,-216.37"/>
<polygon fill="midnightblue" stroke="midnightblue" points="391.78,-221.273 401.652,-217.426 391.536,-214.277 391.78,-221.273"/>
</g>
<!-- Node59&#45;&gt;Node52 -->
<g id="edge13" class="edge"><title>Node59&#45;&gt;Node52</title>
<path fill="none" stroke="midnightblue" d="M607.415,-229.976C622.922,-250.734 649.234,-285.891 672,-316 685.653,-334.057 701.679,-355.032 710.905,-367.086"/>
<polygon fill="midnightblue" stroke="midnightblue" points="610.075,-227.688 601.287,-221.769 604.466,-231.876 610.075,-227.688"/>
</g>
<!-- Node59&#45;&gt;Node55 -->
<g id="edge14" class="edge"><title>Node59&#45;&gt;Node55</title>
<path fill="none" stroke="midnightblue" d="M616.63,-227.45C642.191,-244.902 683.003,-272.765 704.385,-287.363"/>
<polygon fill="midnightblue" stroke="midnightblue" points="618.514,-224.499 608.282,-221.751 614.567,-230.28 618.514,-224.499"/>
</g>
<!-- Node59&#45;&gt;Node56 -->
<g id="edge15" class="edge"><title>Node59&#45;&gt;Node56</title>
<path fill="none" stroke="midnightblue" d="M619.558,-197.425C644.09,-183.435 680.444,-162.702 701.578,-150.65"/>
<polygon fill="midnightblue" stroke="midnightblue" points="617.743,-194.43 610.791,-202.425 621.211,-200.511 617.743,-194.43"/>
</g>
<!-- Node60&#45;&gt;Node50 -->
<g id="edge18" class="edge"><title>Node60&#45;&gt;Node50</title>
<path fill="none" stroke="midnightblue" d="M378.002,-19.6076C340.302,-25.261 296.063,-37.1501 267,-66 222.625,-110.049 269.925,-153.067 231,-202 228.536,-205.097 225.428,-207.748 222.075,-209.907"/>
<polygon fill="midnightblue" stroke="midnightblue" points="378.511,-23.0706 387.937,-18.2337 377.552,-16.1366 378.511,-23.0706"/>
</g>
<!-- Node60&#45;&gt;Node57 -->
<g id="edge19" class="edge"><title>Node60&#45;&gt;Node57</title>
<path fill="none" stroke="midnightblue" d="M501.316,-21.9795C538.456,-31.1508 590.568,-44.3376 636,-57 702.759,-75.6063 781.357,-100.156 816.242,-111.191"/>
<polygon fill="midnightblue" stroke="midnightblue" points="501.802,-18.4948 491.256,-19.503 500.129,-25.2919 501.802,-18.4948"/>
</g>
<!-- Node61&#45;&gt;Node49 -->
<g id="edge23" class="edge"><title>Node61&#45;&gt;Node49</title>
<path fill="none" stroke="midnightblue" d="M403.887,-110.08C345.239,-101.751 241.441,-92.8882 157,-117 123.58,-126.543 89.9434,-150.846 72.9168,-164.435"/>
<polygon fill="midnightblue" stroke="midnightblue" points="403.544,-113.567 413.948,-111.567 404.568,-106.643 403.544,-113.567"/>
</g>
<!-- Node61&#45;&gt;Node50 -->
<g id="edge21" class="edge"><title>Node61&#45;&gt;Node50</title>
<path fill="none" stroke="midnightblue" d="M403.622,-122.962C364.591,-125.01 308.638,-130.352 267,-155 244.357,-168.404 251.101,-185.021 231,-202 228.301,-204.28 225.282,-206.394 222.173,-208.253"/>
<polygon fill="midnightblue" stroke="midnightblue" points="403.837,-126.455 413.658,-122.48 403.502,-119.463 403.837,-126.455"/>
</g>
<!-- Node61&#45;&gt;Node59 -->
<g id="edge22" class="edge"><title>Node61&#45;&gt;Node59</title>
<path fill="none" stroke="midnightblue" d="M477.991,-132.785C489.214,-139.355 502.403,-147.326 514,-155 537.778,-170.734 564.372,-190.707 579.557,-202.351"/>
<polygon fill="midnightblue" stroke="midnightblue" points="479.51,-129.621 469.103,-127.633 476,-135.677 479.51,-129.621"/>
</g>
<!-- Node62&#45;&gt;Node58 -->
<g id="edge25" class="edge"><title>Node62&#45;&gt;Node58</title>
<path fill="none" stroke="midnightblue" d="M348.5,-177.803C371.47,-185.542 400.281,-195.249 421.333,-202.342"/>
<polygon fill="midnightblue" stroke="midnightblue" points="349.324,-174.387 338.73,-174.511 347.089,-181.021 349.324,-174.387"/>
</g>
<!-- Node62&#45;&gt;Node59 -->
<g id="edge26" class="edge"><title>Node62&#45;&gt;Node59</title>
<path fill="none" stroke="midnightblue" d="M356.762,-170C398.151,-174.796 460.385,-182.809 514,-193 527.829,-195.629 542.888,-199.141 556.052,-202.43"/>
<polygon fill="midnightblue" stroke="midnightblue" points="357.039,-166.508 346.706,-168.85 356.244,-173.463 357.039,-166.508"/>
</g>
<!-- Node62&#45;&gt;Node60 -->
<g id="edge27" class="edge"><title>Node62&#45;&gt;Node60</title>
<path fill="none" stroke="midnightblue" d="M326.287,-147.459C355.767,-114.703 418.283,-45.2406 441.277,-19.6923"/>
<polygon fill="midnightblue" stroke="midnightblue" points="323.314,-145.53 319.226,-155.304 328.518,-150.212 323.314,-145.53"/>
</g>
<!-- Node62&#45;&gt;Node61 -->
<g id="edge28" class="edge"><title>Node62&#45;&gt;Node61</title>
<path fill="none" stroke="midnightblue" d="M348.5,-152.197C371.47,-144.458 400.281,-134.751 421.333,-127.658"/>
<polygon fill="midnightblue" stroke="midnightblue" points="347.089,-148.979 338.73,-155.489 349.324,-155.613 347.089,-148.979"/>
</g>
<!-- Node63&#45;&gt;Node52 -->
<g id="edge30" class="edge"><title>Node63&#45;&gt;Node52</title>
<path fill="none" stroke="midnightblue" d="M631.93,-347.796C650.594,-354.092 672.719,-361.556 689.93,-367.362"/>
<polygon fill="midnightblue" stroke="midnightblue" points="632.845,-344.411 622.251,-344.53 630.608,-351.043 632.845,-344.411"/>
</g>
<!-- Node63&#45;&gt;Node55 -->
<g id="edge31" class="edge"><title>Node63&#45;&gt;Node55</title>
<path fill="none" stroke="midnightblue" d="M635.298,-322.395C652.644,-317.1 672.448,-311.056 688.382,-306.193"/>
<polygon fill="midnightblue" stroke="midnightblue" points="633.959,-319.144 625.417,-325.411 636.003,-325.839 633.959,-319.144"/>
</g>
<!-- Node63&#45;&gt;Node56 -->
<g id="edge32" class="edge"><title>Node63&#45;&gt;Node56</title>
<path fill="none" stroke="midnightblue" d="M605.655,-316.839C631.445,-276.653 692.613,-181.338 712.289,-150.679"/>
<polygon fill="midnightblue" stroke="midnightblue" points="602.629,-315.073 600.174,-325.38 608.521,-318.854 602.629,-315.073"/>
</g>
</g>
</svg>
