<?xml version="1.0" encoding="UTF-8" standalone="no"?>
<!DOCTYPE svg PUBLIC "-//W3C//DTD SVG 1.1//EN"
 "http://www.w3.org/Graphics/SVG/1.1/DTD/svg11.dtd">
<!-- Generated by graphviz version 2.38.0 (20140413.2041)
 -->
<!-- Title: SoccerBoard::SoccerBoard Pages: 1 -->
<svg width="229pt" height="46pt"
 viewBox="0.00 0.00 229.00 46.00" xmlns="http://www.w3.org/2000/svg" xmlns:xlink="http://www.w3.org/1999/xlink">
<g id="graph0" class="graph" transform="scale(1 1) rotate(0) translate(4 42)">
<title>SoccerBoard::SoccerBoard</title>
<polygon fill="white" stroke="none" points="-4,4 -4,-42 225,-42 225,4 -4,4"/>
<!-- Node1 -->
<g id="node1" class="node"><title>Node1</title>
<polygon fill="#bfbfbf" stroke="black" points="0,-0.5 0,-19.5 135,-19.5 135,-0.5 0,-0.5"/>
<text text-anchor="middle" x="67.5" y="-7.5" font-family="Helvetica,sans-Serif" font-size="10.00">SoccerBoard::SoccerBoard</text>
</g>
<!-- Node2 -->
<g id="node2" class="node"><title>Node2</title>
<g id="a_node2"><a xlink:href="eBoard__comment_8h.html#aca4f96af7c6736bf2b61c88d731af741" target="_top" xlink:title="read a digital state from an INPUTpin ">
<polygon fill="white" stroke="black" points="171,-0.5 171,-19.5 221,-19.5 221,-0.5 171,-0.5"/>
<text text-anchor="middle" x="196" y="-7.5" font-family="Helvetica,sans-Serif" font-size="10.00">readPin</text>
</a>
</g>
</g>
<!-- Node1&#45;&gt;Node2 -->
<g id="edge1" class="edge"><title>Node1&#45;&gt;Node2</title>
<path fill="none" stroke="midnightblue" d="M145.25,-10C154.51,-10 163.364,-10 170.969,-10"/>
<polygon fill="midnightblue" stroke="midnightblue" points="145.084,-6.5001 135.084,-10 145.084,-13.5001 145.084,-6.5001"/>
</g>
<!-- Node2&#45;&gt;Node2 -->
<g id="edge2" class="edge"><title>Node2&#45;&gt;Node2</title>
<path fill="none" stroke="midnightblue" d="M172.191,-29.0292C173.489,-34.128 181.426,-38 196,-38 218.75,-38 225.326,-28.5653 215.729,-19.7571"/>
<polygon fill="midnightblue" stroke="midnightblue" points="175.447,-30.3197 176.271,-19.7571 169.04,-27.4998 175.447,-30.3197"/>
</g>
</g>
</svg>
