<?xml version="1.0" encoding="UTF-8" standalone="no"?>
<!DOCTYPE svg PUBLIC "-//W3C//DTD SVG 1.1//EN"
 "http://www.w3.org/Graphics/SVG/1.1/DTD/svg11.dtd">
<!-- Generated by graphviz version 2.38.0 (20140413.2041)
 -->
<!-- Title: LCD::setCursor Pages: 1 -->
<svg width="845pt" height="531pt"
 viewBox="0.00 0.00 845.00 531.31" xmlns="http://www.w3.org/2000/svg" xmlns:xlink="http://www.w3.org/1999/xlink">
<g id="graph0" class="graph" transform="scale(1 1) rotate(0) translate(4 527.308)">
<title>LCD::setCursor</title>
<polygon fill="white" stroke="none" points="-4,4 -4,-527.308 841,-527.308 841,4 -4,4"/>
<!-- Node392 -->
<g id="node1" class="node"><title>Node392</title>
<polygon fill="#bfbfbf" stroke="black" points="0,-117.808 0,-136.808 86,-136.808 86,-117.808 0,-117.808"/>
<text text-anchor="middle" x="43" y="-124.808" font-family="Helvetica,sans-Serif" font-size="10.00">LCD::setCursor</text>
</g>
<!-- Node393 -->
<g id="node2" class="node"><title>Node393</title>
<g id="a_node2"><a xlink:href="structLCD.html#ad3120f397273bac2ad60e0291554b9e6" target="_top" xlink:title="LCD::clear">
<polygon fill="white" stroke="black" points="122,-187.808 122,-206.808 186,-206.808 186,-187.808 122,-187.808"/>
<text text-anchor="middle" x="154" y="-194.808" font-family="Helvetica,sans-Serif" font-size="10.00">LCD::clear</text>
</a>
</g>
</g>
<!-- Node392&#45;&gt;Node393 -->
<g id="edge1" class="edge"><title>Node392&#45;&gt;Node393</title>
<path fill="none" stroke="midnightblue" d="M67.6703,-142.51C89.032,-156.228 119.81,-175.994 137.973,-187.658"/>
<polygon fill="midnightblue" stroke="midnightblue" points="69.4616,-139.5 59.156,-137.042 65.679,-145.39 69.4616,-139.5"/>
</g>
<!-- Node402 -->
<g id="node11" class="node"><title>Node402</title>
<g id="a_node11"><a xlink:href="structLCD.html#a0fd055c88888db0e52fea11f1df24d4a" target="_top" xlink:title="LCD::drawBitmap">
<polygon fill="white" stroke="black" points="459.5,-193.808 459.5,-212.808 554.5,-212.808 554.5,-193.808 459.5,-193.808"/>
<text text-anchor="middle" x="507" y="-200.808" font-family="Helvetica,sans-Serif" font-size="10.00">LCD::drawBitmap</text>
</a>
</g>
</g>
<!-- Node392&#45;&gt;Node402 -->
<g id="edge33" class="edge"><title>Node392&#45;&gt;Node402</title>
<path fill="none" stroke="midnightblue" d="M61.8889,-110.857C76.7444,-98.3855 99.0827,-82.2472 122,-75.3084 243.657,-38.4737 299.686,-8.78616 408,-75.3084 438.148,-93.8243 422.636,-118.107 444,-146.308 458.303,-165.189 479.332,-183 492.847,-193.534"/>
<polygon fill="midnightblue" stroke="midnightblue" points="59.2993,-108.472 54.0591,-117.68 63.8979,-113.749 59.2993,-108.472"/>
</g>
<!-- Node403 -->
<g id="node12" class="node"><title>Node403</title>
<g id="a_node12"><a xlink:href="structLCD.html#ab1b68d883d80dc7b8810e602b7032767" target="_top" xlink:title="LCD::print">
<polygon fill="white" stroke="black" points="476,-117.808 476,-136.808 538,-136.808 538,-117.808 476,-117.808"/>
<text text-anchor="middle" x="507" y="-124.808" font-family="Helvetica,sans-Serif" font-size="10.00">LCD::print</text>
</a>
</g>
</g>
<!-- Node392&#45;&gt;Node403 -->
<g id="edge34" class="edge"><title>Node392&#45;&gt;Node403</title>
<path fill="none" stroke="midnightblue" d="M53.6752,-108.593C66.1297,-86.7933 90.0316,-51.9061 122,-37.3084 237.627,15.4901 289.557,8.82695 408,-37.3084 450.404,-53.8254 485.579,-98.2178 499.54,-117.803"/>
<polygon fill="midnightblue" stroke="midnightblue" points="50.4946,-107.115 48.7705,-117.568 56.6372,-110.472 50.4946,-107.115"/>
</g>
<!-- Node394 -->
<g id="node3" class="node"><title>Node394</title>
<g id="a_node3"><a xlink:href="structLCD.html#a632d9c641930fe16c0b623b82136196e" target="_top" xlink:title="LCD::init">
<polygon fill="white" stroke="black" points="226.5,-278.808 226.5,-297.808 282.5,-297.808 282.5,-278.808 226.5,-278.808"/>
<text text-anchor="middle" x="254.5" y="-285.808" font-family="Helvetica,sans-Serif" font-size="10.00">LCD::init</text>
</a>
</g>
</g>
<!-- Node393&#45;&gt;Node394 -->
<g id="edge2" class="edge"><title>Node393&#45;&gt;Node394</title>
<path fill="none" stroke="midnightblue" d="M178.585,-213.239C200.998,-232.23 233.251,-262.787 246.949,-278.676"/>
<polygon fill="midnightblue" stroke="midnightblue" points="180.76,-210.496 170.826,-206.814 176.296,-215.888 180.76,-210.496"/>
</g>
<!-- Node407 -->
<g id="node16" class="node"><title>Node407</title>
<g id="a_node16"><a xlink:href="lcd__debug_8cpp.html#ae66f6b31b5ad750f1fe042a706a4e3d4" target="_top" xlink:title="main">
<polygon fill="white" stroke="black" points="235.5,-214.808 235.5,-233.808 273.5,-233.808 273.5,-214.808 235.5,-214.808"/>
<text text-anchor="middle" x="254.5" y="-221.808" font-family="Helvetica,sans-Serif" font-size="10.00">main</text>
</a>
</g>
</g>
<!-- Node393&#45;&gt;Node407 -->
<g id="edge31" class="edge"><title>Node393&#45;&gt;Node407</title>
<path fill="none" stroke="midnightblue" d="M195.962,-208.537C209.718,-212.307 224.362,-216.321 235.434,-219.356"/>
<polygon fill="midnightblue" stroke="midnightblue" points="196.736,-205.12 186.166,-205.851 194.885,-211.871 196.736,-205.12"/>
</g>
<!-- Node408 -->
<g id="node17" class="node"><title>Node408</title>
<g id="a_node17"><a xlink:href="structLCD.html#a7912ad9a12d649cdec2dd53ae893a8ce" target="_top" xlink:title="LCD::reset">
<polygon fill="white" stroke="black" points="222,-138.808 222,-157.808 287,-157.808 287,-138.808 222,-138.808"/>
<text text-anchor="middle" x="254.5" y="-145.808" font-family="Helvetica,sans-Serif" font-size="10.00">LCD::reset</text>
</a>
</g>
</g>
<!-- Node393&#45;&gt;Node408 -->
<g id="edge32" class="edge"><title>Node393&#45;&gt;Node408</title>
<path fill="none" stroke="midnightblue" d="M183.523,-183.12C199.752,-175.046 219.655,-165.145 234.08,-157.969"/>
<polygon fill="midnightblue" stroke="midnightblue" points="181.855,-180.04 174.46,-187.628 184.973,-186.307 181.855,-180.04"/>
</g>
<!-- Node394&#45;&gt;Node392 -->
<g id="edge30" class="edge"><title>Node394&#45;&gt;Node392</title>
<path fill="none" stroke="midnightblue" d="M221.344,-274.589C193.471,-261.824 152.875,-241.075 122,-216.308 91.3894,-191.754 63.0364,-154.297 50.6118,-136.859"/>
<polygon fill="midnightblue" stroke="midnightblue" points="220.079,-277.858 230.635,-278.765 222.949,-271.473 220.079,-277.858"/>
</g>
<!-- Node394&#45;&gt;Node393 -->
<g id="edge13" class="edge"><title>Node394&#45;&gt;Node393</title>
<path fill="none" stroke="midnightblue" d="M229.536,-272.056C207.091,-253.002 175.033,-222.609 161.463,-206.839"/>
<polygon fill="midnightblue" stroke="midnightblue" points="227.387,-274.821 237.317,-278.515 231.858,-269.435 227.387,-274.821"/>
</g>
<!-- Node395 -->
<g id="node4" class="node"><title>Node395</title>
<g id="a_node4"><a xlink:href="structLCD.html#aa01b7522d1e210f9cd071e3a5d4ae9e6" target="_top" xlink:title="LCD::changeBackground">
<polygon fill="white" stroke="black" points="444,-405.808 444,-424.808 570,-424.808 570,-405.808 444,-405.808"/>
<text text-anchor="middle" x="507" y="-412.808" font-family="Helvetica,sans-Serif" font-size="10.00">LCD::changeBackground</text>
</a>
</g>
</g>
<!-- Node394&#45;&gt;Node395 -->
<g id="edge3" class="edge"><title>Node394&#45;&gt;Node395</title>
<path fill="none" stroke="midnightblue" d="M261.647,-307.76C270.07,-334.311 288.281,-380.194 323,-401.308 358.71,-423.025 406.019,-423.75 443.59,-420.539"/>
<polygon fill="midnightblue" stroke="midnightblue" points="264.943,-306.566 258.705,-298.002 258.24,-308.586 264.943,-306.566"/>
</g>
<!-- Node397 -->
<g id="node6" class="node"><title>Node397</title>
<g id="a_node6"><a xlink:href="structLCD.html#a75cacb94de3b3ff71e9a4497b5cc4a81" target="_top" xlink:title="LCD::changeBrightness">
<polygon fill="white" stroke="black" points="606,-484.808 606,-503.808 727,-503.808 727,-484.808 606,-484.808"/>
<text text-anchor="middle" x="666.5" y="-491.808" font-family="Helvetica,sans-Serif" font-size="10.00">LCD::changeBrightness</text>
</a>
</g>
</g>
<!-- Node394&#45;&gt;Node397 -->
<g id="edge6" class="edge"><title>Node394&#45;&gt;Node397</title>
<path fill="none" stroke="midnightblue" d="M258.931,-307.876C265.096,-339.997 281.532,-402.525 323,-434.308 405.188,-497.302 531.835,-498.614 605.904,-495.472"/>
<polygon fill="midnightblue" stroke="midnightblue" points="262.351,-307.115 257.154,-297.882 255.459,-308.341 262.351,-307.115"/>
</g>
<!-- Node400 -->
<g id="node9" class="node"><title>Node400</title>
<g id="a_node9"><a xlink:href="structLCD.html#aa5e25fef7649532af402df06f05b6d4c" target="_top" xlink:title="LCD::changeID">
<polygon fill="white" stroke="black" points="323,-155.808 323,-174.808 408,-174.808 408,-155.808 323,-155.808"/>
<text text-anchor="middle" x="365.5" y="-162.808" font-family="Helvetica,sans-Serif" font-size="10.00">LCD::changeID</text>
</a>
</g>
</g>
<!-- Node394&#45;&gt;Node400 -->
<g id="edge10" class="edge"><title>Node394&#45;&gt;Node400</title>
<path fill="none" stroke="midnightblue" d="M268.263,-270.275C274.03,-262.076 280.903,-252.233 287,-243.308 303.272,-219.492 301.965,-209.045 323,-189.308 329.07,-183.614 336.73,-178.706 343.812,-174.839"/>
<polygon fill="midnightblue" stroke="midnightblue" points="265.227,-268.507 262.323,-278.696 270.947,-272.542 265.227,-268.507"/>
</g>
<!-- Node401 -->
<g id="node10" class="node"><title>Node401</title>
<g id="a_node10"><a xlink:href="structLCD.html#ad31ee94d401b7c28d6cc2f472e2eb8fd" target="_top" xlink:title="LCD::changeMode">
<polygon fill="white" stroke="black" points="458,-278.808 458,-297.808 556,-297.808 556,-278.808 458,-278.808"/>
<text text-anchor="middle" x="507" y="-285.808" font-family="Helvetica,sans-Serif" font-size="10.00">LCD::changeMode</text>
</a>
</g>
</g>
<!-- Node394&#45;&gt;Node401 -->
<g id="edge11" class="edge"><title>Node394&#45;&gt;Node401</title>
<path fill="none" stroke="midnightblue" d="M293.025,-283.325C336.928,-281.139 409.714,-280.982 457.772,-282.853"/>
<polygon fill="midnightblue" stroke="midnightblue" points="292.57,-279.845 282.785,-283.907 292.967,-286.834 292.57,-279.845"/>
</g>
<!-- Node394&#45;&gt;Node402 -->
<g id="edge14" class="edge"><title>Node394&#45;&gt;Node402</title>
<path fill="none" stroke="midnightblue" d="M292.344,-275.807C342.873,-258.661 432.568,-228.226 477.984,-212.815"/>
<polygon fill="midnightblue" stroke="midnightblue" points="291.13,-272.522 282.785,-279.05 293.379,-279.151 291.13,-272.522"/>
</g>
<!-- Node394&#45;&gt;Node403 -->
<g id="edge16" class="edge"><title>Node394&#45;&gt;Node403</title>
<path fill="none" stroke="midnightblue" d="M273.939,-271.926C287.165,-260.52 305.641,-245.269 323,-233.308 358.907,-208.567 370.264,-206.159 408,-184.308 436.615,-167.739 469.878,-148.369 489.365,-137.01"/>
<polygon fill="midnightblue" stroke="midnightblue" points="271.303,-269.582 266.071,-278.794 275.906,-274.855 271.303,-269.582"/>
</g>
<!-- Node404 -->
<g id="node13" class="node"><title>Node404</title>
<g id="a_node13"><a xlink:href="structLCD.html#a739998fad0591a092255676c8c8d532f" target="_top" xlink:title="LCD::s1Cmd">
<polygon fill="white" stroke="black" points="328.5,-381.808 328.5,-400.808 402.5,-400.808 402.5,-381.808 328.5,-381.808"/>
<text text-anchor="middle" x="365.5" y="-388.808" font-family="Helvetica,sans-Serif" font-size="10.00">LCD::s1Cmd</text>
</a>
</g>
</g>
<!-- Node394&#45;&gt;Node404 -->
<g id="edge17" class="edge"><title>Node394&#45;&gt;Node404</title>
<path fill="none" stroke="midnightblue" d="M268.224,-306.507C280.79,-323.604 301.238,-349.199 323,-367.308 329.526,-372.739 337.439,-377.652 344.599,-381.598"/>
<polygon fill="midnightblue" stroke="midnightblue" points="270.775,-304.06 262.095,-297.984 265.092,-308.146 270.775,-304.06"/>
</g>
<!-- Node405 -->
<g id="node14" class="node"><title>Node405</title>
<g id="a_node14"><a xlink:href="structLCD.html#ae7a8d9bc1581cfeeb0f098c8bb6d1229" target="_top" xlink:title="LCD::s2Cmd">
<polygon fill="white" stroke="black" points="470,-334.808 470,-353.808 544,-353.808 544,-334.808 470,-334.808"/>
<text text-anchor="middle" x="507" y="-341.808" font-family="Helvetica,sans-Serif" font-size="10.00">LCD::s2Cmd</text>
</a>
</g>
</g>
<!-- Node394&#45;&gt;Node405 -->
<g id="edge29" class="edge"><title>Node394&#45;&gt;Node405</title>
<path fill="none" stroke="midnightblue" d="M292.642,-293.387C302.428,-296.399 313.037,-299.728 323,-302.308 378.004,-316.553 443.874,-326.809 479.671,-334.752"/>
<polygon fill="midnightblue" stroke="midnightblue" points="293.389,-289.956 282.804,-290.407 291.36,-296.656 293.389,-289.956"/>
</g>
<!-- Node406 -->
<g id="node15" class="node"><title>Node406</title>
<g id="a_node15"><a xlink:href="structLCD.html#ae5873763db265cd00da32664cce88873" target="_top" xlink:title="LCD::s1Dat">
<polygon fill="white" stroke="black" points="331,-117.808 331,-136.808 400,-136.808 400,-117.808 331,-117.808"/>
<text text-anchor="middle" x="365.5" y="-124.808" font-family="Helvetica,sans-Serif" font-size="10.00">LCD::s1Dat</text>
</a>
</g>
</g>
<!-- Node394&#45;&gt;Node406 -->
<g id="edge25" class="edge"><title>Node394&#45;&gt;Node406</title>
<path fill="none" stroke="midnightblue" d="M269.496,-270.566C275.403,-262.544 282.044,-252.758 287,-243.308 308.359,-202.585 291.709,-180.004 323,-146.308 326.559,-142.476 331.041,-139.357 335.734,-136.838"/>
<polygon fill="midnightblue" stroke="midnightblue" points="266.531,-268.684 263.268,-278.764 272.105,-272.918 266.531,-268.684"/>
</g>
<!-- Node395&#45;&gt;Node394 -->
<g id="edge4" class="edge"><title>Node395&#45;&gt;Node394</title>
<path fill="none" stroke="midnightblue" d="M479.872,-428.053C442.192,-439.471 371.775,-448.97 323,-419.308 278.327,-392.141 260.985,-323.965 256.657,-297.917"/>
<polygon fill="midnightblue" stroke="midnightblue" points="481.207,-431.297 489.586,-424.812 478.992,-424.657 481.207,-431.297"/>
</g>
<!-- Node396 -->
<g id="node5" class="node"><title>Node396</title>
<g id="a_node5"><a xlink:href="dancing__dragon_8cpp.html#a840291bc02cba5474a4cb46a9b9566fe" target="_top" xlink:title="main">
<polygon fill="white" stroke="black" points="647.5,-299.808 647.5,-318.808 685.5,-318.808 685.5,-299.808 647.5,-299.808"/>
<text text-anchor="middle" x="666.5" y="-306.808" font-family="Helvetica,sans-Serif" font-size="10.00">main</text>
</a>
</g>
</g>
<!-- Node395&#45;&gt;Node396 -->
<g id="edge5" class="edge"><title>Node395&#45;&gt;Node396</title>
<path fill="none" stroke="midnightblue" d="M530.759,-399.991C563.62,-377.876 623.42,-337.629 650.935,-319.111"/>
<polygon fill="midnightblue" stroke="midnightblue" points="528.597,-397.228 522.255,-405.715 532.505,-403.035 528.597,-397.228"/>
</g>
<!-- Node397&#45;&gt;Node394 -->
<g id="edge7" class="edge"><title>Node397&#45;&gt;Node394</title>
<path fill="none" stroke="midnightblue" d="M624.14,-505.521C554.428,-516.369 412.408,-520.835 323,-452.308 271.983,-413.207 258.855,-327.572 256.125,-298.001"/>
<polygon fill="midnightblue" stroke="midnightblue" points="625.009,-508.924 634.287,-503.809 623.844,-502.022 625.009,-508.924"/>
</g>
<!-- Node398 -->
<g id="node7" class="node"><title>Node398</title>
<g id="a_node7"><a xlink:href="structLCD.html#a3f437907a543226be7c527a2d304ad95" target="_top" xlink:title="LCD::lightOff">
<polygon fill="white" stroke="black" points="763,-503.808 763,-522.808 837,-522.808 837,-503.808 763,-503.808"/>
<text text-anchor="middle" x="800" y="-510.808" font-family="Helvetica,sans-Serif" font-size="10.00">LCD::lightOff</text>
</a>
</g>
</g>
<!-- Node397&#45;&gt;Node398 -->
<g id="edge8" class="edge"><title>Node397&#45;&gt;Node398</title>
<path fill="none" stroke="midnightblue" d="M737.157,-504.373C746.065,-505.66 754.878,-506.933 762.937,-508.098"/>
<polygon fill="midnightblue" stroke="midnightblue" points="737.492,-500.885 727.094,-502.919 736.491,-507.813 737.492,-500.885"/>
</g>
<!-- Node399 -->
<g id="node8" class="node"><title>Node399</title>
<g id="a_node8"><a xlink:href="structLCD.html#aa4c1e7d41ca93af28769aaba704d5c1f" target="_top" xlink:title="LCD::lightOn">
<polygon fill="white" stroke="black" points="763,-465.808 763,-484.808 837,-484.808 837,-465.808 763,-465.808"/>
<text text-anchor="middle" x="800" y="-472.808" font-family="Helvetica,sans-Serif" font-size="10.00">LCD::lightOn</text>
</a>
</g>
</g>
<!-- Node397&#45;&gt;Node399 -->
<g id="edge9" class="edge"><title>Node397&#45;&gt;Node399</title>
<path fill="none" stroke="midnightblue" d="M737.157,-484.244C746.065,-482.957 754.878,-481.684 762.937,-480.519"/>
<polygon fill="midnightblue" stroke="midnightblue" points="736.491,-480.804 727.094,-485.698 737.492,-487.732 736.491,-480.804"/>
</g>
<!-- Node401&#45;&gt;Node394 -->
<g id="edge12" class="edge"><title>Node401&#45;&gt;Node394</title>
<path fill="none" stroke="midnightblue" d="M447.695,-294.116C395.78,-295.736 322.134,-295.268 282.785,-292.71"/>
<polygon fill="midnightblue" stroke="midnightblue" points="447.9,-297.611 457.772,-293.764 447.656,-290.615 447.9,-297.611"/>
</g>
<!-- Node402&#45;&gt;Node396 -->
<g id="edge15" class="edge"><title>Node402&#45;&gt;Node396</title>
<path fill="none" stroke="midnightblue" d="M530.759,-218.626C563.62,-240.741 623.42,-280.988 650.935,-299.506"/>
<polygon fill="midnightblue" stroke="midnightblue" points="532.505,-215.582 522.255,-212.902 528.597,-221.389 532.505,-215.582"/>
</g>
<!-- Node404&#45;&gt;Node392 -->
<g id="edge24" class="edge"><title>Node404&#45;&gt;Node392</title>
<path fill="none" stroke="midnightblue" d="M330.98,-377.791C280.945,-356.362 185.793,-310.654 122,-249.308 85.5779,-214.284 58.2652,-159.049 48.2104,-136.933"/>
<polygon fill="midnightblue" stroke="midnightblue" points="329.789,-381.087 340.363,-381.75 332.51,-374.638 329.789,-381.087"/>
</g>
<!-- Node404&#45;&gt;Node395 -->
<g id="edge18" class="edge"><title>Node404&#45;&gt;Node395</title>
<path fill="none" stroke="midnightblue" d="M412.707,-399.258C424.864,-401.35 438.102,-403.627 450.685,-405.792"/>
<polygon fill="midnightblue" stroke="midnightblue" points="413.236,-395.798 402.788,-397.552 412.05,-402.696 413.236,-395.798"/>
</g>
<!-- Node404&#45;&gt;Node401 -->
<g id="edge19" class="edge"><title>Node404&#45;&gt;Node401</title>
<path fill="none" stroke="midnightblue" d="M384.218,-374.726C399.49,-360.804 422.425,-340.768 444,-325.308 458.265,-315.087 475.47,-304.98 488.133,-297.919"/>
<polygon fill="midnightblue" stroke="midnightblue" points="381.562,-372.414 376.578,-381.764 386.304,-377.563 381.562,-372.414"/>
</g>
<!-- Node404&#45;&gt;Node405 -->
<g id="edge20" class="edge"><title>Node404&#45;&gt;Node405</title>
<path fill="none" stroke="midnightblue" d="M404.5,-378.506C427.47,-370.767 456.281,-361.06 477.333,-353.967"/>
<polygon fill="midnightblue" stroke="midnightblue" points="403.089,-375.288 394.73,-381.797 405.324,-381.921 403.089,-375.288"/>
</g>
<!-- Node405&#45;&gt;Node392 -->
<g id="edge23" class="edge"><title>Node405&#45;&gt;Node392</title>
<path fill="none" stroke="midnightblue" d="M470.56,-329.998C460.559,-324.336 450.613,-316.854 444,-307.308 392.816,-233.426 476.98,-165.929 408,-108.308 360.284,-68.4501 171.359,-100.975 86.1166,-118.247"/>
<polygon fill="midnightblue" stroke="midnightblue" points="469.173,-333.222 479.665,-334.694 472.382,-327 469.173,-333.222"/>
</g>
<!-- Node405&#45;&gt;Node394 -->
<g id="edge22" class="edge"><title>Node405&#45;&gt;Node394</title>
<path fill="none" stroke="midnightblue" d="M459.834,-345.235C422.581,-341.341 368.992,-332.219 323,-320.308 301.667,-314.784 277.367,-305.822 264.539,-297.849"/>
<polygon fill="midnightblue" stroke="midnightblue" points="459.601,-348.729 469.888,-346.193 460.265,-341.76 459.601,-348.729"/>
</g>
<!-- Node405&#45;&gt;Node397 -->
<g id="edge21" class="edge"><title>Node405&#45;&gt;Node397</title>
<path fill="none" stroke="midnightblue" d="M528.086,-360.297C540.44,-370.339 556.446,-383.73 570,-396.308 603.259,-427.175 640.05,-466.535 656.589,-484.533"/>
<polygon fill="midnightblue" stroke="midnightblue" points="530.173,-357.484 520.192,-353.931 525.779,-362.933 530.173,-357.484"/>
</g>
<!-- Node406&#45;&gt;Node393 -->
<g id="edge26" class="edge"><title>Node406&#45;&gt;Node393</title>
<path fill="none" stroke="midnightblue" d="M333.237,-141.219C329.759,-142.885 326.288,-144.602 323,-146.308 306.559,-154.841 304.231,-160.511 287,-167.308 253.771,-180.418 213.466,-188.536 186.203,-192.969"/>
<polygon fill="midnightblue" stroke="midnightblue" points="334.759,-144.371 342.337,-136.967 331.795,-138.029 334.759,-144.371"/>
</g>
<!-- Node406&#45;&gt;Node402 -->
<g id="edge27" class="edge"><title>Node406&#45;&gt;Node402</title>
<path fill="none" stroke="midnightblue" d="M397.761,-141.223C401.239,-142.889 404.711,-144.604 408,-146.308 437.883,-161.793 471.57,-182.024 490.646,-193.751"/>
<polygon fill="midnightblue" stroke="midnightblue" points="399.202,-138.033 388.661,-136.972 396.239,-144.375 399.202,-138.033"/>
</g>
<!-- Node406&#45;&gt;Node403 -->
<g id="edge28" class="edge"><title>Node406&#45;&gt;Node403</title>
<path fill="none" stroke="midnightblue" d="M410.385,-127.308C431.69,-127.308 456.747,-127.308 475.865,-127.308"/>
<polygon fill="midnightblue" stroke="midnightblue" points="410.269,-123.809 400.269,-127.308 410.269,-130.809 410.269,-123.809"/>
</g>
</g>
</svg>
