<?xml version="1.0" encoding="UTF-8" standalone="no"?>
<!DOCTYPE svg PUBLIC "-//W3C//DTD SVG 1.1//EN"
 "http://www.w3.org/Graphics/SVG/1.1/DTD/svg11.dtd">
<!-- Generated by graphviz version 2.38.0 (20140413.2041)
 -->
<!-- Title: RB14Scan::write Pages: 1 -->
<svg width="525pt" height="102pt"
 viewBox="0.00 0.00 525.00 101.50" xmlns="http://www.w3.org/2000/svg" xmlns:xlink="http://www.w3.org/1999/xlink">
<g id="graph0" class="graph" transform="scale(1 1) rotate(0) translate(4 97.5)">
<title>RB14Scan::write</title>
<polygon fill="white" stroke="none" points="-4,4 -4,-97.5 521,-97.5 521,4 -4,4"/>
<!-- Node19 -->
<g id="node1" class="node"><title>Node19</title>
<polygon fill="#bfbfbf" stroke="black" points="0,-52 0,-71 91,-71 91,-52 0,-52"/>
<text text-anchor="middle" x="45.5" y="-59" font-family="Helvetica,sans-Serif" font-size="10.00">RB14Scan::write</text>
</g>
<!-- Node20 -->
<g id="node2" class="node"><title>Node20</title>
<g id="a_node2"><a xlink:href="eBoard_8h.html#abf785ff4ead72e3118dfaa8270c04f0c" target="_top" xlink:title="[BLUETOOTH] writes Data to bluetooth ">
<polygon fill="white" stroke="black" points="127,-52 127,-71 179,-71 179,-52 127,-52"/>
<text text-anchor="middle" x="153" y="-59" font-family="Helvetica,sans-Serif" font-size="10.00">writeVal</text>
</a>
</g>
</g>
<!-- Node19&#45;&gt;Node20 -->
<g id="edge1" class="edge"><title>Node19&#45;&gt;Node20</title>
<path fill="none" stroke="midnightblue" d="M91.2415,-61.5C99.6761,-61.5 108.39,-61.5 116.494,-61.5"/>
<polygon fill="midnightblue" stroke="midnightblue" points="116.722,-65.0001 126.722,-61.5 116.722,-58.0001 116.722,-65.0001"/>
</g>
<!-- Node21 -->
<g id="node3" class="node"><title>Node21</title>
<g id="a_node3"><a xlink:href="eBoard_8h.html#acb51742a61b072bb500b6e0713d7dc2c" target="_top" xlink:title="_serial">
<polygon fill="white" stroke="black" points="259,-74 259,-93 304,-93 304,-74 259,-74"/>
<text text-anchor="middle" x="281.5" y="-81" font-family="Helvetica,sans-Serif" font-size="10.00">_serial</text>
</a>
</g>
</g>
<!-- Node20&#45;&gt;Node21 -->
<g id="edge2" class="edge"><title>Node20&#45;&gt;Node21</title>
<path fill="none" stroke="midnightblue" d="M179.295,-65.8992C199.247,-69.369 227.195,-74.2295 248.667,-77.9638"/>
<polygon fill="midnightblue" stroke="midnightblue" points="248.173,-81.4303 258.624,-79.6956 249.372,-74.5338 248.173,-81.4303"/>
</g>
<!-- Node22 -->
<g id="node4" class="node"><title>Node22</title>
<g id="a_node4"><a xlink:href="classeagle__impl_1_1SoftwareSerial.html#ac24e5c6af203ec636c0a200b0cb3caf0" target="_top" xlink:title="eagle_impl::SoftwareSerial\l::write">
<polygon fill="white" stroke="black" points="215,-24.5 215,-54.5 348,-54.5 348,-24.5 215,-24.5"/>
<text text-anchor="start" x="223" y="-42.5" font-family="Helvetica,sans-Serif" font-size="10.00">eagle_impl::SoftwareSerial</text>
<text text-anchor="middle" x="281.5" y="-31.5" font-family="Helvetica,sans-Serif" font-size="10.00">::write</text>
</a>
</g>
</g>
<!-- Node20&#45;&gt;Node22 -->
<g id="edge3" class="edge"><title>Node20&#45;&gt;Node22</title>
<path fill="none" stroke="midnightblue" d="M179.295,-57.1008C186.92,-55.7748 195.712,-54.2457 204.865,-52.6539"/>
<polygon fill="midnightblue" stroke="midnightblue" points="205.647,-56.0705 214.899,-50.9088 204.448,-49.174 205.647,-56.0705"/>
</g>
<!-- Node23 -->
<g id="node5" class="node"><title>Node23</title>
<g id="a_node5"><a xlink:href="classeagle__impl_1_1SoftwareSerial.html#a4fcb85cb384df8030835af3e8cafae71" target="_top" xlink:title="eagle_impl::SoftwareSerial\l::tx_pin_write">
<polygon fill="white" stroke="black" points="384,-49.5 384,-79.5 517,-79.5 517,-49.5 384,-49.5"/>
<text text-anchor="start" x="392" y="-67.5" font-family="Helvetica,sans-Serif" font-size="10.00">eagle_impl::SoftwareSerial</text>
<text text-anchor="middle" x="450.5" y="-56.5" font-family="Helvetica,sans-Serif" font-size="10.00">::tx_pin_write</text>
</a>
</g>
</g>
<!-- Node22&#45;&gt;Node23 -->
<g id="edge4" class="edge"><title>Node22&#45;&gt;Node23</title>
<path fill="none" stroke="midnightblue" d="M348.024,-49.3089C356.496,-50.5773 365.228,-51.8844 373.847,-53.1747"/>
<polygon fill="midnightblue" stroke="midnightblue" points="373.483,-56.6592 383.891,-54.6783 374.52,-49.7363 373.483,-56.6592"/>
</g>
<!-- Node24 -->
<g id="node6" class="node"><title>Node24</title>
<g id="a_node6"><a xlink:href="classeagle__impl_1_1SoftwareSerial.html#a1dc4448e5fdf2516f47439fb4f62f4be" target="_top" xlink:title="eagle_impl::SoftwareSerial\l::tunedDelay">
<polygon fill="white" stroke="black" points="384,-0.5 384,-30.5 517,-30.5 517,-0.5 384,-0.5"/>
<text text-anchor="start" x="392" y="-18.5" font-family="Helvetica,sans-Serif" font-size="10.00">eagle_impl::SoftwareSerial</text>
<text text-anchor="middle" x="450.5" y="-7.5" font-family="Helvetica,sans-Serif" font-size="10.00">::tunedDelay</text>
</a>
</g>
</g>
<!-- Node22&#45;&gt;Node24 -->
<g id="edge5" class="edge"><title>Node22&#45;&gt;Node24</title>
<path fill="none" stroke="midnightblue" d="M348.024,-30.0834C356.496,-28.8658 365.228,-27.611 373.847,-26.3723"/>
<polygon fill="midnightblue" stroke="midnightblue" points="374.491,-29.8158 383.891,-24.9288 373.495,-22.887 374.491,-29.8158"/>
</g>
</g>
</svg>
