<?xml version="1.0" encoding="UTF-8" standalone="no"?>
<!DOCTYPE svg PUBLIC "-//W3C//DTD SVG 1.1//EN"
 "http://www.w3.org/Graphics/SVG/1.1/DTD/svg11.dtd">
<!-- Generated by graphviz version 2.38.0 (20140413.2041)
 -->
<!-- Title: DynamixelBoard::changeId Pages: 1 -->
<svg width="228pt" height="46pt"
 viewBox="0.00 0.00 228.00 46.00" xmlns="http://www.w3.org/2000/svg" xmlns:xlink="http://www.w3.org/1999/xlink">
<g id="graph0" class="graph" transform="scale(1 1) rotate(0) translate(4 42)">
<title>DynamixelBoard::changeId</title>
<polygon fill="white" stroke="none" points="-4,4 -4,-42 224,-42 224,4 -4,4"/>
<!-- Node8 -->
<g id="node1" class="node"><title>Node8</title>
<polygon fill="#bfbfbf" stroke="black" points="0,-0.5 0,-19.5 134,-19.5 134,-0.5 0,-0.5"/>
<text text-anchor="middle" x="67" y="-7.5" font-family="Helvetica,sans-Serif" font-size="10.00">DynamixelBoard::changeId</text>
</g>
<!-- Node9 -->
<g id="node2" class="node"><title>Node9</title>
<g id="a_node2"><a xlink:href="eBoard__comment_8h.html#aca4f96af7c6736bf2b61c88d731af741" target="_top" xlink:title="read a digital state from an INPUTpin ">
<polygon fill="white" stroke="black" points="170,-0.5 170,-19.5 220,-19.5 220,-0.5 170,-0.5"/>
<text text-anchor="middle" x="195" y="-7.5" font-family="Helvetica,sans-Serif" font-size="10.00">readPin</text>
</a>
</g>
</g>
<!-- Node8&#45;&gt;Node9 -->
<g id="edge1" class="edge"><title>Node8&#45;&gt;Node9</title>
<path fill="none" stroke="midnightblue" d="M144.354,-10C153.494,-10 162.241,-10 169.777,-10"/>
<polygon fill="midnightblue" stroke="midnightblue" points="144.321,-6.5001 134.321,-10 144.321,-13.5001 144.321,-6.5001"/>
</g>
<!-- Node9&#45;&gt;Node9 -->
<g id="edge2" class="edge"><title>Node9&#45;&gt;Node9</title>
<path fill="none" stroke="midnightblue" d="M171.191,-29.0292C172.489,-34.128 180.426,-38 195,-38 217.75,-38 224.326,-28.5653 214.729,-19.7571"/>
<polygon fill="midnightblue" stroke="midnightblue" points="174.447,-30.3197 175.271,-19.7571 168.04,-27.4998 174.447,-30.3197"/>
</g>
</g>
</svg>
