<?xml version="1.0" encoding="UTF-8" standalone="no"?>
<!DOCTYPE svg PUBLIC "-//W3C//DTD SVG 1.1//EN"
 "http://www.w3.org/Graphics/SVG/1.1/DTD/svg11.dtd">
<!-- Generated by graphviz version 2.38.0 (20140413.2041)
 -->
<!-- Title: ServoCds55::SetServoLimit Pages: 1 -->
<svg width="447pt" height="39pt"
 viewBox="0.00 0.00 447.00 39.00" xmlns="http://www.w3.org/2000/svg" xmlns:xlink="http://www.w3.org/1999/xlink">
<g id="graph0" class="graph" transform="scale(1 1) rotate(0) translate(4 35)">
<title>ServoCds55::SetServoLimit</title>
<polygon fill="white" stroke="none" points="-4,4 -4,-35 443,-35 443,4 -4,4"/>
<!-- Node43 -->
<g id="node1" class="node"><title>Node43</title>
<polygon fill="#bfbfbf" stroke="black" points="0,-6 0,-25 138,-25 138,-6 0,-6"/>
<text text-anchor="middle" x="69" y="-13" font-family="Helvetica,sans-Serif" font-size="10.00">ServoCds55::SetServoLimit</text>
</g>
<!-- Node44 -->
<g id="node2" class="node"><title>Node44</title>
<g id="a_node2"><a xlink:href="structServoCds55.html#a0ddbf204d991dae881cc22b8985efee3" target="_top" xlink:title="ServoCds55::sendWait">
<polygon fill="white" stroke="black" points="174,-6 174,-25 292,-25 292,-6 174,-6"/>
<text text-anchor="middle" x="233" y="-13" font-family="Helvetica,sans-Serif" font-size="10.00">ServoCds55::sendWait</text>
</a>
</g>
</g>
<!-- Node43&#45;&gt;Node44 -->
<g id="edge1" class="edge"><title>Node43&#45;&gt;Node44</title>
<path fill="none" stroke="midnightblue" d="M138.233,-15.5C146.655,-15.5 155.266,-15.5 163.69,-15.5"/>
<polygon fill="midnightblue" stroke="midnightblue" points="163.846,-19.0001 173.846,-15.5 163.846,-12.0001 163.846,-19.0001"/>
</g>
<!-- Node45 -->
<g id="node3" class="node"><title>Node45</title>
<g id="a_node3"><a xlink:href="structeagle__impl_1_1SPIClass.html#a821dccd5dda20ccd9093fc35cce74ae5" target="_top" xlink:title="eagle_impl::SPIClass\l::transfer">
<polygon fill="white" stroke="black" points="328,-0.5 328,-30.5 439,-30.5 439,-0.5 328,-0.5"/>
<text text-anchor="start" x="336" y="-18.5" font-family="Helvetica,sans-Serif" font-size="10.00">eagle_impl::SPIClass</text>
<text text-anchor="middle" x="383.5" y="-7.5" font-family="Helvetica,sans-Serif" font-size="10.00">::transfer</text>
</a>
</g>
</g>
<!-- Node44&#45;&gt;Node45 -->
<g id="edge2" class="edge"><title>Node44&#45;&gt;Node45</title>
<path fill="none" stroke="midnightblue" d="M292.265,-15.5C300.584,-15.5 309.183,-15.5 317.619,-15.5"/>
<polygon fill="midnightblue" stroke="midnightblue" points="317.797,-19.0001 327.797,-15.5 317.797,-12.0001 317.797,-19.0001"/>
</g>
</g>
</svg>
