<?xml version="1.0" encoding="UTF-8" standalone="no"?>
<!DOCTYPE svg PUBLIC "-//W3C//DTD SVG 1.1//EN"
 "http://www.w3.org/Graphics/SVG/1.1/DTD/svg11.dtd">
<!-- Generated by graphviz version 2.38.0 (20140413.2041)
 -->
<!-- Title: RB14Scan::write Pages: 1 -->
<svg width="185pt" height="46pt"
 viewBox="0.00 0.00 185.00 46.00" xmlns="http://www.w3.org/2000/svg" xmlns:xlink="http://www.w3.org/1999/xlink">
<g id="graph0" class="graph" transform="scale(1 1) rotate(0) translate(4 42)">
<title>RB14Scan::write</title>
<polygon fill="white" stroke="none" points="-4,4 -4,-42 181,-42 181,4 -4,4"/>
<!-- Node10 -->
<g id="node1" class="node"><title>Node10</title>
<polygon fill="#bfbfbf" stroke="black" points="0,-0.5 0,-19.5 91,-19.5 91,-0.5 0,-0.5"/>
<text text-anchor="middle" x="45.5" y="-7.5" font-family="Helvetica,sans-Serif" font-size="10.00">RB14Scan::write</text>
</g>
<!-- Node11 -->
<g id="node2" class="node"><title>Node11</title>
<g id="a_node2"><a xlink:href="eBoard__comment_8h.html#aca4f96af7c6736bf2b61c88d731af741" target="_top" xlink:title="read a digital state from an INPUTpin ">
<polygon fill="white" stroke="black" points="127,-0.5 127,-19.5 177,-19.5 177,-0.5 127,-0.5"/>
<text text-anchor="middle" x="152" y="-7.5" font-family="Helvetica,sans-Serif" font-size="10.00">readPin</text>
</a>
</g>
</g>
<!-- Node10&#45;&gt;Node11 -->
<g id="edge1" class="edge"><title>Node10&#45;&gt;Node11</title>
<path fill="none" stroke="midnightblue" d="M101.295,-10C110.319,-10 119.242,-10 126.984,-10"/>
<polygon fill="midnightblue" stroke="midnightblue" points="101.121,-6.5001 91.1205,-10 101.12,-13.5001 101.121,-6.5001"/>
</g>
<!-- Node11&#45;&gt;Node11 -->
<g id="edge2" class="edge"><title>Node11&#45;&gt;Node11</title>
<path fill="none" stroke="midnightblue" d="M132.371,-29.4C133.682,-34.3146 140.225,-38 152,-38 170.84,-38 176.286,-28.5653 168.338,-19.7571"/>
<polygon fill="midnightblue" stroke="midnightblue" points="135.745,-30.3516 135.662,-19.7571 129.12,-28.0906 135.745,-30.3516"/>
</g>
</g>
</svg>
