<?xml version="1.0" encoding="UTF-8" standalone="no"?>
<!DOCTYPE svg PUBLIC "-//W3C//DTD SVG 1.1//EN"
 "http://www.w3.org/Graphics/SVG/1.1/DTD/svg11.dtd">
<!-- Generated by graphviz version 2.40.1 (20161225.0304)
 -->
<!-- Title: NeoPixel::show Pages: 1 -->
<svg width="281pt" height="28pt"
 viewBox="0.00 0.00 281.00 28.00" xmlns="http://www.w3.org/2000/svg" xmlns:xlink="http://www.w3.org/1999/xlink">
<g id="graph0" class="graph" transform="scale(1 1) rotate(0) translate(4 24)">
<title>NeoPixel::show</title>
<polygon fill="#ffffff" stroke="transparent" points="-4,4 -4,-24 277,-24 277,4 -4,4"/>
<!-- Node43 -->
<g id="node1" class="node">
<title>Node43</title>
<polygon fill="#bfbfbf" stroke="#000000" points="0,-.5 0,-19.5 101,-19.5 101,-.5 0,-.5"/>
<text text-anchor="middle" x="50.5" y="-7.5" font-family="Hack" font-size="10.00" fill="#000000">NeoPixel::show</text>
</g>
<!-- Node44 -->
<g id="node2" class="node">
<title>Node44</title>
<g id="a_node2"><a xlink:href="neo__animation_8cpp.html#af16b42fccab1fb1eaf3658e792035c42" target="_top" xlink:title="this will perform a single shift operation! ">
<polygon fill="#ffffff" stroke="#000000" points="137,-.5 137,-19.5 196,-19.5 196,-.5 137,-.5"/>
<text text-anchor="middle" x="166.5" y="-7.5" font-family="Hack" font-size="10.00" fill="#000000">shiftPx</text>
</a>
</g>
</g>
<!-- Node43&#45;&gt;Node44 -->
<g id="edge1" class="edge">
<title>Node43&#45;&gt;Node44</title>
<path fill="none" stroke="#191970" d="M111.1138,-10C120.0437,-10 128.8907,-10 136.806,-10"/>
<polygon fill="#191970" stroke="#191970" points="111.0419,-6.5001 101.0418,-10 111.0418,-13.5001 111.0419,-6.5001"/>
</g>
<!-- Node45 -->
<g id="node3" class="node">
<title>Node45</title>
<g id="a_node3"><a xlink:href="neo__animation_8cpp.html#ae66f6b31b5ad750f1fe042a706a4e3d4" target="_top" xlink:title="main">
<polygon fill="#ffffff" stroke="#000000" points="232,-.5 232,-19.5 273,-19.5 273,-.5 232,-.5"/>
<text text-anchor="middle" x="252.5" y="-7.5" font-family="Hack" font-size="10.00" fill="#000000">main</text>
</a>
</g>
</g>
<!-- Node44&#45;&gt;Node45 -->
<g id="edge2" class="edge">
<title>Node44&#45;&gt;Node45</title>
<path fill="none" stroke="#191970" d="M206.2801,-10C215.1028,-10 224.1072,-10 231.7966,-10"/>
<polygon fill="#191970" stroke="#191970" points="206.0964,-6.5001 196.0963,-10 206.0963,-13.5001 206.0964,-6.5001"/>
</g>
</g>
</svg>
