<?xml version="1.0" encoding="UTF-8" standalone="no"?>
<!DOCTYPE svg PUBLIC "-//W3C//DTD SVG 1.1//EN"
 "http://www.w3.org/Graphics/SVG/1.1/DTD/svg11.dtd">
<!-- Generated by graphviz version 2.38.0 (20140413.2041)
 -->
<!-- Title: I2CInOut::changeAddress Pages: 1 -->
<svg width="224pt" height="46pt"
 viewBox="0.00 0.00 224.00 46.00" xmlns="http://www.w3.org/2000/svg" xmlns:xlink="http://www.w3.org/1999/xlink">
<g id="graph0" class="graph" transform="scale(1 1) rotate(0) translate(4 42)">
<title>I2CInOut::changeAddress</title>
<polygon fill="white" stroke="none" points="-4,4 -4,-42 220,-42 220,4 -4,4"/>
<!-- Node4 -->
<g id="node1" class="node"><title>Node4</title>
<polygon fill="#bfbfbf" stroke="black" points="0,-0.5 0,-19.5 130,-19.5 130,-0.5 0,-0.5"/>
<text text-anchor="middle" x="65" y="-7.5" font-family="Helvetica,sans-Serif" font-size="10.00">I2CInOut::changeAddress</text>
</g>
<!-- Node5 -->
<g id="node2" class="node"><title>Node5</title>
<g id="a_node2"><a xlink:href="eBoard__comment_8h.html#aca4f96af7c6736bf2b61c88d731af741" target="_top" xlink:title="read a digital state from an INPUTpin ">
<polygon fill="white" stroke="black" points="166,-0.5 166,-19.5 216,-19.5 216,-0.5 166,-0.5"/>
<text text-anchor="middle" x="191" y="-7.5" font-family="Helvetica,sans-Serif" font-size="10.00">readPin</text>
</a>
</g>
</g>
<!-- Node4&#45;&gt;Node5 -->
<g id="edge1" class="edge"><title>Node4&#45;&gt;Node5</title>
<path fill="none" stroke="midnightblue" d="M140.284,-10C149.498,-10 158.334,-10 165.935,-10"/>
<polygon fill="midnightblue" stroke="midnightblue" points="140.179,-6.5001 130.179,-10 140.179,-13.5001 140.179,-6.5001"/>
</g>
<!-- Node5&#45;&gt;Node5 -->
<g id="edge2" class="edge"><title>Node5&#45;&gt;Node5</title>
<path fill="none" stroke="midnightblue" d="M167.563,-29.0292C168.841,-34.128 176.654,-38 191,-38 213.395,-38 219.868,-28.5653 210.42,-19.7571"/>
<polygon fill="midnightblue" stroke="midnightblue" points="170.816,-30.3243 171.58,-19.7571 164.393,-27.5415 170.816,-30.3243"/>
</g>
</g>
</svg>
