<?xml version="1.0" encoding="UTF-8" standalone="no"?>
<!DOCTYPE svg PUBLIC "-//W3C//DTD SVG 1.1//EN"
 "http://www.w3.org/Graphics/SVG/1.1/DTD/svg11.dtd">
<!-- Generated by graphviz version 2.38.0 (20140413.2041)
 -->
<!-- Title: DynamixelBoard::DynamixelBoard Pages: 1 -->
<svg width="235pt" height="52pt"
 viewBox="0.00 0.00 235.00 51.50" xmlns="http://www.w3.org/2000/svg" xmlns:xlink="http://www.w3.org/1999/xlink">
<g id="graph0" class="graph" transform="scale(1 1) rotate(0) translate(4 47.5)">
<title>DynamixelBoard::DynamixelBoard</title>
<polygon fill="white" stroke="none" points="-4,4 -4,-47.5 231,-47.5 231,4 -4,4"/>
<!-- Node1 -->
<g id="node1" class="node"><title>Node1</title>
<polygon fill="#bfbfbf" stroke="black" points="0,-0.5 0,-30.5 141,-30.5 141,-0.5 0,-0.5"/>
<text text-anchor="start" x="8" y="-18.5" font-family="Helvetica,sans-Serif" font-size="10.00">DynamixelBoard::Dynamixel</text>
<text text-anchor="middle" x="70.5" y="-7.5" font-family="Helvetica,sans-Serif" font-size="10.00">Board</text>
</g>
<!-- Node2 -->
<g id="node2" class="node"><title>Node2</title>
<g id="a_node2"><a xlink:href="eBoard__comment_8h.html#aca4f96af7c6736bf2b61c88d731af741" target="_top" xlink:title="read a digital state from an INPUTpin ">
<polygon fill="white" stroke="black" points="177,-6 177,-25 227,-25 227,-6 177,-6"/>
<text text-anchor="middle" x="202" y="-13" font-family="Helvetica,sans-Serif" font-size="10.00">readPin</text>
</a>
</g>
</g>
<!-- Node1&#45;&gt;Node2 -->
<g id="edge1" class="edge"><title>Node1&#45;&gt;Node2</title>
<path fill="none" stroke="midnightblue" d="M151.294,-15.5C160.497,-15.5 169.271,-15.5 176.814,-15.5"/>
<polygon fill="midnightblue" stroke="midnightblue" points="151.178,-12.0001 141.178,-15.5 151.178,-19.0001 151.178,-12.0001"/>
</g>
<!-- Node2&#45;&gt;Node2 -->
<g id="edge2" class="edge"><title>Node2&#45;&gt;Node2</title>
<path fill="none" stroke="midnightblue" d="M177.819,-34.5292C179.138,-39.628 187.198,-43.5 202,-43.5 225.105,-43.5 231.784,-34.0653 222.037,-25.2571"/>
<polygon fill="midnightblue" stroke="midnightblue" points="181.078,-35.8148 181.963,-25.2571 174.687,-32.9582 181.078,-35.8148"/>
</g>
</g>
</svg>
