<?xml version="1.0" encoding="UTF-8" standalone="no"?>
<!DOCTYPE svg PUBLIC "-//W3C//DTD SVG 1.1//EN"
 "http://www.w3.org/Graphics/SVG/1.1/DTD/svg11.dtd">
<!-- Generated by graphviz version 2.38.0 (20140413.2041)
 -->
<!-- Title: NeoPixel::show Pages: 1 -->
<svg width="233pt" height="66pt"
 viewBox="0.00 0.00 233.00 66.00" xmlns="http://www.w3.org/2000/svg" xmlns:xlink="http://www.w3.org/1999/xlink">
<g id="graph0" class="graph" transform="scale(1 1) rotate(0) translate(4 62)">
<title>NeoPixel::show</title>
<polygon fill="white" stroke="none" points="-4,4 -4,-62 229,-62 229,4 -4,4"/>
<!-- Node89 -->
<g id="node1" class="node"><title>Node89</title>
<polygon fill="#bfbfbf" stroke="black" points="0,-19.5 0,-38.5 86,-38.5 86,-19.5 0,-19.5"/>
<text text-anchor="middle" x="43" y="-26.5" font-family="Helvetica,sans-Serif" font-size="10.00">NeoPixel::show</text>
</g>
<!-- Node90 -->
<g id="node2" class="node"><title>Node90</title>
<g id="a_node2"><a xlink:href="structNeoPixel.html#aae0bc578baf4fc49fc4c3024c53368a7" target="_top" xlink:title="NeoPixel::canShow">
<polygon fill="white" stroke="black" points="122,-38.5 122,-57.5 225,-57.5 225,-38.5 122,-38.5"/>
<text text-anchor="middle" x="173.5" y="-45.5" font-family="Helvetica,sans-Serif" font-size="10.00">NeoPixel::canShow</text>
</a>
</g>
</g>
<!-- Node89&#45;&gt;Node90 -->
<g id="edge1" class="edge"><title>Node89&#45;&gt;Node90</title>
<path fill="none" stroke="midnightblue" d="M86.0757,-35.2213C94.2827,-36.4348 103.04,-37.7296 111.713,-39.012"/>
<polygon fill="midnightblue" stroke="midnightblue" points="111.413,-42.5056 121.817,-40.506 112.437,-35.5809 111.413,-42.5056"/>
</g>
<!-- Node91 -->
<g id="node3" class="node"><title>Node91</title>
<g id="a_node3"><a xlink:href="eBoard_8h.html#a0b33edabd7f1c4e4a0bf32c67269be2f" target="_top" xlink:title="[COPY&amp;PASTE] As we have an Arduino we need a setup function ;) ">
<polygon fill="white" stroke="black" points="156,-0.5 156,-19.5 191,-19.5 191,-0.5 156,-0.5"/>
<text text-anchor="middle" x="173.5" y="-7.5" font-family="Helvetica,sans-Serif" font-size="10.00">loop</text>
</a>
</g>
</g>
<!-- Node89&#45;&gt;Node91 -->
<g id="edge2" class="edge"><title>Node89&#45;&gt;Node91</title>
<path fill="none" stroke="midnightblue" d="M86.0757,-22.7787C105.715,-19.8748 128.505,-16.5051 145.75,-13.9553"/>
<polygon fill="midnightblue" stroke="midnightblue" points="146.312,-17.4103 155.693,-12.4851 145.288,-10.4856 146.312,-17.4103"/>
</g>
</g>
</svg>
