<?xml version="1.0" encoding="UTF-8" standalone="no"?>
<!DOCTYPE svg PUBLIC "-//W3C//DTD SVG 1.1//EN"
 "http://www.w3.org/Graphics/SVG/1.1/DTD/svg11.dtd">
<!-- Generated by graphviz version 2.38.0 (20140413.2041)
 -->
<!-- Title: SoccerBoard::digital Pages: 1 -->
<svg width="383pt" height="78pt"
 viewBox="0.00 0.00 383.00 77.86" xmlns="http://www.w3.org/2000/svg" xmlns:xlink="http://www.w3.org/1999/xlink">
<g id="graph0" class="graph" transform="scale(1 1) rotate(0) translate(4 73.8589)">
<title>SoccerBoard::digital</title>
<polygon fill="white" stroke="none" points="-4,4 -4,-73.8589 379,-73.8589 379,4 -4,4"/>
<!-- Node16 -->
<g id="node1" class="node"><title>Node16</title>
<polygon fill="#bfbfbf" stroke="black" points="0,-38.5 0,-57.5 104,-57.5 104,-38.5 0,-38.5"/>
<text text-anchor="middle" x="52" y="-45.5" font-family="Helvetica,sans-Serif" font-size="10.00">SoccerBoard::digital</text>
</g>
<!-- Node17 -->
<g id="node2" class="node"><title>Node17</title>
<g id="a_node2"><a xlink:href="eBoard_8h.html#aca4f96af7c6736bf2b61c88d731af741" target="_top" xlink:title="read a digital state from an INPUTpin ">
<polygon fill="white" stroke="black" points="140,-38.5 140,-57.5 190,-57.5 190,-38.5 140,-38.5"/>
<text text-anchor="middle" x="165" y="-45.5" font-family="Helvetica,sans-Serif" font-size="10.00">readPin</text>
</a>
</g>
</g>
<!-- Node16&#45;&gt;Node17 -->
<g id="edge1" class="edge"><title>Node16&#45;&gt;Node17</title>
<path fill="none" stroke="midnightblue" d="M104.276,-48C112.886,-48 121.633,-48 129.681,-48"/>
<polygon fill="midnightblue" stroke="midnightblue" points="129.787,-51.5001 139.787,-48 129.787,-44.5001 129.787,-51.5001"/>
</g>
<!-- Node18 -->
<g id="node3" class="node"><title>Node18</title>
<g id="a_node3"><a xlink:href="eBoard_8h.html#a757015d50a6c57414603841f728b670b" target="_top" xlink:title="[DEBUG_MODE] used to check if a pin index is in bounds ">
<polygon fill="white" stroke="black" points="319,-38.5 319,-57.5 375,-57.5 375,-38.5 319,-38.5"/>
<text text-anchor="middle" x="347" y="-45.5" font-family="Helvetica,sans-Serif" font-size="10.00">checkIdx</text>
</a>
</g>
</g>
<!-- Node17&#45;&gt;Node18 -->
<g id="edge2" class="edge"><title>Node17&#45;&gt;Node18</title>
<path fill="none" stroke="midnightblue" d="M190.116,-57.4977C200.91,-61.2605 213.906,-65.1308 226,-67 251.036,-70.8694 257.938,-70.697 283,-67 292.115,-65.6555 301.739,-63.2724 310.647,-60.6386"/>
<polygon fill="midnightblue" stroke="midnightblue" points="311.841,-63.9324 320.335,-57.6004 309.746,-57.2532 311.841,-63.9324"/>
</g>
<!-- Node19 -->
<g id="node4" class="node"><title>Node19</title>
<g id="a_node4"><a xlink:href="eBoard_8h.html#a06400a6dce24e4eda610644893c1bbd7" target="_top" xlink:title="[COPY&amp;PASTE] [CHECK_PINS] Check if a pin is set to a specific mode ">
<polygon fill="white" stroke="black" points="226,-38.5 226,-57.5 283,-57.5 283,-38.5 226,-38.5"/>
<text text-anchor="middle" x="254.5" y="-45.5" font-family="Helvetica,sans-Serif" font-size="10.00">checkPin</text>
</a>
</g>
</g>
<!-- Node17&#45;&gt;Node19 -->
<g id="edge3" class="edge"><title>Node17&#45;&gt;Node19</title>
<path fill="none" stroke="midnightblue" d="M190.374,-48C198.211,-48 207.088,-48 215.656,-48"/>
<polygon fill="midnightblue" stroke="midnightblue" points="215.865,-51.5001 225.865,-48 215.865,-44.5001 215.865,-51.5001"/>
</g>
<!-- Node20 -->
<g id="node5" class="node"><title>Node20</title>
<g id="a_node5"><a xlink:href="eBoard_8h.html#a78b0e873cb50c282c6243d4913406be4" target="_top" xlink:title="[COPY&amp;PASTE] set a pin to a certain mode =&gt; checkPin() will return true then ">
<polygon fill="white" stroke="black" points="232.5,-0.5 232.5,-19.5 276.5,-19.5 276.5,-0.5 232.5,-0.5"/>
<text text-anchor="middle" x="254.5" y="-7.5" font-family="Helvetica,sans-Serif" font-size="10.00">setPin</text>
</a>
</g>
</g>
<!-- Node17&#45;&gt;Node20 -->
<g id="edge5" class="edge"><title>Node17&#45;&gt;Node20</title>
<path fill="none" stroke="midnightblue" d="M188.08,-38.411C198.68,-33.8075 211.551,-28.218 223.062,-23.2187"/>
<polygon fill="midnightblue" stroke="midnightblue" points="224.554,-26.3865 232.333,-19.1927 221.766,-19.9658 224.554,-26.3865"/>
</g>
<!-- Node19&#45;&gt;Node18 -->
<g id="edge4" class="edge"><title>Node19&#45;&gt;Node18</title>
<path fill="none" stroke="midnightblue" d="M283.145,-48C291.201,-48 300.139,-48 308.688,-48"/>
<polygon fill="midnightblue" stroke="midnightblue" points="308.836,-51.5001 318.836,-48 308.835,-44.5001 308.836,-51.5001"/>
</g>
<!-- Node20&#45;&gt;Node18 -->
<g id="edge6" class="edge"><title>Node20&#45;&gt;Node18</title>
<path fill="none" stroke="midnightblue" d="M276.947,-19.0055C287.918,-23.612 301.499,-29.3144 313.706,-34.4399"/>
<polygon fill="midnightblue" stroke="midnightblue" points="312.549,-37.7504 323.125,-38.3949 315.259,-31.2963 312.549,-37.7504"/>
</g>
</g>
</svg>
