<?xml version="1.0" encoding="UTF-8" standalone="no"?>
<!DOCTYPE svg PUBLIC "-//W3C//DTD SVG 1.1//EN"
 "http://www.w3.org/Graphics/SVG/1.1/DTD/svg11.dtd">
<!-- Generated by graphviz version 2.38.0 (20140413.2041)
 -->
<!-- Title: SoccerBoard::led Pages: 1 -->
<svg width="186pt" height="46pt"
 viewBox="0.00 0.00 186.00 46.00" xmlns="http://www.w3.org/2000/svg" xmlns:xlink="http://www.w3.org/1999/xlink">
<g id="graph0" class="graph" transform="scale(1 1) rotate(0) translate(4 42)">
<title>SoccerBoard::led</title>
<polygon fill="white" stroke="none" points="-4,4 -4,-42 182,-42 182,4 -4,4"/>
<!-- Node13 -->
<g id="node1" class="node"><title>Node13</title>
<polygon fill="#bfbfbf" stroke="black" points="0,-0.5 0,-19.5 92,-19.5 92,-0.5 0,-0.5"/>
<text text-anchor="middle" x="46" y="-7.5" font-family="Helvetica,sans-Serif" font-size="10.00">SoccerBoard::led</text>
</g>
<!-- Node14 -->
<g id="node2" class="node"><title>Node14</title>
<g id="a_node2"><a xlink:href="eBoard__comment_8h.html#aca4f96af7c6736bf2b61c88d731af741" target="_top" xlink:title="read a digital state from an INPUTpin ">
<polygon fill="white" stroke="black" points="128,-0.5 128,-19.5 178,-19.5 178,-0.5 128,-0.5"/>
<text text-anchor="middle" x="153" y="-7.5" font-family="Helvetica,sans-Serif" font-size="10.00">readPin</text>
</a>
</g>
</g>
<!-- Node13&#45;&gt;Node14 -->
<g id="edge1" class="edge"><title>Node13&#45;&gt;Node14</title>
<path fill="none" stroke="midnightblue" d="M102.236,-10C111.189,-10 120.035,-10 127.73,-10"/>
<polygon fill="midnightblue" stroke="midnightblue" points="102.139,-6.5001 92.1388,-10 102.139,-13.5001 102.139,-6.5001"/>
</g>
<!-- Node14&#45;&gt;Node14 -->
<g id="edge2" class="edge"><title>Node14&#45;&gt;Node14</title>
<path fill="none" stroke="midnightblue" d="M133.371,-29.4C134.682,-34.3146 141.225,-38 153,-38 171.84,-38 177.286,-28.5653 169.338,-19.7571"/>
<polygon fill="midnightblue" stroke="midnightblue" points="136.745,-30.3516 136.662,-19.7571 130.12,-28.0906 136.745,-30.3516"/>
</g>
</g>
</svg>
