<?xml version="1.0" encoding="UTF-8" standalone="no"?>
<!DOCTYPE svg PUBLIC "-//W3C//DTD SVG 1.1//EN"
 "http://www.w3.org/Graphics/SVG/1.1/DTD/svg11.dtd">
<!-- Generated by graphviz version 2.38.0 (20140413.2041)
 -->
<!-- Title: SoccerBoard::ledOff Pages: 1 -->
<svg width="199pt" height="46pt"
 viewBox="0.00 0.00 199.00 46.00" xmlns="http://www.w3.org/2000/svg" xmlns:xlink="http://www.w3.org/1999/xlink">
<g id="graph0" class="graph" transform="scale(1 1) rotate(0) translate(4 42)">
<title>SoccerBoard::ledOff</title>
<polygon fill="white" stroke="none" points="-4,4 -4,-42 195,-42 195,4 -4,4"/>
<!-- Node19 -->
<g id="node1" class="node"><title>Node19</title>
<polygon fill="#bfbfbf" stroke="black" points="0,-0.5 0,-19.5 105,-19.5 105,-0.5 0,-0.5"/>
<text text-anchor="middle" x="52.5" y="-7.5" font-family="Helvetica,sans-Serif" font-size="10.00">SoccerBoard::ledOff</text>
</g>
<!-- Node20 -->
<g id="node2" class="node"><title>Node20</title>
<g id="a_node2"><a xlink:href="eBoard__comment_8h.html#aca4f96af7c6736bf2b61c88d731af741" target="_top" xlink:title="read a digital state from an INPUTpin ">
<polygon fill="white" stroke="black" points="141,-0.5 141,-19.5 191,-19.5 191,-0.5 141,-0.5"/>
<text text-anchor="middle" x="166" y="-7.5" font-family="Helvetica,sans-Serif" font-size="10.00">readPin</text>
</a>
</g>
</g>
<!-- Node19&#45;&gt;Node20 -->
<g id="edge1" class="edge"><title>Node19&#45;&gt;Node20</title>
<path fill="none" stroke="midnightblue" d="M115.023,-10C124.222,-10 133.209,-10 140.967,-10"/>
<polygon fill="midnightblue" stroke="midnightblue" points="115.007,-6.5001 105.007,-10 115.007,-13.5001 115.007,-6.5001"/>
</g>
<!-- Node20&#45;&gt;Node20 -->
<g id="edge2" class="edge"><title>Node20&#45;&gt;Node20</title>
<path fill="none" stroke="midnightblue" d="M145.26,-29.4C146.645,-34.3146 153.559,-38 166,-38 185.906,-38 191.66,-28.5653 183.262,-19.7571"/>
<polygon fill="midnightblue" stroke="midnightblue" points="148.638,-30.3514 148.738,-19.7571 142.053,-27.9768 148.638,-30.3514"/>
</g>
</g>
</svg>
