<?xml version="1.0" encoding="UTF-8" standalone="no"?>
<!DOCTYPE svg PUBLIC "-//W3C//DTD SVG 1.1//EN"
 "http://www.w3.org/Graphics/SVG/1.1/DTD/svg11.dtd">
<!-- Generated by graphviz version 2.38.0 (20140413.2041)
 -->
<!-- Title: SoccerBoard::ledMeter Pages: 1 -->
<svg width="210pt" height="46pt"
 viewBox="0.00 0.00 210.00 46.00" xmlns="http://www.w3.org/2000/svg" xmlns:xlink="http://www.w3.org/1999/xlink">
<g id="graph0" class="graph" transform="scale(1 1) rotate(0) translate(4 42)">
<title>SoccerBoard::ledMeter</title>
<polygon fill="white" stroke="none" points="-4,4 -4,-42 206,-42 206,4 -4,4"/>
<!-- Node16 -->
<g id="node1" class="node"><title>Node16</title>
<polygon fill="#bfbfbf" stroke="black" points="0,-0.5 0,-19.5 116,-19.5 116,-0.5 0,-0.5"/>
<text text-anchor="middle" x="58" y="-7.5" font-family="Helvetica,sans-Serif" font-size="10.00">SoccerBoard::ledMeter</text>
</g>
<!-- Node17 -->
<g id="node2" class="node"><title>Node17</title>
<g id="a_node2"><a xlink:href="eBoard__comment_8h.html#aca4f96af7c6736bf2b61c88d731af741" target="_top" xlink:title="read a digital state from an INPUTpin ">
<polygon fill="white" stroke="black" points="152,-0.5 152,-19.5 202,-19.5 202,-0.5 152,-0.5"/>
<text text-anchor="middle" x="177" y="-7.5" font-family="Helvetica,sans-Serif" font-size="10.00">readPin</text>
</a>
</g>
</g>
<!-- Node16&#45;&gt;Node17 -->
<g id="edge1" class="edge"><title>Node16&#45;&gt;Node17</title>
<path fill="none" stroke="midnightblue" d="M126.18,-10C135.377,-10 144.282,-10 151.957,-10"/>
<polygon fill="midnightblue" stroke="midnightblue" points="126.129,-6.5001 116.129,-10 126.129,-13.5001 126.129,-6.5001"/>
</g>
<!-- Node17&#45;&gt;Node17 -->
<g id="edge2" class="edge"><title>Node17&#45;&gt;Node17</title>
<path fill="none" stroke="midnightblue" d="M155.051,-29.0292C156.248,-34.128 163.564,-38 177,-38 197.973,-38 204.035,-28.5653 195.187,-19.7571"/>
<polygon fill="midnightblue" stroke="midnightblue" points="158.296,-30.3393 158.813,-19.7571 151.81,-27.7074 158.296,-30.3393"/>
</g>
</g>
</svg>
