<?xml version="1.0" encoding="UTF-8" standalone="no"?>
<!DOCTYPE svg PUBLIC "-//W3C//DTD SVG 1.1//EN"
 "http://www.w3.org/Graphics/SVG/1.1/DTD/svg11.dtd">
<!-- Generated by graphviz version 2.38.0 (20140413.2041)
 -->
<!-- Title: SoccerBoard::led Pages: 1 -->
<svg width="378pt" height="117pt"
 viewBox="0.00 0.00 378.00 117.23" xmlns="http://www.w3.org/2000/svg" xmlns:xlink="http://www.w3.org/1999/xlink">
<g id="graph0" class="graph" transform="scale(1 1) rotate(0) translate(4 113.226)">
<title>SoccerBoard::led</title>
<polygon fill="white" stroke="none" points="-4,4 -4,-113.226 374,-113.226 374,4 -4,4"/>
<!-- Node24 -->
<g id="node1" class="node"><title>Node24</title>
<polygon fill="#bfbfbf" stroke="black" points="0,-57.5 0,-76.5 92,-76.5 92,-57.5 0,-57.5"/>
<text text-anchor="middle" x="46" y="-64.5" font-family="Helvetica,sans-Serif" font-size="10.00">SoccerBoard::led</text>
</g>
<!-- Node25 -->
<g id="node2" class="node"><title>Node25</title>
<g id="a_node2"><a xlink:href="eBoard_8h.html#ad6d4c1b1e3b495ed81fb28fac04d2bd6" target="_top" xlink:title="write a boolean state to an output pin ">
<polygon fill="white" stroke="black" points="128,-57.5 128,-76.5 180,-76.5 180,-57.5 128,-57.5"/>
<text text-anchor="middle" x="154" y="-64.5" font-family="Helvetica,sans-Serif" font-size="10.00">writePin</text>
</a>
</g>
</g>
<!-- Node24&#45;&gt;Node25 -->
<g id="edge1" class="edge"><title>Node24&#45;&gt;Node25</title>
<path fill="none" stroke="midnightblue" d="M92.261,-67C100.712,-67 109.432,-67 117.535,-67"/>
<polygon fill="midnightblue" stroke="midnightblue" points="117.758,-70.5001 127.758,-67 117.758,-63.5001 117.758,-70.5001"/>
</g>
<!-- Node26 -->
<g id="node3" class="node"><title>Node26</title>
<g id="a_node3"><a xlink:href="eBoard_8h.html#a757015d50a6c57414603841f728b670b" target="_top" xlink:title="[DEBUG_MODE] used to check if a pin index is in bounds ">
<polygon fill="white" stroke="black" points="314,-76.5 314,-95.5 370,-95.5 370,-76.5 314,-76.5"/>
<text text-anchor="middle" x="342" y="-83.5" font-family="Helvetica,sans-Serif" font-size="10.00">checkIdx</text>
</a>
</g>
</g>
<!-- Node25&#45;&gt;Node26 -->
<g id="edge2" class="edge"><title>Node25&#45;&gt;Node26</title>
<path fill="none" stroke="midnightblue" d="M166.203,-76.7076C177.777,-86.0392 196.806,-99.5106 216,-105 246.369,-113.685 282.092,-106.603 307.555,-98.7356"/>
<polygon fill="midnightblue" stroke="midnightblue" points="308.707,-102.041 317.116,-95.5959 306.523,-95.3906 308.707,-102.041"/>
</g>
<!-- Node27 -->
<g id="node4" class="node"><title>Node27</title>
<g id="a_node4"><a xlink:href="eBoard_8h.html#a06400a6dce24e4eda610644893c1bbd7" target="_top" xlink:title="[COPY&amp;PASTE] [CHECK_PINS] Check if a pin is set to a specific mode ">
<polygon fill="white" stroke="black" points="218.5,-76.5 218.5,-95.5 275.5,-95.5 275.5,-76.5 218.5,-76.5"/>
<text text-anchor="middle" x="247" y="-83.5" font-family="Helvetica,sans-Serif" font-size="10.00">checkPin</text>
</a>
</g>
</g>
<!-- Node25&#45;&gt;Node27 -->
<g id="edge3" class="edge"><title>Node25&#45;&gt;Node27</title>
<path fill="none" stroke="midnightblue" d="M180.349,-72.2926C189,-74.0988 198.869,-76.1594 208.28,-78.1244"/>
<polygon fill="midnightblue" stroke="midnightblue" points="207.729,-81.5848 218.234,-80.2026 209.16,-74.7326 207.729,-81.5848"/>
</g>
<!-- Node28 -->
<g id="node5" class="node"><title>Node28</title>
<g id="a_node5"><a xlink:href="eBoard_8h.html#a78b0e873cb50c282c6243d4913406be4" target="_top" xlink:title="[COPY&amp;PASTE] set a pin to a certain mode =&gt; checkPin() will return true then ">
<polygon fill="white" stroke="black" points="225,-38.5 225,-57.5 269,-57.5 269,-38.5 225,-38.5"/>
<text text-anchor="middle" x="247" y="-45.5" font-family="Helvetica,sans-Serif" font-size="10.00">setPin</text>
</a>
</g>
</g>
<!-- Node25&#45;&gt;Node28 -->
<g id="edge5" class="edge"><title>Node25&#45;&gt;Node28</title>
<path fill="none" stroke="midnightblue" d="M180.349,-61.7074C191.059,-59.4712 203.636,-56.8452 214.9,-54.4933"/>
<polygon fill="midnightblue" stroke="midnightblue" points="215.711,-57.8996 224.785,-52.4296 214.28,-51.0474 215.711,-57.8996"/>
</g>
<!-- Node29 -->
<g id="node6" class="node"><title>Node29</title>
<g id="a_node6"><a xlink:href="eBoard_8h.html#ad6372ab439a73887b0800cc695599436" target="_top" xlink:title="[SHIFT] Changes a single output Pin ">
<polygon fill="white" stroke="black" points="216,-0.5 216,-19.5 278,-19.5 278,-0.5 216,-0.5"/>
<text text-anchor="middle" x="247" y="-7.5" font-family="Helvetica,sans-Serif" font-size="10.00">shiftSingle</text>
</a>
</g>
</g>
<!-- Node25&#45;&gt;Node29 -->
<g id="edge7" class="edge"><title>Node25&#45;&gt;Node29</title>
<path fill="none" stroke="midnightblue" d="M170.437,-57.3307C184.642,-48.4333 205.922,-35.1038 222.284,-24.8554"/>
<polygon fill="midnightblue" stroke="midnightblue" points="224.174,-27.801 230.791,-19.5265 220.458,-21.8687 224.174,-27.801"/>
</g>
<!-- Node27&#45;&gt;Node26 -->
<g id="edge4" class="edge"><title>Node27&#45;&gt;Node26</title>
<path fill="none" stroke="midnightblue" d="M275.651,-86C284.443,-86 294.317,-86 303.675,-86"/>
<polygon fill="midnightblue" stroke="midnightblue" points="303.936,-89.5001 313.936,-86 303.936,-82.5001 303.936,-89.5001"/>
</g>
<!-- Node28&#45;&gt;Node26 -->
<g id="edge6" class="edge"><title>Node28&#45;&gt;Node26</title>
<path fill="none" stroke="midnightblue" d="M269.103,-56.6228C280.634,-61.3342 295.17,-67.2736 308.149,-72.577"/>
<polygon fill="midnightblue" stroke="midnightblue" points="307.114,-75.9351 317.695,-76.4777 309.762,-69.4552 307.114,-75.9351"/>
</g>
<!-- Node30 -->
<g id="node7" class="node"><title>Node30</title>
<g id="a_node7"><a xlink:href="eBoard_8h.html#aa0a7f697a49b0d038631c64e945f5c1a" target="_top" xlink:title="[SHIFT] Changes bits according to store_bits ">
<polygon fill="white" stroke="black" points="318.5,-0.5 318.5,-19.5 365.5,-19.5 365.5,-0.5 318.5,-0.5"/>
<text text-anchor="middle" x="342" y="-7.5" font-family="Helvetica,sans-Serif" font-size="10.00">shiftAll</text>
</a>
</g>
</g>
<!-- Node29&#45;&gt;Node30 -->
<g id="edge8" class="edge"><title>Node29&#45;&gt;Node30</title>
<path fill="none" stroke="midnightblue" d="M278.194,-10C287.776,-10 298.415,-10 308.173,-10"/>
<polygon fill="midnightblue" stroke="midnightblue" points="308.323,-13.5001 318.323,-10 308.323,-6.5001 308.323,-13.5001"/>
</g>
</g>
</svg>
