<?xml version="1.0" encoding="UTF-8" standalone="no"?>
<!DOCTYPE svg PUBLIC "-//W3C//DTD SVG 1.1//EN"
 "http://www.w3.org/Graphics/SVG/1.1/DTD/svg11.dtd">
<!-- Generated by graphviz version 2.38.0 (20140413.2041)
 -->
<!-- Title: LCD::setCursor Pages: 1 -->
<svg width="818pt" height="318pt"
 viewBox="0.00 0.00 818.00 318.04" xmlns="http://www.w3.org/2000/svg" xmlns:xlink="http://www.w3.org/1999/xlink">
<g id="graph0" class="graph" transform="scale(1 1) rotate(0) translate(4 314.038)">
<title>LCD::setCursor</title>
<polygon fill="white" stroke="none" points="-4,4 -4,-314.038 814,-314.038 814,4 -4,4"/>
<!-- Node379 -->
<g id="node1" class="node"><title>Node379</title>
<polygon fill="#bfbfbf" stroke="black" points="0,-192.663 0,-211.663 86,-211.663 86,-192.663 0,-192.663"/>
<text text-anchor="middle" x="43" y="-199.663" font-family="Helvetica,sans-Serif" font-size="10.00">LCD::setCursor</text>
</g>
<!-- Node380 -->
<g id="node2" class="node"><title>Node380</title>
<g id="a_node2"><a xlink:href="structLCD.html#a632d9c641930fe16c0b623b82136196e" target="_top" xlink:title="LCD::init">
<polygon fill="white" stroke="black" points="122,-154.663 122,-173.663 178,-173.663 178,-154.663 122,-154.663"/>
<text text-anchor="middle" x="150" y="-161.663" font-family="Helvetica,sans-Serif" font-size="10.00">LCD::init</text>
</a>
</g>
</g>
<!-- Node379&#45;&gt;Node380 -->
<g id="edge1" class="edge"><title>Node379&#45;&gt;Node380</title>
<path fill="none" stroke="midnightblue" d="M70.4959,-192.574C83.3043,-187.938 98.8753,-182.303 112.762,-177.277"/>
<polygon fill="midnightblue" stroke="midnightblue" points="114.3,-180.443 122.513,-173.749 111.918,-173.861 114.3,-180.443"/>
</g>
<!-- Node382 -->
<g id="node4" class="node"><title>Node382</title>
<g id="a_node4"><a xlink:href="structLCD.html#a739998fad0591a092255676c8c8d532f" target="_top" xlink:title="LCD::s1Cmd">
<polygon fill="white" stroke="black" points="486,-154.663 486,-173.663 560,-173.663 560,-154.663 486,-154.663"/>
<text text-anchor="middle" x="523" y="-161.663" font-family="Helvetica,sans-Serif" font-size="10.00">LCD::s1Cmd</text>
</a>
</g>
</g>
<!-- Node379&#45;&gt;Node382 -->
<g id="edge29" class="edge"><title>Node379&#45;&gt;Node382</title>
<path fill="none" stroke="midnightblue" d="M58.7435,-211.721C74.2739,-221.674 99.5443,-237.543 122,-250.163 208.406,-298.72 245.778,-327.921 340,-297.163 358.529,-291.114 458.437,-213.936 501.845,-179.997"/>
<polygon fill="midnightblue" stroke="midnightblue" points="504.018,-182.741 509.733,-173.819 499.702,-177.23 504.018,-182.741"/>
</g>
<!-- Node388 -->
<g id="node10" class="node"><title>Node388</title>
<g id="a_node10"><a xlink:href="structLCD.html#ae7a8d9bc1581cfeeb0f098c8bb6d1229" target="_top" xlink:title="LCD::s2Cmd">
<polygon fill="white" stroke="black" points="376,-2.66267 376,-21.6627 450,-21.6627 450,-2.66267 376,-2.66267"/>
<text text-anchor="middle" x="413" y="-9.66267" font-family="Helvetica,sans-Serif" font-size="10.00">LCD::s2Cmd</text>
</a>
</g>
</g>
<!-- Node379&#45;&gt;Node388 -->
<g id="edge30" class="edge"><title>Node379&#45;&gt;Node388</title>
<path fill="none" stroke="midnightblue" d="M49.1373,-192.5C66.838,-160.366 128.913,-56.9397 214,-18.1627 262.178,3.79373 324.018,1.51182 365.663,-3.79625"/>
<polygon fill="midnightblue" stroke="midnightblue" points="365.41,-7.29448 375.796,-5.19805 366.37,-0.360526 365.41,-7.29448"/>
</g>
<!-- Node381 -->
<g id="node3" class="node"><title>Node381</title>
<g id="a_node3"><a xlink:href="structLCD.html#aa01b7522d1e210f9cd071e3a5d4ae9e6" target="_top" xlink:title="LCD::changeBackground">
<polygon fill="white" stroke="black" points="214,-192.663 214,-211.663 340,-211.663 340,-192.663 214,-192.663"/>
<text text-anchor="middle" x="277" y="-199.663" font-family="Helvetica,sans-Serif" font-size="10.00">LCD::changeBackground</text>
</a>
</g>
</g>
<!-- Node380&#45;&gt;Node381 -->
<g id="edge2" class="edge"><title>Node380&#45;&gt;Node381</title>
<path fill="none" stroke="midnightblue" d="M178.123,-166.73C199.597,-171.793 229.378,-180.883 250.436,-188.823"/>
<polygon fill="midnightblue" stroke="midnightblue" points="249.412,-192.181 259.998,-192.605 251.986,-185.672 249.412,-192.181"/>
</g>
<!-- Node387 -->
<g id="node9" class="node"><title>Node387</title>
<g id="a_node9"><a xlink:href="structLCD.html#a75cacb94de3b3ff71e9a4497b5cc4a81" target="_top" xlink:title="LCD::changeBrightness">
<polygon fill="white" stroke="black" points="216.5,-78.6627 216.5,-97.6627 337.5,-97.6627 337.5,-78.6627 216.5,-78.6627"/>
<text text-anchor="middle" x="277" y="-85.6627" font-family="Helvetica,sans-Serif" font-size="10.00">LCD::changeBrightness</text>
</a>
</g>
</g>
<!-- Node380&#45;&gt;Node387 -->
<g id="edge10" class="edge"><title>Node380&#45;&gt;Node387</title>
<path fill="none" stroke="midnightblue" d="M155.042,-154.556C163.346,-140.932 183.444,-118.212 207.659,-102.21"/>
<polygon fill="midnightblue" stroke="midnightblue" points="209.691,-105.07 216.383,-96.8564 206.029,-99.1039 209.691,-105.07"/>
</g>
<!-- Node380&#45;&gt;Node388 -->
<g id="edge28" class="edge"><title>Node380&#45;&gt;Node388</title>
<path fill="none" stroke="midnightblue" d="M153.125,-154.412C159.563,-132.922 180.487,-84.7398 214,-60.1627 259.036,-27.1354 322.784,-13.1921 365.67,-9.38112"/>
<polygon fill="midnightblue" stroke="midnightblue" points="366.111,-12.8583 375.83,-8.64007 365.602,-5.87685 366.111,-12.8583"/>
</g>
<!-- Node389 -->
<g id="node11" class="node"><title>Node389</title>
<g id="a_node11"><a xlink:href="structLCD.html#ad31ee94d401b7c28d6cc2f472e2eb8fd" target="_top" xlink:title="LCD::changeMode">
<polygon fill="white" stroke="black" points="228,-116.663 228,-135.663 326,-135.663 326,-116.663 228,-116.663"/>
<text text-anchor="middle" x="277" y="-123.663" font-family="Helvetica,sans-Serif" font-size="10.00">LCD::changeMode</text>
</a>
</g>
</g>
<!-- Node380&#45;&gt;Node389 -->
<g id="edge17" class="edge"><title>Node380&#45;&gt;Node389</title>
<path fill="none" stroke="midnightblue" d="M167.086,-154.57C180.169,-149.104 199.468,-142.56 218.201,-137"/>
<polygon fill="midnightblue" stroke="midnightblue" points="219.275,-140.333 227.91,-134.194 217.331,-133.609 219.275,-140.333"/>
</g>
<!-- Node390 -->
<g id="node12" class="node"><title>Node390</title>
<g id="a_node12"><a xlink:href="structLCD.html#ad3120f397273bac2ad60e0291554b9e6" target="_top" xlink:title="LCD::clear">
<polygon fill="white" stroke="black" points="245,-268.663 245,-287.663 309,-287.663 309,-268.663 245,-268.663"/>
<text text-anchor="middle" x="277" y="-275.663" font-family="Helvetica,sans-Serif" font-size="10.00">LCD::clear</text>
</a>
</g>
</g>
<!-- Node380&#45;&gt;Node390 -->
<g id="edge20" class="edge"><title>Node380&#45;&gt;Node390</title>
<path fill="none" stroke="midnightblue" d="M158.383,-173.769C168.389,-190.864 188.029,-224.81 214,-245.163 225.47,-254.151 240.706,-260.111 253.203,-264.923"/>
<polygon fill="midnightblue" stroke="midnightblue" points="251.927,-268.182 262.515,-268.572 254.481,-261.665 251.927,-268.182"/>
</g>
<!-- Node381&#45;&gt;Node380 -->
<g id="edge3" class="edge"><title>Node381&#45;&gt;Node380</title>
<path fill="none" stroke="midnightblue" d="M222.602,-192.616C206.614,-187.982 189.814,-182.501 176.508,-177.481"/>
<polygon fill="midnightblue" stroke="midnightblue" points="177.672,-174.178 167.086,-173.755 175.098,-180.687 177.672,-174.178"/>
</g>
<!-- Node381&#45;&gt;Node382 -->
<g id="edge4" class="edge"><title>Node381&#45;&gt;Node382</title>
<path fill="none" stroke="midnightblue" d="M340.22,-194.296C372.954,-189.951 413.718,-184.217 450,-178.163 458.396,-176.762 467.316,-175.138 475.914,-173.503"/>
<polygon fill="midnightblue" stroke="midnightblue" points="476.655,-176.925 485.809,-171.592 475.327,-170.052 476.655,-176.925"/>
</g>
<!-- Node382&#45;&gt;Node380 -->
<g id="edge7" class="edge"><title>Node382&#45;&gt;Node380</title>
<path fill="none" stroke="midnightblue" d="M485.869,-164.163C415.405,-164.163 260.279,-164.163 188.632,-164.163"/>
<polygon fill="midnightblue" stroke="midnightblue" points="188.281,-160.663 178.281,-164.163 188.28,-167.663 188.281,-160.663"/>
</g>
<!-- Node383 -->
<g id="node5" class="node"><title>Node383</title>
<g id="a_node5"><a xlink:href="classeagle__impl_1_1TwoWire.html#a1876ffdb16fb185c14a75e1251cef5e4" target="_top" xlink:title="eagle_impl::TwoWire\l::beginTransmission">
<polygon fill="white" stroke="black" points="596,-149.163 596,-179.163 704,-179.163 704,-149.163 596,-149.163"/>
<text text-anchor="start" x="604" y="-167.163" font-family="Helvetica,sans-Serif" font-size="10.00">eagle_impl::TwoWire</text>
<text text-anchor="middle" x="650" y="-156.163" font-family="Helvetica,sans-Serif" font-size="10.00">::beginTransmission</text>
</a>
</g>
</g>
<!-- Node382&#45;&gt;Node383 -->
<g id="edge5" class="edge"><title>Node382&#45;&gt;Node383</title>
<path fill="none" stroke="midnightblue" d="M560.155,-164.163C568.136,-164.163 576.819,-164.163 585.526,-164.163"/>
<polygon fill="midnightblue" stroke="midnightblue" points="585.72,-167.663 595.72,-164.163 585.72,-160.663 585.72,-167.663"/>
</g>
<!-- Node384 -->
<g id="node6" class="node"><title>Node384</title>
<g id="a_node6"><a xlink:href="classeagle__impl_1_1TwoWire.html#af80f9a7b85a3a81a035ca94c95bcdc1d" target="_top" xlink:title="eagle_impl::TwoWire\l::endTransmission">
<polygon fill="white" stroke="black" points="596,-100.163 596,-130.163 704,-130.163 704,-100.163 596,-100.163"/>
<text text-anchor="start" x="604" y="-118.163" font-family="Helvetica,sans-Serif" font-size="10.00">eagle_impl::TwoWire</text>
<text text-anchor="middle" x="650" y="-107.163" font-family="Helvetica,sans-Serif" font-size="10.00">::endTransmission</text>
</a>
</g>
</g>
<!-- Node382&#45;&gt;Node384 -->
<g id="edge6" class="edge"><title>Node382&#45;&gt;Node384</title>
<path fill="none" stroke="midnightblue" d="M548.398,-154.599C563.265,-148.771 582.783,-141.12 600.668,-134.109"/>
<polygon fill="midnightblue" stroke="midnightblue" points="602.363,-137.204 610.396,-130.295 599.808,-130.687 602.363,-137.204"/>
</g>
<!-- Node385 -->
<g id="node7" class="node"><title>Node385</title>
<g id="a_node7"><a xlink:href="classeagle__impl_1_1TwoWire.html#a2b5f9f156b6d281746a2a6ca5707dad3" target="_top" xlink:title="eagle_impl::TwoWire\l::write">
<polygon fill="white" stroke="black" points="596,-198.163 596,-228.163 704,-228.163 704,-198.163 596,-198.163"/>
<text text-anchor="start" x="604" y="-216.163" font-family="Helvetica,sans-Serif" font-size="10.00">eagle_impl::TwoWire</text>
<text text-anchor="middle" x="650" y="-205.163" font-family="Helvetica,sans-Serif" font-size="10.00">::write</text>
</a>
</g>
</g>
<!-- Node382&#45;&gt;Node385 -->
<g id="edge8" class="edge"><title>Node382&#45;&gt;Node385</title>
<path fill="none" stroke="midnightblue" d="M548.398,-173.727C563.265,-179.555 582.783,-187.206 600.668,-194.217"/>
<polygon fill="midnightblue" stroke="midnightblue" points="599.808,-197.639 610.396,-198.03 602.363,-191.122 599.808,-197.639"/>
</g>
<!-- Node386 -->
<g id="node8" class="node"><title>Node386</title>
<g id="a_node8"><a xlink:href="eBoard_8h.html#abb66f08d8061c1064047324c1bacc2a9" target="_top" xlink:title="twi_transmit">
<polygon fill="white" stroke="black" points="740,-203.663 740,-222.663 810,-222.663 810,-203.663 740,-203.663"/>
<text text-anchor="middle" x="775" y="-210.663" font-family="Helvetica,sans-Serif" font-size="10.00">twi_transmit</text>
</a>
</g>
</g>
<!-- Node385&#45;&gt;Node386 -->
<g id="edge9" class="edge"><title>Node385&#45;&gt;Node386</title>
<path fill="none" stroke="midnightblue" d="M704.234,-213.163C712.725,-213.163 721.431,-213.163 729.686,-213.163"/>
<polygon fill="midnightblue" stroke="midnightblue" points="729.854,-216.663 739.854,-213.163 729.854,-209.663 729.854,-216.663"/>
</g>
<!-- Node387&#45;&gt;Node380 -->
<g id="edge13" class="edge"><title>Node387&#45;&gt;Node380</title>
<path fill="none" stroke="midnightblue" d="M261.749,-97.6804C248.702,-102.399 229.174,-107.547 214,-116.163 199.137,-124.602 184.822,-137.079 173.604,-147.376"/>
<polygon fill="midnightblue" stroke="midnightblue" points="170.978,-145.036 166.019,-154.399 175.734,-150.173 170.978,-145.036"/>
</g>
<!-- Node387&#45;&gt;Node383 -->
<g id="edge11" class="edge"><title>Node387&#45;&gt;Node383</title>
<path fill="none" stroke="midnightblue" d="M325.933,-97.6861C382.069,-108.878 477.842,-128.09 560,-145.163 568.429,-146.914 577.303,-148.781 586.049,-150.635"/>
<polygon fill="midnightblue" stroke="midnightblue" points="585.331,-154.06 595.84,-152.715 586.786,-147.213 585.331,-154.06"/>
</g>
<!-- Node387&#45;&gt;Node384 -->
<g id="edge12" class="edge"><title>Node387&#45;&gt;Node384</title>
<path fill="none" stroke="midnightblue" d="M323.543,-78.6198C379.805,-68.4876 478.123,-56.2101 560,-74.1627 579.031,-78.3354 598.846,-86.98 614.935,-95.2604"/>
<polygon fill="midnightblue" stroke="midnightblue" points="613.472,-98.4464 623.943,-100.057 616.762,-92.2677 613.472,-98.4464"/>
</g>
<!-- Node387&#45;&gt;Node388 -->
<g id="edge14" class="edge"><title>Node387&#45;&gt;Node388</title>
<path fill="none" stroke="midnightblue" d="M307.82,-78.6232C318.298,-74.7556 329.956,-69.8495 340,-64.1627 357.639,-54.1758 359.556,-48.0146 376,-36.1627 380.052,-33.2419 384.429,-30.2191 388.687,-27.3444"/>
<polygon fill="midnightblue" stroke="midnightblue" points="390.735,-30.1857 397.121,-21.7316 386.857,-24.3581 390.735,-30.1857"/>
</g>
<!-- Node388&#45;&gt;Node380 -->
<g id="edge15" class="edge"><title>Node388&#45;&gt;Node380</title>
<path fill="none" stroke="midnightblue" d="M375.83,-21.4615C333.424,-29.0226 262.749,-42.4122 214,-78.1627 189.836,-95.8837 172.216,-125.877 161.853,-145.563"/>
<polygon fill="midnightblue" stroke="midnightblue" points="158.692,-144.056 157.226,-154.549 164.916,-147.261 158.692,-144.056"/>
</g>
<!-- Node388&#45;&gt;Node382 -->
<g id="edge16" class="edge"><title>Node388&#45;&gt;Node382</title>
<path fill="none" stroke="midnightblue" d="M420.756,-21.671C438.409,-46.5156 486.138,-113.691 509.193,-146.138"/>
<polygon fill="midnightblue" stroke="midnightblue" points="506.601,-148.533 515.247,-154.658 512.308,-144.479 506.601,-148.533"/>
</g>
<!-- Node389&#45;&gt;Node380 -->
<g id="edge18" class="edge"><title>Node389&#45;&gt;Node380</title>
<path fill="none" stroke="midnightblue" d="M259.998,-135.72C241.929,-143.279 211.926,-152.91 187.968,-159.146"/>
<polygon fill="midnightblue" stroke="midnightblue" points="186.982,-155.785 178.123,-161.596 188.672,-162.578 186.982,-155.785"/>
</g>
<!-- Node389&#45;&gt;Node382 -->
<g id="edge19" class="edge"><title>Node389&#45;&gt;Node382</title>
<path fill="none" stroke="midnightblue" d="M326.296,-132.201C360.828,-136.689 408.365,-143.215 450,-150.163 458.396,-151.564 467.316,-153.188 475.914,-154.822"/>
<polygon fill="midnightblue" stroke="midnightblue" points="475.327,-158.274 485.809,-156.734 476.655,-151.401 475.327,-158.274"/>
</g>
<!-- Node390&#45;&gt;Node379 -->
<g id="edge27" class="edge"><title>Node390&#45;&gt;Node379</title>
<path fill="none" stroke="midnightblue" d="M246.856,-268.615C205.412,-255.039 129.357,-230.124 83.0665,-214.96"/>
<polygon fill="midnightblue" stroke="midnightblue" points="83.9757,-211.575 73.383,-211.788 81.7965,-218.227 83.9757,-211.575"/>
</g>
<!-- Node390&#45;&gt;Node380 -->
<g id="edge21" class="edge"><title>Node390&#45;&gt;Node380</title>
<path fill="none" stroke="midnightblue" d="M244.793,-278.587C234.304,-275.397 222.994,-270.211 214,-263.163 186.914,-241.936 166.714,-205.925 157.148,-183.362"/>
<polygon fill="midnightblue" stroke="midnightblue" points="160.303,-181.818 153.418,-173.766 153.779,-184.355 160.303,-181.818"/>
</g>
<!-- Node391 -->
<g id="node13" class="node"><title>Node391</title>
<g id="a_node13"><a xlink:href="structLCD.html#ae5873763db265cd00da32664cce88873" target="_top" xlink:title="LCD::s1Dat">
<polygon fill="white" stroke="black" points="488.5,-203.663 488.5,-222.663 557.5,-222.663 557.5,-203.663 488.5,-203.663"/>
<text text-anchor="middle" x="523" y="-210.663" font-family="Helvetica,sans-Serif" font-size="10.00">LCD::s1Dat</text>
</a>
</g>
</g>
<!-- Node390&#45;&gt;Node391 -->
<g id="edge22" class="edge"><title>Node390&#45;&gt;Node391</title>
<path fill="none" stroke="midnightblue" d="M309.261,-277.33C344.366,-275.596 402.621,-270.293 450,-254.163 467.813,-248.098 486.221,-237.526 499.965,-228.636"/>
<polygon fill="midnightblue" stroke="midnightblue" points="502.296,-231.289 508.671,-222.827 498.41,-225.467 502.296,-231.289"/>
</g>
<!-- Node391&#45;&gt;Node380 -->
<g id="edge25" class="edge"><title>Node391&#45;&gt;Node380</title>
<path fill="none" stroke="midnightblue" d="M488.213,-222.208C429.958,-236.053 307.839,-257.313 214,-221.163 193.483,-213.259 175.5,-195.234 164.055,-181.554"/>
<polygon fill="midnightblue" stroke="midnightblue" points="166.783,-179.361 157.81,-173.727 161.311,-183.727 166.783,-179.361"/>
</g>
<!-- Node391&#45;&gt;Node383 -->
<g id="edge23" class="edge"><title>Node391&#45;&gt;Node383</title>
<path fill="none" stroke="midnightblue" d="M548.398,-203.599C563.265,-197.771 582.783,-190.12 600.668,-183.109"/>
<polygon fill="midnightblue" stroke="midnightblue" points="602.363,-186.204 610.396,-179.295 599.808,-179.687 602.363,-186.204"/>
</g>
<!-- Node391&#45;&gt;Node384 -->
<g id="edge24" class="edge"><title>Node391&#45;&gt;Node384</title>
<path fill="none" stroke="midnightblue" d="M536.808,-203.412C543.909,-197.783 552.743,-190.403 560,-183.163 577.644,-165.558 576.268,-155.39 596,-140.163 598.079,-138.558 600.278,-137.023 602.55,-135.56"/>
<polygon fill="midnightblue" stroke="midnightblue" points="604.723,-138.344 611.59,-130.276 601.19,-132.301 604.723,-138.344"/>
</g>
<!-- Node391&#45;&gt;Node385 -->
<g id="edge26" class="edge"><title>Node391&#45;&gt;Node385</title>
<path fill="none" stroke="midnightblue" d="M557.827,-213.163C566.52,-213.163 576.158,-213.163 585.818,-213.163"/>
<polygon fill="midnightblue" stroke="midnightblue" points="585.854,-216.663 595.854,-213.163 585.854,-209.663 585.854,-216.663"/>
</g>
</g>
</svg>
