<?xml version="1.0" encoding="UTF-8" standalone="no"?>
<!DOCTYPE svg PUBLIC "-//W3C//DTD SVG 1.1//EN"
 "http://www.w3.org/Graphics/SVG/1.1/DTD/svg11.dtd">
<!-- Generated by graphviz version 2.38.0 (20140413.2041)
 -->
<!-- Title: NeoPixel::getPixelColor Pages: 1 -->
<svg width="215pt" height="46pt"
 viewBox="0.00 0.00 215.00 46.00" xmlns="http://www.w3.org/2000/svg" xmlns:xlink="http://www.w3.org/1999/xlink">
<g id="graph0" class="graph" transform="scale(1 1) rotate(0) translate(4 42)">
<title>NeoPixel::getPixelColor</title>
<polygon fill="white" stroke="none" points="-4,4 -4,-42 211,-42 211,4 -4,4"/>
<!-- Node34 -->
<g id="node1" class="node"><title>Node34</title>
<polygon fill="#bfbfbf" stroke="black" points="0,-0.5 0,-19.5 121,-19.5 121,-0.5 0,-0.5"/>
<text text-anchor="middle" x="60.5" y="-7.5" font-family="Helvetica,sans-Serif" font-size="10.00">NeoPixel::getPixelColor</text>
</g>
<!-- Node35 -->
<g id="node2" class="node"><title>Node35</title>
<g id="a_node2"><a xlink:href="eBoard__comment_8h.html#aca4f96af7c6736bf2b61c88d731af741" target="_top" xlink:title="read a digital state from an INPUTpin ">
<polygon fill="white" stroke="black" points="157,-0.5 157,-19.5 207,-19.5 207,-0.5 157,-0.5"/>
<text text-anchor="middle" x="182" y="-7.5" font-family="Helvetica,sans-Serif" font-size="10.00">readPin</text>
</a>
</g>
</g>
<!-- Node34&#45;&gt;Node35 -->
<g id="edge1" class="edge"><title>Node34&#45;&gt;Node35</title>
<path fill="none" stroke="midnightblue" d="M131.251,-10C140.391,-10 149.209,-10 156.817,-10"/>
<polygon fill="midnightblue" stroke="midnightblue" points="131.25,-6.5001 121.25,-10 131.25,-13.5001 131.25,-6.5001"/>
</g>
<!-- Node35&#45;&gt;Node35 -->
<g id="edge2" class="edge"><title>Node35&#45;&gt;Node35</title>
<path fill="none" stroke="midnightblue" d="M159.679,-29.0292C160.896,-34.128 168.337,-38 182,-38 203.328,-38 209.493,-28.5653 200.495,-19.7571"/>
<polygon fill="midnightblue" stroke="midnightblue" points="162.926,-30.3361 163.505,-19.7571 156.455,-27.6661 162.926,-30.3361"/>
</g>
</g>
</svg>
