<?xml version="1.0" encoding="UTF-8" standalone="no"?>
<!DOCTYPE svg PUBLIC "-//W3C//DTD SVG 1.1//EN"
 "http://www.w3.org/Graphics/SVG/1.1/DTD/svg11.dtd">
<!-- Generated by graphviz version 2.38.0 (20140413.2041)
 -->
<!-- Title: AX12Servo::setSpeedMode Pages: 1 -->
<svg width="231pt" height="46pt"
 viewBox="0.00 0.00 231.00 46.00" xmlns="http://www.w3.org/2000/svg" xmlns:xlink="http://www.w3.org/1999/xlink">
<g id="graph0" class="graph" transform="scale(1 1) rotate(0) translate(4 42)">
<title>AX12Servo::setSpeedMode</title>
<polygon fill="white" stroke="none" points="-4,4 -4,-42 227,-42 227,4 -4,4"/>
<!-- Node34 -->
<g id="node1" class="node"><title>Node34</title>
<polygon fill="#bfbfbf" stroke="black" points="0,-0.5 0,-19.5 137,-19.5 137,-0.5 0,-0.5"/>
<text text-anchor="middle" x="68.5" y="-7.5" font-family="Helvetica,sans-Serif" font-size="10.00">AX12Servo::setSpeedMode</text>
</g>
<!-- Node35 -->
<g id="node2" class="node"><title>Node35</title>
<g id="a_node2"><a xlink:href="eBoard__comment_8h.html#aca4f96af7c6736bf2b61c88d731af741" target="_top" xlink:title="read a digital state from an INPUTpin ">
<polygon fill="white" stroke="black" points="173,-0.5 173,-19.5 223,-19.5 223,-0.5 173,-0.5"/>
<text text-anchor="middle" x="198" y="-7.5" font-family="Helvetica,sans-Serif" font-size="10.00">readPin</text>
</a>
</g>
</g>
<!-- Node34&#45;&gt;Node35 -->
<g id="edge1" class="edge"><title>Node34&#45;&gt;Node35</title>
<path fill="none" stroke="midnightblue" d="M147.413,-10C156.568,-10 165.313,-10 172.839,-10"/>
<polygon fill="midnightblue" stroke="midnightblue" points="147.356,-6.5001 137.356,-10 147.356,-13.5001 147.356,-6.5001"/>
</g>
<!-- Node35&#45;&gt;Node35 -->
<g id="edge2" class="edge"><title>Node35&#45;&gt;Node35</title>
<path fill="none" stroke="midnightblue" d="M174.191,-29.0292C175.489,-34.128 183.426,-38 198,-38 220.75,-38 227.326,-28.5653 217.729,-19.7571"/>
<polygon fill="midnightblue" stroke="midnightblue" points="177.447,-30.3197 178.271,-19.7571 171.04,-27.4998 177.447,-30.3197"/>
</g>
</g>
</svg>
