<?xml version="1.0" encoding="UTF-8" standalone="no"?>
<!DOCTYPE svg PUBLIC "-//W3C//DTD SVG 1.1//EN"
 "http://www.w3.org/Graphics/SVG/1.1/DTD/svg11.dtd">
<!-- Generated by graphviz version 2.38.0 (20140413.2041)
 -->
<!-- Title: SoccerBoard::motorsOff Pages: 1 -->
<svg width="216pt" height="46pt"
 viewBox="0.00 0.00 216.00 46.00" xmlns="http://www.w3.org/2000/svg" xmlns:xlink="http://www.w3.org/1999/xlink">
<g id="graph0" class="graph" transform="scale(1 1) rotate(0) translate(4 42)">
<title>SoccerBoard::motorsOff</title>
<polygon fill="white" stroke="none" points="-4,4 -4,-42 212,-42 212,4 -4,4"/>
<!-- Node31 -->
<g id="node1" class="node"><title>Node31</title>
<polygon fill="#bfbfbf" stroke="black" points="0,-0.5 0,-19.5 122,-19.5 122,-0.5 0,-0.5"/>
<text text-anchor="middle" x="61" y="-7.5" font-family="Helvetica,sans-Serif" font-size="10.00">SoccerBoard::motorsOff</text>
</g>
<!-- Node32 -->
<g id="node2" class="node"><title>Node32</title>
<g id="a_node2"><a xlink:href="eBoard__comment_8h.html#aca4f96af7c6736bf2b61c88d731af741" target="_top" xlink:title="read a digital state from an INPUTpin ">
<polygon fill="white" stroke="black" points="158,-0.5 158,-19.5 208,-19.5 208,-0.5 158,-0.5"/>
<text text-anchor="middle" x="183" y="-7.5" font-family="Helvetica,sans-Serif" font-size="10.00">readPin</text>
</a>
</g>
</g>
<!-- Node31&#45;&gt;Node32 -->
<g id="edge1" class="edge"><title>Node31&#45;&gt;Node32</title>
<path fill="none" stroke="midnightblue" d="M132.643,-10C141.673,-10 150.371,-10 157.883,-10"/>
<polygon fill="midnightblue" stroke="midnightblue" points="132.352,-6.5001 122.352,-10 132.352,-13.5001 132.352,-6.5001"/>
</g>
<!-- Node32&#45;&gt;Node32 -->
<g id="edge2" class="edge"><title>Node32&#45;&gt;Node32</title>
<path fill="none" stroke="midnightblue" d="M160.307,-29.0292C161.544,-34.128 169.109,-38 183,-38 204.684,-38 210.952,-28.5653 201.804,-19.7571"/>
<polygon fill="midnightblue" stroke="midnightblue" points="163.555,-30.3325 164.196,-19.7571 157.1,-27.6246 163.555,-30.3325"/>
</g>
</g>
</svg>
