<?xml version="1.0" encoding="UTF-8" standalone="no"?>
<!DOCTYPE svg PUBLIC "-//W3C//DTD SVG 1.1//EN"
 "http://www.w3.org/Graphics/SVG/1.1/DTD/svg11.dtd">
<!-- Generated by graphviz version 2.38.0 (20140413.2041)
 -->
<!-- Title: I2CInOut::changeModes Pages: 1 -->
<svg width="217pt" height="46pt"
 viewBox="0.00 0.00 217.00 46.00" xmlns="http://www.w3.org/2000/svg" xmlns:xlink="http://www.w3.org/1999/xlink">
<g id="graph0" class="graph" transform="scale(1 1) rotate(0) translate(4 42)">
<title>I2CInOut::changeModes</title>
<polygon fill="white" stroke="none" points="-4,4 -4,-42 213,-42 213,4 -4,4"/>
<!-- Node7 -->
<g id="node1" class="node"><title>Node7</title>
<polygon fill="#bfbfbf" stroke="black" points="0,-0.5 0,-19.5 123,-19.5 123,-0.5 0,-0.5"/>
<text text-anchor="middle" x="61.5" y="-7.5" font-family="Helvetica,sans-Serif" font-size="10.00">I2CInOut::changeModes</text>
</g>
<!-- Node8 -->
<g id="node2" class="node"><title>Node8</title>
<g id="a_node2"><a xlink:href="eBoard__comment_8h.html#aca4f96af7c6736bf2b61c88d731af741" target="_top" xlink:title="read a digital state from an INPUTpin ">
<polygon fill="white" stroke="black" points="159,-0.5 159,-19.5 209,-19.5 209,-0.5 159,-0.5"/>
<text text-anchor="middle" x="184" y="-7.5" font-family="Helvetica,sans-Serif" font-size="10.00">readPin</text>
</a>
</g>
</g>
<!-- Node7&#45;&gt;Node8 -->
<g id="edge1" class="edge"><title>Node7&#45;&gt;Node8</title>
<path fill="none" stroke="midnightblue" d="M133.144,-10C142.317,-10 151.158,-10 158.783,-10"/>
<polygon fill="midnightblue" stroke="midnightblue" points="133.103,-6.5001 123.103,-10 133.103,-13.5001 133.103,-6.5001"/>
</g>
<!-- Node8&#45;&gt;Node8 -->
<g id="edge2" class="edge"><title>Node8&#45;&gt;Node8</title>
<path fill="none" stroke="midnightblue" d="M161.307,-29.0292C162.544,-34.128 170.109,-38 184,-38 205.684,-38 211.952,-28.5653 202.804,-19.7571"/>
<polygon fill="midnightblue" stroke="midnightblue" points="164.555,-30.3325 165.196,-19.7571 158.1,-27.6246 164.555,-30.3325"/>
</g>
</g>
</svg>
