<?xml version="1.0" encoding="UTF-8" standalone="no"?>
<!DOCTYPE svg PUBLIC "-//W3C//DTD SVG 1.1//EN"
 "http://www.w3.org/Graphics/SVG/1.1/DTD/svg11.dtd">
<!-- Generated by graphviz version 2.38.0 (20140413.2041)
 -->
<!-- Title: LCD::changeID Pages: 1 -->
<!--zoomable 361 -->
<svg id="main" version="1.1" xmlns="http://www.w3.org/2000/svg" xmlns:xlink="http://www.w3.org/1999/xlink" xml:space="preserve" onload="init(evt)">
<style type="text/css"><![CDATA[
.edge:hover path { stroke: red; }
.edge:hover polygon { stroke: red; fill: red; }
]]></style>
<script type="text/javascript"><![CDATA[
var edges = document.getElementsByTagName('g');
if (edges && edges.length) {
  for (var i=0;i<edges.length;i++) {
    if (edges[i].id.substr(0,4)=='edge') {
      edges[i].setAttribute('class','edge');
    }
  }
}
]]></script>
        <defs>
                <circle id="rim" cx="0" cy="0" r="7"/>
                <circle id="rim2" cx="0" cy="0" r="3.5"/>
                <g id="zoomPlus">
                        <use xlink:href="#rim" fill="#404040">
                                <set attributeName="fill" to="#808080" begin="zoomplus.mouseover" end="zoomplus.mouseout"/>
                        </use>
                        <path d="M-4,0h8M0,-4v8" fill="none" stroke="white" stroke-width="1.5" pointer-events="none"/>
                </g>
                <g id="zoomMin">
                        <use xlink:href="#rim" fill="#404040">
                                <set attributeName="fill" to="#808080" begin="zoomminus.mouseover" end="zoomminus.mouseout"/>
                        </use>
                        <path d="M-4,0h8" fill="none" stroke="white" stroke-width="1.5" pointer-events="none"/>
                </g>
                <g id="dirArrow">
                        <path fill="none" stroke="white" stroke-width="1.5" d="M0,-3.0v7 M-2.5,-0.5L0,-3.0L2.5,-0.5"/>
                </g>
               <g id="resetDef">
                       <use xlink:href="#rim2" fill="#404040">
                               <set attributeName="fill" to="#808080" begin="reset.mouseover" end="reset.mouseout"/>
                       </use>
               </g>
        </defs>

<script type="text/javascript">
var viewWidth = 974;
var viewHeight = 361;
var sectionId = 'dynsection-4';
</script>
<script xlink:href="svgpan.js"/>
<svg id="graph" class="graph">
<g id="viewport">
<title>LCD::changeID</title>
<polygon fill="white" stroke="none" points="-4,4 -4,-356.966 970,-356.966 970,4 -4,4"/>
<!-- Node68 -->
<g id="node1" class="node"><title>Node68</title>
<polygon fill="#bfbfbf" stroke="black" points="0,-176.34 0,-195.34 85,-195.34 85,-176.34 0,-176.34"/>
<text text-anchor="middle" x="42.5" y="-183.34" font-family="Helvetica,sans-Serif" font-size="10.00">LCD::changeID</text>
</g>
<!-- Node69 -->
<g id="node2" class="node"><title>Node69</title>
<g id="a_node2"><a xlink:href="structLCD.html#a632d9c641930fe16c0b623b82136196e" target="_top" xlink:title="LCD::init">
<polygon fill="white" stroke="black" points="121,-176.34 121,-195.34 177,-195.34 177,-176.34 121,-176.34"/>
<text text-anchor="middle" x="149" y="-183.34" font-family="Helvetica,sans-Serif" font-size="10.00">LCD::init</text>
</a>
</g>
</g>
<!-- Node68&#45;&gt;Node69 -->
<g id="edge1" class="edge"><title>Node68&#45;&gt;Node69</title>
<path fill="none" stroke="midnightblue" d="M85.1014,-185.84C93.5857,-185.84 102.461,-185.84 110.781,-185.84"/>
<polygon fill="midnightblue" stroke="midnightblue" points="110.951,-189.34 120.951,-185.84 110.951,-182.34 110.951,-189.34"/>
</g>
<!-- Node70 -->
<g id="node3" class="node"><title>Node70</title>
<g id="a_node3"><a xlink:href="structLCD.html#ae7a8d9bc1581cfeeb0f098c8bb6d1229" target="_top" xlink:title="LCD::s2Cmd">
<polygon fill="white" stroke="black" points="532,-223.34 532,-242.34 606,-242.34 606,-223.34 532,-223.34"/>
<text text-anchor="middle" x="569" y="-230.34" font-family="Helvetica,sans-Serif" font-size="10.00">LCD::s2Cmd</text>
</a>
</g>
</g>
<!-- Node69&#45;&gt;Node70 -->
<g id="edge2" class="edge"><title>Node69&#45;&gt;Node70</title>
<path fill="none" stroke="midnightblue" d="M177.146,-184.315C188.207,-186.231 201.156,-188.981 213,-190.84 323.074,-208.116 453.873,-217.413 521.827,-224.539"/>
<polygon fill="midnightblue" stroke="midnightblue" points="521.464,-228.02 531.784,-225.62 522.22,-221.061 521.464,-228.02"/>
</g>
<!-- Node76 -->
<g id="node9" class="node"><title>Node76</title>
<g id="a_node9"><a xlink:href="structLCD.html#ad31ee94d401b7c28d6cc2f472e2eb8fd" target="_top" xlink:title="LCD::changeMode">
<polygon fill="white" stroke="black" points="227,-100.34 227,-119.34 325,-119.34 325,-100.34 227,-100.34"/>
<text text-anchor="middle" x="276" y="-107.34" font-family="Helvetica,sans-Serif" font-size="10.00">LCD::changeMode</text>
</a>
</g>
</g>
<!-- Node69&#45;&gt;Node76 -->
<g id="edge10" class="edge"><title>Node69&#45;&gt;Node76</title>
<path fill="none" stroke="midnightblue" d="M154.807,-175.963C164.826,-161.905 189.012,-138.885 213,-124.84 214.507,-123.958 216.051,-123.096 217.625,-122.258"/>
<polygon fill="midnightblue" stroke="midnightblue" points="219.441,-125.266 226.882,-117.723 216.362,-118.979 219.441,-125.266"/>
</g>
<!-- Node77 -->
<g id="node10" class="node"><title>Node77</title>
<g id="a_node10"><a xlink:href="structLCD.html#aa01b7522d1e210f9cd071e3a5d4ae9e6" target="_top" xlink:title="LCD::changeBackground">
<polygon fill="white" stroke="black" points="213,-270.34 213,-289.34 339,-289.34 339,-270.34 213,-270.34"/>
<text text-anchor="middle" x="276" y="-277.34" font-family="Helvetica,sans-Serif" font-size="10.00">LCD::changeBackground</text>
</a>
</g>
</g>
<!-- Node69&#45;&gt;Node77 -->
<g id="edge13" class="edge"><title>Node69&#45;&gt;Node77</title>
<path fill="none" stroke="midnightblue" d="M161.279,-195.43C172.719,-208.948 191.733,-232.176 213,-246.84 225.297,-255.319 241.004,-261.358 253.532,-266.42"/>
<polygon fill="midnightblue" stroke="midnightblue" points="252.196,-269.656 262.771,-270.299 254.905,-263.201 252.196,-269.656"/>
</g>
<!-- Node78 -->
<g id="node11" class="node"><title>Node78</title>
<g id="a_node11"><a xlink:href="structLCD.html#a75cacb94de3b3ff71e9a4497b5cc4a81" target="_top" xlink:title="LCD::changeBrightness">
<polygon fill="white" stroke="black" points="375,-317.34 375,-336.34 496,-336.34 496,-317.34 375,-317.34"/>
<text text-anchor="middle" x="435.5" y="-324.34" font-family="Helvetica,sans-Serif" font-size="10.00">LCD::changeBrightness</text>
</a>
</g>
</g>
<!-- Node69&#45;&gt;Node78 -->
<g id="edge16" class="edge"><title>Node69&#45;&gt;Node78</title>
<path fill="none" stroke="midnightblue" d="M153.677,-195.427C160.62,-216.873 178.192,-266.333 213,-289.84 257.291,-319.751 318.127,-325.564 364.838,-325.967"/>
<polygon fill="midnightblue" stroke="midnightblue" points="364.876,-329.467 374.879,-325.976 364.883,-322.467 364.876,-329.467"/>
</g>
<!-- Node79 -->
<g id="node12" class="node"><title>Node79</title>
<g id="a_node12"><a xlink:href="structLCD.html#ad3120f397273bac2ad60e0291554b9e6" target="_top" xlink:title="LCD::clear">
<polygon fill="white" stroke="black" points="244,-62.3401 244,-81.3401 308,-81.3401 308,-62.3401 244,-62.3401"/>
<text text-anchor="middle" x="276" y="-69.3401" font-family="Helvetica,sans-Serif" font-size="10.00">LCD::clear</text>
</a>
</g>
</g>
<!-- Node69&#45;&gt;Node79 -->
<g id="edge21" class="edge"><title>Node69&#45;&gt;Node79</title>
<path fill="none" stroke="midnightblue" d="M152.146,-176.117C158.638,-154.702 179.698,-106.702 213,-81.8401 219.21,-77.2041 226.563,-73.6875 233.995,-71.1984"/>
<polygon fill="midnightblue" stroke="midnightblue" points="235.016,-74.5477 243.722,-68.5106 233.151,-67.8006 235.016,-74.5477"/>
</g>
<!-- Node70&#45;&gt;Node69 -->
<g id="edge3" class="edge"><title>Node70&#45;&gt;Node69</title>
<path fill="none" stroke="midnightblue" d="M531.784,-236.348C467.357,-236.346 328.725,-227.003 213,-208.84 198.96,-206.637 183.366,-203.18 171.206,-199.157"/>
<polygon fill="midnightblue" stroke="midnightblue" points="172.119,-195.761 161.528,-195.495 169.642,-202.308 172.119,-195.761"/>
</g>
<!-- Node71 -->
<g id="node4" class="node"><title>Node71</title>
<g id="a_node4"><a xlink:href="structLCD.html#a739998fad0591a092255676c8c8d532f" target="_top" xlink:title="LCD::s1Cmd">
<polygon fill="white" stroke="black" points="642,-176.34 642,-195.34 716,-195.34 716,-176.34 642,-176.34"/>
<text text-anchor="middle" x="679" y="-183.34" font-family="Helvetica,sans-Serif" font-size="10.00">LCD::s1Cmd</text>
</a>
</g>
</g>
<!-- Node70&#45;&gt;Node71 -->
<g id="edge4" class="edge"><title>Node70&#45;&gt;Node71</title>
<path fill="none" stroke="midnightblue" d="M591.855,-223.329C607.561,-216.494 628.971,-207.177 646.517,-199.541"/>
<polygon fill="midnightblue" stroke="midnightblue" points="648.034,-202.698 655.806,-195.498 645.24,-196.28 648.034,-202.698"/>
</g>
<!-- Node71&#45;&gt;Node69 -->
<g id="edge5" class="edge"><title>Node71&#45;&gt;Node69</title>
<path fill="none" stroke="midnightblue" d="M641.776,-185.84C545.703,-185.84 285.104,-185.84 187.543,-185.84"/>
<polygon fill="midnightblue" stroke="midnightblue" points="187.276,-182.34 177.276,-185.84 187.276,-189.34 187.276,-182.34"/>
</g>
<!-- Node72 -->
<g id="node5" class="node"><title>Node72</title>
<g id="a_node5"><a xlink:href="classeagle__impl_1_1TwoWire.html#a1876ffdb16fb185c14a75e1251cef5e4" target="_top" xlink:title="eagle_impl::TwoWire\l::beginTransmission">
<polygon fill="white" stroke="black" points="752,-219.84 752,-249.84 860,-249.84 860,-219.84 752,-219.84"/>
<text text-anchor="start" x="760" y="-237.84" font-family="Helvetica,sans-Serif" font-size="10.00">eagle_impl::TwoWire</text>
<text text-anchor="middle" x="806" y="-226.84" font-family="Helvetica,sans-Serif" font-size="10.00">::beginTransmission</text>
</a>
</g>
</g>
<!-- Node71&#45;&gt;Node72 -->
<g id="edge6" class="edge"><title>Node71&#45;&gt;Node72</title>
<path fill="none" stroke="midnightblue" d="M704.398,-195.404C719.265,-201.232 738.783,-208.883 756.668,-215.894"/>
<polygon fill="midnightblue" stroke="midnightblue" points="755.808,-219.316 766.396,-219.707 758.363,-212.799 755.808,-219.316"/>
</g>
<!-- Node73 -->
<g id="node6" class="node"><title>Node73</title>
<g id="a_node6"><a xlink:href="classeagle__impl_1_1TwoWire.html#a2b5f9f156b6d281746a2a6ca5707dad3" target="_top" xlink:title="eagle_impl::TwoWire\l::write">
<polygon fill="white" stroke="black" points="752,-121.84 752,-151.84 860,-151.84 860,-121.84 752,-121.84"/>
<text text-anchor="start" x="760" y="-139.84" font-family="Helvetica,sans-Serif" font-size="10.00">eagle_impl::TwoWire</text>
<text text-anchor="middle" x="806" y="-128.84" font-family="Helvetica,sans-Serif" font-size="10.00">::write</text>
</a>
</g>
</g>
<!-- Node71&#45;&gt;Node73 -->
<g id="edge7" class="edge"><title>Node71&#45;&gt;Node73</title>
<path fill="none" stroke="midnightblue" d="M704.398,-176.276C719.265,-170.448 738.783,-162.797 756.668,-155.786"/>
<polygon fill="midnightblue" stroke="midnightblue" points="758.363,-158.881 766.396,-151.973 755.808,-152.364 758.363,-158.881"/>
</g>
<!-- Node75 -->
<g id="node8" class="node"><title>Node75</title>
<g id="a_node8"><a xlink:href="classeagle__impl_1_1TwoWire.html#af80f9a7b85a3a81a035ca94c95bcdc1d" target="_top" xlink:title="eagle_impl::TwoWire\l::endTransmission">
<polygon fill="white" stroke="black" points="752,-170.84 752,-200.84 860,-200.84 860,-170.84 752,-170.84"/>
<text text-anchor="start" x="760" y="-188.84" font-family="Helvetica,sans-Serif" font-size="10.00">eagle_impl::TwoWire</text>
<text text-anchor="middle" x="806" y="-177.84" font-family="Helvetica,sans-Serif" font-size="10.00">::endTransmission</text>
</a>
</g>
</g>
<!-- Node71&#45;&gt;Node75 -->
<g id="edge9" class="edge"><title>Node71&#45;&gt;Node75</title>
<path fill="none" stroke="midnightblue" d="M716.155,-185.84C724.136,-185.84 732.819,-185.84 741.526,-185.84"/>
<polygon fill="midnightblue" stroke="midnightblue" points="741.72,-189.34 751.72,-185.84 741.72,-182.34 741.72,-189.34"/>
</g>
<!-- Node74 -->
<g id="node7" class="node"><title>Node74</title>
<g id="a_node7"><a xlink:href="eBoard_8h.html#abb66f08d8061c1064047324c1bacc2a9" target="_top" xlink:title="twi_transmit">
<polygon fill="white" stroke="black" points="896,-127.34 896,-146.34 966,-146.34 966,-127.34 896,-127.34"/>
<text text-anchor="middle" x="931" y="-134.34" font-family="Helvetica,sans-Serif" font-size="10.00">twi_transmit</text>
</a>
</g>
</g>
<!-- Node73&#45;&gt;Node74 -->
<g id="edge8" class="edge"><title>Node73&#45;&gt;Node74</title>
<path fill="none" stroke="midnightblue" d="M860.234,-136.84C868.725,-136.84 877.431,-136.84 885.686,-136.84"/>
<polygon fill="midnightblue" stroke="midnightblue" points="885.854,-140.34 895.854,-136.84 885.854,-133.34 885.854,-140.34"/>
</g>
<!-- Node76&#45;&gt;Node69 -->
<g id="edge11" class="edge"><title>Node76&#45;&gt;Node69</title>
<path fill="none" stroke="midnightblue" d="M263.99,-119.381C251.206,-125.768 229.734,-133.043 213,-142.84 199.834,-150.549 186.608,-160.961 175.698,-169.776"/>
<polygon fill="midnightblue" stroke="midnightblue" points="173.415,-167.121 167.845,-176.134 177.82,-172.562 173.415,-167.121"/>
</g>
<!-- Node76&#45;&gt;Node71 -->
<g id="edge12" class="edge"><title>Node76&#45;&gt;Node71</title>
<path fill="none" stroke="midnightblue" d="M325.133,-111.763C369.697,-114.075 437.678,-118.955 496,-128.84 545.738,-137.27 558.051,-141.159 606,-156.84 619.644,-161.302 634.4,-167.072 646.979,-172.289"/>
<polygon fill="midnightblue" stroke="midnightblue" points="645.965,-175.659 656.539,-176.318 648.684,-169.209 645.965,-175.659"/>
</g>
<!-- Node77&#45;&gt;Node69 -->
<g id="edge14" class="edge"><title>Node77&#45;&gt;Node69</title>
<path fill="none" stroke="midnightblue" d="M222.02,-270.333C218.885,-268.64 215.851,-266.806 213,-264.84 189.831,-248.865 169.338,-222.727 158.396,-204.579"/>
<polygon fill="midnightblue" stroke="midnightblue" points="161.243,-202.494 153.343,-195.434 155.116,-205.879 161.243,-202.494"/>
</g>
<!-- Node77&#45;&gt;Node71 -->
<g id="edge15" class="edge"><title>Node77&#45;&gt;Node71</title>
<path fill="none" stroke="midnightblue" d="M339.016,-286.126C407.409,-290.489 519.252,-289.897 606,-251.84 630.108,-241.264 651.455,-219.242 664.524,-203.547"/>
<polygon fill="midnightblue" stroke="midnightblue" points="667.377,-205.584 670.898,-195.591 661.914,-201.207 667.377,-205.584"/>
</g>
<!-- Node78&#45;&gt;Node69 -->
<g id="edge19" class="edge"><title>Node78&#45;&gt;Node69</title>
<path fill="none" stroke="midnightblue" d="M406.914,-336.37C362.12,-344.705 272.587,-348.08 213,-307.84 177.834,-284.092 160.261,-233.854 153.466,-205.54"/>
<polygon fill="midnightblue" stroke="midnightblue" points="156.839,-204.577 151.314,-195.537 149.996,-206.05 156.839,-204.577"/>
</g>
<!-- Node78&#45;&gt;Node70 -->
<g id="edge20" class="edge"><title>Node78&#45;&gt;Node70</title>
<path fill="none" stroke="midnightblue" d="M450.078,-317.135C472.934,-300.796 519.265,-267.677 546.555,-248.17"/>
<polygon fill="midnightblue" stroke="midnightblue" points="548.592,-251.016 554.692,-242.353 544.522,-245.321 548.592,-251.016"/>
</g>
<!-- Node78&#45;&gt;Node72 -->
<g id="edge17" class="edge"><title>Node78&#45;&gt;Node72</title>
<path fill="none" stroke="midnightblue" d="M471.438,-336.44C526.217,-349.572 634.474,-367.681 716,-331.84 749.801,-316.98 776.385,-282.245 791.399,-258.638"/>
<polygon fill="midnightblue" stroke="midnightblue" points="794.514,-260.253 796.756,-249.898 788.546,-256.595 794.514,-260.253"/>
</g>
<!-- Node78&#45;&gt;Node75 -->
<g id="edge18" class="edge"><title>Node78&#45;&gt;Node75</title>
<path fill="none" stroke="midnightblue" d="M474.369,-317.323C509.056,-308.218 561.602,-293.444 606,-276.84 621.651,-270.987 709.78,-230.198 763.374,-205.258"/>
<polygon fill="midnightblue" stroke="midnightblue" points="765.043,-208.342 772.631,-200.948 762.088,-201.996 765.043,-208.342"/>
</g>
<!-- Node79&#45;&gt;Node69 -->
<g id="edge22" class="edge"><title>Node79&#45;&gt;Node69</title>
<path fill="none" stroke="midnightblue" d="M257.242,-81.3974C243.984,-85.3424 225.991,-90.1418 213,-99.8401 188.988,-117.767 171.341,-147.722 160.93,-167.343"/>
<polygon fill="midnightblue" stroke="midnightblue" points="157.783,-165.808 156.277,-176.295 163.994,-169.036 157.783,-165.808"/>
</g>
<!-- Node80 -->
<g id="node13" class="node"><title>Node80</title>
<g id="a_node13"><a xlink:href="structLCD.html#ad1a67d455563026a5064ef9cab86ae4d" target="_top" xlink:title="LCD::setCursor">
<polygon fill="white" stroke="black" points="392.5,-138.34 392.5,-157.34 478.5,-157.34 478.5,-138.34 392.5,-138.34"/>
<text text-anchor="middle" x="435.5" y="-145.34" font-family="Helvetica,sans-Serif" font-size="10.00">LCD::setCursor</text>
</a>
</g>
</g>
<!-- Node79&#45;&gt;Node80 -->
<g id="edge23" class="edge"><title>Node79&#45;&gt;Node80</title>
<path fill="none" stroke="midnightblue" d="M308.123,-79.7841C318.166,-82.7661 329.225,-86.5012 339,-90.8401 365.39,-102.553 393.533,-120.03 412.378,-132.541"/>
<polygon fill="midnightblue" stroke="midnightblue" points="410.585,-135.553 420.834,-138.237 414.496,-129.748 410.585,-135.553"/>
</g>
<!-- Node81 -->
<g id="node14" class="node"><title>Node81</title>
<g id="a_node14"><a xlink:href="structLCD.html#ae5873763db265cd00da32664cce88873" target="_top" xlink:title="LCD::s1Dat">
<polygon fill="white" stroke="black" points="644.5,-127.34 644.5,-146.34 713.5,-146.34 713.5,-127.34 644.5,-127.34"/>
<text text-anchor="middle" x="679" y="-134.34" font-family="Helvetica,sans-Serif" font-size="10.00">LCD::s1Dat</text>
</a>
</g>
</g>
<!-- Node79&#45;&gt;Node81 -->
<g id="edge27" class="edge"><title>Node79&#45;&gt;Node81</title>
<path fill="none" stroke="midnightblue" d="M308.217,-69.6167C367.647,-66.3564 500.525,-63.763 606,-95.8401 624.402,-101.436 643.223,-112.372 657.005,-121.542"/>
<polygon fill="midnightblue" stroke="midnightblue" points="655.058,-124.451 665.279,-127.24 659.028,-118.686 655.058,-124.451"/>
</g>
<!-- Node80&#45;&gt;Node69 -->
<g id="edge24" class="edge"><title>Node80&#45;&gt;Node69</title>
<path fill="none" stroke="midnightblue" d="M392.261,-151.017C347.551,-154.705 275.019,-161.621 213,-171.84 204.59,-173.226 195.616,-175.024 187.154,-176.867"/>
<polygon fill="midnightblue" stroke="midnightblue" points="186.15,-173.506 177.161,-179.114 187.685,-180.336 186.15,-173.506"/>
</g>
<!-- Node80&#45;&gt;Node70 -->
<g id="edge25" class="edge"><title>Node80&#45;&gt;Node70</title>
<path fill="none" stroke="midnightblue" d="M451.329,-157.425C474.02,-172.092 517.558,-200.235 544.556,-217.686"/>
<polygon fill="midnightblue" stroke="midnightblue" points="542.725,-220.67 553.023,-223.159 546.525,-214.791 542.725,-220.67"/>
</g>
<!-- Node80&#45;&gt;Node71 -->
<g id="edge26" class="edge"><title>Node80&#45;&gt;Node71</title>
<path fill="none" stroke="midnightblue" d="M478.735,-153.207C513.084,-157.72 562.767,-164.581 606,-171.84 614.394,-173.25 623.314,-174.877 631.912,-176.514"/>
<polygon fill="midnightblue" stroke="midnightblue" points="631.325,-179.965 641.807,-178.426 632.653,-173.092 631.325,-179.965"/>
</g>
<!-- Node81&#45;&gt;Node69 -->
<g id="edge28" class="edge"><title>Node81&#45;&gt;Node69</title>
<path fill="none" stroke="midnightblue" d="M669.881,-127.013C657.652,-112.981 633.042,-87.6019 606,-75.8401 445.553,-6.05587 360.848,40.7226 213,-52.8401 173.372,-77.9181 158.183,-135.407 152.76,-165.938"/>
<polygon fill="midnightblue" stroke="midnightblue" points="149.243,-165.77 151.129,-176.196 156.156,-166.87 149.243,-165.77"/>
</g>
<!-- Node81&#45;&gt;Node72 -->
<g id="edge29" class="edge"><title>Node81&#45;&gt;Node72</title>
<path fill="none" stroke="midnightblue" d="M692.84,-146.559C699.951,-152.178 708.784,-159.559 716,-166.84 733.786,-184.787 731.964,-195.446 752,-210.84 753.757,-212.19 755.602,-213.485 757.507,-214.724"/>
<polygon fill="midnightblue" stroke="midnightblue" points="755.762,-217.758 766.159,-219.801 759.305,-211.721 755.762,-217.758"/>
</g>
<!-- Node81&#45;&gt;Node73 -->
<g id="edge30" class="edge"><title>Node81&#45;&gt;Node73</title>
<path fill="none" stroke="midnightblue" d="M713.827,-136.84C722.52,-136.84 732.158,-136.84 741.818,-136.84"/>
<polygon fill="midnightblue" stroke="midnightblue" points="741.854,-140.34 751.854,-136.84 741.854,-133.34 741.854,-140.34"/>
</g>
<!-- Node81&#45;&gt;Node75 -->
<g id="edge31" class="edge"><title>Node81&#45;&gt;Node75</title>
<path fill="none" stroke="midnightblue" d="M704.398,-146.404C719.265,-152.232 738.783,-159.883 756.668,-166.894"/>
<polygon fill="midnightblue" stroke="midnightblue" points="755.808,-170.316 766.396,-170.707 758.363,-163.799 755.808,-170.316"/>
</g>
</g>
</svg>
        <g id="navigator" transform="translate(0 0)" fill="#404254">
                <rect fill="#f2f5e9" fill-opacity="0.5" stroke="#606060" stroke-width=".5" x="0" y="0" width="60" height="60"/>
                <use id="zoomplus" xlink:href="#zoomPlus" x="17" y="9" onmousedown="handleZoom(evt,'in')"/>
                <use id="zoomminus" xlink:href="#zoomMin" x="42" y="9" onmousedown="handleZoom(evt,'out')"/>
                <use id="reset" xlink:href="#resetDef" x="30" y="36" onmousedown="handleReset()"/>
                <g id="arrowUp" xlink:href="#dirArrow" transform="translate(30 24)" onmousedown="handlePan(0,-1)">
                  <use xlink:href="#rim" fill="#404040">
                        <set attributeName="fill" to="#808080" begin="arrowUp.mouseover" end="arrowUp.mouseout"/>
                  </use>
                  <path fill="none" stroke="white" stroke-width="1.5" d="M0,-3.0v7 M-2.5,-0.5L0,-3.0L2.5,-0.5"/>
                </g>
                <g id="arrowRight" xlink:href="#dirArrow" transform="rotate(90) translate(36 -43)" onmousedown="handlePan(1,0)">
                  <use xlink:href="#rim" fill="#404040">
                        <set attributeName="fill" to="#808080" begin="arrowRight.mouseover" end="arrowRight.mouseout"/>
                  </use>
                  <path fill="none" stroke="white" stroke-width="1.5" d="M0,-3.0v7 M-2.5,-0.5L0,-3.0L2.5,-0.5"/>
                </g>
                <g id="arrowDown" xlink:href="#dirArrow" transform="rotate(180) translate(-30 -48)" onmousedown="handlePan(0,1)">
                  <use xlink:href="#rim" fill="#404040">
                        <set attributeName="fill" to="#808080" begin="arrowDown.mouseover" end="arrowDown.mouseout"/>
                  </use>
                  <path fill="none" stroke="white" stroke-width="1.5" d="M0,-3.0v7 M-2.5,-0.5L0,-3.0L2.5,-0.5"/>
                </g>
                <g id="arrowLeft" xlink:href="#dirArrow" transform="rotate(270) translate(-36 17)" onmousedown="handlePan(-1,0)">
                  <use xlink:href="#rim" fill="#404040">
                        <set attributeName="fill" to="#808080" begin="arrowLeft.mouseover" end="arrowLeft.mouseout"/>
                  </use>
                  <path fill="none" stroke="white" stroke-width="1.5" d="M0,-3.0v7 M-2.5,-0.5L0,-3.0L2.5,-0.5"/>
                </g>
        </g>
        <svg viewBox="0 0 15 15" width="100%" height="30px" preserveAspectRatio="xMaxYMin meet">
         <g id="arrow_out" transform="scale(0.3 0.3)">
          <a xlink:href="structLCD_aa5e25fef7649532af402df06f05b6d4c_cgraph_org.svg" target="_base">
           <rect id="button" ry="5" rx="5" y="6" x="6" height="38" width="38"
                fill="#f2f5e9" fill-opacity="0.5" stroke="#606060" stroke-width="1.0"/>
           <path id="arrow"
             d="M 11.500037,31.436501 C 11.940474,20.09759 22.043105,11.32322 32.158766,21.979434 L 37.068811,17.246167 C 37.068811,17.246167 37.088388,32 37.088388,32 L 22.160133,31.978069 C 22.160133,31.978069 26.997745,27.140456 26.997745,27.140456 C 18.528582,18.264221 13.291696,25.230495 11.500037,31.436501 z"
             style="fill:#404040;"/>
          </a>
         </g>
        </svg>
</svg>
