<?xml version="1.0" encoding="UTF-8" standalone="no"?>
<!DOCTYPE svg PUBLIC "-//W3C//DTD SVG 1.1//EN"
 "http://www.w3.org/Graphics/SVG/1.1/DTD/svg11.dtd">
<!-- Generated by graphviz version 2.38.0 (20140413.2041)
 -->
<!-- Title: ServoCds55::WritePos Pages: 1 -->
<svg width="647pt" height="66pt"
 viewBox="0.00 0.00 647.00 66.00" xmlns="http://www.w3.org/2000/svg" xmlns:xlink="http://www.w3.org/1999/xlink">
<g id="graph0" class="graph" transform="scale(1 1) rotate(0) translate(4 62)">
<title>ServoCds55::WritePos</title>
<polygon fill="white" stroke="none" points="-4,4 -4,-62 643,-62 643,4 -4,4"/>
<!-- Node72 -->
<g id="node1" class="node"><title>Node72</title>
<polygon fill="#bfbfbf" stroke="black" points="0,-19.5 0,-38.5 117,-38.5 117,-19.5 0,-19.5"/>
<text text-anchor="middle" x="58.5" y="-26.5" font-family="Helvetica,sans-Serif" font-size="10.00">ServoCds55::WritePos</text>
</g>
<!-- Node73 -->
<g id="node2" class="node"><title>Node73</title>
<g id="a_node2"><a xlink:href="structServoCds55.html#ab74eb7a47800fedd7405adca0bf1e935" target="_top" xlink:title="ServoCds55::write">
<polygon fill="white" stroke="black" points="153,-19.5 153,-38.5 251,-38.5 251,-19.5 153,-19.5"/>
<text text-anchor="middle" x="202" y="-26.5" font-family="Helvetica,sans-Serif" font-size="10.00">ServoCds55::write</text>
</a>
</g>
</g>
<!-- Node72&#45;&gt;Node73 -->
<g id="edge1" class="edge"><title>Node72&#45;&gt;Node73</title>
<path fill="none" stroke="midnightblue" d="M127.216,-29C135.924,-29 144.694,-29 152.996,-29"/>
<polygon fill="midnightblue" stroke="midnightblue" points="127.054,-25.5001 117.053,-29 127.053,-32.5001 127.054,-25.5001"/>
</g>
<!-- Node74 -->
<g id="node3" class="node"><title>Node74</title>
<g id="a_node3"><a xlink:href="structSoccerBoard.html#a5039fee586408ce515f300d8db073818" target="_top" xlink:title="SoccerBoard::motor">
<polygon fill="white" stroke="black" points="295.5,-38.5 295.5,-57.5 399.5,-57.5 399.5,-38.5 295.5,-38.5"/>
<text text-anchor="middle" x="347.5" y="-45.5" font-family="Helvetica,sans-Serif" font-size="10.00">SoccerBoard::motor</text>
</a>
</g>
</g>
<!-- Node73&#45;&gt;Node74 -->
<g id="edge2" class="edge"><title>Node73&#45;&gt;Node74</title>
<path fill="none" stroke="midnightblue" d="M261.338,-36.7242C272.572,-38.2116 284.26,-39.7592 295.249,-41.2141"/>
<polygon fill="midnightblue" stroke="midnightblue" points="261.556,-33.2225 251.183,-35.3796 260.637,-40.162 261.556,-33.2225"/>
</g>
<!-- Node75 -->
<g id="node4" class="node"><title>Node75</title>
<g id="a_node4"><a xlink:href="structAX12Servo.html#ae6005da90335d13c253a246edb247178" target="_top" xlink:title="AX12Servo::setPosition">
<polygon fill="white" stroke="black" points="287,-0.5 287,-19.5 408,-19.5 408,-0.5 287,-0.5"/>
<text text-anchor="middle" x="347.5" y="-7.5" font-family="Helvetica,sans-Serif" font-size="10.00">AX12Servo::setPosition</text>
</a>
</g>
</g>
<!-- Node73&#45;&gt;Node75 -->
<g id="edge3" class="edge"><title>Node73&#45;&gt;Node75</title>
<path fill="none" stroke="midnightblue" d="M261.332,-21.2766C269.785,-20.1574 278.496,-19.0041 286.972,-17.8818"/>
<polygon fill="midnightblue" stroke="midnightblue" points="260.637,-17.838 251.183,-22.6204 261.556,-24.7775 260.637,-17.838"/>
</g>
<!-- Node76 -->
<g id="node5" class="node"><title>Node76</title>
<g id="a_node5"><a xlink:href="structDynamixelBoard.html#a9b6d6166eaa2c42e87f424b54edce510" target="_top" xlink:title="DynamixelBoard::action">
<polygon fill="white" stroke="black" points="444,-0.5 444,-19.5 565,-19.5 565,-0.5 444,-0.5"/>
<text text-anchor="middle" x="504.5" y="-7.5" font-family="Helvetica,sans-Serif" font-size="10.00">DynamixelBoard::action</text>
</a>
</g>
</g>
<!-- Node75&#45;&gt;Node76 -->
<g id="edge4" class="edge"><title>Node75&#45;&gt;Node76</title>
<path fill="none" stroke="midnightblue" d="M418.661,-10C427.122,-10 435.7,-10 443.988,-10"/>
<polygon fill="midnightblue" stroke="midnightblue" points="418.427,-6.5001 408.427,-10 418.427,-13.5001 418.427,-6.5001"/>
</g>
<!-- Node77 -->
<g id="node6" class="node"><title>Node77</title>
<g id="a_node6"><a xlink:href="lcd__debug_8cpp.html#ae66f6b31b5ad750f1fe042a706a4e3d4" target="_top" xlink:title="main">
<polygon fill="white" stroke="black" points="601,-0.5 601,-19.5 639,-19.5 639,-0.5 601,-0.5"/>
<text text-anchor="middle" x="620" y="-7.5" font-family="Helvetica,sans-Serif" font-size="10.00">main</text>
</a>
</g>
</g>
<!-- Node76&#45;&gt;Node77 -->
<g id="edge5" class="edge"><title>Node76&#45;&gt;Node77</title>
<path fill="none" stroke="midnightblue" d="M575.529,-10C584.874,-10 593.709,-10 600.943,-10"/>
<polygon fill="midnightblue" stroke="midnightblue" points="575.241,-6.5001 565.241,-10 575.241,-13.5001 575.241,-6.5001"/>
</g>
</g>
</svg>
