<?xml version="1.0" encoding="UTF-8" standalone="no"?>
<!DOCTYPE svg PUBLIC "-//W3C//DTD SVG 1.1//EN"
 "http://www.w3.org/Graphics/SVG/1.1/DTD/svg11.dtd">
<!-- Generated by graphviz version 2.38.0 (20140413.2041)
 -->
<!-- Title: NeoPixel::canShow Pages: 1 -->
<svg width="390pt" height="28pt"
 viewBox="0.00 0.00 390.00 28.00" xmlns="http://www.w3.org/2000/svg" xmlns:xlink="http://www.w3.org/1999/xlink">
<g id="graph0" class="graph" transform="scale(1 1) rotate(0) translate(4 24)">
<title>NeoPixel::canShow</title>
<polygon fill="white" stroke="none" points="-4,4 -4,-24 386,-24 386,4 -4,4"/>
<!-- Node21 -->
<g id="node1" class="node"><title>Node21</title>
<polygon fill="#bfbfbf" stroke="black" points="0,-0.5 0,-19.5 103,-19.5 103,-0.5 0,-0.5"/>
<text text-anchor="middle" x="51.5" y="-7.5" font-family="Helvetica,sans-Serif" font-size="10.00">NeoPixel::canShow</text>
</g>
<!-- Node22 -->
<g id="node2" class="node"><title>Node22</title>
<g id="a_node2"><a xlink:href="structNeoPixel.html#a73a8e7c435b16a785430b5f3734e3216" target="_top" xlink:title="NeoPixel::show">
<polygon fill="white" stroke="black" points="139,-0.5 139,-19.5 225,-19.5 225,-0.5 139,-0.5"/>
<text text-anchor="middle" x="182" y="-7.5" font-family="Helvetica,sans-Serif" font-size="10.00">NeoPixel::show</text>
</a>
</g>
</g>
<!-- Node21&#45;&gt;Node22 -->
<g id="edge1" class="edge"><title>Node21&#45;&gt;Node22</title>
<path fill="none" stroke="midnightblue" d="M113.343,-10C121.974,-10 130.688,-10 138.858,-10"/>
<polygon fill="midnightblue" stroke="midnightblue" points="113.287,-6.5001 103.287,-10 113.287,-13.5001 113.287,-6.5001"/>
</g>
<!-- Node23 -->
<g id="node3" class="node"><title>Node23</title>
<g id="a_node3"><a xlink:href="neo__animation_8cpp.html#af16b42fccab1fb1eaf3658e792035c42" target="_top" xlink:title="this will perform a single shift operation! ">
<polygon fill="white" stroke="black" points="261,-0.5 261,-19.5 308,-19.5 308,-0.5 261,-0.5"/>
<text text-anchor="middle" x="284.5" y="-7.5" font-family="Helvetica,sans-Serif" font-size="10.00">shiftPx</text>
</a>
</g>
</g>
<!-- Node22&#45;&gt;Node23 -->
<g id="edge2" class="edge"><title>Node22&#45;&gt;Node23</title>
<path fill="none" stroke="midnightblue" d="M235.187,-10C244.2,-10 253.129,-10 260.813,-10"/>
<polygon fill="midnightblue" stroke="midnightblue" points="235.039,-6.5001 225.039,-10 235.039,-13.5001 235.039,-6.5001"/>
</g>
<!-- Node24 -->
<g id="node4" class="node"><title>Node24</title>
<g id="a_node4"><a xlink:href="neo__animation_8cpp.html#ae66f6b31b5ad750f1fe042a706a4e3d4" target="_top" xlink:title="main">
<polygon fill="white" stroke="black" points="344,-0.5 344,-19.5 382,-19.5 382,-0.5 344,-0.5"/>
<text text-anchor="middle" x="363" y="-7.5" font-family="Helvetica,sans-Serif" font-size="10.00">main</text>
</a>
</g>
</g>
<!-- Node23&#45;&gt;Node24 -->
<g id="edge3" class="edge"><title>Node23&#45;&gt;Node24</title>
<path fill="none" stroke="midnightblue" d="M318.131,-10C326.988,-10 336.256,-10 343.98,-10"/>
<polygon fill="midnightblue" stroke="midnightblue" points="318.039,-6.5001 308.039,-10 318.039,-13.5001 318.039,-6.5001"/>
</g>
</g>
</svg>
