<?xml version="1.0" encoding="UTF-8" standalone="no"?>
<!DOCTYPE svg PUBLIC "-//W3C//DTD SVG 1.1//EN"
 "http://www.w3.org/Graphics/SVG/1.1/DTD/svg11.dtd">
<!-- Generated by graphviz version 2.38.0 (20140413.2041)
 -->
<!-- Title: RB14Scan::RB14Scan Pages: 1 -->
<svg width="211pt" height="46pt"
 viewBox="0.00 0.00 211.00 46.00" xmlns="http://www.w3.org/2000/svg" xmlns:xlink="http://www.w3.org/1999/xlink">
<g id="graph0" class="graph" transform="scale(1 1) rotate(0) translate(4 42)">
<title>RB14Scan::RB14Scan</title>
<polygon fill="white" stroke="none" points="-4,4 -4,-42 207,-42 207,4 -4,4"/>
<!-- Node1 -->
<g id="node1" class="node"><title>Node1</title>
<polygon fill="#bfbfbf" stroke="black" points="0,-0.5 0,-19.5 117,-19.5 117,-0.5 0,-0.5"/>
<text text-anchor="middle" x="58.5" y="-7.5" font-family="Helvetica,sans-Serif" font-size="10.00">RB14Scan::RB14Scan</text>
</g>
<!-- Node2 -->
<g id="node2" class="node"><title>Node2</title>
<g id="a_node2"><a xlink:href="eBoard__comment_8h.html#aca4f96af7c6736bf2b61c88d731af741" target="_top" xlink:title="read a digital state from an INPUTpin ">
<polygon fill="white" stroke="black" points="153,-0.5 153,-19.5 203,-19.5 203,-0.5 153,-0.5"/>
<text text-anchor="middle" x="178" y="-7.5" font-family="Helvetica,sans-Serif" font-size="10.00">readPin</text>
</a>
</g>
</g>
<!-- Node1&#45;&gt;Node2 -->
<g id="edge1" class="edge"><title>Node1&#45;&gt;Node2</title>
<path fill="none" stroke="midnightblue" d="M127.468,-10C136.477,-10 145.19,-10 152.73,-10"/>
<polygon fill="midnightblue" stroke="midnightblue" points="127.217,-6.5001 117.217,-10 127.217,-13.5001 127.217,-6.5001"/>
</g>
<!-- Node2&#45;&gt;Node2 -->
<g id="edge2" class="edge"><title>Node2&#45;&gt;Node2</title>
<path fill="none" stroke="midnightblue" d="M156.051,-29.0292C157.248,-34.128 164.564,-38 178,-38 198.973,-38 205.035,-28.5653 196.187,-19.7571"/>
<polygon fill="midnightblue" stroke="midnightblue" points="159.296,-30.3393 159.813,-19.7571 152.81,-27.7074 159.296,-30.3393"/>
</g>
</g>
</svg>
