<?xml version="1.0" encoding="UTF-8" standalone="no"?>
<!DOCTYPE svg PUBLIC "-//W3C//DTD SVG 1.1//EN"
 "http://www.w3.org/Graphics/SVG/1.1/DTD/svg11.dtd">
<!-- Generated by graphviz version 2.38.0 (20140413.2041)
 -->
<!-- Title: SoccerBoard::button Pages: 1 -->
<svg width="200pt" height="46pt"
 viewBox="0.00 0.00 200.00 46.00" xmlns="http://www.w3.org/2000/svg" xmlns:xlink="http://www.w3.org/1999/xlink">
<g id="graph0" class="graph" transform="scale(1 1) rotate(0) translate(4 42)">
<title>SoccerBoard::button</title>
<polygon fill="white" stroke="none" points="-4,4 -4,-42 196,-42 196,4 -4,4"/>
<!-- Node7 -->
<g id="node1" class="node"><title>Node7</title>
<polygon fill="#bfbfbf" stroke="black" points="0,-0.5 0,-19.5 106,-19.5 106,-0.5 0,-0.5"/>
<text text-anchor="middle" x="53" y="-7.5" font-family="Helvetica,sans-Serif" font-size="10.00">SoccerBoard::button</text>
</g>
<!-- Node8 -->
<g id="node2" class="node"><title>Node8</title>
<g id="a_node2"><a xlink:href="eBoard__comment_8h.html#aca4f96af7c6736bf2b61c88d731af741" target="_top" xlink:title="read a digital state from an INPUTpin ">
<polygon fill="white" stroke="black" points="142,-0.5 142,-19.5 192,-19.5 192,-0.5 142,-0.5"/>
<text text-anchor="middle" x="167" y="-7.5" font-family="Helvetica,sans-Serif" font-size="10.00">readPin</text>
</a>
</g>
</g>
<!-- Node7&#45;&gt;Node8 -->
<g id="edge1" class="edge"><title>Node7&#45;&gt;Node8</title>
<path fill="none" stroke="midnightblue" d="M116.289,-10C125.306,-10 134.102,-10 141.728,-10"/>
<polygon fill="midnightblue" stroke="midnightblue" points="116.065,-6.5001 106.065,-10 116.065,-13.5001 116.065,-6.5001"/>
</g>
<!-- Node8&#45;&gt;Node8 -->
<g id="edge2" class="edge"><title>Node8&#45;&gt;Node8</title>
<path fill="none" stroke="midnightblue" d="M145.89,-29.4C147.3,-34.3146 154.336,-38 167,-38 187.262,-38 193.119,-28.5653 184.571,-19.7571"/>
<polygon fill="midnightblue" stroke="midnightblue" points="149.269,-30.3507 149.429,-19.7571 142.698,-27.9387 149.269,-30.3507"/>
</g>
</g>
</svg>
