<?xml version="1.0" encoding="UTF-8" standalone="no"?>
<!DOCTYPE svg PUBLIC "-//W3C//DTD SVG 1.1//EN"
 "http://www.w3.org/Graphics/SVG/1.1/DTD/svg11.dtd">
<!-- Generated by graphviz version 2.38.0 (20140413.2041)
 -->
<!-- Title: AX12Servo::setPosition Pages: 1 -->
<svg width="765pt" height="85pt"
 viewBox="0.00 0.00 765.00 85.00" xmlns="http://www.w3.org/2000/svg" xmlns:xlink="http://www.w3.org/1999/xlink">
<g id="graph0" class="graph" transform="scale(1 1) rotate(0) translate(4 81)">
<title>AX12Servo::setPosition</title>
<polygon fill="white" stroke="none" points="-4,4 -4,-81 761,-81 761,4 -4,4"/>
<!-- Node36 -->
<g id="node1" class="node"><title>Node36</title>
<polygon fill="#bfbfbf" stroke="black" points="0,-38.5 0,-57.5 121,-57.5 121,-38.5 0,-38.5"/>
<text text-anchor="middle" x="60.5" y="-45.5" font-family="Helvetica,sans-Serif" font-size="10.00">AX12Servo::setPosition</text>
</g>
<!-- Node37 -->
<g id="node2" class="node"><title>Node37</title>
<g id="a_node2"><a xlink:href="structServoCds55.html#a6540f6d9023ec5e2541e76d647a2b0e2" target="_top" xlink:title="ServoCds55::setVelocity">
<polygon fill="white" stroke="black" points="157,-57.5 157,-76.5 282,-76.5 282,-57.5 157,-57.5"/>
<text text-anchor="middle" x="219.5" y="-64.5" font-family="Helvetica,sans-Serif" font-size="10.00">ServoCds55::setVelocity</text>
</a>
</g>
</g>
<!-- Node36&#45;&gt;Node37 -->
<g id="edge1" class="edge"><title>Node36&#45;&gt;Node37</title>
<path fill="none" stroke="midnightblue" d="M121.303,-55.2373C129.649,-56.2473 138.294,-57.2936 146.831,-58.3267"/>
<polygon fill="midnightblue" stroke="midnightblue" points="146.431,-61.8037 156.779,-59.5305 147.272,-54.8544 146.431,-61.8037"/>
</g>
<!-- Node38 -->
<g id="node3" class="node"><title>Node38</title>
<g id="a_node3"><a xlink:href="structServoCds55.html#ab74eb7a47800fedd7405adca0bf1e935" target="_top" xlink:title="ServoCds55::write">
<polygon fill="white" stroke="black" points="170.5,-19.5 170.5,-38.5 268.5,-38.5 268.5,-19.5 170.5,-19.5"/>
<text text-anchor="middle" x="219.5" y="-26.5" font-family="Helvetica,sans-Serif" font-size="10.00">ServoCds55::write</text>
</a>
</g>
</g>
<!-- Node36&#45;&gt;Node38 -->
<g id="edge2" class="edge"><title>Node36&#45;&gt;Node38</title>
<path fill="none" stroke="midnightblue" d="M121.303,-40.7627C134.021,-39.2236 147.434,-37.6003 160.099,-36.0676"/>
<polygon fill="midnightblue" stroke="midnightblue" points="160.562,-39.5373 170.069,-34.8611 159.72,-32.588 160.562,-39.5373"/>
</g>
<!-- Node39 -->
<g id="node4" class="node"><title>Node39</title>
<g id="a_node4"><a xlink:href="structServoCds55.html#a5d77d36691d8a0fab7cf841a4feef530" target="_top" xlink:title="ServoCds55::SetServoLimit">
<polygon fill="white" stroke="black" points="318,-38.5 318,-57.5 456,-57.5 456,-38.5 318,-38.5"/>
<text text-anchor="middle" x="387" y="-45.5" font-family="Helvetica,sans-Serif" font-size="10.00">ServoCds55::SetServoLimit</text>
</a>
</g>
</g>
<!-- Node38&#45;&gt;Node39 -->
<g id="edge3" class="edge"><title>Node38&#45;&gt;Node39</title>
<path fill="none" stroke="midnightblue" d="M268.814,-34.5467C281.055,-35.9519 294.519,-37.4977 307.825,-39.0253"/>
<polygon fill="midnightblue" stroke="midnightblue" points="307.613,-42.5238 317.947,-40.1873 308.411,-35.5695 307.613,-42.5238"/>
</g>
<!-- Node42 -->
<g id="node7" class="node"><title>Node42</title>
<g id="a_node7"><a xlink:href="structServoCds55.html#a78620c3a9f22c9a37449ba01c5bd08f3" target="_top" xlink:title="ServoCds55::WritePos">
<polygon fill="white" stroke="black" points="328.5,-0.5 328.5,-19.5 445.5,-19.5 445.5,-0.5 328.5,-0.5"/>
<text text-anchor="middle" x="387" y="-7.5" font-family="Helvetica,sans-Serif" font-size="10.00">ServoCds55::WritePos</text>
</a>
</g>
</g>
<!-- Node38&#45;&gt;Node42 -->
<g id="edge6" class="edge"><title>Node38&#45;&gt;Node42</title>
<path fill="none" stroke="midnightblue" d="M268.814,-23.4533C284.221,-21.6845 301.567,-19.6932 318.096,-17.7957"/>
<polygon fill="midnightblue" stroke="midnightblue" points="318.721,-21.2469 328.257,-16.6291 317.923,-14.2926 318.721,-21.2469"/>
</g>
<!-- Node40 -->
<g id="node5" class="node"><title>Node40</title>
<g id="a_node5"><a xlink:href="structServoCds55.html#a0ddbf204d991dae881cc22b8985efee3" target="_top" xlink:title="ServoCds55::sendWait">
<polygon fill="white" stroke="black" points="492,-19.5 492,-38.5 610,-38.5 610,-19.5 492,-19.5"/>
<text text-anchor="middle" x="551" y="-26.5" font-family="Helvetica,sans-Serif" font-size="10.00">ServoCds55::sendWait</text>
</a>
</g>
</g>
<!-- Node39&#45;&gt;Node40 -->
<g id="edge4" class="edge"><title>Node39&#45;&gt;Node40</title>
<path fill="none" stroke="midnightblue" d="M456.233,-39.9974C464.655,-39.0096 473.266,-37.9996 481.69,-37.0117"/>
<polygon fill="midnightblue" stroke="midnightblue" points="482.322,-40.4617 491.846,-35.8205 481.506,-33.5093 482.322,-40.4617"/>
</g>
<!-- Node41 -->
<g id="node6" class="node"><title>Node41</title>
<g id="a_node6"><a xlink:href="structeagle__impl_1_1SPIClass.html#a821dccd5dda20ccd9093fc35cce74ae5" target="_top" xlink:title="eagle_impl::SPIClass\l::transfer">
<polygon fill="white" stroke="black" points="646,-14 646,-44 757,-44 757,-14 646,-14"/>
<text text-anchor="start" x="654" y="-32" font-family="Helvetica,sans-Serif" font-size="10.00">eagle_impl::SPIClass</text>
<text text-anchor="middle" x="701.5" y="-21" font-family="Helvetica,sans-Serif" font-size="10.00">::transfer</text>
</a>
</g>
</g>
<!-- Node40&#45;&gt;Node41 -->
<g id="edge5" class="edge"><title>Node40&#45;&gt;Node41</title>
<path fill="none" stroke="midnightblue" d="M610.265,-29C618.584,-29 627.183,-29 635.619,-29"/>
<polygon fill="midnightblue" stroke="midnightblue" points="635.797,-32.5001 645.797,-29 635.797,-25.5001 635.797,-32.5001"/>
</g>
<!-- Node42&#45;&gt;Node40 -->
<g id="edge7" class="edge"><title>Node42&#45;&gt;Node40</title>
<path fill="none" stroke="midnightblue" d="M445.571,-16.7522C457.295,-18.1271 469.734,-19.5861 481.786,-20.9996"/>
<polygon fill="midnightblue" stroke="midnightblue" points="481.455,-24.4847 491.795,-22.1735 482.271,-17.5324 481.455,-24.4847"/>
</g>
</g>
</svg>
