<?xml version="1.0" encoding="UTF-8" standalone="no"?>
<!DOCTYPE svg PUBLIC "-//W3C//DTD SVG 1.1//EN"
 "http://www.w3.org/Graphics/SVG/1.1/DTD/svg11.dtd">
<!-- Generated by graphviz version 2.38.0 (20140413.2041)
 -->
<!-- Title: eagle_impl::SPIClass::transfer Pages: 1 -->
<svg width="974pt" height="199pt"
 viewBox="0.00 0.00 974.00 199.00" xmlns="http://www.w3.org/2000/svg" xmlns:xlink="http://www.w3.org/1999/xlink">
<g id="graph0" class="graph" transform="scale(1 1) rotate(0) translate(4 195)">
<title>eagle_impl::SPIClass::transfer</title>
<polygon fill="white" stroke="none" points="-4,4 -4,-195 970,-195 970,4 -4,4"/>
<!-- Node33 -->
<g id="node1" class="node"><title>Node33</title>
<polygon fill="#bfbfbf" stroke="black" points="0,-90 0,-120 111,-120 111,-90 0,-90"/>
<text text-anchor="start" x="8" y="-108" font-family="Helvetica,sans-Serif" font-size="10.00">eagle_impl::SPIClass</text>
<text text-anchor="middle" x="55.5" y="-97" font-family="Helvetica,sans-Serif" font-size="10.00">::transfer</text>
</g>
<!-- Node34 -->
<g id="node2" class="node"><title>Node34</title>
<g id="a_node2"><a xlink:href="structServoCds55.html#a0ddbf204d991dae881cc22b8985efee3" target="_top" xlink:title="ServoCds55::sendWait">
<polygon fill="white" stroke="black" points="147,-95.5 147,-114.5 265,-114.5 265,-95.5 147,-95.5"/>
<text text-anchor="middle" x="206" y="-102.5" font-family="Helvetica,sans-Serif" font-size="10.00">ServoCds55::sendWait</text>
</a>
</g>
</g>
<!-- Node33&#45;&gt;Node34 -->
<g id="edge1" class="edge"><title>Node33&#45;&gt;Node34</title>
<path fill="none" stroke="midnightblue" d="M121.544,-105C129.971,-105 138.559,-105 146.865,-105"/>
<polygon fill="midnightblue" stroke="midnightblue" points="121.374,-101.5 111.374,-105 121.374,-108.5 121.374,-101.5"/>
</g>
<!-- Node35 -->
<g id="node3" class="node"><title>Node35</title>
<g id="a_node3"><a xlink:href="structServoCds55.html#aaa6a4ae05352b293318fd1c6c7d45c0a" target="_top" xlink:title="ServoCds55::Reset">
<polygon fill="white" stroke="black" points="319.5,-171.5 319.5,-190.5 422.5,-190.5 422.5,-171.5 319.5,-171.5"/>
<text text-anchor="middle" x="371" y="-178.5" font-family="Helvetica,sans-Serif" font-size="10.00">ServoCds55::Reset</text>
</a>
</g>
</g>
<!-- Node34&#45;&gt;Node35 -->
<g id="edge2" class="edge"><title>Node34&#45;&gt;Node35</title>
<path fill="none" stroke="midnightblue" d="M228.336,-120.298C246.811,-132.956 274.641,-150.64 301,-162 309.558,-165.688 319.024,-168.846 328.131,-171.468"/>
<polygon fill="midnightblue" stroke="midnightblue" points="230.271,-117.381 220.065,-114.538 226.27,-123.125 230.271,-117.381"/>
</g>
<!-- Node36 -->
<g id="node4" class="node"><title>Node36</title>
<g id="a_node4"><a xlink:href="structServoCds55.html#a4424d857bb52e7a6e3527209cc83d244" target="_top" xlink:title="ServoCds55::SetID">
<polygon fill="white" stroke="black" points="320,-133.5 320,-152.5 422,-152.5 422,-133.5 320,-133.5"/>
<text text-anchor="middle" x="371" y="-140.5" font-family="Helvetica,sans-Serif" font-size="10.00">ServoCds55::SetID</text>
</a>
</g>
</g>
<!-- Node34&#45;&gt;Node36 -->
<g id="edge3" class="edge"><title>Node34&#45;&gt;Node36</title>
<path fill="none" stroke="midnightblue" d="M258.028,-116.896C280.939,-122.237 307.604,-128.454 329.164,-133.48"/>
<polygon fill="midnightblue" stroke="midnightblue" points="258.665,-113.451 248.132,-114.589 257.076,-120.268 258.665,-113.451"/>
</g>
<!-- Node37 -->
<g id="node5" class="node"><title>Node37</title>
<g id="a_node5"><a xlink:href="structServoCds55.html#ab9e5ab857983d3c0d1eaf43f60c53285" target="_top" xlink:title="ServoCds55::SetMotormode">
<polygon fill="white" stroke="black" points="301,-95.5 301,-114.5 441,-114.5 441,-95.5 301,-95.5"/>
<text text-anchor="middle" x="371" y="-102.5" font-family="Helvetica,sans-Serif" font-size="10.00">ServoCds55::SetMotormode</text>
</a>
</g>
</g>
<!-- Node34&#45;&gt;Node37 -->
<g id="edge4" class="edge"><title>Node34&#45;&gt;Node37</title>
<path fill="none" stroke="midnightblue" d="M275.511,-105C283.909,-105 292.495,-105 300.901,-105"/>
<polygon fill="midnightblue" stroke="midnightblue" points="275.386,-101.5 265.386,-105 275.386,-108.5 275.386,-101.5"/>
</g>
<!-- Node39 -->
<g id="node7" class="node"><title>Node39</title>
<g id="a_node7"><a xlink:href="structServoCds55.html#a5d77d36691d8a0fab7cf841a4feef530" target="_top" xlink:title="ServoCds55::SetServoLimit">
<polygon fill="white" stroke="black" points="302,-57.5 302,-76.5 440,-76.5 440,-57.5 302,-57.5"/>
<text text-anchor="middle" x="371" y="-64.5" font-family="Helvetica,sans-Serif" font-size="10.00">ServoCds55::SetServoLimit</text>
</a>
</g>
</g>
<!-- Node34&#45;&gt;Node39 -->
<g id="edge6" class="edge"><title>Node34&#45;&gt;Node39</title>
<path fill="none" stroke="midnightblue" d="M258.028,-93.1039C280.939,-87.7626 307.604,-81.5463 329.164,-76.5201"/>
<polygon fill="midnightblue" stroke="midnightblue" points="257.076,-89.7319 248.132,-95.411 258.665,-96.5491 257.076,-89.7319"/>
</g>
<!-- Node46 -->
<g id="node14" class="node"><title>Node46</title>
<g id="a_node14"><a xlink:href="structServoCds55.html#a78620c3a9f22c9a37449ba01c5bd08f3" target="_top" xlink:title="ServoCds55::WritePos">
<polygon fill="white" stroke="black" points="312.5,-19.5 312.5,-38.5 429.5,-38.5 429.5,-19.5 312.5,-19.5"/>
<text text-anchor="middle" x="371" y="-26.5" font-family="Helvetica,sans-Serif" font-size="10.00">ServoCds55::WritePos</text>
</a>
</g>
</g>
<!-- Node34&#45;&gt;Node46 -->
<g id="edge14" class="edge"><title>Node34&#45;&gt;Node46</title>
<path fill="none" stroke="midnightblue" d="M228.336,-89.7015C246.811,-77.0439 274.641,-59.3595 301,-48 309.558,-44.312 319.024,-41.1541 328.131,-38.5323"/>
<polygon fill="midnightblue" stroke="midnightblue" points="226.27,-86.8746 220.065,-95.4618 230.271,-92.6189 226.27,-86.8746"/>
</g>
<!-- Node38 -->
<g id="node6" class="node"><title>Node38</title>
<g id="a_node6"><a xlink:href="structServoCds55.html#a3d2a551e816185d455adb5b1add148f9" target="_top" xlink:title="ServoCds55::rotate">
<polygon fill="white" stroke="black" points="477,-95.5 477,-114.5 578,-114.5 578,-95.5 477,-95.5"/>
<text text-anchor="middle" x="527.5" y="-102.5" font-family="Helvetica,sans-Serif" font-size="10.00">ServoCds55::rotate</text>
</a>
</g>
</g>
<!-- Node37&#45;&gt;Node38 -->
<g id="edge5" class="edge"><title>Node37&#45;&gt;Node38</title>
<path fill="none" stroke="midnightblue" d="M451.321,-105C460.024,-105 468.691,-105 476.881,-105"/>
<polygon fill="midnightblue" stroke="midnightblue" points="451.116,-101.5 441.116,-105 451.116,-108.5 451.116,-101.5"/>
</g>
<!-- Node39&#45;&gt;Node38 -->
<g id="edge7" class="edge"><title>Node39&#45;&gt;Node38</title>
<path fill="none" stroke="midnightblue" d="M420.952,-79.04C442.536,-84.3488 467.541,-90.4988 487.793,-95.4799"/>
<polygon fill="midnightblue" stroke="midnightblue" points="421.533,-75.5787 410.987,-76.589 419.862,-82.3762 421.533,-75.5787"/>
</g>
<!-- Node40 -->
<g id="node8" class="node"><title>Node40</title>
<g id="a_node8"><a xlink:href="structAX12Servo.html#a9830f46998b838d3558aaf5245c7960a" target="_top" xlink:title="AX12Servo::setID">
<polygon fill="white" stroke="black" points="479.5,-57.5 479.5,-76.5 575.5,-76.5 575.5,-57.5 479.5,-57.5"/>
<text text-anchor="middle" x="527.5" y="-64.5" font-family="Helvetica,sans-Serif" font-size="10.00">AX12Servo::setID</text>
</a>
</g>
</g>
<!-- Node39&#45;&gt;Node40 -->
<g id="edge8" class="edge"><title>Node39&#45;&gt;Node40</title>
<path fill="none" stroke="midnightblue" d="M450.514,-67C460.412,-67 470.283,-67 479.476,-67"/>
<polygon fill="midnightblue" stroke="midnightblue" points="450.216,-63.5001 440.216,-67 450.216,-70.5001 450.216,-63.5001"/>
</g>
<!-- Node41 -->
<g id="node9" class="node"><title>Node41</title>
<g id="a_node9"><a xlink:href="structServoCds55.html#ab74eb7a47800fedd7405adca0bf1e935" target="_top" xlink:title="ServoCds55::write">
<polygon fill="white" stroke="black" points="478.5,-19.5 478.5,-38.5 576.5,-38.5 576.5,-19.5 478.5,-19.5"/>
<text text-anchor="middle" x="527.5" y="-26.5" font-family="Helvetica,sans-Serif" font-size="10.00">ServoCds55::write</text>
</a>
</g>
</g>
<!-- Node39&#45;&gt;Node41 -->
<g id="edge9" class="edge"><title>Node39&#45;&gt;Node41</title>
<path fill="none" stroke="midnightblue" d="M420.952,-54.96C442.536,-49.6512 467.541,-43.5012 487.793,-38.5201"/>
<polygon fill="midnightblue" stroke="midnightblue" points="419.862,-51.6238 410.987,-57.411 421.533,-58.4213 419.862,-51.6238"/>
</g>
<!-- Node42 -->
<g id="node10" class="node"><title>Node42</title>
<g id="a_node10"><a xlink:href="structSoccerBoard.html#a5039fee586408ce515f300d8db073818" target="_top" xlink:title="SoccerBoard::motor">
<polygon fill="white" stroke="black" points="622.5,-38.5 622.5,-57.5 726.5,-57.5 726.5,-38.5 622.5,-38.5"/>
<text text-anchor="middle" x="674.5" y="-45.5" font-family="Helvetica,sans-Serif" font-size="10.00">SoccerBoard::motor</text>
</a>
</g>
</g>
<!-- Node41&#45;&gt;Node42 -->
<g id="edge10" class="edge"><title>Node41&#45;&gt;Node42</title>
<path fill="none" stroke="midnightblue" d="M586.947,-36.6586C598.701,-38.1988 610.967,-39.8061 622.445,-41.3101"/>
<polygon fill="midnightblue" stroke="midnightblue" points="587.153,-33.1557 576.783,-35.3267 586.243,-40.0964 587.153,-33.1557"/>
</g>
<!-- Node43 -->
<g id="node11" class="node"><title>Node43</title>
<g id="a_node11"><a xlink:href="structAX12Servo.html#ae6005da90335d13c253a246edb247178" target="_top" xlink:title="AX12Servo::setPosition">
<polygon fill="white" stroke="black" points="614,-0.5 614,-19.5 735,-19.5 735,-0.5 614,-0.5"/>
<text text-anchor="middle" x="674.5" y="-7.5" font-family="Helvetica,sans-Serif" font-size="10.00">AX12Servo::setPosition</text>
</a>
</g>
</g>
<!-- Node41&#45;&gt;Node43 -->
<g id="edge11" class="edge"><title>Node41&#45;&gt;Node43</title>
<path fill="none" stroke="midnightblue" d="M586.703,-21.3734C595.63,-20.2036 604.858,-18.9944 613.817,-17.8206"/>
<polygon fill="midnightblue" stroke="midnightblue" points="586.243,-17.9036 576.783,-22.6733 587.153,-24.8443 586.243,-17.9036"/>
</g>
<!-- Node44 -->
<g id="node12" class="node"><title>Node44</title>
<g id="a_node12"><a xlink:href="structDynamixelBoard.html#a9b6d6166eaa2c42e87f424b54edce510" target="_top" xlink:title="DynamixelBoard::action">
<polygon fill="white" stroke="black" points="771,-0.5 771,-19.5 892,-19.5 892,-0.5 771,-0.5"/>
<text text-anchor="middle" x="831.5" y="-7.5" font-family="Helvetica,sans-Serif" font-size="10.00">DynamixelBoard::action</text>
</a>
</g>
</g>
<!-- Node43&#45;&gt;Node44 -->
<g id="edge12" class="edge"><title>Node43&#45;&gt;Node44</title>
<path fill="none" stroke="midnightblue" d="M745.661,-10C754.122,-10 762.7,-10 770.988,-10"/>
<polygon fill="midnightblue" stroke="midnightblue" points="745.427,-6.5001 735.427,-10 745.427,-13.5001 745.427,-6.5001"/>
</g>
<!-- Node45 -->
<g id="node13" class="node"><title>Node45</title>
<g id="a_node13"><a xlink:href="lcd__debug_8cpp.html#ae66f6b31b5ad750f1fe042a706a4e3d4" target="_top" xlink:title="main">
<polygon fill="white" stroke="black" points="928,-0.5 928,-19.5 966,-19.5 966,-0.5 928,-0.5"/>
<text text-anchor="middle" x="947" y="-7.5" font-family="Helvetica,sans-Serif" font-size="10.00">main</text>
</a>
</g>
</g>
<!-- Node44&#45;&gt;Node45 -->
<g id="edge13" class="edge"><title>Node44&#45;&gt;Node45</title>
<path fill="none" stroke="midnightblue" d="M902.529,-10C911.874,-10 920.709,-10 927.943,-10"/>
<polygon fill="midnightblue" stroke="midnightblue" points="902.241,-6.5001 892.241,-10 902.241,-13.5001 902.241,-6.5001"/>
</g>
<!-- Node46&#45;&gt;Node41 -->
<g id="edge15" class="edge"><title>Node46&#45;&gt;Node41</title>
<path fill="none" stroke="midnightblue" d="M439.761,-29C452.648,-29 465.894,-29 478.033,-29"/>
<polygon fill="midnightblue" stroke="midnightblue" points="439.53,-25.5001 429.53,-29 439.53,-32.5001 439.53,-25.5001"/>
</g>
</g>
</svg>
