<?xml version="1.0" encoding="UTF-8" standalone="no"?>
<!DOCTYPE svg PUBLIC "-//W3C//DTD SVG 1.1//EN"
 "http://www.w3.org/Graphics/SVG/1.1/DTD/svg11.dtd">
<!-- Generated by graphviz version 2.38.0 (20140413.2041)
 -->
<!-- Title: SoccerBoard::ledsOff Pages: 1 -->
<svg width="396pt" height="117pt"
 viewBox="0.00 0.00 396.00 117.23" xmlns="http://www.w3.org/2000/svg" xmlns:xlink="http://www.w3.org/1999/xlink">
<g id="graph0" class="graph" transform="scale(1 1) rotate(0) translate(4 113.226)">
<title>SoccerBoard::ledsOff</title>
<polygon fill="white" stroke="none" points="-4,4 -4,-113.226 392,-113.226 392,4 -4,4"/>
<!-- Node64 -->
<g id="node1" class="node"><title>Node64</title>
<polygon fill="#bfbfbf" stroke="black" points="0,-57.5 0,-76.5 110,-76.5 110,-57.5 0,-57.5"/>
<text text-anchor="middle" x="55" y="-64.5" font-family="Helvetica,sans-Serif" font-size="10.00">SoccerBoard::ledsOff</text>
</g>
<!-- Node65 -->
<g id="node2" class="node"><title>Node65</title>
<g id="a_node2"><a xlink:href="eBoard_8h.html#ad6d4c1b1e3b495ed81fb28fac04d2bd6" target="_top" xlink:title="write a boolean state to an output pin ">
<polygon fill="white" stroke="black" points="146,-57.5 146,-76.5 198,-76.5 198,-57.5 146,-57.5"/>
<text text-anchor="middle" x="172" y="-64.5" font-family="Helvetica,sans-Serif" font-size="10.00">writePin</text>
</a>
</g>
</g>
<!-- Node64&#45;&gt;Node65 -->
<g id="edge1" class="edge"><title>Node64&#45;&gt;Node65</title>
<path fill="none" stroke="midnightblue" d="M110.133,-67C118.801,-67 127.572,-67 135.653,-67"/>
<polygon fill="midnightblue" stroke="midnightblue" points="135.814,-70.5001 145.814,-67 135.814,-63.5001 135.814,-70.5001"/>
</g>
<!-- Node66 -->
<g id="node3" class="node"><title>Node66</title>
<g id="a_node3"><a xlink:href="eBoard_8h.html#a757015d50a6c57414603841f728b670b" target="_top" xlink:title="[DEBUG_MODE] used to check if a pin index is in bounds ">
<polygon fill="white" stroke="black" points="332,-76.5 332,-95.5 388,-95.5 388,-76.5 332,-76.5"/>
<text text-anchor="middle" x="360" y="-83.5" font-family="Helvetica,sans-Serif" font-size="10.00">checkIdx</text>
</a>
</g>
</g>
<!-- Node65&#45;&gt;Node66 -->
<g id="edge2" class="edge"><title>Node65&#45;&gt;Node66</title>
<path fill="none" stroke="midnightblue" d="M184.203,-76.7076C195.777,-86.0392 214.806,-99.5106 234,-105 264.369,-113.685 300.092,-106.603 325.555,-98.7356"/>
<polygon fill="midnightblue" stroke="midnightblue" points="326.707,-102.041 335.116,-95.5959 324.523,-95.3906 326.707,-102.041"/>
</g>
<!-- Node67 -->
<g id="node4" class="node"><title>Node67</title>
<g id="a_node4"><a xlink:href="eBoard_8h.html#a06400a6dce24e4eda610644893c1bbd7" target="_top" xlink:title="[COPY&amp;PASTE] [CHECK_PINS] Check if a pin is set to a specific mode ">
<polygon fill="white" stroke="black" points="236.5,-76.5 236.5,-95.5 293.5,-95.5 293.5,-76.5 236.5,-76.5"/>
<text text-anchor="middle" x="265" y="-83.5" font-family="Helvetica,sans-Serif" font-size="10.00">checkPin</text>
</a>
</g>
</g>
<!-- Node65&#45;&gt;Node67 -->
<g id="edge3" class="edge"><title>Node65&#45;&gt;Node67</title>
<path fill="none" stroke="midnightblue" d="M198.349,-72.2926C207,-74.0988 216.869,-76.1594 226.28,-78.1244"/>
<polygon fill="midnightblue" stroke="midnightblue" points="225.729,-81.5848 236.234,-80.2026 227.16,-74.7326 225.729,-81.5848"/>
</g>
<!-- Node68 -->
<g id="node5" class="node"><title>Node68</title>
<g id="a_node5"><a xlink:href="eBoard_8h.html#a78b0e873cb50c282c6243d4913406be4" target="_top" xlink:title="[COPY&amp;PASTE] set a pin to a certain mode =&gt; checkPin() will return true then ">
<polygon fill="white" stroke="black" points="243,-38.5 243,-57.5 287,-57.5 287,-38.5 243,-38.5"/>
<text text-anchor="middle" x="265" y="-45.5" font-family="Helvetica,sans-Serif" font-size="10.00">setPin</text>
</a>
</g>
</g>
<!-- Node65&#45;&gt;Node68 -->
<g id="edge5" class="edge"><title>Node65&#45;&gt;Node68</title>
<path fill="none" stroke="midnightblue" d="M198.349,-61.7074C209.059,-59.4712 221.636,-56.8452 232.9,-54.4933"/>
<polygon fill="midnightblue" stroke="midnightblue" points="233.711,-57.8996 242.785,-52.4296 232.28,-51.0474 233.711,-57.8996"/>
</g>
<!-- Node69 -->
<g id="node6" class="node"><title>Node69</title>
<g id="a_node6"><a xlink:href="eBoard_8h.html#ad6372ab439a73887b0800cc695599436" target="_top" xlink:title="[SHIFT] Changes a single output Pin ">
<polygon fill="white" stroke="black" points="234,-0.5 234,-19.5 296,-19.5 296,-0.5 234,-0.5"/>
<text text-anchor="middle" x="265" y="-7.5" font-family="Helvetica,sans-Serif" font-size="10.00">shiftSingle</text>
</a>
</g>
</g>
<!-- Node65&#45;&gt;Node69 -->
<g id="edge7" class="edge"><title>Node65&#45;&gt;Node69</title>
<path fill="none" stroke="midnightblue" d="M188.437,-57.3307C202.642,-48.4333 223.922,-35.1038 240.284,-24.8554"/>
<polygon fill="midnightblue" stroke="midnightblue" points="242.174,-27.801 248.791,-19.5265 238.458,-21.8687 242.174,-27.801"/>
</g>
<!-- Node67&#45;&gt;Node66 -->
<g id="edge4" class="edge"><title>Node67&#45;&gt;Node66</title>
<path fill="none" stroke="midnightblue" d="M293.651,-86C302.443,-86 312.317,-86 321.675,-86"/>
<polygon fill="midnightblue" stroke="midnightblue" points="321.936,-89.5001 331.936,-86 321.936,-82.5001 321.936,-89.5001"/>
</g>
<!-- Node68&#45;&gt;Node66 -->
<g id="edge6" class="edge"><title>Node68&#45;&gt;Node66</title>
<path fill="none" stroke="midnightblue" d="M287.103,-56.6228C298.634,-61.3342 313.17,-67.2736 326.149,-72.577"/>
<polygon fill="midnightblue" stroke="midnightblue" points="325.114,-75.9351 335.695,-76.4777 327.762,-69.4552 325.114,-75.9351"/>
</g>
<!-- Node70 -->
<g id="node7" class="node"><title>Node70</title>
<g id="a_node7"><a xlink:href="eBoard_8h.html#aa0a7f697a49b0d038631c64e945f5c1a" target="_top" xlink:title="[SHIFT] Changes bits according to store_bits ">
<polygon fill="white" stroke="black" points="336.5,-0.5 336.5,-19.5 383.5,-19.5 383.5,-0.5 336.5,-0.5"/>
<text text-anchor="middle" x="360" y="-7.5" font-family="Helvetica,sans-Serif" font-size="10.00">shiftAll</text>
</a>
</g>
</g>
<!-- Node69&#45;&gt;Node70 -->
<g id="edge8" class="edge"><title>Node69&#45;&gt;Node70</title>
<path fill="none" stroke="midnightblue" d="M296.194,-10C305.776,-10 316.415,-10 326.173,-10"/>
<polygon fill="midnightblue" stroke="midnightblue" points="326.323,-13.5001 336.323,-10 326.323,-6.5001 326.323,-13.5001"/>
</g>
</g>
</svg>
