<?xml version="1.0" encoding="UTF-8" standalone="no"?>
<!DOCTYPE svg PUBLIC "-//W3C//DTD SVG 1.1//EN"
 "http://www.w3.org/Graphics/SVG/1.1/DTD/svg11.dtd">
<!-- Generated by graphviz version 2.38.0 (20140413.2041)
 -->
<!-- Title: SoccerBoard::powerOn Pages: 1 -->
<svg width="212pt" height="46pt"
 viewBox="0.00 0.00 212.00 46.00" xmlns="http://www.w3.org/2000/svg" xmlns:xlink="http://www.w3.org/1999/xlink">
<g id="graph0" class="graph" transform="scale(1 1) rotate(0) translate(4 42)">
<title>SoccerBoard::powerOn</title>
<polygon fill="white" stroke="none" points="-4,4 -4,-42 208,-42 208,4 -4,4"/>
<!-- Node44 -->
<g id="node1" class="node"><title>Node44</title>
<polygon fill="#bfbfbf" stroke="black" points="0,-0.5 0,-19.5 118,-19.5 118,-0.5 0,-0.5"/>
<text text-anchor="middle" x="59" y="-7.5" font-family="Helvetica,sans-Serif" font-size="10.00">SoccerBoard::powerOn</text>
</g>
<!-- Node45 -->
<g id="node2" class="node"><title>Node45</title>
<g id="a_node2"><a xlink:href="eBoard__comment_8h.html#aca4f96af7c6736bf2b61c88d731af741" target="_top" xlink:title="read a digital state from an INPUTpin ">
<polygon fill="white" stroke="black" points="154,-0.5 154,-19.5 204,-19.5 204,-0.5 154,-0.5"/>
<text text-anchor="middle" x="179" y="-7.5" font-family="Helvetica,sans-Serif" font-size="10.00">readPin</text>
</a>
</g>
</g>
<!-- Node44&#45;&gt;Node45 -->
<g id="edge1" class="edge"><title>Node44&#45;&gt;Node45</title>
<path fill="none" stroke="midnightblue" d="M128.56,-10C137.566,-10 146.266,-10 153.792,-10"/>
<polygon fill="midnightblue" stroke="midnightblue" points="128.309,-6.5001 118.309,-10 128.309,-13.5001 128.309,-6.5001"/>
</g>
<!-- Node45&#45;&gt;Node45 -->
<g id="edge2" class="edge"><title>Node45&#45;&gt;Node45</title>
<path fill="none" stroke="midnightblue" d="M156.679,-29.0292C157.896,-34.128 165.337,-38 179,-38 200.328,-38 206.493,-28.5653 197.495,-19.7571"/>
<polygon fill="midnightblue" stroke="midnightblue" points="159.926,-30.3361 160.505,-19.7571 153.455,-27.6661 159.926,-30.3361"/>
</g>
</g>
</svg>
