<?xml version="1.0" encoding="UTF-8" standalone="no"?>
<!DOCTYPE svg PUBLIC "-//W3C//DTD SVG 1.1//EN"
 "http://www.w3.org/Graphics/SVG/1.1/DTD/svg11.dtd">
<!-- Generated by graphviz version 2.38.0 (20140413.2041)
 -->
<!-- Title: LCD::clear Pages: 1 -->
<svg width="818pt" height="601pt"
 viewBox="0.00 0.00 818.00 601.00" xmlns="http://www.w3.org/2000/svg" xmlns:xlink="http://www.w3.org/1999/xlink">
<g id="graph0" class="graph" transform="scale(1 1) rotate(0) translate(4 597)">
<title>LCD::clear</title>
<polygon fill="white" stroke="none" points="-4,4 -4,-597 814,-597 814,4 -4,4"/>
<!-- Node130 -->
<g id="node1" class="node"><title>Node130</title>
<polygon fill="#bfbfbf" stroke="black" points="0,-114.5 0,-133.5 64,-133.5 64,-114.5 0,-114.5"/>
<text text-anchor="middle" x="32" y="-121.5" font-family="Helvetica,sans-Serif" font-size="10.00">LCD::clear</text>
</g>
<!-- Node131 -->
<g id="node2" class="node"><title>Node131</title>
<g id="a_node2"><a xlink:href="structLCD.html#a632d9c641930fe16c0b623b82136196e" target="_top" xlink:title="LCD::init">
<polygon fill="white" stroke="black" points="104.5,-341.5 104.5,-360.5 160.5,-360.5 160.5,-341.5 104.5,-341.5"/>
<text text-anchor="middle" x="132.5" y="-348.5" font-family="Helvetica,sans-Serif" font-size="10.00">LCD::init</text>
</a>
</g>
</g>
<!-- Node130&#45;&gt;Node131 -->
<g id="edge1" class="edge"><title>Node130&#45;&gt;Node131</title>
<path fill="none" stroke="midnightblue" d="M42.9771,-142.719C64.6775,-188.936 115.27,-306.094 128.362,-341.19"/>
<polygon fill="midnightblue" stroke="midnightblue" points="46.0487,-141.029 38.578,-133.517 39.7332,-144.048 46.0487,-141.029"/>
</g>
<!-- Node145 -->
<g id="node16" class="node"><title>Node145</title>
<g id="a_node16"><a xlink:href="lcd__debug_8cpp.html#ae66f6b31b5ad750f1fe042a706a4e3d4" target="_top" xlink:title="main">
<polygon fill="white" stroke="black" points="113.5,-38.5 113.5,-57.5 151.5,-57.5 151.5,-38.5 113.5,-38.5"/>
<text text-anchor="middle" x="132.5" y="-45.5" font-family="Helvetica,sans-Serif" font-size="10.00">main</text>
</a>
</g>
</g>
<!-- Node130&#45;&gt;Node145 -->
<g id="edge33" class="edge"><title>Node130&#45;&gt;Node145</title>
<path fill="none" stroke="midnightblue" d="M53.3324,-108.144C66.5956,-97.8195 84.2973,-84.0752 100,-72 106.213,-67.2222 113.139,-61.9404 118.911,-57.5508"/>
<polygon fill="midnightblue" stroke="midnightblue" points="51.0613,-105.476 45.3231,-114.383 55.363,-110.999 51.0613,-105.476"/>
</g>
<!-- Node146 -->
<g id="node17" class="node"><title>Node146</title>
<g id="a_node17"><a xlink:href="structLCD.html#a7912ad9a12d649cdec2dd53ae893a8ce" target="_top" xlink:title="LCD::reset">
<polygon fill="white" stroke="black" points="100,-0.5 100,-19.5 165,-19.5 165,-0.5 100,-0.5"/>
<text text-anchor="middle" x="132.5" y="-7.5" font-family="Helvetica,sans-Serif" font-size="10.00">LCD::reset</text>
</a>
</g>
</g>
<!-- Node130&#45;&gt;Node146 -->
<g id="edge34" class="edge"><title>Node130&#45;&gt;Node146</title>
<path fill="none" stroke="midnightblue" d="M42.9577,-105.443C54.6222,-84.9395 75.4993,-51.8087 100,-29 103.74,-25.5187 108.218,-22.3577 112.609,-19.6568"/>
<polygon fill="midnightblue" stroke="midnightblue" points="39.7833,-103.951 37.996,-114.394 45.9055,-107.345 39.7833,-103.951"/>
</g>
<!-- Node131&#45;&gt;Node130 -->
<g id="edge3" class="edge"><title>Node131&#45;&gt;Node130</title>
<path fill="none" stroke="midnightblue" d="M121.471,-332.171C99.6968,-285.782 49.007,-168.385 36.0559,-133.59"/>
<polygon fill="midnightblue" stroke="midnightblue" points="118.417,-333.898 125.887,-341.412 124.733,-330.88 118.417,-333.898"/>
</g>
<!-- Node132 -->
<g id="node3" class="node"><title>Node132</title>
<g id="a_node3"><a xlink:href="structLCD.html#aa5e25fef7649532af402df06f05b6d4c" target="_top" xlink:title="LCD::changeID">
<polygon fill="white" stroke="black" points="201,-322.5 201,-341.5 286,-341.5 286,-322.5 201,-322.5"/>
<text text-anchor="middle" x="243.5" y="-329.5" font-family="Helvetica,sans-Serif" font-size="10.00">LCD::changeID</text>
</a>
</g>
</g>
<!-- Node131&#45;&gt;Node132 -->
<g id="edge2" class="edge"><title>Node131&#45;&gt;Node132</title>
<path fill="none" stroke="midnightblue" d="M170.818,-344.495C180.471,-342.812 190.925,-340.99 200.786,-339.271"/>
<polygon fill="midnightblue" stroke="midnightblue" points="169.975,-341.089 160.724,-346.255 171.177,-347.985 169.975,-341.089"/>
</g>
<!-- Node133 -->
<g id="node4" class="node"><title>Node133</title>
<g id="a_node4"><a xlink:href="structLCD.html#ab1b68d883d80dc7b8810e602b7032767" target="_top" xlink:title="LCD::print">
<polygon fill="white" stroke="black" points="657.5,-228.5 657.5,-247.5 719.5,-247.5 719.5,-228.5 657.5,-228.5"/>
<text text-anchor="middle" x="688.5" y="-235.5" font-family="Helvetica,sans-Serif" font-size="10.00">LCD::print</text>
</a>
</g>
</g>
<!-- Node131&#45;&gt;Node133 -->
<g id="edge4" class="edge"><title>Node131&#45;&gt;Node133</title>
<path fill="none" stroke="midnightblue" d="M154.539,-366.579C167.276,-375.024 184.251,-384.61 201,-389 237.543,-398.579 248.613,-394.422 286,-389 442.613,-366.286 615.87,-277.237 670.228,-247.63"/>
<polygon fill="midnightblue" stroke="midnightblue" points="156.291,-363.535 146.077,-360.722 152.307,-369.291 156.291,-363.535"/>
</g>
<!-- Node134 -->
<g id="node5" class="node"><title>Node134</title>
<g id="a_node5"><a xlink:href="structLCD.html#a0fd055c88888db0e52fea11f1df24d4a" target="_top" xlink:title="LCD::drawBitmap">
<polygon fill="white" stroke="black" points="641,-190.5 641,-209.5 736,-209.5 736,-190.5 641,-190.5"/>
<text text-anchor="middle" x="688.5" y="-197.5" font-family="Helvetica,sans-Serif" font-size="10.00">LCD::drawBitmap</text>
</a>
</g>
</g>
<!-- Node131&#45;&gt;Node134 -->
<g id="edge5" class="edge"><title>Node131&#45;&gt;Node134</title>
<path fill="none" stroke="midnightblue" d="M137.362,-331.333C144.393,-301.058 162.286,-243.457 201,-214 341.542,-107.066 576.867,-165.404 658.538,-190.429"/>
<polygon fill="midnightblue" stroke="midnightblue" points="133.932,-330.635 135.244,-341.148 140.775,-332.111 133.932,-330.635"/>
</g>
<!-- Node136 -->
<g id="node7" class="node"><title>Node136</title>
<g id="a_node7"><a xlink:href="structLCD.html#ad31ee94d401b7c28d6cc2f472e2eb8fd" target="_top" xlink:title="LCD::changeMode">
<polygon fill="white" stroke="black" points="336,-275.5 336,-294.5 434,-294.5 434,-275.5 336,-275.5"/>
<text text-anchor="middle" x="385" y="-282.5" font-family="Helvetica,sans-Serif" font-size="10.00">LCD::changeMode</text>
</a>
</g>
</g>
<!-- Node131&#45;&gt;Node136 -->
<g id="edge7" class="edge"><title>Node131&#45;&gt;Node136</title>
<path fill="none" stroke="midnightblue" d="M146.897,-334.617C160.043,-323.7 180.978,-310.909 201,-304 245.206,-288.745 298.278,-281.786 335.857,-280.273"/>
<polygon fill="midnightblue" stroke="midnightblue" points="144.467,-332.096 139.47,-341.439 149.202,-337.251 144.467,-332.096"/>
</g>
<!-- Node137 -->
<g id="node8" class="node"><title>Node137</title>
<g id="a_node8"><a xlink:href="structLCD.html#ad1a67d455563026a5064ef9cab86ae4d" target="_top" xlink:title="LCD::setCursor">
<polygon fill="white" stroke="black" points="501.5,-228.5 501.5,-247.5 587.5,-247.5 587.5,-228.5 501.5,-228.5"/>
<text text-anchor="middle" x="544.5" y="-235.5" font-family="Helvetica,sans-Serif" font-size="10.00">LCD::setCursor</text>
</a>
</g>
</g>
<!-- Node131&#45;&gt;Node137 -->
<g id="edge9" class="edge"><title>Node131&#45;&gt;Node137</title>
<path fill="none" stroke="midnightblue" d="M147.547,-333.556C160.04,-319.278 179.604,-299.745 201,-289 300.12,-239.223 434.267,-234.705 501.468,-236.064"/>
<polygon fill="midnightblue" stroke="midnightblue" points="144.827,-331.352 141.048,-341.25 150.175,-335.87 144.827,-331.352"/>
</g>
<!-- Node138 -->
<g id="node9" class="node"><title>Node138</title>
<g id="a_node9"><a xlink:href="structLCD.html#a75cacb94de3b3ff71e9a4497b5cc4a81" target="_top" xlink:title="LCD::changeBrightness">
<polygon fill="white" stroke="black" points="484,-557.5 484,-576.5 605,-576.5 605,-557.5 484,-557.5"/>
<text text-anchor="middle" x="544.5" y="-564.5" font-family="Helvetica,sans-Serif" font-size="10.00">LCD::changeBrightness</text>
</a>
</g>
</g>
<!-- Node131&#45;&gt;Node138 -->
<g id="edge13" class="edge"><title>Node131&#45;&gt;Node138</title>
<path fill="none" stroke="midnightblue" d="M137.977,-370.78C145.159,-401.292 162.562,-458.575 201,-489 282.922,-553.845 409.661,-562.667 483.818,-564.24"/>
<polygon fill="midnightblue" stroke="midnightblue" points="141.357,-369.853 135.773,-360.849 134.523,-371.37 141.357,-369.853"/>
</g>
<!-- Node141 -->
<g id="node12" class="node"><title>Node141</title>
<g id="a_node12"><a xlink:href="structLCD.html#aa01b7522d1e210f9cd071e3a5d4ae9e6" target="_top" xlink:title="LCD::changeBackground">
<polygon fill="white" stroke="black" points="322,-492.5 322,-511.5 448,-511.5 448,-492.5 322,-492.5"/>
<text text-anchor="middle" x="385" y="-499.5" font-family="Helvetica,sans-Serif" font-size="10.00">LCD::changeBackground</text>
</a>
</g>
</g>
<!-- Node131&#45;&gt;Node141 -->
<g id="edge17" class="edge"><title>Node131&#45;&gt;Node141</title>
<path fill="none" stroke="midnightblue" d="M143.065,-369.966C153.526,-392.444 172.672,-428.691 201,-449 239.242,-476.416 292.364,-486.911 331.526,-492.448"/>
<polygon fill="midnightblue" stroke="midnightblue" points="146.186,-368.375 138.867,-360.714 139.811,-371.267 146.186,-368.375"/>
</g>
<!-- Node142 -->
<g id="node13" class="node"><title>Node142</title>
<g id="a_node13"><a xlink:href="structLCD.html#ae7a8d9bc1581cfeeb0f098c8bb6d1229" target="_top" xlink:title="LCD::s2Cmd">
<polygon fill="white" stroke="black" points="348,-445.5 348,-464.5 422,-464.5 422,-445.5 348,-445.5"/>
<text text-anchor="middle" x="385" y="-452.5" font-family="Helvetica,sans-Serif" font-size="10.00">LCD::s2Cmd</text>
</a>
</g>
</g>
<!-- Node131&#45;&gt;Node142 -->
<g id="edge20" class="edge"><title>Node131&#45;&gt;Node142</title>
<path fill="none" stroke="midnightblue" d="M150.825,-368.473C163.014,-382.834 180.727,-402.068 201,-413 247.459,-438.052 309.22,-444.565 347.786,-448.345"/>
<polygon fill="midnightblue" stroke="midnightblue" points="153.409,-366.106 144.31,-360.679 148.039,-370.596 153.409,-366.106"/>
</g>
<!-- Node143 -->
<g id="node14" class="node"><title>Node143</title>
<g id="a_node14"><a xlink:href="structLCD.html#a739998fad0591a092255676c8c8d532f" target="_top" xlink:title="LCD::s1Cmd">
<polygon fill="white" stroke="black" points="206.5,-360.5 206.5,-379.5 280.5,-379.5 280.5,-360.5 206.5,-360.5"/>
<text text-anchor="middle" x="243.5" y="-367.5" font-family="Helvetica,sans-Serif" font-size="10.00">LCD::s1Cmd</text>
</a>
</g>
</g>
<!-- Node131&#45;&gt;Node143 -->
<g id="edge24" class="edge"><title>Node131&#45;&gt;Node143</title>
<path fill="none" stroke="midnightblue" d="M170.837,-357.508C182.265,-359.5 194.813,-361.688 206.173,-363.668"/>
<polygon fill="midnightblue" stroke="midnightblue" points="171.177,-354.015 160.724,-355.745 169.975,-360.911 171.177,-354.015"/>
</g>
<!-- Node144 -->
<g id="node15" class="node"><title>Node144</title>
<g id="a_node15"><a xlink:href="structLCD.html#ae5873763db265cd00da32664cce88873" target="_top" xlink:title="LCD::s1Dat">
<polygon fill="white" stroke="black" points="510,-190.5 510,-209.5 579,-209.5 579,-190.5 510,-190.5"/>
<text text-anchor="middle" x="544.5" y="-197.5" font-family="Helvetica,sans-Serif" font-size="10.00">LCD::s1Dat</text>
</a>
</g>
</g>
<!-- Node131&#45;&gt;Node144 -->
<g id="edge29" class="edge"><title>Node131&#45;&gt;Node144</title>
<path fill="none" stroke="midnightblue" d="M141.29,-331.926C151.506,-309.476 171.65,-272.868 201,-254 299.106,-190.93 444.896,-192.396 509.997,-196.838"/>
<polygon fill="midnightblue" stroke="midnightblue" points="137.949,-330.834 137.186,-341.401 144.372,-333.616 137.949,-330.834"/>
</g>
<!-- Node135 -->
<g id="node6" class="node"><title>Node135</title>
<g id="a_node6"><a xlink:href="dancing__dragon_8cpp.html#a840291bc02cba5474a4cb46a9b9566fe" target="_top" xlink:title="main">
<polygon fill="white" stroke="black" points="772,-332.5 772,-351.5 810,-351.5 810,-332.5 772,-332.5"/>
<text text-anchor="middle" x="791" y="-339.5" font-family="Helvetica,sans-Serif" font-size="10.00">main</text>
</a>
</g>
</g>
<!-- Node134&#45;&gt;Node135 -->
<g id="edge6" class="edge"><title>Node134&#45;&gt;Node135</title>
<path fill="none" stroke="midnightblue" d="M731.318,-215.049C732.976,-216.27 734.548,-217.585 736,-219 769.738,-251.879 783.855,-309.453 788.309,-332.279"/>
<polygon fill="midnightblue" stroke="midnightblue" points="732.835,-211.876 722.468,-209.695 729.212,-217.866 732.835,-211.876"/>
</g>
<!-- Node136&#45;&gt;Node131 -->
<g id="edge8" class="edge"><title>Node136&#45;&gt;Node131</title>
<path fill="none" stroke="midnightblue" d="M329.205,-295.824C292.186,-300.616 242.657,-307.625 201,-322 186.762,-326.913 172.062,-334.801 160.03,-341.366"/>
<polygon fill="midnightblue" stroke="midnightblue" points="329.826,-299.273 339.298,-294.527 328.933,-292.33 329.826,-299.273"/>
</g>
<!-- Node137&#45;&gt;Node130 -->
<g id="edge10" class="edge"><title>Node137&#45;&gt;Node130</title>
<path fill="none" stroke="midnightblue" d="M491.505,-226.389C385.918,-202.81 149.205,-149.95 64.1656,-130.96"/>
<polygon fill="midnightblue" stroke="midnightblue" points="490.781,-229.814 501.304,-228.577 492.307,-222.982 490.781,-229.814"/>
</g>
<!-- Node137&#45;&gt;Node133 -->
<g id="edge11" class="edge"><title>Node137&#45;&gt;Node133</title>
<path fill="none" stroke="midnightblue" d="M597.962,-238C617.988,-238 640.129,-238 657.384,-238"/>
<polygon fill="midnightblue" stroke="midnightblue" points="597.72,-234.5 587.72,-238 597.72,-241.5 597.72,-234.5"/>
</g>
<!-- Node137&#45;&gt;Node134 -->
<g id="edge12" class="edge"><title>Node137&#45;&gt;Node134</title>
<path fill="none" stroke="midnightblue" d="M590.993,-225.826C610.628,-220.571 633.266,-214.513 651.679,-209.586"/>
<polygon fill="midnightblue" stroke="midnightblue" points="590.088,-222.445 581.333,-228.411 591.897,-229.207 590.088,-222.445"/>
</g>
<!-- Node138&#45;&gt;Node131 -->
<g id="edge14" class="edge"><title>Node138&#45;&gt;Node131</title>
<path fill="none" stroke="midnightblue" d="M478.041,-577.03C403.223,-580.18 280.832,-570.191 201,-507 152.998,-469.004 137.801,-389.122 134.347,-360.686"/>
<polygon fill="midnightblue" stroke="midnightblue" points="478.466,-580.513 488.273,-576.503 478.106,-573.522 478.466,-580.513"/>
</g>
<!-- Node139 -->
<g id="node10" class="node"><title>Node139</title>
<g id="a_node10"><a xlink:href="structLCD.html#a3f437907a543226be7c527a2d304ad95" target="_top" xlink:title="LCD::lightOff">
<polygon fill="white" stroke="black" points="651.5,-573.5 651.5,-592.5 725.5,-592.5 725.5,-573.5 651.5,-573.5"/>
<text text-anchor="middle" x="688.5" y="-580.5" font-family="Helvetica,sans-Serif" font-size="10.00">LCD::lightOff</text>
</a>
</g>
</g>
<!-- Node138&#45;&gt;Node139 -->
<g id="edge15" class="edge"><title>Node138&#45;&gt;Node139</title>
<path fill="none" stroke="midnightblue" d="M615.26,-574.86C627.717,-576.264 640.225,-577.673 651.25,-578.915"/>
<polygon fill="midnightblue" stroke="midnightblue" points="615.638,-571.381 605.309,-573.739 614.854,-578.337 615.638,-571.381"/>
</g>
<!-- Node140 -->
<g id="node11" class="node"><title>Node140</title>
<g id="a_node11"><a xlink:href="structLCD.html#aa4c1e7d41ca93af28769aaba704d5c1f" target="_top" xlink:title="LCD::lightOn">
<polygon fill="white" stroke="black" points="651.5,-535.5 651.5,-554.5 725.5,-554.5 725.5,-535.5 651.5,-535.5"/>
<text text-anchor="middle" x="688.5" y="-542.5" font-family="Helvetica,sans-Serif" font-size="10.00">LCD::lightOn</text>
</a>
</g>
</g>
<!-- Node138&#45;&gt;Node140 -->
<g id="edge16" class="edge"><title>Node138&#45;&gt;Node140</title>
<path fill="none" stroke="midnightblue" d="M615.26,-556.192C627.717,-554.262 640.225,-552.324 651.25,-550.616"/>
<polygon fill="midnightblue" stroke="midnightblue" points="614.655,-552.744 605.309,-557.734 615.727,-559.661 614.655,-552.744"/>
</g>
<!-- Node141&#45;&gt;Node131 -->
<g id="edge18" class="edge"><title>Node141&#45;&gt;Node131</title>
<path fill="none" stroke="midnightblue" d="M311.911,-505.478C275.854,-501.147 233.164,-490.058 201,-467 162.978,-439.742 141.498,-383.769 135.355,-360.551"/>
<polygon fill="midnightblue" stroke="midnightblue" points="311.581,-508.962 321.891,-506.525 312.311,-502.001 311.581,-508.962"/>
</g>
<!-- Node141&#45;&gt;Node135 -->
<g id="edge19" class="edge"><title>Node141&#45;&gt;Node135</title>
<path fill="none" stroke="midnightblue" d="M423.511,-489.041C467.324,-473.734 541.857,-447.161 605,-422 666.763,-397.389 738.752,-365.243 771.767,-350.303"/>
<polygon fill="midnightblue" stroke="midnightblue" points="422.143,-485.812 413.852,-492.407 424.447,-492.422 422.143,-485.812"/>
</g>
<!-- Node142&#45;&gt;Node131 -->
<g id="edge21" class="edge"><title>Node142&#45;&gt;Node131</title>
<path fill="none" stroke="midnightblue" d="M337.354,-461.719C298.718,-461.309 243.467,-453.899 201,-431 170.311,-414.452 145.488,-378.878 136.816,-360.739"/>
<polygon fill="midnightblue" stroke="midnightblue" points="337.808,-465.216 347.786,-461.656 337.765,-458.216 337.808,-465.216"/>
</g>
<!-- Node142&#45;&gt;Node137 -->
<g id="edge22" class="edge"><title>Node142&#45;&gt;Node137</title>
<path fill="none" stroke="midnightblue" d="M398.963,-437.14C430.716,-393.391 511.588,-281.967 536.25,-247.989"/>
<polygon fill="midnightblue" stroke="midnightblue" points="396.012,-435.247 392.971,-445.396 401.677,-439.359 396.012,-435.247"/>
</g>
<!-- Node142&#45;&gt;Node138 -->
<g id="edge23" class="edge"><title>Node142&#45;&gt;Node138</title>
<path fill="none" stroke="midnightblue" d="M420.867,-468.563C429.983,-472.689 439.602,-477.584 448,-483 483.072,-505.619 518.411,-540.625 534.507,-557.399"/>
<polygon fill="midnightblue" stroke="midnightblue" points="422.188,-465.321 411.621,-464.552 419.402,-471.743 422.188,-465.321"/>
</g>
<!-- Node143&#45;&gt;Node136 -->
<g id="edge25" class="edge"><title>Node143&#45;&gt;Node136</title>
<path fill="none" stroke="midnightblue" d="M276.411,-356.037C279.687,-354.412 282.935,-352.719 286,-351 317.848,-333.143 352.786,-308.21 371.12,-294.674"/>
<polygon fill="midnightblue" stroke="midnightblue" points="274.761,-352.946 267.233,-360.401 277.767,-359.268 274.761,-352.946"/>
</g>
<!-- Node143&#45;&gt;Node137 -->
<g id="edge26" class="edge"><title>Node143&#45;&gt;Node137</title>
<path fill="none" stroke="midnightblue" d="M290.379,-359.216C332.622,-348.345 396.371,-329.526 448,-304 480.7,-287.832 514.9,-261.534 532.132,-247.512"/>
<polygon fill="midnightblue" stroke="midnightblue" points="289.488,-355.831 280.651,-361.676 291.204,-362.617 289.488,-355.831"/>
</g>
<!-- Node143&#45;&gt;Node141 -->
<g id="edge27" class="edge"><title>Node143&#45;&gt;Node141</title>
<path fill="none" stroke="midnightblue" d="M254.397,-388.561C267.322,-411.302 291.888,-449.784 322,-474 331.664,-481.772 343.831,-487.878 354.821,-492.379"/>
<polygon fill="midnightblue" stroke="midnightblue" points="257.343,-386.656 249.444,-379.596 251.217,-390.042 257.343,-386.656"/>
</g>
<!-- Node143&#45;&gt;Node142 -->
<g id="edge28" class="edge"><title>Node143&#45;&gt;Node142</title>
<path fill="none" stroke="midnightblue" d="M268.813,-384.815C297.347,-402.201 343.841,-430.53 368.112,-445.319"/>
<polygon fill="midnightblue" stroke="midnightblue" points="270.592,-381.8 260.231,-379.585 266.95,-387.778 270.592,-381.8"/>
</g>
<!-- Node144&#45;&gt;Node130 -->
<g id="edge30" class="edge"><title>Node144&#45;&gt;Node130</title>
<path fill="none" stroke="midnightblue" d="M522.089,-184.733C503.483,-172.379 475.3,-155.797 448,-148 309.385,-108.412 134.422,-115.991 64.2264,-121.233"/>
<polygon fill="midnightblue" stroke="midnightblue" points="520.174,-187.663 530.409,-190.402 524.115,-181.878 520.174,-187.663"/>
</g>
<!-- Node144&#45;&gt;Node133 -->
<g id="edge31" class="edge"><title>Node144&#45;&gt;Node133</title>
<path fill="none" stroke="midnightblue" d="M589.004,-211.642C611.177,-217.576 637.583,-224.642 657.47,-229.964"/>
<polygon fill="midnightblue" stroke="midnightblue" points="589.717,-208.21 579.152,-209.005 587.907,-214.972 589.717,-208.21"/>
</g>
<!-- Node144&#45;&gt;Node134 -->
<g id="edge32" class="edge"><title>Node144&#45;&gt;Node134</title>
<path fill="none" stroke="midnightblue" d="M589.511,-200C605.831,-200 624.387,-200 640.929,-200"/>
<polygon fill="midnightblue" stroke="midnightblue" points="589.152,-196.5 579.152,-200 589.152,-203.5 589.152,-196.5"/>
</g>
</g>
</svg>
