<?xml version="1.0" encoding="UTF-8" standalone="no"?>
<!DOCTYPE svg PUBLIC "-//W3C//DTD SVG 1.1//EN"
 "http://www.w3.org/Graphics/SVG/1.1/DTD/svg11.dtd">
<!-- Generated by graphviz version 2.38.0 (20140413.2041)
 -->
<!-- Title: SoccerBoard::reset Pages: 1 -->
<svg width="195pt" height="46pt"
 viewBox="0.00 0.00 195.00 46.00" xmlns="http://www.w3.org/2000/svg" xmlns:xlink="http://www.w3.org/1999/xlink">
<g id="graph0" class="graph" transform="scale(1 1) rotate(0) translate(4 42)">
<title>SoccerBoard::reset</title>
<polygon fill="white" stroke="none" points="-4,4 -4,-42 191,-42 191,4 -4,4"/>
<!-- Node47 -->
<g id="node1" class="node"><title>Node47</title>
<polygon fill="#bfbfbf" stroke="black" points="0,-0.5 0,-19.5 101,-19.5 101,-0.5 0,-0.5"/>
<text text-anchor="middle" x="50.5" y="-7.5" font-family="Helvetica,sans-Serif" font-size="10.00">SoccerBoard::reset</text>
</g>
<!-- Node48 -->
<g id="node2" class="node"><title>Node48</title>
<g id="a_node2"><a xlink:href="eBoard__comment_8h.html#aca4f96af7c6736bf2b61c88d731af741" target="_top" xlink:title="read a digital state from an INPUTpin ">
<polygon fill="white" stroke="black" points="137,-0.5 137,-19.5 187,-19.5 187,-0.5 137,-0.5"/>
<text text-anchor="middle" x="162" y="-7.5" font-family="Helvetica,sans-Serif" font-size="10.00">readPin</text>
</a>
</g>
</g>
<!-- Node47&#45;&gt;Node48 -->
<g id="edge1" class="edge"><title>Node47&#45;&gt;Node48</title>
<path fill="none" stroke="midnightblue" d="M111.363,-10C120.408,-10 129.265,-10 136.936,-10"/>
<polygon fill="midnightblue" stroke="midnightblue" points="111.124,-6.5001 101.124,-10 111.124,-13.5001 111.124,-6.5001"/>
</g>
<!-- Node48&#45;&gt;Node48 -->
<g id="edge2" class="edge"><title>Node48&#45;&gt;Node48</title>
<path fill="none" stroke="midnightblue" d="M141.631,-29.4C142.991,-34.3146 149.781,-38 162,-38 181.551,-38 187.202,-28.5653 178.954,-19.7571"/>
<polygon fill="midnightblue" stroke="midnightblue" points="145.007,-30.3518 145.046,-19.7571 138.408,-28.0149 145.007,-30.3518"/>
</g>
</g>
</svg>
