<?xml version="1.0" encoding="UTF-8" standalone="no"?>
<!DOCTYPE svg PUBLIC "-//W3C//DTD SVG 1.1//EN"
 "http://www.w3.org/Graphics/SVG/1.1/DTD/svg11.dtd">
<!-- Generated by graphviz version 2.40.1 (20161225.0304)
 -->
<!-- Title: NeoPixel::Color Pages: 1 -->
<svg width="287pt" height="28pt"
 viewBox="0.00 0.00 287.00 28.00" xmlns="http://www.w3.org/2000/svg" xmlns:xlink="http://www.w3.org/1999/xlink">
<g id="graph0" class="graph" transform="scale(1 1) rotate(0) translate(4 24)">
<title>NeoPixel::Color</title>
<polygon fill="#ffffff" stroke="transparent" points="-4,4 -4,-24 283,-24 283,4 -4,4"/>
<!-- Node14 -->
<g id="node1" class="node">
<title>Node14</title>
<polygon fill="#bfbfbf" stroke="#000000" points="0,-.5 0,-19.5 107,-19.5 107,-.5 0,-.5"/>
<text text-anchor="middle" x="53.5" y="-7.5" font-family="Hack" font-size="10.00" fill="#000000">NeoPixel::Color</text>
</g>
<!-- Node15 -->
<g id="node2" class="node">
<title>Node15</title>
<g id="a_node2"><a xlink:href="neo__animation_8cpp.html#af16b42fccab1fb1eaf3658e792035c42" target="_top" xlink:title="this will perform a single shift operation! ">
<polygon fill="#ffffff" stroke="#000000" points="143,-.5 143,-19.5 202,-19.5 202,-.5 143,-.5"/>
<text text-anchor="middle" x="172.5" y="-7.5" font-family="Hack" font-size="10.00" fill="#000000">shiftPx</text>
</a>
</g>
</g>
<!-- Node14&#45;&gt;Node15 -->
<g id="edge1" class="edge">
<title>Node14&#45;&gt;Node15</title>
<path fill="none" stroke="#191970" d="M117.236,-10C126.2199,-10 135.0743,-10 142.9744,-10"/>
<polygon fill="#191970" stroke="#191970" points="117.082,-6.5001 107.082,-10 117.0819,-13.5001 117.082,-6.5001"/>
</g>
<!-- Node16 -->
<g id="node3" class="node">
<title>Node16</title>
<g id="a_node3"><a xlink:href="neo__animation_8cpp.html#ae66f6b31b5ad750f1fe042a706a4e3d4" target="_top" xlink:title="main">
<polygon fill="#ffffff" stroke="#000000" points="238,-.5 238,-19.5 279,-19.5 279,-.5 238,-.5"/>
<text text-anchor="middle" x="258.5" y="-7.5" font-family="Hack" font-size="10.00" fill="#000000">main</text>
</a>
</g>
</g>
<!-- Node15&#45;&gt;Node16 -->
<g id="edge2" class="edge">
<title>Node15&#45;&gt;Node16</title>
<path fill="none" stroke="#191970" d="M212.2801,-10C221.1028,-10 230.1072,-10 237.7966,-10"/>
<polygon fill="#191970" stroke="#191970" points="212.0964,-6.5001 202.0963,-10 212.0963,-13.5001 212.0964,-6.5001"/>
</g>
</g>
</svg>
