<?xml version="1.0" encoding="UTF-8" standalone="no"?>
<!DOCTYPE svg PUBLIC "-//W3C//DTD SVG 1.1//EN"
 "http://www.w3.org/Graphics/SVG/1.1/DTD/svg11.dtd">
<!-- Generated by graphviz version 2.38.0 (20140413.2041)
 -->
<!-- Title: NeoPixel::setPixelColor Pages: 1 -->
<svg width="286pt" height="28pt"
 viewBox="0.00 0.00 286.00 28.00" xmlns="http://www.w3.org/2000/svg" xmlns:xlink="http://www.w3.org/1999/xlink">
<g id="graph0" class="graph" transform="scale(1 1) rotate(0) translate(4 24)">
<title>NeoPixel::setPixelColor</title>
<polygon fill="white" stroke="none" points="-4,4 -4,-24 282,-24 282,4 -4,4"/>
<!-- Node37 -->
<g id="node1" class="node"><title>Node37</title>
<polygon fill="#bfbfbf" stroke="black" points="0,-0.5 0,-19.5 121,-19.5 121,-0.5 0,-0.5"/>
<text text-anchor="middle" x="60.5" y="-7.5" font-family="Helvetica,sans-Serif" font-size="10.00">NeoPixel::setPixelColor</text>
</g>
<!-- Node38 -->
<g id="node2" class="node"><title>Node38</title>
<g id="a_node2"><a xlink:href="neo__animation_8cpp.html#af16b42fccab1fb1eaf3658e792035c42" target="_top" xlink:title="this will perform a single shift operation! ">
<polygon fill="white" stroke="black" points="157,-0.5 157,-19.5 204,-19.5 204,-0.5 157,-0.5"/>
<text text-anchor="middle" x="180.5" y="-7.5" font-family="Helvetica,sans-Serif" font-size="10.00">shiftPx</text>
</a>
</g>
</g>
<!-- Node37&#45;&gt;Node38 -->
<g id="edge1" class="edge"><title>Node37&#45;&gt;Node38</title>
<path fill="none" stroke="midnightblue" d="M131.251,-10C140.432,-10 149.254,-10 156.786,-10"/>
<polygon fill="midnightblue" stroke="midnightblue" points="131.191,-6.5001 121.191,-10 131.191,-13.5001 131.191,-6.5001"/>
</g>
<!-- Node39 -->
<g id="node3" class="node"><title>Node39</title>
<g id="a_node3"><a xlink:href="neo__animation_8cpp.html#ae66f6b31b5ad750f1fe042a706a4e3d4" target="_top" xlink:title="main">
<polygon fill="white" stroke="black" points="240,-0.5 240,-19.5 278,-19.5 278,-0.5 240,-0.5"/>
<text text-anchor="middle" x="259" y="-7.5" font-family="Helvetica,sans-Serif" font-size="10.00">main</text>
</a>
</g>
</g>
<!-- Node38&#45;&gt;Node39 -->
<g id="edge2" class="edge"><title>Node38&#45;&gt;Node39</title>
<path fill="none" stroke="midnightblue" d="M214.131,-10C222.988,-10 232.256,-10 239.98,-10"/>
<polygon fill="midnightblue" stroke="midnightblue" points="214.039,-6.5001 204.039,-10 214.039,-13.5001 214.039,-6.5001"/>
</g>
</g>
</svg>
