<?xml version="1.0" encoding="UTF-8" standalone="no"?>
<!DOCTYPE svg PUBLIC "-//W3C//DTD SVG 1.1//EN"
 "http://www.w3.org/Graphics/SVG/1.1/DTD/svg11.dtd">
<!-- Generated by graphviz version 2.38.0 (20140413.2041)
 -->
<!-- Title: LCD::changeMode Pages: 1 -->
<svg width="987pt" height="302pt"
 viewBox="0.00 0.00 987.00 301.77" xmlns="http://www.w3.org/2000/svg" xmlns:xlink="http://www.w3.org/1999/xlink">
<g id="graph0" class="graph" transform="scale(1 1) rotate(0) translate(4 297.765)">
<title>LCD::changeMode</title>
<polygon fill="white" stroke="none" points="-4,4 -4,-297.765 983,-297.765 983,4 -4,4"/>
<!-- Node85 -->
<g id="node1" class="node"><title>Node85</title>
<polygon fill="#bfbfbf" stroke="black" points="0,-141.031 0,-160.031 98,-160.031 98,-141.031 0,-141.031"/>
<text text-anchor="middle" x="49" y="-148.031" font-family="Helvetica,sans-Serif" font-size="10.00">LCD::changeMode</text>
</g>
<!-- Node86 -->
<g id="node2" class="node"><title>Node86</title>
<g id="a_node2"><a xlink:href="structLCD.html#a632d9c641930fe16c0b623b82136196e" target="_top" xlink:title="LCD::init">
<polygon fill="white" stroke="black" points="134,-141.031 134,-160.031 190,-160.031 190,-141.031 134,-141.031"/>
<text text-anchor="middle" x="162" y="-148.031" font-family="Helvetica,sans-Serif" font-size="10.00">LCD::init</text>
</a>
</g>
</g>
<!-- Node85&#45;&gt;Node86 -->
<g id="edge1" class="edge"><title>Node85&#45;&gt;Node86</title>
<path fill="none" stroke="midnightblue" d="M98.0406,-143.836C106.692,-143.709 115.59,-143.804 123.872,-144.121"/>
<polygon fill="midnightblue" stroke="midnightblue" points="123.802,-147.622 133.969,-144.642 124.163,-140.632 123.802,-147.622"/>
</g>
<!-- Node88 -->
<g id="node4" class="node"><title>Node88</title>
<g id="a_node4"><a xlink:href="structLCD.html#a739998fad0591a092255676c8c8d532f" target="_top" xlink:title="LCD::s1Cmd">
<polygon fill="white" stroke="black" points="655,-125.031 655,-144.031 729,-144.031 729,-125.031 655,-125.031"/>
<text text-anchor="middle" x="692" y="-132.031" font-family="Helvetica,sans-Serif" font-size="10.00">LCD::s1Cmd</text>
</a>
</g>
</g>
<!-- Node85&#45;&gt;Node88 -->
<g id="edge30" class="edge"><title>Node85&#45;&gt;Node88</title>
<path fill="none" stroke="midnightblue" d="M60.037,-141.02C85.3624,-117.759 154.921,-58.3851 226,-37.5312 394.157,11.8043 469.603,22.0722 619,-69.5312 639.11,-81.8617 637.35,-92.8809 655,-108.531 659.007,-112.085 663.491,-115.624 667.897,-118.895"/>
<polygon fill="midnightblue" stroke="midnightblue" points="665.96,-121.814 676.129,-124.789 670.035,-116.122 665.96,-121.814"/>
</g>
<!-- Node86&#45;&gt;Node85 -->
<g id="edge10" class="edge"><title>Node86&#45;&gt;Node85</title>
<path fill="none" stroke="midnightblue" d="M133.969,-156.42C126.107,-156.942 117.198,-157.227 108.195,-157.274"/>
<polygon fill="midnightblue" stroke="midnightblue" points="108.057,-153.774 98.0406,-157.227 108.024,-160.774 108.057,-153.774"/>
</g>
<!-- Node87 -->
<g id="node3" class="node"><title>Node87</title>
<g id="a_node3"><a xlink:href="structLCD.html#ae7a8d9bc1581cfeeb0f098c8bb6d1229" target="_top" xlink:title="LCD::s2Cmd">
<polygon fill="white" stroke="black" points="545,-165.031 545,-184.031 619,-184.031 619,-165.031 545,-165.031"/>
<text text-anchor="middle" x="582" y="-172.031" font-family="Helvetica,sans-Serif" font-size="10.00">LCD::s2Cmd</text>
</a>
</g>
</g>
<!-- Node86&#45;&gt;Node87 -->
<g id="edge2" class="edge"><title>Node86&#45;&gt;Node87</title>
<path fill="none" stroke="midnightblue" d="M190.104,-148.546C259.99,-148.604 446.937,-159.039 534.521,-167.424"/>
<polygon fill="midnightblue" stroke="midnightblue" points="534.397,-170.929 544.695,-168.436 535.09,-163.964 534.397,-170.929"/>
</g>
<!-- Node93 -->
<g id="node9" class="node"><title>Node93</title>
<g id="a_node9"><a xlink:href="structLCD.html#aa01b7522d1e210f9cd071e3a5d4ae9e6" target="_top" xlink:title="LCD::changeBackground">
<polygon fill="white" stroke="black" points="226,-212.031 226,-231.031 352,-231.031 352,-212.031 226,-212.031"/>
<text text-anchor="middle" x="289" y="-219.031" font-family="Helvetica,sans-Serif" font-size="10.00">LCD::changeBackground</text>
</a>
</g>
</g>
<!-- Node86&#45;&gt;Node93 -->
<g id="edge11" class="edge"><title>Node86&#45;&gt;Node93</title>
<path fill="none" stroke="midnightblue" d="M183.598,-160.218C195.457,-168.695 210.954,-180.211 226,-188.531 239.39,-195.936 255.537,-202.107 267.996,-207.587"/>
<polygon fill="midnightblue" stroke="midnightblue" points="266.534,-210.767 277.074,-211.843 269.505,-204.429 266.534,-210.767"/>
</g>
<!-- Node94 -->
<g id="node10" class="node"><title>Node94</title>
<g id="a_node10"><a xlink:href="structLCD.html#a75cacb94de3b3ff71e9a4497b5cc4a81" target="_top" xlink:title="LCD::changeBrightness">
<polygon fill="white" stroke="black" points="388,-259.031 388,-278.031 509,-278.031 509,-259.031 388,-259.031"/>
<text text-anchor="middle" x="448.5" y="-266.031" font-family="Helvetica,sans-Serif" font-size="10.00">LCD::changeBrightness</text>
</a>
</g>
</g>
<!-- Node86&#45;&gt;Node94 -->
<g id="edge14" class="edge"><title>Node86&#45;&gt;Node94</title>
<path fill="none" stroke="midnightblue" d="M169.192,-160.249C178.259,-178.153 197.259,-214.189 226,-231.531 271.355,-258.898 331.41,-265.025 377.545,-266.16"/>
<polygon fill="midnightblue" stroke="midnightblue" points="377.701,-269.664 387.761,-266.339 377.824,-262.665 377.701,-269.664"/>
</g>
<!-- Node95 -->
<g id="node11" class="node"><title>Node95</title>
<g id="a_node11"><a xlink:href="structLCD.html#ad3120f397273bac2ad60e0291554b9e6" target="_top" xlink:title="LCD::clear">
<polygon fill="white" stroke="black" points="257,-80.0312 257,-99.0312 321,-99.0312 321,-80.0312 257,-80.0312"/>
<text text-anchor="middle" x="289" y="-87.0312" font-family="Helvetica,sans-Serif" font-size="10.00">LCD::clear</text>
</a>
</g>
</g>
<!-- Node86&#45;&gt;Node95 -->
<g id="edge19" class="edge"><title>Node86&#45;&gt;Node95</title>
<path fill="none" stroke="midnightblue" d="M169.429,-140.847C180.617,-129.998 204.529,-114.908 226,-104.531 232.787,-101.251 240.147,-98.0824 247.345,-95.3314"/>
<polygon fill="midnightblue" stroke="midnightblue" points="248.763,-98.5412 256.992,-91.8676 246.397,-91.953 248.763,-98.5412"/>
</g>
<!-- Node87&#45;&gt;Node86 -->
<g id="edge3" class="edge"><title>Node87&#45;&gt;Node86</title>
<path fill="none" stroke="midnightblue" d="M544.695,-176.458C465.869,-175.571 279.759,-164.898 200.162,-156.715"/>
<polygon fill="midnightblue" stroke="midnightblue" points="200.422,-153.223 190.104,-155.629 199.67,-160.182 200.422,-153.223"/>
</g>
<!-- Node87&#45;&gt;Node88 -->
<g id="edge4" class="edge"><title>Node87&#45;&gt;Node88</title>
<path fill="none" stroke="midnightblue" d="M608.869,-164.95C622.895,-159.755 640.434,-153.259 655.699,-147.606"/>
<polygon fill="midnightblue" stroke="midnightblue" points="657.181,-150.789 665.342,-144.034 654.749,-144.225 657.181,-150.789"/>
</g>
<!-- Node88&#45;&gt;Node86 -->
<g id="edge5" class="edge"><title>Node88&#45;&gt;Node86</title>
<path fill="none" stroke="midnightblue" d="M672.541,-124.928C607.554,-92.5324 384.719,6.50379 226,-70.5312 199.997,-83.1521 181.511,-112.284 171.547,-131.688"/>
<polygon fill="midnightblue" stroke="midnightblue" points="168.337,-130.286 167.118,-140.81 174.634,-133.343 168.337,-130.286"/>
</g>
<!-- Node89 -->
<g id="node5" class="node"><title>Node89</title>
<g id="a_node5"><a xlink:href="classeagle__impl_1_1TwoWire.html#a1876ffdb16fb185c14a75e1251cef5e4" target="_top" xlink:title="eagle_impl::TwoWire\l::beginTransmission">
<polygon fill="white" stroke="black" points="765,-170.531 765,-200.531 873,-200.531 873,-170.531 765,-170.531"/>
<text text-anchor="start" x="773" y="-188.531" font-family="Helvetica,sans-Serif" font-size="10.00">eagle_impl::TwoWire</text>
<text text-anchor="middle" x="819" y="-177.531" font-family="Helvetica,sans-Serif" font-size="10.00">::beginTransmission</text>
</a>
</g>
</g>
<!-- Node88&#45;&gt;Node89 -->
<g id="edge6" class="edge"><title>Node88&#45;&gt;Node89</title>
<path fill="none" stroke="midnightblue" d="M716.512,-144.124C732,-150.443 752.806,-158.932 771.548,-166.579"/>
<polygon fill="midnightblue" stroke="midnightblue" points="770.253,-169.831 780.834,-170.368 772.898,-163.349 770.253,-169.831"/>
</g>
<!-- Node90 -->
<g id="node6" class="node"><title>Node90</title>
<g id="a_node6"><a xlink:href="classeagle__impl_1_1TwoWire.html#a2b5f9f156b6d281746a2a6ca5707dad3" target="_top" xlink:title="eagle_impl::TwoWire\l::write">
<polygon fill="white" stroke="black" points="765,-72.5312 765,-102.531 873,-102.531 873,-72.5312 765,-72.5312"/>
<text text-anchor="start" x="773" y="-90.5312" font-family="Helvetica,sans-Serif" font-size="10.00">eagle_impl::TwoWire</text>
<text text-anchor="middle" x="819" y="-79.5312" font-family="Helvetica,sans-Serif" font-size="10.00">::write</text>
</a>
</g>
</g>
<!-- Node88&#45;&gt;Node90 -->
<g id="edge7" class="edge"><title>Node88&#45;&gt;Node90</title>
<path fill="none" stroke="midnightblue" d="M718.296,-125.02C732.742,-119.588 751.357,-112.589 768.584,-106.112"/>
<polygon fill="midnightblue" stroke="midnightblue" points="769.848,-109.376 777.976,-102.58 767.384,-102.824 769.848,-109.376"/>
</g>
<!-- Node92 -->
<g id="node8" class="node"><title>Node92</title>
<g id="a_node8"><a xlink:href="classeagle__impl_1_1TwoWire.html#af80f9a7b85a3a81a035ca94c95bcdc1d" target="_top" xlink:title="eagle_impl::TwoWire\l::endTransmission">
<polygon fill="white" stroke="black" points="765,-121.531 765,-151.531 873,-151.531 873,-121.531 765,-121.531"/>
<text text-anchor="start" x="773" y="-139.531" font-family="Helvetica,sans-Serif" font-size="10.00">eagle_impl::TwoWire</text>
<text text-anchor="middle" x="819" y="-128.531" font-family="Helvetica,sans-Serif" font-size="10.00">::endTransmission</text>
</a>
</g>
</g>
<!-- Node88&#45;&gt;Node92 -->
<g id="edge9" class="edge"><title>Node88&#45;&gt;Node92</title>
<path fill="none" stroke="midnightblue" d="M729.155,-135.11C737.136,-135.237 745.819,-135.376 754.526,-135.516"/>
<polygon fill="midnightblue" stroke="midnightblue" points="754.665,-139.018 764.72,-135.679 754.777,-132.019 754.665,-139.018"/>
</g>
<!-- Node91 -->
<g id="node7" class="node"><title>Node91</title>
<g id="a_node7"><a xlink:href="eBoard_8h.html#abb66f08d8061c1064047324c1bacc2a9" target="_top" xlink:title="twi_transmit">
<polygon fill="white" stroke="black" points="909,-78.0312 909,-97.0312 979,-97.0312 979,-78.0312 909,-78.0312"/>
<text text-anchor="middle" x="944" y="-85.0312" font-family="Helvetica,sans-Serif" font-size="10.00">twi_transmit</text>
</a>
</g>
</g>
<!-- Node90&#45;&gt;Node91 -->
<g id="edge8" class="edge"><title>Node90&#45;&gt;Node91</title>
<path fill="none" stroke="midnightblue" d="M873.234,-87.5312C881.725,-87.5312 890.431,-87.5312 898.686,-87.5312"/>
<polygon fill="midnightblue" stroke="midnightblue" points="898.854,-91.0313 908.854,-87.5312 898.854,-84.0313 898.854,-91.0313"/>
</g>
<!-- Node93&#45;&gt;Node86 -->
<g id="edge12" class="edge"><title>Node93&#45;&gt;Node86</title>
<path fill="none" stroke="midnightblue" d="M236.738,-211.952C233.05,-210.248 229.434,-208.43 226,-206.531 206.996,-196.022 187.274,-180.416 175.07,-167.949"/>
<polygon fill="midnightblue" stroke="midnightblue" points="177.497,-165.412 168.219,-160.295 172.281,-170.081 177.497,-165.412"/>
</g>
<!-- Node93&#45;&gt;Node88 -->
<g id="edge13" class="edge"><title>Node93&#45;&gt;Node88</title>
<path fill="none" stroke="midnightblue" d="M352.249,-226.937C420.36,-230.456 531.496,-229.061 619,-193.531 641.531,-184.383 662.45,-165.606 675.868,-151.68"/>
<polygon fill="midnightblue" stroke="midnightblue" points="678.619,-153.86 682.857,-144.15 673.489,-149.098 678.619,-153.86"/>
</g>
<!-- Node94&#45;&gt;Node86 -->
<g id="edge17" class="edge"><title>Node94&#45;&gt;Node86</title>
<path fill="none" stroke="midnightblue" d="M415.942,-278.051C370.502,-284.78 285.572,-285.476 226,-249.531 196.261,-231.587 176.952,-193.629 168.283,-169.972"/>
<polygon fill="midnightblue" stroke="midnightblue" points="171.522,-168.62 165.05,-160.232 164.879,-170.826 171.522,-168.62"/>
</g>
<!-- Node94&#45;&gt;Node87 -->
<g id="edge18" class="edge"><title>Node94&#45;&gt;Node87</title>
<path fill="none" stroke="midnightblue" d="M463.078,-258.826C485.934,-242.487 532.265,-209.368 559.555,-189.861"/>
<polygon fill="midnightblue" stroke="midnightblue" points="561.592,-192.707 567.692,-184.044 557.522,-187.012 561.592,-192.707"/>
</g>
<!-- Node94&#45;&gt;Node89 -->
<g id="edge15" class="edge"><title>Node94&#45;&gt;Node89</title>
<path fill="none" stroke="midnightblue" d="M486.035,-278.061C541.086,-290.504 647.525,-307.01 729,-273.531 760.62,-260.538 786.988,-230.28 802.618,-208.884"/>
<polygon fill="midnightblue" stroke="midnightblue" points="805.548,-210.803 808.453,-200.614 799.828,-206.768 805.548,-210.803"/>
</g>
<!-- Node94&#45;&gt;Node92 -->
<g id="edge16" class="edge"><title>Node94&#45;&gt;Node92</title>
<path fill="none" stroke="midnightblue" d="M484.545,-259.03C519.04,-249.434 573.071,-233.748 619,-217.531 673.379,-198.331 734.657,-172.779 774.668,-155.55"/>
<polygon fill="midnightblue" stroke="midnightblue" points="776.075,-158.755 783.866,-151.574 773.298,-152.329 776.075,-158.755"/>
</g>
<!-- Node95&#45;&gt;Node86 -->
<g id="edge20" class="edge"><title>Node95&#45;&gt;Node86</title>
<path fill="none" stroke="midnightblue" d="M278.128,-99.0676C265.718,-106.028 243.875,-113.893 226,-122.531 217.015,-126.873 207.603,-132.041 198.874,-136.856"/>
<polygon fill="midnightblue" stroke="midnightblue" points="197.149,-133.81 190.073,-141.696 200.522,-139.944 197.149,-133.81"/>
</g>
<!-- Node96 -->
<g id="node12" class="node"><title>Node96</title>
<g id="a_node12"><a xlink:href="structLCD.html#ad1a67d455563026a5064ef9cab86ae4d" target="_top" xlink:title="LCD::setCursor">
<polygon fill="white" stroke="black" points="405.5,-118.031 405.5,-137.031 491.5,-137.031 491.5,-118.031 405.5,-118.031"/>
<text text-anchor="middle" x="448.5" y="-125.031" font-family="Helvetica,sans-Serif" font-size="10.00">LCD::setCursor</text>
</a>
</g>
</g>
<!-- Node95&#45;&gt;Node96 -->
<g id="edge21" class="edge"><title>Node95&#45;&gt;Node96</title>
<path fill="none" stroke="midnightblue" d="M321.117,-97.0388C343.119,-102.347 373.066,-109.573 398.287,-115.658"/>
<polygon fill="midnightblue" stroke="midnightblue" points="397.509,-119.07 408.051,-118.013 399.151,-112.266 397.509,-119.07"/>
</g>
<!-- Node97 -->
<g id="node13" class="node"><title>Node97</title>
<g id="a_node13"><a xlink:href="structLCD.html#ae5873763db265cd00da32664cce88873" target="_top" xlink:title="LCD::s1Dat">
<polygon fill="white" stroke="black" points="657.5,-80.0312 657.5,-99.0312 726.5,-99.0312 726.5,-80.0312 657.5,-80.0312"/>
<text text-anchor="middle" x="692" y="-87.0312" font-family="Helvetica,sans-Serif" font-size="10.00">LCD::s1Dat</text>
</a>
</g>
</g>
<!-- Node95&#45;&gt;Node97 -->
<g id="edge25" class="edge"><title>Node95&#45;&gt;Node97</title>
<path fill="none" stroke="midnightblue" d="M321.132,-89.5312C391.928,-89.5312 565.168,-89.5312 646.922,-89.5312"/>
<polygon fill="midnightblue" stroke="midnightblue" points="647.362,-93.0313 657.362,-89.5312 647.362,-86.0313 647.362,-93.0313"/>
</g>
<!-- Node96&#45;&gt;Node86 -->
<g id="edge22" class="edge"><title>Node96&#45;&gt;Node86</title>
<path fill="none" stroke="midnightblue" d="M405.108,-130.958C349.6,-135.446 253.16,-143.242 200.299,-147.516"/>
<polygon fill="midnightblue" stroke="midnightblue" points="199.707,-144.052 190.022,-148.347 200.271,-151.029 199.707,-144.052"/>
</g>
<!-- Node96&#45;&gt;Node87 -->
<g id="edge23" class="edge"><title>Node96&#45;&gt;Node87</title>
<path fill="none" stroke="midnightblue" d="M476.111,-137.042C495.765,-144.067 522.756,-153.714 544.436,-161.463"/>
<polygon fill="midnightblue" stroke="midnightblue" points="543.383,-164.803 553.977,-164.873 545.739,-158.211 543.383,-164.803"/>
</g>
<!-- Node96&#45;&gt;Node88 -->
<g id="edge24" class="edge"><title>Node96&#45;&gt;Node88</title>
<path fill="none" stroke="midnightblue" d="M491.566,-128.751C534.354,-129.991 600.488,-131.908 644.731,-133.19"/>
<polygon fill="midnightblue" stroke="midnightblue" points="644.829,-136.694 654.927,-133.486 645.032,-129.697 644.829,-136.694"/>
</g>
<!-- Node97&#45;&gt;Node86 -->
<g id="edge26" class="edge"><title>Node97&#45;&gt;Node86</title>
<path fill="none" stroke="midnightblue" d="M672.035,-79.8374C605.37,-47.2348 377.643,51.5425 226,-37.5312 191.599,-57.738 174.607,-104.305 167.426,-130.924"/>
<polygon fill="midnightblue" stroke="midnightblue" points="163.943,-130.427 164.927,-140.976 170.737,-132.116 163.943,-130.427"/>
</g>
<!-- Node97&#45;&gt;Node89 -->
<g id="edge27" class="edge"><title>Node97&#45;&gt;Node89</title>
<path fill="none" stroke="midnightblue" d="M708.451,-99.2732C715.109,-103.819 722.778,-109.544 729,-115.531 747.708,-133.531 744.586,-145.492 765,-161.531 766.579,-162.772 768.231,-163.964 769.938,-165.108"/>
<polygon fill="midnightblue" stroke="midnightblue" points="768.439,-168.291 778.815,-170.431 772.038,-162.287 768.439,-168.291"/>
</g>
<!-- Node97&#45;&gt;Node90 -->
<g id="edge28" class="edge"><title>Node97&#45;&gt;Node90</title>
<path fill="none" stroke="midnightblue" d="M726.827,-88.99C735.52,-88.8509 745.158,-88.6967 754.818,-88.5422"/>
<polygon fill="midnightblue" stroke="midnightblue" points="754.912,-92.0412 764.854,-88.3816 754.799,-85.0421 754.912,-92.0412"/>
</g>
<!-- Node97&#45;&gt;Node92 -->
<g id="edge29" class="edge"><title>Node97&#45;&gt;Node92</title>
<path fill="none" stroke="midnightblue" d="M718.296,-99.0424C732.742,-104.474 751.357,-111.474 768.584,-117.951"/>
<polygon fill="midnightblue" stroke="midnightblue" points="767.384,-121.239 777.976,-121.482 769.848,-114.687 767.384,-121.239"/>
</g>
</g>
</svg>
