<?xml version="1.0" encoding="UTF-8" standalone="no"?>
<!DOCTYPE svg PUBLIC "-//W3C//DTD SVG 1.1//EN"
 "http://www.w3.org/Graphics/SVG/1.1/DTD/svg11.dtd">
<!-- Generated by graphviz version 2.40.1 (20161225.0304)
 -->
<!-- Title: SoccerBoard::power Pages: 1 -->
<svg width="268pt" height="66pt"
 viewBox="0.00 0.00 268.00 66.00" xmlns="http://www.w3.org/2000/svg" xmlns:xlink="http://www.w3.org/1999/xlink">
<g id="graph0" class="graph" transform="scale(1 1) rotate(0) translate(4 62)">
<title>SoccerBoard::power</title>
<polygon fill="#ffffff" stroke="transparent" points="-4,4 -4,-62 264,-62 264,4 -4,4"/>
<!-- Node17 -->
<g id="node1" class="node">
<title>Node17</title>
<polygon fill="#bfbfbf" stroke="#000000" points="0,-19.5 0,-38.5 105,-38.5 105,-19.5 0,-19.5"/>
<text text-anchor="middle" x="52.5" y="-26.5" font-family="Helvetica,sans-Serif" font-size="10.00" fill="#000000">SoccerBoard::power</text>
</g>
<!-- Node18 -->
<g id="node2" class="node">
<title>Node18</title>
<g id="a_node2"><a xlink:href="structSoccerBoard.html#a5442e3a7ca58ed90d9e4af0cac83ebdd" target="_top" xlink:title="Set the state of a certain D&#45;pin to LOW. ">
<polygon fill="#ffffff" stroke="#000000" points="141,-38.5 141,-57.5 260,-57.5 260,-38.5 141,-38.5"/>
<text text-anchor="middle" x="200.5" y="-45.5" font-family="Helvetica,sans-Serif" font-size="10.00" fill="#000000">SoccerBoard::powerOff</text>
</a>
</g>
</g>
<!-- Node17&#45;&gt;Node18 -->
<g id="edge1" class="edge">
<title>Node17&#45;&gt;Node18</title>
<path fill="none" stroke="#191970" d="M115.2712,-37.0585C123.7193,-38.143 132.3674,-39.2532 140.761,-40.3308"/>
<polygon fill="#191970" stroke="#191970" points="115.4603,-33.5541 105.096,-35.7522 114.5689,-40.4971 115.4603,-33.5541"/>
</g>
<!-- Node19 -->
<g id="node3" class="node">
<title>Node19</title>
<g id="a_node3"><a xlink:href="structSoccerBoard.html#aa46822d5b727bf3e427c5ceba995f42f" target="_top" xlink:title="Set the state of a certain D&#45;pin to HIGH. ">
<polygon fill="#ffffff" stroke="#000000" points="141.5,-.5 141.5,-19.5 259.5,-19.5 259.5,-.5 141.5,-.5"/>
<text text-anchor="middle" x="200.5" y="-7.5" font-family="Helvetica,sans-Serif" font-size="10.00" fill="#000000">SoccerBoard::powerOn</text>
</a>
</g>
</g>
<!-- Node17&#45;&gt;Node19 -->
<g id="edge2" class="edge">
<title>Node17&#45;&gt;Node19</title>
<path fill="none" stroke="#191970" d="M115.1369,-20.9588C123.7986,-19.8468 132.6731,-18.7075 141.2703,-17.6038"/>
<polygon fill="#191970" stroke="#191970" points="114.5689,-17.5029 105.096,-22.2478 115.4603,-24.4459 114.5689,-17.5029"/>
</g>
</g>
</svg>
