<?xml version="1.0" encoding="UTF-8" standalone="no"?>
<!DOCTYPE svg PUBLIC "-//W3C//DTD SVG 1.1//EN"
 "http://www.w3.org/Graphics/SVG/1.1/DTD/svg11.dtd">
<!-- Generated by graphviz version 2.38.0 (20140413.2041)
 -->
<!-- Title: ServoCds55::sendWait Pages: 1 -->
<!--zoomable 199 -->
<svg id="main" version="1.1" xmlns="http://www.w3.org/2000/svg" xmlns:xlink="http://www.w3.org/1999/xlink" xml:space="preserve" onload="init(evt)">
<style type="text/css"><![CDATA[
.edge:hover path { stroke: red; }
.edge:hover polygon { stroke: red; fill: red; }
]]></style>
<script type="text/javascript"><![CDATA[
var edges = document.getElementsByTagName('g');
if (edges && edges.length) {
  for (var i=0;i<edges.length;i++) {
    if (edges[i].id.substr(0,4)=='edge') {
      edges[i].setAttribute('class','edge');
    }
  }
}
]]></script>
        <defs>
                <circle id="rim" cx="0" cy="0" r="7"/>
                <circle id="rim2" cx="0" cy="0" r="3.5"/>
                <g id="zoomPlus">
                        <use xlink:href="#rim" fill="#404040">
                                <set attributeName="fill" to="#808080" begin="zoomplus.mouseover" end="zoomplus.mouseout"/>
                        </use>
                        <path d="M-4,0h8M0,-4v8" fill="none" stroke="white" stroke-width="1.5" pointer-events="none"/>
                </g>
                <g id="zoomMin">
                        <use xlink:href="#rim" fill="#404040">
                                <set attributeName="fill" to="#808080" begin="zoomminus.mouseover" end="zoomminus.mouseout"/>
                        </use>
                        <path d="M-4,0h8" fill="none" stroke="white" stroke-width="1.5" pointer-events="none"/>
                </g>
                <g id="dirArrow">
                        <path fill="none" stroke="white" stroke-width="1.5" d="M0,-3.0v7 M-2.5,-0.5L0,-3.0L2.5,-0.5"/>
                </g>
               <g id="resetDef">
                       <use xlink:href="#rim2" fill="#404040">
                               <set attributeName="fill" to="#808080" begin="reset.mouseover" end="reset.mouseout"/>
                       </use>
               </g>
        </defs>

<script type="text/javascript">
var viewWidth = 827;
var viewHeight = 199;
var sectionId = 'dynsection-5';
</script>
<script xlink:href="svgpan.js"/>
<svg id="graph" class="graph">
<g id="viewport">
<title>ServoCds55::sendWait</title>
<polygon fill="white" stroke="none" points="-4,4 -4,-195 823,-195 823,4 -4,4"/>
<!-- Node19 -->
<g id="node1" class="node"><title>Node19</title>
<polygon fill="#bfbfbf" stroke="black" points="0,-95.5 0,-114.5 118,-114.5 118,-95.5 0,-95.5"/>
<text text-anchor="middle" x="59" y="-102.5" font-family="Helvetica,sans-Serif" font-size="10.00">ServoCds55::sendWait</text>
</g>
<!-- Node20 -->
<g id="node2" class="node"><title>Node20</title>
<g id="a_node2"><a xlink:href="structServoCds55.html#aaa6a4ae05352b293318fd1c6c7d45c0a" target="_top" xlink:title="ServoCds55::Reset">
<polygon fill="white" stroke="black" points="172.5,-171.5 172.5,-190.5 275.5,-190.5 275.5,-171.5 172.5,-171.5"/>
<text text-anchor="middle" x="224" y="-178.5" font-family="Helvetica,sans-Serif" font-size="10.00">ServoCds55::Reset</text>
</a>
</g>
</g>
<!-- Node19&#45;&gt;Node20 -->
<g id="edge1" class="edge"><title>Node19&#45;&gt;Node20</title>
<path fill="none" stroke="midnightblue" d="M81.3356,-120.298C99.8112,-132.956 127.641,-150.64 154,-162 162.558,-165.688 172.024,-168.846 181.131,-171.468"/>
<polygon fill="midnightblue" stroke="midnightblue" points="83.2709,-117.381 73.0646,-114.538 79.2704,-123.125 83.2709,-117.381"/>
</g>
<!-- Node21 -->
<g id="node3" class="node"><title>Node21</title>
<g id="a_node3"><a xlink:href="structServoCds55.html#a4424d857bb52e7a6e3527209cc83d244" target="_top" xlink:title="ServoCds55::SetID">
<polygon fill="white" stroke="black" points="173,-133.5 173,-152.5 275,-152.5 275,-133.5 173,-133.5"/>
<text text-anchor="middle" x="224" y="-140.5" font-family="Helvetica,sans-Serif" font-size="10.00">ServoCds55::SetID</text>
</a>
</g>
</g>
<!-- Node19&#45;&gt;Node21 -->
<g id="edge2" class="edge"><title>Node19&#45;&gt;Node21</title>
<path fill="none" stroke="midnightblue" d="M111.028,-116.896C133.939,-122.237 160.604,-128.454 182.164,-133.48"/>
<polygon fill="midnightblue" stroke="midnightblue" points="111.665,-113.451 101.132,-114.589 110.076,-120.268 111.665,-113.451"/>
</g>
<!-- Node22 -->
<g id="node4" class="node"><title>Node22</title>
<g id="a_node4"><a xlink:href="structServoCds55.html#ab9e5ab857983d3c0d1eaf43f60c53285" target="_top" xlink:title="ServoCds55::SetMotormode">
<polygon fill="white" stroke="black" points="154,-95.5 154,-114.5 294,-114.5 294,-95.5 154,-95.5"/>
<text text-anchor="middle" x="224" y="-102.5" font-family="Helvetica,sans-Serif" font-size="10.00">ServoCds55::SetMotormode</text>
</a>
</g>
</g>
<!-- Node19&#45;&gt;Node22 -->
<g id="edge3" class="edge"><title>Node19&#45;&gt;Node22</title>
<path fill="none" stroke="midnightblue" d="M128.511,-105C136.909,-105 145.495,-105 153.901,-105"/>
<polygon fill="midnightblue" stroke="midnightblue" points="128.386,-101.5 118.386,-105 128.386,-108.5 128.386,-101.5"/>
</g>
<!-- Node24 -->
<g id="node6" class="node"><title>Node24</title>
<g id="a_node6"><a xlink:href="structServoCds55.html#a5d77d36691d8a0fab7cf841a4feef530" target="_top" xlink:title="ServoCds55::SetServoLimit">
<polygon fill="white" stroke="black" points="155,-57.5 155,-76.5 293,-76.5 293,-57.5 155,-57.5"/>
<text text-anchor="middle" x="224" y="-64.5" font-family="Helvetica,sans-Serif" font-size="10.00">ServoCds55::SetServoLimit</text>
</a>
</g>
</g>
<!-- Node19&#45;&gt;Node24 -->
<g id="edge5" class="edge"><title>Node19&#45;&gt;Node24</title>
<path fill="none" stroke="midnightblue" d="M111.028,-93.1039C133.939,-87.7626 160.604,-81.5463 182.164,-76.5201"/>
<polygon fill="midnightblue" stroke="midnightblue" points="110.076,-89.7319 101.132,-95.411 111.665,-96.5491 110.076,-89.7319"/>
</g>
<!-- Node31 -->
<g id="node13" class="node"><title>Node31</title>
<g id="a_node13"><a xlink:href="structServoCds55.html#a78620c3a9f22c9a37449ba01c5bd08f3" target="_top" xlink:title="ServoCds55::WritePos">
<polygon fill="white" stroke="black" points="165.5,-19.5 165.5,-38.5 282.5,-38.5 282.5,-19.5 165.5,-19.5"/>
<text text-anchor="middle" x="224" y="-26.5" font-family="Helvetica,sans-Serif" font-size="10.00">ServoCds55::WritePos</text>
</a>
</g>
</g>
<!-- Node19&#45;&gt;Node31 -->
<g id="edge13" class="edge"><title>Node19&#45;&gt;Node31</title>
<path fill="none" stroke="midnightblue" d="M81.3356,-89.7015C99.8112,-77.0439 127.641,-59.3595 154,-48 162.558,-44.312 172.024,-41.1541 181.131,-38.5323"/>
<polygon fill="midnightblue" stroke="midnightblue" points="79.2704,-86.8746 73.0646,-95.4618 83.2709,-92.6189 79.2704,-86.8746"/>
</g>
<!-- Node23 -->
<g id="node5" class="node"><title>Node23</title>
<g id="a_node5"><a xlink:href="structServoCds55.html#a3d2a551e816185d455adb5b1add148f9" target="_top" xlink:title="ServoCds55::rotate">
<polygon fill="white" stroke="black" points="330,-95.5 330,-114.5 431,-114.5 431,-95.5 330,-95.5"/>
<text text-anchor="middle" x="380.5" y="-102.5" font-family="Helvetica,sans-Serif" font-size="10.00">ServoCds55::rotate</text>
</a>
</g>
</g>
<!-- Node22&#45;&gt;Node23 -->
<g id="edge4" class="edge"><title>Node22&#45;&gt;Node23</title>
<path fill="none" stroke="midnightblue" d="M304.321,-105C313.024,-105 321.691,-105 329.881,-105"/>
<polygon fill="midnightblue" stroke="midnightblue" points="304.116,-101.5 294.116,-105 304.116,-108.5 304.116,-101.5"/>
</g>
<!-- Node24&#45;&gt;Node23 -->
<g id="edge11" class="edge"><title>Node24&#45;&gt;Node23</title>
<path fill="none" stroke="midnightblue" d="M273.952,-79.04C295.536,-84.3488 320.541,-90.4988 340.793,-95.4799"/>
<polygon fill="midnightblue" stroke="midnightblue" points="274.533,-75.5787 263.987,-76.589 272.862,-82.3762 274.533,-75.5787"/>
</g>
<!-- Node25 -->
<g id="node7" class="node"><title>Node25</title>
<g id="a_node7"><a xlink:href="structServoCds55.html#ab74eb7a47800fedd7405adca0bf1e935" target="_top" xlink:title="ServoCds55::write">
<polygon fill="white" stroke="black" points="331.5,-19.5 331.5,-38.5 429.5,-38.5 429.5,-19.5 331.5,-19.5"/>
<text text-anchor="middle" x="380.5" y="-26.5" font-family="Helvetica,sans-Serif" font-size="10.00">ServoCds55::write</text>
</a>
</g>
</g>
<!-- Node24&#45;&gt;Node25 -->
<g id="edge6" class="edge"><title>Node24&#45;&gt;Node25</title>
<path fill="none" stroke="midnightblue" d="M273.952,-54.96C295.536,-49.6512 320.541,-43.5012 340.793,-38.5201"/>
<polygon fill="midnightblue" stroke="midnightblue" points="272.862,-51.6238 263.987,-57.411 274.533,-58.4213 272.862,-51.6238"/>
</g>
<!-- Node30 -->
<g id="node12" class="node"><title>Node30</title>
<g id="a_node12"><a xlink:href="structAX12Servo.html#a9830f46998b838d3558aaf5245c7960a" target="_top" xlink:title="AX12Servo::setID">
<polygon fill="white" stroke="black" points="332.5,-57.5 332.5,-76.5 428.5,-76.5 428.5,-57.5 332.5,-57.5"/>
<text text-anchor="middle" x="380.5" y="-64.5" font-family="Helvetica,sans-Serif" font-size="10.00">AX12Servo::setID</text>
</a>
</g>
</g>
<!-- Node24&#45;&gt;Node30 -->
<g id="edge12" class="edge"><title>Node24&#45;&gt;Node30</title>
<path fill="none" stroke="midnightblue" d="M303.514,-67C313.412,-67 323.283,-67 332.476,-67"/>
<polygon fill="midnightblue" stroke="midnightblue" points="303.216,-63.5001 293.216,-67 303.216,-70.5001 303.216,-63.5001"/>
</g>
<!-- Node26 -->
<g id="node8" class="node"><title>Node26</title>
<g id="a_node8"><a xlink:href="structSoccerBoard.html#a5039fee586408ce515f300d8db073818" target="_top" xlink:title="SoccerBoard::motor">
<polygon fill="white" stroke="black" points="475.5,-38.5 475.5,-57.5 579.5,-57.5 579.5,-38.5 475.5,-38.5"/>
<text text-anchor="middle" x="527.5" y="-45.5" font-family="Helvetica,sans-Serif" font-size="10.00">SoccerBoard::motor</text>
</a>
</g>
</g>
<!-- Node25&#45;&gt;Node26 -->
<g id="edge7" class="edge"><title>Node25&#45;&gt;Node26</title>
<path fill="none" stroke="midnightblue" d="M439.947,-36.6586C451.701,-38.1988 463.967,-39.8061 475.445,-41.3101"/>
<polygon fill="midnightblue" stroke="midnightblue" points="440.153,-33.1557 429.783,-35.3267 439.243,-40.0964 440.153,-33.1557"/>
</g>
<!-- Node27 -->
<g id="node9" class="node"><title>Node27</title>
<g id="a_node9"><a xlink:href="structAX12Servo.html#ae6005da90335d13c253a246edb247178" target="_top" xlink:title="AX12Servo::setPosition">
<polygon fill="white" stroke="black" points="467,-0.5 467,-19.5 588,-19.5 588,-0.5 467,-0.5"/>
<text text-anchor="middle" x="527.5" y="-7.5" font-family="Helvetica,sans-Serif" font-size="10.00">AX12Servo::setPosition</text>
</a>
</g>
</g>
<!-- Node25&#45;&gt;Node27 -->
<g id="edge8" class="edge"><title>Node25&#45;&gt;Node27</title>
<path fill="none" stroke="midnightblue" d="M439.703,-21.3734C448.63,-20.2036 457.858,-18.9944 466.817,-17.8206"/>
<polygon fill="midnightblue" stroke="midnightblue" points="439.243,-17.9036 429.783,-22.6733 440.153,-24.8443 439.243,-17.9036"/>
</g>
<!-- Node28 -->
<g id="node10" class="node"><title>Node28</title>
<g id="a_node10"><a xlink:href="structDynamixelBoard.html#a9b6d6166eaa2c42e87f424b54edce510" target="_top" xlink:title="DynamixelBoard::action">
<polygon fill="white" stroke="black" points="624,-0.5 624,-19.5 745,-19.5 745,-0.5 624,-0.5"/>
<text text-anchor="middle" x="684.5" y="-7.5" font-family="Helvetica,sans-Serif" font-size="10.00">DynamixelBoard::action</text>
</a>
</g>
</g>
<!-- Node27&#45;&gt;Node28 -->
<g id="edge9" class="edge"><title>Node27&#45;&gt;Node28</title>
<path fill="none" stroke="midnightblue" d="M598.661,-10C607.122,-10 615.7,-10 623.988,-10"/>
<polygon fill="midnightblue" stroke="midnightblue" points="598.427,-6.5001 588.427,-10 598.427,-13.5001 598.427,-6.5001"/>
</g>
<!-- Node29 -->
<g id="node11" class="node"><title>Node29</title>
<g id="a_node11"><a xlink:href="lcd__debug_8cpp.html#ae66f6b31b5ad750f1fe042a706a4e3d4" target="_top" xlink:title="main">
<polygon fill="white" stroke="black" points="781,-0.5 781,-19.5 819,-19.5 819,-0.5 781,-0.5"/>
<text text-anchor="middle" x="800" y="-7.5" font-family="Helvetica,sans-Serif" font-size="10.00">main</text>
</a>
</g>
</g>
<!-- Node28&#45;&gt;Node29 -->
<g id="edge10" class="edge"><title>Node28&#45;&gt;Node29</title>
<path fill="none" stroke="midnightblue" d="M755.529,-10C764.874,-10 773.709,-10 780.943,-10"/>
<polygon fill="midnightblue" stroke="midnightblue" points="755.241,-6.5001 745.241,-10 755.241,-13.5001 755.241,-6.5001"/>
</g>
<!-- Node31&#45;&gt;Node25 -->
<g id="edge14" class="edge"><title>Node31&#45;&gt;Node25</title>
<path fill="none" stroke="midnightblue" d="M292.761,-29C305.648,-29 318.894,-29 331.033,-29"/>
<polygon fill="midnightblue" stroke="midnightblue" points="292.53,-25.5001 282.53,-29 292.53,-32.5001 292.53,-25.5001"/>
</g>
</g>
</svg>
        <g id="navigator" transform="translate(0 0)" fill="#404254">
                <rect fill="#f2f5e9" fill-opacity="0.5" stroke="#606060" stroke-width=".5" x="0" y="0" width="60" height="60"/>
                <use id="zoomplus" xlink:href="#zoomPlus" x="17" y="9" onmousedown="handleZoom(evt,'in')"/>
                <use id="zoomminus" xlink:href="#zoomMin" x="42" y="9" onmousedown="handleZoom(evt,'out')"/>
                <use id="reset" xlink:href="#resetDef" x="30" y="36" onmousedown="handleReset()"/>
                <g id="arrowUp" xlink:href="#dirArrow" transform="translate(30 24)" onmousedown="handlePan(0,-1)">
                  <use xlink:href="#rim" fill="#404040">
                        <set attributeName="fill" to="#808080" begin="arrowUp.mouseover" end="arrowUp.mouseout"/>
                  </use>
                  <path fill="none" stroke="white" stroke-width="1.5" d="M0,-3.0v7 M-2.5,-0.5L0,-3.0L2.5,-0.5"/>
                </g>
                <g id="arrowRight" xlink:href="#dirArrow" transform="rotate(90) translate(36 -43)" onmousedown="handlePan(1,0)">
                  <use xlink:href="#rim" fill="#404040">
                        <set attributeName="fill" to="#808080" begin="arrowRight.mouseover" end="arrowRight.mouseout"/>
                  </use>
                  <path fill="none" stroke="white" stroke-width="1.5" d="M0,-3.0v7 M-2.5,-0.5L0,-3.0L2.5,-0.5"/>
                </g>
                <g id="arrowDown" xlink:href="#dirArrow" transform="rotate(180) translate(-30 -48)" onmousedown="handlePan(0,1)">
                  <use xlink:href="#rim" fill="#404040">
                        <set attributeName="fill" to="#808080" begin="arrowDown.mouseover" end="arrowDown.mouseout"/>
                  </use>
                  <path fill="none" stroke="white" stroke-width="1.5" d="M0,-3.0v7 M-2.5,-0.5L0,-3.0L2.5,-0.5"/>
                </g>
                <g id="arrowLeft" xlink:href="#dirArrow" transform="rotate(270) translate(-36 17)" onmousedown="handlePan(-1,0)">
                  <use xlink:href="#rim" fill="#404040">
                        <set attributeName="fill" to="#808080" begin="arrowLeft.mouseover" end="arrowLeft.mouseout"/>
                  </use>
                  <path fill="none" stroke="white" stroke-width="1.5" d="M0,-3.0v7 M-2.5,-0.5L0,-3.0L2.5,-0.5"/>
                </g>
        </g>
        <svg viewBox="0 0 15 15" width="100%" height="30px" preserveAspectRatio="xMaxYMin meet">
         <g id="arrow_out" transform="scale(0.3 0.3)">
          <a xlink:href="structServoCds55_a0ddbf204d991dae881cc22b8985efee3_icgraph_org.svg" target="_base">
           <rect id="button" ry="5" rx="5" y="6" x="6" height="38" width="38"
                fill="#f2f5e9" fill-opacity="0.5" stroke="#606060" stroke-width="1.0"/>
           <path id="arrow"
             d="M 11.500037,31.436501 C 11.940474,20.09759 22.043105,11.32322 32.158766,21.979434 L 37.068811,17.246167 C 37.068811,17.246167 37.088388,32 37.088388,32 L 22.160133,31.978069 C 22.160133,31.978069 26.997745,27.140456 26.997745,27.140456 C 18.528582,18.264221 13.291696,25.230495 11.500037,31.436501 z"
             style="fill:#404040;"/>
          </a>
         </g>
        </svg>
</svg>
