<?xml version="1.0" encoding="UTF-8" standalone="no"?>
<!DOCTYPE svg PUBLIC "-//W3C//DTD SVG 1.1//EN"
 "http://www.w3.org/Graphics/SVG/1.1/DTD/svg11.dtd">
<!-- Generated by graphviz version 2.40.1 (20161225.0304)
 -->
<!-- Title: DynamixelBoard Pages: 1 -->
<svg width="128pt" height="95pt"
 viewBox="0.00 0.00 128.00 95.00" xmlns="http://www.w3.org/2000/svg" xmlns:xlink="http://www.w3.org/1999/xlink">
<g id="graph0" class="graph" transform="scale(1 1) rotate(0) translate(4 91)">
<title>DynamixelBoard</title>
<polygon fill="#ffffff" stroke="transparent" points="-4,4 -4,-91 124,-91 124,4 -4,4"/>
<!-- Node1 -->
<g id="node1" class="node">
<title>Node1</title>
<polygon fill="#bfbfbf" stroke="#000000" points="0,-67.5 0,-86.5 98,-86.5 98,-67.5 0,-67.5"/>
<text text-anchor="middle" x="49" y="-74.5" font-family="RobotoMono" font-size="10.00" fill="#000000">DynamixelBoard</text>
</g>
<!-- Node2 -->
<g id="node2" class="node">
<title>Node2</title>
<g id="a_node2"><a xlink:href="structAX12Servo.html" target="_top" xlink:title="This is the AX12Servo ghost struct :D. ">
<polygon fill="#ffffff" stroke="#000000" points="14,-.5 14,-19.5 84,-19.5 84,-.5 14,-.5"/>
<text text-anchor="middle" x="49" y="-7.5" font-family="RobotoMono" font-size="10.00" fill="#000000">AX12Servo</text>
</a>
</g>
</g>
<!-- Node1&#45;&gt;Node2 -->
<g id="edge2" class="edge">
<title>Node1&#45;&gt;Node2</title>
<path fill="none" stroke="#9a32cd" stroke-dasharray="5,2" d="M17.7036,-62.2355C8.4569,-55.6991 1.9886,-47.3639 7,-38 11.2178,-30.1189 18.7422,-24.073 26.2686,-19.651"/>
<polygon fill="#9a32cd" stroke="#9a32cd" points="15.9667,-65.2758 26.326,-67.4973 19.6131,-59.3005 15.9667,-65.2758"/>
<text text-anchor="middle" x="34.5" y="-41" font-family="RobotoMono" font-size="10.00" fill="#000000"> _conBoard</text>
</g>
<!-- Node2&#45;&gt;Node1 -->
<g id="edge1" class="edge">
<title>Node2&#45;&gt;Node1</title>
<path fill="none" stroke="#9a32cd" stroke-dasharray="5,2" d="M62.6531,-28.2457C65.9124,-34.6662 67.9523,-42.0227 66,-49 64.1612,-55.5719 60.3109,-62.135 56.7389,-67.2535"/>
<polygon fill="#9a32cd" stroke="#9a32cd" points="65.5739,-26.3146 57.3283,-19.6617 59.6254,-30.0045 65.5739,-26.3146"/>
<text text-anchor="middle" x="93" y="-41" font-family="RobotoMono" font-size="10.00" fill="#000000"> connected</text>
</g>
</g>
</svg>
