<?xml version="1.0" encoding="UTF-8" standalone="no"?>
<!DOCTYPE svg PUBLIC "-//W3C//DTD SVG 1.1//EN"
 "http://www.w3.org/Graphics/SVG/1.1/DTD/svg11.dtd">
<!-- Generated by graphviz version 2.38.0 (20140413.2041)
 -->
<!-- Title: ServoCds55::begin Pages: 1 -->
<svg width="255pt" height="88pt"
 viewBox="0.00 0.00 255.00 88.00" xmlns="http://www.w3.org/2000/svg" xmlns:xlink="http://www.w3.org/1999/xlink">
<g id="graph0" class="graph" transform="scale(1 1) rotate(0) translate(4 84)">
<title>ServoCds55::begin</title>
<polygon fill="white" stroke="none" points="-4,4 -4,-84 251,-84 251,4 -4,4"/>
<!-- Node2 -->
<g id="node1" class="node"><title>Node2</title>
<polygon fill="#bfbfbf" stroke="black" points="0,-30 0,-49 100,-49 100,-30 0,-30"/>
<text text-anchor="middle" x="50" y="-37" font-family="Helvetica,sans-Serif" font-size="10.00">ServoCds55::begin</text>
</g>
<!-- Node3 -->
<g id="node2" class="node"><title>Node3</title>
<g id="a_node2"><a xlink:href="structeagle__impl_1_1SPIClass.html#a95193d135059e061214bb5348cda14fa" target="_top" xlink:title="eagle_impl::SPIClass\l::begin">
<polygon fill="white" stroke="black" points="136,-49.5 136,-79.5 247,-79.5 247,-49.5 136,-49.5"/>
<text text-anchor="start" x="144" y="-67.5" font-family="Helvetica,sans-Serif" font-size="10.00">eagle_impl::SPIClass</text>
<text text-anchor="middle" x="191.5" y="-56.5" font-family="Helvetica,sans-Serif" font-size="10.00">::begin</text>
</a>
</g>
</g>
<!-- Node2&#45;&gt;Node3 -->
<g id="edge1" class="edge"><title>Node2&#45;&gt;Node3</title>
<path fill="none" stroke="midnightblue" d="M100.182,-48.3141C108.414,-49.7893 117.065,-51.3397 125.619,-52.8725"/>
<polygon fill="midnightblue" stroke="midnightblue" points="125.123,-56.3393 135.583,-54.6583 126.358,-49.4491 125.123,-56.3393"/>
</g>
<!-- Node4 -->
<g id="node3" class="node"><title>Node4</title>
<g id="a_node3"><a xlink:href="structeagle__impl_1_1SPIClass.html#a0a57f81d62a46c6419c14006cbb2cc5a" target="_top" xlink:title="eagle_impl::SPIClass\l::setClockDivider">
<polygon fill="white" stroke="black" points="136,-0.5 136,-30.5 247,-30.5 247,-0.5 136,-0.5"/>
<text text-anchor="start" x="144" y="-18.5" font-family="Helvetica,sans-Serif" font-size="10.00">eagle_impl::SPIClass</text>
<text text-anchor="middle" x="191.5" y="-7.5" font-family="Helvetica,sans-Serif" font-size="10.00">::setClockDivider</text>
</a>
</g>
</g>
<!-- Node2&#45;&gt;Node4 -->
<g id="edge2" class="edge"><title>Node2&#45;&gt;Node4</title>
<path fill="none" stroke="midnightblue" d="M100.182,-31.0385C108.414,-29.6223 117.065,-28.1339 125.619,-26.6624"/>
<polygon fill="midnightblue" stroke="midnightblue" points="126.322,-30.093 135.583,-24.948 125.135,-23.1943 126.322,-30.093"/>
</g>
</g>
</svg>
