<?xml version="1.0" encoding="UTF-8" standalone="no"?>
<!DOCTYPE svg PUBLIC "-//W3C//DTD SVG 1.1//EN"
 "http://www.w3.org/Graphics/SVG/1.1/DTD/svg11.dtd">
<!-- Generated by graphviz version 2.38.0 (20140413.2041)
 -->
<!-- Title: AX12Servo::setSpeed Pages: 1 -->
<svg width="207pt" height="46pt"
 viewBox="0.00 0.00 207.00 46.00" xmlns="http://www.w3.org/2000/svg" xmlns:xlink="http://www.w3.org/1999/xlink">
<g id="graph0" class="graph" transform="scale(1 1) rotate(0) translate(4 42)">
<title>AX12Servo::setSpeed</title>
<polygon fill="white" stroke="none" points="-4,4 -4,-42 203,-42 203,4 -4,4"/>
<!-- Node31 -->
<g id="node1" class="node"><title>Node31</title>
<polygon fill="#bfbfbf" stroke="black" points="0,-0.5 0,-19.5 113,-19.5 113,-0.5 0,-0.5"/>
<text text-anchor="middle" x="56.5" y="-7.5" font-family="Helvetica,sans-Serif" font-size="10.00">AX12Servo::setSpeed</text>
</g>
<!-- Node32 -->
<g id="node2" class="node"><title>Node32</title>
<g id="a_node2"><a xlink:href="eBoard__comment_8h.html#aca4f96af7c6736bf2b61c88d731af741" target="_top" xlink:title="read a digital state from an INPUTpin ">
<polygon fill="white" stroke="black" points="149,-0.5 149,-19.5 199,-19.5 199,-0.5 149,-0.5"/>
<text text-anchor="middle" x="174" y="-7.5" font-family="Helvetica,sans-Serif" font-size="10.00">readPin</text>
</a>
</g>
</g>
<!-- Node31&#45;&gt;Node32 -->
<g id="edge1" class="edge"><title>Node31&#45;&gt;Node32</title>
<path fill="none" stroke="midnightblue" d="M123.224,-10C132.385,-10 141.274,-10 148.943,-10"/>
<polygon fill="midnightblue" stroke="midnightblue" points="123.22,-6.5001 113.22,-10 123.22,-13.5001 123.22,-6.5001"/>
</g>
<!-- Node32&#45;&gt;Node32 -->
<g id="edge2" class="edge"><title>Node32&#45;&gt;Node32</title>
<path fill="none" stroke="midnightblue" d="M152.52,-29.4C153.954,-34.3146 161.114,-38 174,-38 194.617,-38 200.577,-28.5653 191.879,-19.7571"/>
<polygon fill="midnightblue" stroke="midnightblue" points="155.901,-30.3496 156.121,-19.7571 149.343,-27.9004 155.901,-30.3496"/>
</g>
</g>
</svg>
