<?xml version="1.0" encoding="UTF-8" standalone="no"?>
<!DOCTYPE svg PUBLIC "-//W3C//DTD SVG 1.1//EN"
 "http://www.w3.org/Graphics/SVG/1.1/DTD/svg11.dtd">
<!-- Generated by graphviz version 2.38.0 (20140413.2041)
 -->
<!-- Title: SoccerBoard::powerOff Pages: 1 -->
<!--zoomable 117 -->
<svg id="main" version="1.1" xmlns="http://www.w3.org/2000/svg" xmlns:xlink="http://www.w3.org/1999/xlink" xml:space="preserve" onload="init(evt)">
<style type="text/css"><![CDATA[
.edge:hover path { stroke: red; }
.edge:hover polygon { stroke: red; fill: red; }
]]></style>
<script type="text/javascript"><![CDATA[
var edges = document.getElementsByTagName('g');
if (edges && edges.length) {
  for (var i=0;i<edges.length;i++) {
    if (edges[i].id.substr(0,4)=='edge') {
      edges[i].setAttribute('class','edge');
    }
  }
}
]]></script>
        <defs>
                <circle id="rim" cx="0" cy="0" r="7"/>
                <circle id="rim2" cx="0" cy="0" r="3.5"/>
                <g id="zoomPlus">
                        <use xlink:href="#rim" fill="#404040">
                                <set attributeName="fill" to="#808080" begin="zoomplus.mouseover" end="zoomplus.mouseout"/>
                        </use>
                        <path d="M-4,0h8M0,-4v8" fill="none" stroke="white" stroke-width="1.5" pointer-events="none"/>
                </g>
                <g id="zoomMin">
                        <use xlink:href="#rim" fill="#404040">
                                <set attributeName="fill" to="#808080" begin="zoomminus.mouseover" end="zoomminus.mouseout"/>
                        </use>
                        <path d="M-4,0h8" fill="none" stroke="white" stroke-width="1.5" pointer-events="none"/>
                </g>
                <g id="dirArrow">
                        <path fill="none" stroke="white" stroke-width="1.5" d="M0,-3.0v7 M-2.5,-0.5L0,-3.0L2.5,-0.5"/>
                </g>
               <g id="resetDef">
                       <use xlink:href="#rim2" fill="#404040">
                               <set attributeName="fill" to="#808080" begin="reset.mouseover" end="reset.mouseout"/>
                       </use>
               </g>
        </defs>

<script type="text/javascript">
var viewWidth = 546;
var viewHeight = 117;
var sectionId = 'dynsection-12';
</script>
<script xlink:href="svgpan.js"/>
<svg id="graph" class="graph">
<g id="viewport">
<title>SoccerBoard::powerOff</title>
<polygon fill="white" stroke="none" points="-4,4 -4,-113.226 542,-113.226 542,4 -4,4"/>
<!-- Node108 -->
<g id="node1" class="node"><title>Node108</title>
<polygon fill="#bfbfbf" stroke="black" points="0,-57.5 0,-76.5 119,-76.5 119,-57.5 0,-57.5"/>
<text text-anchor="middle" x="59.5" y="-64.5" font-family="Helvetica,sans-Serif" font-size="10.00">SoccerBoard::powerOff</text>
</g>
<!-- Node109 -->
<g id="node2" class="node"><title>Node109</title>
<g id="a_node2"><a xlink:href="structSoccerBoard.html#a04c6b8fd4b6d1cd24be9c1b3291dbf06" target="_top" xlink:title="SoccerBoard::power">
<polygon fill="white" stroke="black" points="155,-57.5 155,-76.5 260,-76.5 260,-57.5 155,-57.5"/>
<text text-anchor="middle" x="207.5" y="-64.5" font-family="Helvetica,sans-Serif" font-size="10.00">SoccerBoard::power</text>
</a>
</g>
</g>
<!-- Node108&#45;&gt;Node109 -->
<g id="edge1" class="edge"><title>Node108&#45;&gt;Node109</title>
<path fill="none" stroke="midnightblue" d="M119.043,-67C127.39,-67 136,-67 144.412,-67"/>
<polygon fill="midnightblue" stroke="midnightblue" points="144.544,-70.5001 154.544,-67 144.544,-63.5001 144.544,-70.5001"/>
</g>
<!-- Node110 -->
<g id="node3" class="node"><title>Node110</title>
<g id="a_node3"><a xlink:href="eBoard_8h.html#ad6d4c1b1e3b495ed81fb28fac04d2bd6" target="_top" xlink:title="write a boolean state to an output pin ">
<polygon fill="white" stroke="black" points="296,-57.5 296,-76.5 348,-76.5 348,-57.5 296,-57.5"/>
<text text-anchor="middle" x="322" y="-64.5" font-family="Helvetica,sans-Serif" font-size="10.00">writePin</text>
</a>
</g>
</g>
<!-- Node109&#45;&gt;Node110 -->
<g id="edge2" class="edge"><title>Node109&#45;&gt;Node110</title>
<path fill="none" stroke="midnightblue" d="M260.14,-67C268.735,-67 277.475,-67 285.549,-67"/>
<polygon fill="midnightblue" stroke="midnightblue" points="285.711,-70.5001 295.711,-67 285.711,-63.5001 285.711,-70.5001"/>
</g>
<!-- Node111 -->
<g id="node4" class="node"><title>Node111</title>
<g id="a_node4"><a xlink:href="eBoard_8h.html#a757015d50a6c57414603841f728b670b" target="_top" xlink:title="[DEBUG_MODE] used to check if a pin index is in bounds ">
<polygon fill="white" stroke="black" points="482,-76.5 482,-95.5 538,-95.5 538,-76.5 482,-76.5"/>
<text text-anchor="middle" x="510" y="-83.5" font-family="Helvetica,sans-Serif" font-size="10.00">checkIdx</text>
</a>
</g>
</g>
<!-- Node110&#45;&gt;Node111 -->
<g id="edge3" class="edge"><title>Node110&#45;&gt;Node111</title>
<path fill="none" stroke="midnightblue" d="M334.203,-76.7076C345.777,-86.0392 364.806,-99.5106 384,-105 414.369,-113.685 450.092,-106.603 475.555,-98.7356"/>
<polygon fill="midnightblue" stroke="midnightblue" points="476.707,-102.041 485.116,-95.5959 474.523,-95.3906 476.707,-102.041"/>
</g>
<!-- Node112 -->
<g id="node5" class="node"><title>Node112</title>
<g id="a_node5"><a xlink:href="eBoard_8h.html#a06400a6dce24e4eda610644893c1bbd7" target="_top" xlink:title="[COPY&amp;PASTE] [CHECK_PINS] Check if a pin is set to a specific mode ">
<polygon fill="white" stroke="black" points="386.5,-76.5 386.5,-95.5 443.5,-95.5 443.5,-76.5 386.5,-76.5"/>
<text text-anchor="middle" x="415" y="-83.5" font-family="Helvetica,sans-Serif" font-size="10.00">checkPin</text>
</a>
</g>
</g>
<!-- Node110&#45;&gt;Node112 -->
<g id="edge4" class="edge"><title>Node110&#45;&gt;Node112</title>
<path fill="none" stroke="midnightblue" d="M348.349,-72.2926C357,-74.0988 366.869,-76.1594 376.28,-78.1244"/>
<polygon fill="midnightblue" stroke="midnightblue" points="375.729,-81.5848 386.234,-80.2026 377.16,-74.7326 375.729,-81.5848"/>
</g>
<!-- Node113 -->
<g id="node6" class="node"><title>Node113</title>
<g id="a_node6"><a xlink:href="eBoard_8h.html#a78b0e873cb50c282c6243d4913406be4" target="_top" xlink:title="[COPY&amp;PASTE] set a pin to a certain mode =&gt; checkPin() will return true then ">
<polygon fill="white" stroke="black" points="393,-38.5 393,-57.5 437,-57.5 437,-38.5 393,-38.5"/>
<text text-anchor="middle" x="415" y="-45.5" font-family="Helvetica,sans-Serif" font-size="10.00">setPin</text>
</a>
</g>
</g>
<!-- Node110&#45;&gt;Node113 -->
<g id="edge6" class="edge"><title>Node110&#45;&gt;Node113</title>
<path fill="none" stroke="midnightblue" d="M348.349,-61.7074C359.059,-59.4712 371.636,-56.8452 382.9,-54.4933"/>
<polygon fill="midnightblue" stroke="midnightblue" points="383.711,-57.8996 392.785,-52.4296 382.28,-51.0474 383.711,-57.8996"/>
</g>
<!-- Node114 -->
<g id="node7" class="node"><title>Node114</title>
<g id="a_node7"><a xlink:href="eBoard_8h.html#ad6372ab439a73887b0800cc695599436" target="_top" xlink:title="[SHIFT] Changes a single output Pin ">
<polygon fill="white" stroke="black" points="384,-0.5 384,-19.5 446,-19.5 446,-0.5 384,-0.5"/>
<text text-anchor="middle" x="415" y="-7.5" font-family="Helvetica,sans-Serif" font-size="10.00">shiftSingle</text>
</a>
</g>
</g>
<!-- Node110&#45;&gt;Node114 -->
<g id="edge8" class="edge"><title>Node110&#45;&gt;Node114</title>
<path fill="none" stroke="midnightblue" d="M338.437,-57.3307C352.642,-48.4333 373.922,-35.1038 390.284,-24.8554"/>
<polygon fill="midnightblue" stroke="midnightblue" points="392.174,-27.801 398.791,-19.5265 388.458,-21.8687 392.174,-27.801"/>
</g>
<!-- Node112&#45;&gt;Node111 -->
<g id="edge5" class="edge"><title>Node112&#45;&gt;Node111</title>
<path fill="none" stroke="midnightblue" d="M443.651,-86C452.443,-86 462.317,-86 471.675,-86"/>
<polygon fill="midnightblue" stroke="midnightblue" points="471.936,-89.5001 481.936,-86 471.936,-82.5001 471.936,-89.5001"/>
</g>
<!-- Node113&#45;&gt;Node111 -->
<g id="edge7" class="edge"><title>Node113&#45;&gt;Node111</title>
<path fill="none" stroke="midnightblue" d="M437.103,-56.6228C448.634,-61.3342 463.17,-67.2736 476.149,-72.577"/>
<polygon fill="midnightblue" stroke="midnightblue" points="475.114,-75.9351 485.695,-76.4777 477.762,-69.4552 475.114,-75.9351"/>
</g>
<!-- Node115 -->
<g id="node8" class="node"><title>Node115</title>
<g id="a_node8"><a xlink:href="eBoard_8h.html#aa0a7f697a49b0d038631c64e945f5c1a" target="_top" xlink:title="[SHIFT] Changes bits according to store_bits ">
<polygon fill="white" stroke="black" points="486.5,-0.5 486.5,-19.5 533.5,-19.5 533.5,-0.5 486.5,-0.5"/>
<text text-anchor="middle" x="510" y="-7.5" font-family="Helvetica,sans-Serif" font-size="10.00">shiftAll</text>
</a>
</g>
</g>
<!-- Node114&#45;&gt;Node115 -->
<g id="edge9" class="edge"><title>Node114&#45;&gt;Node115</title>
<path fill="none" stroke="midnightblue" d="M446.194,-10C455.776,-10 466.415,-10 476.173,-10"/>
<polygon fill="midnightblue" stroke="midnightblue" points="476.323,-13.5001 486.323,-10 476.323,-6.5001 476.323,-13.5001"/>
</g>
</g>
</svg>
        <g id="navigator" transform="translate(0 0)" fill="#404254">
                <rect fill="#f2f5e9" fill-opacity="0.5" stroke="#606060" stroke-width=".5" x="0" y="0" width="60" height="60"/>
                <use id="zoomplus" xlink:href="#zoomPlus" x="17" y="9" onmousedown="handleZoom(evt,'in')"/>
                <use id="zoomminus" xlink:href="#zoomMin" x="42" y="9" onmousedown="handleZoom(evt,'out')"/>
                <use id="reset" xlink:href="#resetDef" x="30" y="36" onmousedown="handleReset()"/>
                <g id="arrowUp" xlink:href="#dirArrow" transform="translate(30 24)" onmousedown="handlePan(0,-1)">
                  <use xlink:href="#rim" fill="#404040">
                        <set attributeName="fill" to="#808080" begin="arrowUp.mouseover" end="arrowUp.mouseout"/>
                  </use>
                  <path fill="none" stroke="white" stroke-width="1.5" d="M0,-3.0v7 M-2.5,-0.5L0,-3.0L2.5,-0.5"/>
                </g>
                <g id="arrowRight" xlink:href="#dirArrow" transform="rotate(90) translate(36 -43)" onmousedown="handlePan(1,0)">
                  <use xlink:href="#rim" fill="#404040">
                        <set attributeName="fill" to="#808080" begin="arrowRight.mouseover" end="arrowRight.mouseout"/>
                  </use>
                  <path fill="none" stroke="white" stroke-width="1.5" d="M0,-3.0v7 M-2.5,-0.5L0,-3.0L2.5,-0.5"/>
                </g>
                <g id="arrowDown" xlink:href="#dirArrow" transform="rotate(180) translate(-30 -48)" onmousedown="handlePan(0,1)">
                  <use xlink:href="#rim" fill="#404040">
                        <set attributeName="fill" to="#808080" begin="arrowDown.mouseover" end="arrowDown.mouseout"/>
                  </use>
                  <path fill="none" stroke="white" stroke-width="1.5" d="M0,-3.0v7 M-2.5,-0.5L0,-3.0L2.5,-0.5"/>
                </g>
                <g id="arrowLeft" xlink:href="#dirArrow" transform="rotate(270) translate(-36 17)" onmousedown="handlePan(-1,0)">
                  <use xlink:href="#rim" fill="#404040">
                        <set attributeName="fill" to="#808080" begin="arrowLeft.mouseover" end="arrowLeft.mouseout"/>
                  </use>
                  <path fill="none" stroke="white" stroke-width="1.5" d="M0,-3.0v7 M-2.5,-0.5L0,-3.0L2.5,-0.5"/>
                </g>
        </g>
        <svg viewBox="0 0 15 15" width="100%" height="30px" preserveAspectRatio="xMaxYMin meet">
         <g id="arrow_out" transform="scale(0.3 0.3)">
          <a xlink:href="structSoccerBoard_a5442e3a7ca58ed90d9e4af0cac83ebdd_cgraph_org.svg" target="_base">
           <rect id="button" ry="5" rx="5" y="6" x="6" height="38" width="38"
                fill="#f2f5e9" fill-opacity="0.5" stroke="#606060" stroke-width="1.0"/>
           <path id="arrow"
             d="M 11.500037,31.436501 C 11.940474,20.09759 22.043105,11.32322 32.158766,21.979434 L 37.068811,17.246167 C 37.068811,17.246167 37.088388,32 37.088388,32 L 22.160133,31.978069 C 22.160133,31.978069 26.997745,27.140456 26.997745,27.140456 C 18.528582,18.264221 13.291696,25.230495 11.500037,31.436501 z"
             style="fill:#404040;"/>
          </a>
         </g>
        </svg>
</svg>
