<?xml version="1.0" encoding="UTF-8" standalone="no"?>
<!DOCTYPE svg PUBLIC "-//W3C//DTD SVG 1.1//EN"
 "http://www.w3.org/Graphics/SVG/1.1/DTD/svg11.dtd">
<!-- Generated by graphviz version 2.38.0 (20140413.2041)
 -->
<!-- Title: NeoPixel::NeoPixel Pages: 1 -->
<svg width="196pt" height="46pt"
 viewBox="0.00 0.00 196.00 46.00" xmlns="http://www.w3.org/2000/svg" xmlns:xlink="http://www.w3.org/1999/xlink">
<g id="graph0" class="graph" transform="scale(1 1) rotate(0) translate(4 42)">
<title>NeoPixel::NeoPixel</title>
<polygon fill="white" stroke="none" points="-4,4 -4,-42 192,-42 192,4 -4,4"/>
<!-- Node3 -->
<g id="node1" class="node"><title>Node3</title>
<polygon fill="#bfbfbf" stroke="black" points="0,-0.5 0,-19.5 102,-19.5 102,-0.5 0,-0.5"/>
<text text-anchor="middle" x="51" y="-7.5" font-family="Helvetica,sans-Serif" font-size="10.00">NeoPixel::NeoPixel</text>
</g>
<!-- Node4 -->
<g id="node2" class="node"><title>Node4</title>
<g id="a_node2"><a xlink:href="eBoard__comment_8h.html#aca4f96af7c6736bf2b61c88d731af741" target="_top" xlink:title="read a digital state from an INPUTpin ">
<polygon fill="white" stroke="black" points="138,-0.5 138,-19.5 188,-19.5 188,-0.5 138,-0.5"/>
<text text-anchor="middle" x="163" y="-7.5" font-family="Helvetica,sans-Serif" font-size="10.00">readPin</text>
</a>
</g>
</g>
<!-- Node3&#45;&gt;Node4 -->
<g id="edge1" class="edge"><title>Node3&#45;&gt;Node4</title>
<path fill="none" stroke="midnightblue" d="M112.419,-10C121.468,-10 130.32,-10 137.981,-10"/>
<polygon fill="midnightblue" stroke="midnightblue" points="112.172,-6.5001 102.172,-10 112.172,-13.5001 112.172,-6.5001"/>
</g>
<!-- Node4&#45;&gt;Node4 -->
<g id="edge2" class="edge"><title>Node4&#45;&gt;Node4</title>
<path fill="none" stroke="midnightblue" d="M142.26,-29.4C143.645,-34.3146 150.559,-38 163,-38 182.906,-38 188.66,-28.5653 180.262,-19.7571"/>
<polygon fill="midnightblue" stroke="midnightblue" points="145.638,-30.3514 145.738,-19.7571 139.053,-27.9768 145.638,-30.3514"/>
</g>
</g>
</svg>
