<?xml version="1.0" encoding="UTF-8" standalone="no"?>
<!DOCTYPE svg PUBLIC "-//W3C//DTD SVG 1.1//EN"
 "http://www.w3.org/Graphics/SVG/1.1/DTD/svg11.dtd">
<!-- Generated by graphviz version 2.38.0 (20140413.2041)
 -->
<!-- Title: LCD::changeBrightness Pages: 1 -->
<svg width="975pt" height="368pt"
 viewBox="0.00 0.00 975.00 368.00" xmlns="http://www.w3.org/2000/svg" xmlns:xlink="http://www.w3.org/1999/xlink">
<g id="graph0" class="graph" transform="scale(1 1) rotate(0) translate(4 364)">
<title>LCD::changeBrightness</title>
<polygon fill="white" stroke="none" points="-4,4 -4,-364 971,-364 971,4 -4,4"/>
<!-- Node36 -->
<g id="node1" class="node"><title>Node36</title>
<polygon fill="#bfbfbf" stroke="black" points="0,-198.5 0,-217.5 121,-217.5 121,-198.5 0,-198.5"/>
<text text-anchor="middle" x="60.5" y="-205.5" font-family="Helvetica,sans-Serif" font-size="10.00">LCD::changeBrightness</text>
</g>
<!-- Node37 -->
<g id="node2" class="node"><title>Node37</title>
<g id="a_node2"><a xlink:href="classeagle__impl_1_1TwoWire.html#a1876ffdb16fb185c14a75e1251cef5e4" target="_top" xlink:title="eagle_impl::TwoWire\l::beginTransmission">
<polygon fill="white" stroke="black" points="753,-258 753,-288 861,-288 861,-258 753,-258"/>
<text text-anchor="start" x="761" y="-276" font-family="Helvetica,sans-Serif" font-size="10.00">eagle_impl::TwoWire</text>
<text text-anchor="middle" x="807" y="-265" font-family="Helvetica,sans-Serif" font-size="10.00">::beginTransmission</text>
</a>
</g>
</g>
<!-- Node36&#45;&gt;Node37 -->
<g id="edge1" class="edge"><title>Node36&#45;&gt;Node37</title>
<path fill="none" stroke="midnightblue" d="M69.444,-217.508C98.1935,-250.785 200.935,-360 311,-360 311,-360 311,-360 571,-360 647.358,-360 729.476,-319.105 773.564,-293.391"/>
<polygon fill="midnightblue" stroke="midnightblue" points="775.569,-296.271 782.378,-288.154 771.993,-290.253 775.569,-296.271"/>
</g>
<!-- Node38 -->
<g id="node3" class="node"><title>Node38</title>
<g id="a_node3"><a xlink:href="classeagle__impl_1_1TwoWire.html#af80f9a7b85a3a81a035ca94c95bcdc1d" target="_top" xlink:title="eagle_impl::TwoWire\l::endTransmission">
<polygon fill="white" stroke="black" points="753,-160 753,-190 861,-190 861,-160 753,-160"/>
<text text-anchor="start" x="761" y="-178" font-family="Helvetica,sans-Serif" font-size="10.00">eagle_impl::TwoWire</text>
<text text-anchor="middle" x="807" y="-167" font-family="Helvetica,sans-Serif" font-size="10.00">::endTransmission</text>
</a>
</g>
</g>
<!-- Node36&#45;&gt;Node38 -->
<g id="edge2" class="edge"><title>Node36&#45;&gt;Node38</title>
<path fill="none" stroke="midnightblue" d="M66.7532,-198.247C89.6867,-157.124 185.523,-0 311,-0 311,-0 311,-0 571,-0 671.325,-0 756.547,-103.868 790.391,-151.562"/>
<polygon fill="midnightblue" stroke="midnightblue" points="787.521,-153.565 796.105,-159.776 793.268,-149.568 787.521,-153.565"/>
</g>
<!-- Node39 -->
<g id="node4" class="node"><title>Node39</title>
<g id="a_node4"><a xlink:href="structLCD.html#a632d9c641930fe16c0b623b82136196e" target="_top" xlink:title="LCD::init">
<polygon fill="white" stroke="black" points="157,-198.5 157,-217.5 213,-217.5 213,-198.5 157,-198.5"/>
<text text-anchor="middle" x="185" y="-205.5" font-family="Helvetica,sans-Serif" font-size="10.00">LCD::init</text>
</a>
</g>
</g>
<!-- Node36&#45;&gt;Node39 -->
<g id="edge3" class="edge"><title>Node36&#45;&gt;Node39</title>
<path fill="none" stroke="midnightblue" d="M121.315,-201.252C130.014,-201.232 138.752,-201.393 146.826,-201.737"/>
<polygon fill="midnightblue" stroke="midnightblue" points="146.822,-205.242 156.998,-202.293 147.204,-198.252 146.822,-205.242"/>
</g>
<!-- Node40 -->
<g id="node5" class="node"><title>Node40</title>
<g id="a_node5"><a xlink:href="structLCD.html#ae7a8d9bc1581cfeeb0f098c8bb6d1229" target="_top" xlink:title="LCD::s2Cmd">
<polygon fill="white" stroke="black" points="533,-75.5 533,-94.5 607,-94.5 607,-75.5 533,-75.5"/>
<text text-anchor="middle" x="570" y="-82.5" font-family="Helvetica,sans-Serif" font-size="10.00">LCD::s2Cmd</text>
</a>
</g>
</g>
<!-- Node36&#45;&gt;Node40 -->
<g id="edge30" class="edge"><title>Node36&#45;&gt;Node40</title>
<path fill="none" stroke="midnightblue" d="M70.495,-198.487C95.6794,-172.618 170.223,-101.178 249,-75 342.185,-44.0343 459.152,-60.5696 522.699,-73.7923"/>
<polygon fill="midnightblue" stroke="midnightblue" points="522.29,-77.2842 532.802,-75.961 523.759,-70.4401 522.29,-77.2842"/>
</g>
<!-- Node39&#45;&gt;Node36 -->
<g id="edge18" class="edge"><title>Node39&#45;&gt;Node36</title>
<path fill="none" stroke="midnightblue" d="M156.998,-213.707C149.31,-214.233 140.561,-214.559 131.553,-214.688"/>
<polygon fill="midnightblue" stroke="midnightblue" points="131.294,-211.189 121.315,-214.748 131.335,-218.189 131.294,-211.189"/>
</g>
<!-- Node39&#45;&gt;Node40 -->
<g id="edge4" class="edge"><title>Node39&#45;&gt;Node40</title>
<path fill="none" stroke="midnightblue" d="M188.027,-198.261C194.198,-176.856 214.471,-129.297 249,-109 338.393,-56.4527 466.438,-62.7677 530.05,-73.6377"/>
<polygon fill="midnightblue" stroke="midnightblue" points="529.588,-77.1114 540.057,-75.4861 530.859,-70.2279 529.588,-77.1114"/>
</g>
<!-- Node44 -->
<g id="node9" class="node"><title>Node44</title>
<g id="a_node9"><a xlink:href="structLCD.html#ad31ee94d401b7c28d6cc2f472e2eb8fd" target="_top" xlink:title="LCD::changeMode">
<polygon fill="white" stroke="black" points="263,-236.5 263,-255.5 361,-255.5 361,-236.5 263,-236.5"/>
<text text-anchor="middle" x="312" y="-243.5" font-family="Helvetica,sans-Serif" font-size="10.00">LCD::changeMode</text>
</a>
</g>
</g>
<!-- Node39&#45;&gt;Node44 -->
<g id="edge12" class="edge"><title>Node39&#45;&gt;Node44</title>
<path fill="none" stroke="midnightblue" d="M213.123,-210.567C234.597,-215.63 264.378,-224.721 285.436,-232.66"/>
<polygon fill="midnightblue" stroke="midnightblue" points="284.412,-236.019 294.998,-236.443 286.986,-229.51 284.412,-236.019"/>
</g>
<!-- Node45 -->
<g id="node10" class="node"><title>Node45</title>
<g id="a_node10"><a xlink:href="structLCD.html#aa01b7522d1e210f9cd071e3a5d4ae9e6" target="_top" xlink:title="LCD::changeBackground">
<polygon fill="white" stroke="black" points="249,-274.5 249,-293.5 375,-293.5 375,-274.5 249,-274.5"/>
<text text-anchor="middle" x="312" y="-281.5" font-family="Helvetica,sans-Serif" font-size="10.00">LCD::changeBackground</text>
</a>
</g>
</g>
<!-- Node39&#45;&gt;Node45 -->
<g id="edge15" class="edge"><title>Node39&#45;&gt;Node45</title>
<path fill="none" stroke="midnightblue" d="M201.019,-217.764C212.905,-228.789 230.53,-245.513 249,-256 260.736,-262.664 275.077,-267.253 287.009,-271.174"/>
<polygon fill="midnightblue" stroke="midnightblue" points="286.155,-274.58 296.749,-274.482 288.406,-267.952 286.155,-274.58"/>
</g>
<!-- Node46 -->
<g id="node11" class="node"><title>Node46</title>
<g id="a_node11"><a xlink:href="structLCD.html#ad3120f397273bac2ad60e0291554b9e6" target="_top" xlink:title="LCD::clear">
<polygon fill="white" stroke="black" points="280,-198.5 280,-217.5 344,-217.5 344,-198.5 280,-198.5"/>
<text text-anchor="middle" x="312" y="-205.5" font-family="Helvetica,sans-Serif" font-size="10.00">LCD::clear</text>
</a>
</g>
</g>
<!-- Node39&#45;&gt;Node46 -->
<g id="edge19" class="edge"><title>Node39&#45;&gt;Node46</title>
<path fill="none" stroke="midnightblue" d="M213.123,-202.322C229.723,-201.189 251.288,-200.954 269.949,-201.616"/>
<polygon fill="midnightblue" stroke="midnightblue" points="269.818,-205.114 279.968,-202.077 270.139,-198.121 269.818,-205.114"/>
</g>
<!-- Node40&#45;&gt;Node39 -->
<g id="edge5" class="edge"><title>Node40&#45;&gt;Node39</title>
<path fill="none" stroke="midnightblue" d="M532.919,-84.9528C470.358,-80.9743 339.759,-73.6501 249,-127 224.217,-141.568 206.778,-170.181 196.626,-189.412"/>
<polygon fill="midnightblue" stroke="midnightblue" points="193.42,-187.994 191.981,-198.49 199.652,-191.182 193.42,-187.994"/>
</g>
<!-- Node41 -->
<g id="node6" class="node"><title>Node41</title>
<g id="a_node6"><a xlink:href="structLCD.html#a739998fad0591a092255676c8c8d532f" target="_top" xlink:title="LCD::s1Cmd">
<polygon fill="white" stroke="black" points="643,-193.5 643,-212.5 717,-212.5 717,-193.5 643,-193.5"/>
<text text-anchor="middle" x="680" y="-200.5" font-family="Helvetica,sans-Serif" font-size="10.00">LCD::s1Cmd</text>
</a>
</g>
</g>
<!-- Node40&#45;&gt;Node41 -->
<g id="edge6" class="edge"><title>Node40&#45;&gt;Node41</title>
<path fill="none" stroke="midnightblue" d="M582.37,-94.761C589.631,-101.153 599.125,-109.811 607,-118 628.346,-140.199 650.995,-167.67 665.067,-185.265"/>
<polygon fill="midnightblue" stroke="midnightblue" points="662.633,-187.828 671.591,-193.485 668.116,-183.476 662.633,-187.828"/>
</g>
<!-- Node41&#45;&gt;Node37 -->
<g id="edge8" class="edge"><title>Node41&#45;&gt;Node37</title>
<path fill="none" stroke="midnightblue" d="M695.546,-212.644C713.139,-224.244 741.786,-242.919 753,-249 755.841,-250.541 758.801,-252.071 761.804,-253.57"/>
<polygon fill="midnightblue" stroke="midnightblue" points="760.344,-256.752 770.871,-257.95 763.389,-250.449 760.344,-256.752"/>
</g>
<!-- Node41&#45;&gt;Node38 -->
<g id="edge11" class="edge"><title>Node41&#45;&gt;Node38</title>
<path fill="none" stroke="midnightblue" d="M717.155,-194.901C725.223,-193.094 734.008,-191.126 742.81,-189.154"/>
<polygon fill="midnightblue" stroke="midnightblue" points="743.727,-192.536 752.72,-186.935 742.196,-185.705 743.727,-192.536"/>
</g>
<!-- Node41&#45;&gt;Node39 -->
<g id="edge7" class="edge"><title>Node41&#45;&gt;Node39</title>
<path fill="none" stroke="midnightblue" d="M655.079,-193.456C620.761,-180.394 555.263,-157.792 497,-151 387.198,-138.2 353.589,-134.205 249,-170 233.784,-175.208 218.296,-184.484 206.485,-192.568"/>
<polygon fill="midnightblue" stroke="midnightblue" points="204.359,-189.785 198.234,-198.43 208.413,-195.492 204.359,-189.785"/>
</g>
<!-- Node42 -->
<g id="node7" class="node"><title>Node42</title>
<g id="a_node7"><a xlink:href="classeagle__impl_1_1TwoWire.html#a2b5f9f156b6d281746a2a6ca5707dad3" target="_top" xlink:title="eagle_impl::TwoWire\l::write">
<polygon fill="white" stroke="black" points="753,-209 753,-239 861,-239 861,-209 753,-209"/>
<text text-anchor="start" x="761" y="-227" font-family="Helvetica,sans-Serif" font-size="10.00">eagle_impl::TwoWire</text>
<text text-anchor="middle" x="807" y="-216" font-family="Helvetica,sans-Serif" font-size="10.00">::write</text>
</a>
</g>
</g>
<!-- Node41&#45;&gt;Node42 -->
<g id="edge9" class="edge"><title>Node41&#45;&gt;Node42</title>
<path fill="none" stroke="midnightblue" d="M717.155,-209.074C725.223,-210.429 734.008,-211.905 742.81,-213.384"/>
<polygon fill="midnightblue" stroke="midnightblue" points="742.278,-216.844 752.72,-215.049 743.438,-209.94 742.278,-216.844"/>
</g>
<!-- Node43 -->
<g id="node8" class="node"><title>Node43</title>
<g id="a_node8"><a xlink:href="eBoard_8h.html#abb66f08d8061c1064047324c1bacc2a9" target="_top" xlink:title="twi_transmit">
<polygon fill="white" stroke="black" points="897,-214.5 897,-233.5 967,-233.5 967,-214.5 897,-214.5"/>
<text text-anchor="middle" x="932" y="-221.5" font-family="Helvetica,sans-Serif" font-size="10.00">twi_transmit</text>
</a>
</g>
</g>
<!-- Node42&#45;&gt;Node43 -->
<g id="edge10" class="edge"><title>Node42&#45;&gt;Node43</title>
<path fill="none" stroke="midnightblue" d="M861.234,-224C869.725,-224 878.431,-224 886.686,-224"/>
<polygon fill="midnightblue" stroke="midnightblue" points="886.854,-227.5 896.854,-224 886.854,-220.5 886.854,-227.5"/>
</g>
<!-- Node44&#45;&gt;Node39 -->
<g id="edge13" class="edge"><title>Node44&#45;&gt;Node39</title>
<path fill="none" stroke="midnightblue" d="M262.91,-237.969C245.421,-233.052 226.341,-226.911 211.559,-221.338"/>
<polygon fill="midnightblue" stroke="midnightblue" points="212.672,-218.014 202.086,-217.592 210.098,-224.524 212.672,-218.014"/>
</g>
<!-- Node44&#45;&gt;Node41 -->
<g id="edge14" class="edge"><title>Node44&#45;&gt;Node41</title>
<path fill="none" stroke="midnightblue" d="M361.224,-240.334C431.939,-232.026 562.901,-216.64 632.577,-208.454"/>
<polygon fill="midnightblue" stroke="midnightblue" points="633.283,-211.895 642.806,-207.252 632.466,-204.943 633.283,-211.895"/>
</g>
<!-- Node45&#45;&gt;Node39 -->
<g id="edge16" class="edge"><title>Node45&#45;&gt;Node39</title>
<path fill="none" stroke="midnightblue" d="M249.886,-274.496C249.589,-274.332 249.294,-274.167 249,-274 227.556,-261.824 207.251,-241.241 195.743,-225.918"/>
<polygon fill="midnightblue" stroke="midnightblue" points="198.585,-223.873 190.042,-217.607 192.813,-227.833 198.585,-223.873"/>
</g>
<!-- Node45&#45;&gt;Node41 -->
<g id="edge17" class="edge"><title>Node45&#45;&gt;Node41</title>
<path fill="none" stroke="midnightblue" d="M375.033,-275.378C434.99,-266.347 528.086,-250.479 607,-229 619.924,-225.482 633.831,-220.705 645.944,-216.205"/>
<polygon fill="midnightblue" stroke="midnightblue" points="647.53,-219.346 655.636,-212.523 645.044,-212.802 647.53,-219.346"/>
</g>
<!-- Node46&#45;&gt;Node39 -->
<g id="edge20" class="edge"><title>Node46&#45;&gt;Node39</title>
<path fill="none" stroke="midnightblue" d="M279.968,-213.923C262.812,-214.909 241.376,-215.013 223.312,-214.237"/>
<polygon fill="midnightblue" stroke="midnightblue" points="223.3,-210.731 213.123,-213.678 222.916,-217.721 223.3,-210.731"/>
</g>
<!-- Node47 -->
<g id="node12" class="node"><title>Node47</title>
<g id="a_node12"><a xlink:href="structLCD.html#ad1a67d455563026a5064ef9cab86ae4d" target="_top" xlink:title="LCD::setCursor">
<polygon fill="white" stroke="black" points="411,-160.5 411,-179.5 497,-179.5 497,-160.5 411,-160.5"/>
<text text-anchor="middle" x="454" y="-167.5" font-family="Helvetica,sans-Serif" font-size="10.00">LCD::setCursor</text>
</a>
</g>
</g>
<!-- Node46&#45;&gt;Node47 -->
<g id="edge21" class="edge"><title>Node46&#45;&gt;Node47</title>
<path fill="none" stroke="midnightblue" d="M344.071,-199.567C362.831,-194.474 387.063,-187.897 407.906,-182.24"/>
<polygon fill="midnightblue" stroke="midnightblue" points="409.093,-185.544 417.827,-179.547 407.26,-178.789 409.093,-185.544"/>
</g>
<!-- Node48 -->
<g id="node13" class="node"><title>Node48</title>
<g id="a_node13"><a xlink:href="structLCD.html#ae5873763db265cd00da32664cce88873" target="_top" xlink:title="LCD::s1Dat">
<polygon fill="white" stroke="black" points="645.5,-236.5 645.5,-255.5 714.5,-255.5 714.5,-236.5 645.5,-236.5"/>
<text text-anchor="middle" x="680" y="-243.5" font-family="Helvetica,sans-Serif" font-size="10.00">LCD::s1Dat</text>
</a>
</g>
</g>
<!-- Node46&#45;&gt;Node48 -->
<g id="edge25" class="edge"><title>Node46&#45;&gt;Node48</title>
<path fill="none" stroke="midnightblue" d="M344.205,-211.24C409.421,-218.011 560.296,-233.676 635.192,-241.452"/>
<polygon fill="midnightblue" stroke="midnightblue" points="634.931,-244.943 645.239,-242.495 635.654,-237.981 634.931,-244.943"/>
</g>
<!-- Node47&#45;&gt;Node39 -->
<g id="edge22" class="edge"><title>Node47&#45;&gt;Node39</title>
<path fill="none" stroke="midnightblue" d="M410.846,-171.466C369.348,-173.484 304.333,-178.192 249,-189 240.458,-190.668 231.42,-193.027 222.938,-195.516"/>
<polygon fill="midnightblue" stroke="midnightblue" points="221.838,-192.193 213.3,-198.466 223.886,-198.886 221.838,-192.193"/>
</g>
<!-- Node47&#45;&gt;Node40 -->
<g id="edge23" class="edge"><title>Node47&#45;&gt;Node40</title>
<path fill="none" stroke="midnightblue" d="M468.077,-160.249C487.576,-145.711 524.476,-118.198 547.846,-100.773"/>
<polygon fill="midnightblue" stroke="midnightblue" points="550.151,-103.42 556.075,-94.6369 545.966,-97.8085 550.151,-103.42"/>
</g>
<!-- Node47&#45;&gt;Node41 -->
<g id="edge24" class="edge"><title>Node47&#45;&gt;Node41</title>
<path fill="none" stroke="midnightblue" d="M497.133,-176.207C535.839,-181.909 593.081,-190.342 632.972,-196.219"/>
<polygon fill="midnightblue" stroke="midnightblue" points="632.568,-199.697 642.972,-197.692 633.589,-192.772 632.568,-199.697"/>
</g>
<!-- Node48&#45;&gt;Node37 -->
<g id="edge27" class="edge"><title>Node48&#45;&gt;Node37</title>
<path fill="none" stroke="midnightblue" d="M714.827,-253.307C723.52,-255.184 733.158,-257.266 742.818,-259.353"/>
<polygon fill="midnightblue" stroke="midnightblue" points="742.341,-262.83 752.854,-261.521 743.819,-255.988 742.341,-262.83"/>
</g>
<!-- Node48&#45;&gt;Node38 -->
<g id="edge29" class="edge"><title>Node48&#45;&gt;Node38</title>
<path fill="none" stroke="midnightblue" d="M695.562,-236.384C713.17,-224.813 741.833,-206.168 753,-200 756.264,-198.197 759.681,-196.398 763.138,-194.638"/>
<polygon fill="midnightblue" stroke="midnightblue" points="764.902,-197.67 772.312,-190.098 761.797,-191.397 764.902,-197.67"/>
</g>
<!-- Node48&#45;&gt;Node39 -->
<g id="edge26" class="edge"><title>Node48&#45;&gt;Node39</title>
<path fill="none" stroke="midnightblue" d="M660.855,-255.591C598.95,-286.892 391.988,-379.749 249,-303 219.195,-287.002 201.105,-250.015 192.373,-227.2"/>
<polygon fill="midnightblue" stroke="midnightblue" points="195.589,-225.798 188.92,-217.566 189,-228.16 195.589,-225.798"/>
</g>
<!-- Node48&#45;&gt;Node42 -->
<g id="edge28" class="edge"><title>Node48&#45;&gt;Node42</title>
<path fill="none" stroke="midnightblue" d="M714.827,-240.046C723.52,-238.516 733.158,-236.82 742.818,-235.12"/>
<polygon fill="midnightblue" stroke="midnightblue" points="743.612,-238.534 752.854,-233.354 742.399,-231.64 743.612,-238.534"/>
</g>
</g>
</svg>
