<?xml version="1.0" encoding="UTF-8" standalone="no"?>
<!DOCTYPE svg PUBLIC "-//W3C//DTD SVG 1.1//EN"
 "http://www.w3.org/Graphics/SVG/1.1/DTD/svg11.dtd">
<!-- Generated by graphviz version 2.38.0 (20140413.2041)
 -->
<!-- Title: SoccerBoard::ledOn Pages: 1 -->
<svg width="198pt" height="46pt"
 viewBox="0.00 0.00 198.00 46.00" xmlns="http://www.w3.org/2000/svg" xmlns:xlink="http://www.w3.org/1999/xlink">
<g id="graph0" class="graph" transform="scale(1 1) rotate(0) translate(4 42)">
<title>SoccerBoard::ledOn</title>
<polygon fill="white" stroke="none" points="-4,4 -4,-42 194,-42 194,4 -4,4"/>
<!-- Node22 -->
<g id="node1" class="node"><title>Node22</title>
<polygon fill="#bfbfbf" stroke="black" points="0,-0.5 0,-19.5 104,-19.5 104,-0.5 0,-0.5"/>
<text text-anchor="middle" x="52" y="-7.5" font-family="Helvetica,sans-Serif" font-size="10.00">SoccerBoard::ledOn</text>
</g>
<!-- Node23 -->
<g id="node2" class="node"><title>Node23</title>
<g id="a_node2"><a xlink:href="eBoard__comment_8h.html#aca4f96af7c6736bf2b61c88d731af741" target="_top" xlink:title="read a digital state from an INPUTpin ">
<polygon fill="white" stroke="black" points="140,-0.5 140,-19.5 190,-19.5 190,-0.5 140,-0.5"/>
<text text-anchor="middle" x="165" y="-7.5" font-family="Helvetica,sans-Serif" font-size="10.00">readPin</text>
</a>
</g>
</g>
<!-- Node22&#45;&gt;Node23 -->
<g id="edge1" class="edge"><title>Node22&#45;&gt;Node23</title>
<path fill="none" stroke="midnightblue" d="M114.447,-10C123.421,-10 132.186,-10 139.787,-10"/>
<polygon fill="midnightblue" stroke="midnightblue" points="114.276,-6.5001 104.276,-10 114.276,-13.5001 114.276,-6.5001"/>
</g>
<!-- Node23&#45;&gt;Node23 -->
<g id="edge2" class="edge"><title>Node23&#45;&gt;Node23</title>
<path fill="none" stroke="midnightblue" d="M144.26,-29.4C145.645,-34.3146 152.559,-38 165,-38 184.906,-38 190.66,-28.5653 182.262,-19.7571"/>
<polygon fill="midnightblue" stroke="midnightblue" points="147.638,-30.3514 147.738,-19.7571 141.053,-27.9768 147.638,-30.3514"/>
</g>
</g>
</svg>
