<?xml version="1.0" encoding="UTF-8" standalone="no"?>
<!DOCTYPE svg PUBLIC "-//W3C//DTD SVG 1.1//EN"
 "http://www.w3.org/Graphics/SVG/1.1/DTD/svg11.dtd">
<!-- Generated by graphviz version 2.38.0 (20140413.2041)
 -->
<!-- Title: AX12Servo::setID Pages: 1 -->
<svg width="579pt" height="39pt"
 viewBox="0.00 0.00 579.00 39.00" xmlns="http://www.w3.org/2000/svg" xmlns:xlink="http://www.w3.org/1999/xlink">
<g id="graph0" class="graph" transform="scale(1 1) rotate(0) translate(4 35)">
<title>AX12Servo::setID</title>
<polygon fill="white" stroke="none" points="-4,4 -4,-35 575,-35 575,4 -4,4"/>
<!-- Node29 -->
<g id="node1" class="node"><title>Node29</title>
<polygon fill="#bfbfbf" stroke="black" points="0,-6 0,-25 96,-25 96,-6 0,-6"/>
<text text-anchor="middle" x="48" y="-13" font-family="Helvetica,sans-Serif" font-size="10.00">AX12Servo::setID</text>
</g>
<!-- Node30 -->
<g id="node2" class="node"><title>Node30</title>
<g id="a_node2"><a xlink:href="structServoCds55.html#a5d77d36691d8a0fab7cf841a4feef530" target="_top" xlink:title="ServoCds55::SetServoLimit">
<polygon fill="white" stroke="black" points="132,-6 132,-25 270,-25 270,-6 132,-6"/>
<text text-anchor="middle" x="201" y="-13" font-family="Helvetica,sans-Serif" font-size="10.00">ServoCds55::SetServoLimit</text>
</a>
</g>
</g>
<!-- Node29&#45;&gt;Node30 -->
<g id="edge1" class="edge"><title>Node29&#45;&gt;Node30</title>
<path fill="none" stroke="midnightblue" d="M96.363,-15.5C104.445,-15.5 113.028,-15.5 121.661,-15.5"/>
<polygon fill="midnightblue" stroke="midnightblue" points="121.791,-19.0001 131.791,-15.5 121.791,-12.0001 121.791,-19.0001"/>
</g>
<!-- Node31 -->
<g id="node3" class="node"><title>Node31</title>
<g id="a_node3"><a xlink:href="structServoCds55.html#a0ddbf204d991dae881cc22b8985efee3" target="_top" xlink:title="ServoCds55::sendWait">
<polygon fill="white" stroke="black" points="306,-6 306,-25 424,-25 424,-6 306,-6"/>
<text text-anchor="middle" x="365" y="-13" font-family="Helvetica,sans-Serif" font-size="10.00">ServoCds55::sendWait</text>
</a>
</g>
</g>
<!-- Node30&#45;&gt;Node31 -->
<g id="edge2" class="edge"><title>Node30&#45;&gt;Node31</title>
<path fill="none" stroke="midnightblue" d="M270.233,-15.5C278.655,-15.5 287.266,-15.5 295.69,-15.5"/>
<polygon fill="midnightblue" stroke="midnightblue" points="295.846,-19.0001 305.846,-15.5 295.846,-12.0001 295.846,-19.0001"/>
</g>
<!-- Node32 -->
<g id="node4" class="node"><title>Node32</title>
<g id="a_node4"><a xlink:href="structeagle__impl_1_1SPIClass.html#a821dccd5dda20ccd9093fc35cce74ae5" target="_top" xlink:title="eagle_impl::SPIClass\l::transfer">
<polygon fill="white" stroke="black" points="460,-0.5 460,-30.5 571,-30.5 571,-0.5 460,-0.5"/>
<text text-anchor="start" x="468" y="-18.5" font-family="Helvetica,sans-Serif" font-size="10.00">eagle_impl::SPIClass</text>
<text text-anchor="middle" x="515.5" y="-7.5" font-family="Helvetica,sans-Serif" font-size="10.00">::transfer</text>
</a>
</g>
</g>
<!-- Node31&#45;&gt;Node32 -->
<g id="edge3" class="edge"><title>Node31&#45;&gt;Node32</title>
<path fill="none" stroke="midnightblue" d="M424.265,-15.5C432.584,-15.5 441.183,-15.5 449.619,-15.5"/>
<polygon fill="midnightblue" stroke="midnightblue" points="449.797,-19.0001 459.797,-15.5 449.797,-12.0001 449.797,-19.0001"/>
</g>
</g>
</svg>
