<?xml version="1.0" encoding="UTF-8" standalone="no"?>
<!DOCTYPE svg PUBLIC "-//W3C//DTD SVG 1.1//EN"
 "http://www.w3.org/Graphics/SVG/1.1/DTD/svg11.dtd">
<!-- Generated by graphviz version 2.38.0 (20140413.2041)
 -->
<!-- Title: I2CInOut::read Pages: 1 -->
<svg width="175pt" height="46pt"
 viewBox="0.00 0.00 175.00 46.00" xmlns="http://www.w3.org/2000/svg" xmlns:xlink="http://www.w3.org/1999/xlink">
<g id="graph0" class="graph" transform="scale(1 1) rotate(0) translate(4 42)">
<title>I2CInOut::read</title>
<polygon fill="white" stroke="none" points="-4,4 -4,-42 171,-42 171,4 -4,4"/>
<!-- Node10 -->
<g id="node1" class="node"><title>Node10</title>
<polygon fill="#bfbfbf" stroke="black" points="0,-0.5 0,-19.5 81,-19.5 81,-0.5 0,-0.5"/>
<text text-anchor="middle" x="40.5" y="-7.5" font-family="Helvetica,sans-Serif" font-size="10.00">I2CInOut::read</text>
</g>
<!-- Node11 -->
<g id="node2" class="node"><title>Node11</title>
<g id="a_node2"><a xlink:href="eBoard__comment_8h.html#aca4f96af7c6736bf2b61c88d731af741" target="_top" xlink:title="read a digital state from an INPUTpin ">
<polygon fill="white" stroke="black" points="117,-0.5 117,-19.5 167,-19.5 167,-0.5 117,-0.5"/>
<text text-anchor="middle" x="142" y="-7.5" font-family="Helvetica,sans-Serif" font-size="10.00">readPin</text>
</a>
</g>
</g>
<!-- Node10&#45;&gt;Node11 -->
<g id="edge1" class="edge"><title>Node10&#45;&gt;Node11</title>
<path fill="none" stroke="midnightblue" d="M91.1952,-10C100.183,-10 109.174,-10 116.993,-10"/>
<polygon fill="midnightblue" stroke="midnightblue" points="91.111,-6.5001 81.1109,-10 91.1109,-13.5001 91.111,-6.5001"/>
</g>
<!-- Node11&#45;&gt;Node11 -->
<g id="edge2" class="edge"><title>Node11&#45;&gt;Node11</title>
<path fill="none" stroke="midnightblue" d="M123.482,-29.4C124.719,-34.3146 130.892,-38 142,-38 159.773,-38 164.911,-28.5653 157.413,-19.7571"/>
<polygon fill="midnightblue" stroke="midnightblue" points="126.854,-30.3485 126.587,-19.7571 120.191,-28.2032 126.854,-30.3485"/>
</g>
</g>
</svg>
