<?xml version="1.0" encoding="UTF-8" standalone="no"?>
<!DOCTYPE svg PUBLIC "-//W3C//DTD SVG 1.1//EN"
 "http://www.w3.org/Graphics/SVG/1.1/DTD/svg11.dtd">
<!-- Generated by graphviz version 2.38.0 (20140413.2041)
 -->
<!-- Title: LCD::reset Pages: 1 -->
<svg width="1019pt" height="348pt"
 viewBox="0.00 0.00 1019.00 348.41" xmlns="http://www.w3.org/2000/svg" xmlns:xlink="http://www.w3.org/1999/xlink">
<g id="graph0" class="graph" transform="scale(1 1) rotate(0) translate(4 344.406)">
<title>LCD::reset</title>
<polygon fill="white" stroke="none" points="-4,4 -4,-344.406 1015,-344.406 1015,4 -4,4"/>
<!-- Node266 -->
<g id="node1" class="node"><title>Node266</title>
<polygon fill="#bfbfbf" stroke="black" points="0,-140.835 0,-159.835 65,-159.835 65,-140.835 0,-140.835"/>
<text text-anchor="middle" x="32.5" y="-147.835" font-family="Helvetica,sans-Serif" font-size="10.00">LCD::reset</text>
</g>
<!-- Node267 -->
<g id="node2" class="node"><title>Node267</title>
<g id="a_node2"><a xlink:href="structLCD.html#ad3120f397273bac2ad60e0291554b9e6" target="_top" xlink:title="LCD::clear">
<polygon fill="white" stroke="black" points="101,-140.835 101,-159.835 165,-159.835 165,-140.835 101,-140.835"/>
<text text-anchor="middle" x="133" y="-147.835" font-family="Helvetica,sans-Serif" font-size="10.00">LCD::clear</text>
</a>
</g>
</g>
<!-- Node266&#45;&gt;Node267 -->
<g id="edge1" class="edge"><title>Node266&#45;&gt;Node267</title>
<path fill="none" stroke="midnightblue" d="M65.2082,-150.335C73.2847,-150.335 82.0853,-150.335 90.5682,-150.335"/>
<polygon fill="midnightblue" stroke="midnightblue" points="90.6881,-153.835 100.688,-150.335 90.688,-146.835 90.6881,-153.835"/>
</g>
<!-- Node268 -->
<g id="node3" class="node"><title>Node268</title>
<g id="a_node3"><a xlink:href="structLCD.html#a632d9c641930fe16c0b623b82136196e" target="_top" xlink:title="LCD::init">
<polygon fill="white" stroke="black" points="323,-140.835 323,-159.835 379,-159.835 379,-140.835 323,-140.835"/>
<text text-anchor="middle" x="351" y="-147.835" font-family="Helvetica,sans-Serif" font-size="10.00">LCD::init</text>
</a>
</g>
</g>
<!-- Node267&#45;&gt;Node268 -->
<g id="edge2" class="edge"><title>Node267&#45;&gt;Node268</title>
<path fill="none" stroke="midnightblue" d="M165.408,-145.407C204.563,-143.085 271.39,-142.982 312.99,-145.099"/>
<polygon fill="midnightblue" stroke="midnightblue" points="312.803,-148.594 322.991,-145.685 313.213,-141.606 312.803,-148.594"/>
</g>
<!-- Node278 -->
<g id="node13" class="node"><title>Node278</title>
<g id="a_node13"><a xlink:href="structLCD.html#ae5873763db265cd00da32664cce88873" target="_top" xlink:title="LCD::s1Dat">
<polygon fill="white" stroke="black" points="209.5,-254.835 209.5,-273.835 278.5,-273.835 278.5,-254.835 209.5,-254.835"/>
<text text-anchor="middle" x="244" y="-261.835" font-family="Helvetica,sans-Serif" font-size="10.00">LCD::s1Dat</text>
</a>
</g>
</g>
<!-- Node267&#45;&gt;Node278 -->
<g id="edge23" class="edge"><title>Node267&#45;&gt;Node278</title>
<path fill="none" stroke="midnightblue" d="M143.293,-160.054C161.795,-179.405 203.446,-222.967 226.634,-247.218"/>
<polygon fill="midnightblue" stroke="midnightblue" points="224.29,-249.831 233.73,-254.64 229.349,-244.993 224.29,-249.831"/>
</g>
<!-- Node279 -->
<g id="node14" class="node"><title>Node279</title>
<g id="a_node14"><a xlink:href="structLCD.html#ad1a67d455563026a5064ef9cab86ae4d" target="_top" xlink:title="LCD::setCursor">
<polygon fill="white" stroke="black" points="201,-51.8347 201,-70.8347 287,-70.8347 287,-51.8347 201,-51.8347"/>
<text text-anchor="middle" x="244" y="-58.8347" font-family="Helvetica,sans-Serif" font-size="10.00">LCD::setCursor</text>
</a>
</g>
</g>
<!-- Node267&#45;&gt;Node279 -->
<g id="edge28" class="edge"><title>Node267&#45;&gt;Node279</title>
<path fill="none" stroke="midnightblue" d="M145.665,-140.81C164.17,-125.7 200.475,-96.0566 223.137,-77.5532"/>
<polygon fill="midnightblue" stroke="midnightblue" points="225.556,-80.0963 231.089,-71.0606 221.129,-74.6742 225.556,-80.0963"/>
</g>
<!-- Node268&#45;&gt;Node267 -->
<g id="edge21" class="edge"><title>Node268&#45;&gt;Node267</title>
<path fill="none" stroke="midnightblue" d="M322.991,-154.985C285.968,-157.483 219.11,-157.752 175.651,-155.793"/>
<polygon fill="midnightblue" stroke="midnightblue" points="175.576,-152.284 165.408,-155.263 175.214,-159.275 175.576,-152.284"/>
</g>
<!-- Node269 -->
<g id="node4" class="node"><title>Node269</title>
<g id="a_node4"><a xlink:href="structLCD.html#aa01b7522d1e210f9cd071e3a5d4ae9e6" target="_top" xlink:title="LCD::changeBackground">
<polygon fill="white" stroke="black" points="415,-178.835 415,-197.835 541,-197.835 541,-178.835 415,-178.835"/>
<text text-anchor="middle" x="478" y="-185.835" font-family="Helvetica,sans-Serif" font-size="10.00">LCD::changeBackground</text>
</a>
</g>
</g>
<!-- Node268&#45;&gt;Node269 -->
<g id="edge3" class="edge"><title>Node268&#45;&gt;Node269</title>
<path fill="none" stroke="midnightblue" d="M379.123,-152.902C400.597,-157.965 430.378,-167.055 451.436,-174.995"/>
<polygon fill="midnightblue" stroke="midnightblue" points="450.412,-178.354 460.998,-178.777 452.986,-171.844 450.412,-178.354"/>
</g>
<!-- Node275 -->
<g id="node10" class="node"><title>Node275</title>
<g id="a_node10"><a xlink:href="structLCD.html#a75cacb94de3b3ff71e9a4497b5cc4a81" target="_top" xlink:title="LCD::changeBrightness">
<polygon fill="white" stroke="black" points="417.5,-46.8347 417.5,-65.8347 538.5,-65.8347 538.5,-46.8347 417.5,-46.8347"/>
<text text-anchor="middle" x="478" y="-53.8347" font-family="Helvetica,sans-Serif" font-size="10.00">LCD::changeBrightness</text>
</a>
</g>
</g>
<!-- Node268&#45;&gt;Node275 -->
<g id="edge11" class="edge"><title>Node268&#45;&gt;Node275</title>
<path fill="none" stroke="midnightblue" d="M355.343,-140.741C363.839,-123.477 387.541,-90.2682 415,-71.3347 415.089,-71.2733 415.178,-71.212 415.268,-71.1508"/>
<polygon fill="midnightblue" stroke="midnightblue" points="417.285,-74.0208 424.02,-65.8419 413.655,-68.0358 417.285,-74.0208"/>
</g>
<!-- Node276 -->
<g id="node11" class="node"><title>Node276</title>
<g id="a_node11"><a xlink:href="structLCD.html#ae7a8d9bc1581cfeeb0f098c8bb6d1229" target="_top" xlink:title="LCD::s2Cmd">
<polygon fill="white" stroke="black" points="577,-93.8347 577,-112.835 651,-112.835 651,-93.8347 577,-93.8347"/>
<text text-anchor="middle" x="614" y="-100.835" font-family="Helvetica,sans-Serif" font-size="10.00">LCD::s2Cmd</text>
</a>
</g>
</g>
<!-- Node268&#45;&gt;Node276 -->
<g id="edge22" class="edge"><title>Node268&#45;&gt;Node276</title>
<path fill="none" stroke="midnightblue" d="M361.699,-140.634C373.967,-133.684 395.81,-126.559 415,-122.335 466.464,-111.005 526.507,-103.267 566.864,-100.72"/>
<polygon fill="midnightblue" stroke="midnightblue" points="567.141,-104.211 576.937,-100.174 566.762,-97.2209 567.141,-104.211"/>
</g>
<!-- Node277 -->
<g id="node12" class="node"><title>Node277</title>
<g id="a_node12"><a xlink:href="structLCD.html#ad31ee94d401b7c28d6cc2f472e2eb8fd" target="_top" xlink:title="LCD::changeMode">
<polygon fill="white" stroke="black" points="429,-140.835 429,-159.835 527,-159.835 527,-140.835 429,-140.835"/>
<text text-anchor="middle" x="478" y="-147.835" font-family="Helvetica,sans-Serif" font-size="10.00">LCD::changeMode</text>
</a>
</g>
</g>
<!-- Node268&#45;&gt;Node277 -->
<g id="edge18" class="edge"><title>Node268&#45;&gt;Node277</title>
<path fill="none" stroke="midnightblue" d="M379.123,-144.656C390.681,-143.868 404.646,-143.515 418.362,-143.596"/>
<polygon fill="midnightblue" stroke="midnightblue" points="418.71,-147.101 428.758,-143.743 418.809,-140.102 418.71,-147.101"/>
</g>
<!-- Node269&#45;&gt;Node268 -->
<g id="edge4" class="edge"><title>Node269&#45;&gt;Node268</title>
<path fill="none" stroke="midnightblue" d="M423.602,-178.788C407.614,-174.154 390.814,-168.673 377.508,-163.653"/>
<polygon fill="midnightblue" stroke="midnightblue" points="378.672,-160.35 368.086,-159.927 376.098,-166.859 378.672,-160.35"/>
</g>
<!-- Node270 -->
<g id="node5" class="node"><title>Node270</title>
<g id="a_node5"><a xlink:href="structLCD.html#a739998fad0591a092255676c8c8d532f" target="_top" xlink:title="LCD::s1Cmd">
<polygon fill="white" stroke="black" points="687,-159.835 687,-178.835 761,-178.835 761,-159.835 687,-159.835"/>
<text text-anchor="middle" x="724" y="-166.835" font-family="Helvetica,sans-Serif" font-size="10.00">LCD::s1Cmd</text>
</a>
</g>
</g>
<!-- Node269&#45;&gt;Node270 -->
<g id="edge5" class="edge"><title>Node269&#45;&gt;Node270</title>
<path fill="none" stroke="midnightblue" d="M541.203,-183.491C583.276,-180.215 637.955,-175.957 676.316,-172.97"/>
<polygon fill="midnightblue" stroke="midnightblue" points="676.981,-176.429 686.679,-172.163 676.437,-169.45 676.981,-176.429"/>
</g>
<!-- Node270&#45;&gt;Node268 -->
<g id="edge6" class="edge"><title>Node270&#45;&gt;Node268</title>
<path fill="none" stroke="midnightblue" d="M701.225,-178.916C649.611,-200.181 516.557,-246.459 415,-207.335 394.483,-199.431 376.5,-181.406 365.055,-167.726"/>
<polygon fill="midnightblue" stroke="midnightblue" points="367.783,-165.533 358.81,-159.899 362.311,-169.899 367.783,-165.533"/>
</g>
<!-- Node271 -->
<g id="node6" class="node"><title>Node271</title>
<g id="a_node6"><a xlink:href="classeagle__impl_1_1TwoWire.html#a1876ffdb16fb185c14a75e1251cef5e4" target="_top" xlink:title="eagle_impl::TwoWire\l::beginTransmission">
<polygon fill="white" stroke="black" points="797,-178.335 797,-208.335 905,-208.335 905,-178.335 797,-178.335"/>
<text text-anchor="start" x="805" y="-196.335" font-family="Helvetica,sans-Serif" font-size="10.00">eagle_impl::TwoWire</text>
<text text-anchor="middle" x="851" y="-185.335" font-family="Helvetica,sans-Serif" font-size="10.00">::beginTransmission</text>
</a>
</g>
</g>
<!-- Node270&#45;&gt;Node271 -->
<g id="edge7" class="edge"><title>Node270&#45;&gt;Node271</title>
<path fill="none" stroke="midnightblue" d="M761.155,-176.277C769.223,-177.826 778.008,-179.512 786.81,-181.202"/>
<polygon fill="midnightblue" stroke="midnightblue" points="786.239,-184.656 796.72,-183.105 787.559,-177.782 786.239,-184.656"/>
</g>
<!-- Node272 -->
<g id="node7" class="node"><title>Node272</title>
<g id="a_node7"><a xlink:href="classeagle__impl_1_1TwoWire.html#a2b5f9f156b6d281746a2a6ca5707dad3" target="_top" xlink:title="eagle_impl::TwoWire\l::write">
<polygon fill="white" stroke="black" points="797,-288.335 797,-318.335 905,-318.335 905,-288.335 797,-288.335"/>
<text text-anchor="start" x="805" y="-306.335" font-family="Helvetica,sans-Serif" font-size="10.00">eagle_impl::TwoWire</text>
<text text-anchor="middle" x="851" y="-295.335" font-family="Helvetica,sans-Serif" font-size="10.00">::write</text>
</a>
</g>
</g>
<!-- Node270&#45;&gt;Node272 -->
<g id="edge8" class="edge"><title>Node270&#45;&gt;Node272</title>
<path fill="none" stroke="midnightblue" d="M733.99,-178.972C753.722,-200.125 801.273,-251.099 828.984,-280.806"/>
<polygon fill="midnightblue" stroke="midnightblue" points="826.523,-283.299 835.904,-288.224 831.642,-278.524 826.523,-283.299"/>
</g>
<!-- Node274 -->
<g id="node9" class="node"><title>Node274</title>
<g id="a_node9"><a xlink:href="classeagle__impl_1_1TwoWire.html#af80f9a7b85a3a81a035ca94c95bcdc1d" target="_top" xlink:title="eagle_impl::TwoWire\l::endTransmission">
<polygon fill="white" stroke="black" points="797,-129.335 797,-159.335 905,-159.335 905,-129.335 797,-129.335"/>
<text text-anchor="start" x="805" y="-147.335" font-family="Helvetica,sans-Serif" font-size="10.00">eagle_impl::TwoWire</text>
<text text-anchor="middle" x="851" y="-136.335" font-family="Helvetica,sans-Serif" font-size="10.00">::endTransmission</text>
</a>
</g>
</g>
<!-- Node270&#45;&gt;Node274 -->
<g id="edge10" class="edge"><title>Node270&#45;&gt;Node274</title>
<path fill="none" stroke="midnightblue" d="M761.155,-162.104C769.223,-160.49 778.008,-158.733 786.81,-156.973"/>
<polygon fill="midnightblue" stroke="midnightblue" points="787.6,-160.384 796.72,-154.991 786.227,-153.52 787.6,-160.384"/>
</g>
<!-- Node273 -->
<g id="node8" class="node"><title>Node273</title>
<g id="a_node8"><a xlink:href="eBoard_8h.html#abb66f08d8061c1064047324c1bacc2a9" target="_top" xlink:title="twi_transmit">
<polygon fill="white" stroke="black" points="941,-293.835 941,-312.835 1011,-312.835 1011,-293.835 941,-293.835"/>
<text text-anchor="middle" x="976" y="-300.835" font-family="Helvetica,sans-Serif" font-size="10.00">twi_transmit</text>
</a>
</g>
</g>
<!-- Node272&#45;&gt;Node273 -->
<g id="edge9" class="edge"><title>Node272&#45;&gt;Node273</title>
<path fill="none" stroke="midnightblue" d="M905.234,-303.335C913.725,-303.335 922.431,-303.335 930.686,-303.335"/>
<polygon fill="midnightblue" stroke="midnightblue" points="930.854,-306.835 940.854,-303.335 930.854,-299.835 930.854,-306.835"/>
</g>
<!-- Node275&#45;&gt;Node268 -->
<g id="edge14" class="edge"><title>Node275&#45;&gt;Node268</title>
<path fill="none" stroke="midnightblue" d="M464.771,-65.8762C451.646,-71.7619 430.584,-78.5894 415,-89.3347 397.388,-101.478 381.322,-119.495 369.822,-133.007"/>
<polygon fill="midnightblue" stroke="midnightblue" points="367.063,-130.849 363.279,-140.745 372.408,-135.369 367.063,-130.849"/>
</g>
<!-- Node275&#45;&gt;Node271 -->
<g id="edge12" class="edge"><title>Node275&#45;&gt;Node271</title>
<path fill="none" stroke="midnightblue" d="M538.856,-60.6638C572.554,-64.4284 614.975,-71.4167 651,-84.3347 721.678,-109.679 730.269,-134.915 797,-169.335 799.918,-170.84 802.948,-172.349 806.017,-173.838"/>
<polygon fill="midnightblue" stroke="midnightblue" points="804.724,-177.098 815.26,-178.217 807.721,-170.772 804.724,-177.098"/>
</g>
<!-- Node275&#45;&gt;Node274 -->
<g id="edge13" class="edge"><title>Node275&#45;&gt;Node274</title>
<path fill="none" stroke="midnightblue" d="M510.707,-46.8071C564.729,-32.382 676.922,-10.3723 761,-47.3347 794.801,-62.1943 821.385,-96.9295 836.399,-120.536"/>
<polygon fill="midnightblue" stroke="midnightblue" points="833.546,-122.58 841.756,-129.277 839.514,-118.922 833.546,-122.58"/>
</g>
<!-- Node275&#45;&gt;Node276 -->
<g id="edge15" class="edge"><title>Node275&#45;&gt;Node276</title>
<path fill="none" stroke="midnightblue" d="M506.117,-65.8459C526.145,-72.8706 553.649,-82.5175 575.74,-90.266"/>
<polygon fill="midnightblue" stroke="midnightblue" points="574.869,-93.6693 585.464,-93.6764 577.186,-87.0638 574.869,-93.6693"/>
</g>
<!-- Node276&#45;&gt;Node268 -->
<g id="edge16" class="edge"><title>Node276&#45;&gt;Node268</title>
<path fill="none" stroke="midnightblue" d="M579.793,-112.878C540.235,-119.558 472.3,-127.72 415,-140.335 406.42,-142.224 397.309,-144.692 388.761,-146.978"/>
<polygon fill="midnightblue" stroke="midnightblue" points="387.831,-143.604 379.05,-149.532 389.611,-150.373 387.831,-143.604"/>
</g>
<!-- Node276&#45;&gt;Node270 -->
<g id="edge17" class="edge"><title>Node276&#45;&gt;Node270</title>
<path fill="none" stroke="midnightblue" d="M630.936,-113.073C648.825,-124.006 678.054,-141.868 698.775,-154.53"/>
<polygon fill="midnightblue" stroke="midnightblue" points="696.992,-157.543 707.35,-159.771 700.642,-151.57 696.992,-157.543"/>
</g>
<!-- Node277&#45;&gt;Node268 -->
<g id="edge19" class="edge"><title>Node277&#45;&gt;Node268</title>
<path fill="none" stroke="midnightblue" d="M428.758,-156.926C415.605,-157.223 401.562,-157.103 389.131,-156.564"/>
<polygon fill="midnightblue" stroke="midnightblue" points="389.3,-153.068 379.123,-156.013 388.916,-160.058 389.3,-153.068"/>
</g>
<!-- Node277&#45;&gt;Node270 -->
<g id="edge20" class="edge"><title>Node277&#45;&gt;Node270</title>
<path fill="none" stroke="midnightblue" d="M527.207,-154.088C570.574,-157.465 633.868,-162.394 676.654,-165.726"/>
<polygon fill="midnightblue" stroke="midnightblue" points="676.554,-169.229 686.796,-166.516 677.098,-162.25 676.554,-169.229"/>
</g>
<!-- Node278&#45;&gt;Node268 -->
<g id="edge24" class="edge"><title>Node278&#45;&gt;Node268</title>
<path fill="none" stroke="midnightblue" d="M253.952,-254.615C271.775,-235.265 311.898,-191.703 334.235,-167.451"/>
<polygon fill="midnightblue" stroke="midnightblue" points="336.87,-169.756 341.07,-160.03 331.721,-165.014 336.87,-169.756"/>
</g>
<!-- Node278&#45;&gt;Node271 -->
<g id="edge25" class="edge"><title>Node278&#45;&gt;Node271</title>
<path fill="none" stroke="midnightblue" d="M278.529,-273.34C323.387,-284.577 405.575,-302.335 477,-302.335 477,-302.335 477,-302.335 615,-302.335 680.76,-302.335 702.154,-307.686 761,-278.335 790.277,-263.732 816.373,-236.187 832.618,-216.407"/>
<polygon fill="midnightblue" stroke="midnightblue" points="835.454,-218.465 838.957,-208.466 829.983,-214.098 835.454,-218.465"/>
</g>
<!-- Node278&#45;&gt;Node272 -->
<g id="edge26" class="edge"><title>Node278&#45;&gt;Node272</title>
<path fill="none" stroke="midnightblue" d="M256.257,-274.176C270.671,-286.196 296.914,-306.178 323,-316.335 387.55,-341.468 407.729,-340.335 477,-340.335 477,-340.335 477,-340.335 615,-340.335 673.679,-340.335 739.607,-328.939 786.665,-318.796"/>
<polygon fill="midnightblue" stroke="midnightblue" points="787.693,-322.153 796.709,-316.588 786.191,-315.316 787.693,-322.153"/>
</g>
<!-- Node278&#45;&gt;Node274 -->
<g id="edge27" class="edge"><title>Node278&#45;&gt;Node274</title>
<path fill="none" stroke="midnightblue" d="M278.811,-264.335C323.982,-264.335 406.514,-264.335 477,-264.335 477,-264.335 477,-264.335 615,-264.335 706.245,-264.335 715.369,-210.103 797,-169.335 800.584,-167.545 804.319,-165.714 808.074,-163.898"/>
<polygon fill="midnightblue" stroke="midnightblue" points="809.869,-166.919 817.375,-159.442 806.844,-160.606 809.869,-166.919"/>
</g>
<!-- Node279&#45;&gt;Node268 -->
<g id="edge29" class="edge"><title>Node279&#45;&gt;Node268</title>
<path fill="none" stroke="midnightblue" d="M256.237,-70.8593C274.063,-85.9692 309.036,-115.613 330.866,-134.116"/>
<polygon fill="midnightblue" stroke="midnightblue" points="328.634,-136.813 338.526,-140.609 333.16,-131.473 328.634,-136.813"/>
</g>
<!-- Node279&#45;&gt;Node270 -->
<g id="edge31" class="edge"><title>Node279&#45;&gt;Node270</title>
<path fill="none" stroke="midnightblue" d="M259.518,-51.7875C274.661,-42.393 299.437,-28.5769 323,-22.3347 416.683,2.48371 447.689,8.84576 541,-17.3347 596.115,-32.7985 607.497,-47.128 651,-84.3347 674.763,-104.659 697.23,-133.216 710.559,-151.499"/>
<polygon fill="midnightblue" stroke="midnightblue" points="707.83,-153.7 716.494,-159.798 713.523,-149.628 707.83,-153.7"/>
</g>
<!-- Node279&#45;&gt;Node276 -->
<g id="edge30" class="edge"><title>Node279&#45;&gt;Node276</title>
<path fill="none" stroke="midnightblue" d="M271.042,-51.8245C323.974,-34.0603 447.062,-0.79421 541,-37.3347 565.802,-46.9822 587.253,-69.6049 600.141,-85.6686"/>
<polygon fill="midnightblue" stroke="midnightblue" points="597.518,-87.9987 606.387,-93.794 603.068,-83.7326 597.518,-87.9987"/>
</g>
</g>
</svg>
