<?xml version="1.0" encoding="UTF-8" standalone="no"?>
<!DOCTYPE svg PUBLIC "-//W3C//DTD SVG 1.1//EN"
 "http://www.w3.org/Graphics/SVG/1.1/DTD/svg11.dtd">
<!-- Generated by graphviz version 2.38.0 (20140413.2041)
 -->
<!-- Title: LCD::drawBitmap Pages: 1 -->
<!--zoomable 371 -->
<svg id="main" version="1.1" xmlns="http://www.w3.org/2000/svg" xmlns:xlink="http://www.w3.org/1999/xlink" xml:space="preserve" onload="init(evt)">
<style type="text/css"><![CDATA[
.edge:hover path { stroke: red; }
.edge:hover polygon { stroke: red; fill: red; }
]]></style>
<script type="text/javascript"><![CDATA[
var edges = document.getElementsByTagName('g');
if (edges && edges.length) {
  for (var i=0;i<edges.length;i++) {
    if (edges[i].id.substr(0,4)=='edge') {
      edges[i].setAttribute('class','edge');
    }
  }
}
]]></script>
        <defs>
                <circle id="rim" cx="0" cy="0" r="7"/>
                <circle id="rim2" cx="0" cy="0" r="3.5"/>
                <g id="zoomPlus">
                        <use xlink:href="#rim" fill="#404040">
                                <set attributeName="fill" to="#808080" begin="zoomplus.mouseover" end="zoomplus.mouseout"/>
                        </use>
                        <path d="M-4,0h8M0,-4v8" fill="none" stroke="white" stroke-width="1.5" pointer-events="none"/>
                </g>
                <g id="zoomMin">
                        <use xlink:href="#rim" fill="#404040">
                                <set attributeName="fill" to="#808080" begin="zoomminus.mouseover" end="zoomminus.mouseout"/>
                        </use>
                        <path d="M-4,0h8" fill="none" stroke="white" stroke-width="1.5" pointer-events="none"/>
                </g>
                <g id="dirArrow">
                        <path fill="none" stroke="white" stroke-width="1.5" d="M0,-3.0v7 M-2.5,-0.5L0,-3.0L2.5,-0.5"/>
                </g>
               <g id="resetDef">
                       <use xlink:href="#rim2" fill="#404040">
                               <set attributeName="fill" to="#808080" begin="reset.mouseover" end="reset.mouseout"/>
                       </use>
               </g>
        </defs>

<script type="text/javascript">
var viewWidth = 984;
var viewHeight = 371;
var sectionId = 'dynsection-9';
</script>
<script xlink:href="svgpan.js"/>
<svg id="graph" class="graph">
<g id="viewport">
<title>LCD::drawBitmap</title>
<polygon fill="white" stroke="none" points="-4,4 -4,-366.575 980,-366.575 980,4 -4,4"/>
<!-- Node149 -->
<g id="node1" class="node"><title>Node149</title>
<polygon fill="#bfbfbf" stroke="black" points="0,-335.838 0,-354.838 95,-354.838 95,-335.838 0,-335.838"/>
<text text-anchor="middle" x="47.5" y="-342.838" font-family="Helvetica,sans-Serif" font-size="10.00">LCD::drawBitmap</text>
</g>
<!-- Node150 -->
<g id="node2" class="node"><title>Node150</title>
<g id="a_node2"><a xlink:href="structLCD.html#a632d9c641930fe16c0b623b82136196e" target="_top" xlink:title="LCD::init">
<polygon fill="white" stroke="black" points="131,-145.838 131,-164.838 187,-164.838 187,-145.838 131,-145.838"/>
<text text-anchor="middle" x="159" y="-152.838" font-family="Helvetica,sans-Serif" font-size="10.00">LCD::init</text>
</a>
</g>
</g>
<!-- Node149&#45;&gt;Node150 -->
<g id="edge1" class="edge"><title>Node149&#45;&gt;Node150</title>
<path fill="none" stroke="midnightblue" d="M54.0807,-335.654C71.3568,-305.677 124.174,-214.031 147.143,-174.177"/>
<polygon fill="midnightblue" stroke="midnightblue" points="150.338,-175.641 152.299,-165.229 144.273,-172.146 150.338,-175.641"/>
</g>
<!-- Node161 -->
<g id="node13" class="node"><title>Node161</title>
<g id="a_node13"><a xlink:href="structLCD.html#ae5873763db265cd00da32664cce88873" target="_top" xlink:title="LCD::s1Dat">
<polygon fill="white" stroke="black" points="544.5,-259.838 544.5,-278.838 613.5,-278.838 613.5,-259.838 544.5,-259.838"/>
<text text-anchor="middle" x="579" y="-266.838" font-family="Helvetica,sans-Serif" font-size="10.00">LCD::s1Dat</text>
</a>
</g>
</g>
<!-- Node149&#45;&gt;Node161 -->
<g id="edge32" class="edge"><title>Node149&#45;&gt;Node161</title>
<path fill="none" stroke="midnightblue" d="M95.2378,-352.231C180.263,-362.798 364.519,-376.516 506,-322.338 526.886,-314.339 547.071,-298.554 560.727,-286.281"/>
<polygon fill="midnightblue" stroke="midnightblue" points="563.403,-288.572 568.334,-279.195 558.631,-283.45 563.403,-288.572"/>
</g>
<!-- Node162 -->
<g id="node14" class="node"><title>Node162</title>
<g id="a_node14"><a xlink:href="structLCD.html#ad1a67d455563026a5064ef9cab86ae4d" target="_top" xlink:title="LCD::setCursor">
<polygon fill="white" stroke="black" points="402.5,-183.838 402.5,-202.838 488.5,-202.838 488.5,-183.838 402.5,-183.838"/>
<text text-anchor="middle" x="445.5" y="-190.838" font-family="Helvetica,sans-Serif" font-size="10.00">LCD::setCursor</text>
</a>
</g>
</g>
<!-- Node149&#45;&gt;Node162 -->
<g id="edge33" class="edge"><title>Node149&#45;&gt;Node162</title>
<path fill="none" stroke="midnightblue" d="M95.0253,-344.844C156.556,-342.395 266.796,-331.67 349,-288.338 384.638,-269.552 415.557,-233.031 431.971,-211.15"/>
<polygon fill="midnightblue" stroke="midnightblue" points="434.833,-213.165 437.903,-203.025 429.18,-209.037 434.833,-213.165"/>
</g>
<!-- Node151 -->
<g id="node3" class="node"><title>Node151</title>
<g id="a_node3"><a xlink:href="structLCD.html#ae7a8d9bc1581cfeeb0f098c8bb6d1229" target="_top" xlink:title="LCD::s2Cmd">
<polygon fill="white" stroke="black" points="542,-69.8376 542,-88.8376 616,-88.8376 616,-69.8376 542,-69.8376"/>
<text text-anchor="middle" x="579" y="-76.8376" font-family="Helvetica,sans-Serif" font-size="10.00">LCD::s2Cmd</text>
</a>
</g>
</g>
<!-- Node150&#45;&gt;Node151 -->
<g id="edge2" class="edge"><title>Node150&#45;&gt;Node151</title>
<path fill="none" stroke="midnightblue" d="M163.555,-145.749C172.171,-129.658 195.493,-100.788 223,-89.3376 330.092,-44.7582 471.281,-55.3949 538.78,-67.762"/>
<polygon fill="midnightblue" stroke="midnightblue" points="538.478,-71.2692 548.963,-69.7535 539.821,-64.3993 538.478,-71.2692"/>
</g>
<!-- Node157 -->
<g id="node9" class="node"><title>Node157</title>
<g id="a_node9"><a xlink:href="structLCD.html#ad31ee94d401b7c28d6cc2f472e2eb8fd" target="_top" xlink:title="LCD::changeMode">
<polygon fill="white" stroke="black" points="237,-107.838 237,-126.838 335,-126.838 335,-107.838 237,-107.838"/>
<text text-anchor="middle" x="286" y="-114.838" font-family="Helvetica,sans-Serif" font-size="10.00">LCD::changeMode</text>
</a>
</g>
</g>
<!-- Node150&#45;&gt;Node157 -->
<g id="edge10" class="edge"><title>Node150&#45;&gt;Node157</title>
<path fill="none" stroke="midnightblue" d="M176.086,-145.745C189.169,-140.278 208.468,-133.735 227.201,-128.175"/>
<polygon fill="midnightblue" stroke="midnightblue" points="228.275,-131.508 236.91,-125.369 226.331,-124.784 228.275,-131.508"/>
</g>
<!-- Node158 -->
<g id="node10" class="node"><title>Node158</title>
<g id="a_node10"><a xlink:href="structLCD.html#aa01b7522d1e210f9cd071e3a5d4ae9e6" target="_top" xlink:title="LCD::changeBackground">
<polygon fill="white" stroke="black" points="223,-145.838 223,-164.838 349,-164.838 349,-145.838 223,-145.838"/>
<text text-anchor="middle" x="286" y="-152.838" font-family="Helvetica,sans-Serif" font-size="10.00">LCD::changeBackground</text>
</a>
</g>
</g>
<!-- Node150&#45;&gt;Node158 -->
<g id="edge13" class="edge"><title>Node150&#45;&gt;Node158</title>
<path fill="none" stroke="midnightblue" d="M187.123,-149.659C194.792,-149.136 203.521,-148.805 212.533,-148.665"/>
<polygon fill="midnightblue" stroke="midnightblue" points="212.814,-152.163 222.788,-148.588 212.762,-145.163 212.814,-152.163"/>
</g>
<!-- Node159 -->
<g id="node11" class="node"><title>Node159</title>
<g id="a_node11"><a xlink:href="structLCD.html#a75cacb94de3b3ff71e9a4497b5cc4a81" target="_top" xlink:title="LCD::changeBrightness">
<polygon fill="white" stroke="black" points="385,-4.83764 385,-23.8376 506,-23.8376 506,-4.83764 385,-4.83764"/>
<text text-anchor="middle" x="445.5" y="-11.8376" font-family="Helvetica,sans-Serif" font-size="10.00">LCD::changeBrightness</text>
</a>
</g>
</g>
<!-- Node150&#45;&gt;Node159 -->
<g id="edge16" class="edge"><title>Node150&#45;&gt;Node159</title>
<path fill="none" stroke="midnightblue" d="M161.495,-145.599C166.526,-121.813 184.718,-64.265 223,-38.3376 276.233,-2.28427 353.118,0.960698 400.885,-3.6865"/>
<polygon fill="midnightblue" stroke="midnightblue" points="400.578,-7.17397 410.909,-4.8271 401.369,-0.218853 400.578,-7.17397"/>
</g>
<!-- Node160 -->
<g id="node12" class="node"><title>Node160</title>
<g id="a_node12"><a xlink:href="structLCD.html#ad3120f397273bac2ad60e0291554b9e6" target="_top" xlink:title="LCD::clear">
<polygon fill="white" stroke="black" points="254,-259.838 254,-278.838 318,-278.838 318,-259.838 254,-259.838"/>
<text text-anchor="middle" x="286" y="-266.838" font-family="Helvetica,sans-Serif" font-size="10.00">LCD::clear</text>
</a>
</g>
</g>
<!-- Node150&#45;&gt;Node160 -->
<g id="edge21" class="edge"><title>Node150&#45;&gt;Node160</title>
<path fill="none" stroke="midnightblue" d="M167.383,-164.944C177.389,-182.039 197.029,-215.985 223,-236.338 234.47,-245.326 249.706,-251.286 262.203,-256.098"/>
<polygon fill="midnightblue" stroke="midnightblue" points="260.927,-259.357 271.515,-259.747 263.481,-252.84 260.927,-259.357"/>
</g>
<!-- Node151&#45;&gt;Node150 -->
<g id="edge3" class="edge"><title>Node151&#45;&gt;Node150</title>
<path fill="none" stroke="midnightblue" d="M541.752,-78.8702C475.502,-73.7247 331.69,-62.093 223,-107.338 206.404,-114.246 191.331,-127.495 180.093,-138.511"/>
<polygon fill="midnightblue" stroke="midnightblue" points="177.533,-136.122 172.953,-145.676 182.491,-141.063 177.533,-136.122"/>
</g>
<!-- Node152 -->
<g id="node4" class="node"><title>Node152</title>
<g id="a_node4"><a xlink:href="structLCD.html#a739998fad0591a092255676c8c8d532f" target="_top" xlink:title="LCD::s1Cmd">
<polygon fill="white" stroke="black" points="652,-145.838 652,-164.838 726,-164.838 726,-145.838 652,-145.838"/>
<text text-anchor="middle" x="689" y="-152.838" font-family="Helvetica,sans-Serif" font-size="10.00">LCD::s1Cmd</text>
</a>
</g>
</g>
<!-- Node151&#45;&gt;Node152 -->
<g id="edge4" class="edge"><title>Node151&#45;&gt;Node152</title>
<path fill="none" stroke="midnightblue" d="M594.797,-89.0225C601.334,-93.3472 609.089,-98.5406 616,-103.338 633.308,-115.351 652.652,-129.354 666.927,-139.801"/>
<polygon fill="midnightblue" stroke="midnightblue" points="664.965,-142.702 675.097,-145.796 669.106,-137.058 664.965,-142.702"/>
</g>
<!-- Node152&#45;&gt;Node150 -->
<g id="edge5" class="edge"><title>Node152&#45;&gt;Node150</title>
<path fill="none" stroke="midnightblue" d="M664.274,-164.951C660.16,-166.695 655.94,-168.534 652,-170.338 635.734,-177.782 632.869,-182.385 616,-188.338 568.813,-204.989 555.751,-206.973 506,-212.338 380.722,-225.845 341.995,-236.779 223,-195.338 207.4,-189.905 191.712,-179.962 179.893,-171.348"/>
<polygon fill="midnightblue" stroke="midnightblue" points="181.758,-168.37 171.675,-165.118 177.529,-173.948 181.758,-168.37"/>
</g>
<!-- Node153 -->
<g id="node5" class="node"><title>Node153</title>
<g id="a_node5"><a xlink:href="classeagle__impl_1_1TwoWire.html#a1876ffdb16fb185c14a75e1251cef5e4" target="_top" xlink:title="eagle_impl::TwoWire\l::beginTransmission">
<polygon fill="white" stroke="black" points="762,-156.338 762,-186.338 870,-186.338 870,-156.338 762,-156.338"/>
<text text-anchor="start" x="770" y="-174.338" font-family="Helvetica,sans-Serif" font-size="10.00">eagle_impl::TwoWire</text>
<text text-anchor="middle" x="816" y="-163.338" font-family="Helvetica,sans-Serif" font-size="10.00">::beginTransmission</text>
</a>
</g>
</g>
<!-- Node152&#45;&gt;Node153 -->
<g id="edge6" class="edge"><title>Node152&#45;&gt;Node153</title>
<path fill="none" stroke="midnightblue" d="M726.155,-159.966C734.136,-160.987 742.819,-162.098 751.526,-163.213"/>
<polygon fill="midnightblue" stroke="midnightblue" points="751.356,-166.72 761.72,-164.518 752.245,-159.776 751.356,-166.72"/>
</g>
<!-- Node154 -->
<g id="node6" class="node"><title>Node154</title>
<g id="a_node6"><a xlink:href="classeagle__impl_1_1TwoWire.html#a2b5f9f156b6d281746a2a6ca5707dad3" target="_top" xlink:title="eagle_impl::TwoWire\l::write">
<polygon fill="white" stroke="black" points="762,-237.338 762,-267.338 870,-267.338 870,-237.338 762,-237.338"/>
<text text-anchor="start" x="770" y="-255.338" font-family="Helvetica,sans-Serif" font-size="10.00">eagle_impl::TwoWire</text>
<text text-anchor="middle" x="816" y="-244.338" font-family="Helvetica,sans-Serif" font-size="10.00">::write</text>
</a>
</g>
</g>
<!-- Node152&#45;&gt;Node154 -->
<g id="edge7" class="edge"><title>Node152&#45;&gt;Node154</title>
<path fill="none" stroke="midnightblue" d="M702.442,-164.993C722.057,-180.214 760.653,-210.164 787.131,-230.711"/>
<polygon fill="midnightblue" stroke="midnightblue" points="785.216,-233.656 795.262,-237.021 789.508,-228.125 785.216,-233.656"/>
</g>
<!-- Node156 -->
<g id="node8" class="node"><title>Node156</title>
<g id="a_node8"><a xlink:href="classeagle__impl_1_1TwoWire.html#af80f9a7b85a3a81a035ca94c95bcdc1d" target="_top" xlink:title="eagle_impl::TwoWire\l::endTransmission">
<polygon fill="white" stroke="black" points="762,-107.338 762,-137.338 870,-137.338 870,-107.338 762,-107.338"/>
<text text-anchor="start" x="770" y="-125.338" font-family="Helvetica,sans-Serif" font-size="10.00">eagle_impl::TwoWire</text>
<text text-anchor="middle" x="816" y="-114.338" font-family="Helvetica,sans-Serif" font-size="10.00">::endTransmission</text>
</a>
</g>
</g>
<!-- Node152&#45;&gt;Node156 -->
<g id="edge9" class="edge"><title>Node152&#45;&gt;Node156</title>
<path fill="none" stroke="midnightblue" d="M726.155,-145.793C734.223,-143.663 743.008,-141.344 751.81,-139.02"/>
<polygon fill="midnightblue" stroke="midnightblue" points="752.944,-142.34 761.72,-136.404 751.158,-135.572 752.944,-142.34"/>
</g>
<!-- Node155 -->
<g id="node7" class="node"><title>Node155</title>
<g id="a_node7"><a xlink:href="eBoard_8h.html#abb66f08d8061c1064047324c1bacc2a9" target="_top" xlink:title="twi_transmit">
<polygon fill="white" stroke="black" points="906,-242.838 906,-261.838 976,-261.838 976,-242.838 906,-242.838"/>
<text text-anchor="middle" x="941" y="-249.838" font-family="Helvetica,sans-Serif" font-size="10.00">twi_transmit</text>
</a>
</g>
</g>
<!-- Node154&#45;&gt;Node155 -->
<g id="edge8" class="edge"><title>Node154&#45;&gt;Node155</title>
<path fill="none" stroke="midnightblue" d="M870.234,-252.338C878.725,-252.338 887.431,-252.338 895.686,-252.338"/>
<polygon fill="midnightblue" stroke="midnightblue" points="895.854,-255.838 905.854,-252.338 895.854,-248.838 895.854,-255.838"/>
</g>
<!-- Node157&#45;&gt;Node150 -->
<g id="edge11" class="edge"><title>Node157&#45;&gt;Node150</title>
<path fill="none" stroke="midnightblue" d="M268.998,-126.895C250.929,-134.454 220.926,-144.085 196.968,-150.321"/>
<polygon fill="midnightblue" stroke="midnightblue" points="195.982,-146.96 187.123,-152.771 197.672,-153.753 195.982,-146.96"/>
</g>
<!-- Node157&#45;&gt;Node152 -->
<g id="edge12" class="edge"><title>Node157&#45;&gt;Node152</title>
<path fill="none" stroke="midnightblue" d="M335.37,-121.921C413.16,-129.293 565.065,-143.688 641.59,-150.94"/>
<polygon fill="midnightblue" stroke="midnightblue" points="641.586,-154.455 651.872,-151.914 642.246,-147.486 641.586,-154.455"/>
</g>
<!-- Node158&#45;&gt;Node150 -->
<g id="edge14" class="edge"><title>Node158&#45;&gt;Node150</title>
<path fill="none" stroke="midnightblue" d="M222.788,-162.088C214.064,-162.091 205.332,-161.92 197.273,-161.573"/>
<polygon fill="midnightblue" stroke="midnightblue" points="197.3,-158.069 187.123,-161.016 196.916,-165.059 197.3,-158.069"/>
</g>
<!-- Node158&#45;&gt;Node152 -->
<g id="edge15" class="edge"><title>Node158&#45;&gt;Node152</title>
<path fill="none" stroke="midnightblue" d="M349.216,-155.338C430.151,-155.338 569.699,-155.338 641.835,-155.338"/>
<polygon fill="midnightblue" stroke="midnightblue" points="641.974,-158.838 651.974,-155.338 641.974,-151.838 641.974,-158.838"/>
</g>
<!-- Node159&#45;&gt;Node150 -->
<g id="edge19" class="edge"><title>Node159&#45;&gt;Node150</title>
<path fill="none" stroke="midnightblue" d="M384.934,-17.0343C337.23,-18.0827 270.643,-24.0705 223,-56.3376 194.166,-75.8659 176.73,-113.333 167.729,-136.37"/>
<polygon fill="midnightblue" stroke="midnightblue" points="164.418,-135.232 164.177,-145.824 170.971,-137.694 164.418,-135.232"/>
</g>
<!-- Node159&#45;&gt;Node151 -->
<g id="edge20" class="edge"><title>Node159&#45;&gt;Node151</title>
<path fill="none" stroke="midnightblue" d="M465.903,-23.9286C487.949,-34.8258 524.139,-52.7143 549.416,-65.2087"/>
<polygon fill="midnightblue" stroke="midnightblue" points="548.002,-68.4137 558.517,-69.7073 551.103,-62.1385 548.002,-68.4137"/>
</g>
<!-- Node159&#45;&gt;Node153 -->
<g id="edge17" class="edge"><title>Node159&#45;&gt;Node153</title>
<path fill="none" stroke="midnightblue" d="M495.16,-23.8442C529.693,-31.4726 576.702,-43.667 616,-60.3376 685.538,-89.836 695.045,-112.37 762,-147.338 764.91,-148.857 767.935,-150.378 770.999,-151.875"/>
<polygon fill="midnightblue" stroke="midnightblue" points="769.7,-155.133 780.234,-156.269 772.708,-148.812 769.7,-155.133"/>
</g>
<!-- Node159&#45;&gt;Node156 -->
<g id="edge18" class="edge"><title>Node159&#45;&gt;Node156</title>
<path fill="none" stroke="midnightblue" d="M504.338,-4.81231C563.031,2.12973 655.094,5.37329 726,-27.3376 758.791,-42.4653 785.322,-75.7199 800.631,-98.579"/>
<polygon fill="midnightblue" stroke="midnightblue" points="797.752,-100.572 806.123,-107.066 803.629,-96.7689 797.752,-100.572"/>
</g>
<!-- Node160&#45;&gt;Node150 -->
<g id="edge22" class="edge"><title>Node160&#45;&gt;Node150</title>
<path fill="none" stroke="midnightblue" d="M253.793,-269.762C243.304,-266.572 231.994,-261.386 223,-254.338 195.914,-233.111 175.714,-197.1 166.148,-174.537"/>
<polygon fill="midnightblue" stroke="midnightblue" points="169.303,-172.993 162.418,-164.941 162.779,-175.53 169.303,-172.993"/>
</g>
<!-- Node160&#45;&gt;Node161 -->
<g id="edge23" class="edge"><title>Node160&#45;&gt;Node161</title>
<path fill="none" stroke="midnightblue" d="M318.142,-269.338C370.149,-269.338 474.814,-269.338 534.216,-269.338"/>
<polygon fill="midnightblue" stroke="midnightblue" points="534.406,-272.838 544.405,-269.338 534.405,-265.838 534.406,-272.838"/>
</g>
<!-- Node160&#45;&gt;Node162 -->
<g id="edge28" class="edge"><title>Node160&#45;&gt;Node162</title>
<path fill="none" stroke="midnightblue" d="M306.947,-259.712C334.403,-246.464 384.014,-222.525 415.552,-207.306"/>
<polygon fill="midnightblue" stroke="midnightblue" points="417.229,-210.383 424.714,-202.885 414.187,-204.079 417.229,-210.383"/>
</g>
<!-- Node161&#45;&gt;Node150 -->
<g id="edge24" class="edge"><title>Node161&#45;&gt;Node150</title>
<path fill="none" stroke="midnightblue" d="M555.395,-278.839C495.637,-302.332 330.698,-356.493 223,-288.338 183.372,-263.26 168.183,-205.77 162.76,-175.239"/>
<polygon fill="midnightblue" stroke="midnightblue" points="166.156,-174.308 161.129,-164.982 159.243,-175.407 166.156,-174.308"/>
</g>
<!-- Node161&#45;&gt;Node153 -->
<g id="edge25" class="edge"><title>Node161&#45;&gt;Node153</title>
<path fill="none" stroke="midnightblue" d="M602.961,-259.763C641.478,-243.7 719.784,-211.045 769.7,-190.229"/>
<polygon fill="midnightblue" stroke="midnightblue" points="771.097,-193.438 778.98,-186.359 768.403,-186.978 771.097,-193.438"/>
</g>
<!-- Node161&#45;&gt;Node154 -->
<g id="edge26" class="edge"><title>Node161&#45;&gt;Node154</title>
<path fill="none" stroke="midnightblue" d="M613.67,-266.902C649.581,-264.304 707.291,-260.129 751.737,-256.914"/>
<polygon fill="midnightblue" stroke="midnightblue" points="752.144,-260.394 761.865,-256.181 751.639,-253.412 752.144,-260.394"/>
</g>
<!-- Node161&#45;&gt;Node156 -->
<g id="edge27" class="edge"><title>Node161&#45;&gt;Node156</title>
<path fill="none" stroke="midnightblue" d="M595.964,-259.79C602.42,-255.653 609.796,-250.565 616,-245.338 633.79,-230.347 633.011,-220.778 652,-207.338 681.393,-186.533 694.957,-192.589 726,-174.338 743.241,-164.201 744.868,-157.657 762,-147.338 765.011,-145.524 768.174,-143.745 771.394,-142.024"/>
<polygon fill="midnightblue" stroke="midnightblue" points="773.23,-145.016 780.539,-137.346 770.042,-138.784 773.23,-145.016"/>
</g>
<!-- Node162&#45;&gt;Node150 -->
<g id="edge29" class="edge"><title>Node162&#45;&gt;Node150</title>
<path fill="none" stroke="midnightblue" d="M402.093,-192.307C357.245,-190.611 284.599,-186.136 223,-174.338 214.452,-172.7 205.411,-170.355 196.929,-167.867"/>
<polygon fill="midnightblue" stroke="midnightblue" points="197.878,-164.498 187.291,-164.917 195.828,-171.191 197.878,-164.498"/>
</g>
<!-- Node162&#45;&gt;Node151 -->
<g id="edge30" class="edge"><title>Node162&#45;&gt;Node151</title>
<path fill="none" stroke="midnightblue" d="M457.712,-183.618C480.227,-164.099 531.158,-119.946 558.981,-95.8257"/>
<polygon fill="midnightblue" stroke="midnightblue" points="561.553,-98.2276 566.817,-89.0326 556.968,-92.9385 561.553,-98.2276"/>
</g>
<!-- Node162&#45;&gt;Node152 -->
<g id="edge31" class="edge"><title>Node162&#45;&gt;Node152</title>
<path fill="none" stroke="midnightblue" d="M488.735,-187.97C523.084,-183.458 572.767,-176.597 616,-169.338 624.394,-167.928 633.314,-166.3 641.912,-164.664"/>
<polygon fill="midnightblue" stroke="midnightblue" points="642.653,-168.086 651.807,-162.752 641.325,-161.213 642.653,-168.086"/>
</g>
</g>
</svg>
        <g id="navigator" transform="translate(0 0)" fill="#404254">
                <rect fill="#f2f5e9" fill-opacity="0.5" stroke="#606060" stroke-width=".5" x="0" y="0" width="60" height="60"/>
                <use id="zoomplus" xlink:href="#zoomPlus" x="17" y="9" onmousedown="handleZoom(evt,'in')"/>
                <use id="zoomminus" xlink:href="#zoomMin" x="42" y="9" onmousedown="handleZoom(evt,'out')"/>
                <use id="reset" xlink:href="#resetDef" x="30" y="36" onmousedown="handleReset()"/>
                <g id="arrowUp" xlink:href="#dirArrow" transform="translate(30 24)" onmousedown="handlePan(0,-1)">
                  <use xlink:href="#rim" fill="#404040">
                        <set attributeName="fill" to="#808080" begin="arrowUp.mouseover" end="arrowUp.mouseout"/>
                  </use>
                  <path fill="none" stroke="white" stroke-width="1.5" d="M0,-3.0v7 M-2.5,-0.5L0,-3.0L2.5,-0.5"/>
                </g>
                <g id="arrowRight" xlink:href="#dirArrow" transform="rotate(90) translate(36 -43)" onmousedown="handlePan(1,0)">
                  <use xlink:href="#rim" fill="#404040">
                        <set attributeName="fill" to="#808080" begin="arrowRight.mouseover" end="arrowRight.mouseout"/>
                  </use>
                  <path fill="none" stroke="white" stroke-width="1.5" d="M0,-3.0v7 M-2.5,-0.5L0,-3.0L2.5,-0.5"/>
                </g>
                <g id="arrowDown" xlink:href="#dirArrow" transform="rotate(180) translate(-30 -48)" onmousedown="handlePan(0,1)">
                  <use xlink:href="#rim" fill="#404040">
                        <set attributeName="fill" to="#808080" begin="arrowDown.mouseover" end="arrowDown.mouseout"/>
                  </use>
                  <path fill="none" stroke="white" stroke-width="1.5" d="M0,-3.0v7 M-2.5,-0.5L0,-3.0L2.5,-0.5"/>
                </g>
                <g id="arrowLeft" xlink:href="#dirArrow" transform="rotate(270) translate(-36 17)" onmousedown="handlePan(-1,0)">
                  <use xlink:href="#rim" fill="#404040">
                        <set attributeName="fill" to="#808080" begin="arrowLeft.mouseover" end="arrowLeft.mouseout"/>
                  </use>
                  <path fill="none" stroke="white" stroke-width="1.5" d="M0,-3.0v7 M-2.5,-0.5L0,-3.0L2.5,-0.5"/>
                </g>
        </g>
        <svg viewBox="0 0 15 15" width="100%" height="30px" preserveAspectRatio="xMaxYMin meet">
         <g id="arrow_out" transform="scale(0.3 0.3)">
          <a xlink:href="structLCD_a0fd055c88888db0e52fea11f1df24d4a_cgraph_org.svg" target="_base">
           <rect id="button" ry="5" rx="5" y="6" x="6" height="38" width="38"
                fill="#f2f5e9" fill-opacity="0.5" stroke="#606060" stroke-width="1.0"/>
           <path id="arrow"
             d="M 11.500037,31.436501 C 11.940474,20.09759 22.043105,11.32322 32.158766,21.979434 L 37.068811,17.246167 C 37.068811,17.246167 37.088388,32 37.088388,32 L 22.160133,31.978069 C 22.160133,31.978069 26.997745,27.140456 26.997745,27.140456 C 18.528582,18.264221 13.291696,25.230495 11.500037,31.436501 z"
             style="fill:#404040;"/>
          </a>
         </g>
        </svg>
</svg>
