<?xml version="1.0" encoding="UTF-8" standalone="no"?>
<!DOCTYPE svg PUBLIC "-//W3C//DTD SVG 1.1//EN"
 "http://www.w3.org/Graphics/SVG/1.1/DTD/svg11.dtd">
<!-- Generated by graphviz version 2.40.1 (20161225.0304)
 -->
<!-- Title: DynamixelBoard Pages: 1 -->
<svg width="140pt" height="95pt"
 viewBox="0.00 0.00 139.50 95.00" xmlns="http://www.w3.org/2000/svg" xmlns:xlink="http://www.w3.org/1999/xlink">
<g id="graph0" class="graph" transform="scale(1 1) rotate(0) translate(4 91)">
<title>DynamixelBoard</title>
<polygon fill="#ffffff" stroke="transparent" points="-4,4 -4,-91 135.5,-91 135.5,4 -4,4"/>
<!-- Node1 -->
<g id="node1" class="node">
<title>Node1</title>
<polygon fill="#bfbfbf" stroke="#000000" points="0,-67.5 0,-86.5 101,-86.5 101,-67.5 0,-67.5"/>
<text text-anchor="middle" x="50.5" y="-74.5" font-family="Hack" font-size="10.00" fill="#000000">DynamixelBoard</text>
</g>
<!-- Node2 -->
<g id="node2" class="node">
<title>Node2</title>
<g id="a_node2"><a xlink:href="structAX12Servo.html" target="_top" xlink:title="This is the AX12Servo ghost struct :D. ">
<polygon fill="#ffffff" stroke="#000000" points="15,-.5 15,-19.5 86,-19.5 86,-.5 15,-.5"/>
<text text-anchor="middle" x="50.5" y="-7.5" font-family="Hack" font-size="10.00" fill="#000000">AX12Servo</text>
</a>
</g>
</g>
<!-- Node1&#45;&gt;Node2 -->
<g id="edge2" class="edge">
<title>Node1&#45;&gt;Node2</title>
<path fill="none" stroke="#9a32cd" stroke-dasharray="5,2" d="M16.8443,-62.4345C7.0106,-55.9517 .1655,-47.6021 5.5,-38 9.9686,-29.9565 17.8125,-23.9246 25.713,-19.56"/>
<polygon fill="#9a32cd" stroke="#9a32cd" points="15.1845,-65.517 25.6057,-67.4275 18.6504,-59.4353 15.1845,-65.517"/>
<text text-anchor="middle" x="36" y="-41" font-family="Hack" font-size="10.00" fill="#000000"> _conBoard</text>
</g>
<!-- Node2&#45;&gt;Node1 -->
<g id="edge1" class="edge">
<title>Node2&#45;&gt;Node1</title>
<path fill="none" stroke="#9a32cd" stroke-dasharray="5,2" d="M66.2712,-27.651C70.2592,-34.1612 72.8309,-41.7266 70.5,-49 68.3123,-55.8266 63.781,-62.4056 59.584,-67.4692"/>
<polygon fill="#9a32cd" stroke="#9a32cd" points="69.0429,-25.5125 60.2824,-19.5539 63.415,-29.6751 69.0429,-25.5125"/>
<text text-anchor="middle" x="101" y="-41" font-family="Hack" font-size="10.00" fill="#000000"> connected</text>
</g>
</g>
</svg>
