<?xml version="1.0" encoding="UTF-8" standalone="no"?>
<!DOCTYPE svg PUBLIC "-//W3C//DTD SVG 1.1//EN"
 "http://www.w3.org/Graphics/SVG/1.1/DTD/svg11.dtd">
<!-- Generated by graphviz version 2.38.0 (20140413.2041)
 -->
<!-- Title: LCD::init Pages: 1 -->
<!--zoomable 345 -->
<svg id="main" version="1.1" xmlns="http://www.w3.org/2000/svg" xmlns:xlink="http://www.w3.org/1999/xlink" xml:space="preserve" onload="init(evt)">
<style type="text/css"><![CDATA[
.edge:hover path { stroke: red; }
.edge:hover polygon { stroke: red; fill: red; }
]]></style>
<script type="text/javascript"><![CDATA[
var edges = document.getElementsByTagName('g');
if (edges && edges.length) {
  for (var i=0;i<edges.length;i++) {
    if (edges[i].id.substr(0,4)=='edge') {
      edges[i].setAttribute('class','edge');
    }
  }
}
]]></script>
        <defs>
                <circle id="rim" cx="0" cy="0" r="7"/>
                <circle id="rim2" cx="0" cy="0" r="3.5"/>
                <g id="zoomPlus">
                        <use xlink:href="#rim" fill="#404040">
                                <set attributeName="fill" to="#808080" begin="zoomplus.mouseover" end="zoomplus.mouseout"/>
                        </use>
                        <path d="M-4,0h8M0,-4v8" fill="none" stroke="white" stroke-width="1.5" pointer-events="none"/>
                </g>
                <g id="zoomMin">
                        <use xlink:href="#rim" fill="#404040">
                                <set attributeName="fill" to="#808080" begin="zoomminus.mouseover" end="zoomminus.mouseout"/>
                        </use>
                        <path d="M-4,0h8" fill="none" stroke="white" stroke-width="1.5" pointer-events="none"/>
                </g>
                <g id="dirArrow">
                        <path fill="none" stroke="white" stroke-width="1.5" d="M0,-3.0v7 M-2.5,-0.5L0,-3.0L2.5,-0.5"/>
                </g>
               <g id="resetDef">
                       <use xlink:href="#rim2" fill="#404040">
                               <set attributeName="fill" to="#808080" begin="reset.mouseover" end="reset.mouseout"/>
                       </use>
               </g>
        </defs>

<script type="text/javascript">
var viewWidth = 853;
var viewHeight = 345;
var sectionId = 'dynsection-11';
</script>
<script xlink:href="svgpan.js"/>
<svg id="graph" class="graph">
<g id="viewport">
<title>LCD::init</title>
<polygon fill="white" stroke="none" points="-4,4 -4,-340.692 849,-340.692 849,4 -4,4"/>
<!-- Node167 -->
<g id="node1" class="node"><title>Node167</title>
<polygon fill="#bfbfbf" stroke="black" points="0,-133.693 0,-152.693 56,-152.693 56,-133.693 0,-133.693"/>
<text text-anchor="middle" x="28" y="-140.693" font-family="Helvetica,sans-Serif" font-size="10.00">LCD::init</text>
</g>
<!-- Node168 -->
<g id="node2" class="node"><title>Node168</title>
<g id="a_node2"><a xlink:href="structLCD.html#aa01b7522d1e210f9cd071e3a5d4ae9e6" target="_top" xlink:title="LCD::changeBackground">
<polygon fill="white" stroke="black" points="92,-95.6925 92,-114.693 218,-114.693 218,-95.6925 92,-95.6925"/>
<text text-anchor="middle" x="155" y="-102.693" font-family="Helvetica,sans-Serif" font-size="10.00">LCD::changeBackground</text>
</a>
</g>
</g>
<!-- Node167&#45;&gt;Node168 -->
<g id="edge1" class="edge"><title>Node167&#45;&gt;Node168</title>
<path fill="none" stroke="midnightblue" d="M45.0857,-133.6C56.8814,-128.671 73.7304,-122.867 90.6614,-117.698"/>
<polygon fill="midnightblue" stroke="midnightblue" points="92.0159,-120.947 100.602,-114.74 90.0191,-114.237 92.0159,-120.947"/>
</g>
<!-- Node174 -->
<g id="node8" class="node"><title>Node174</title>
<g id="a_node8"><a xlink:href="structLCD.html#a75cacb94de3b3ff71e9a4497b5cc4a81" target="_top" xlink:title="LCD::changeBrightness">
<polygon fill="white" stroke="black" points="254,-312.693 254,-331.693 375,-331.693 375,-312.693 254,-312.693"/>
<text text-anchor="middle" x="314.5" y="-319.693" font-family="Helvetica,sans-Serif" font-size="10.00">LCD::changeBrightness</text>
</a>
</g>
</g>
<!-- Node167&#45;&gt;Node174 -->
<g id="edge9" class="edge"><title>Node167&#45;&gt;Node174</title>
<path fill="none" stroke="midnightblue" d="M30.6274,-152.7C34.8229,-178.451 48.8924,-247.035 92,-280.193 134.779,-313.097 196.292,-320.02 243.644,-320.898"/>
<polygon fill="midnightblue" stroke="midnightblue" points="243.791,-324.4 253.826,-321.002 243.862,-317.4 243.791,-324.4"/>
</g>
<!-- Node175 -->
<g id="node9" class="node"><title>Node175</title>
<g id="a_node9"><a xlink:href="structLCD.html#ae7a8d9bc1581cfeeb0f098c8bb6d1229" target="_top" xlink:title="LCD::s2Cmd">
<polygon fill="white" stroke="black" points="411,-247.693 411,-266.693 485,-266.693 485,-247.693 411,-247.693"/>
<text text-anchor="middle" x="448" y="-254.693" font-family="Helvetica,sans-Serif" font-size="10.00">LCD::s2Cmd</text>
</a>
</g>
</g>
<!-- Node167&#45;&gt;Node175 -->
<g id="edge30" class="edge"><title>Node167&#45;&gt;Node175</title>
<path fill="none" stroke="midnightblue" d="M34.8963,-152.85C43.7379,-170.928 62.5998,-207.601 92,-224.193 190.449,-279.751 329.552,-268.142 400.879,-260.292"/>
<polygon fill="midnightblue" stroke="midnightblue" points="401.35,-263.761 410.898,-259.169 400.571,-256.804 401.35,-263.761"/>
</g>
<!-- Node176 -->
<g id="node10" class="node"><title>Node176</title>
<g id="a_node10"><a xlink:href="structLCD.html#ad31ee94d401b7c28d6cc2f472e2eb8fd" target="_top" xlink:title="LCD::changeMode">
<polygon fill="white" stroke="black" points="106,-133.693 106,-152.693 204,-152.693 204,-133.693 106,-133.693"/>
<text text-anchor="middle" x="155" y="-140.693" font-family="Helvetica,sans-Serif" font-size="10.00">LCD::changeMode</text>
</a>
</g>
</g>
<!-- Node167&#45;&gt;Node176 -->
<g id="edge16" class="edge"><title>Node167&#45;&gt;Node176</title>
<path fill="none" stroke="midnightblue" d="M56.1231,-137.514C67.6813,-136.726 81.6462,-136.372 95.3622,-136.454"/>
<polygon fill="midnightblue" stroke="midnightblue" points="95.7098,-139.959 105.758,-136.601 95.8089,-132.96 95.7098,-139.959"/>
</g>
<!-- Node177 -->
<g id="node11" class="node"><title>Node177</title>
<g id="a_node11"><a xlink:href="structLCD.html#ad3120f397273bac2ad60e0291554b9e6" target="_top" xlink:title="LCD::clear">
<polygon fill="white" stroke="black" points="123,-57.6925 123,-76.6925 187,-76.6925 187,-57.6925 123,-57.6925"/>
<text text-anchor="middle" x="155" y="-64.6925" font-family="Helvetica,sans-Serif" font-size="10.00">LCD::clear</text>
</a>
</g>
</g>
<!-- Node167&#45;&gt;Node177 -->
<g id="edge19" class="edge"><title>Node167&#45;&gt;Node177</title>
<path fill="none" stroke="midnightblue" d="M33.0424,-133.586C42.3247,-118.355 66.3471,-91.7581 92,-77.1925 98.5287,-73.4856 105.863,-70.4206 113.141,-68.0738"/>
<polygon fill="midnightblue" stroke="midnightblue" points="114.263,-71.3941 122.948,-65.3259 112.375,-64.6537 114.263,-71.3941"/>
</g>
<!-- Node168&#45;&gt;Node167 -->
<g id="edge2" class="edge"><title>Node168&#45;&gt;Node167</title>
<path fill="none" stroke="midnightblue" d="M137.998,-114.75C119.929,-122.309 89.9265,-131.94 65.9684,-138.176"/>
<polygon fill="midnightblue" stroke="midnightblue" points="64.9824,-134.815 56.1231,-140.626 66.6723,-141.608 64.9824,-134.815"/>
</g>
<!-- Node169 -->
<g id="node3" class="node"><title>Node169</title>
<g id="a_node3"><a xlink:href="structLCD.html#a739998fad0591a092255676c8c8d532f" target="_top" xlink:title="LCD::s1Cmd">
<polygon fill="white" stroke="black" points="521,-171.693 521,-190.693 595,-190.693 595,-171.693 521,-171.693"/>
<text text-anchor="middle" x="558" y="-178.693" font-family="Helvetica,sans-Serif" font-size="10.00">LCD::s1Cmd</text>
</a>
</g>
</g>
<!-- Node168&#45;&gt;Node169 -->
<g id="edge3" class="edge"><title>Node168&#45;&gt;Node169</title>
<path fill="none" stroke="midnightblue" d="M218.219,-113.843C284.653,-123.53 392.83,-140.604 485,-161.193 494.971,-163.42 505.62,-166.169 515.588,-168.909"/>
<polygon fill="midnightblue" stroke="midnightblue" points="514.704,-172.296 525.277,-171.626 516.593,-165.556 514.704,-172.296"/>
</g>
<!-- Node169&#45;&gt;Node167 -->
<g id="edge4" class="edge"><title>Node169&#45;&gt;Node167</title>
<path fill="none" stroke="midnightblue" d="M520.973,-189.243C441.038,-205.436 243.906,-236.096 92,-183.193 76.4003,-177.76 60.7121,-167.816 48.8932,-159.203"/>
<polygon fill="midnightblue" stroke="midnightblue" points="50.7582,-156.225 40.6749,-152.973 46.5292,-161.803 50.7582,-156.225"/>
</g>
<!-- Node170 -->
<g id="node4" class="node"><title>Node170</title>
<g id="a_node4"><a xlink:href="classeagle__impl_1_1TwoWire.html#a1876ffdb16fb185c14a75e1251cef5e4" target="_top" xlink:title="eagle_impl::TwoWire\l::beginTransmission">
<polygon fill="white" stroke="black" points="631,-166.193 631,-196.193 739,-196.193 739,-166.193 631,-166.193"/>
<text text-anchor="start" x="639" y="-184.193" font-family="Helvetica,sans-Serif" font-size="10.00">eagle_impl::TwoWire</text>
<text text-anchor="middle" x="685" y="-173.193" font-family="Helvetica,sans-Serif" font-size="10.00">::beginTransmission</text>
</a>
</g>
</g>
<!-- Node169&#45;&gt;Node170 -->
<g id="edge5" class="edge"><title>Node169&#45;&gt;Node170</title>
<path fill="none" stroke="midnightblue" d="M595.155,-181.193C603.136,-181.193 611.819,-181.193 620.526,-181.193"/>
<polygon fill="midnightblue" stroke="midnightblue" points="620.72,-184.693 630.72,-181.193 620.72,-177.693 620.72,-184.693"/>
</g>
<!-- Node171 -->
<g id="node5" class="node"><title>Node171</title>
<g id="a_node5"><a xlink:href="classeagle__impl_1_1TwoWire.html#a2b5f9f156b6d281746a2a6ca5707dad3" target="_top" xlink:title="eagle_impl::TwoWire\l::write">
<polygon fill="white" stroke="black" points="631,-117.193 631,-147.193 739,-147.193 739,-117.193 631,-117.193"/>
<text text-anchor="start" x="639" y="-135.193" font-family="Helvetica,sans-Serif" font-size="10.00">eagle_impl::TwoWire</text>
<text text-anchor="middle" x="685" y="-124.193" font-family="Helvetica,sans-Serif" font-size="10.00">::write</text>
</a>
</g>
</g>
<!-- Node169&#45;&gt;Node171 -->
<g id="edge6" class="edge"><title>Node169&#45;&gt;Node171</title>
<path fill="none" stroke="midnightblue" d="M583.398,-171.628C598.265,-165.801 617.783,-158.149 635.668,-151.139"/>
<polygon fill="midnightblue" stroke="midnightblue" points="637.363,-154.234 645.396,-147.325 634.808,-147.716 637.363,-154.234"/>
</g>
<!-- Node173 -->
<g id="node7" class="node"><title>Node173</title>
<g id="a_node7"><a xlink:href="classeagle__impl_1_1TwoWire.html#af80f9a7b85a3a81a035ca94c95bcdc1d" target="_top" xlink:title="eagle_impl::TwoWire\l::endTransmission">
<polygon fill="white" stroke="black" points="631,-215.193 631,-245.193 739,-245.193 739,-215.193 631,-215.193"/>
<text text-anchor="start" x="639" y="-233.193" font-family="Helvetica,sans-Serif" font-size="10.00">eagle_impl::TwoWire</text>
<text text-anchor="middle" x="685" y="-222.193" font-family="Helvetica,sans-Serif" font-size="10.00">::endTransmission</text>
</a>
</g>
</g>
<!-- Node169&#45;&gt;Node173 -->
<g id="edge8" class="edge"><title>Node169&#45;&gt;Node173</title>
<path fill="none" stroke="midnightblue" d="M583.398,-190.757C598.265,-196.584 617.783,-204.236 635.668,-211.246"/>
<polygon fill="midnightblue" stroke="midnightblue" points="634.808,-214.669 645.396,-215.06 637.363,-208.151 634.808,-214.669"/>
</g>
<!-- Node172 -->
<g id="node6" class="node"><title>Node172</title>
<g id="a_node6"><a xlink:href="eBoard_8h.html#abb66f08d8061c1064047324c1bacc2a9" target="_top" xlink:title="twi_transmit">
<polygon fill="white" stroke="black" points="775,-122.693 775,-141.693 845,-141.693 845,-122.693 775,-122.693"/>
<text text-anchor="middle" x="810" y="-129.693" font-family="Helvetica,sans-Serif" font-size="10.00">twi_transmit</text>
</a>
</g>
</g>
<!-- Node171&#45;&gt;Node172 -->
<g id="edge7" class="edge"><title>Node171&#45;&gt;Node172</title>
<path fill="none" stroke="midnightblue" d="M739.234,-132.193C747.725,-132.193 756.431,-132.193 764.686,-132.193"/>
<polygon fill="midnightblue" stroke="midnightblue" points="764.854,-135.693 774.854,-132.193 764.854,-128.693 764.854,-135.693"/>
</g>
<!-- Node174&#45;&gt;Node167 -->
<g id="edge12" class="edge"><title>Node174&#45;&gt;Node167</title>
<path fill="none" stroke="midnightblue" d="M284.994,-331.708C239.298,-339.751 149.012,-342.045 92,-298.193 49.142,-265.227 34.9868,-197.244 30.7012,-163.091"/>
<polygon fill="midnightblue" stroke="midnightblue" points="34.1546,-162.471 29.5991,-152.905 27.1952,-163.224 34.1546,-162.471"/>
</g>
<!-- Node174&#45;&gt;Node170 -->
<g id="edge10" class="edge"><title>Node174&#45;&gt;Node170</title>
<path fill="none" stroke="midnightblue" d="M359.024,-312.69C393.674,-304.577 443.131,-291.763 485,-276.193 552.448,-251.109 566.013,-237.098 631,-206.193 634.824,-204.374 638.806,-202.486 642.793,-200.598"/>
<polygon fill="midnightblue" stroke="midnightblue" points="644.489,-203.668 652.034,-196.231 641.498,-197.34 644.489,-203.668"/>
</g>
<!-- Node174&#45;&gt;Node173 -->
<g id="edge11" class="edge"><title>Node174&#45;&gt;Node173</title>
<path fill="none" stroke="midnightblue" d="M375.209,-330.592C433.53,-336.267 523.677,-338.195 595,-309.193 623.842,-297.464 649.568,-272.168 665.853,-253.342"/>
<polygon fill="midnightblue" stroke="midnightblue" points="668.704,-255.389 672.441,-245.475 663.338,-250.894 668.704,-255.389"/>
</g>
<!-- Node174&#45;&gt;Node175 -->
<g id="edge13" class="edge"><title>Node174&#45;&gt;Node175</title>
<path fill="none" stroke="midnightblue" d="M334.903,-312.602C356.949,-301.704 393.139,-283.816 418.416,-271.321"/>
<polygon fill="midnightblue" stroke="midnightblue" points="420.103,-274.392 427.517,-266.823 417.002,-268.116 420.103,-274.392"/>
</g>
<!-- Node175&#45;&gt;Node167 -->
<g id="edge14" class="edge"><title>Node175&#45;&gt;Node167</title>
<path fill="none" stroke="midnightblue" d="M422.593,-266.736C362.013,-282.594 201.746,-304.127 92,-242.193 61.6149,-225.045 42.4859,-186.449 34.0414,-162.529"/>
<polygon fill="midnightblue" stroke="midnightblue" points="37.3713,-161.451 30.9926,-152.991 30.7036,-163.582 37.3713,-161.451"/>
</g>
<!-- Node175&#45;&gt;Node169 -->
<g id="edge15" class="edge"><title>Node175&#45;&gt;Node169</title>
<path fill="none" stroke="midnightblue" d="M463.797,-247.508C470.334,-243.183 478.089,-237.99 485,-233.193 502.308,-221.179 521.652,-207.176 535.927,-196.729"/>
<polygon fill="midnightblue" stroke="midnightblue" points="538.106,-199.472 544.097,-190.734 533.965,-193.828 538.106,-199.472"/>
</g>
<!-- Node176&#45;&gt;Node167 -->
<g id="edge17" class="edge"><title>Node176&#45;&gt;Node167</title>
<path fill="none" stroke="midnightblue" d="M105.758,-149.784C92.605,-150.081 78.5616,-149.961 66.1308,-149.422"/>
<polygon fill="midnightblue" stroke="midnightblue" points="66.3004,-145.926 56.1231,-148.871 65.9156,-152.915 66.3004,-145.926"/>
</g>
<!-- Node176&#45;&gt;Node169 -->
<g id="edge18" class="edge"><title>Node176&#45;&gt;Node169</title>
<path fill="none" stroke="midnightblue" d="M204.3,-147.139C248.69,-150.824 316.305,-156.583 375,-162.193 421.054,-166.594 473.605,-172.136 510.36,-176.097"/>
<polygon fill="midnightblue" stroke="midnightblue" points="510.443,-179.626 520.761,-177.221 511.195,-172.667 510.443,-179.626"/>
</g>
<!-- Node177&#45;&gt;Node167 -->
<g id="edge20" class="edge"><title>Node177&#45;&gt;Node167</title>
<path fill="none" stroke="midnightblue" d="M139.749,-76.7102C126.702,-81.4287 107.174,-86.5766 92,-95.1925 77.1374,-103.631 62.822,-116.109 51.6036,-126.406"/>
<polygon fill="midnightblue" stroke="midnightblue" points="48.9784,-124.066 44.0187,-133.429 53.7342,-129.203 48.9784,-124.066"/>
</g>
<!-- Node178 -->
<g id="node12" class="node"><title>Node178</title>
<g id="a_node12"><a xlink:href="structLCD.html#ae5873763db265cd00da32664cce88873" target="_top" xlink:title="LCD::s1Dat">
<polygon fill="white" stroke="black" points="523.5,-122.693 523.5,-141.693 592.5,-141.693 592.5,-122.693 523.5,-122.693"/>
<text text-anchor="middle" x="558" y="-129.693" font-family="Helvetica,sans-Serif" font-size="10.00">LCD::s1Dat</text>
</a>
</g>
</g>
<!-- Node177&#45;&gt;Node178 -->
<g id="edge21" class="edge"><title>Node177&#45;&gt;Node178</title>
<path fill="none" stroke="midnightblue" d="M187.217,-64.9691C246.647,-61.7088 379.525,-59.1154 485,-91.1925 503.402,-96.7889 522.223,-107.724 536.005,-116.895"/>
<polygon fill="midnightblue" stroke="midnightblue" points="534.058,-119.803 544.279,-122.592 538.028,-114.038 534.058,-119.803"/>
</g>
<!-- Node179 -->
<g id="node13" class="node"><title>Node179</title>
<g id="a_node13"><a xlink:href="structLCD.html#ad1a67d455563026a5064ef9cab86ae4d" target="_top" xlink:title="LCD::setCursor">
<polygon fill="white" stroke="black" points="271.5,-171.693 271.5,-190.693 357.5,-190.693 357.5,-171.693 271.5,-171.693"/>
<text text-anchor="middle" x="314.5" y="-178.693" font-family="Helvetica,sans-Serif" font-size="10.00">LCD::setCursor</text>
</a>
</g>
</g>
<!-- Node177&#45;&gt;Node179 -->
<g id="edge26" class="edge"><title>Node177&#45;&gt;Node179</title>
<path fill="none" stroke="midnightblue" d="M187.203,-73.578C197.464,-76.4896 208.634,-80.5774 218,-86.1925 252.223,-106.71 283.25,-142.079 300.139,-163.388"/>
<polygon fill="midnightblue" stroke="midnightblue" points="297.589,-165.812 306.479,-171.575 303.124,-161.526 297.589,-165.812"/>
</g>
<!-- Node178&#45;&gt;Node167 -->
<g id="edge22" class="edge"><title>Node178&#45;&gt;Node167</title>
<path fill="none" stroke="midnightblue" d="M548.881,-122.366C536.652,-108.334 512.042,-82.9543 485,-71.1925 324.553,-1.40827 246.162,34.554 92,-48.1925 62.1948,-64.1904 44.1048,-101.177 35.3732,-123.993"/>
<polygon fill="midnightblue" stroke="midnightblue" points="31.9995,-123.032 31.9195,-133.627 38.5889,-125.394 31.9995,-123.032"/>
</g>
<!-- Node178&#45;&gt;Node170 -->
<g id="edge23" class="edge"><title>Node178&#45;&gt;Node170</title>
<path fill="none" stroke="midnightblue" d="M583.398,-141.757C598.265,-147.584 617.783,-155.236 635.668,-162.246"/>
<polygon fill="midnightblue" stroke="midnightblue" points="634.808,-165.669 645.396,-166.06 637.363,-159.151 634.808,-165.669"/>
</g>
<!-- Node178&#45;&gt;Node171 -->
<g id="edge24" class="edge"><title>Node178&#45;&gt;Node171</title>
<path fill="none" stroke="midnightblue" d="M592.827,-132.193C601.52,-132.193 611.158,-132.193 620.818,-132.193"/>
<polygon fill="midnightblue" stroke="midnightblue" points="620.854,-135.693 630.854,-132.193 620.854,-128.693 620.854,-135.693"/>
</g>
<!-- Node178&#45;&gt;Node173 -->
<g id="edge25" class="edge"><title>Node178&#45;&gt;Node173</title>
<path fill="none" stroke="midnightblue" d="M571.84,-141.911C578.951,-147.53 587.784,-154.911 595,-162.193 612.786,-180.139 610.964,-190.798 631,-206.193 632.757,-207.543 634.602,-208.837 636.507,-210.077"/>
<polygon fill="midnightblue" stroke="midnightblue" points="634.762,-213.111 645.159,-215.153 638.305,-207.073 634.762,-213.111"/>
</g>
<!-- Node179&#45;&gt;Node167 -->
<g id="edge27" class="edge"><title>Node179&#45;&gt;Node167</title>
<path fill="none" stroke="midnightblue" d="M271.093,-180.162C226.245,-178.466 153.599,-173.991 92,-162.193 83.4517,-160.555 74.4115,-158.21 65.9294,-155.722"/>
<polygon fill="midnightblue" stroke="midnightblue" points="66.8779,-152.352 56.2914,-152.771 64.8285,-159.046 66.8779,-152.352"/>
</g>
<!-- Node179&#45;&gt;Node169 -->
<g id="edge29" class="edge"><title>Node179&#45;&gt;Node169</title>
<path fill="none" stroke="midnightblue" d="M357.566,-181.193C400.354,-181.193 466.488,-181.193 510.731,-181.193"/>
<polygon fill="midnightblue" stroke="midnightblue" points="510.927,-184.693 520.927,-181.193 510.927,-177.693 510.927,-184.693"/>
</g>
<!-- Node179&#45;&gt;Node175 -->
<g id="edge28" class="edge"><title>Node179&#45;&gt;Node175</title>
<path fill="none" stroke="midnightblue" d="M332.155,-190.818C354.781,-203.895 395.431,-227.388 421.801,-242.629"/>
<polygon fill="midnightblue" stroke="midnightblue" points="420.071,-245.672 430.481,-247.645 423.574,-239.611 420.071,-245.672"/>
</g>
</g>
</svg>
        <g id="navigator" transform="translate(0 0)" fill="#404254">
                <rect fill="#f2f5e9" fill-opacity="0.5" stroke="#606060" stroke-width=".5" x="0" y="0" width="60" height="60"/>
                <use id="zoomplus" xlink:href="#zoomPlus" x="17" y="9" onmousedown="handleZoom(evt,'in')"/>
                <use id="zoomminus" xlink:href="#zoomMin" x="42" y="9" onmousedown="handleZoom(evt,'out')"/>
                <use id="reset" xlink:href="#resetDef" x="30" y="36" onmousedown="handleReset()"/>
                <g id="arrowUp" xlink:href="#dirArrow" transform="translate(30 24)" onmousedown="handlePan(0,-1)">
                  <use xlink:href="#rim" fill="#404040">
                        <set attributeName="fill" to="#808080" begin="arrowUp.mouseover" end="arrowUp.mouseout"/>
                  </use>
                  <path fill="none" stroke="white" stroke-width="1.5" d="M0,-3.0v7 M-2.5,-0.5L0,-3.0L2.5,-0.5"/>
                </g>
                <g id="arrowRight" xlink:href="#dirArrow" transform="rotate(90) translate(36 -43)" onmousedown="handlePan(1,0)">
                  <use xlink:href="#rim" fill="#404040">
                        <set attributeName="fill" to="#808080" begin="arrowRight.mouseover" end="arrowRight.mouseout"/>
                  </use>
                  <path fill="none" stroke="white" stroke-width="1.5" d="M0,-3.0v7 M-2.5,-0.5L0,-3.0L2.5,-0.5"/>
                </g>
                <g id="arrowDown" xlink:href="#dirArrow" transform="rotate(180) translate(-30 -48)" onmousedown="handlePan(0,1)">
                  <use xlink:href="#rim" fill="#404040">
                        <set attributeName="fill" to="#808080" begin="arrowDown.mouseover" end="arrowDown.mouseout"/>
                  </use>
                  <path fill="none" stroke="white" stroke-width="1.5" d="M0,-3.0v7 M-2.5,-0.5L0,-3.0L2.5,-0.5"/>
                </g>
                <g id="arrowLeft" xlink:href="#dirArrow" transform="rotate(270) translate(-36 17)" onmousedown="handlePan(-1,0)">
                  <use xlink:href="#rim" fill="#404040">
                        <set attributeName="fill" to="#808080" begin="arrowLeft.mouseover" end="arrowLeft.mouseout"/>
                  </use>
                  <path fill="none" stroke="white" stroke-width="1.5" d="M0,-3.0v7 M-2.5,-0.5L0,-3.0L2.5,-0.5"/>
                </g>
        </g>
        <svg viewBox="0 0 15 15" width="100%" height="30px" preserveAspectRatio="xMaxYMin meet">
         <g id="arrow_out" transform="scale(0.3 0.3)">
          <a xlink:href="structLCD_a632d9c641930fe16c0b623b82136196e_cgraph_org.svg" target="_base">
           <rect id="button" ry="5" rx="5" y="6" x="6" height="38" width="38"
                fill="#f2f5e9" fill-opacity="0.5" stroke="#606060" stroke-width="1.0"/>
           <path id="arrow"
             d="M 11.500037,31.436501 C 11.940474,20.09759 22.043105,11.32322 32.158766,21.979434 L 37.068811,17.246167 C 37.068811,17.246167 37.088388,32 37.088388,32 L 22.160133,31.978069 C 22.160133,31.978069 26.997745,27.140456 26.997745,27.140456 C 18.528582,18.264221 13.291696,25.230495 11.500037,31.436501 z"
             style="fill:#404040;"/>
          </a>
         </g>
        </svg>
</svg>
