<?xml version="1.0" encoding="UTF-8" standalone="no"?>
<!DOCTYPE svg PUBLIC "-//W3C//DTD SVG 1.1//EN"
 "http://www.w3.org/Graphics/SVG/1.1/DTD/svg11.dtd">
<!-- Generated by graphviz version 2.40.1 (20161225.0304)
 -->
<!-- Title: DynamixelBoard Pages: 1 -->
<svg width="117pt" height="95pt"
 viewBox="0.00 0.00 116.50 95.00" xmlns="http://www.w3.org/2000/svg" xmlns:xlink="http://www.w3.org/1999/xlink">
<g id="graph0" class="graph" transform="scale(1 1) rotate(0) translate(4 91)">
<title>DynamixelBoard</title>
<polygon fill="#ffffff" stroke="transparent" points="-4,4 -4,-91 112.5,-91 112.5,4 -4,4"/>
<!-- Node1 -->
<g id="node1" class="node">
<title>Node1</title>
<polygon fill="#bfbfbf" stroke="#000000" points="0,-67.5 0,-86.5 89,-86.5 89,-67.5 0,-67.5"/>
<text text-anchor="middle" x="44.5" y="-74.5" font-family="Helvetica,sans-Serif" font-size="10.00" fill="#000000">DynamixelBoard</text>
</g>
<!-- Node2 -->
<g id="node2" class="node">
<title>Node2</title>
<g id="a_node2"><a xlink:href="structAX12Servo.html" target="_top" xlink:title="This is the AX12Servo ghost struct :D. ">
<polygon fill="#ffffff" stroke="#000000" points="11.5,-.5 11.5,-19.5 77.5,-19.5 77.5,-.5 11.5,-.5"/>
<text text-anchor="middle" x="44.5" y="-7.5" font-family="Helvetica,sans-Serif" font-size="10.00" fill="#000000">AX12Servo</text>
</a>
</g>
</g>
<!-- Node1&#45;&gt;Node2 -->
<g id="edge2" class="edge">
<title>Node1&#45;&gt;Node2</title>
<path fill="none" stroke="#9a32cd" stroke-dasharray="5,2" d="M15.5828,-61.2811C11.5191,-57.7887 7.9114,-53.6999 5.5,-49 -.576,-37.158 11.444,-26.6779 23.7001,-19.5719"/>
<polygon fill="#9a32cd" stroke="#9a32cd" points="13.6274,-64.1871 23.7651,-67.2656 17.7599,-58.5371 13.6274,-64.1871"/>
<text text-anchor="middle" x="30.5" y="-41" font-family="Helvetica,sans-Serif" font-size="10.00" fill="#000000"> _conBoard</text>
</g>
<!-- Node2&#45;&gt;Node1 -->
<g id="edge1" class="edge">
<title>Node2&#45;&gt;Node1</title>
<path fill="none" stroke="#9a32cd" stroke-dasharray="5,2" d="M56.7568,-28.7816C59.5163,-35.1003 61.192,-42.2585 59.5,-49 57.8622,-55.5256 54.3787,-62.1906 51.1807,-67.3801"/>
<polygon fill="#9a32cd" stroke="#9a32cd" points="59.6933,-26.8537 51.8565,-19.7238 53.5365,-30.1846 59.6933,-26.8537"/>
<text text-anchor="middle" x="84" y="-41" font-family="Helvetica,sans-Serif" font-size="10.00" fill="#000000"> connected</text>
</g>
</g>
</svg>
