<?xml version="1.0" encoding="UTF-8" standalone="no"?>
<!DOCTYPE svg PUBLIC "-//W3C//DTD SVG 1.1//EN"
 "http://www.w3.org/Graphics/SVG/1.1/DTD/svg11.dtd">
<!-- Generated by graphviz version 2.38.0 (20140413.2041)
 -->
<!-- Title: ServoCds55::SetID Pages: 1 -->
<svg width="411pt" height="39pt"
 viewBox="0.00 0.00 411.00 39.00" xmlns="http://www.w3.org/2000/svg" xmlns:xlink="http://www.w3.org/1999/xlink">
<g id="graph0" class="graph" transform="scale(1 1) rotate(0) translate(4 35)">
<title>ServoCds55::SetID</title>
<polygon fill="white" stroke="none" points="-4,4 -4,-35 407,-35 407,4 -4,4"/>
<!-- Node32 -->
<g id="node1" class="node"><title>Node32</title>
<polygon fill="#bfbfbf" stroke="black" points="0,-6 0,-25 102,-25 102,-6 0,-6"/>
<text text-anchor="middle" x="51" y="-13" font-family="Helvetica,sans-Serif" font-size="10.00">ServoCds55::SetID</text>
</g>
<!-- Node33 -->
<g id="node2" class="node"><title>Node33</title>
<g id="a_node2"><a xlink:href="structServoCds55.html#a0ddbf204d991dae881cc22b8985efee3" target="_top" xlink:title="ServoCds55::sendWait">
<polygon fill="white" stroke="black" points="138,-6 138,-25 256,-25 256,-6 138,-6"/>
<text text-anchor="middle" x="197" y="-13" font-family="Helvetica,sans-Serif" font-size="10.00">ServoCds55::sendWait</text>
</a>
</g>
</g>
<!-- Node32&#45;&gt;Node33 -->
<g id="edge1" class="edge"><title>Node32&#45;&gt;Node33</title>
<path fill="none" stroke="midnightblue" d="M102.364,-15.5C110.437,-15.5 118.909,-15.5 127.321,-15.5"/>
<polygon fill="midnightblue" stroke="midnightblue" points="127.521,-19.0001 137.521,-15.5 127.52,-12.0001 127.521,-19.0001"/>
</g>
<!-- Node34 -->
<g id="node3" class="node"><title>Node34</title>
<g id="a_node3"><a xlink:href="structeagle__impl_1_1SPIClass.html#a821dccd5dda20ccd9093fc35cce74ae5" target="_top" xlink:title="eagle_impl::SPIClass\l::transfer">
<polygon fill="white" stroke="black" points="292,-0.5 292,-30.5 403,-30.5 403,-0.5 292,-0.5"/>
<text text-anchor="start" x="300" y="-18.5" font-family="Helvetica,sans-Serif" font-size="10.00">eagle_impl::SPIClass</text>
<text text-anchor="middle" x="347.5" y="-7.5" font-family="Helvetica,sans-Serif" font-size="10.00">::transfer</text>
</a>
</g>
</g>
<!-- Node33&#45;&gt;Node34 -->
<g id="edge2" class="edge"><title>Node33&#45;&gt;Node34</title>
<path fill="none" stroke="midnightblue" d="M256.265,-15.5C264.584,-15.5 273.183,-15.5 281.619,-15.5"/>
<polygon fill="midnightblue" stroke="midnightblue" points="281.797,-19.0001 291.797,-15.5 281.797,-12.0001 281.797,-19.0001"/>
</g>
</g>
</svg>
