<?xml version="1.0" encoding="UTF-8" standalone="no"?>
<!DOCTYPE svg PUBLIC "-//W3C//DTD SVG 1.1//EN"
 "http://www.w3.org/Graphics/SVG/1.1/DTD/svg11.dtd">
<!-- Generated by graphviz version 2.38.0 (20140413.2041)
 -->
<!-- Title: LCD::s1Cmd Pages: 1 -->
<!--zoomable 444 -->
<svg id="main" version="1.1" xmlns="http://www.w3.org/2000/svg" xmlns:xlink="http://www.w3.org/1999/xlink" xml:space="preserve" onload="init(evt)">
<style type="text/css"><![CDATA[
.edge:hover path { stroke: red; }
.edge:hover polygon { stroke: red; fill: red; }
]]></style>
<script type="text/javascript"><![CDATA[
var edges = document.getElementsByTagName('g');
if (edges && edges.length) {
  for (var i=0;i<edges.length;i++) {
    if (edges[i].id.substr(0,4)=='edge') {
      edges[i].setAttribute('class','edge');
    }
  }
}
]]></script>
        <defs>
                <circle id="rim" cx="0" cy="0" r="7"/>
                <circle id="rim2" cx="0" cy="0" r="3.5"/>
                <g id="zoomPlus">
                        <use xlink:href="#rim" fill="#404040">
                                <set attributeName="fill" to="#808080" begin="zoomplus.mouseover" end="zoomplus.mouseout"/>
                        </use>
                        <path d="M-4,0h8M0,-4v8" fill="none" stroke="white" stroke-width="1.5" pointer-events="none"/>
                </g>
                <g id="zoomMin">
                        <use xlink:href="#rim" fill="#404040">
                                <set attributeName="fill" to="#808080" begin="zoomminus.mouseover" end="zoomminus.mouseout"/>
                        </use>
                        <path d="M-4,0h8" fill="none" stroke="white" stroke-width="1.5" pointer-events="none"/>
                </g>
                <g id="dirArrow">
                        <path fill="none" stroke="white" stroke-width="1.5" d="M0,-3.0v7 M-2.5,-0.5L0,-3.0L2.5,-0.5"/>
                </g>
               <g id="resetDef">
                       <use xlink:href="#rim2" fill="#404040">
                               <set attributeName="fill" to="#808080" begin="reset.mouseover" end="reset.mouseout"/>
                       </use>
               </g>
        </defs>

<script type="text/javascript">
var viewWidth = 859;
var viewHeight = 444;
var sectionId = 'dynsection-21';
</script>
<script xlink:href="svgpan.js"/>
<svg id="graph" class="graph">
<g id="viewport">
<title>LCD::s1Cmd</title>
<polygon fill="white" stroke="none" points="-4,4 -4,-440 855,-440 855,4 -4,4"/>
<!-- Node296 -->
<g id="node1" class="node"><title>Node296</title>
<polygon fill="#bfbfbf" stroke="black" points="0,-151.5 0,-170.5 74,-170.5 74,-151.5 0,-151.5"/>
<text text-anchor="middle" x="37" y="-158.5" font-family="Helvetica,sans-Serif" font-size="10.00">LCD::s1Cmd</text>
</g>
<!-- Node297 -->
<g id="node2" class="node"><title>Node297</title>
<g id="a_node2"><a xlink:href="structLCD.html#aa01b7522d1e210f9cd071e3a5d4ae9e6" target="_top" xlink:title="LCD::changeBackground">
<polygon fill="white" stroke="black" points="110,-151.5 110,-170.5 236,-170.5 236,-151.5 110,-151.5"/>
<text text-anchor="middle" x="173" y="-158.5" font-family="Helvetica,sans-Serif" font-size="10.00">LCD::changeBackground</text>
</a>
</g>
</g>
<!-- Node296&#45;&gt;Node297 -->
<g id="edge1" class="edge"><title>Node296&#45;&gt;Node297</title>
<path fill="none" stroke="midnightblue" d="M84.3957,-161C92.6233,-161 101.31,-161 109.89,-161"/>
<polygon fill="midnightblue" stroke="midnightblue" points="84.2624,-157.5 74.2623,-161 84.2623,-164.5 84.2624,-157.5"/>
</g>
<!-- Node303 -->
<g id="node8" class="node"><title>Node303</title>
<g id="a_node8"><a xlink:href="structLCD.html#ad31ee94d401b7c28d6cc2f472e2eb8fd" target="_top" xlink:title="LCD::changeMode">
<polygon fill="white" stroke="black" points="364,-66.5 364,-85.5 462,-85.5 462,-66.5 364,-66.5"/>
<text text-anchor="middle" x="413" y="-73.5" font-family="Helvetica,sans-Serif" font-size="10.00">LCD::changeMode</text>
</a>
</g>
</g>
<!-- Node296&#45;&gt;Node303 -->
<g id="edge32" class="edge"><title>Node296&#45;&gt;Node303</title>
<path fill="none" stroke="midnightblue" d="M82.9579,-148.819C91.8998,-146.486 101.234,-144.113 110,-142 200.129,-120.27 306.138,-97.8132 365.554,-85.5054"/>
<polygon fill="midnightblue" stroke="midnightblue" points="81.8587,-145.489 73.08,-151.421 83.6417,-152.258 81.8587,-145.489"/>
</g>
<!-- Node311 -->
<g id="node16" class="node"><title>Node311</title>
<g id="a_node16"><a xlink:href="structLCD.html#ae7a8d9bc1581cfeeb0f098c8bb6d1229" target="_top" xlink:title="LCD::s2Cmd">
<polygon fill="white" stroke="black" points="376,-350.5 376,-369.5 450,-369.5 450,-350.5 376,-350.5"/>
<text text-anchor="middle" x="413" y="-357.5" font-family="Helvetica,sans-Serif" font-size="10.00">LCD::s2Cmd</text>
</a>
</g>
</g>
<!-- Node296&#45;&gt;Node311 -->
<g id="edge33" class="edge"><title>Node296&#45;&gt;Node311</title>
<path fill="none" stroke="midnightblue" d="M63.959,-175.606C77.6194,-183.246 94.6714,-192.708 110,-201 216.84,-258.793 346.227,-325.986 393.539,-350.464"/>
<polygon fill="midnightblue" stroke="midnightblue" points="65.5413,-172.481 55.1066,-170.646 62.1192,-178.587 65.5413,-172.481"/>
</g>
<!-- Node312 -->
<g id="node17" class="node"><title>Node312</title>
<g id="a_node17"><a xlink:href="structLCD.html#ad1a67d455563026a5064ef9cab86ae4d" target="_top" xlink:title="LCD::setCursor">
<polygon fill="white" stroke="black" points="515.5,-236.5 515.5,-255.5 601.5,-255.5 601.5,-236.5 515.5,-236.5"/>
<text text-anchor="middle" x="558.5" y="-243.5" font-family="Helvetica,sans-Serif" font-size="10.00">LCD::setCursor</text>
</a>
</g>
</g>
<!-- Node296&#45;&gt;Node312 -->
<g id="edge34" class="edge"><title>Node296&#45;&gt;Node312</title>
<path fill="none" stroke="midnightblue" d="M56.0631,-144.593C69.8689,-132.931 89.8902,-117.829 110,-109 254.801,-45.4254 327.301,25.856 462,-57 529.324,-98.4125 550.925,-203.574 556.117,-236.196"/>
<polygon fill="midnightblue" stroke="midnightblue" points="53.5742,-142.119 48.3251,-151.322 58.1677,-147.401 53.5742,-142.119"/>
</g>
<!-- Node298 -->
<g id="node3" class="node"><title>Node298</title>
<g id="a_node3"><a xlink:href="structLCD.html#a632d9c641930fe16c0b623b82136196e" target="_top" xlink:title="LCD::init">
<polygon fill="white" stroke="black" points="272,-189.5 272,-208.5 328,-208.5 328,-189.5 272,-189.5"/>
<text text-anchor="middle" x="300" y="-196.5" font-family="Helvetica,sans-Serif" font-size="10.00">LCD::init</text>
</a>
</g>
</g>
<!-- Node297&#45;&gt;Node298 -->
<g id="edge2" class="edge"><title>Node297&#45;&gt;Node298</title>
<path fill="none" stroke="midnightblue" d="M237.369,-173.515C254.393,-178.713 271.331,-184.552 283.129,-189.497"/>
<polygon fill="midnightblue" stroke="midnightblue" points="237.957,-170.038 227.374,-170.54 235.96,-176.747 237.957,-170.038"/>
</g>
<!-- Node308 -->
<g id="node13" class="node"><title>Node308</title>
<g id="a_node13"><a xlink:href="dancing__dragon_8cpp.html#a840291bc02cba5474a4cb46a9b9566fe" target="_top" xlink:title="main">
<polygon fill="white" stroke="black" points="799.5,-59.5 799.5,-78.5 837.5,-78.5 837.5,-59.5 799.5,-59.5"/>
<text text-anchor="middle" x="818.5" y="-66.5" font-family="Helvetica,sans-Serif" font-size="10.00">main</text>
</a>
</g>
</g>
<!-- Node297&#45;&gt;Node308 -->
<g id="edge31" class="edge"><title>Node297&#45;&gt;Node308</title>
<path fill="none" stroke="midnightblue" d="M187.103,-143.478C219.949,-101.759 310.471,-0 412,-0 412,-0 412,-0 559.5,-0 652.464,-1.42109e-14 758.067,-42.3251 799.487,-60.677"/>
<polygon fill="midnightblue" stroke="midnightblue" points="184.321,-141.354 180.987,-151.411 189.865,-145.629 184.321,-141.354"/>
</g>
<!-- Node298&#45;&gt;Node296 -->
<g id="edge18" class="edge"><title>Node298&#45;&gt;Node296</title>
<path fill="none" stroke="midnightblue" d="M261.73,-196.994C223.434,-194.527 162.205,-189.451 110,-180 96.6428,-177.582 82.1303,-173.951 69.6572,-170.509"/>
<polygon fill="midnightblue" stroke="midnightblue" points="261.7,-200.499 271.897,-197.622 262.132,-193.512 261.7,-200.499"/>
</g>
<!-- Node298&#45;&gt;Node297 -->
<g id="edge3" class="edge"><title>Node298&#45;&gt;Node297</title>
<path fill="none" stroke="midnightblue" d="M261.727,-193.904C237.856,-187.675 208.087,-178.114 190.086,-170.592"/>
<polygon fill="midnightblue" stroke="midnightblue" points="260.994,-197.329 271.544,-196.354 262.689,-190.537 260.994,-197.329"/>
</g>
<!-- Node299 -->
<g id="node4" class="node"><title>Node299</title>
<g id="a_node4"><a xlink:href="structLCD.html#a75cacb94de3b3ff71e9a4497b5cc4a81" target="_top" xlink:title="LCD::changeBrightness">
<polygon fill="white" stroke="black" points="498,-397.5 498,-416.5 619,-416.5 619,-397.5 498,-397.5"/>
<text text-anchor="middle" x="558.5" y="-404.5" font-family="Helvetica,sans-Serif" font-size="10.00">LCD::changeBrightness</text>
</a>
</g>
</g>
<!-- Node298&#45;&gt;Node299 -->
<g id="edge4" class="edge"><title>Node298&#45;&gt;Node299</title>
<path fill="none" stroke="midnightblue" d="M301.984,-218.811C304.992,-255.163 316.953,-331.257 364,-370 400.945,-400.425 455.893,-405.829 497.805,-406.048"/>
<polygon fill="midnightblue" stroke="midnightblue" points="305.453,-218.245 301.288,-208.503 298.469,-218.716 305.453,-218.245"/>
</g>
<!-- Node302 -->
<g id="node7" class="node"><title>Node302</title>
<g id="a_node7"><a xlink:href="structLCD.html#aa5e25fef7649532af402df06f05b6d4c" target="_top" xlink:title="LCD::changeID">
<polygon fill="white" stroke="black" points="370.5,-142.5 370.5,-161.5 455.5,-161.5 455.5,-142.5 370.5,-142.5"/>
<text text-anchor="middle" x="413" y="-149.5" font-family="Helvetica,sans-Serif" font-size="10.00">LCD::changeID</text>
</a>
</g>
</g>
<!-- Node298&#45;&gt;Node302 -->
<g id="edge8" class="edge"><title>Node298&#45;&gt;Node302</title>
<path fill="none" stroke="midnightblue" d="M332.971,-185.463C350.947,-177.851 372.964,-168.529 389.19,-161.658"/>
<polygon fill="midnightblue" stroke="midnightblue" points="331.306,-182.367 323.463,-189.489 334.036,-188.813 331.306,-182.367"/>
</g>
<!-- Node298&#45;&gt;Node303 -->
<g id="edge9" class="edge"><title>Node298&#45;&gt;Node303</title>
<path fill="none" stroke="midnightblue" d="M306.704,-179.792C316.033,-155.799 336.325,-115.959 364,-91 366.076,-89.128 368.324,-87.3652 370.676,-85.7261"/>
<polygon fill="midnightblue" stroke="midnightblue" points="303.374,-178.708 303.294,-189.303 309.964,-181.071 303.374,-178.708"/>
</g>
<!-- Node304 -->
<g id="node9" class="node"><title>Node304</title>
<g id="a_node9"><a xlink:href="structLCD.html#ad3120f397273bac2ad60e0291554b9e6" target="_top" xlink:title="LCD::clear">
<polygon fill="white" stroke="black" points="670.5,-212.5 670.5,-231.5 734.5,-231.5 734.5,-212.5 670.5,-212.5"/>
<text text-anchor="middle" x="702.5" y="-219.5" font-family="Helvetica,sans-Serif" font-size="10.00">LCD::clear</text>
</a>
</g>
</g>
<!-- Node298&#45;&gt;Node304 -->
<g id="edge11" class="edge"><title>Node298&#45;&gt;Node304</title>
<path fill="none" stroke="midnightblue" d="M338.614,-197.017C417.271,-197.955 597.85,-208.432 670.443,-216.393"/>
<polygon fill="midnightblue" stroke="midnightblue" points="338.236,-193.514 328.213,-196.949 338.19,-200.514 338.236,-193.514"/>
</g>
<!-- Node307 -->
<g id="node12" class="node"><title>Node307</title>
<g id="a_node12"><a xlink:href="structLCD.html#a0fd055c88888db0e52fea11f1df24d4a" target="_top" xlink:title="LCD::drawBitmap">
<polygon fill="white" stroke="black" points="655,-151.5 655,-170.5 750,-170.5 750,-151.5 655,-151.5"/>
<text text-anchor="middle" x="702.5" y="-158.5" font-family="Helvetica,sans-Serif" font-size="10.00">LCD::drawBitmap</text>
</a>
</g>
</g>
<!-- Node298&#45;&gt;Node307 -->
<g id="edge15" class="edge"><title>Node298&#45;&gt;Node307</title>
<path fill="none" stroke="midnightblue" d="M312.038,-180.947C322.979,-164.955 341.356,-142.689 364,-133 472.919,-86.3933 619.471,-130.503 676.933,-151.396"/>
<polygon fill="midnightblue" stroke="midnightblue" points="308.997,-179.203 306.479,-189.494 314.865,-183.019 308.997,-179.203"/>
</g>
<!-- Node309 -->
<g id="node14" class="node"><title>Node309</title>
<g id="a_node14"><a xlink:href="structLCD.html#ab1b68d883d80dc7b8810e602b7032767" target="_top" xlink:title="LCD::print">
<polygon fill="white" stroke="black" points="671.5,-274.5 671.5,-293.5 733.5,-293.5 733.5,-274.5 671.5,-274.5"/>
<text text-anchor="middle" x="702.5" y="-281.5" font-family="Helvetica,sans-Serif" font-size="10.00">LCD::print</text>
</a>
</g>
</g>
<!-- Node298&#45;&gt;Node309 -->
<g id="edge17" class="edge"><title>Node298&#45;&gt;Node309</title>
<path fill="none" stroke="midnightblue" d="M312.026,-217.433C323.062,-234.25 341.596,-258.477 364,-272 461.742,-330.998 505.563,-315.894 619,-303 636.525,-301.008 655.747,-296.709 671.226,-292.703"/>
<polygon fill="midnightblue" stroke="midnightblue" points="314.71,-215.126 306.422,-208.525 308.785,-218.853 314.71,-215.126"/>
</g>
<!-- Node310 -->
<g id="node15" class="node"><title>Node310</title>
<g id="a_node15"><a xlink:href="structLCD.html#ae5873763db265cd00da32664cce88873" target="_top" xlink:title="LCD::s1Dat">
<polygon fill="white" stroke="black" points="524,-274.5 524,-293.5 593,-293.5 593,-274.5 524,-274.5"/>
<text text-anchor="middle" x="558.5" y="-281.5" font-family="Helvetica,sans-Serif" font-size="10.00">LCD::s1Dat</text>
</a>
</g>
</g>
<!-- Node298&#45;&gt;Node310 -->
<g id="edge19" class="edge"><title>Node298&#45;&gt;Node310</title>
<path fill="none" stroke="midnightblue" d="M319.59,-215.451C331.509,-225.158 347.747,-236.896 364,-244 416.964,-267.149 484.036,-277.154 523.699,-281.289"/>
<polygon fill="midnightblue" stroke="midnightblue" points="321.639,-212.602 311.735,-208.838 317.13,-217.956 321.639,-212.602"/>
</g>
<!-- Node298&#45;&gt;Node311 -->
<g id="edge23" class="edge"><title>Node298&#45;&gt;Node311</title>
<path fill="none" stroke="midnightblue" d="M307.279,-218.475C315.71,-245.911 333.3,-295.282 364,-327 374.497,-337.845 390.931,-344.575 401.583,-350.336"/>
<polygon fill="midnightblue" stroke="midnightblue" points="310.606,-217.385 304.396,-208.8 303.898,-219.384 310.606,-217.385"/>
</g>
<!-- Node298&#45;&gt;Node312 -->
<g id="edge30" class="edge"><title>Node298&#45;&gt;Node312</title>
<path fill="none" stroke="midnightblue" d="M332.779,-212.191C342.642,-215.851 353.643,-219.501 364,-222 415.335,-234.384 475.959,-240.587 515.489,-243.544"/>
<polygon fill="midnightblue" stroke="midnightblue" points="333.953,-208.892 323.363,-208.57 331.44,-215.426 333.953,-208.892"/>
</g>
<!-- Node299&#45;&gt;Node298 -->
<g id="edge5" class="edge"><title>Node299&#45;&gt;Node298</title>
<path fill="none" stroke="midnightblue" d="M522.42,-418.321C480.014,-424.996 408.782,-424.878 364,-388 307.517,-341.486 301.604,-241.135 301.043,-208.775"/>
<polygon fill="midnightblue" stroke="midnightblue" points="523.066,-421.761 532.29,-416.549 521.829,-414.871 523.066,-421.761"/>
</g>
<!-- Node300 -->
<g id="node5" class="node"><title>Node300</title>
<g id="a_node5"><a xlink:href="structLCD.html#a3f437907a543226be7c527a2d304ad95" target="_top" xlink:title="LCD::lightOff">
<polygon fill="white" stroke="black" points="665.5,-416.5 665.5,-435.5 739.5,-435.5 739.5,-416.5 665.5,-416.5"/>
<text text-anchor="middle" x="702.5" y="-423.5" font-family="Helvetica,sans-Serif" font-size="10.00">LCD::lightOff</text>
</a>
</g>
</g>
<!-- Node299&#45;&gt;Node300 -->
<g id="edge6" class="edge"><title>Node299&#45;&gt;Node300</title>
<path fill="none" stroke="midnightblue" d="M629.26,-416.334C641.717,-418.001 654.225,-419.674 665.25,-421.15"/>
<polygon fill="midnightblue" stroke="midnightblue" points="629.685,-412.86 619.309,-415.003 628.757,-419.798 629.685,-412.86"/>
</g>
<!-- Node301 -->
<g id="node6" class="node"><title>Node301</title>
<g id="a_node6"><a xlink:href="structLCD.html#aa4c1e7d41ca93af28769aaba704d5c1f" target="_top" xlink:title="LCD::lightOn">
<polygon fill="white" stroke="black" points="665.5,-378.5 665.5,-397.5 739.5,-397.5 739.5,-378.5 665.5,-378.5"/>
<text text-anchor="middle" x="702.5" y="-385.5" font-family="Helvetica,sans-Serif" font-size="10.00">LCD::lightOn</text>
</a>
</g>
</g>
<!-- Node299&#45;&gt;Node301 -->
<g id="edge7" class="edge"><title>Node299&#45;&gt;Node301</title>
<path fill="none" stroke="midnightblue" d="M629.26,-397.666C641.717,-395.999 654.225,-394.326 665.25,-392.85"/>
<polygon fill="midnightblue" stroke="midnightblue" points="628.757,-394.202 619.309,-398.997 629.685,-401.14 628.757,-394.202"/>
</g>
<!-- Node303&#45;&gt;Node298 -->
<g id="edge10" class="edge"><title>Node303&#45;&gt;Node298</title>
<path fill="none" stroke="midnightblue" d="M393.834,-90.3073C384.202,-95.3425 372.614,-101.231 364,-109 337.222,-133.15 317.357,-171.232 307.646,-189.46"/>
<polygon fill="midnightblue" stroke="midnightblue" points="395.522,-93.3736 402.632,-85.5187 392.176,-87.2254 395.522,-93.3736"/>
</g>
<!-- Node304&#45;&gt;Node298 -->
<g id="edge12" class="edge"><title>Node304&#45;&gt;Node298</title>
<path fill="none" stroke="midnightblue" d="M660.259,-223.934C578.326,-222.708 397.029,-212.066 328.213,-204.177"/>
<polygon fill="midnightblue" stroke="midnightblue" points="660.407,-227.436 670.443,-224.04 660.48,-220.436 660.407,-227.436"/>
</g>
<!-- Node305 -->
<g id="node10" class="node"><title>Node305</title>
<g id="a_node10"><a xlink:href="lcd__debug_8cpp.html#ae66f6b31b5ad750f1fe042a706a4e3d4" target="_top" xlink:title="main">
<polygon fill="white" stroke="black" points="799.5,-231.5 799.5,-250.5 837.5,-250.5 837.5,-231.5 799.5,-231.5"/>
<text text-anchor="middle" x="818.5" y="-238.5" font-family="Helvetica,sans-Serif" font-size="10.00">main</text>
</a>
</g>
</g>
<!-- Node304&#45;&gt;Node305 -->
<g id="edge13" class="edge"><title>Node304&#45;&gt;Node305</title>
<path fill="none" stroke="midnightblue" d="M744.72,-228.87C763.401,-231.984 784.537,-235.506 799.2,-237.95"/>
<polygon fill="midnightblue" stroke="midnightblue" points="745.09,-225.384 734.651,-227.192 743.94,-232.288 745.09,-225.384"/>
</g>
<!-- Node306 -->
<g id="node11" class="node"><title>Node306</title>
<g id="a_node11"><a xlink:href="structLCD.html#a7912ad9a12d649cdec2dd53ae893a8ce" target="_top" xlink:title="LCD::reset">
<polygon fill="white" stroke="black" points="786,-193.5 786,-212.5 851,-212.5 851,-193.5 786,-193.5"/>
<text text-anchor="middle" x="818.5" y="-200.5" font-family="Helvetica,sans-Serif" font-size="10.00">LCD::reset</text>
</a>
</g>
</g>
<!-- Node304&#45;&gt;Node306 -->
<g id="edge14" class="edge"><title>Node304&#45;&gt;Node306</title>
<path fill="none" stroke="midnightblue" d="M744.74,-215.127C758.339,-212.86 773.237,-210.377 785.991,-208.252"/>
<polygon fill="midnightblue" stroke="midnightblue" points="743.94,-211.712 734.651,-216.808 745.09,-218.616 743.94,-211.712"/>
</g>
<!-- Node307&#45;&gt;Node308 -->
<g id="edge16" class="edge"><title>Node307&#45;&gt;Node308</title>
<path fill="none" stroke="midnightblue" d="M723.696,-144.702C747.388,-125.581 785.903,-94.4995 805.388,-78.7748"/>
<polygon fill="midnightblue" stroke="midnightblue" points="721.284,-142.15 715.7,-151.154 725.68,-147.598 721.284,-142.15"/>
</g>
<!-- Node310&#45;&gt;Node304 -->
<g id="edge20" class="edge"><title>Node310&#45;&gt;Node304</title>
<path fill="none" stroke="midnightblue" d="M602.757,-271.151C608.276,-269.23 613.807,-267.163 619,-265 642.706,-255.123 668.79,-240.927 685.153,-231.588"/>
<polygon fill="midnightblue" stroke="midnightblue" points="601.286,-267.952 592.91,-274.439 603.504,-274.591 601.286,-267.952"/>
</g>
<!-- Node310&#45;&gt;Node307 -->
<g id="edge22" class="edge"><title>Node310&#45;&gt;Node307</title>
<path fill="none" stroke="midnightblue" d="M602.922,-274.344C608.683,-271.893 614.235,-268.829 619,-265 643.838,-245.041 634.936,-227.754 655,-203 665.001,-190.662 678.719,-178.736 688.661,-170.765"/>
<polygon fill="midnightblue" stroke="midnightblue" points="601.326,-271.2 593.131,-277.914 603.725,-277.776 601.326,-271.2"/>
</g>
<!-- Node310&#45;&gt;Node309 -->
<g id="edge21" class="edge"><title>Node310&#45;&gt;Node309</title>
<path fill="none" stroke="midnightblue" d="M603.303,-284C625.415,-284 651.672,-284 671.47,-284"/>
<polygon fill="midnightblue" stroke="midnightblue" points="603.152,-280.5 593.152,-284 603.152,-287.5 603.152,-280.5"/>
</g>
<!-- Node311&#45;&gt;Node298 -->
<g id="edge24" class="edge"><title>Node311&#45;&gt;Node298</title>
<path fill="none" stroke="midnightblue" d="M367.326,-348.138C366.166,-347.134 365.053,-346.088 364,-345 324.673,-304.368 306.86,-234.77 302.253,-208.607"/>
<polygon fill="midnightblue" stroke="midnightblue" points="365.41,-351.072 375.556,-354.125 369.528,-345.412 365.41,-351.072"/>
</g>
<!-- Node311&#45;&gt;Node299 -->
<g id="edge29" class="edge"><title>Node311&#45;&gt;Node299</title>
<path fill="none" stroke="midnightblue" d="M452.772,-372.699C476.452,-380.455 506.258,-390.217 528.011,-397.342"/>
<polygon fill="midnightblue" stroke="midnightblue" points="453.632,-369.298 443.039,-369.511 451.453,-375.95 453.632,-369.298"/>
</g>
<!-- Node311&#45;&gt;Node312 -->
<g id="edge25" class="edge"><title>Node311&#45;&gt;Node312</title>
<path fill="none" stroke="midnightblue" d="M425.491,-341.911C439.939,-320.574 466.677,-285.43 498,-265 503.904,-261.149 510.645,-258.029 517.419,-255.517"/>
<polygon fill="midnightblue" stroke="midnightblue" points="422.488,-340.107 419.91,-350.384 428.334,-343.958 422.488,-340.107"/>
</g>
<!-- Node312&#45;&gt;Node304 -->
<g id="edge26" class="edge"><title>Node312&#45;&gt;Node304</title>
<path fill="none" stroke="midnightblue" d="M611.81,-237.159C631.532,-233.826 653.327,-230.142 670.492,-227.241"/>
<polygon fill="midnightblue" stroke="midnightblue" points="610.997,-233.747 601.72,-238.864 612.164,-240.649 610.997,-233.747"/>
</g>
<!-- Node312&#45;&gt;Node307 -->
<g id="edge28" class="edge"><title>Node312&#45;&gt;Node307</title>
<path fill="none" stroke="midnightblue" d="M584.249,-231.185C613.294,-213.799 660.621,-185.47 685.327,-170.681"/>
<polygon fill="midnightblue" stroke="midnightblue" points="582.296,-228.275 575.513,-236.415 585.891,-234.282 582.296,-228.275"/>
</g>
<!-- Node312&#45;&gt;Node309 -->
<g id="edge27" class="edge"><title>Node312&#45;&gt;Node309</title>
<path fill="none" stroke="midnightblue" d="M605.024,-258.182C626.755,-263.998 652.157,-270.796 671.44,-275.956"/>
<polygon fill="midnightblue" stroke="midnightblue" points="605.897,-254.793 595.333,-255.589 604.088,-261.555 605.897,-254.793"/>
</g>
</g>
</svg>
        <g id="navigator" transform="translate(0 0)" fill="#404254">
                <rect fill="#f2f5e9" fill-opacity="0.5" stroke="#606060" stroke-width=".5" x="0" y="0" width="60" height="60"/>
                <use id="zoomplus" xlink:href="#zoomPlus" x="17" y="9" onmousedown="handleZoom(evt,'in')"/>
                <use id="zoomminus" xlink:href="#zoomMin" x="42" y="9" onmousedown="handleZoom(evt,'out')"/>
                <use id="reset" xlink:href="#resetDef" x="30" y="36" onmousedown="handleReset()"/>
                <g id="arrowUp" xlink:href="#dirArrow" transform="translate(30 24)" onmousedown="handlePan(0,-1)">
                  <use xlink:href="#rim" fill="#404040">
                        <set attributeName="fill" to="#808080" begin="arrowUp.mouseover" end="arrowUp.mouseout"/>
                  </use>
                  <path fill="none" stroke="white" stroke-width="1.5" d="M0,-3.0v7 M-2.5,-0.5L0,-3.0L2.5,-0.5"/>
                </g>
                <g id="arrowRight" xlink:href="#dirArrow" transform="rotate(90) translate(36 -43)" onmousedown="handlePan(1,0)">
                  <use xlink:href="#rim" fill="#404040">
                        <set attributeName="fill" to="#808080" begin="arrowRight.mouseover" end="arrowRight.mouseout"/>
                  </use>
                  <path fill="none" stroke="white" stroke-width="1.5" d="M0,-3.0v7 M-2.5,-0.5L0,-3.0L2.5,-0.5"/>
                </g>
                <g id="arrowDown" xlink:href="#dirArrow" transform="rotate(180) translate(-30 -48)" onmousedown="handlePan(0,1)">
                  <use xlink:href="#rim" fill="#404040">
                        <set attributeName="fill" to="#808080" begin="arrowDown.mouseover" end="arrowDown.mouseout"/>
                  </use>
                  <path fill="none" stroke="white" stroke-width="1.5" d="M0,-3.0v7 M-2.5,-0.5L0,-3.0L2.5,-0.5"/>
                </g>
                <g id="arrowLeft" xlink:href="#dirArrow" transform="rotate(270) translate(-36 17)" onmousedown="handlePan(-1,0)">
                  <use xlink:href="#rim" fill="#404040">
                        <set attributeName="fill" to="#808080" begin="arrowLeft.mouseover" end="arrowLeft.mouseout"/>
                  </use>
                  <path fill="none" stroke="white" stroke-width="1.5" d="M0,-3.0v7 M-2.5,-0.5L0,-3.0L2.5,-0.5"/>
                </g>
        </g>
        <svg viewBox="0 0 15 15" width="100%" height="30px" preserveAspectRatio="xMaxYMin meet">
         <g id="arrow_out" transform="scale(0.3 0.3)">
          <a xlink:href="structLCD_a739998fad0591a092255676c8c8d532f_icgraph_org.svg" target="_base">
           <rect id="button" ry="5" rx="5" y="6" x="6" height="38" width="38"
                fill="#f2f5e9" fill-opacity="0.5" stroke="#606060" stroke-width="1.0"/>
           <path id="arrow"
             d="M 11.500037,31.436501 C 11.940474,20.09759 22.043105,11.32322 32.158766,21.979434 L 37.068811,17.246167 C 37.068811,17.246167 37.088388,32 37.088388,32 L 22.160133,31.978069 C 22.160133,31.978069 26.997745,27.140456 26.997745,27.140456 C 18.528582,18.264221 13.291696,25.230495 11.500037,31.436501 z"
             style="fill:#404040;"/>
          </a>
         </g>
        </svg>
</svg>
