<?xml version="1.0" encoding="UTF-8" standalone="no"?>
<!DOCTYPE svg PUBLIC "-//W3C//DTD SVG 1.1//EN"
 "http://www.w3.org/Graphics/SVG/1.1/DTD/svg11.dtd">
<!-- Generated by graphviz version 2.38.0 (20140413.2041)
 -->
<!-- Title: SoccerBoard::waitForButton Pages: 1 -->
<svg width="234pt" height="46pt"
 viewBox="0.00 0.00 234.00 46.00" xmlns="http://www.w3.org/2000/svg" xmlns:xlink="http://www.w3.org/1999/xlink">
<g id="graph0" class="graph" transform="scale(1 1) rotate(0) translate(4 42)">
<title>SoccerBoard::waitForButton</title>
<polygon fill="white" stroke="none" points="-4,4 -4,-42 230,-42 230,4 -4,4"/>
<!-- Node54 -->
<g id="node1" class="node"><title>Node54</title>
<polygon fill="#bfbfbf" stroke="black" points="0,-0.5 0,-19.5 140,-19.5 140,-0.5 0,-0.5"/>
<text text-anchor="middle" x="70" y="-7.5" font-family="Helvetica,sans-Serif" font-size="10.00">SoccerBoard::waitForButton</text>
</g>
<!-- Node55 -->
<g id="node2" class="node"><title>Node55</title>
<g id="a_node2"><a xlink:href="eBoard__comment_8h.html#aca4f96af7c6736bf2b61c88d731af741" target="_top" xlink:title="read a digital state from an INPUTpin ">
<polygon fill="white" stroke="black" points="176,-0.5 176,-19.5 226,-19.5 226,-0.5 176,-0.5"/>
<text text-anchor="middle" x="201" y="-7.5" font-family="Helvetica,sans-Serif" font-size="10.00">readPin</text>
</a>
</g>
</g>
<!-- Node54&#45;&gt;Node55 -->
<g id="edge1" class="edge"><title>Node54&#45;&gt;Node55</title>
<path fill="none" stroke="midnightblue" d="M150.158,-10C159.373,-10 168.167,-10 175.731,-10"/>
<polygon fill="midnightblue" stroke="midnightblue" points="150.032,-6.5001 140.032,-10 150.032,-13.5001 150.032,-6.5001"/>
</g>
<!-- Node55&#45;&gt;Node55 -->
<g id="edge2" class="edge"><title>Node55&#45;&gt;Node55</title>
<path fill="none" stroke="midnightblue" d="M176.819,-29.0292C178.138,-34.128 186.198,-38 201,-38 224.105,-38 230.784,-28.5653 221.037,-19.7571"/>
<polygon fill="midnightblue" stroke="midnightblue" points="180.078,-30.3148 180.963,-19.7571 173.687,-27.4582 180.078,-30.3148"/>
</g>
</g>
</svg>
