<?xml version="1.0" encoding="UTF-8" standalone="no"?>
<!DOCTYPE svg PUBLIC "-//W3C//DTD SVG 1.1//EN"
 "http://www.w3.org/Graphics/SVG/1.1/DTD/svg11.dtd">
<!-- Generated by graphviz version 2.38.0 (20140413.2041)
 -->
<!-- Title: NeoPixel::Color Pages: 1 -->
<svg width="251pt" height="28pt"
 viewBox="0.00 0.00 251.00 28.00" xmlns="http://www.w3.org/2000/svg" xmlns:xlink="http://www.w3.org/1999/xlink">
<g id="graph0" class="graph" transform="scale(1 1) rotate(0) translate(4 24)">
<title>NeoPixel::Color</title>
<polygon fill="white" stroke="none" points="-4,4 -4,-24 247,-24 247,4 -4,4"/>
<!-- Node32 -->
<g id="node1" class="node"><title>Node32</title>
<polygon fill="#bfbfbf" stroke="black" points="0,-0.5 0,-19.5 86,-19.5 86,-0.5 0,-0.5"/>
<text text-anchor="middle" x="43" y="-7.5" font-family="Helvetica,sans-Serif" font-size="10.00">NeoPixel::Color</text>
</g>
<!-- Node33 -->
<g id="node2" class="node"><title>Node33</title>
<g id="a_node2"><a xlink:href="neo__animation_8cpp.html#af16b42fccab1fb1eaf3658e792035c42" target="_top" xlink:title="this will perform a single shift operation! ">
<polygon fill="white" stroke="black" points="122,-0.5 122,-19.5 169,-19.5 169,-0.5 122,-0.5"/>
<text text-anchor="middle" x="145.5" y="-7.5" font-family="Helvetica,sans-Serif" font-size="10.00">shiftPx</text>
</a>
</g>
</g>
<!-- Node32&#45;&gt;Node33 -->
<g id="edge1" class="edge"><title>Node32&#45;&gt;Node33</title>
<path fill="none" stroke="midnightblue" d="M96.1873,-10C105.2,-10 114.129,-10 121.813,-10"/>
<polygon fill="midnightblue" stroke="midnightblue" points="96.0388,-6.5001 86.0387,-10 96.0387,-13.5001 96.0388,-6.5001"/>
</g>
<!-- Node34 -->
<g id="node3" class="node"><title>Node34</title>
<g id="a_node3"><a xlink:href="neo__animation_8cpp.html#ae66f6b31b5ad750f1fe042a706a4e3d4" target="_top" xlink:title="main">
<polygon fill="white" stroke="black" points="205,-0.5 205,-19.5 243,-19.5 243,-0.5 205,-0.5"/>
<text text-anchor="middle" x="224" y="-7.5" font-family="Helvetica,sans-Serif" font-size="10.00">main</text>
</a>
</g>
</g>
<!-- Node33&#45;&gt;Node34 -->
<g id="edge2" class="edge"><title>Node33&#45;&gt;Node34</title>
<path fill="none" stroke="midnightblue" d="M179.131,-10C187.988,-10 197.256,-10 204.98,-10"/>
<polygon fill="midnightblue" stroke="midnightblue" points="179.039,-6.5001 169.039,-10 179.039,-13.5001 179.039,-6.5001"/>
</g>
</g>
</svg>
