<?xml version="1.0" encoding="UTF-8" standalone="no"?>
<!DOCTYPE svg PUBLIC "-//W3C//DTD SVG 1.1//EN"
 "http://www.w3.org/Graphics/SVG/1.1/DTD/svg11.dtd">
<!-- Generated by graphviz version 2.38.0 (20140413.2041)
 -->
<!-- Title: LCD::changeMode Pages: 1 -->
<!--zoomable 430 -->
<svg id="main" version="1.1" xmlns="http://www.w3.org/2000/svg" xmlns:xlink="http://www.w3.org/1999/xlink" xml:space="preserve" onload="init(evt)">
<style type="text/css"><![CDATA[
.edge:hover path { stroke: red; }
.edge:hover polygon { stroke: red; fill: red; }
]]></style>
<script type="text/javascript"><![CDATA[
var edges = document.getElementsByTagName('g');
if (edges && edges.length) {
  for (var i=0;i<edges.length;i++) {
    if (edges[i].id.substr(0,4)=='edge') {
      edges[i].setAttribute('class','edge');
    }
  }
}
]]></script>
        <defs>
                <circle id="rim" cx="0" cy="0" r="7"/>
                <circle id="rim2" cx="0" cy="0" r="3.5"/>
                <g id="zoomPlus">
                        <use xlink:href="#rim" fill="#404040">
                                <set attributeName="fill" to="#808080" begin="zoomplus.mouseover" end="zoomplus.mouseout"/>
                        </use>
                        <path d="M-4,0h8M0,-4v8" fill="none" stroke="white" stroke-width="1.5" pointer-events="none"/>
                </g>
                <g id="zoomMin">
                        <use xlink:href="#rim" fill="#404040">
                                <set attributeName="fill" to="#808080" begin="zoomminus.mouseover" end="zoomminus.mouseout"/>
                        </use>
                        <path d="M-4,0h8" fill="none" stroke="white" stroke-width="1.5" pointer-events="none"/>
                </g>
                <g id="dirArrow">
                        <path fill="none" stroke="white" stroke-width="1.5" d="M0,-3.0v7 M-2.5,-0.5L0,-3.0L2.5,-0.5"/>
                </g>
               <g id="resetDef">
                       <use xlink:href="#rim2" fill="#404040">
                               <set attributeName="fill" to="#808080" begin="reset.mouseover" end="reset.mouseout"/>
                       </use>
               </g>
        </defs>

<script type="text/javascript">
var viewWidth = 870;
var viewHeight = 430;
var sectionId = 'dynsection-6';
</script>
<script xlink:href="svgpan.js"/>
<svg id="graph" class="graph">
<g id="viewport">
<title>LCD::changeMode</title>
<polygon fill="white" stroke="none" points="-4,4 -4,-426.23 866,-426.23 866,4 -4,4"/>
<!-- Node98 -->
<g id="node1" class="node"><title>Node98</title>
<polygon fill="#bfbfbf" stroke="black" points="0,-261.726 0,-280.726 98,-280.726 98,-261.726 0,-261.726"/>
<text text-anchor="middle" x="49" y="-268.726" font-family="Helvetica,sans-Serif" font-size="10.00">LCD::changeMode</text>
</g>
<!-- Node99 -->
<g id="node2" class="node"><title>Node99</title>
<g id="a_node2"><a xlink:href="structLCD.html#a632d9c641930fe16c0b623b82136196e" target="_top" xlink:title="LCD::init">
<polygon fill="white" stroke="black" points="134,-261.726 134,-280.726 190,-280.726 190,-261.726 134,-261.726"/>
<text text-anchor="middle" x="162" y="-268.726" font-family="Helvetica,sans-Serif" font-size="10.00">LCD::init</text>
</a>
</g>
</g>
<!-- Node98&#45;&gt;Node99 -->
<g id="edge1" class="edge"><title>Node98&#45;&gt;Node99</title>
<path fill="none" stroke="midnightblue" d="M108.195,-264.484C117.198,-264.531 126.107,-264.816 133.969,-265.338"/>
<polygon fill="midnightblue" stroke="midnightblue" points="108.024,-260.984 98.0406,-264.531 108.057,-267.984 108.024,-260.984"/>
</g>
<!-- Node99&#45;&gt;Node98 -->
<g id="edge10" class="edge"><title>Node99&#45;&gt;Node98</title>
<path fill="none" stroke="midnightblue" d="M123.872,-277.636C115.59,-277.954 106.692,-278.049 98.0406,-277.922"/>
<polygon fill="midnightblue" stroke="midnightblue" points="124.163,-281.126 133.969,-277.115 123.802,-274.135 124.163,-281.126"/>
</g>
<!-- Node100 -->
<g id="node3" class="node"><title>Node100</title>
<g id="a_node3"><a xlink:href="structLCD.html#aa5e25fef7649532af402df06f05b6d4c" target="_top" xlink:title="LCD::changeID">
<polygon fill="white" stroke="black" points="226,-214.726 226,-233.726 311,-233.726 311,-214.726 226,-214.726"/>
<text text-anchor="middle" x="268.5" y="-221.726" font-family="Helvetica,sans-Serif" font-size="10.00">LCD::changeID</text>
</a>
</g>
</g>
<!-- Node99&#45;&gt;Node100 -->
<g id="edge2" class="edge"><title>Node99&#45;&gt;Node100</title>
<path fill="none" stroke="midnightblue" d="M193.57,-257.477C210.406,-249.905 230.892,-240.691 246.026,-233.885"/>
<polygon fill="midnightblue" stroke="midnightblue" points="191.832,-254.421 184.147,-261.715 194.703,-260.805 191.832,-254.421"/>
</g>
<!-- Node101 -->
<g id="node4" class="node"><title>Node101</title>
<g id="a_node4"><a xlink:href="structLCD.html#ad3120f397273bac2ad60e0291554b9e6" target="_top" xlink:title="LCD::clear">
<polygon fill="white" stroke="black" points="681.5,-62.7264 681.5,-81.7264 745.5,-81.7264 745.5,-62.7264 681.5,-62.7264"/>
<text text-anchor="middle" x="713.5" y="-69.7264" font-family="Helvetica,sans-Serif" font-size="10.00">LCD::clear</text>
</a>
</g>
</g>
<!-- Node99&#45;&gt;Node101 -->
<g id="edge3" class="edge"><title>Node99&#45;&gt;Node101</title>
<path fill="none" stroke="midnightblue" d="M162.237,-251.191C161.267,-206.941 164.895,-102.62 226,-56.2264 375.017,56.9153 630.374,-30.9716 696.494,-62.5444"/>
<polygon fill="midnightblue" stroke="midnightblue" points="158.742,-251.42 162.559,-261.303 165.738,-251.196 158.742,-251.42"/>
</g>
<!-- Node104 -->
<g id="node7" class="node"><title>Node104</title>
<g id="a_node7"><a xlink:href="structLCD.html#ab1b68d883d80dc7b8810e602b7032767" target="_top" xlink:title="LCD::print">
<polygon fill="white" stroke="black" points="682.5,-100.726 682.5,-119.726 744.5,-119.726 744.5,-100.726 682.5,-100.726"/>
<text text-anchor="middle" x="713.5" y="-107.726" font-family="Helvetica,sans-Serif" font-size="10.00">LCD::print</text>
</a>
</g>
</g>
<!-- Node99&#45;&gt;Node104 -->
<g id="edge7" class="edge"><title>Node99&#45;&gt;Node104</title>
<path fill="none" stroke="midnightblue" d="M163.512,-251.407C165.659,-213.96 176.153,-133.172 226,-95.2264 297.439,-40.8452 540.965,-79.6681 630,-91.2264 647.491,-93.497 666.711,-97.8138 682.197,-101.759"/>
<polygon fill="midnightblue" stroke="midnightblue" points="160.009,-251.402 163.08,-261.542 167.003,-251.7 160.009,-251.402"/>
</g>
<!-- Node105 -->
<g id="node8" class="node"><title>Node105</title>
<g id="a_node8"><a xlink:href="structLCD.html#a0fd055c88888db0e52fea11f1df24d4a" target="_top" xlink:title="LCD::drawBitmap">
<polygon fill="white" stroke="black" points="666,-138.726 666,-157.726 761,-157.726 761,-138.726 666,-138.726"/>
<text text-anchor="middle" x="713.5" y="-145.726" font-family="Helvetica,sans-Serif" font-size="10.00">LCD::drawBitmap</text>
</a>
</g>
</g>
<!-- Node99&#45;&gt;Node105 -->
<g id="edge8" class="edge"><title>Node99&#45;&gt;Node105</title>
<path fill="none" stroke="midnightblue" d="M174.62,-253.152C185.753,-237.534 204.074,-215.851 226,-205.226 388.298,-126.584 451.957,-195.972 630,-167.226 645.09,-164.79 661.536,-161.198 675.744,-157.79"/>
<polygon fill="midnightblue" stroke="midnightblue" points="171.659,-251.282 168.923,-261.517 177.445,-255.222 171.659,-251.282"/>
</g>
<!-- Node107 -->
<g id="node10" class="node"><title>Node107</title>
<g id="a_node10"><a xlink:href="structLCD.html#ad1a67d455563026a5064ef9cab86ae4d" target="_top" xlink:title="LCD::setCursor">
<polygon fill="white" stroke="black" points="526.5,-138.726 526.5,-157.726 612.5,-157.726 612.5,-138.726 526.5,-138.726"/>
<text text-anchor="middle" x="569.5" y="-145.726" font-family="Helvetica,sans-Serif" font-size="10.00">LCD::setCursor</text>
</a>
</g>
</g>
<!-- Node99&#45;&gt;Node107 -->
<g id="edge11" class="edge"><title>Node99&#45;&gt;Node107</title>
<path fill="none" stroke="midnightblue" d="M169.217,-251.914C177.865,-228.548 195.944,-190.121 226,-172.226 321.008,-115.661 458.161,-128.47 526.497,-139.815"/>
<polygon fill="midnightblue" stroke="midnightblue" points="165.876,-250.867 165.899,-261.462 172.488,-253.165 165.876,-250.867"/>
</g>
<!-- Node108 -->
<g id="node11" class="node"><title>Node108</title>
<g id="a_node11"><a xlink:href="structLCD.html#a75cacb94de3b3ff71e9a4497b5cc4a81" target="_top" xlink:title="LCD::changeBrightness">
<polygon fill="white" stroke="black" points="509,-317.726 509,-336.726 630,-336.726 630,-317.726 509,-317.726"/>
<text text-anchor="middle" x="569.5" y="-324.726" font-family="Helvetica,sans-Serif" font-size="10.00">LCD::changeBrightness</text>
</a>
</g>
</g>
<!-- Node99&#45;&gt;Node108 -->
<g id="edge15" class="edge"><title>Node99&#45;&gt;Node108</title>
<path fill="none" stroke="midnightblue" d="M200.265,-268.529C208.72,-269.627 217.665,-271.005 226,-272.226 339.085,-288.793 473.525,-306.176 534.918,-317.695"/>
<polygon fill="midnightblue" stroke="midnightblue" points="200.606,-265.045 190.267,-267.357 199.792,-271.997 200.606,-265.045"/>
</g>
<!-- Node111 -->
<g id="node14" class="node"><title>Node111</title>
<g id="a_node14"><a xlink:href="structLCD.html#aa01b7522d1e210f9cd071e3a5d4ae9e6" target="_top" xlink:title="LCD::changeBackground">
<polygon fill="white" stroke="black" points="347,-387.726 347,-406.726 473,-406.726 473,-387.726 347,-387.726"/>
<text text-anchor="middle" x="410" y="-394.726" font-family="Helvetica,sans-Serif" font-size="10.00">LCD::changeBackground</text>
</a>
</g>
</g>
<!-- Node99&#45;&gt;Node111 -->
<g id="edge19" class="edge"><title>Node99&#45;&gt;Node111</title>
<path fill="none" stroke="midnightblue" d="M168.189,-290.651C175.537,-317.178 192.053,-363.038 226,-384.226 261.585,-406.437 309.127,-406.806 346.834,-403.187"/>
<polygon fill="midnightblue" stroke="midnightblue" points="171.558,-289.699 165.652,-280.903 164.783,-291.462 171.558,-289.699"/>
</g>
<!-- Node112 -->
<g id="node15" class="node"><title>Node112</title>
<g id="a_node15"><a xlink:href="structLCD.html#ae7a8d9bc1581cfeeb0f098c8bb6d1229" target="_top" xlink:title="LCD::s2Cmd">
<polygon fill="white" stroke="black" points="373,-232.726 373,-251.726 447,-251.726 447,-232.726 373,-232.726"/>
<text text-anchor="middle" x="410" y="-239.726" font-family="Helvetica,sans-Serif" font-size="10.00">LCD::s2Cmd</text>
</a>
</g>
</g>
<!-- Node99&#45;&gt;Node112 -->
<g id="edge22" class="edge"><title>Node99&#45;&gt;Node112</title>
<path fill="none" stroke="midnightblue" d="M200.281,-261.826C247.034,-253.969 326.648,-244.603 372.859,-241.54"/>
<polygon fill="midnightblue" stroke="midnightblue" points="199.513,-258.407 190.266,-263.58 200.72,-265.303 199.513,-258.407"/>
</g>
<!-- Node113 -->
<g id="node16" class="node"><title>Node113</title>
<g id="a_node16"><a xlink:href="structLCD.html#a739998fad0591a092255676c8c8d532f" target="_top" xlink:title="LCD::s1Cmd">
<polygon fill="white" stroke="black" points="231.5,-364.726 231.5,-383.726 305.5,-383.726 305.5,-364.726 231.5,-364.726"/>
<text text-anchor="middle" x="268.5" y="-371.726" font-family="Helvetica,sans-Serif" font-size="10.00">LCD::s1Cmd</text>
</a>
</g>
</g>
<!-- Node99&#45;&gt;Node113 -->
<g id="edge26" class="edge"><title>Node99&#45;&gt;Node113</title>
<path fill="none" stroke="midnightblue" d="M174.629,-289.489C186.179,-306.633 205.139,-332.261 226,-350.226 232.433,-355.766 240.328,-360.702 247.498,-364.635"/>
<polygon fill="midnightblue" stroke="midnightblue" points="177.427,-287.374 169.009,-280.94 171.577,-291.219 177.427,-287.374"/>
</g>
<!-- Node114 -->
<g id="node17" class="node"><title>Node114</title>
<g id="a_node17"><a xlink:href="structLCD.html#ae5873763db265cd00da32664cce88873" target="_top" xlink:title="LCD::s1Dat">
<polygon fill="white" stroke="black" points="535,-100.726 535,-119.726 604,-119.726 604,-100.726 535,-100.726"/>
<text text-anchor="middle" x="569.5" y="-107.726" font-family="Helvetica,sans-Serif" font-size="10.00">LCD::s1Dat</text>
</a>
</g>
</g>
<!-- Node99&#45;&gt;Node114 -->
<g id="edge31" class="edge"><title>Node99&#45;&gt;Node114</title>
<path fill="none" stroke="midnightblue" d="M165.948,-251.466C171.626,-221.074 187.154,-163.516 226,-136.226 320.785,-69.6382 468.924,-89.133 534.875,-102.412"/>
<polygon fill="midnightblue" stroke="midnightblue" points="162.44,-251.221 164.226,-261.665 169.342,-252.387 162.44,-251.221"/>
</g>
<!-- Node101&#45;&gt;Node99 -->
<g id="edge5" class="edge"><title>Node101&#45;&gt;Node99</title>
<path fill="none" stroke="midnightblue" d="M671.837,-61.3122C581.275,-33.657 360.393,27.8113 226,-74.2264 164.044,-121.266 161.177,-227.859 162.28,-261.35"/>
<polygon fill="midnightblue" stroke="midnightblue" points="670.874,-64.6777 681.461,-64.2694 672.93,-57.9864 670.874,-64.6777"/>
</g>
<!-- Node102 -->
<g id="node5" class="node"><title>Node102</title>
<g id="a_node5"><a xlink:href="structLCD.html#a7912ad9a12d649cdec2dd53ae893a8ce" target="_top" xlink:title="LCD::reset">
<polygon fill="white" stroke="black" points="797,-81.7264 797,-100.726 862,-100.726 862,-81.7264 797,-81.7264"/>
<text text-anchor="middle" x="829.5" y="-88.7264" font-family="Helvetica,sans-Serif" font-size="10.00">LCD::reset</text>
</a>
</g>
</g>
<!-- Node101&#45;&gt;Node102 -->
<g id="edge4" class="edge"><title>Node101&#45;&gt;Node102</title>
<path fill="none" stroke="midnightblue" d="M755.74,-79.0998C769.339,-81.3663 784.237,-83.8493 796.991,-85.9749"/>
<polygon fill="midnightblue" stroke="midnightblue" points="756.09,-75.61 745.651,-77.4183 754.94,-82.5147 756.09,-75.61"/>
</g>
<!-- Node103 -->
<g id="node6" class="node"><title>Node103</title>
<g id="a_node6"><a xlink:href="lcd__debug_8cpp.html#ae66f6b31b5ad750f1fe042a706a4e3d4" target="_top" xlink:title="main">
<polygon fill="white" stroke="black" points="810.5,-43.7264 810.5,-62.7264 848.5,-62.7264 848.5,-43.7264 810.5,-43.7264"/>
<text text-anchor="middle" x="829.5" y="-50.7264" font-family="Helvetica,sans-Serif" font-size="10.00">main</text>
</a>
</g>
</g>
<!-- Node101&#45;&gt;Node103 -->
<g id="edge6" class="edge"><title>Node101&#45;&gt;Node103</title>
<path fill="none" stroke="midnightblue" d="M755.72,-65.3564C774.401,-62.2429 795.537,-58.7202 810.2,-56.2765"/>
<polygon fill="midnightblue" stroke="midnightblue" points="754.94,-61.9382 745.651,-67.0346 756.09,-68.8429 754.94,-61.9382"/>
</g>
<!-- Node106 -->
<g id="node9" class="node"><title>Node106</title>
<g id="a_node9"><a xlink:href="dancing__dragon_8cpp.html#a840291bc02cba5474a4cb46a9b9566fe" target="_top" xlink:title="main">
<polygon fill="white" stroke="black" points="810.5,-138.726 810.5,-157.726 848.5,-157.726 848.5,-138.726 810.5,-138.726"/>
<text text-anchor="middle" x="829.5" y="-145.726" font-family="Helvetica,sans-Serif" font-size="10.00">main</text>
</a>
</g>
</g>
<!-- Node105&#45;&gt;Node106 -->
<g id="edge9" class="edge"><title>Node105&#45;&gt;Node106</title>
<path fill="none" stroke="midnightblue" d="M771.458,-148.226C785.619,-148.226 799.783,-148.226 810.455,-148.226"/>
<polygon fill="midnightblue" stroke="midnightblue" points="771.197,-144.727 761.197,-148.226 771.197,-151.727 771.197,-144.727"/>
</g>
<!-- Node107&#45;&gt;Node101 -->
<g id="edge12" class="edge"><title>Node107&#45;&gt;Node101</title>
<path fill="none" stroke="midnightblue" d="M619.448,-134.861C623.123,-133.18 626.685,-131.308 630,-129.226 649.702,-116.854 646.801,-104.366 666,-91.2264 671.326,-87.5817 677.458,-84.4565 683.485,-81.855"/>
<polygon fill="midnightblue" stroke="midnightblue" points="618.094,-131.633 610.159,-138.654 620.74,-138.114 618.094,-131.633"/>
</g>
<!-- Node107&#45;&gt;Node104 -->
<g id="edge13" class="edge"><title>Node107&#45;&gt;Node104</title>
<path fill="none" stroke="midnightblue" d="M616.024,-136.044C637.755,-130.229 663.157,-123.431 682.44,-118.271"/>
<polygon fill="midnightblue" stroke="midnightblue" points="615.088,-132.671 606.333,-138.637 616.897,-139.433 615.088,-132.671"/>
</g>
<!-- Node107&#45;&gt;Node105 -->
<g id="edge14" class="edge"><title>Node107&#45;&gt;Node105</title>
<path fill="none" stroke="midnightblue" d="M622.8,-148.226C636.949,-148.226 652.166,-148.226 665.975,-148.226"/>
<polygon fill="midnightblue" stroke="midnightblue" points="622.72,-144.727 612.72,-148.226 622.72,-151.727 622.72,-144.727"/>
</g>
<!-- Node108&#45;&gt;Node99 -->
<g id="edge16" class="edge"><title>Node108&#45;&gt;Node99</title>
<path fill="none" stroke="midnightblue" d="M498.385,-325.168C429.11,-318.379 320.153,-304.02 226,-290.226 209.345,-287.786 190.258,-284.719 177.498,-280.745"/>
<polygon fill="midnightblue" stroke="midnightblue" points="498.446,-328.689 508.733,-326.152 499.11,-321.721 498.446,-328.689"/>
</g>
<!-- Node109 -->
<g id="node12" class="node"><title>Node109</title>
<g id="a_node12"><a xlink:href="structLCD.html#a3f437907a543226be7c527a2d304ad95" target="_top" xlink:title="LCD::lightOff">
<polygon fill="white" stroke="black" points="676.5,-325.726 676.5,-344.726 750.5,-344.726 750.5,-325.726 676.5,-325.726"/>
<text text-anchor="middle" x="713.5" y="-332.726" font-family="Helvetica,sans-Serif" font-size="10.00">LCD::lightOff</text>
</a>
</g>
</g>
<!-- Node108&#45;&gt;Node109 -->
<g id="edge17" class="edge"><title>Node108&#45;&gt;Node109</title>
<path fill="none" stroke="midnightblue" d="M640.63,-331.177C652.964,-331.872 665.334,-332.569 676.25,-333.184"/>
<polygon fill="midnightblue" stroke="midnightblue" points="640.49,-327.664 630.309,-330.596 640.096,-334.653 640.49,-327.664"/>
</g>
<!-- Node110 -->
<g id="node13" class="node"><title>Node110</title>
<g id="a_node13"><a xlink:href="structLCD.html#aa4c1e7d41ca93af28769aaba704d5c1f" target="_top" xlink:title="LCD::lightOn">
<polygon fill="white" stroke="black" points="676.5,-287.726 676.5,-306.726 750.5,-306.726 750.5,-287.726 676.5,-287.726"/>
<text text-anchor="middle" x="713.5" y="-294.726" font-family="Helvetica,sans-Serif" font-size="10.00">LCD::lightOn</text>
</a>
</g>
</g>
<!-- Node108&#45;&gt;Node110 -->
<g id="edge18" class="edge"><title>Node108&#45;&gt;Node110</title>
<path fill="none" stroke="midnightblue" d="M625.617,-315.582C642.56,-312.003 660.774,-308.154 676.127,-304.911"/>
<polygon fill="midnightblue" stroke="midnightblue" points="624.881,-312.16 615.82,-317.652 626.328,-319.009 624.881,-312.16"/>
</g>
<!-- Node111&#45;&gt;Node99 -->
<g id="edge20" class="edge"><title>Node111&#45;&gt;Node99</title>
<path fill="none" stroke="midnightblue" d="M383.351,-410.153C345.699,-422.126 274.667,-432.602 226,-402.226 182.32,-374.964 167.499,-306.853 163.934,-280.828"/>
<polygon fill="midnightblue" stroke="midnightblue" points="384.753,-413.37 393.04,-406.769 382.445,-406.762 384.753,-413.37"/>
</g>
<!-- Node111&#45;&gt;Node106 -->
<g id="edge21" class="edge"><title>Node111&#45;&gt;Node106</title>
<path fill="none" stroke="midnightblue" d="M473.655,-408.053C550.313,-417.546 679.881,-420.931 761,-354.226 823.789,-302.595 828.676,-191.437 828.67,-157.961"/>
<polygon fill="midnightblue" stroke="midnightblue" points="474.028,-404.572 463.658,-406.743 473.119,-411.513 474.028,-404.572"/>
</g>
<!-- Node112&#45;&gt;Node99 -->
<g id="edge23" class="edge"><title>Node112&#45;&gt;Node99</title>
<path fill="none" stroke="midnightblue" d="M362.788,-253.083C311.946,-261.146 231.93,-270.253 190.266,-272.445"/>
<polygon fill="midnightblue" stroke="midnightblue" points="363.556,-256.504 372.859,-251.434 362.425,-249.596 363.556,-256.504"/>
</g>
<!-- Node112&#45;&gt;Node107 -->
<g id="edge24" class="edge"><title>Node112&#45;&gt;Node107</title>
<path fill="none" stroke="midnightblue" d="M435.9,-227.365C468.574,-207.865 524.984,-174.198 552.489,-157.782"/>
<polygon fill="midnightblue" stroke="midnightblue" points="433.762,-224.566 426.969,-232.696 437.349,-230.576 433.762,-224.566"/>
</g>
<!-- Node112&#45;&gt;Node108 -->
<g id="edge25" class="edge"><title>Node112&#45;&gt;Node108</title>
<path fill="none" stroke="midnightblue" d="M437.618,-256.592C469.755,-273.936 522.922,-302.629 550.562,-317.546"/>
<polygon fill="midnightblue" stroke="midnightblue" points="439.224,-253.481 428.761,-251.812 435.899,-259.641 439.224,-253.481"/>
</g>
<!-- Node113&#45;&gt;Node98 -->
<g id="edge27" class="edge"><title>Node113&#45;&gt;Node98</title>
<path fill="none" stroke="midnightblue" d="M237.934,-360.225C192.972,-338.932 108.576,-298.966 70.072,-280.732"/>
<polygon fill="midnightblue" stroke="midnightblue" points="236.624,-363.478 247.16,-364.594 239.62,-357.151 236.624,-363.478"/>
</g>
<!-- Node113&#45;&gt;Node107 -->
<g id="edge28" class="edge"><title>Node113&#45;&gt;Node107</title>
<path fill="none" stroke="midnightblue" d="M302.078,-360.6C344.232,-342.013 418.696,-305.864 473,-261.226 512.288,-228.932 547.931,-178.996 562.065,-158.026"/>
<polygon fill="midnightblue" stroke="midnightblue" points="300.614,-357.42 292.841,-364.619 303.407,-363.839 300.614,-357.42"/>
</g>
<!-- Node113&#45;&gt;Node111 -->
<g id="edge29" class="edge"><title>Node113&#45;&gt;Node111</title>
<path fill="none" stroke="midnightblue" d="M315.893,-381.875C327.225,-383.744 339.486,-385.765 351.275,-387.709"/>
<polygon fill="midnightblue" stroke="midnightblue" points="316.224,-378.383 305.788,-380.209 315.085,-385.29 316.224,-378.383"/>
</g>
<!-- Node113&#45;&gt;Node112 -->
<g id="edge30" class="edge"><title>Node113&#45;&gt;Node112</title>
<path fill="none" stroke="midnightblue" d="M278.648,-355.341C291.067,-331.515 315.386,-290.704 347,-266.226 354.94,-260.079 364.644,-255.338 373.996,-251.757"/>
<polygon fill="midnightblue" stroke="midnightblue" points="275.45,-353.911 274.068,-364.415 281.699,-357.065 275.45,-353.911"/>
</g>
<!-- Node114&#45;&gt;Node101 -->
<g id="edge32" class="edge"><title>Node114&#45;&gt;Node101</title>
<path fill="none" stroke="midnightblue" d="M614.086,-98.5625C635.714,-92.7749 661.35,-85.9144 681.035,-80.6466"/>
<polygon fill="midnightblue" stroke="midnightblue" points="612.907,-95.2548 604.152,-101.221 614.717,-102.017 612.907,-95.2548"/>
</g>
<!-- Node114&#45;&gt;Node104 -->
<g id="edge33" class="edge"><title>Node114&#45;&gt;Node104</title>
<path fill="none" stroke="midnightblue" d="M614.303,-110.226C636.415,-110.226 662.672,-110.226 682.47,-110.226"/>
<polygon fill="midnightblue" stroke="midnightblue" points="614.152,-106.727 604.152,-110.226 614.152,-113.727 614.152,-106.727"/>
</g>
<!-- Node114&#45;&gt;Node105 -->
<g id="edge34" class="edge"><title>Node114&#45;&gt;Node105</title>
<path fill="none" stroke="midnightblue" d="M614.023,-121.873C634.165,-127.263 657.794,-133.587 676.858,-138.688"/>
<polygon fill="midnightblue" stroke="midnightblue" points="614.717,-118.436 604.152,-119.232 612.907,-125.198 614.717,-118.436"/>
</g>
</g>
</svg>
        <g id="navigator" transform="translate(0 0)" fill="#404254">
                <rect fill="#f2f5e9" fill-opacity="0.5" stroke="#606060" stroke-width=".5" x="0" y="0" width="60" height="60"/>
                <use id="zoomplus" xlink:href="#zoomPlus" x="17" y="9" onmousedown="handleZoom(evt,'in')"/>
                <use id="zoomminus" xlink:href="#zoomMin" x="42" y="9" onmousedown="handleZoom(evt,'out')"/>
                <use id="reset" xlink:href="#resetDef" x="30" y="36" onmousedown="handleReset()"/>
                <g id="arrowUp" xlink:href="#dirArrow" transform="translate(30 24)" onmousedown="handlePan(0,-1)">
                  <use xlink:href="#rim" fill="#404040">
                        <set attributeName="fill" to="#808080" begin="arrowUp.mouseover" end="arrowUp.mouseout"/>
                  </use>
                  <path fill="none" stroke="white" stroke-width="1.5" d="M0,-3.0v7 M-2.5,-0.5L0,-3.0L2.5,-0.5"/>
                </g>
                <g id="arrowRight" xlink:href="#dirArrow" transform="rotate(90) translate(36 -43)" onmousedown="handlePan(1,0)">
                  <use xlink:href="#rim" fill="#404040">
                        <set attributeName="fill" to="#808080" begin="arrowRight.mouseover" end="arrowRight.mouseout"/>
                  </use>
                  <path fill="none" stroke="white" stroke-width="1.5" d="M0,-3.0v7 M-2.5,-0.5L0,-3.0L2.5,-0.5"/>
                </g>
                <g id="arrowDown" xlink:href="#dirArrow" transform="rotate(180) translate(-30 -48)" onmousedown="handlePan(0,1)">
                  <use xlink:href="#rim" fill="#404040">
                        <set attributeName="fill" to="#808080" begin="arrowDown.mouseover" end="arrowDown.mouseout"/>
                  </use>
                  <path fill="none" stroke="white" stroke-width="1.5" d="M0,-3.0v7 M-2.5,-0.5L0,-3.0L2.5,-0.5"/>
                </g>
                <g id="arrowLeft" xlink:href="#dirArrow" transform="rotate(270) translate(-36 17)" onmousedown="handlePan(-1,0)">
                  <use xlink:href="#rim" fill="#404040">
                        <set attributeName="fill" to="#808080" begin="arrowLeft.mouseover" end="arrowLeft.mouseout"/>
                  </use>
                  <path fill="none" stroke="white" stroke-width="1.5" d="M0,-3.0v7 M-2.5,-0.5L0,-3.0L2.5,-0.5"/>
                </g>
        </g>
        <svg viewBox="0 0 15 15" width="100%" height="30px" preserveAspectRatio="xMaxYMin meet">
         <g id="arrow_out" transform="scale(0.3 0.3)">
          <a xlink:href="structLCD_ad31ee94d401b7c28d6cc2f472e2eb8fd_icgraph_org.svg" target="_base">
           <rect id="button" ry="5" rx="5" y="6" x="6" height="38" width="38"
                fill="#f2f5e9" fill-opacity="0.5" stroke="#606060" stroke-width="1.0"/>
           <path id="arrow"
             d="M 11.500037,31.436501 C 11.940474,20.09759 22.043105,11.32322 32.158766,21.979434 L 37.068811,17.246167 C 37.068811,17.246167 37.088388,32 37.088388,32 L 22.160133,31.978069 C 22.160133,31.978069 26.997745,27.140456 26.997745,27.140456 C 18.528582,18.264221 13.291696,25.230495 11.500037,31.436501 z"
             style="fill:#404040;"/>
          </a>
         </g>
        </svg>
</svg>
