<?xml version="1.0" encoding="UTF-8" standalone="no"?>
<!DOCTYPE svg PUBLIC "-//W3C//DTD SVG 1.1//EN"
 "http://www.w3.org/Graphics/SVG/1.1/DTD/svg11.dtd">
<!-- Generated by graphviz version 2.38.0 (20140413.2041)
 -->
<!-- Title: LCD::clear Pages: 1 -->
<svg width="918pt" height="378pt"
 viewBox="0.00 0.00 918.00 378.23" xmlns="http://www.w3.org/2000/svg" xmlns:xlink="http://www.w3.org/1999/xlink">
<g id="graph0" class="graph" transform="scale(1 1) rotate(0) translate(4 374.233)">
<title>LCD::clear</title>
<polygon fill="white" stroke="none" points="-4,4 -4,-374.233 914,-374.233 914,4 -4,4"/>
<!-- Node117 -->
<g id="node1" class="node"><title>Node117</title>
<polygon fill="#bfbfbf" stroke="black" points="0,-156.571 0,-175.571 64,-175.571 64,-156.571 0,-156.571"/>
<text text-anchor="middle" x="32" y="-163.571" font-family="Helvetica,sans-Serif" font-size="10.00">LCD::clear</text>
</g>
<!-- Node118 -->
<g id="node2" class="node"><title>Node118</title>
<g id="a_node2"><a xlink:href="structLCD.html#a632d9c641930fe16c0b623b82136196e" target="_top" xlink:title="LCD::init">
<polygon fill="white" stroke="black" points="222,-180.571 222,-199.571 278,-199.571 278,-180.571 222,-180.571"/>
<text text-anchor="middle" x="250" y="-187.571" font-family="Helvetica,sans-Serif" font-size="10.00">LCD::init</text>
</a>
</g>
</g>
<!-- Node117&#45;&gt;Node118 -->
<g id="edge1" class="edge"><title>Node117&#45;&gt;Node118</title>
<path fill="none" stroke="midnightblue" d="M64.4083,-164.633C103.563,-166.661 170.39,-173.984 211.99,-180.723"/>
<polygon fill="midnightblue" stroke="midnightblue" points="211.546,-184.197 221.991,-182.42 212.717,-177.296 211.546,-184.197"/>
</g>
<!-- Node128 -->
<g id="node12" class="node"><title>Node128</title>
<g id="a_node12"><a xlink:href="structLCD.html#ae5873763db265cd00da32664cce88873" target="_top" xlink:title="LCD::s1Dat">
<polygon fill="white" stroke="black" points="108.5,-66.5708 108.5,-85.5708 177.5,-85.5708 177.5,-66.5708 108.5,-66.5708"/>
<text text-anchor="middle" x="143" y="-73.5708" font-family="Helvetica,sans-Serif" font-size="10.00">LCD::s1Dat</text>
</a>
</g>
</g>
<!-- Node117&#45;&gt;Node128 -->
<g id="edge22" class="edge"><title>Node117&#45;&gt;Node128</title>
<path fill="none" stroke="midnightblue" d="M44.6649,-156.439C63.2678,-141.079 99.858,-110.867 122.494,-92.1771"/>
<polygon fill="midnightblue" stroke="midnightblue" points="124.936,-94.6991 130.419,-85.6332 120.479,-89.3013 124.936,-94.6991"/>
</g>
<!-- Node129 -->
<g id="node13" class="node"><title>Node129</title>
<g id="a_node13"><a xlink:href="structLCD.html#ad1a67d455563026a5064ef9cab86ae4d" target="_top" xlink:title="LCD::setCursor">
<polygon fill="white" stroke="black" points="100,-203.571 100,-222.571 186,-222.571 186,-203.571 100,-203.571"/>
<text text-anchor="middle" x="143" y="-210.571" font-family="Helvetica,sans-Serif" font-size="10.00">LCD::setCursor</text>
</a>
</g>
</g>
<!-- Node117&#45;&gt;Node129 -->
<g id="edge27" class="edge"><title>Node117&#45;&gt;Node129</title>
<path fill="none" stroke="midnightblue" d="M55.0578,-175.582C70.909,-182.417 92.5169,-191.734 110.225,-199.37"/>
<polygon fill="midnightblue" stroke="midnightblue" points="109.032,-202.667 119.601,-203.413 111.804,-196.239 109.032,-202.667"/>
</g>
<!-- Node118&#45;&gt;Node117 -->
<g id="edge21" class="edge"><title>Node118&#45;&gt;Node117</title>
<path fill="none" stroke="midnightblue" d="M221.991,-191.72C184.89,-190.101 117.827,-182.915 74.3757,-176.114"/>
<polygon fill="midnightblue" stroke="midnightblue" points="74.8412,-172.644 64.4083,-174.489 73.7147,-179.552 74.8412,-172.644"/>
</g>
<!-- Node119 -->
<g id="node3" class="node"><title>Node119</title>
<g id="a_node3"><a xlink:href="structLCD.html#ae7a8d9bc1581cfeeb0f098c8bb6d1229" target="_top" xlink:title="LCD::s2Cmd">
<polygon fill="white" stroke="black" points="476,-265.571 476,-284.571 550,-284.571 550,-265.571 476,-265.571"/>
<text text-anchor="middle" x="513" y="-272.571" font-family="Helvetica,sans-Serif" font-size="10.00">LCD::s2Cmd</text>
</a>
</g>
</g>
<!-- Node118&#45;&gt;Node119 -->
<g id="edge2" class="edge"><title>Node118&#45;&gt;Node119</title>
<path fill="none" stroke="midnightblue" d="M266.702,-199.607C278.54,-209.846 295.804,-224.779 314,-233.071 362.675,-255.252 424.161,-262.698 465.597,-267.044"/>
<polygon fill="midnightblue" stroke="midnightblue" points="465.372,-270.54 475.68,-268.09 466.094,-263.577 465.372,-270.54"/>
</g>
<!-- Node125 -->
<g id="node9" class="node"><title>Node125</title>
<g id="a_node9"><a xlink:href="structLCD.html#ad31ee94d401b7c28d6cc2f472e2eb8fd" target="_top" xlink:title="LCD::changeMode">
<polygon fill="white" stroke="black" points="328,-180.571 328,-199.571 426,-199.571 426,-180.571 328,-180.571"/>
<text text-anchor="middle" x="377" y="-187.571" font-family="Helvetica,sans-Serif" font-size="10.00">LCD::changeMode</text>
</a>
</g>
</g>
<!-- Node118&#45;&gt;Node125 -->
<g id="edge10" class="edge"><title>Node118&#45;&gt;Node125</title>
<path fill="none" stroke="midnightblue" d="M278.123,-184.392C289.681,-183.604 303.646,-183.251 317.362,-183.332"/>
<polygon fill="midnightblue" stroke="midnightblue" points="317.71,-186.837 327.758,-183.479 317.809,-179.838 317.71,-186.837"/>
</g>
<!-- Node126 -->
<g id="node10" class="node"><title>Node126</title>
<g id="a_node10"><a xlink:href="structLCD.html#aa01b7522d1e210f9cd071e3a5d4ae9e6" target="_top" xlink:title="LCD::changeBackground">
<polygon fill="white" stroke="black" points="314,-142.571 314,-161.571 440,-161.571 440,-142.571 314,-142.571"/>
<text text-anchor="middle" x="377" y="-149.571" font-family="Helvetica,sans-Serif" font-size="10.00">LCD::changeBackground</text>
</a>
</g>
</g>
<!-- Node118&#45;&gt;Node126 -->
<g id="edge13" class="edge"><title>Node118&#45;&gt;Node126</title>
<path fill="none" stroke="midnightblue" d="M267.086,-180.478C278.881,-175.55 295.73,-169.745 312.661,-164.576"/>
<polygon fill="midnightblue" stroke="midnightblue" points="314.016,-167.825 322.602,-161.618 312.019,-161.116 314.016,-167.825"/>
</g>
<!-- Node127 -->
<g id="node11" class="node"><title>Node127</title>
<g id="a_node11"><a xlink:href="structLCD.html#a75cacb94de3b3ff71e9a4497b5cc4a81" target="_top" xlink:title="LCD::changeBrightness">
<polygon fill="white" stroke="black" points="316.5,-350.571 316.5,-369.571 437.5,-369.571 437.5,-350.571 316.5,-350.571"/>
<text text-anchor="middle" x="377" y="-357.571" font-family="Helvetica,sans-Serif" font-size="10.00">LCD::changeBrightness</text>
</a>
</g>
</g>
<!-- Node118&#45;&gt;Node127 -->
<g id="edge16" class="edge"><title>Node118&#45;&gt;Node127</title>
<path fill="none" stroke="midnightblue" d="M258.594,-199.859C269.406,-218.662 290.542,-258.642 314,-289.071 329.227,-308.824 350.36,-328.689 363.601,-342.791"/>
<polygon fill="midnightblue" stroke="midnightblue" points="361.11,-345.256 370.381,-350.383 366.331,-340.593 361.11,-345.256"/>
</g>
<!-- Node119&#45;&gt;Node118 -->
<g id="edge3" class="edge"><title>Node119&#45;&gt;Node118</title>
<path fill="none" stroke="midnightblue" d="M475.68,-281.137C434.674,-281.854 366.8,-275.132 314,-251.071 292.84,-241.428 272.94,-222.805 261.368,-208.296"/>
<polygon fill="midnightblue" stroke="midnightblue" points="263.999,-205.962 255.301,-199.912 258.327,-210.065 263.999,-205.962"/>
</g>
<!-- Node120 -->
<g id="node4" class="node"><title>Node120</title>
<g id="a_node4"><a xlink:href="structLCD.html#a739998fad0591a092255676c8c8d532f" target="_top" xlink:title="LCD::s1Cmd">
<polygon fill="white" stroke="black" points="586,-161.571 586,-180.571 660,-180.571 660,-161.571 586,-161.571"/>
<text text-anchor="middle" x="623" y="-168.571" font-family="Helvetica,sans-Serif" font-size="10.00">LCD::s1Cmd</text>
</a>
</g>
</g>
<!-- Node119&#45;&gt;Node120 -->
<g id="edge4" class="edge"><title>Node119&#45;&gt;Node120</title>
<path fill="none" stroke="midnightblue" d="M524.806,-265.353C532.006,-258.833 541.643,-250.016 550,-242.071 569.108,-223.903 590.577,-202.616 605.06,-188.122"/>
<polygon fill="midnightblue" stroke="midnightblue" points="607.746,-190.384 612.328,-180.831 602.789,-185.442 607.746,-190.384"/>
</g>
<!-- Node120&#45;&gt;Node118 -->
<g id="edge5" class="edge"><title>Node120&#45;&gt;Node118</title>
<path fill="none" stroke="midnightblue" d="M594.226,-180.638C580.965,-184.927 564.795,-189.755 550,-193.071 447.416,-216.064 418.004,-224.413 314,-209.071 304.885,-207.726 295.261,-205.343 286.353,-202.709"/>
<polygon fill="midnightblue" stroke="midnightblue" points="287.254,-199.324 276.665,-199.671 285.159,-206.003 287.254,-199.324"/>
</g>
<!-- Node121 -->
<g id="node5" class="node"><title>Node121</title>
<g id="a_node5"><a xlink:href="classeagle__impl_1_1TwoWire.html#a1876ffdb16fb185c14a75e1251cef5e4" target="_top" xlink:title="eagle_impl::TwoWire\l::beginTransmission">
<polygon fill="white" stroke="black" points="696,-131.071 696,-161.071 804,-161.071 804,-131.071 696,-131.071"/>
<text text-anchor="start" x="704" y="-149.071" font-family="Helvetica,sans-Serif" font-size="10.00">eagle_impl::TwoWire</text>
<text text-anchor="middle" x="750" y="-138.071" font-family="Helvetica,sans-Serif" font-size="10.00">::beginTransmission</text>
</a>
</g>
</g>
<!-- Node120&#45;&gt;Node121 -->
<g id="edge6" class="edge"><title>Node120&#45;&gt;Node121</title>
<path fill="none" stroke="midnightblue" d="M660.155,-163.84C668.223,-162.226 677.008,-160.469 685.81,-158.709"/>
<polygon fill="midnightblue" stroke="midnightblue" points="686.6,-162.12 695.72,-156.727 685.227,-155.256 686.6,-162.12"/>
</g>
<!-- Node122 -->
<g id="node6" class="node"><title>Node122</title>
<g id="a_node6"><a xlink:href="classeagle__impl_1_1TwoWire.html#a2b5f9f156b6d281746a2a6ca5707dad3" target="_top" xlink:title="eagle_impl::TwoWire\l::write">
<polygon fill="white" stroke="black" points="696,-46.0708 696,-76.0708 804,-76.0708 804,-46.0708 696,-46.0708"/>
<text text-anchor="start" x="704" y="-64.0708" font-family="Helvetica,sans-Serif" font-size="10.00">eagle_impl::TwoWire</text>
<text text-anchor="middle" x="750" y="-53.0708" font-family="Helvetica,sans-Serif" font-size="10.00">::write</text>
</a>
</g>
</g>
<!-- Node120&#45;&gt;Node122 -->
<g id="edge7" class="edge"><title>Node120&#45;&gt;Node122</title>
<path fill="none" stroke="midnightblue" d="M635.093,-161.309C654.997,-143.794 697.218,-106.639 724.292,-82.8141"/>
<polygon fill="midnightblue" stroke="midnightblue" points="726.635,-85.414 731.83,-76.1802 722.011,-80.159 726.635,-85.414"/>
</g>
<!-- Node124 -->
<g id="node8" class="node"><title>Node124</title>
<g id="a_node8"><a xlink:href="classeagle__impl_1_1TwoWire.html#af80f9a7b85a3a81a035ca94c95bcdc1d" target="_top" xlink:title="eagle_impl::TwoWire\l::endTransmission">
<polygon fill="white" stroke="black" points="696,-180.071 696,-210.071 804,-210.071 804,-180.071 696,-180.071"/>
<text text-anchor="start" x="704" y="-198.071" font-family="Helvetica,sans-Serif" font-size="10.00">eagle_impl::TwoWire</text>
<text text-anchor="middle" x="750" y="-187.071" font-family="Helvetica,sans-Serif" font-size="10.00">::endTransmission</text>
</a>
</g>
</g>
<!-- Node120&#45;&gt;Node124 -->
<g id="edge9" class="edge"><title>Node120&#45;&gt;Node124</title>
<path fill="none" stroke="midnightblue" d="M660.155,-178.013C668.223,-179.562 677.008,-181.248 685.81,-182.938"/>
<polygon fill="midnightblue" stroke="midnightblue" points="685.239,-186.393 695.72,-184.841 686.559,-179.518 685.239,-186.393"/>
</g>
<!-- Node123 -->
<g id="node7" class="node"><title>Node123</title>
<g id="a_node7"><a xlink:href="eBoard_8h.html#abb66f08d8061c1064047324c1bacc2a9" target="_top" xlink:title="twi_transmit">
<polygon fill="white" stroke="black" points="840,-51.5708 840,-70.5708 910,-70.5708 910,-51.5708 840,-51.5708"/>
<text text-anchor="middle" x="875" y="-58.5708" font-family="Helvetica,sans-Serif" font-size="10.00">twi_transmit</text>
</a>
</g>
</g>
<!-- Node122&#45;&gt;Node123 -->
<g id="edge8" class="edge"><title>Node122&#45;&gt;Node123</title>
<path fill="none" stroke="midnightblue" d="M804.234,-61.0708C812.725,-61.0708 821.431,-61.0708 829.686,-61.0708"/>
<polygon fill="midnightblue" stroke="midnightblue" points="829.854,-64.5709 839.854,-61.0708 829.854,-57.5709 829.854,-64.5709"/>
</g>
<!-- Node125&#45;&gt;Node118 -->
<g id="edge11" class="edge"><title>Node125&#45;&gt;Node118</title>
<path fill="none" stroke="midnightblue" d="M327.758,-196.662C314.605,-196.96 300.562,-196.839 288.131,-196.3"/>
<polygon fill="midnightblue" stroke="midnightblue" points="288.3,-192.804 278.123,-195.749 287.916,-199.794 288.3,-192.804"/>
</g>
<!-- Node125&#45;&gt;Node120 -->
<g id="edge12" class="edge"><title>Node125&#45;&gt;Node120</title>
<path fill="none" stroke="midnightblue" d="M426.207,-186.317C469.574,-182.94 532.868,-178.011 575.654,-174.68"/>
<polygon fill="midnightblue" stroke="midnightblue" points="576.098,-178.156 585.796,-173.89 575.554,-171.177 576.098,-178.156"/>
</g>
<!-- Node126&#45;&gt;Node118 -->
<g id="edge14" class="edge"><title>Node126&#45;&gt;Node118</title>
<path fill="none" stroke="midnightblue" d="M359.998,-161.628C341.929,-169.187 311.926,-178.818 287.968,-185.055"/>
<polygon fill="midnightblue" stroke="midnightblue" points="286.982,-181.693 278.123,-187.504 288.672,-188.486 286.982,-181.693"/>
</g>
<!-- Node126&#45;&gt;Node120 -->
<g id="edge15" class="edge"><title>Node126&#45;&gt;Node120</title>
<path fill="none" stroke="midnightblue" d="M440.203,-156.914C482.276,-160.191 536.955,-164.449 575.316,-167.436"/>
<polygon fill="midnightblue" stroke="midnightblue" points="575.437,-170.956 585.679,-168.243 575.981,-163.977 575.437,-170.956"/>
</g>
<!-- Node127&#45;&gt;Node118 -->
<g id="edge19" class="edge"><title>Node127&#45;&gt;Node118</title>
<path fill="none" stroke="midnightblue" d="M356.234,-350.432C343.348,-339.94 326.64,-323.467 314,-307.071 289.648,-275.481 267.797,-233.598 257.403,-209.146"/>
<polygon fill="midnightblue" stroke="midnightblue" points="260.635,-207.802 253.676,-199.814 254.134,-210.399 260.635,-207.802"/>
</g>
<!-- Node127&#45;&gt;Node119 -->
<g id="edge20" class="edge"><title>Node127&#45;&gt;Node119</title>
<path fill="none" stroke="midnightblue" d="M409.351,-350.514C419.514,-346.752 430.586,-341.916 440,-336.071 458.44,-324.622 459.42,-317.078 476,-303.071 480.805,-299.012 486.094,-294.776 491.104,-290.863"/>
<polygon fill="midnightblue" stroke="midnightblue" points="493.353,-293.549 499.138,-284.673 489.081,-288.004 493.353,-293.549"/>
</g>
<!-- Node127&#45;&gt;Node121 -->
<g id="edge17" class="edge"><title>Node127&#45;&gt;Node121</title>
<path fill="none" stroke="midnightblue" d="M412.492,-350.564C448.354,-339.843 505.38,-320.41 550,-294.071 623.067,-250.94 624.587,-216.888 696,-171.071 698.783,-169.285 701.713,-167.55 704.709,-165.882"/>
<polygon fill="midnightblue" stroke="midnightblue" points="706.592,-168.846 713.81,-161.091 703.331,-162.652 706.592,-168.846"/>
</g>
<!-- Node127&#45;&gt;Node124 -->
<g id="edge18" class="edge"><title>Node127&#45;&gt;Node124</title>
<path fill="none" stroke="midnightblue" d="M437.72,-368.078C498.231,-373.125 592.319,-372.278 660,-331.071 702.191,-305.383 728.297,-251.233 740.587,-219.559"/>
<polygon fill="midnightblue" stroke="midnightblue" points="743.889,-220.722 744.095,-210.129 737.328,-218.281 743.889,-220.722"/>
</g>
<!-- Node128&#45;&gt;Node118 -->
<g id="edge23" class="edge"><title>Node128&#45;&gt;Node118</title>
<path fill="none" stroke="midnightblue" d="M152.952,-85.7904C170.775,-105.141 210.898,-148.703 233.235,-172.955"/>
<polygon fill="midnightblue" stroke="midnightblue" points="230.721,-175.392 240.07,-180.376 235.87,-170.649 230.721,-175.392"/>
</g>
<!-- Node128&#45;&gt;Node121 -->
<g id="edge24" class="edge"><title>Node128&#45;&gt;Node121</title>
<path fill="none" stroke="midnightblue" d="M177.529,-67.0654C222.387,-55.8283 304.575,-38.0708 376,-38.0708 376,-38.0708 376,-38.0708 514,-38.0708 579.76,-38.0708 601.068,-32.8937 660,-62.0708 688.99,-76.4234 714.977,-103.415 731.279,-122.936"/>
<polygon fill="midnightblue" stroke="midnightblue" points="728.633,-125.229 737.653,-130.786 734.067,-120.816 728.633,-125.229"/>
</g>
<!-- Node128&#45;&gt;Node122 -->
<g id="edge25" class="edge"><title>Node128&#45;&gt;Node122</title>
<path fill="none" stroke="midnightblue" d="M155.257,-66.2296C169.671,-54.2098 195.914,-34.2275 222,-24.0708 286.55,1.06253 306.729,-0.0708354 376,-0.0708354 376,-0.0708354 376,-0.0708354 514,-0.0708354 579.76,-0.0708354 596.773,-5.99512 660,-24.0708 676.233,-28.7118 693.496,-35.4421 708.455,-41.8938"/>
<polygon fill="midnightblue" stroke="midnightblue" points="707.356,-45.2345 717.918,-46.0685 710.181,-38.83 707.356,-45.2345"/>
</g>
<!-- Node128&#45;&gt;Node124 -->
<g id="edge26" class="edge"><title>Node128&#45;&gt;Node124</title>
<path fill="none" stroke="midnightblue" d="M177.811,-76.0708C222.982,-76.0708 305.514,-76.0708 376,-76.0708 376,-76.0708 376,-76.0708 514,-76.0708 605.245,-76.0708 614.054,-130.938 696,-171.071 699.134,-172.606 702.387,-174.163 705.67,-175.71"/>
<polygon fill="midnightblue" stroke="midnightblue" points="704.385,-178.972 714.929,-180.009 707.334,-172.623 704.385,-178.972"/>
</g>
<!-- Node129&#45;&gt;Node118 -->
<g id="edge28" class="edge"><title>Node129&#45;&gt;Node118</title>
<path fill="none" stroke="midnightblue" d="M186.103,-203.848C194.702,-201.965 203.689,-199.996 212.09,-198.156"/>
<polygon fill="midnightblue" stroke="midnightblue" points="212.962,-201.548 221.981,-195.989 211.464,-194.71 212.962,-201.548"/>
</g>
<!-- Node129&#45;&gt;Node119 -->
<g id="edge29" class="edge"><title>Node129&#45;&gt;Node119</title>
<path fill="none" stroke="midnightblue" d="M162.198,-222.744C192.604,-238.301 256.119,-268.229 314,-279.071 369.043,-289.381 384.022,-280.625 440,-279.071 448.274,-278.841 457.077,-278.463 465.584,-278.029"/>
<polygon fill="midnightblue" stroke="midnightblue" points="465.962,-281.514 475.757,-277.478 465.583,-274.524 465.962,-281.514"/>
</g>
<!-- Node129&#45;&gt;Node120 -->
<g id="edge30" class="edge"><title>Node129&#45;&gt;Node120</title>
<path fill="none" stroke="midnightblue" d="M158.162,-203.433C186.307,-184.978 251.93,-145.385 314,-133.071 410.168,-113.992 525.244,-141.237 583.755,-158.59"/>
<polygon fill="midnightblue" stroke="midnightblue" points="582.742,-161.94 593.328,-161.491 584.773,-155.241 582.742,-161.94"/>
</g>
</g>
</svg>
