<?xml version="1.0" encoding="UTF-8" standalone="no"?>
<!DOCTYPE svg PUBLIC "-//W3C//DTD SVG 1.1//EN"
 "http://www.w3.org/Graphics/SVG/1.1/DTD/svg11.dtd">
<!-- Generated by graphviz version 2.38.0 (20140413.2041)
 -->
<!-- Title: AX12Servo::ledOn Pages: 1 -->
<svg width="192pt" height="46pt"
 viewBox="0.00 0.00 192.00 46.00" xmlns="http://www.w3.org/2000/svg" xmlns:xlink="http://www.w3.org/1999/xlink">
<g id="graph0" class="graph" transform="scale(1 1) rotate(0) translate(4 42)">
<title>AX12Servo::ledOn</title>
<polygon fill="white" stroke="none" points="-4,4 -4,-42 188,-42 188,4 -4,4"/>
<!-- Node19 -->
<g id="node1" class="node"><title>Node19</title>
<polygon fill="#bfbfbf" stroke="black" points="0,-0.5 0,-19.5 98,-19.5 98,-0.5 0,-0.5"/>
<text text-anchor="middle" x="49" y="-7.5" font-family="Helvetica,sans-Serif" font-size="10.00">AX12Servo::ledOn</text>
</g>
<!-- Node20 -->
<g id="node2" class="node"><title>Node20</title>
<g id="a_node2"><a xlink:href="eBoard__comment_8h.html#aca4f96af7c6736bf2b61c88d731af741" target="_top" xlink:title="read a digital state from an INPUTpin ">
<polygon fill="white" stroke="black" points="134,-0.5 134,-19.5 184,-19.5 184,-0.5 134,-0.5"/>
<text text-anchor="middle" x="159" y="-7.5" font-family="Helvetica,sans-Serif" font-size="10.00">readPin</text>
</a>
</g>
</g>
<!-- Node19&#45;&gt;Node20 -->
<g id="edge1" class="edge"><title>Node19&#45;&gt;Node20</title>
<path fill="none" stroke="midnightblue" d="M108.486,-10C117.48,-10 126.307,-10 133.96,-10"/>
<polygon fill="midnightblue" stroke="midnightblue" points="108.314,-6.5001 98.3141,-10 108.314,-13.5001 108.314,-6.5001"/>
</g>
<!-- Node20&#45;&gt;Node20 -->
<g id="edge2" class="edge"><title>Node20&#45;&gt;Node20</title>
<path fill="none" stroke="midnightblue" d="M138.631,-29.4C139.991,-34.3146 146.781,-38 159,-38 178.551,-38 184.202,-28.5653 175.954,-19.7571"/>
<polygon fill="midnightblue" stroke="midnightblue" points="142.007,-30.3518 142.046,-19.7571 135.408,-28.0149 142.007,-30.3518"/>
</g>
</g>
</svg>
