<?xml version="1.0" encoding="UTF-8" standalone="no"?>
<!DOCTYPE svg PUBLIC "-//W3C//DTD SVG 1.1//EN"
 "http://www.w3.org/Graphics/SVG/1.1/DTD/svg11.dtd">
<!-- Generated by graphviz version 2.38.0 (20140413.2041)
 -->
<!-- Title: NeoPixel::NeoPixel Pages: 1 -->
<svg width="416pt" height="104pt"
 viewBox="0.00 0.00 416.00 104.00" xmlns="http://www.w3.org/2000/svg" xmlns:xlink="http://www.w3.org/1999/xlink">
<g id="graph0" class="graph" transform="scale(1 1) rotate(0) translate(4 100)">
<title>NeoPixel::NeoPixel</title>
<polygon fill="white" stroke="none" points="-4,4 -4,-100 412,-100 412,4 -4,4"/>
<!-- Node0 -->
<g id="node1" class="node"><title>Node0</title>
<polygon fill="#bfbfbf" stroke="black" points="0,-38.5 0,-57.5 102,-57.5 102,-38.5 0,-38.5"/>
<text text-anchor="middle" x="51" y="-45.5" font-family="Helvetica,sans-Serif" font-size="10.00">NeoPixel::NeoPixel</text>
</g>
<!-- Node1 -->
<g id="node2" class="node"><title>Node1</title>
<g id="a_node2"><a xlink:href="structNeoPixel.html#a96dfdd54b20616ae8b2eeb944042d27d" target="_top" xlink:title="NeoPixel::setPin">
<polygon fill="white" stroke="black" points="149.5,-76.5 149.5,-95.5 239.5,-95.5 239.5,-76.5 149.5,-76.5"/>
<text text-anchor="middle" x="194.5" y="-83.5" font-family="Helvetica,sans-Serif" font-size="10.00">NeoPixel::setPin</text>
</a>
</g>
</g>
<!-- Node0&#45;&gt;Node1 -->
<g id="edge1" class="edge"><title>Node0&#45;&gt;Node1</title>
<path fill="none" stroke="midnightblue" d="M87.7064,-57.589C105.973,-62.4944 128.408,-68.5196 147.911,-73.7571"/>
<polygon fill="midnightblue" stroke="midnightblue" points="147.239,-77.2006 157.805,-76.4141 149.055,-70.4401 147.239,-77.2006"/>
</g>
<!-- Node2 -->
<g id="node3" class="node"><title>Node2</title>
<g id="a_node3"><a xlink:href="structNeoPixel.html#ab82789d52b6dcd8d78e7492731dc20b2" target="_top" xlink:title="NeoPixel::updateLength">
<polygon fill="white" stroke="black" points="287,-19.5 287,-38.5 408,-38.5 408,-19.5 287,-19.5"/>
<text text-anchor="middle" x="347.5" y="-26.5" font-family="Helvetica,sans-Serif" font-size="10.00">NeoPixel::updateLength</text>
</a>
</g>
</g>
<!-- Node0&#45;&gt;Node2 -->
<g id="edge2" class="edge"><title>Node0&#45;&gt;Node2</title>
<path fill="none" stroke="midnightblue" d="M102.292,-44.7554C150.29,-41.6587 223.031,-36.9657 276.647,-33.5067"/>
<polygon fill="midnightblue" stroke="midnightblue" points="277.009,-36.9907 286.763,-32.854 276.558,-30.0052 277.009,-36.9907"/>
</g>
<!-- Node3 -->
<g id="node4" class="node"><title>Node3</title>
<g id="a_node4"><a xlink:href="structNeoPixel.html#a3eef199e4d0d7fb7bf27cec07fcf9c47" target="_top" xlink:title="NeoPixel::updateType">
<polygon fill="white" stroke="black" points="138,-0.5 138,-19.5 251,-19.5 251,-0.5 138,-0.5"/>
<text text-anchor="middle" x="194.5" y="-7.5" font-family="Helvetica,sans-Serif" font-size="10.00">NeoPixel::updateType</text>
</a>
</g>
</g>
<!-- Node0&#45;&gt;Node3 -->
<g id="edge3" class="edge"><title>Node0&#45;&gt;Node3</title>
<path fill="none" stroke="midnightblue" d="M87.7064,-38.411C105.973,-33.5056 128.408,-27.4804 147.911,-22.2429"/>
<polygon fill="midnightblue" stroke="midnightblue" points="149.055,-25.5599 157.805,-19.5859 147.239,-18.7994 149.055,-25.5599"/>
</g>
<!-- Node3&#45;&gt;Node2 -->
<g id="edge4" class="edge"><title>Node3&#45;&gt;Node2</title>
<path fill="none" stroke="midnightblue" d="M251.298,-17.0209C259.631,-18.0694 268.308,-19.1613 276.883,-20.2403"/>
<polygon fill="midnightblue" stroke="midnightblue" points="276.518,-23.7218 286.877,-21.4977 277.392,-16.7766 276.518,-23.7218"/>
</g>
</g>
</svg>
