<?xml version="1.0" encoding="UTF-8" standalone="no"?>
<!DOCTYPE svg PUBLIC "-//W3C//DTD SVG 1.1//EN"
 "http://www.w3.org/Graphics/SVG/1.1/DTD/svg11.dtd">
<!-- Generated by graphviz version 2.38.0 (20140413.2041)
 -->
<!-- Title: LCD::changeBackground Pages: 1 -->
<svg width="246pt" height="66pt"
 viewBox="0.00 0.00 246.00 66.00" xmlns="http://www.w3.org/2000/svg" xmlns:xlink="http://www.w3.org/1999/xlink">
<g id="graph0" class="graph" transform="scale(1 1) rotate(0) translate(4 62)">
<title>LCD::changeBackground</title>
<polygon fill="white" stroke="none" points="-4,4 -4,-62 242,-62 242,4 -4,4"/>
<!-- Node3 -->
<g id="node1" class="node"><title>Node3</title>
<polygon fill="#bfbfbf" stroke="black" points="0,-19.5 0,-38.5 126,-38.5 126,-19.5 0,-19.5"/>
<text text-anchor="middle" x="63" y="-26.5" font-family="Helvetica,sans-Serif" font-size="10.00">LCD::changeBackground</text>
</g>
<!-- Node4 -->
<g id="node2" class="node"><title>Node4</title>
<g id="a_node2"><a xlink:href="lcd__debug_8cpp.html#a3161479854ea3c6efccc25dfb4f83a99" target="_top" xlink:title="[COPY&amp;PASTE] Assures the existence of the &quot;qfix&#45;code&#45;main&#45;method&quot; ">
<polygon fill="white" stroke="black" points="162,-38.5 162,-57.5 238,-57.5 238,-38.5 162,-38.5"/>
<text text-anchor="middle" x="200" y="-45.5" font-family="Helvetica,sans-Serif" font-size="10.00">eVirtual_main</text>
</a>
</g>
</g>
<!-- Node3&#45;&gt;Node4 -->
<g id="edge1" class="edge"><title>Node3&#45;&gt;Node4</title>
<path fill="none" stroke="midnightblue" d="M136.355,-39.1833C145.192,-40.427 153.917,-41.655 161.921,-42.7815"/>
<polygon fill="midnightblue" stroke="midnightblue" points="136.753,-35.7049 126.363,-37.777 135.777,-42.6366 136.753,-35.7049"/>
</g>
<!-- Node5 -->
<g id="node3" class="node"><title>Node5</title>
<g id="a_node3"><a xlink:href="dancing__dragon_8cpp.html#a840291bc02cba5474a4cb46a9b9566fe" target="_top" xlink:title="main">
<polygon fill="white" stroke="black" points="181,-0.5 181,-19.5 219,-19.5 219,-0.5 181,-0.5"/>
<text text-anchor="middle" x="200" y="-7.5" font-family="Helvetica,sans-Serif" font-size="10.00">main</text>
</a>
</g>
</g>
<!-- Node3&#45;&gt;Node5 -->
<g id="edge2" class="edge"><title>Node3&#45;&gt;Node5</title>
<path fill="none" stroke="midnightblue" d="M136.64,-18.7766C153.117,-16.4576 169.183,-14.1964 180.881,-12.5501"/>
<polygon fill="midnightblue" stroke="midnightblue" points="135.777,-15.3634 126.363,-20.223 136.753,-22.2951 135.777,-15.3634"/>
</g>
</g>
</svg>
