<?xml version="1.0" encoding="UTF-8" standalone="no"?>
<!DOCTYPE svg PUBLIC "-//W3C//DTD SVG 1.1//EN"
 "http://www.w3.org/Graphics/SVG/1.1/DTD/svg11.dtd">
<!-- Generated by graphviz version 2.38.0 (20140413.2041)
 -->
<!-- Title: DynamixelBoard::changeMotorID Pages: 1 -->
<svg width="257pt" height="46pt"
 viewBox="0.00 0.00 256.55 46.00" xmlns="http://www.w3.org/2000/svg" xmlns:xlink="http://www.w3.org/1999/xlink">
<g id="graph0" class="graph" transform="scale(1 1) rotate(0) translate(4 42)">
<title>DynamixelBoard::changeMotorID</title>
<polygon fill="white" stroke="none" points="-4,4 -4,-42 252.547,-42 252.547,4 -4,4"/>
<!-- Node11 -->
<g id="node1" class="node"><title>Node11</title>
<polygon fill="#bfbfbf" stroke="black" points="0,-0.5 0,-19.5 161,-19.5 161,-0.5 0,-0.5"/>
<text text-anchor="middle" x="80.5" y="-7.5" font-family="Helvetica,sans-Serif" font-size="10.00">DynamixelBoard::changeMotorID</text>
</g>
<!-- Node12 -->
<g id="node2" class="node"><title>Node12</title>
<g id="a_node2"><a xlink:href="eBoard__comment_8h.html#aca4f96af7c6736bf2b61c88d731af741" target="_top" xlink:title="read a digital state from an INPUTpin ">
<polygon fill="white" stroke="black" points="197,-0.5 197,-19.5 247,-19.5 247,-0.5 197,-0.5"/>
<text text-anchor="middle" x="222" y="-7.5" font-family="Helvetica,sans-Serif" font-size="10.00">readPin</text>
</a>
</g>
</g>
<!-- Node11&#45;&gt;Node12 -->
<g id="edge1" class="edge"><title>Node11&#45;&gt;Node12</title>
<path fill="none" stroke="midnightblue" d="M171.235,-10C180.486,-10 189.224,-10 196.721,-10"/>
<polygon fill="midnightblue" stroke="midnightblue" points="171.03,-6.5001 161.03,-10 171.03,-13.5001 171.03,-6.5001"/>
</g>
<!-- Node12&#45;&gt;Node12 -->
<g id="edge2" class="edge"><title>Node12&#45;&gt;Node12</title>
<path fill="none" stroke="midnightblue" d="M195.958,-29.0292C197.379,-34.128 206.059,-38 222,-38 246.883,-38 254.076,-28.5653 243.578,-19.7571"/>
<polygon fill="midnightblue" stroke="midnightblue" points="199.238,-30.2855 200.422,-19.7571 192.931,-27.2493 199.238,-30.2855"/>
</g>
</g>
</svg>
