<?xml version="1.0" encoding="UTF-8" standalone="no"?>
<!DOCTYPE svg PUBLIC "-//W3C//DTD SVG 1.1//EN"
 "http://www.w3.org/Graphics/SVG/1.1/DTD/svg11.dtd">
<!-- Generated by graphviz version 2.38.0 (20140413.2041)
 -->
<!-- Title: DynamixelBoard::action Pages: 1 -->
<svg width="922pt" height="85pt"
 viewBox="0.00 0.00 922.00 85.00" xmlns="http://www.w3.org/2000/svg" xmlns:xlink="http://www.w3.org/1999/xlink">
<g id="graph0" class="graph" transform="scale(1 1) rotate(0) translate(4 81)">
<title>DynamixelBoard::action</title>
<polygon fill="white" stroke="none" points="-4,4 -4,-81 918,-81 918,4 -4,4"/>
<!-- Node4 -->
<g id="node1" class="node"><title>Node4</title>
<polygon fill="#bfbfbf" stroke="black" points="0,-38.5 0,-57.5 121,-57.5 121,-38.5 0,-38.5"/>
<text text-anchor="middle" x="60.5" y="-45.5" font-family="Helvetica,sans-Serif" font-size="10.00">DynamixelBoard::action</text>
</g>
<!-- Node5 -->
<g id="node2" class="node"><title>Node5</title>
<g id="a_node2"><a xlink:href="structAX12Servo.html#ae6005da90335d13c253a246edb247178" target="_top" xlink:title="AX12Servo::setPosition">
<polygon fill="white" stroke="black" points="157,-38.5 157,-57.5 278,-57.5 278,-38.5 157,-38.5"/>
<text text-anchor="middle" x="217.5" y="-45.5" font-family="Helvetica,sans-Serif" font-size="10.00">AX12Servo::setPosition</text>
</a>
</g>
</g>
<!-- Node4&#45;&gt;Node5 -->
<g id="edge1" class="edge"><title>Node4&#45;&gt;Node5</title>
<path fill="none" stroke="midnightblue" d="M121.427,-48C129.724,-48 138.305,-48 146.762,-48"/>
<polygon fill="midnightblue" stroke="midnightblue" points="146.988,-51.5001 156.988,-48 146.988,-44.5001 146.988,-51.5001"/>
</g>
<!-- Node6 -->
<g id="node3" class="node"><title>Node6</title>
<g id="a_node3"><a xlink:href="structServoCds55.html#a6540f6d9023ec5e2541e76d647a2b0e2" target="_top" xlink:title="ServoCds55::setVelocity">
<polygon fill="white" stroke="black" points="314,-57.5 314,-76.5 439,-76.5 439,-57.5 314,-57.5"/>
<text text-anchor="middle" x="376.5" y="-64.5" font-family="Helvetica,sans-Serif" font-size="10.00">ServoCds55::setVelocity</text>
</a>
</g>
</g>
<!-- Node5&#45;&gt;Node6 -->
<g id="edge2" class="edge"><title>Node5&#45;&gt;Node6</title>
<path fill="none" stroke="midnightblue" d="M278.303,-55.2373C286.649,-56.2473 295.294,-57.2936 303.831,-58.3267"/>
<polygon fill="midnightblue" stroke="midnightblue" points="303.431,-61.8037 313.779,-59.5305 304.272,-54.8544 303.431,-61.8037"/>
</g>
<!-- Node7 -->
<g id="node4" class="node"><title>Node7</title>
<g id="a_node4"><a xlink:href="structServoCds55.html#ab74eb7a47800fedd7405adca0bf1e935" target="_top" xlink:title="ServoCds55::write">
<polygon fill="white" stroke="black" points="327.5,-19.5 327.5,-38.5 425.5,-38.5 425.5,-19.5 327.5,-19.5"/>
<text text-anchor="middle" x="376.5" y="-26.5" font-family="Helvetica,sans-Serif" font-size="10.00">ServoCds55::write</text>
</a>
</g>
</g>
<!-- Node5&#45;&gt;Node7 -->
<g id="edge3" class="edge"><title>Node5&#45;&gt;Node7</title>
<path fill="none" stroke="midnightblue" d="M278.303,-40.7627C291.021,-39.2236 304.434,-37.6003 317.099,-36.0676"/>
<polygon fill="midnightblue" stroke="midnightblue" points="317.562,-39.5373 327.069,-34.8611 316.72,-32.588 317.562,-39.5373"/>
</g>
<!-- Node8 -->
<g id="node5" class="node"><title>Node8</title>
<g id="a_node5"><a xlink:href="structServoCds55.html#a5d77d36691d8a0fab7cf841a4feef530" target="_top" xlink:title="ServoCds55::SetServoLimit">
<polygon fill="white" stroke="black" points="475,-38.5 475,-57.5 613,-57.5 613,-38.5 475,-38.5"/>
<text text-anchor="middle" x="544" y="-45.5" font-family="Helvetica,sans-Serif" font-size="10.00">ServoCds55::SetServoLimit</text>
</a>
</g>
</g>
<!-- Node7&#45;&gt;Node8 -->
<g id="edge4" class="edge"><title>Node7&#45;&gt;Node8</title>
<path fill="none" stroke="midnightblue" d="M425.814,-34.5467C438.055,-35.9519 451.519,-37.4977 464.825,-39.0253"/>
<polygon fill="midnightblue" stroke="midnightblue" points="464.613,-42.5238 474.947,-40.1873 465.411,-35.5695 464.613,-42.5238"/>
</g>
<!-- Node11 -->
<g id="node8" class="node"><title>Node11</title>
<g id="a_node8"><a xlink:href="structServoCds55.html#a78620c3a9f22c9a37449ba01c5bd08f3" target="_top" xlink:title="ServoCds55::WritePos">
<polygon fill="white" stroke="black" points="485.5,-0.5 485.5,-19.5 602.5,-19.5 602.5,-0.5 485.5,-0.5"/>
<text text-anchor="middle" x="544" y="-7.5" font-family="Helvetica,sans-Serif" font-size="10.00">ServoCds55::WritePos</text>
</a>
</g>
</g>
<!-- Node7&#45;&gt;Node11 -->
<g id="edge7" class="edge"><title>Node7&#45;&gt;Node11</title>
<path fill="none" stroke="midnightblue" d="M425.814,-23.4533C441.221,-21.6845 458.567,-19.6932 475.096,-17.7957"/>
<polygon fill="midnightblue" stroke="midnightblue" points="475.721,-21.2469 485.257,-16.6291 474.923,-14.2926 475.721,-21.2469"/>
</g>
<!-- Node9 -->
<g id="node6" class="node"><title>Node9</title>
<g id="a_node6"><a xlink:href="structServoCds55.html#a0ddbf204d991dae881cc22b8985efee3" target="_top" xlink:title="ServoCds55::sendWait">
<polygon fill="white" stroke="black" points="649,-19.5 649,-38.5 767,-38.5 767,-19.5 649,-19.5"/>
<text text-anchor="middle" x="708" y="-26.5" font-family="Helvetica,sans-Serif" font-size="10.00">ServoCds55::sendWait</text>
</a>
</g>
</g>
<!-- Node8&#45;&gt;Node9 -->
<g id="edge5" class="edge"><title>Node8&#45;&gt;Node9</title>
<path fill="none" stroke="midnightblue" d="M613.233,-39.9974C621.655,-39.0096 630.266,-37.9996 638.69,-37.0117"/>
<polygon fill="midnightblue" stroke="midnightblue" points="639.322,-40.4617 648.846,-35.8205 638.506,-33.5093 639.322,-40.4617"/>
</g>
<!-- Node10 -->
<g id="node7" class="node"><title>Node10</title>
<g id="a_node7"><a xlink:href="structeagle__impl_1_1SPIClass.html#a821dccd5dda20ccd9093fc35cce74ae5" target="_top" xlink:title="eagle_impl::SPIClass\l::transfer">
<polygon fill="white" stroke="black" points="803,-14 803,-44 914,-44 914,-14 803,-14"/>
<text text-anchor="start" x="811" y="-32" font-family="Helvetica,sans-Serif" font-size="10.00">eagle_impl::SPIClass</text>
<text text-anchor="middle" x="858.5" y="-21" font-family="Helvetica,sans-Serif" font-size="10.00">::transfer</text>
</a>
</g>
</g>
<!-- Node9&#45;&gt;Node10 -->
<g id="edge6" class="edge"><title>Node9&#45;&gt;Node10</title>
<path fill="none" stroke="midnightblue" d="M767.265,-29C775.584,-29 784.183,-29 792.619,-29"/>
<polygon fill="midnightblue" stroke="midnightblue" points="792.797,-32.5001 802.797,-29 792.797,-25.5001 792.797,-32.5001"/>
</g>
<!-- Node11&#45;&gt;Node9 -->
<g id="edge8" class="edge"><title>Node11&#45;&gt;Node9</title>
<path fill="none" stroke="midnightblue" d="M602.571,-16.7522C614.295,-18.1271 626.734,-19.5861 638.786,-20.9996"/>
<polygon fill="midnightblue" stroke="midnightblue" points="638.455,-24.4847 648.795,-22.1735 639.271,-17.5324 638.455,-24.4847"/>
</g>
</g>
</svg>
