<?xml version="1.0" encoding="UTF-8" standalone="no"?>
<!DOCTYPE svg PUBLIC "-//W3C//DTD SVG 1.1//EN"
 "http://www.w3.org/Graphics/SVG/1.1/DTD/svg11.dtd">
<!-- Generated by graphviz version 2.38.0 (20140413.2041)
 -->
<!-- Title: SoccerBoard::powerOn Pages: 1 -->
<svg width="545pt" height="117pt"
 viewBox="0.00 0.00 545.00 117.23" xmlns="http://www.w3.org/2000/svg" xmlns:xlink="http://www.w3.org/1999/xlink">
<g id="graph0" class="graph" transform="scale(1 1) rotate(0) translate(4 113.226)">
<title>SoccerBoard::powerOn</title>
<polygon fill="white" stroke="none" points="-4,4 -4,-113.226 541,-113.226 541,4 -4,4"/>
<!-- Node119 -->
<g id="node1" class="node"><title>Node119</title>
<polygon fill="#bfbfbf" stroke="black" points="0,-57.5 0,-76.5 118,-76.5 118,-57.5 0,-57.5"/>
<text text-anchor="middle" x="59" y="-64.5" font-family="Helvetica,sans-Serif" font-size="10.00">SoccerBoard::powerOn</text>
</g>
<!-- Node120 -->
<g id="node2" class="node"><title>Node120</title>
<g id="a_node2"><a xlink:href="structSoccerBoard.html#a04c6b8fd4b6d1cd24be9c1b3291dbf06" target="_top" xlink:title="SoccerBoard::power">
<polygon fill="white" stroke="black" points="154,-57.5 154,-76.5 259,-76.5 259,-57.5 154,-57.5"/>
<text text-anchor="middle" x="206.5" y="-64.5" font-family="Helvetica,sans-Serif" font-size="10.00">SoccerBoard::power</text>
</a>
</g>
</g>
<!-- Node119&#45;&gt;Node120 -->
<g id="edge1" class="edge"><title>Node119&#45;&gt;Node120</title>
<path fill="none" stroke="midnightblue" d="M118.342,-67C126.661,-67 135.241,-67 143.625,-67"/>
<polygon fill="midnightblue" stroke="midnightblue" points="143.722,-70.5001 153.722,-67 143.722,-63.5001 143.722,-70.5001"/>
</g>
<!-- Node121 -->
<g id="node3" class="node"><title>Node121</title>
<g id="a_node3"><a xlink:href="eBoard_8h.html#ad6d4c1b1e3b495ed81fb28fac04d2bd6" target="_top" xlink:title="write a boolean state to an output pin ">
<polygon fill="white" stroke="black" points="295,-57.5 295,-76.5 347,-76.5 347,-57.5 295,-57.5"/>
<text text-anchor="middle" x="321" y="-64.5" font-family="Helvetica,sans-Serif" font-size="10.00">writePin</text>
</a>
</g>
</g>
<!-- Node120&#45;&gt;Node121 -->
<g id="edge2" class="edge"><title>Node120&#45;&gt;Node121</title>
<path fill="none" stroke="midnightblue" d="M259.14,-67C267.735,-67 276.475,-67 284.549,-67"/>
<polygon fill="midnightblue" stroke="midnightblue" points="284.711,-70.5001 294.711,-67 284.711,-63.5001 284.711,-70.5001"/>
</g>
<!-- Node122 -->
<g id="node4" class="node"><title>Node122</title>
<g id="a_node4"><a xlink:href="eBoard_8h.html#a757015d50a6c57414603841f728b670b" target="_top" xlink:title="[DEBUG_MODE] used to check if a pin index is in bounds ">
<polygon fill="white" stroke="black" points="481,-76.5 481,-95.5 537,-95.5 537,-76.5 481,-76.5"/>
<text text-anchor="middle" x="509" y="-83.5" font-family="Helvetica,sans-Serif" font-size="10.00">checkIdx</text>
</a>
</g>
</g>
<!-- Node121&#45;&gt;Node122 -->
<g id="edge3" class="edge"><title>Node121&#45;&gt;Node122</title>
<path fill="none" stroke="midnightblue" d="M333.203,-76.7076C344.777,-86.0392 363.806,-99.5106 383,-105 413.369,-113.685 449.092,-106.603 474.555,-98.7356"/>
<polygon fill="midnightblue" stroke="midnightblue" points="475.707,-102.041 484.116,-95.5959 473.523,-95.3906 475.707,-102.041"/>
</g>
<!-- Node123 -->
<g id="node5" class="node"><title>Node123</title>
<g id="a_node5"><a xlink:href="eBoard_8h.html#a06400a6dce24e4eda610644893c1bbd7" target="_top" xlink:title="[COPY&amp;PASTE] [CHECK_PINS] Check if a pin is set to a specific mode ">
<polygon fill="white" stroke="black" points="385.5,-76.5 385.5,-95.5 442.5,-95.5 442.5,-76.5 385.5,-76.5"/>
<text text-anchor="middle" x="414" y="-83.5" font-family="Helvetica,sans-Serif" font-size="10.00">checkPin</text>
</a>
</g>
</g>
<!-- Node121&#45;&gt;Node123 -->
<g id="edge4" class="edge"><title>Node121&#45;&gt;Node123</title>
<path fill="none" stroke="midnightblue" d="M347.349,-72.2926C356,-74.0988 365.869,-76.1594 375.28,-78.1244"/>
<polygon fill="midnightblue" stroke="midnightblue" points="374.729,-81.5848 385.234,-80.2026 376.16,-74.7326 374.729,-81.5848"/>
</g>
<!-- Node124 -->
<g id="node6" class="node"><title>Node124</title>
<g id="a_node6"><a xlink:href="eBoard_8h.html#a78b0e873cb50c282c6243d4913406be4" target="_top" xlink:title="[COPY&amp;PASTE] set a pin to a certain mode =&gt; checkPin() will return true then ">
<polygon fill="white" stroke="black" points="392,-38.5 392,-57.5 436,-57.5 436,-38.5 392,-38.5"/>
<text text-anchor="middle" x="414" y="-45.5" font-family="Helvetica,sans-Serif" font-size="10.00">setPin</text>
</a>
</g>
</g>
<!-- Node121&#45;&gt;Node124 -->
<g id="edge6" class="edge"><title>Node121&#45;&gt;Node124</title>
<path fill="none" stroke="midnightblue" d="M347.349,-61.7074C358.059,-59.4712 370.636,-56.8452 381.9,-54.4933"/>
<polygon fill="midnightblue" stroke="midnightblue" points="382.711,-57.8996 391.785,-52.4296 381.28,-51.0474 382.711,-57.8996"/>
</g>
<!-- Node125 -->
<g id="node7" class="node"><title>Node125</title>
<g id="a_node7"><a xlink:href="eBoard_8h.html#ad6372ab439a73887b0800cc695599436" target="_top" xlink:title="[SHIFT] Changes a single output Pin ">
<polygon fill="white" stroke="black" points="383,-0.5 383,-19.5 445,-19.5 445,-0.5 383,-0.5"/>
<text text-anchor="middle" x="414" y="-7.5" font-family="Helvetica,sans-Serif" font-size="10.00">shiftSingle</text>
</a>
</g>
</g>
<!-- Node121&#45;&gt;Node125 -->
<g id="edge8" class="edge"><title>Node121&#45;&gt;Node125</title>
<path fill="none" stroke="midnightblue" d="M337.437,-57.3307C351.642,-48.4333 372.922,-35.1038 389.284,-24.8554"/>
<polygon fill="midnightblue" stroke="midnightblue" points="391.174,-27.801 397.791,-19.5265 387.458,-21.8687 391.174,-27.801"/>
</g>
<!-- Node123&#45;&gt;Node122 -->
<g id="edge5" class="edge"><title>Node123&#45;&gt;Node122</title>
<path fill="none" stroke="midnightblue" d="M442.651,-86C451.443,-86 461.317,-86 470.675,-86"/>
<polygon fill="midnightblue" stroke="midnightblue" points="470.936,-89.5001 480.936,-86 470.936,-82.5001 470.936,-89.5001"/>
</g>
<!-- Node124&#45;&gt;Node122 -->
<g id="edge7" class="edge"><title>Node124&#45;&gt;Node122</title>
<path fill="none" stroke="midnightblue" d="M436.103,-56.6228C447.634,-61.3342 462.17,-67.2736 475.149,-72.577"/>
<polygon fill="midnightblue" stroke="midnightblue" points="474.114,-75.9351 484.695,-76.4777 476.762,-69.4552 474.114,-75.9351"/>
</g>
<!-- Node126 -->
<g id="node8" class="node"><title>Node126</title>
<g id="a_node8"><a xlink:href="eBoard_8h.html#aa0a7f697a49b0d038631c64e945f5c1a" target="_top" xlink:title="[SHIFT] Changes bits according to store_bits ">
<polygon fill="white" stroke="black" points="485.5,-0.5 485.5,-19.5 532.5,-19.5 532.5,-0.5 485.5,-0.5"/>
<text text-anchor="middle" x="509" y="-7.5" font-family="Helvetica,sans-Serif" font-size="10.00">shiftAll</text>
</a>
</g>
</g>
<!-- Node125&#45;&gt;Node126 -->
<g id="edge9" class="edge"><title>Node125&#45;&gt;Node126</title>
<path fill="none" stroke="midnightblue" d="M445.194,-10C454.776,-10 465.415,-10 475.173,-10"/>
<polygon fill="midnightblue" stroke="midnightblue" points="475.323,-13.5001 485.323,-10 475.323,-6.5001 475.323,-13.5001"/>
</g>
</g>
</svg>
