<?xml version="1.0" encoding="UTF-8" standalone="no"?>
<!DOCTYPE svg PUBLIC "-//W3C//DTD SVG 1.1//EN"
 "http://www.w3.org/Graphics/SVG/1.1/DTD/svg11.dtd">
<!-- Generated by graphviz version 2.38.0 (20140413.2041)
 -->
<!-- Title: DynamixelBoard::ledOn Pages: 1 -->
<svg width="214pt" height="46pt"
 viewBox="0.00 0.00 214.00 46.00" xmlns="http://www.w3.org/2000/svg" xmlns:xlink="http://www.w3.org/1999/xlink">
<g id="graph0" class="graph" transform="scale(1 1) rotate(0) translate(4 42)">
<title>DynamixelBoard::ledOn</title>
<polygon fill="white" stroke="none" points="-4,4 -4,-42 210,-42 210,4 -4,4"/>
<!-- Node17 -->
<g id="node1" class="node"><title>Node17</title>
<polygon fill="#bfbfbf" stroke="black" points="0,-0.5 0,-19.5 120,-19.5 120,-0.5 0,-0.5"/>
<text text-anchor="middle" x="60" y="-7.5" font-family="Helvetica,sans-Serif" font-size="10.00">DynamixelBoard::ledOn</text>
</g>
<!-- Node18 -->
<g id="node2" class="node"><title>Node18</title>
<g id="a_node2"><a xlink:href="eBoard__comment_8h.html#aca4f96af7c6736bf2b61c88d731af741" target="_top" xlink:title="read a digital state from an INPUTpin ">
<polygon fill="white" stroke="black" points="156,-0.5 156,-19.5 206,-19.5 206,-0.5 156,-0.5"/>
<text text-anchor="middle" x="181" y="-7.5" font-family="Helvetica,sans-Serif" font-size="10.00">readPin</text>
</a>
</g>
</g>
<!-- Node17&#45;&gt;Node18 -->
<g id="edge1" class="edge"><title>Node17&#45;&gt;Node18</title>
<path fill="none" stroke="midnightblue" d="M130.154,-10C139.298,-10 148.129,-10 155.753,-10"/>
<polygon fill="midnightblue" stroke="midnightblue" points="130.151,-6.5001 120.151,-10 130.151,-13.5001 130.151,-6.5001"/>
</g>
<!-- Node18&#45;&gt;Node18 -->
<g id="edge2" class="edge"><title>Node18&#45;&gt;Node18</title>
<path fill="none" stroke="midnightblue" d="M158.679,-29.0292C159.896,-34.128 167.337,-38 181,-38 202.328,-38 208.493,-28.5653 199.495,-19.7571"/>
<polygon fill="midnightblue" stroke="midnightblue" points="161.926,-30.3361 162.505,-19.7571 155.455,-27.6661 161.926,-30.3361"/>
</g>
</g>
</svg>
