<?xml version="1.0" encoding="UTF-8" standalone="no"?>
<!DOCTYPE svg PUBLIC "-//W3C//DTD SVG 1.1//EN"
 "http://www.w3.org/Graphics/SVG/1.1/DTD/svg11.dtd">
<!-- Generated by graphviz version 2.40.1 (20161225.0304)
 -->
<!-- Title: SoccerBoard::powerOn Pages: 1 -->
<svg width="355pt" height="28pt"
 viewBox="0.00 0.00 355.00 28.00" xmlns="http://www.w3.org/2000/svg" xmlns:xlink="http://www.w3.org/1999/xlink">
<g id="graph0" class="graph" transform="scale(1 1) rotate(0) translate(4 24)">
<title>SoccerBoard::powerOn</title>
<polygon fill="#ffffff" stroke="transparent" points="-4,4 -4,-24 351,-24 351,4 -4,4"/>
<!-- Node24 -->
<g id="node1" class="node">
<title>Node24</title>
<polygon fill="#bfbfbf" stroke="#000000" points="0,-.5 0,-19.5 118,-19.5 118,-.5 0,-.5"/>
<text text-anchor="middle" x="59" y="-7.5" font-family="Helvetica,sans-Serif" font-size="10.00" fill="#000000">SoccerBoard::powerOn</text>
</g>
<!-- Node25 -->
<g id="node2" class="node">
<title>Node25</title>
<g id="a_node2"><a xlink:href="structSoccerBoard.html#a04c6b8fd4b6d1cd24be9c1b3291dbf06" target="_top" xlink:title="Set the state of a certain D&#45;pin. ">
<polygon fill="#ffffff" stroke="#000000" points="154,-.5 154,-19.5 259,-19.5 259,-.5 154,-.5"/>
<text text-anchor="middle" x="206.5" y="-7.5" font-family="Helvetica,sans-Serif" font-size="10.00" fill="#000000">SoccerBoard::power</text>
</a>
</g>
</g>
<!-- Node24&#45;&gt;Node25 -->
<g id="edge1" class="edge">
<title>Node24&#45;&gt;Node25</title>
<path fill="none" stroke="#191970" d="M118.144,-10C126.4631,-10 135.0405,-10 143.4295,-10"/>
<polygon fill="#191970" stroke="#191970" points="143.5389,-13.5001 153.5389,-10 143.5388,-6.5001 143.5389,-13.5001"/>
</g>
<!-- Node26 -->
<g id="node3" class="node">
<title>Node26</title>
<g id="a_node3"><a xlink:href="eagle__PinCtrl_8h.html#ad6d4c1b1e3b495ed81fb28fac04d2bd6" target="_top" xlink:title="write a boolean state to an output pin ">
<polygon fill="#ffffff" stroke="#000000" points="295,-.5 295,-19.5 347,-19.5 347,-.5 295,-.5"/>
<text text-anchor="middle" x="321" y="-7.5" font-family="Helvetica,sans-Serif" font-size="10.00" fill="#000000">writePin</text>
</a>
</g>
</g>
<!-- Node25&#45;&gt;Node26 -->
<g id="edge2" class="edge">
<title>Node25&#45;&gt;Node26</title>
<path fill="none" stroke="#191970" d="M259.0584,-10C267.7243,-10 276.5346,-10 284.6877,-10"/>
<polygon fill="#191970" stroke="#191970" points="284.96,-13.5001 294.96,-10 284.96,-6.5001 284.96,-13.5001"/>
</g>
</g>
</svg>
