<?xml version="1.0" encoding="UTF-8" standalone="no"?>
<!DOCTYPE svg PUBLIC "-//W3C//DTD SVG 1.1//EN"
 "http://www.w3.org/Graphics/SVG/1.1/DTD/svg11.dtd">
<!-- Generated by graphviz version 2.38.0 (20140413.2041)
 -->
<!-- Title: LCD::reset Pages: 1 -->
<svg width="159pt" height="46pt"
 viewBox="0.00 0.00 159.00 46.00" xmlns="http://www.w3.org/2000/svg" xmlns:xlink="http://www.w3.org/1999/xlink">
<g id="graph0" class="graph" transform="scale(1 1) rotate(0) translate(4 42)">
<title>LCD::reset</title>
<polygon fill="white" stroke="none" points="-4,4 -4,-42 155,-42 155,4 -4,4"/>
<!-- Node46 -->
<g id="node1" class="node"><title>Node46</title>
<polygon fill="#bfbfbf" stroke="black" points="0,-0.5 0,-19.5 65,-19.5 65,-0.5 0,-0.5"/>
<text text-anchor="middle" x="32.5" y="-7.5" font-family="Helvetica,sans-Serif" font-size="10.00">LCD::reset</text>
</g>
<!-- Node47 -->
<g id="node2" class="node"><title>Node47</title>
<g id="a_node2"><a xlink:href="eBoard__comment_8h.html#aca4f96af7c6736bf2b61c88d731af741" target="_top" xlink:title="read a digital state from an INPUTpin ">
<polygon fill="white" stroke="black" points="101,-0.5 101,-19.5 151,-19.5 151,-0.5 101,-0.5"/>
<text text-anchor="middle" x="126" y="-7.5" font-family="Helvetica,sans-Serif" font-size="10.00">readPin</text>
</a>
</g>
</g>
<!-- Node46&#45;&gt;Node47 -->
<g id="edge1" class="edge"><title>Node46&#45;&gt;Node47</title>
<path fill="none" stroke="midnightblue" d="M75.33,-10C84.0612,-10 92.9842,-10 100.814,-10"/>
<polygon fill="midnightblue" stroke="midnightblue" points="75.2455,-6.5001 65.2455,-10 75.2454,-13.5001 75.2455,-6.5001"/>
</g>
<!-- Node47&#45;&gt;Node47 -->
<g id="edge2" class="edge"><title>Node47&#45;&gt;Node47</title>
<path fill="none" stroke="midnightblue" d="M108.964,-29.4C110.102,-34.3146 115.78,-38 126,-38 142.352,-38 147.078,-28.5653 140.18,-19.7571"/>
<polygon fill="midnightblue" stroke="midnightblue" points="112.336,-30.3393 111.82,-19.7571 105.624,-28.3512 112.336,-30.3393"/>
</g>
</g>
</svg>
