<?xml version="1.0" encoding="UTF-8" standalone="no"?>
<!DOCTYPE svg PUBLIC "-//W3C//DTD SVG 1.1//EN"
 "http://www.w3.org/Graphics/SVG/1.1/DTD/svg11.dtd">
<!-- Generated by graphviz version 2.38.0 (20140413.2041)
 -->
<!-- Title: LCD::changeBackground Pages: 1 -->
<!--zoomable 296 -->
<svg id="main" version="1.1" xmlns="http://www.w3.org/2000/svg" xmlns:xlink="http://www.w3.org/1999/xlink" xml:space="preserve" onload="init(evt)">
<style type="text/css"><![CDATA[
.edge:hover path { stroke: red; }
.edge:hover polygon { stroke: red; fill: red; }
]]></style>
<script type="text/javascript"><![CDATA[
var edges = document.getElementsByTagName('g');
if (edges && edges.length) {
  for (var i=0;i<edges.length;i++) {
    if (edges[i].id.substr(0,4)=='edge') {
      edges[i].setAttribute('class','edge');
    }
  }
}
]]></script>
        <defs>
                <circle id="rim" cx="0" cy="0" r="7"/>
                <circle id="rim2" cx="0" cy="0" r="3.5"/>
                <g id="zoomPlus">
                        <use xlink:href="#rim" fill="#404040">
                                <set attributeName="fill" to="#808080" begin="zoomplus.mouseover" end="zoomplus.mouseout"/>
                        </use>
                        <path d="M-4,0h8M0,-4v8" fill="none" stroke="white" stroke-width="1.5" pointer-events="none"/>
                </g>
                <g id="zoomMin">
                        <use xlink:href="#rim" fill="#404040">
                                <set attributeName="fill" to="#808080" begin="zoomminus.mouseover" end="zoomminus.mouseout"/>
                        </use>
                        <path d="M-4,0h8" fill="none" stroke="white" stroke-width="1.5" pointer-events="none"/>
                </g>
                <g id="dirArrow">
                        <path fill="none" stroke="white" stroke-width="1.5" d="M0,-3.0v7 M-2.5,-0.5L0,-3.0L2.5,-0.5"/>
                </g>
               <g id="resetDef">
                       <use xlink:href="#rim2" fill="#404040">
                               <set attributeName="fill" to="#808080" begin="reset.mouseover" end="reset.mouseout"/>
                       </use>
               </g>
        </defs>

<script type="text/javascript">
var viewWidth = 987;
var viewHeight = 296;
var sectionId = 'dynsection-0';
</script>
<script xlink:href="svgpan.js"/>
<svg id="graph" class="graph">
<g id="viewport">
<title>LCD::changeBackground</title>
<polygon fill="white" stroke="none" points="-4,4 -4,-291.769 983,-291.769 983,4 -4,4"/>
<!-- Node4 -->
<g id="node1" class="node"><title>Node4</title>
<polygon fill="#bfbfbf" stroke="black" points="0,-135.035 0,-154.035 126,-154.035 126,-135.035 0,-135.035"/>
<text text-anchor="middle" x="63" y="-142.035" font-family="Helvetica,sans-Serif" font-size="10.00">LCD::changeBackground</text>
</g>
<!-- Node5 -->
<g id="node2" class="node"><title>Node5</title>
<g id="a_node2"><a xlink:href="structLCD.html#a632d9c641930fe16c0b623b82136196e" target="_top" xlink:title="LCD::init">
<polygon fill="white" stroke="black" points="162,-135.035 162,-154.035 218,-154.035 218,-135.035 162,-135.035"/>
<text text-anchor="middle" x="190" y="-142.035" font-family="Helvetica,sans-Serif" font-size="10.00">LCD::init</text>
</a>
</g>
</g>
<!-- Node4&#45;&gt;Node5 -->
<g id="edge1" class="edge"><title>Node4&#45;&gt;Node5</title>
<path fill="none" stroke="midnightblue" d="M126.134,-137.785C134.825,-137.78 143.526,-137.949 151.563,-138.292"/>
<polygon fill="midnightblue" stroke="midnightblue" points="151.516,-141.795 161.691,-138.844 151.896,-134.805 151.516,-141.795"/>
</g>
<!-- Node7 -->
<g id="node4" class="node"><title>Node7</title>
<g id="a_node4"><a xlink:href="structLCD.html#a739998fad0591a092255676c8c8d532f" target="_top" xlink:title="LCD::s1Cmd">
<polygon fill="white" stroke="black" points="655,-119.035 655,-138.035 729,-138.035 729,-119.035 655,-119.035"/>
<text text-anchor="middle" x="692" y="-126.035" font-family="Helvetica,sans-Serif" font-size="10.00">LCD::s1Cmd</text>
</a>
</g>
</g>
<!-- Node4&#45;&gt;Node7 -->
<g id="edge30" class="edge"><title>Node4&#45;&gt;Node7</title>
<path fill="none" stroke="midnightblue" d="M75.4603,-134.959C103.618,-112.128 179.35,-54.8839 254,-34.5346 411.005,8.26414 479.911,20.9427 619,-63.5346 639.162,-75.78 637.35,-86.8842 655,-102.535 659.007,-106.088 663.491,-109.627 667.897,-112.899"/>
<polygon fill="midnightblue" stroke="midnightblue" points="665.96,-115.817 676.129,-118.793 670.035,-110.125 665.96,-115.817"/>
</g>
<!-- Node5&#45;&gt;Node4 -->
<g id="edge13" class="edge"><title>Node5&#45;&gt;Node4</title>
<path fill="none" stroke="midnightblue" d="M161.691,-150.226C154.034,-150.744 145.332,-151.072 136.351,-151.209"/>
<polygon fill="midnightblue" stroke="midnightblue" points="136.108,-147.711 126.134,-151.284 136.159,-154.711 136.108,-147.711"/>
</g>
<!-- Node6 -->
<g id="node3" class="node"><title>Node6</title>
<g id="a_node3"><a xlink:href="structLCD.html#ae7a8d9bc1581cfeeb0f098c8bb6d1229" target="_top" xlink:title="LCD::s2Cmd">
<polygon fill="white" stroke="black" points="545,-159.035 545,-178.035 619,-178.035 619,-159.035 545,-159.035"/>
<text text-anchor="middle" x="582" y="-166.035" font-family="Helvetica,sans-Serif" font-size="10.00">LCD::s2Cmd</text>
</a>
</g>
</g>
<!-- Node5&#45;&gt;Node6 -->
<g id="edge2" class="edge"><title>Node5&#45;&gt;Node6</title>
<path fill="none" stroke="midnightblue" d="M218.114,-142.554C283.963,-142.796 452.913,-152.894 534.941,-161.154"/>
<polygon fill="midnightblue" stroke="midnightblue" points="534.664,-164.644 544.974,-162.203 535.392,-157.682 534.664,-164.644"/>
</g>
<!-- Node12 -->
<g id="node9" class="node"><title>Node12</title>
<g id="a_node9"><a xlink:href="structLCD.html#ad31ee94d401b7c28d6cc2f472e2eb8fd" target="_top" xlink:title="LCD::changeMode">
<polygon fill="white" stroke="black" points="254,-206.035 254,-225.035 352,-225.035 352,-206.035 254,-206.035"/>
<text text-anchor="middle" x="303" y="-213.035" font-family="Helvetica,sans-Serif" font-size="10.00">LCD::changeMode</text>
</a>
</g>
</g>
<!-- Node5&#45;&gt;Node12 -->
<g id="edge10" class="edge"><title>Node5&#45;&gt;Node12</title>
<path fill="none" stroke="midnightblue" d="M212.486,-154.078C224.364,-162.353 239.595,-173.657 254,-182.535 264.232,-188.84 276.34,-194.885 285.836,-200.482"/>
<polygon fill="midnightblue" stroke="midnightblue" points="283.99,-203.457 294.294,-205.924 287.778,-197.57 283.99,-203.457"/>
</g>
<!-- Node13 -->
<g id="node10" class="node"><title>Node13</title>
<g id="a_node10"><a xlink:href="structLCD.html#a75cacb94de3b3ff71e9a4497b5cc4a81" target="_top" xlink:title="LCD::changeBrightness">
<polygon fill="white" stroke="black" points="388,-253.035 388,-272.035 509,-272.035 509,-253.035 388,-253.035"/>
<text text-anchor="middle" x="448.5" y="-260.035" font-family="Helvetica,sans-Serif" font-size="10.00">LCD::changeBrightness</text>
</a>
</g>
</g>
<!-- Node5&#45;&gt;Node13 -->
<g id="edge14" class="edge"><title>Node5&#45;&gt;Node13</title>
<path fill="none" stroke="midnightblue" d="M197.237,-154.177C206.357,-171.996 225.416,-207.935 254,-225.535 290.748,-248.161 338.722,-255.219 377.707,-257.695"/>
<polygon fill="midnightblue" stroke="midnightblue" points="377.752,-261.202 387.929,-258.256 378.136,-254.213 377.752,-261.202"/>
</g>
<!-- Node14 -->
<g id="node11" class="node"><title>Node14</title>
<g id="a_node11"><a xlink:href="structLCD.html#ad3120f397273bac2ad60e0291554b9e6" target="_top" xlink:title="LCD::clear">
<polygon fill="white" stroke="black" points="271,-74.0346 271,-93.0346 335,-93.0346 335,-74.0346 271,-74.0346"/>
<text text-anchor="middle" x="303" y="-81.0346" font-family="Helvetica,sans-Serif" font-size="10.00">LCD::clear</text>
</a>
</g>
</g>
<!-- Node5&#45;&gt;Node14 -->
<g id="edge19" class="edge"><title>Node5&#45;&gt;Node14</title>
<path fill="none" stroke="midnightblue" d="M197.904,-134.725C209.403,-124.222 233.265,-109.79 254,-98.5346 256.533,-97.1594 259.155,-95.7661 261.807,-94.395"/>
<polygon fill="midnightblue" stroke="midnightblue" points="263.473,-97.4755 270.857,-89.8776 260.346,-91.2125 263.473,-97.4755"/>
</g>
<!-- Node6&#45;&gt;Node5 -->
<g id="edge3" class="edge"><title>Node6&#45;&gt;Node5</title>
<path fill="none" stroke="midnightblue" d="M544.974,-170.433C471.183,-169.382 303.499,-159.086 228.487,-151.024"/>
<polygon fill="midnightblue" stroke="midnightblue" points="228.444,-147.497 218.114,-149.853 227.658,-154.453 228.444,-147.497"/>
</g>
<!-- Node6&#45;&gt;Node7 -->
<g id="edge4" class="edge"><title>Node6&#45;&gt;Node7</title>
<path fill="none" stroke="midnightblue" d="M608.869,-158.954C622.895,-153.759 640.434,-147.263 655.699,-141.609"/>
<polygon fill="midnightblue" stroke="midnightblue" points="657.181,-144.793 665.342,-138.037 654.749,-138.228 657.181,-144.793"/>
</g>
<!-- Node7&#45;&gt;Node5 -->
<g id="edge5" class="edge"><title>Node7&#45;&gt;Node5</title>
<path fill="none" stroke="midnightblue" d="M672.81,-118.819C610.703,-87.0575 402.656,7.61594 254,-64.5346 227.997,-77.1554 209.511,-106.287 199.547,-125.692"/>
<polygon fill="midnightblue" stroke="midnightblue" points="196.337,-124.289 195.118,-134.813 202.634,-127.346 196.337,-124.289"/>
</g>
<!-- Node8 -->
<g id="node5" class="node"><title>Node8</title>
<g id="a_node5"><a xlink:href="classeagle__impl_1_1TwoWire.html#a1876ffdb16fb185c14a75e1251cef5e4" target="_top" xlink:title="eagle_impl::TwoWire\l::beginTransmission">
<polygon fill="white" stroke="black" points="765,-164.535 765,-194.535 873,-194.535 873,-164.535 765,-164.535"/>
<text text-anchor="start" x="773" y="-182.535" font-family="Helvetica,sans-Serif" font-size="10.00">eagle_impl::TwoWire</text>
<text text-anchor="middle" x="819" y="-171.535" font-family="Helvetica,sans-Serif" font-size="10.00">::beginTransmission</text>
</a>
</g>
</g>
<!-- Node7&#45;&gt;Node8 -->
<g id="edge6" class="edge"><title>Node7&#45;&gt;Node8</title>
<path fill="none" stroke="midnightblue" d="M716.512,-138.127C732,-144.446 752.806,-152.935 771.548,-160.582"/>
<polygon fill="midnightblue" stroke="midnightblue" points="770.253,-163.834 780.834,-164.371 772.898,-157.353 770.253,-163.834"/>
</g>
<!-- Node9 -->
<g id="node6" class="node"><title>Node9</title>
<g id="a_node6"><a xlink:href="classeagle__impl_1_1TwoWire.html#a2b5f9f156b6d281746a2a6ca5707dad3" target="_top" xlink:title="eagle_impl::TwoWire\l::write">
<polygon fill="white" stroke="black" points="765,-66.5346 765,-96.5346 873,-96.5346 873,-66.5346 765,-66.5346"/>
<text text-anchor="start" x="773" y="-84.5346" font-family="Helvetica,sans-Serif" font-size="10.00">eagle_impl::TwoWire</text>
<text text-anchor="middle" x="819" y="-73.5346" font-family="Helvetica,sans-Serif" font-size="10.00">::write</text>
</a>
</g>
</g>
<!-- Node7&#45;&gt;Node9 -->
<g id="edge7" class="edge"><title>Node7&#45;&gt;Node9</title>
<path fill="none" stroke="midnightblue" d="M718.296,-119.023C732.742,-113.592 751.357,-106.592 768.584,-100.115"/>
<polygon fill="midnightblue" stroke="midnightblue" points="769.848,-103.379 777.976,-96.5834 767.384,-96.8268 769.848,-103.379"/>
</g>
<!-- Node11 -->
<g id="node8" class="node"><title>Node11</title>
<g id="a_node8"><a xlink:href="classeagle__impl_1_1TwoWire.html#af80f9a7b85a3a81a035ca94c95bcdc1d" target="_top" xlink:title="eagle_impl::TwoWire\l::endTransmission">
<polygon fill="white" stroke="black" points="765,-115.535 765,-145.535 873,-145.535 873,-115.535 765,-115.535"/>
<text text-anchor="start" x="773" y="-133.535" font-family="Helvetica,sans-Serif" font-size="10.00">eagle_impl::TwoWire</text>
<text text-anchor="middle" x="819" y="-122.535" font-family="Helvetica,sans-Serif" font-size="10.00">::endTransmission</text>
</a>
</g>
</g>
<!-- Node7&#45;&gt;Node11 -->
<g id="edge9" class="edge"><title>Node7&#45;&gt;Node11</title>
<path fill="none" stroke="midnightblue" d="M729.155,-129.113C737.136,-129.241 745.819,-129.38 754.526,-129.519"/>
<polygon fill="midnightblue" stroke="midnightblue" points="754.665,-133.022 764.72,-129.682 754.777,-126.022 754.665,-133.022"/>
</g>
<!-- Node10 -->
<g id="node7" class="node"><title>Node10</title>
<g id="a_node7"><a xlink:href="eBoard_8h.html#abb66f08d8061c1064047324c1bacc2a9" target="_top" xlink:title="twi_transmit">
<polygon fill="white" stroke="black" points="909,-72.0346 909,-91.0346 979,-91.0346 979,-72.0346 909,-72.0346"/>
<text text-anchor="middle" x="944" y="-79.0346" font-family="Helvetica,sans-Serif" font-size="10.00">twi_transmit</text>
</a>
</g>
</g>
<!-- Node9&#45;&gt;Node10 -->
<g id="edge8" class="edge"><title>Node9&#45;&gt;Node10</title>
<path fill="none" stroke="midnightblue" d="M873.234,-81.5346C881.725,-81.5346 890.431,-81.5346 898.686,-81.5346"/>
<polygon fill="midnightblue" stroke="midnightblue" points="898.854,-85.0347 908.854,-81.5346 898.854,-78.0347 898.854,-85.0347"/>
</g>
<!-- Node12&#45;&gt;Node5 -->
<g id="edge11" class="edge"><title>Node12&#45;&gt;Node5</title>
<path fill="none" stroke="midnightblue" d="M263.416,-205.975C260.191,-204.227 257.014,-202.392 254,-200.535 235.513,-189.141 215.665,-173.75 203.292,-161.573"/>
<polygon fill="midnightblue" stroke="midnightblue" points="205.71,-159.034 196.33,-154.109 200.591,-163.809 205.71,-159.034"/>
</g>
<!-- Node12&#45;&gt;Node7 -->
<g id="edge12" class="edge"><title>Node12&#45;&gt;Node7</title>
<path fill="none" stroke="midnightblue" d="M352.207,-219.821C415.836,-223.599 530.173,-223.795 619,-187.535 641.513,-178.344 662.435,-159.575 675.859,-145.662"/>
<polygon fill="midnightblue" stroke="midnightblue" points="678.606,-147.847 682.852,-138.14 673.479,-143.081 678.606,-147.847"/>
</g>
<!-- Node13&#45;&gt;Node5 -->
<g id="edge15" class="edge"><title>Node13&#45;&gt;Node5</title>
<path fill="none" stroke="midnightblue" d="M410.731,-272.05C369.502,-276.097 302.126,-273.166 254,-243.535 224.423,-225.324 205.046,-187.479 196.324,-163.909"/>
<polygon fill="midnightblue" stroke="midnightblue" points="199.567,-162.573 193.068,-154.206 192.931,-164.8 199.567,-162.573"/>
</g>
<!-- Node13&#45;&gt;Node6 -->
<g id="edge16" class="edge"><title>Node13&#45;&gt;Node6</title>
<path fill="none" stroke="midnightblue" d="M463.078,-252.829C485.934,-236.491 532.265,-203.372 559.555,-183.864"/>
<polygon fill="midnightblue" stroke="midnightblue" points="561.592,-186.71 567.692,-178.047 557.522,-181.015 561.592,-186.71"/>
</g>
<!-- Node13&#45;&gt;Node8 -->
<g id="edge17" class="edge"><title>Node13&#45;&gt;Node8</title>
<path fill="none" stroke="midnightblue" d="M486.035,-272.064C541.086,-284.507 647.525,-301.013 729,-267.535 760.62,-254.542 786.988,-224.283 802.618,-202.888"/>
<polygon fill="midnightblue" stroke="midnightblue" points="805.548,-204.806 808.453,-194.617 799.828,-200.771 805.548,-204.806"/>
</g>
<!-- Node13&#45;&gt;Node11 -->
<g id="edge18" class="edge"><title>Node13&#45;&gt;Node11</title>
<path fill="none" stroke="midnightblue" d="M484.545,-253.033C519.04,-243.437 573.071,-227.751 619,-211.535 673.379,-192.335 734.657,-166.782 774.668,-149.553"/>
<polygon fill="midnightblue" stroke="midnightblue" points="776.075,-152.758 783.866,-145.578 773.298,-146.332 776.075,-152.758"/>
</g>
<!-- Node14&#45;&gt;Node5 -->
<g id="edge20" class="edge"><title>Node14&#45;&gt;Node5</title>
<path fill="none" stroke="midnightblue" d="M294.766,-93.1377C285.302,-100.492 268.248,-108.8 254,-116.535 245.147,-121.34 235.724,-126.725 226.937,-131.598"/>
<polygon fill="midnightblue" stroke="midnightblue" points="225.159,-128.581 218.06,-136.446 228.514,-134.725 225.159,-128.581"/>
</g>
<!-- Node15 -->
<g id="node12" class="node"><title>Node15</title>
<g id="a_node12"><a xlink:href="structLCD.html#ad1a67d455563026a5064ef9cab86ae4d" target="_top" xlink:title="LCD::setCursor">
<polygon fill="white" stroke="black" points="405.5,-112.035 405.5,-131.035 491.5,-131.035 491.5,-112.035 405.5,-112.035"/>
<text text-anchor="middle" x="448.5" y="-119.035" font-family="Helvetica,sans-Serif" font-size="10.00">LCD::setCursor</text>
</a>
</g>
</g>
<!-- Node14&#45;&gt;Node15 -->
<g id="edge21" class="edge"><title>Node14&#45;&gt;Node15</title>
<path fill="none" stroke="midnightblue" d="M335.137,-91.78C354.652,-96.9477 380.144,-103.698 401.912,-109.463"/>
<polygon fill="midnightblue" stroke="midnightblue" points="401.054,-112.856 411.617,-112.032 402.846,-106.089 401.054,-112.856"/>
</g>
<!-- Node16 -->
<g id="node13" class="node"><title>Node16</title>
<g id="a_node13"><a xlink:href="structLCD.html#ae5873763db265cd00da32664cce88873" target="_top" xlink:title="LCD::s1Dat">
<polygon fill="white" stroke="black" points="657.5,-74.0346 657.5,-93.0346 726.5,-93.0346 726.5,-74.0346 657.5,-74.0346"/>
<text text-anchor="middle" x="692" y="-81.0346" font-family="Helvetica,sans-Serif" font-size="10.00">LCD::s1Dat</text>
</a>
</g>
</g>
<!-- Node14&#45;&gt;Node16 -->
<g id="edge25" class="edge"><title>Node14&#45;&gt;Node16</title>
<path fill="none" stroke="midnightblue" d="M335.016,-83.5346C403.592,-83.5346 568.258,-83.5346 647.264,-83.5346"/>
<polygon fill="midnightblue" stroke="midnightblue" points="647.371,-87.0347 657.371,-83.5346 647.371,-80.0347 647.371,-87.0347"/>
</g>
<!-- Node15&#45;&gt;Node5 -->
<g id="edge22" class="edge"><title>Node15&#45;&gt;Node5</title>
<path fill="none" stroke="midnightblue" d="M405.44,-125.306C356.281,-129.714 275.669,-136.942 228.54,-141.168"/>
<polygon fill="midnightblue" stroke="midnightblue" points="228.097,-137.694 218.45,-142.073 228.723,-144.666 228.097,-137.694"/>
</g>
<!-- Node15&#45;&gt;Node6 -->
<g id="edge23" class="edge"><title>Node15&#45;&gt;Node6</title>
<path fill="none" stroke="midnightblue" d="M476.111,-131.046C495.765,-138.07 522.756,-147.717 544.436,-155.466"/>
<polygon fill="midnightblue" stroke="midnightblue" points="543.383,-158.806 553.977,-158.876 545.739,-152.215 543.383,-158.806"/>
</g>
<!-- Node15&#45;&gt;Node7 -->
<g id="edge24" class="edge"><title>Node15&#45;&gt;Node7</title>
<path fill="none" stroke="midnightblue" d="M491.566,-122.754C534.354,-123.994 600.488,-125.911 644.731,-127.193"/>
<polygon fill="midnightblue" stroke="midnightblue" points="644.829,-130.698 654.927,-127.489 645.032,-123.701 644.829,-130.698"/>
</g>
<!-- Node16&#45;&gt;Node5 -->
<g id="edge26" class="edge"><title>Node16&#45;&gt;Node5</title>
<path fill="none" stroke="midnightblue" d="M672.313,-74.0086C608.606,-42.9833 396.027,48.5035 254,-34.5346 220.42,-54.1677 203.178,-99.1265 195.72,-125.081"/>
<polygon fill="midnightblue" stroke="midnightblue" points="192.294,-124.347 193.104,-134.911 199.058,-126.148 192.294,-124.347"/>
</g>
<!-- Node16&#45;&gt;Node8 -->
<g id="edge27" class="edge"><title>Node16&#45;&gt;Node8</title>
<path fill="none" stroke="midnightblue" d="M708.451,-93.2766C715.109,-97.8228 722.778,-103.548 729,-109.535 747.708,-127.534 744.586,-139.495 765,-155.535 766.579,-156.775 768.231,-157.967 769.938,-159.112"/>
<polygon fill="midnightblue" stroke="midnightblue" points="768.439,-162.294 778.815,-164.434 772.038,-156.29 768.439,-162.294"/>
</g>
<!-- Node16&#45;&gt;Node9 -->
<g id="edge28" class="edge"><title>Node16&#45;&gt;Node9</title>
<path fill="none" stroke="midnightblue" d="M726.827,-82.9933C735.52,-82.8542 745.158,-82.7 754.818,-82.5455"/>
<polygon fill="midnightblue" stroke="midnightblue" points="754.912,-86.0445 764.854,-82.3849 754.799,-79.0454 754.912,-86.0445"/>
</g>
<!-- Node16&#45;&gt;Node11 -->
<g id="edge29" class="edge"><title>Node16&#45;&gt;Node11</title>
<path fill="none" stroke="midnightblue" d="M718.296,-93.0457C732.742,-98.4774 751.357,-105.477 768.584,-111.954"/>
<polygon fill="midnightblue" stroke="midnightblue" points="767.384,-115.242 777.976,-115.486 769.848,-108.69 767.384,-115.242"/>
</g>
</g>
</svg>
        <g id="navigator" transform="translate(0 0)" fill="#404254">
                <rect fill="#f2f5e9" fill-opacity="0.5" stroke="#606060" stroke-width=".5" x="0" y="0" width="60" height="60"/>
                <use id="zoomplus" xlink:href="#zoomPlus" x="17" y="9" onmousedown="handleZoom(evt,'in')"/>
                <use id="zoomminus" xlink:href="#zoomMin" x="42" y="9" onmousedown="handleZoom(evt,'out')"/>
                <use id="reset" xlink:href="#resetDef" x="30" y="36" onmousedown="handleReset()"/>
                <g id="arrowUp" xlink:href="#dirArrow" transform="translate(30 24)" onmousedown="handlePan(0,-1)">
                  <use xlink:href="#rim" fill="#404040">
                        <set attributeName="fill" to="#808080" begin="arrowUp.mouseover" end="arrowUp.mouseout"/>
                  </use>
                  <path fill="none" stroke="white" stroke-width="1.5" d="M0,-3.0v7 M-2.5,-0.5L0,-3.0L2.5,-0.5"/>
                </g>
                <g id="arrowRight" xlink:href="#dirArrow" transform="rotate(90) translate(36 -43)" onmousedown="handlePan(1,0)">
                  <use xlink:href="#rim" fill="#404040">
                        <set attributeName="fill" to="#808080" begin="arrowRight.mouseover" end="arrowRight.mouseout"/>
                  </use>
                  <path fill="none" stroke="white" stroke-width="1.5" d="M0,-3.0v7 M-2.5,-0.5L0,-3.0L2.5,-0.5"/>
                </g>
                <g id="arrowDown" xlink:href="#dirArrow" transform="rotate(180) translate(-30 -48)" onmousedown="handlePan(0,1)">
                  <use xlink:href="#rim" fill="#404040">
                        <set attributeName="fill" to="#808080" begin="arrowDown.mouseover" end="arrowDown.mouseout"/>
                  </use>
                  <path fill="none" stroke="white" stroke-width="1.5" d="M0,-3.0v7 M-2.5,-0.5L0,-3.0L2.5,-0.5"/>
                </g>
                <g id="arrowLeft" xlink:href="#dirArrow" transform="rotate(270) translate(-36 17)" onmousedown="handlePan(-1,0)">
                  <use xlink:href="#rim" fill="#404040">
                        <set attributeName="fill" to="#808080" begin="arrowLeft.mouseover" end="arrowLeft.mouseout"/>
                  </use>
                  <path fill="none" stroke="white" stroke-width="1.5" d="M0,-3.0v7 M-2.5,-0.5L0,-3.0L2.5,-0.5"/>
                </g>
        </g>
        <svg viewBox="0 0 15 15" width="100%" height="30px" preserveAspectRatio="xMaxYMin meet">
         <g id="arrow_out" transform="scale(0.3 0.3)">
          <a xlink:href="structLCD_aa01b7522d1e210f9cd071e3a5d4ae9e6_cgraph_org.svg" target="_base">
           <rect id="button" ry="5" rx="5" y="6" x="6" height="38" width="38"
                fill="#f2f5e9" fill-opacity="0.5" stroke="#606060" stroke-width="1.0"/>
           <path id="arrow"
             d="M 11.500037,31.436501 C 11.940474,20.09759 22.043105,11.32322 32.158766,21.979434 L 37.068811,17.246167 C 37.068811,17.246167 37.088388,32 37.088388,32 L 22.160133,31.978069 C 22.160133,31.978069 26.997745,27.140456 26.997745,27.140456 C 18.528582,18.264221 13.291696,25.230495 11.500037,31.436501 z"
             style="fill:#404040;"/>
          </a>
         </g>
        </svg>
</svg>
