<?xml version="1.0" encoding="UTF-8" standalone="no"?>
<!DOCTYPE svg PUBLIC "-//W3C//DTD SVG 1.1//EN"
 "http://www.w3.org/Graphics/SVG/1.1/DTD/svg11.dtd">
<!-- Generated by graphviz version 2.38.0 (20140413.2041)
 -->
<!-- Title: AX12Servo::isMoving Pages: 1 -->
<svg width="205pt" height="46pt"
 viewBox="0.00 0.00 205.00 46.00" xmlns="http://www.w3.org/2000/svg" xmlns:xlink="http://www.w3.org/1999/xlink">
<g id="graph0" class="graph" transform="scale(1 1) rotate(0) translate(4 42)">
<title>AX12Servo::isMoving</title>
<polygon fill="white" stroke="none" points="-4,4 -4,-42 201,-42 201,4 -4,4"/>
<!-- Node13 -->
<g id="node1" class="node"><title>Node13</title>
<polygon fill="#bfbfbf" stroke="black" points="0,-0.5 0,-19.5 111,-19.5 111,-0.5 0,-0.5"/>
<text text-anchor="middle" x="55.5" y="-7.5" font-family="Helvetica,sans-Serif" font-size="10.00">AX12Servo::isMoving</text>
</g>
<!-- Node14 -->
<g id="node2" class="node"><title>Node14</title>
<g id="a_node2"><a xlink:href="eBoard__comment_8h.html#aca4f96af7c6736bf2b61c88d731af741" target="_top" xlink:title="read a digital state from an INPUTpin ">
<polygon fill="white" stroke="black" points="147,-0.5 147,-19.5 197,-19.5 197,-0.5 147,-0.5"/>
<text text-anchor="middle" x="172" y="-7.5" font-family="Helvetica,sans-Serif" font-size="10.00">readPin</text>
</a>
</g>
</g>
<!-- Node13&#45;&gt;Node14 -->
<g id="edge1" class="edge"><title>Node13&#45;&gt;Node14</title>
<path fill="none" stroke="midnightblue" d="M121.357,-10C130.417,-10 139.218,-10 146.831,-10"/>
<polygon fill="midnightblue" stroke="midnightblue" points="121.067,-6.5001 111.067,-10 121.067,-13.5001 121.067,-6.5001"/>
</g>
<!-- Node14&#45;&gt;Node14 -->
<g id="edge2" class="edge"><title>Node14&#45;&gt;Node14</title>
<path fill="none" stroke="midnightblue" d="M150.52,-29.4C151.954,-34.3146 159.114,-38 172,-38 192.617,-38 198.577,-28.5653 189.879,-19.7571"/>
<polygon fill="midnightblue" stroke="midnightblue" points="153.901,-30.3496 154.121,-19.7571 147.343,-27.9004 153.901,-30.3496"/>
</g>
</g>
</svg>
