<?xml version="1.0" encoding="UTF-8" standalone="no"?>
<!DOCTYPE svg PUBLIC "-//W3C//DTD SVG 1.1//EN"
 "http://www.w3.org/Graphics/SVG/1.1/DTD/svg11.dtd">
<!-- Generated by graphviz version 2.38.0 (20140413.2041)
 -->
<!-- Title: LCD::s1Dat Pages: 1 -->
<!--zoomable 498 -->
<svg id="main" version="1.1" xmlns="http://www.w3.org/2000/svg" xmlns:xlink="http://www.w3.org/1999/xlink" xml:space="preserve" onload="init(evt)">
<style type="text/css"><![CDATA[
.edge:hover path { stroke: red; }
.edge:hover polygon { stroke: red; fill: red; }
]]></style>
<script type="text/javascript"><![CDATA[
var edges = document.getElementsByTagName('g');
if (edges && edges.length) {
  for (var i=0;i<edges.length;i++) {
    if (edges[i].id.substr(0,4)=='edge') {
      edges[i].setAttribute('class','edge');
    }
  }
}
]]></script>
        <defs>
                <circle id="rim" cx="0" cy="0" r="7"/>
                <circle id="rim2" cx="0" cy="0" r="3.5"/>
                <g id="zoomPlus">
                        <use xlink:href="#rim" fill="#404040">
                                <set attributeName="fill" to="#808080" begin="zoomplus.mouseover" end="zoomplus.mouseout"/>
                        </use>
                        <path d="M-4,0h8M0,-4v8" fill="none" stroke="white" stroke-width="1.5" pointer-events="none"/>
                </g>
                <g id="zoomMin">
                        <use xlink:href="#rim" fill="#404040">
                                <set attributeName="fill" to="#808080" begin="zoomminus.mouseover" end="zoomminus.mouseout"/>
                        </use>
                        <path d="M-4,0h8" fill="none" stroke="white" stroke-width="1.5" pointer-events="none"/>
                </g>
                <g id="dirArrow">
                        <path fill="none" stroke="white" stroke-width="1.5" d="M0,-3.0v7 M-2.5,-0.5L0,-3.0L2.5,-0.5"/>
                </g>
               <g id="resetDef">
                       <use xlink:href="#rim2" fill="#404040">
                               <set attributeName="fill" to="#808080" begin="reset.mouseover" end="reset.mouseout"/>
                       </use>
               </g>
        </defs>

<script type="text/javascript">
var viewWidth = 923;
var viewHeight = 498;
var sectionId = 'dynsection-23';
</script>
<script xlink:href="svgpan.js"/>
<svg id="graph" class="graph">
<g id="viewport">
<title>LCD::s1Dat</title>
<polygon fill="white" stroke="none" points="-4,4 -4,-494 919,-494 919,4 -4,4"/>
<!-- Node328 -->
<g id="node1" class="node"><title>Node328</title>
<polygon fill="#bfbfbf" stroke="black" points="0,-162.5 0,-181.5 69,-181.5 69,-162.5 0,-162.5"/>
<text text-anchor="middle" x="34.5" y="-169.5" font-family="Helvetica,sans-Serif" font-size="10.00">LCD::s1Dat</text>
</g>
<!-- Node329 -->
<g id="node2" class="node"><title>Node329</title>
<g id="a_node2"><a xlink:href="structLCD.html#ad3120f397273bac2ad60e0291554b9e6" target="_top" xlink:title="LCD::clear">
<polygon fill="white" stroke="black" points="105,-129.5 105,-148.5 169,-148.5 169,-129.5 105,-129.5"/>
<text text-anchor="middle" x="137" y="-136.5" font-family="Helvetica,sans-Serif" font-size="10.00">LCD::clear</text>
</a>
</g>
</g>
<!-- Node328&#45;&gt;Node329 -->
<g id="edge1" class="edge"><title>Node328&#45;&gt;Node329</title>
<path fill="none" stroke="midnightblue" d="M74.2824,-159.265C85.1597,-155.694 96.7942,-151.874 106.997,-148.524"/>
<polygon fill="midnightblue" stroke="midnightblue" points="72.9778,-156.01 64.5688,-162.455 75.1616,-162.661 72.9778,-156.01"/>
</g>
<!-- Node338 -->
<g id="node11" class="node"><title>Node338</title>
<g id="a_node11"><a xlink:href="structLCD.html#a0fd055c88888db0e52fea11f1df24d4a" target="_top" xlink:title="LCD::drawBitmap">
<polygon fill="white" stroke="black" points="746,-439.5 746,-458.5 841,-458.5 841,-439.5 746,-439.5"/>
<text text-anchor="middle" x="793.5" y="-446.5" font-family="Helvetica,sans-Serif" font-size="10.00">LCD::drawBitmap</text>
</a>
</g>
</g>
<!-- Node328&#45;&gt;Node338 -->
<g id="edge33" class="edge"><title>Node328&#45;&gt;Node338</title>
<path fill="none" stroke="midnightblue" d="M38.1472,-191.511C48.7269,-260.673 94.513,-490 236.5,-490 236.5,-490 236.5,-490 491,-490 583.973,-490 691.614,-470.621 749.81,-458.509"/>
<polygon fill="midnightblue" stroke="midnightblue" points="41.5968,-190.911 36.6971,-181.517 34.6693,-191.916 41.5968,-190.911"/>
</g>
<!-- Node339 -->
<g id="node12" class="node"><title>Node339</title>
<g id="a_node12"><a xlink:href="structLCD.html#ab1b68d883d80dc7b8810e602b7032767" target="_top" xlink:title="LCD::print">
<polygon fill="white" stroke="black" points="762.5,-66.5 762.5,-85.5 824.5,-85.5 824.5,-66.5 762.5,-66.5"/>
<text text-anchor="middle" x="793.5" y="-73.5" font-family="Helvetica,sans-Serif" font-size="10.00">LCD::print</text>
</a>
</g>
</g>
<!-- Node328&#45;&gt;Node339 -->
<g id="edge34" class="edge"><title>Node328&#45;&gt;Node339</title>
<path fill="none" stroke="midnightblue" d="M45.5625,-153.332C71.0813,-108.795 142.989,-0 236.5,-0 236.5,-0 236.5,-0 491,-0 598.422,-0 721.022,-45.924 770.291,-66.3745"/>
<polygon fill="midnightblue" stroke="midnightblue" points="42.3972,-151.822 40.5792,-162.26 48.5094,-155.234 42.3972,-151.822"/>
</g>
<!-- Node330 -->
<g id="node3" class="node"><title>Node330</title>
<g id="a_node3"><a xlink:href="structLCD.html#a632d9c641930fe16c0b623b82136196e" target="_top" xlink:title="LCD::init">
<polygon fill="white" stroke="black" points="209.5,-221.5 209.5,-240.5 265.5,-240.5 265.5,-221.5 209.5,-221.5"/>
<text text-anchor="middle" x="237.5" y="-228.5" font-family="Helvetica,sans-Serif" font-size="10.00">LCD::init</text>
</a>
</g>
</g>
<!-- Node329&#45;&gt;Node330 -->
<g id="edge2" class="edge"><title>Node329&#45;&gt;Node330</title>
<path fill="none" stroke="midnightblue" d="M161.585,-155.17C183.998,-174.389 216.251,-205.273 229.949,-221.301"/>
<polygon fill="midnightblue" stroke="midnightblue" points="163.738,-152.408 153.826,-148.667 159.241,-157.773 163.738,-152.408"/>
</g>
<!-- Node343 -->
<g id="node16" class="node"><title>Node343</title>
<g id="a_node16"><a xlink:href="lcd__debug_8cpp.html#ae66f6b31b5ad750f1fe042a706a4e3d4" target="_top" xlink:title="main">
<polygon fill="white" stroke="black" points="218.5,-66.5 218.5,-85.5 256.5,-85.5 256.5,-66.5 218.5,-66.5"/>
<text text-anchor="middle" x="237.5" y="-73.5" font-family="Helvetica,sans-Serif" font-size="10.00">main</text>
</a>
</g>
</g>
<!-- Node329&#45;&gt;Node343 -->
<g id="edge31" class="edge"><title>Node329&#45;&gt;Node343</title>
<path fill="none" stroke="midnightblue" d="M161.461,-123.995C180.037,-112.113 205.433,-95.87 221.399,-85.6584"/>
<polygon fill="midnightblue" stroke="midnightblue" points="159.498,-121.095 152.96,-129.432 163.27,-126.992 159.498,-121.095"/>
</g>
<!-- Node344 -->
<g id="node17" class="node"><title>Node344</title>
<g id="a_node17"><a xlink:href="structLCD.html#a7912ad9a12d649cdec2dd53ae893a8ce" target="_top" xlink:title="LCD::reset">
<polygon fill="white" stroke="black" points="205,-28.5 205,-47.5 270,-47.5 270,-28.5 205,-28.5"/>
<text text-anchor="middle" x="237.5" y="-35.5" font-family="Helvetica,sans-Serif" font-size="10.00">LCD::reset</text>
</a>
</g>
</g>
<!-- Node329&#45;&gt;Node344 -->
<g id="edge32" class="edge"><title>Node329&#45;&gt;Node344</title>
<path fill="none" stroke="midnightblue" d="M149.999,-120.931C162.355,-103.224 182.88,-76.1764 205,-57 208.957,-53.5696 213.611,-50.3873 218.109,-47.6463"/>
<polygon fill="midnightblue" stroke="midnightblue" points="147.068,-119.016 144.317,-129.248 152.848,-122.965 147.068,-119.016"/>
</g>
<!-- Node330&#45;&gt;Node328 -->
<g id="edge28" class="edge"><title>Node330&#45;&gt;Node328</title>
<path fill="none" stroke="midnightblue" d="M199.215,-220.056C161.613,-209.018 104.135,-192.147 68.2415,-181.611"/>
<polygon fill="midnightblue" stroke="midnightblue" points="198.678,-223.546 209.259,-223.004 200.65,-216.829 198.678,-223.546"/>
</g>
<!-- Node330&#45;&gt;Node329 -->
<g id="edge13" class="edge"><title>Node330&#45;&gt;Node329</title>
<path fill="none" stroke="midnightblue" d="M212.913,-214.828C190.452,-195.568 158.109,-164.593 144.463,-148.596"/>
<polygon fill="midnightblue" stroke="midnightblue" points="210.776,-217.603 220.688,-221.345 215.272,-212.239 210.776,-217.603"/>
</g>
<!-- Node331 -->
<g id="node4" class="node"><title>Node331</title>
<g id="a_node4"><a xlink:href="structLCD.html#aa01b7522d1e210f9cd071e3a5d4ae9e6" target="_top" xlink:title="LCD::changeBackground">
<polygon fill="white" stroke="black" points="427,-118.5 427,-137.5 553,-137.5 553,-118.5 427,-118.5"/>
<text text-anchor="middle" x="490" y="-125.5" font-family="Helvetica,sans-Serif" font-size="10.00">LCD::changeBackground</text>
</a>
</g>
</g>
<!-- Node330&#45;&gt;Node331 -->
<g id="edge3" class="edge"><title>Node330&#45;&gt;Node331</title>
<path fill="none" stroke="midnightblue" d="M245.858,-212.468C256.672,-192.247 278.577,-161.801 306,-147 342.911,-127.079 389.744,-120.192 426.793,-119.419"/>
<polygon fill="midnightblue" stroke="midnightblue" points="242.71,-210.938 241.465,-221.46 249,-214.011 242.71,-210.938"/>
</g>
<!-- Node333 -->
<g id="node6" class="node"><title>Node333</title>
<g id="a_node6"><a xlink:href="structLCD.html#a75cacb94de3b3ff71e9a4497b5cc4a81" target="_top" xlink:title="LCD::changeBrightness">
<polygon fill="white" stroke="black" points="589,-395.5 589,-414.5 710,-414.5 710,-395.5 589,-395.5"/>
<text text-anchor="middle" x="649.5" y="-402.5" font-family="Helvetica,sans-Serif" font-size="10.00">LCD::changeBrightness</text>
</a>
</g>
</g>
<!-- Node330&#45;&gt;Node333 -->
<g id="edge6" class="edge"><title>Node330&#45;&gt;Node333</title>
<path fill="none" stroke="midnightblue" d="M244.843,-250.58C253.45,-277.409 271.833,-324.165 306,-348 390.454,-406.915 515.465,-408.436 588.791,-405.726"/>
<polygon fill="midnightblue" stroke="midnightblue" points="248.103,-249.272 241.827,-240.737 241.411,-251.324 248.103,-249.272"/>
</g>
<!-- Node336 -->
<g id="node9" class="node"><title>Node336</title>
<g id="a_node9"><a xlink:href="structLCD.html#aa5e25fef7649532af402df06f05b6d4c" target="_top" xlink:title="LCD::changeID">
<polygon fill="white" stroke="black" points="306,-292.5 306,-311.5 391,-311.5 391,-292.5 306,-292.5"/>
<text text-anchor="middle" x="348.5" y="-299.5" font-family="Helvetica,sans-Serif" font-size="10.00">LCD::changeID</text>
</a>
</g>
</g>
<!-- Node330&#45;&gt;Node336 -->
<g id="edge10" class="edge"><title>Node330&#45;&gt;Node336</title>
<path fill="none" stroke="midnightblue" d="M260.074,-246.711C273.172,-256.076 290.334,-268.041 306,-278 313.726,-282.912 322.475,-288.034 329.941,-292.278"/>
<polygon fill="midnightblue" stroke="midnightblue" points="261.884,-243.702 251.723,-240.7 257.794,-249.383 261.884,-243.702"/>
</g>
<!-- Node337 -->
<g id="node10" class="node"><title>Node337</title>
<g id="a_node10"><a xlink:href="structLCD.html#ad31ee94d401b7c28d6cc2f472e2eb8fd" target="_top" xlink:title="LCD::changeMode">
<polygon fill="white" stroke="black" points="441,-339.5 441,-358.5 539,-358.5 539,-339.5 441,-339.5"/>
<text text-anchor="middle" x="490" y="-346.5" font-family="Helvetica,sans-Serif" font-size="10.00">LCD::changeMode</text>
</a>
</g>
</g>
<!-- Node330&#45;&gt;Node337 -->
<g id="edge11" class="edge"><title>Node330&#45;&gt;Node337</title>
<path fill="none" stroke="midnightblue" d="M250.58,-249.368C261.87,-268.424 280.771,-296.892 306,-312 346.948,-336.521 401.968,-342.016 440.955,-344.063"/>
<polygon fill="midnightblue" stroke="midnightblue" points="253.556,-247.523 245.515,-240.625 247.499,-251.032 253.556,-247.523"/>
</g>
<!-- Node330&#45;&gt;Node338 -->
<g id="edge14" class="edge"><title>Node330&#45;&gt;Node338</title>
<path fill="none" stroke="midnightblue" d="M240.721,-250.604C245.755,-285.675 261.304,-359.202 306,-399 370.125,-456.099 636.582,-454.185 745.646,-450.864"/>
<polygon fill="midnightblue" stroke="midnightblue" points="244.188,-250.127 239.432,-240.66 237.247,-251.027 244.188,-250.127"/>
</g>
<!-- Node330&#45;&gt;Node339 -->
<g id="edge16" class="edge"><title>Node330&#45;&gt;Node339</title>
<path fill="none" stroke="midnightblue" d="M245.328,-212.009C254.944,-188.206 274.863,-148.1 306,-128 453.906,-32.525 681.185,-57.5564 762.383,-70.5521"/>
<polygon fill="midnightblue" stroke="midnightblue" points="242.044,-210.796 241.733,-221.387 248.58,-213.302 242.044,-210.796"/>
</g>
<!-- Node340 -->
<g id="node13" class="node"><title>Node340</title>
<g id="a_node13"><a xlink:href="structLCD.html#a739998fad0591a092255676c8c8d532f" target="_top" xlink:title="LCD::s1Cmd">
<polygon fill="white" stroke="black" points="311.5,-198.5 311.5,-217.5 385.5,-217.5 385.5,-198.5 311.5,-198.5"/>
<text text-anchor="middle" x="348.5" y="-205.5" font-family="Helvetica,sans-Serif" font-size="10.00">LCD::s1Cmd</text>
</a>
</g>
</g>
<!-- Node330&#45;&gt;Node340 -->
<g id="edge17" class="edge"><title>Node330&#45;&gt;Node340</title>
<path fill="none" stroke="midnightblue" d="M275.837,-223.121C287.265,-220.71 299.813,-218.062 311.173,-215.665"/>
<polygon fill="midnightblue" stroke="midnightblue" points="274.786,-219.766 265.724,-225.255 276.231,-226.615 274.786,-219.766"/>
</g>
<!-- Node341 -->
<g id="node14" class="node"><title>Node341</title>
<g id="a_node14"><a xlink:href="structLCD.html#ae7a8d9bc1581cfeeb0f098c8bb6d1229" target="_top" xlink:title="LCD::s2Cmd">
<polygon fill="white" stroke="black" points="453,-245.5 453,-264.5 527,-264.5 527,-245.5 453,-245.5"/>
<text text-anchor="middle" x="490" y="-252.5" font-family="Helvetica,sans-Serif" font-size="10.00">LCD::s2Cmd</text>
</a>
</g>
</g>
<!-- Node330&#45;&gt;Node341 -->
<g id="edge29" class="edge"><title>Node330&#45;&gt;Node341</title>
<path fill="none" stroke="midnightblue" d="M276.008,-229.611C323.784,-231.809 405.787,-239.689 452.886,-246.628"/>
<polygon fill="midnightblue" stroke="midnightblue" points="275.913,-226.105 265.785,-229.213 275.641,-233.099 275.913,-226.105"/>
</g>
<!-- Node342 -->
<g id="node15" class="node"><title>Node342</title>
<g id="a_node15"><a xlink:href="structLCD.html#ad1a67d455563026a5064ef9cab86ae4d" target="_top" xlink:title="LCD::setCursor">
<polygon fill="white" stroke="black" points="606.5,-179.5 606.5,-198.5 692.5,-198.5 692.5,-179.5 606.5,-179.5"/>
<text text-anchor="middle" x="649.5" y="-186.5" font-family="Helvetica,sans-Serif" font-size="10.00">LCD::setCursor</text>
</a>
</g>
</g>
<!-- Node330&#45;&gt;Node342 -->
<g id="edge30" class="edge"><title>Node330&#45;&gt;Node342</title>
<path fill="none" stroke="midnightblue" d="M257.512,-215.125C270.326,-205.498 288.101,-194.114 306,-189 410.628,-159.106 540.689,-171.951 606.356,-181.708"/>
<polygon fill="midnightblue" stroke="midnightblue" points="255.205,-212.487 249.494,-221.411 259.523,-217.996 255.205,-212.487"/>
</g>
<!-- Node331&#45;&gt;Node330 -->
<g id="edge4" class="edge"><title>Node331&#45;&gt;Node330</title>
<path fill="none" stroke="midnightblue" d="M416.584,-135.983C381.409,-139.535 339.595,-146.869 306,-165 280.41,-178.811 259.625,-206.246 248.174,-221.376"/>
<polygon fill="midnightblue" stroke="midnightblue" points="417.159,-139.445 426.793,-135.035 416.512,-132.475 417.159,-139.445"/>
</g>
<!-- Node332 -->
<g id="node5" class="node"><title>Node332</title>
<g id="a_node5"><a xlink:href="dancing__dragon_8cpp.html#a840291bc02cba5474a4cb46a9b9566fe" target="_top" xlink:title="main">
<polygon fill="white" stroke="black" points="877,-284.5 877,-303.5 915,-303.5 915,-284.5 877,-284.5"/>
<text text-anchor="middle" x="896" y="-291.5" font-family="Helvetica,sans-Serif" font-size="10.00">main</text>
</a>
</g>
</g>
<!-- Node331&#45;&gt;Node332 -->
<g id="edge5" class="edge"><title>Node331&#45;&gt;Node332</title>
<path fill="none" stroke="midnightblue" d="M563.29,-134.496C607.009,-140.204 663.161,-150.747 710,-170 782.955,-199.987 857.115,-260.924 884.232,-284.442"/>
<polygon fill="midnightblue" stroke="midnightblue" points="563.668,-131.016 553.311,-133.248 562.799,-137.962 563.668,-131.016"/>
</g>
<!-- Node333&#45;&gt;Node330 -->
<g id="edge7" class="edge"><title>Node333&#45;&gt;Node330</title>
<path fill="none" stroke="midnightblue" d="M605.908,-416.123C536.469,-426.293 397.455,-429.799 306,-366 262.037,-335.332 244.207,-266.715 239.709,-240.615"/>
<polygon fill="midnightblue" stroke="midnightblue" points="606.709,-419.54 616.035,-414.512 605.61,-412.626 606.709,-419.54"/>
</g>
<!-- Node334 -->
<g id="node7" class="node"><title>Node334</title>
<g id="a_node7"><a xlink:href="structLCD.html#a3f437907a543226be7c527a2d304ad95" target="_top" xlink:title="LCD::lightOff">
<polygon fill="white" stroke="black" points="756.5,-359.5 756.5,-378.5 830.5,-378.5 830.5,-359.5 756.5,-359.5"/>
<text text-anchor="middle" x="793.5" y="-366.5" font-family="Helvetica,sans-Serif" font-size="10.00">LCD::lightOff</text>
</a>
</g>
</g>
<!-- Node333&#45;&gt;Node334 -->
<g id="edge8" class="edge"><title>Node333&#45;&gt;Node334</title>
<path fill="none" stroke="midnightblue" d="M698.109,-392.93C717.039,-388.131 738.467,-382.699 756.116,-378.224"/>
<polygon fill="midnightblue" stroke="midnightblue" points="697.014,-389.597 688.181,-395.447 698.734,-396.382 697.014,-389.597"/>
</g>
<!-- Node335 -->
<g id="node8" class="node"><title>Node335</title>
<g id="a_node8"><a xlink:href="structLCD.html#aa4c1e7d41ca93af28769aaba704d5c1f" target="_top" xlink:title="LCD::lightOn">
<polygon fill="white" stroke="black" points="756.5,-397.5 756.5,-416.5 830.5,-416.5 830.5,-397.5 756.5,-397.5"/>
<text text-anchor="middle" x="793.5" y="-404.5" font-family="Helvetica,sans-Serif" font-size="10.00">LCD::lightOn</text>
</a>
</g>
</g>
<!-- Node333&#45;&gt;Node335 -->
<g id="edge9" class="edge"><title>Node333&#45;&gt;Node335</title>
<path fill="none" stroke="midnightblue" d="M720.63,-405.988C732.964,-406.161 745.334,-406.336 756.25,-406.489"/>
<polygon fill="midnightblue" stroke="midnightblue" points="720.358,-402.484 710.309,-405.842 720.259,-409.483 720.358,-402.484"/>
</g>
<!-- Node337&#45;&gt;Node330 -->
<g id="edge12" class="edge"><title>Node337&#45;&gt;Node330</title>
<path fill="none" stroke="midnightblue" d="M431.714,-358.759C393.61,-359.061 343.807,-352.64 306,-330 270.811,-308.928 247.932,-261.865 240.847,-240.664"/>
<polygon fill="midnightblue" stroke="midnightblue" points="432.221,-362.247 442.132,-358.503 432.049,-355.249 432.221,-362.247"/>
</g>
<!-- Node338&#45;&gt;Node332 -->
<g id="edge15" class="edge"><title>Node338&#45;&gt;Node332</title>
<path fill="none" stroke="midnightblue" d="M831.047,-434.273C834.686,-431.862 838.1,-429.114 841,-426 875.426,-389.038 889.276,-327.163 893.482,-303.551"/>
<polygon fill="midnightblue" stroke="midnightblue" points="829.215,-431.289 822.283,-439.301 832.699,-437.361 829.215,-431.289"/>
</g>
<!-- Node340&#45;&gt;Node331 -->
<g id="edge18" class="edge"><title>Node340&#45;&gt;Node331</title>
<path fill="none" stroke="midnightblue" d="M375.227,-193.246C403.466,-177.051 447.99,-151.518 472.113,-137.684"/>
<polygon fill="midnightblue" stroke="midnightblue" points="373.261,-190.339 366.327,-198.35 376.743,-196.411 373.261,-190.339"/>
</g>
<!-- Node340&#45;&gt;Node337 -->
<g id="edge19" class="edge"><title>Node340&#45;&gt;Node337</title>
<path fill="none" stroke="midnightblue" d="M366.194,-224.874C395.634,-254.63 455.88,-315.524 479.345,-339.241"/>
<polygon fill="midnightblue" stroke="midnightblue" points="368.61,-222.339 359.088,-217.692 363.634,-227.262 368.61,-222.339"/>
</g>
<!-- Node340&#45;&gt;Node341 -->
<g id="edge20" class="edge"><title>Node340&#45;&gt;Node341</title>
<path fill="none" stroke="midnightblue" d="M387.5,-220.803C410.47,-228.542 439.281,-238.249 460.333,-245.342"/>
<polygon fill="midnightblue" stroke="midnightblue" points="388.324,-217.387 377.73,-217.511 386.089,-224.021 388.324,-217.387"/>
</g>
<!-- Node340&#45;&gt;Node342 -->
<g id="edge27" class="edge"><title>Node340&#45;&gt;Node342</title>
<path fill="none" stroke="midnightblue" d="M395.814,-205.057C453.272,-201.406 550.434,-195.232 606.044,-191.698"/>
<polygon fill="midnightblue" stroke="midnightblue" points="395.324,-201.581 385.566,-205.708 395.768,-208.567 395.324,-201.581"/>
</g>
<!-- Node341&#45;&gt;Node330 -->
<g id="edge21" class="edge"><title>Node341&#45;&gt;Node330</title>
<path fill="none" stroke="midnightblue" d="M442.61,-255.938C390.678,-253.069 308.255,-244.845 265.785,-238.016"/>
<polygon fill="midnightblue" stroke="midnightblue" points="442.724,-259.448 452.886,-256.452 443.074,-252.456 442.724,-259.448"/>
</g>
<!-- Node341&#45;&gt;Node333 -->
<g id="edge26" class="edge"><title>Node341&#45;&gt;Node333</title>
<path fill="none" stroke="midnightblue" d="M508.93,-272.077C542.124,-303.689 612.146,-370.377 638.333,-395.317"/>
<polygon fill="midnightblue" stroke="midnightblue" points="510.989,-269.204 501.334,-264.842 506.162,-274.273 510.989,-269.204"/>
</g>
<!-- Node341&#45;&gt;Node342 -->
<g id="edge22" class="edge"><title>Node341&#45;&gt;Node342</title>
<path fill="none" stroke="midnightblue" d="M523.269,-241.478C553.82,-228.675 598.906,-209.782 625.826,-198.501"/>
<polygon fill="midnightblue" stroke="midnightblue" points="521.772,-238.31 513.902,-245.403 524.478,-244.766 521.772,-238.31"/>
</g>
<!-- Node342&#45;&gt;Node329 -->
<g id="edge23" class="edge"><title>Node342&#45;&gt;Node329</title>
<path fill="none" stroke="midnightblue" d="M634.547,-171.582C617.65,-152.032 587.174,-121.422 553,-109 414.673,-58.7177 233.651,-107.478 165.52,-129.477"/>
<polygon fill="midnightblue" stroke="midnightblue" points="632.021,-174.018 641.123,-179.441 637.389,-169.526 632.021,-174.018"/>
</g>
<!-- Node342&#45;&gt;Node338 -->
<g id="edge25" class="edge"><title>Node342&#45;&gt;Node338</title>
<path fill="none" stroke="midnightblue" d="M653.598,-208.968C661.423,-253.28 685.816,-361.04 746,-426 751.142,-431.55 757.916,-435.934 764.697,-439.32"/>
<polygon fill="midnightblue" stroke="midnightblue" points="657.018,-208.196 651.919,-198.909 650.113,-209.349 657.018,-208.196"/>
</g>
<!-- Node342&#45;&gt;Node339 -->
<g id="edge24" class="edge"><title>Node342&#45;&gt;Node339</title>
<path fill="none" stroke="midnightblue" d="M670.688,-172.935C700.667,-149.078 756.032,-105.02 780.424,-85.6099"/>
<polygon fill="midnightblue" stroke="midnightblue" points="668.252,-170.4 662.607,-179.366 672.611,-175.878 668.252,-170.4"/>
</g>
</g>
</svg>
        <g id="navigator" transform="translate(0 0)" fill="#404254">
                <rect fill="#f2f5e9" fill-opacity="0.5" stroke="#606060" stroke-width=".5" x="0" y="0" width="60" height="60"/>
                <use id="zoomplus" xlink:href="#zoomPlus" x="17" y="9" onmousedown="handleZoom(evt,'in')"/>
                <use id="zoomminus" xlink:href="#zoomMin" x="42" y="9" onmousedown="handleZoom(evt,'out')"/>
                <use id="reset" xlink:href="#resetDef" x="30" y="36" onmousedown="handleReset()"/>
                <g id="arrowUp" xlink:href="#dirArrow" transform="translate(30 24)" onmousedown="handlePan(0,-1)">
                  <use xlink:href="#rim" fill="#404040">
                        <set attributeName="fill" to="#808080" begin="arrowUp.mouseover" end="arrowUp.mouseout"/>
                  </use>
                  <path fill="none" stroke="white" stroke-width="1.5" d="M0,-3.0v7 M-2.5,-0.5L0,-3.0L2.5,-0.5"/>
                </g>
                <g id="arrowRight" xlink:href="#dirArrow" transform="rotate(90) translate(36 -43)" onmousedown="handlePan(1,0)">
                  <use xlink:href="#rim" fill="#404040">
                        <set attributeName="fill" to="#808080" begin="arrowRight.mouseover" end="arrowRight.mouseout"/>
                  </use>
                  <path fill="none" stroke="white" stroke-width="1.5" d="M0,-3.0v7 M-2.5,-0.5L0,-3.0L2.5,-0.5"/>
                </g>
                <g id="arrowDown" xlink:href="#dirArrow" transform="rotate(180) translate(-30 -48)" onmousedown="handlePan(0,1)">
                  <use xlink:href="#rim" fill="#404040">
                        <set attributeName="fill" to="#808080" begin="arrowDown.mouseover" end="arrowDown.mouseout"/>
                  </use>
                  <path fill="none" stroke="white" stroke-width="1.5" d="M0,-3.0v7 M-2.5,-0.5L0,-3.0L2.5,-0.5"/>
                </g>
                <g id="arrowLeft" xlink:href="#dirArrow" transform="rotate(270) translate(-36 17)" onmousedown="handlePan(-1,0)">
                  <use xlink:href="#rim" fill="#404040">
                        <set attributeName="fill" to="#808080" begin="arrowLeft.mouseover" end="arrowLeft.mouseout"/>
                  </use>
                  <path fill="none" stroke="white" stroke-width="1.5" d="M0,-3.0v7 M-2.5,-0.5L0,-3.0L2.5,-0.5"/>
                </g>
        </g>
        <svg viewBox="0 0 15 15" width="100%" height="30px" preserveAspectRatio="xMaxYMin meet">
         <g id="arrow_out" transform="scale(0.3 0.3)">
          <a xlink:href="structLCD_ae5873763db265cd00da32664cce88873_icgraph_org.svg" target="_base">
           <rect id="button" ry="5" rx="5" y="6" x="6" height="38" width="38"
                fill="#f2f5e9" fill-opacity="0.5" stroke="#606060" stroke-width="1.0"/>
           <path id="arrow"
             d="M 11.500037,31.436501 C 11.940474,20.09759 22.043105,11.32322 32.158766,21.979434 L 37.068811,17.246167 C 37.068811,17.246167 37.088388,32 37.088388,32 L 22.160133,31.978069 C 22.160133,31.978069 26.997745,27.140456 26.997745,27.140456 C 18.528582,18.264221 13.291696,25.230495 11.500037,31.436501 z"
             style="fill:#404040;"/>
          </a>
         </g>
        </svg>
</svg>
