<?xml version="1.0" encoding="UTF-8" standalone="no"?>
<!DOCTYPE svg PUBLIC "-//W3C//DTD SVG 1.1//EN"
 "http://www.w3.org/Graphics/SVG/1.1/DTD/svg11.dtd">
<!-- Generated by graphviz version 2.38.0 (20140413.2041)
 -->
<!-- Title: NeoPixel::updateLength Pages: 1 -->
<svg width="416pt" height="47pt"
 viewBox="0.00 0.00 416.00 47.00" xmlns="http://www.w3.org/2000/svg" xmlns:xlink="http://www.w3.org/1999/xlink">
<g id="graph0" class="graph" transform="scale(1 1) rotate(0) translate(4 43)">
<title>NeoPixel::updateLength</title>
<polygon fill="white" stroke="none" points="-4,4 -4,-43 412,-43 412,4 -4,4"/>
<!-- Node102 -->
<g id="node1" class="node"><title>Node102</title>
<polygon fill="#bfbfbf" stroke="black" points="0,-19.5 0,-38.5 121,-38.5 121,-19.5 0,-19.5"/>
<text text-anchor="middle" x="60.5" y="-26.5" font-family="Helvetica,sans-Serif" font-size="10.00">NeoPixel::updateLength</text>
</g>
<!-- Node103 -->
<g id="node2" class="node"><title>Node103</title>
<g id="a_node2"><a xlink:href="structNeoPixel.html#aa2c4c5a68ddab0787375e5b1e451e2ee" target="_top" xlink:title="NeoPixel::NeoPixel">
<polygon fill="white" stroke="black" points="306,-19.5 306,-38.5 408,-38.5 408,-19.5 306,-19.5"/>
<text text-anchor="middle" x="357" y="-26.5" font-family="Helvetica,sans-Serif" font-size="10.00">NeoPixel::NeoPixel</text>
</a>
</g>
</g>
<!-- Node102&#45;&gt;Node103 -->
<g id="edge1" class="edge"><title>Node102&#45;&gt;Node103</title>
<path fill="none" stroke="midnightblue" d="M131.22,-29C184.881,-29 257.76,-29 305.797,-29"/>
<polygon fill="midnightblue" stroke="midnightblue" points="131.097,-25.5001 121.096,-29 131.096,-32.5001 131.097,-25.5001"/>
</g>
<!-- Node104 -->
<g id="node3" class="node"><title>Node104</title>
<g id="a_node3"><a xlink:href="structNeoPixel.html#a3eef199e4d0d7fb7bf27cec07fcf9c47" target="_top" xlink:title="NeoPixel::updateType">
<polygon fill="white" stroke="black" points="157,-0.5 157,-19.5 270,-19.5 270,-0.5 157,-0.5"/>
<text text-anchor="middle" x="213.5" y="-7.5" font-family="Helvetica,sans-Serif" font-size="10.00">NeoPixel::updateType</text>
</a>
</g>
</g>
<!-- Node102&#45;&gt;Node104 -->
<g id="edge2" class="edge"><title>Node102&#45;&gt;Node104</title>
<path fill="none" stroke="midnightblue" d="M131.156,-20.2354C139.716,-19.1583 148.377,-18.0684 156.695,-17.0218"/>
<polygon fill="midnightblue" stroke="midnightblue" points="130.664,-16.7696 121.179,-21.4907 131.538,-23.7148 130.664,-16.7696"/>
</g>
<!-- Node104&#45;&gt;Node103 -->
<g id="edge3" class="edge"><title>Node104&#45;&gt;Node103</title>
<path fill="none" stroke="midnightblue" d="M280.057,-18.8028C288.676,-19.96 297.398,-21.1312 305.708,-22.247"/>
<polygon fill="midnightblue" stroke="midnightblue" points="280.395,-15.3168 270.018,-17.4548 279.464,-22.2545 280.395,-15.3168"/>
</g>
</g>
</svg>
