<?xml version="1.0" encoding="UTF-8" standalone="no"?>
<!DOCTYPE svg PUBLIC "-//W3C//DTD SVG 1.1//EN"
 "http://www.w3.org/Graphics/SVG/1.1/DTD/svg11.dtd">
<!-- Generated by graphviz version 2.38.0 (20140413.2041)
 -->
<!-- Title: SoccerBoard::power Pages: 1 -->
<svg width="391pt" height="117pt"
 viewBox="0.00 0.00 391.00 117.23" xmlns="http://www.w3.org/2000/svg" xmlns:xlink="http://www.w3.org/1999/xlink">
<g id="graph0" class="graph" transform="scale(1 1) rotate(0) translate(4 113.226)">
<title>SoccerBoard::power</title>
<polygon fill="white" stroke="none" points="-4,4 -4,-113.226 387,-113.226 387,4 -4,4"/>
<!-- Node96 -->
<g id="node1" class="node"><title>Node96</title>
<polygon fill="#bfbfbf" stroke="black" points="0,-57.5 0,-76.5 105,-76.5 105,-57.5 0,-57.5"/>
<text text-anchor="middle" x="52.5" y="-64.5" font-family="Helvetica,sans-Serif" font-size="10.00">SoccerBoard::power</text>
</g>
<!-- Node97 -->
<g id="node2" class="node"><title>Node97</title>
<g id="a_node2"><a xlink:href="eBoard_8h.html#ad6d4c1b1e3b495ed81fb28fac04d2bd6" target="_top" xlink:title="write a boolean state to an output pin ">
<polygon fill="white" stroke="black" points="141,-57.5 141,-76.5 193,-76.5 193,-57.5 141,-57.5"/>
<text text-anchor="middle" x="167" y="-64.5" font-family="Helvetica,sans-Serif" font-size="10.00">writePin</text>
</a>
</g>
</g>
<!-- Node96&#45;&gt;Node97 -->
<g id="edge1" class="edge"><title>Node96&#45;&gt;Node97</title>
<path fill="none" stroke="midnightblue" d="M105.14,-67C113.735,-67 122.475,-67 130.549,-67"/>
<polygon fill="midnightblue" stroke="midnightblue" points="130.711,-70.5001 140.711,-67 130.711,-63.5001 130.711,-70.5001"/>
</g>
<!-- Node98 -->
<g id="node3" class="node"><title>Node98</title>
<g id="a_node3"><a xlink:href="eBoard_8h.html#a757015d50a6c57414603841f728b670b" target="_top" xlink:title="[DEBUG_MODE] used to check if a pin index is in bounds ">
<polygon fill="white" stroke="black" points="327,-76.5 327,-95.5 383,-95.5 383,-76.5 327,-76.5"/>
<text text-anchor="middle" x="355" y="-83.5" font-family="Helvetica,sans-Serif" font-size="10.00">checkIdx</text>
</a>
</g>
</g>
<!-- Node97&#45;&gt;Node98 -->
<g id="edge2" class="edge"><title>Node97&#45;&gt;Node98</title>
<path fill="none" stroke="midnightblue" d="M179.203,-76.7076C190.777,-86.0392 209.806,-99.5106 229,-105 259.369,-113.685 295.092,-106.603 320.555,-98.7356"/>
<polygon fill="midnightblue" stroke="midnightblue" points="321.707,-102.041 330.116,-95.5959 319.523,-95.3906 321.707,-102.041"/>
</g>
<!-- Node99 -->
<g id="node4" class="node"><title>Node99</title>
<g id="a_node4"><a xlink:href="eBoard_8h.html#a06400a6dce24e4eda610644893c1bbd7" target="_top" xlink:title="[COPY&amp;PASTE] [CHECK_PINS] Check if a pin is set to a specific mode ">
<polygon fill="white" stroke="black" points="231.5,-76.5 231.5,-95.5 288.5,-95.5 288.5,-76.5 231.5,-76.5"/>
<text text-anchor="middle" x="260" y="-83.5" font-family="Helvetica,sans-Serif" font-size="10.00">checkPin</text>
</a>
</g>
</g>
<!-- Node97&#45;&gt;Node99 -->
<g id="edge3" class="edge"><title>Node97&#45;&gt;Node99</title>
<path fill="none" stroke="midnightblue" d="M193.349,-72.2926C202,-74.0988 211.869,-76.1594 221.28,-78.1244"/>
<polygon fill="midnightblue" stroke="midnightblue" points="220.729,-81.5848 231.234,-80.2026 222.16,-74.7326 220.729,-81.5848"/>
</g>
<!-- Node100 -->
<g id="node5" class="node"><title>Node100</title>
<g id="a_node5"><a xlink:href="eBoard_8h.html#a78b0e873cb50c282c6243d4913406be4" target="_top" xlink:title="[COPY&amp;PASTE] set a pin to a certain mode =&gt; checkPin() will return true then ">
<polygon fill="white" stroke="black" points="238,-38.5 238,-57.5 282,-57.5 282,-38.5 238,-38.5"/>
<text text-anchor="middle" x="260" y="-45.5" font-family="Helvetica,sans-Serif" font-size="10.00">setPin</text>
</a>
</g>
</g>
<!-- Node97&#45;&gt;Node100 -->
<g id="edge5" class="edge"><title>Node97&#45;&gt;Node100</title>
<path fill="none" stroke="midnightblue" d="M193.349,-61.7074C204.059,-59.4712 216.636,-56.8452 227.9,-54.4933"/>
<polygon fill="midnightblue" stroke="midnightblue" points="228.711,-57.8996 237.785,-52.4296 227.28,-51.0474 228.711,-57.8996"/>
</g>
<!-- Node101 -->
<g id="node6" class="node"><title>Node101</title>
<g id="a_node6"><a xlink:href="eBoard_8h.html#ad6372ab439a73887b0800cc695599436" target="_top" xlink:title="[SHIFT] Changes a single output Pin ">
<polygon fill="white" stroke="black" points="229,-0.5 229,-19.5 291,-19.5 291,-0.5 229,-0.5"/>
<text text-anchor="middle" x="260" y="-7.5" font-family="Helvetica,sans-Serif" font-size="10.00">shiftSingle</text>
</a>
</g>
</g>
<!-- Node97&#45;&gt;Node101 -->
<g id="edge7" class="edge"><title>Node97&#45;&gt;Node101</title>
<path fill="none" stroke="midnightblue" d="M183.437,-57.3307C197.642,-48.4333 218.922,-35.1038 235.284,-24.8554"/>
<polygon fill="midnightblue" stroke="midnightblue" points="237.174,-27.801 243.791,-19.5265 233.458,-21.8687 237.174,-27.801"/>
</g>
<!-- Node99&#45;&gt;Node98 -->
<g id="edge4" class="edge"><title>Node99&#45;&gt;Node98</title>
<path fill="none" stroke="midnightblue" d="M288.651,-86C297.443,-86 307.317,-86 316.675,-86"/>
<polygon fill="midnightblue" stroke="midnightblue" points="316.936,-89.5001 326.936,-86 316.936,-82.5001 316.936,-89.5001"/>
</g>
<!-- Node100&#45;&gt;Node98 -->
<g id="edge6" class="edge"><title>Node100&#45;&gt;Node98</title>
<path fill="none" stroke="midnightblue" d="M282.103,-56.6228C293.634,-61.3342 308.17,-67.2736 321.149,-72.577"/>
<polygon fill="midnightblue" stroke="midnightblue" points="320.114,-75.9351 330.695,-76.4777 322.762,-69.4552 320.114,-75.9351"/>
</g>
<!-- Node102 -->
<g id="node7" class="node"><title>Node102</title>
<g id="a_node7"><a xlink:href="eBoard_8h.html#aa0a7f697a49b0d038631c64e945f5c1a" target="_top" xlink:title="[SHIFT] Changes bits according to store_bits ">
<polygon fill="white" stroke="black" points="331.5,-0.5 331.5,-19.5 378.5,-19.5 378.5,-0.5 331.5,-0.5"/>
<text text-anchor="middle" x="355" y="-7.5" font-family="Helvetica,sans-Serif" font-size="10.00">shiftAll</text>
</a>
</g>
</g>
<!-- Node101&#45;&gt;Node102 -->
<g id="edge8" class="edge"><title>Node101&#45;&gt;Node102</title>
<path fill="none" stroke="midnightblue" d="M291.194,-10C300.776,-10 311.415,-10 321.173,-10"/>
<polygon fill="midnightblue" stroke="midnightblue" points="321.323,-13.5001 331.323,-10 321.323,-6.5001 321.323,-13.5001"/>
</g>
</g>
</svg>
