<?xml version="1.0" encoding="UTF-8" standalone="no"?>
<!DOCTYPE svg PUBLIC "-//W3C//DTD SVG 1.1//EN"
 "http://www.w3.org/Graphics/SVG/1.1/DTD/svg11.dtd">
<!-- Generated by graphviz version 2.38.0 (20140413.2041)
 -->
<!-- Title: NeoPixel::clear Pages: 1 -->
<svg width="177pt" height="46pt"
 viewBox="0.00 0.00 177.00 46.00" xmlns="http://www.w3.org/2000/svg" xmlns:xlink="http://www.w3.org/1999/xlink">
<g id="graph0" class="graph" transform="scale(1 1) rotate(0) translate(4 42)">
<title>NeoPixel::clear</title>
<polygon fill="white" stroke="none" points="-4,4 -4,-42 173,-42 173,4 -4,4"/>
<!-- Node16 -->
<g id="node1" class="node"><title>Node16</title>
<polygon fill="#bfbfbf" stroke="black" points="0,-0.5 0,-19.5 83,-19.5 83,-0.5 0,-0.5"/>
<text text-anchor="middle" x="41.5" y="-7.5" font-family="Helvetica,sans-Serif" font-size="10.00">NeoPixel::clear</text>
</g>
<!-- Node17 -->
<g id="node2" class="node"><title>Node17</title>
<g id="a_node2"><a xlink:href="eBoard__comment_8h.html#aca4f96af7c6736bf2b61c88d731af741" target="_top" xlink:title="read a digital state from an INPUTpin ">
<polygon fill="white" stroke="black" points="119,-0.5 119,-19.5 169,-19.5 169,-0.5 119,-0.5"/>
<text text-anchor="middle" x="144" y="-7.5" font-family="Helvetica,sans-Serif" font-size="10.00">readPin</text>
</a>
</g>
</g>
<!-- Node16&#45;&gt;Node17 -->
<g id="edge1" class="edge"><title>Node16&#45;&gt;Node17</title>
<path fill="none" stroke="midnightblue" d="M93.1222,-10C102.057,-10 110.977,-10 118.751,-10"/>
<polygon fill="midnightblue" stroke="midnightblue" points="93.0875,-6.5001 83.0875,-10 93.0875,-13.5001 93.0875,-6.5001"/>
</g>
<!-- Node17&#45;&gt;Node17 -->
<g id="edge2" class="edge"><title>Node17&#45;&gt;Node17</title>
<path fill="none" stroke="midnightblue" d="M125.112,-29.4C126.373,-34.3146 132.669,-38 144,-38 162.129,-38 167.369,-28.5653 159.721,-19.7571"/>
<polygon fill="midnightblue" stroke="midnightblue" points="128.484,-30.3499 128.279,-19.7571 121.833,-28.1658 128.484,-30.3499"/>
</g>
</g>
</svg>
